<svg width="80" height="80" viewBox="0 0 80 80" fill="none" xmlns="http://www.w3.org/2000/svg">
<circle cx="40" cy="40" r="40" fill="#009317" fill-opacity="0.5"/>
<path d="M52.2101 25.4C53.0198 25.8535 53.6163 26.61 53.8683 27.5032C54.1203 28.3964 54.0073 29.3531 53.5541 30.163L42.0441 50.717C41.7526 51.2377 41.3483 51.6866 40.8608 52.0308C40.3733 52.3749 39.8149 52.6057 39.2267 52.7061C38.6384 52.8065 38.0352 52.774 37.4611 52.6109C36.8871 52.4479 36.3568 52.1586 35.9091 51.764L27.1861 44.08C26.4896 43.4663 26.0655 42.601 26.007 41.6746C25.9485 40.7482 26.2604 39.8365 26.8741 39.14C27.4878 38.4435 28.353 38.0194 29.2795 37.9609C30.2059 37.9024 31.1176 38.2143 31.8141 38.828L37.7501 44.058L47.4461 26.744C47.6706 26.3429 47.972 25.99 48.3329 25.7054C48.6939 25.4208 49.1073 25.2101 49.5497 25.0853C49.9921 24.9605 50.4547 24.924 50.9112 24.978C51.3677 25.032 51.809 25.1754 52.2101 25.4V25.4Z" fill="white" fill-opacity="0.8"/>
</svg>
