<svg width="1706" height="1118" viewBox="0 0 1706 1118" fill="none" xmlns="http://www.w3.org/2000/svg">
<rect x="3" y="3" width="1700" height="1112" rx="32" fill="white" stroke="#009317" stroke-width="6"/>
<path d="M88.96 140.76C88.96 165.96 106.48 183.6 131.32 183.6C151.36 183.6 166.48 172.44 171.28 154.2H148.72C145.24 161.4 138.88 165 131.08 165C118.48 165 109.84 155.64 109.84 140.76C109.84 125.88 118.48 116.52 131.08 116.52C138.88 116.52 145.24 120.12 148.72 127.32H171.28C166.48 109.08 151.36 97.8 131.32 97.8C106.48 97.8 88.96 115.56 88.96 140.76ZM249.366 149.52C249.366 128.28 234.246 115.08 214.566 115.08C195.006 115.08 179.766 128.28 179.766 149.52C179.766 170.76 194.646 183.96 214.326 183.96C234.006 183.96 249.366 170.76 249.366 149.52ZM200.646 149.52C200.646 138.12 207.126 132.84 214.566 132.84C221.766 132.84 228.486 138.12 228.486 149.52C228.486 160.8 221.646 166.2 214.326 166.2C206.886 166.2 200.646 160.8 200.646 149.52ZM306.453 183H326.853V143.88C326.853 125.88 316.533 115.32 301.053 115.32C292.053 115.32 284.853 119.28 280.773 124.92V116.04H260.253V183H280.773V146.64C280.773 137.52 285.813 132.48 293.613 132.48C301.413 132.48 306.453 137.52 306.453 146.64V183ZM337.032 149.52C337.032 170.76 350.952 183.96 370.632 183.96C387.432 183.96 399.312 174.24 402.792 158.76H380.952C379.152 163.68 375.912 166.44 370.272 166.44C362.952 166.44 357.912 160.68 357.912 149.52C357.912 138.36 362.952 132.6 370.272 132.6C375.912 132.6 379.272 135.6 380.952 140.28H402.792C399.312 124.32 387.432 115.08 370.632 115.08C350.952 115.08 337.032 128.4 337.032 149.52ZM443.288 131.52C450.128 131.52 455.888 135.72 455.888 143.04H430.208C431.408 135.6 436.568 131.52 443.288 131.52ZM475.328 160.8H453.488C451.808 164.4 448.568 167.28 442.808 167.28C436.208 167.28 430.808 163.2 430.088 154.44H476.528C476.768 152.4 476.888 150.36 476.888 148.44C476.888 128.04 463.088 115.08 443.528 115.08C423.608 115.08 409.688 128.28 409.688 149.52C409.688 170.76 423.848 183.96 443.528 183.96C460.208 183.96 472.088 173.88 475.328 160.8ZM508.233 125.52V116.04H487.713V214.92H508.233V173.64C511.953 179.28 519.033 183.96 528.873 183.96C545.313 183.96 558.393 170.52 558.393 149.4C558.393 128.28 545.313 115.08 528.873 115.08C519.033 115.08 511.953 119.64 508.233 125.52ZM537.513 149.4C537.513 160.08 530.553 166.08 522.753 166.08C515.073 166.08 508.113 160.2 508.113 149.52C508.113 138.84 515.073 132.96 522.753 132.96C530.553 132.96 537.513 138.72 537.513 149.4ZM572.399 159.72C572.399 177.12 582.119 183 596.039 183H606.479V165.6H599.159C594.599 165.6 592.919 163.92 592.919 159.96V133.08H606.359V116.04H592.919V99.72H572.399V116.04H564.239V133.08H572.399V159.72ZM699.138 146.16H679.218L682.578 130.44H702.498L699.138 146.16ZM691.218 183H710.418L714.378 164.64H732.738V146.16H718.338L721.698 130.44H740.418V111.96H725.538L729.378 94.2H710.178L706.338 111.96H686.418L690.258 94.2H671.058L667.218 111.96H645.978V130.44H663.378L660.018 146.16H638.298V164.64H656.058L652.098 183H671.298L675.258 164.64H695.178L691.218 183ZM759.534 183H780.894V95.4H747.654V114.48H759.534V183Z" fill="black"/>
<path d="M87.96 417.08C87.96 411.64 89.2133 406.76 91.72 402.44C94.28 398.12 97.72 394.76 102.04 392.36C106.413 389.907 111.187 388.68 116.36 388.68C122.28 388.68 127.533 390.147 132.12 393.08C136.76 395.96 140.12 400.067 142.2 405.4H131.24C129.8 402.467 127.8 400.28 125.24 398.84C122.68 397.4 119.72 396.68 116.36 396.68C112.68 396.68 109.4 397.507 106.52 399.16C103.64 400.813 101.373 403.187 99.72 406.28C98.12 409.373 97.32 412.973 97.32 417.08C97.32 421.187 98.12 424.787 99.72 427.88C101.373 430.973 103.64 433.373 106.52 435.08C109.4 436.733 112.68 437.56 116.36 437.56C119.72 437.56 122.68 436.84 125.24 435.4C127.8 433.96 129.8 431.773 131.24 428.84H142.2C140.12 434.173 136.76 438.28 132.12 441.16C127.533 444.04 122.28 445.48 116.36 445.48C111.133 445.48 106.36 444.28 102.04 441.88C97.72 439.427 94.28 436.04 91.72 431.72C89.2133 427.4 87.96 422.52 87.96 417.08ZM161.995 407.32C163.328 405.08 165.088 403.347 167.275 402.12C169.515 400.84 172.155 400.2 175.195 400.2V409.64H172.875C169.302 409.64 166.582 410.547 164.715 412.36C162.902 414.173 161.995 417.32 161.995 421.8V445H152.875V400.92H161.995V407.32ZM223.978 421.88C223.978 423.533 223.871 425.027 223.658 426.36H189.978C190.245 429.88 191.551 432.707 193.898 434.84C196.245 436.973 199.125 438.04 202.538 438.04C207.445 438.04 210.911 435.987 212.938 431.88H222.778C221.445 435.933 219.018 439.267 215.498 441.88C212.031 444.44 207.711 445.72 202.538 445.72C198.325 445.72 194.538 444.787 191.178 442.92C187.871 441 185.258 438.333 183.338 434.92C181.471 431.453 180.538 427.453 180.538 422.92C180.538 418.387 181.445 414.413 183.258 411C185.125 407.533 187.711 404.867 191.018 403C194.378 401.133 198.218 400.2 202.538 400.2C206.698 400.2 210.405 401.107 213.658 402.92C216.911 404.733 219.445 407.293 221.258 410.6C223.071 413.853 223.978 417.613 223.978 421.88ZM214.458 419C214.405 415.64 213.205 412.947 210.858 410.92C208.511 408.893 205.605 407.88 202.138 407.88C198.991 407.88 196.298 408.893 194.058 410.92C191.818 412.893 190.485 415.587 190.058 419H214.458ZM229.913 422.76C229.913 418.333 230.82 414.413 232.633 411C234.5 407.587 237.006 404.947 240.153 403.08C243.353 401.16 246.873 400.2 250.713 400.2C254.18 400.2 257.193 400.893 259.753 402.28C262.366 403.613 264.446 405.293 265.993 407.32V400.92H275.193V445H265.993V438.44C264.446 440.52 262.34 442.253 259.673 443.64C257.006 445.027 253.966 445.72 250.553 445.72C246.766 445.72 243.3 444.76 240.153 442.84C237.006 440.867 234.5 438.147 232.633 434.68C230.82 431.16 229.913 427.187 229.913 422.76ZM265.993 422.92C265.993 419.88 265.353 417.24 264.073 415C262.846 412.76 261.22 411.053 259.193 409.88C257.166 408.707 254.98 408.12 252.633 408.12C250.286 408.12 248.1 408.707 246.073 409.88C244.046 411 242.393 412.68 241.113 414.92C239.886 417.107 239.273 419.72 239.273 422.76C239.273 425.8 239.886 428.467 241.113 430.76C242.393 433.053 244.046 434.813 246.073 436.04C248.153 437.213 250.34 437.8 252.633 437.8C254.98 437.8 257.166 437.213 259.193 436.04C261.22 434.867 262.846 433.16 264.073 430.92C265.353 428.627 265.993 425.96 265.993 422.92ZM297.812 408.36V432.76C297.812 434.413 298.185 435.613 298.932 436.36C299.732 437.053 301.065 437.4 302.932 437.4H308.532V445H301.332C297.225 445 294.079 444.04 291.892 442.12C289.705 440.2 288.612 437.08 288.612 432.76V408.36H283.412V400.92H288.612V389.96H297.812V400.92H308.532V408.36H297.812ZM357.338 421.88C357.338 423.533 357.231 425.027 357.018 426.36H323.338C323.604 429.88 324.911 432.707 327.258 434.84C329.604 436.973 332.484 438.04 335.898 438.04C340.804 438.04 344.271 435.987 346.298 431.88H356.137C354.804 435.933 352.378 439.267 348.858 441.88C345.391 444.44 341.071 445.72 335.898 445.72C331.684 445.72 327.898 444.787 324.538 442.92C321.231 441 318.618 438.333 316.698 434.92C314.831 431.453 313.898 427.453 313.898 422.92C313.898 418.387 314.804 414.413 316.618 411C318.484 407.533 321.071 404.867 324.378 403C327.738 401.133 331.578 400.2 335.898 400.2C340.058 400.2 343.764 401.107 347.018 402.92C350.271 404.733 352.804 407.293 354.618 410.6C356.431 413.853 357.338 417.613 357.338 421.88ZM347.818 419C347.764 415.64 346.564 412.947 344.218 410.92C341.871 408.893 338.964 407.88 335.498 407.88C332.351 407.88 329.658 408.893 327.418 410.92C325.178 412.893 323.844 415.587 323.418 419H347.818ZM384.054 422.76C384.054 418.333 384.96 414.413 386.774 411C388.64 407.587 391.147 404.947 394.294 403.08C397.494 401.16 401.014 400.2 404.854 400.2C408.32 400.2 411.334 400.893 413.894 402.28C416.507 403.613 418.587 405.293 420.134 407.32V400.92H429.334V445H420.134V438.44C418.587 440.52 416.48 442.253 413.814 443.64C411.147 445.027 408.107 445.72 404.694 445.72C400.907 445.72 397.44 444.76 394.294 442.84C391.147 440.867 388.64 438.147 386.774 434.68C384.96 431.16 384.054 427.187 384.054 422.76ZM420.134 422.92C420.134 419.88 419.494 417.24 418.214 415C416.987 412.76 415.36 411.053 413.334 409.88C411.307 408.707 409.12 408.12 406.774 408.12C404.427 408.12 402.24 408.707 400.214 409.88C398.187 411 396.534 412.68 395.254 414.92C394.027 417.107 393.414 419.72 393.414 422.76C393.414 425.8 394.027 428.467 395.254 430.76C396.534 433.053 398.187 434.813 400.214 436.04C402.294 437.213 404.48 437.8 406.774 437.8C409.12 437.8 411.307 437.213 413.334 436.04C415.36 434.867 416.987 433.16 418.214 430.92C419.494 428.627 420.134 425.96 420.134 422.92ZM463.553 400.2C467.019 400.2 470.113 400.92 472.833 402.36C475.606 403.8 477.766 405.933 479.313 408.76C480.859 411.587 481.633 415 481.633 419V445H472.593V420.36C472.593 416.413 471.606 413.4 469.633 411.32C467.659 409.187 464.966 408.12 461.553 408.12C458.139 408.12 455.419 409.187 453.393 411.32C451.419 413.4 450.433 416.413 450.433 420.36V445H441.313V400.92H450.433V405.96C451.926 404.147 453.819 402.733 456.113 401.72C458.459 400.707 460.939 400.2 463.553 400.2ZM511.007 422.76C511.007 418.333 511.914 414.413 513.727 411C515.594 407.587 518.1 404.947 521.247 403.08C524.447 401.16 527.967 400.2 531.807 400.2C535.274 400.2 538.287 400.893 540.847 402.28C543.46 403.613 545.54 405.293 547.087 407.32V400.92H556.287V445H547.087V438.44C545.54 440.52 543.434 442.253 540.767 443.64C538.1 445.027 535.06 445.72 531.647 445.72C527.86 445.72 524.394 444.76 521.247 442.84C518.1 440.867 515.594 438.147 513.727 434.68C511.914 431.16 511.007 427.187 511.007 422.76ZM547.087 422.92C547.087 419.88 546.447 417.24 545.167 415C543.94 412.76 542.314 411.053 540.287 409.88C538.26 408.707 536.074 408.12 533.727 408.12C531.38 408.12 529.194 408.707 527.167 409.88C525.14 411 523.487 412.68 522.207 414.92C520.98 417.107 520.367 419.72 520.367 422.76C520.367 425.8 520.98 428.467 522.207 430.76C523.487 433.053 525.14 434.813 527.167 436.04C529.247 437.213 531.434 437.8 533.727 437.8C536.074 437.8 538.26 437.213 540.287 436.04C542.314 434.867 543.94 433.16 545.167 430.92C546.447 428.627 547.087 425.96 547.087 422.92ZM577.386 407.4C578.932 405.373 581.039 403.667 583.706 402.28C586.372 400.893 589.386 400.2 592.746 400.2C596.586 400.2 600.079 401.16 603.226 403.08C606.426 404.947 608.932 407.587 610.746 411C612.559 414.413 613.466 418.333 613.466 422.76C613.466 427.187 612.559 431.16 610.746 434.68C608.932 438.147 606.426 440.867 603.226 442.84C600.079 444.76 596.586 445.72 592.746 445.72C589.386 445.72 586.399 445.053 583.786 443.72C581.172 442.333 579.039 440.627 577.386 438.6V465.96H568.266V400.92H577.386V407.4ZM604.186 422.76C604.186 419.72 603.546 417.107 602.266 414.92C601.039 412.68 599.386 411 597.306 409.88C595.279 408.707 593.092 408.12 590.746 408.12C588.452 408.12 586.266 408.707 584.186 409.88C582.159 411.053 580.506 412.76 579.226 415C577.999 417.24 577.386 419.88 577.386 422.92C577.386 425.96 577.999 428.627 579.226 430.92C580.506 433.16 582.159 434.867 584.186 436.04C586.266 437.213 588.452 437.8 590.746 437.8C593.092 437.8 595.279 437.213 597.306 436.04C599.386 434.813 601.039 433.053 602.266 430.76C603.546 428.467 604.186 425.8 604.186 422.76ZM631.604 407.4C633.151 405.373 635.258 403.667 637.924 402.28C640.591 400.893 643.604 400.2 646.964 400.2C650.804 400.2 654.298 401.16 657.444 403.08C660.644 404.947 663.151 407.587 664.964 411C666.778 414.413 667.684 418.333 667.684 422.76C667.684 427.187 666.778 431.16 664.964 434.68C663.151 438.147 660.644 440.867 657.444 442.84C654.298 444.76 650.804 445.72 646.964 445.72C643.604 445.72 640.618 445.053 638.004 443.72C635.391 442.333 633.258 440.627 631.604 438.6V465.96H622.484V400.92H631.604V407.4ZM658.404 422.76C658.404 419.72 657.764 417.107 656.484 414.92C655.258 412.68 653.604 411 651.524 409.88C649.498 408.707 647.311 408.12 644.964 408.12C642.671 408.12 640.484 408.707 638.404 409.88C636.378 411.053 634.724 412.76 633.444 415C632.218 417.24 631.604 419.88 631.604 422.92C631.604 425.96 632.218 428.627 633.444 430.92C634.724 433.16 636.378 434.867 638.404 436.04C640.484 437.213 642.671 437.8 644.964 437.8C647.311 437.8 649.498 437.213 651.524 436.04C653.604 434.813 655.258 433.053 656.484 430.76C657.764 428.467 658.404 425.8 658.404 422.76ZM708.124 408.36V432.76C708.124 434.413 708.498 435.613 709.244 436.36C710.044 437.053 711.378 437.4 713.244 437.4H718.844V445H711.644C707.538 445 704.391 444.04 702.204 442.12C700.018 440.2 698.924 437.08 698.924 432.76V408.36H693.724V400.92H698.924V389.96H708.124V400.92H718.844V408.36H708.124ZM750.05 400.2C753.41 400.2 756.397 400.92 759.01 402.36C761.677 403.8 763.757 405.933 765.25 408.76C766.797 411.587 767.57 415 767.57 419V445H758.53V420.36C758.53 416.413 757.543 413.4 755.57 411.32C753.597 409.187 750.903 408.12 747.49 408.12C744.077 408.12 741.357 409.187 739.33 411.32C737.357 413.4 736.37 416.413 736.37 420.36V445H727.25V385.8H736.37V406.04C737.917 404.173 739.863 402.733 742.21 401.72C744.61 400.707 747.223 400.2 750.05 400.2ZM776.163 422.76C776.163 418.333 777.07 414.413 778.883 411C780.75 407.587 783.256 404.947 786.403 403.08C789.603 401.16 793.123 400.2 796.963 400.2C800.43 400.2 803.443 400.893 806.003 402.28C808.616 403.613 810.696 405.293 812.243 407.32V400.92H821.443V445H812.243V438.44C810.696 440.52 808.59 442.253 805.923 443.64C803.256 445.027 800.216 445.72 796.803 445.72C793.016 445.72 789.55 444.76 786.403 442.84C783.256 440.867 780.75 438.147 778.883 434.68C777.07 431.16 776.163 427.187 776.163 422.76ZM812.243 422.92C812.243 419.88 811.603 417.24 810.323 415C809.096 412.76 807.47 411.053 805.443 409.88C803.416 408.707 801.23 408.12 798.883 408.12C796.536 408.12 794.35 408.707 792.323 409.88C790.296 411 788.643 412.68 787.363 414.92C786.136 417.107 785.523 419.72 785.523 422.76C785.523 425.8 786.136 428.467 787.363 430.76C788.643 433.053 790.296 434.813 792.323 436.04C794.403 437.213 796.59 437.8 798.883 437.8C801.23 437.8 803.416 437.213 805.443 436.04C807.47 434.867 809.096 433.16 810.323 430.92C811.603 428.627 812.243 425.96 812.243 422.92ZM844.062 408.36V432.76C844.062 434.413 844.435 435.613 845.182 436.36C845.982 437.053 847.315 437.4 849.182 437.4H854.782V445H847.582C843.475 445 840.329 444.04 838.142 442.12C835.955 440.2 834.862 437.08 834.862 432.76V408.36H829.662V400.92H834.862V389.96H844.062V400.92H854.782V408.36H844.062ZM906.769 400.2C910.129 400.2 913.115 400.92 915.729 402.36C918.395 403.8 920.475 405.933 921.969 408.76C923.515 411.587 924.289 415 924.289 419V445H915.249V420.36C915.249 416.413 914.262 413.4 912.289 411.32C910.315 409.187 907.622 408.12 904.209 408.12C900.795 408.12 898.075 409.187 896.049 411.32C894.075 413.4 893.089 416.413 893.089 420.36V445H883.969V385.8H893.089V406.04C894.635 404.173 896.582 402.733 898.929 401.72C901.329 400.707 903.942 400.2 906.769 400.2ZM976.322 421.88C976.322 423.533 976.215 425.027 976.002 426.36H942.322C942.589 429.88 943.895 432.707 946.242 434.84C948.589 436.973 951.469 438.04 954.882 438.04C959.789 438.04 963.255 435.987 965.282 431.88H975.122C973.789 435.933 971.362 439.267 967.842 441.88C964.375 444.44 960.055 445.72 954.882 445.72C950.669 445.72 946.882 444.787 943.522 442.92C940.215 441 937.602 438.333 935.682 434.92C933.815 431.453 932.882 427.453 932.882 422.92C932.882 418.387 933.789 414.413 935.602 411C937.469 407.533 940.055 404.867 943.362 403C946.722 401.133 950.562 400.2 954.882 400.2C959.042 400.2 962.749 401.107 966.002 402.92C969.255 404.733 971.789 407.293 973.602 410.6C975.415 413.853 976.322 417.613 976.322 421.88ZM966.802 419C966.749 415.64 965.549 412.947 963.202 410.92C960.855 408.893 957.949 407.88 954.482 407.88C951.335 407.88 948.642 408.893 946.402 410.92C944.162 412.893 942.829 415.587 942.402 419H966.802ZM994.417 385.8V445H985.297V385.8H994.417ZM1015.51 407.4C1017.06 405.373 1019.16 403.667 1021.83 402.28C1024.5 400.893 1027.51 400.2 1030.87 400.2C1034.71 400.2 1038.2 401.16 1041.35 403.08C1044.55 404.947 1047.06 407.587 1048.87 411C1050.68 414.413 1051.59 418.333 1051.59 422.76C1051.59 427.187 1050.68 431.16 1048.87 434.68C1047.06 438.147 1044.55 440.867 1041.35 442.84C1038.2 444.76 1034.71 445.72 1030.87 445.72C1027.51 445.72 1024.52 445.053 1021.91 443.72C1019.3 442.333 1017.16 440.627 1015.51 438.6V465.96H1006.39V400.92H1015.51V407.4ZM1042.31 422.76C1042.31 419.72 1041.67 417.107 1040.39 414.92C1039.16 412.68 1037.51 411 1035.43 409.88C1033.4 408.707 1031.22 408.12 1028.87 408.12C1026.58 408.12 1024.39 408.707 1022.31 409.88C1020.28 411.053 1018.63 412.76 1017.35 415C1016.12 417.24 1015.51 419.88 1015.51 422.92C1015.51 425.96 1016.12 428.627 1017.35 430.92C1018.63 433.16 1020.28 434.867 1022.31 436.04C1024.39 437.213 1026.58 437.8 1028.87 437.8C1031.22 437.8 1033.4 437.213 1035.43 436.04C1037.51 434.813 1039.16 433.053 1040.39 430.76C1041.67 428.467 1042.31 425.8 1042.31 422.76ZM1076.61 445.72C1073.14 445.72 1070.02 445.107 1067.25 443.88C1064.53 442.6 1062.37 440.893 1060.77 438.76C1059.17 436.573 1058.32 434.147 1058.21 431.48H1067.65C1067.81 433.347 1068.69 434.92 1070.29 436.2C1071.94 437.427 1074 438.04 1076.45 438.04C1079.01 438.04 1080.98 437.56 1082.37 436.6C1083.81 435.587 1084.53 434.307 1084.53 432.76C1084.53 431.107 1083.73 429.88 1082.13 429.08C1080.58 428.28 1078.1 427.4 1074.69 426.44C1071.38 425.533 1068.69 424.653 1066.61 423.8C1064.53 422.947 1062.72 421.64 1061.17 419.88C1059.68 418.12 1058.93 415.8 1058.93 412.92C1058.93 410.573 1059.62 408.44 1061.01 406.52C1062.4 404.547 1064.37 403 1066.93 401.88C1069.54 400.76 1072.53 400.2 1075.89 400.2C1080.9 400.2 1084.93 401.48 1087.97 404.04C1091.06 406.547 1092.72 409.987 1092.93 414.36H1083.81C1083.65 412.387 1082.85 410.813 1081.41 409.64C1079.97 408.467 1078.02 407.88 1075.57 407.88C1073.17 407.88 1071.33 408.333 1070.05 409.24C1068.77 410.147 1068.13 411.347 1068.13 412.84C1068.13 414.013 1068.56 415 1069.41 415.8C1070.26 416.6 1071.3 417.24 1072.53 417.72C1073.76 418.147 1075.57 418.707 1077.97 419.4C1081.17 420.253 1083.78 421.133 1085.81 422.04C1087.89 422.893 1089.68 424.173 1091.17 425.88C1092.66 427.587 1093.44 429.853 1093.49 432.68C1093.49 435.187 1092.8 437.427 1091.41 439.4C1090.02 441.373 1088.05 442.92 1085.49 444.04C1082.98 445.16 1080.02 445.72 1076.61 445.72ZM1133.25 407.4C1134.79 405.373 1136.9 403.667 1139.57 402.28C1142.23 400.893 1145.25 400.2 1148.61 400.2C1152.45 400.2 1155.94 401.16 1159.09 403.08C1162.29 404.947 1164.79 407.587 1166.61 411C1168.42 414.413 1169.33 418.333 1169.33 422.76C1169.33 427.187 1168.42 431.16 1166.61 434.68C1164.79 438.147 1162.29 440.867 1159.09 442.84C1155.94 444.76 1152.45 445.72 1148.61 445.72C1145.25 445.72 1142.26 445.053 1139.65 443.72C1137.03 442.333 1134.9 440.627 1133.25 438.6V465.96H1124.13V400.92H1133.25V407.4ZM1160.05 422.76C1160.05 419.72 1159.41 417.107 1158.12 414.92C1156.9 412.68 1155.25 411 1153.17 409.88C1151.14 408.707 1148.95 408.12 1146.61 408.12C1144.31 408.12 1142.13 408.707 1140.05 409.88C1138.02 411.053 1136.37 412.76 1135.09 415C1133.86 417.24 1133.25 419.88 1133.25 422.92C1133.25 425.96 1133.86 428.627 1135.09 430.92C1136.37 433.16 1138.02 434.867 1140.05 436.04C1142.13 437.213 1144.31 437.8 1146.61 437.8C1148.95 437.8 1151.14 437.213 1153.17 436.04C1155.25 434.813 1156.9 433.053 1158.12 430.76C1159.41 428.467 1160.05 425.8 1160.05 422.76ZM1218.74 421.88C1218.74 423.533 1218.64 425.027 1218.42 426.36H1184.74C1185.01 429.88 1186.32 432.707 1188.66 434.84C1191.01 436.973 1193.89 438.04 1197.3 438.04C1202.21 438.04 1205.68 435.987 1207.7 431.88H1217.54C1216.21 435.933 1213.78 439.267 1210.26 441.88C1206.8 444.44 1202.48 445.72 1197.3 445.72C1193.09 445.72 1189.3 444.787 1185.94 442.92C1182.64 441 1180.02 438.333 1178.1 434.92C1176.24 431.453 1175.3 427.453 1175.3 422.92C1175.3 418.387 1176.21 414.413 1178.02 411C1179.89 407.533 1182.48 404.867 1185.78 403C1189.14 401.133 1192.98 400.2 1197.3 400.2C1201.46 400.2 1205.17 401.107 1208.42 402.92C1211.68 404.733 1214.21 407.293 1216.02 410.6C1217.84 413.853 1218.74 417.613 1218.74 421.88ZM1209.22 419C1209.17 415.64 1207.97 412.947 1205.62 410.92C1203.28 408.893 1200.37 407.88 1196.9 407.88C1193.76 407.88 1191.06 408.893 1188.82 410.92C1186.58 412.893 1185.25 415.587 1184.82 419H1209.22ZM1246.84 445.72C1242.68 445.72 1238.92 444.787 1235.56 442.92C1232.2 441 1229.56 438.333 1227.64 434.92C1225.72 431.453 1224.76 427.453 1224.76 422.92C1224.76 418.44 1225.75 414.467 1227.72 411C1229.69 407.533 1232.39 404.867 1235.8 403C1239.21 401.133 1243.03 400.2 1247.24 400.2C1251.45 400.2 1255.27 401.133 1258.68 403C1262.09 404.867 1264.79 407.533 1266.76 411C1268.73 414.467 1269.72 418.44 1269.72 422.92C1269.72 427.4 1268.71 431.373 1266.68 434.84C1264.65 438.307 1261.88 441 1258.36 442.92C1254.89 444.787 1251.05 445.72 1246.84 445.72ZM1246.84 437.8C1249.19 437.8 1251.37 437.24 1253.4 436.12C1255.48 435 1257.16 433.32 1258.44 431.08C1259.72 428.84 1260.36 426.12 1260.36 422.92C1260.36 419.72 1259.75 417.027 1258.52 414.84C1257.29 412.6 1255.67 410.92 1253.64 409.8C1251.61 408.68 1249.43 408.12 1247.08 408.12C1244.73 408.12 1242.55 408.68 1240.52 409.8C1238.55 410.92 1236.97 412.6 1235.8 414.84C1234.63 417.027 1234.04 419.72 1234.04 422.92C1234.04 427.667 1235.24 431.347 1237.64 433.96C1240.09 436.52 1243.16 437.8 1246.84 437.8ZM1287.85 407.4C1289.4 405.373 1291.51 403.667 1294.17 402.28C1296.84 400.893 1299.85 400.2 1303.21 400.2C1307.05 400.2 1310.55 401.16 1313.69 403.08C1316.89 404.947 1319.4 407.587 1321.21 411C1323.03 414.413 1323.93 418.333 1323.93 422.76C1323.93 427.187 1323.03 431.16 1321.21 434.68C1319.4 438.147 1316.89 440.867 1313.69 442.84C1310.55 444.76 1307.05 445.72 1303.21 445.72C1299.85 445.72 1296.87 445.053 1294.25 443.72C1291.64 442.333 1289.51 440.627 1287.85 438.6V465.96H1278.73V400.92H1287.85V407.4ZM1314.65 422.76C1314.65 419.72 1314.01 417.107 1312.73 414.92C1311.51 412.68 1309.85 411 1307.77 409.88C1305.75 408.707 1303.56 408.12 1301.21 408.12C1298.92 408.12 1296.73 408.707 1294.65 409.88C1292.63 411.053 1290.97 412.76 1289.69 415C1288.47 417.24 1287.85 419.88 1287.85 422.92C1287.85 425.96 1288.47 428.627 1289.69 430.92C1290.97 433.16 1292.63 434.867 1294.65 436.04C1296.73 437.213 1298.92 437.8 1301.21 437.8C1303.56 437.8 1305.75 437.213 1307.77 436.04C1309.85 434.813 1311.51 433.053 1312.73 430.76C1314.01 428.467 1314.65 425.8 1314.65 422.76ZM1342.07 385.8V445H1332.95V385.8H1342.07ZM1394.45 421.88C1394.45 423.533 1394.34 425.027 1394.13 426.36H1360.45C1360.71 429.88 1362.02 432.707 1364.37 434.84C1366.71 436.973 1369.59 438.04 1373.01 438.04C1377.91 438.04 1381.38 435.987 1383.41 431.88H1393.25C1391.91 435.933 1389.49 439.267 1385.97 441.88C1382.5 444.44 1378.18 445.72 1373.01 445.72C1368.79 445.72 1365.01 444.787 1361.65 442.92C1358.34 441 1355.73 438.333 1353.81 434.92C1351.94 431.453 1351.01 427.453 1351.01 422.92C1351.01 418.387 1351.91 414.413 1353.73 411C1355.59 407.533 1358.18 404.867 1361.49 403C1364.85 401.133 1368.69 400.2 1373.01 400.2C1377.17 400.2 1380.87 401.107 1384.13 402.92C1387.38 404.733 1389.91 407.293 1391.73 410.6C1393.54 413.853 1394.45 417.613 1394.45 421.88ZM1384.93 419C1384.87 415.64 1383.67 412.947 1381.33 410.92C1378.98 408.893 1376.07 407.88 1372.61 407.88C1369.46 407.88 1366.77 408.893 1364.53 410.92C1362.29 412.893 1360.95 415.587 1360.53 419H1384.93ZM100.12 527.48C101.667 525.347 103.773 523.613 106.44 522.28C109.16 520.893 112.173 520.2 115.48 520.2C119.373 520.2 122.893 521.133 126.04 523C129.187 524.867 131.667 527.533 133.48 531C135.293 534.413 136.2 538.333 136.2 542.76C136.2 547.187 135.293 551.16 133.48 554.68C131.667 558.147 129.16 560.867 125.96 562.84C122.813 564.76 119.32 565.72 115.48 565.72C112.067 565.72 109.027 565.053 106.36 563.72C103.747 562.387 101.667 560.68 100.12 558.6V565H91V505.8H100.12V527.48ZM126.92 542.76C126.92 539.72 126.28 537.107 125 534.92C123.773 532.68 122.12 531 120.04 529.88C118.013 528.707 115.827 528.12 113.48 528.12C111.187 528.12 109 528.707 106.92 529.88C104.893 531.053 103.24 532.76 101.96 535C100.733 537.24 100.12 539.88 100.12 542.92C100.12 545.96 100.733 548.627 101.96 550.92C103.24 553.16 104.893 554.867 106.92 556.04C109 557.213 111.187 557.8 113.48 557.8C115.827 557.8 118.013 557.213 120.04 556.04C122.12 554.813 123.773 553.053 125 550.76C126.28 548.467 126.92 545.8 126.92 542.76ZM185.139 520.92V565H176.019V559.8C174.579 561.613 172.685 563.053 170.339 564.12C168.045 565.133 165.592 565.64 162.979 565.64C159.512 565.64 156.392 564.92 153.619 563.48C150.899 562.04 148.739 559.907 147.139 557.08C145.592 554.253 144.819 550.84 144.819 546.84V520.92H153.859V545.48C153.859 549.427 154.845 552.467 156.819 554.6C158.792 556.68 161.485 557.72 164.899 557.72C168.312 557.72 171.005 556.68 172.979 554.6C175.005 552.467 176.019 549.427 176.019 545.48V520.92H185.139ZM194.132 542.76C194.132 538.333 195.039 534.413 196.852 531C198.719 527.587 201.225 524.947 204.372 523.08C207.572 521.16 211.119 520.2 215.012 520.2C217.892 520.2 220.719 520.84 223.492 522.12C226.319 523.347 228.559 525 230.212 527.08V505.8H239.412V565H230.212V558.36C228.719 560.493 226.639 562.253 223.972 563.64C221.359 565.027 218.345 565.72 214.932 565.72C211.092 565.72 207.572 564.76 204.372 562.84C201.225 560.867 198.719 558.147 196.852 554.68C195.039 551.16 194.132 547.187 194.132 542.76ZM230.212 542.92C230.212 539.88 229.572 537.24 228.292 535C227.065 532.76 225.439 531.053 223.412 529.88C221.385 528.707 219.199 528.12 216.852 528.12C214.505 528.12 212.319 528.707 210.292 529.88C208.265 531 206.612 532.68 205.332 534.92C204.105 537.107 203.492 539.72 203.492 542.76C203.492 545.8 204.105 548.467 205.332 550.76C206.612 553.053 208.265 554.813 210.292 556.04C212.372 557.213 214.559 557.8 216.852 557.8C219.199 557.8 221.385 557.213 223.412 556.04C225.439 554.867 227.065 553.16 228.292 550.92C229.572 548.627 230.212 545.96 230.212 542.92ZM269.151 520.2C272.564 520.2 275.577 520.893 278.191 522.28C280.857 523.613 282.937 525.293 284.431 527.32V520.92H293.631V565.72C293.631 569.773 292.777 573.373 291.071 576.52C289.364 579.72 286.884 582.227 283.631 584.04C280.431 585.853 276.591 586.76 272.111 586.76C266.137 586.76 261.177 585.347 257.231 582.52C253.284 579.747 251.044 575.96 250.511 571.16H259.551C260.244 573.453 261.711 575.293 263.951 576.68C266.244 578.12 268.964 578.84 272.111 578.84C275.791 578.84 278.751 577.72 280.991 575.48C283.284 573.24 284.431 569.987 284.431 565.72V558.36C282.884 560.44 280.777 562.2 278.111 563.64C275.497 565.027 272.511 565.72 269.151 565.72C265.311 565.72 261.791 564.76 258.591 562.84C255.444 560.867 252.937 558.147 251.071 554.68C249.257 551.16 248.351 547.187 248.351 542.76C248.351 538.333 249.257 534.413 251.071 531C252.937 527.587 255.444 524.947 258.591 523.08C261.791 521.16 265.311 520.2 269.151 520.2ZM284.431 542.92C284.431 539.88 283.791 537.24 282.511 535C281.284 532.76 279.657 531.053 277.631 529.88C275.604 528.707 273.417 528.12 271.071 528.12C268.724 528.12 266.537 528.707 264.511 529.88C262.484 531 260.831 532.68 259.551 534.92C258.324 537.107 257.711 539.72 257.711 542.76C257.711 545.8 258.324 548.467 259.551 550.76C260.831 553.053 262.484 554.813 264.511 556.04C266.591 557.213 268.777 557.8 271.071 557.8C273.417 557.8 275.604 557.213 277.631 556.04C279.657 554.867 281.284 553.16 282.511 550.92C283.791 548.627 284.431 545.96 284.431 542.92ZM346.009 541.88C346.009 543.533 345.903 545.027 345.689 546.36H312.009C312.276 549.88 313.583 552.707 315.929 554.84C318.276 556.973 321.156 558.04 324.569 558.04C329.476 558.04 332.943 555.987 334.969 551.88H344.809C343.476 555.933 341.049 559.267 337.529 561.88C334.063 564.44 329.743 565.72 324.569 565.72C320.356 565.72 316.569 564.787 313.209 562.92C309.903 561 307.289 558.333 305.369 554.92C303.503 551.453 302.569 547.453 302.569 542.92C302.569 538.387 303.476 534.413 305.289 531C307.156 527.533 309.743 524.867 313.049 523C316.409 521.133 320.249 520.2 324.569 520.2C328.729 520.2 332.436 521.107 335.689 522.92C338.943 524.733 341.476 527.293 343.289 530.6C345.103 533.853 346.009 537.613 346.009 541.88ZM336.489 539C336.436 535.64 335.236 532.947 332.889 530.92C330.543 528.893 327.636 527.88 324.169 527.88C321.023 527.88 318.329 528.893 316.089 530.92C313.849 532.893 312.516 535.587 312.089 539H336.489ZM365.624 528.36V552.76C365.624 554.413 365.998 555.613 366.744 556.36C367.544 557.053 368.878 557.4 370.744 557.4H376.344V565H369.144C365.038 565 361.891 564.04 359.704 562.12C357.518 560.2 356.424 557.08 356.424 552.76V528.36H351.224V520.92H356.424V509.96H365.624V520.92H376.344V528.36H365.624ZM402.491 542.76C402.491 538.333 403.398 534.413 405.211 531C407.078 527.587 409.585 524.947 412.731 523.08C415.931 521.16 419.451 520.2 423.291 520.2C426.758 520.2 429.771 520.893 432.331 522.28C434.945 523.613 437.025 525.293 438.571 527.32V520.92H447.771V565H438.571V558.44C437.025 560.52 434.918 562.253 432.251 563.64C429.585 565.027 426.545 565.72 423.131 565.72C419.345 565.72 415.878 564.76 412.731 562.84C409.585 560.867 407.078 558.147 405.211 554.68C403.398 551.16 402.491 547.187 402.491 542.76ZM438.571 542.92C438.571 539.88 437.931 537.24 436.651 535C435.425 532.76 433.798 531.053 431.771 529.88C429.745 528.707 427.558 528.12 425.211 528.12C422.865 528.12 420.678 528.707 418.651 529.88C416.625 531 414.971 532.68 413.691 534.92C412.465 537.107 411.851 539.72 411.851 542.76C411.851 545.8 412.465 548.467 413.691 550.76C414.971 553.053 416.625 554.813 418.651 556.04C420.731 557.213 422.918 557.8 425.211 557.8C427.558 557.8 429.745 557.213 431.771 556.04C433.798 554.867 435.425 553.16 436.651 550.92C437.931 548.627 438.571 545.96 438.571 542.92ZM481.99 520.2C485.457 520.2 488.55 520.92 491.27 522.36C494.043 523.8 496.203 525.933 497.75 528.76C499.297 531.587 500.07 535 500.07 539V565H491.03V540.36C491.03 536.413 490.043 533.4 488.07 531.32C486.097 529.187 483.403 528.12 479.99 528.12C476.577 528.12 473.857 529.187 471.83 531.32C469.857 533.4 468.87 536.413 468.87 540.36V565H459.75V520.92H468.87V525.96C470.363 524.147 472.257 522.733 474.55 521.72C476.897 520.707 479.377 520.2 481.99 520.2ZM508.663 542.76C508.663 538.333 509.57 534.413 511.383 531C513.25 527.587 515.756 524.947 518.903 523.08C522.103 521.16 525.65 520.2 529.543 520.2C532.423 520.2 535.25 520.84 538.023 522.12C540.85 523.347 543.09 525 544.743 527.08V505.8H553.943V565H544.743V558.36C543.25 560.493 541.17 562.253 538.503 563.64C535.89 565.027 532.876 565.72 529.463 565.72C525.623 565.72 522.103 564.76 518.903 562.84C515.756 560.867 513.25 558.147 511.383 554.68C509.57 551.16 508.663 547.187 508.663 542.76ZM544.743 542.92C544.743 539.88 544.103 537.24 542.823 535C541.596 532.76 539.97 531.053 537.943 529.88C535.916 528.707 533.73 528.12 531.383 528.12C529.036 528.12 526.85 528.707 524.823 529.88C522.796 531 521.143 532.68 519.863 534.92C518.636 537.107 518.023 539.72 518.023 542.76C518.023 545.8 518.636 548.467 519.863 550.76C521.143 553.053 522.796 554.813 524.823 556.04C526.903 557.213 529.09 557.8 531.383 557.8C533.73 557.8 535.916 557.213 537.943 556.04C539.97 554.867 541.596 553.16 542.823 550.92C544.103 548.627 544.743 545.96 544.743 542.92ZM583.663 542.92C583.663 538.387 584.57 534.413 586.383 531C588.25 527.533 590.81 524.867 594.063 523C597.316 521.133 601.05 520.2 605.263 520.2C610.596 520.2 614.996 521.48 618.463 524.04C621.983 526.547 624.356 530.147 625.583 534.84H615.743C614.943 532.653 613.663 530.947 611.903 529.72C610.143 528.493 607.93 527.88 605.263 527.88C601.53 527.88 598.543 529.213 596.303 531.88C594.116 534.493 593.023 538.173 593.023 542.92C593.023 547.667 594.116 551.373 596.303 554.04C598.543 556.707 601.53 558.04 605.263 558.04C610.543 558.04 614.036 555.72 615.743 551.08H625.583C624.303 555.56 621.903 559.133 618.383 561.8C614.863 564.413 610.49 565.72 605.263 565.72C601.05 565.72 597.316 564.787 594.063 562.92C590.81 561 588.25 558.333 586.383 554.92C584.57 551.453 583.663 547.453 583.663 542.92ZM653.792 565.72C649.632 565.72 645.872 564.787 642.512 562.92C639.152 561 636.512 558.333 634.592 554.92C632.672 551.453 631.712 547.453 631.712 542.92C631.712 538.44 632.699 534.467 634.672 531C636.645 527.533 639.339 524.867 642.752 523C646.165 521.133 649.979 520.2 654.192 520.2C658.405 520.2 662.219 521.133 665.632 523C669.045 524.867 671.739 527.533 673.712 531C675.685 534.467 676.672 538.44 676.672 542.92C676.672 547.4 675.659 551.373 673.632 554.84C671.605 558.307 668.832 561 665.312 562.92C661.845 564.787 658.005 565.72 653.792 565.72ZM653.792 557.8C656.139 557.8 658.325 557.24 660.352 556.12C662.432 555 664.112 553.32 665.392 551.08C666.672 548.84 667.312 546.12 667.312 542.92C667.312 539.72 666.699 537.027 665.472 534.84C664.245 532.6 662.619 530.92 660.592 529.8C658.565 528.68 656.379 528.12 654.032 528.12C651.685 528.12 649.499 528.68 647.472 529.8C645.499 530.92 643.925 532.6 642.752 534.84C641.579 537.027 640.992 539.72 640.992 542.92C640.992 547.667 642.192 551.347 644.592 553.96C647.045 556.52 650.112 557.8 653.792 557.8ZM707.928 520.2C711.394 520.2 714.488 520.92 717.208 522.36C719.981 523.8 722.141 525.933 723.688 528.76C725.234 531.587 726.008 535 726.008 539V565H716.968V540.36C716.968 536.413 715.981 533.4 714.008 531.32C712.034 529.187 709.341 528.12 705.928 528.12C702.514 528.12 699.794 529.187 697.768 531.32C695.794 533.4 694.808 536.413 694.808 540.36V565H685.688V520.92H694.808V525.96C696.301 524.147 698.194 522.733 700.488 521.72C702.834 520.707 705.314 520.2 707.928 520.2ZM759.881 520.2C763.347 520.2 766.441 520.92 769.161 522.36C771.934 523.8 774.094 525.933 775.641 528.76C777.187 531.587 777.961 535 777.961 539V565H768.921V540.36C768.921 536.413 767.934 533.4 765.961 531.32C763.987 529.187 761.294 528.12 757.881 528.12C754.467 528.12 751.747 529.187 749.721 531.32C747.747 533.4 746.761 536.413 746.761 540.36V565H737.641V520.92H746.761V525.96C748.254 524.147 750.147 522.733 752.441 521.72C754.787 520.707 757.267 520.2 759.881 520.2ZM829.994 541.88C829.994 543.533 829.887 545.027 829.674 546.36H795.994C796.26 549.88 797.567 552.707 799.914 554.84C802.26 556.973 805.14 558.04 808.554 558.04C813.46 558.04 816.927 555.987 818.954 551.88H828.794C827.46 555.933 825.034 559.267 821.514 561.88C818.047 564.44 813.727 565.72 808.554 565.72C804.34 565.72 800.554 564.787 797.194 562.92C793.887 561 791.274 558.333 789.354 554.92C787.487 551.453 786.554 547.453 786.554 542.92C786.554 538.387 787.46 534.413 789.274 531C791.14 527.533 793.727 524.867 797.034 523C800.394 521.133 804.234 520.2 808.554 520.2C812.714 520.2 816.42 521.107 819.674 522.92C822.927 524.733 825.46 527.293 827.274 530.6C829.087 533.853 829.994 537.613 829.994 541.88ZM820.474 539C820.42 535.64 819.22 532.947 816.874 530.92C814.527 528.893 811.62 527.88 808.154 527.88C805.007 527.88 802.314 528.893 800.074 530.92C797.834 532.893 796.5 535.587 796.074 539H820.474ZM835.929 542.92C835.929 538.387 836.835 534.413 838.649 531C840.515 527.533 843.075 524.867 846.329 523C849.582 521.133 853.315 520.2 857.529 520.2C862.862 520.2 867.262 521.48 870.729 524.04C874.249 526.547 876.622 530.147 877.849 534.84H868.009C867.209 532.653 865.929 530.947 864.169 529.72C862.409 528.493 860.195 527.88 857.529 527.88C853.795 527.88 850.809 529.213 848.569 531.88C846.382 534.493 845.289 538.173 845.289 542.92C845.289 547.667 846.382 551.373 848.569 554.04C850.809 556.707 853.795 558.04 857.529 558.04C862.809 558.04 866.302 555.72 868.009 551.08H877.849C876.569 555.56 874.169 559.133 870.649 561.8C867.129 564.413 862.755 565.72 857.529 565.72C853.315 565.72 849.582 564.787 846.329 562.92C843.075 561 840.515 558.333 838.649 554.92C836.835 551.453 835.929 547.453 835.929 542.92ZM897.578 528.36V552.76C897.578 554.413 897.951 555.613 898.698 556.36C899.498 557.053 900.831 557.4 902.698 557.4H908.298V565H901.098C896.991 565 893.844 564.04 891.658 562.12C889.471 560.2 888.378 557.08 888.378 552.76V528.36H883.178V520.92H888.378V509.96H897.578V520.92H908.298V528.36H897.578ZM948.124 528.36V552.76C948.124 554.413 948.498 555.613 949.244 556.36C950.044 557.053 951.378 557.4 953.244 557.4H958.844V565H951.644C947.538 565 944.391 564.04 942.204 562.12C940.018 560.2 938.924 557.08 938.924 552.76V528.36H933.724V520.92H938.924V509.96H948.124V520.92H958.844V528.36H948.124ZM986.37 565.72C982.21 565.72 978.45 564.787 975.09 562.92C971.73 561 969.09 558.333 967.17 554.92C965.25 551.453 964.29 547.453 964.29 542.92C964.29 538.44 965.277 534.467 967.25 531C969.223 527.533 971.917 524.867 975.33 523C978.743 521.133 982.557 520.2 986.77 520.2C990.983 520.2 994.797 521.133 998.21 523C1001.62 524.867 1004.32 527.533 1006.29 531C1008.26 534.467 1009.25 538.44 1009.25 542.92C1009.25 547.4 1008.24 551.373 1006.21 554.84C1004.18 558.307 1001.41 561 997.89 562.92C994.423 564.787 990.583 565.72 986.37 565.72ZM986.37 557.8C988.717 557.8 990.903 557.24 992.93 556.12C995.01 555 996.69 553.32 997.97 551.08C999.25 548.84 999.89 546.12 999.89 542.92C999.89 539.72 999.277 537.027 998.05 534.84C996.823 532.6 995.197 530.92 993.17 529.8C991.143 528.68 988.957 528.12 986.61 528.12C984.263 528.12 982.077 528.68 980.05 529.8C978.077 530.92 976.503 532.6 975.33 534.84C974.157 537.027 973.57 539.72 973.57 542.92C973.57 547.667 974.77 551.347 977.17 553.96C979.623 556.52 982.69 557.8 986.37 557.8ZM1049.69 528.36V552.76C1049.69 554.413 1050.06 555.613 1050.81 556.36C1051.61 557.053 1052.94 557.4 1054.81 557.4H1060.41V565H1053.21C1049.1 565 1045.95 564.04 1043.77 562.12C1041.58 560.2 1040.49 557.08 1040.49 552.76V528.36H1035.29V520.92H1040.49V509.96H1049.69V520.92H1060.41V528.36H1049.69ZM1091.61 520.2C1094.97 520.2 1097.96 520.92 1100.57 522.36C1103.24 523.8 1105.32 525.933 1106.81 528.76C1108.36 531.587 1109.13 535 1109.13 539V565H1100.09V540.36C1100.09 536.413 1099.11 533.4 1097.13 531.32C1095.16 529.187 1092.47 528.12 1089.05 528.12C1085.64 528.12 1082.92 529.187 1080.89 531.32C1078.92 533.4 1077.93 536.413 1077.93 540.36V565H1068.81V505.8H1077.93V526.04C1079.48 524.173 1081.43 522.733 1083.77 521.72C1086.17 520.707 1088.79 520.2 1091.61 520.2ZM1161.17 541.88C1161.17 543.533 1161.06 545.027 1160.85 546.36H1127.17C1127.43 549.88 1128.74 552.707 1131.09 554.84C1133.43 556.973 1136.31 558.04 1139.73 558.04C1144.63 558.04 1148.1 555.987 1150.13 551.88H1159.97C1158.63 555.933 1156.21 559.267 1152.69 561.88C1149.22 564.44 1144.9 565.72 1139.73 565.72C1135.51 565.72 1131.73 564.787 1128.37 562.92C1125.06 561 1122.45 558.333 1120.53 554.92C1118.66 551.453 1117.73 547.453 1117.73 542.92C1117.73 538.387 1118.63 534.413 1120.45 531C1122.31 527.533 1124.9 524.867 1128.21 523C1131.57 521.133 1135.41 520.2 1139.73 520.2C1143.89 520.2 1147.59 521.107 1150.85 522.92C1154.1 524.733 1156.63 527.293 1158.45 530.6C1160.26 533.853 1161.17 537.613 1161.17 541.88ZM1151.65 539C1151.59 535.64 1150.39 532.947 1148.05 530.92C1145.7 528.893 1142.79 527.88 1139.33 527.88C1136.18 527.88 1133.49 528.893 1131.25 530.92C1129.01 532.893 1127.67 535.587 1127.25 539H1151.65ZM1174.78 515.08C1173.13 515.08 1171.74 514.52 1170.62 513.4C1169.5 512.28 1168.94 510.893 1168.94 509.24C1168.94 507.587 1169.5 506.2 1170.62 505.08C1171.74 503.96 1173.13 503.4 1174.78 503.4C1176.38 503.4 1177.74 503.96 1178.86 505.08C1179.98 506.2 1180.54 507.587 1180.54 509.24C1180.54 510.893 1179.98 512.28 1178.86 513.4C1177.74 514.52 1176.38 515.08 1174.78 515.08ZM1179.26 520.92V565H1170.14V520.92H1179.26ZM1200.35 527.32C1201.69 525.08 1203.45 523.347 1205.63 522.12C1207.87 520.84 1210.51 520.2 1213.55 520.2V529.64H1211.23C1207.66 529.64 1204.94 530.547 1203.07 532.36C1201.26 534.173 1200.35 537.32 1200.35 541.8V565H1191.23V520.92H1200.35V527.32ZM1251.84 527.48C1253.39 525.347 1255.49 523.613 1258.16 522.28C1260.88 520.893 1263.89 520.2 1267.2 520.2C1271.09 520.2 1274.61 521.133 1277.76 523C1280.91 524.867 1283.39 527.533 1285.2 531C1287.01 534.413 1287.92 538.333 1287.92 542.76C1287.92 547.187 1287.01 551.16 1285.2 554.68C1283.39 558.147 1280.88 560.867 1277.68 562.84C1274.53 564.76 1271.04 565.72 1267.2 565.72C1263.79 565.72 1260.75 565.053 1258.08 563.72C1255.47 562.387 1253.39 560.68 1251.84 558.6V565H1242.72V505.8H1251.84V527.48ZM1278.64 542.76C1278.64 539.72 1278 537.107 1276.72 534.92C1275.49 532.68 1273.84 531 1271.76 529.88C1269.73 528.707 1267.55 528.12 1265.2 528.12C1262.91 528.12 1260.72 528.707 1258.64 529.88C1256.61 531.053 1254.96 532.76 1253.68 535C1252.45 537.24 1251.84 539.88 1251.84 542.92C1251.84 545.96 1252.45 548.627 1253.68 550.92C1254.96 553.16 1256.61 554.867 1258.64 556.04C1260.72 557.213 1262.91 557.8 1265.2 557.8C1267.55 557.8 1269.73 557.213 1271.76 556.04C1273.84 554.813 1275.49 553.053 1276.72 550.76C1278 548.467 1278.64 545.8 1278.64 542.76ZM1293.9 542.76C1293.9 538.333 1294.8 534.413 1296.62 531C1298.48 527.587 1300.99 524.947 1304.14 523.08C1307.34 521.16 1310.86 520.2 1314.7 520.2C1318.16 520.2 1321.18 520.893 1323.74 522.28C1326.35 523.613 1328.43 525.293 1329.98 527.32V520.92H1339.18V565H1329.98V558.44C1328.43 560.52 1326.32 562.253 1323.66 563.64C1320.99 565.027 1317.95 565.72 1314.54 565.72C1310.75 565.72 1307.28 564.76 1304.14 562.84C1300.99 560.867 1298.48 558.147 1296.62 554.68C1294.8 551.16 1293.9 547.187 1293.9 542.76ZM1329.98 542.92C1329.98 539.88 1329.34 537.24 1328.06 535C1326.83 532.76 1325.2 531.053 1323.18 529.88C1321.15 528.707 1318.96 528.12 1316.62 528.12C1314.27 528.12 1312.08 528.707 1310.06 529.88C1308.03 531 1306.38 532.68 1305.1 534.92C1303.87 537.107 1303.26 539.72 1303.26 542.76C1303.26 545.8 1303.87 548.467 1305.1 550.76C1306.38 553.053 1308.03 554.813 1310.06 556.04C1312.14 557.213 1314.32 557.8 1316.62 557.8C1318.96 557.8 1321.15 557.213 1323.18 556.04C1325.2 554.867 1326.83 553.16 1328.06 550.92C1329.34 548.627 1329.98 545.96 1329.98 542.92ZM1373.4 520.2C1376.86 520.2 1379.96 520.92 1382.68 522.36C1385.45 523.8 1387.61 525.933 1389.16 528.76C1390.7 531.587 1391.48 535 1391.48 539V565H1382.44V540.36C1382.44 536.413 1381.45 533.4 1379.48 531.32C1377.5 529.187 1374.81 528.12 1371.4 528.12C1367.98 528.12 1365.26 529.187 1363.24 531.32C1361.26 533.4 1360.28 536.413 1360.28 540.36V565H1351.16V520.92H1360.28V525.96C1361.77 524.147 1363.66 522.733 1365.96 521.72C1368.3 520.707 1370.78 520.2 1373.4 520.2ZM1420.55 543L1440.87 565H1428.55L1412.23 546.04V565H1403.11V505.8H1412.23V540.2L1428.23 520.92H1440.87L1420.55 543ZM87.96 662.76C87.96 658.333 88.8667 654.413 90.68 651C92.5467 647.587 95.0533 644.947 98.2 643.08C101.4 641.16 104.92 640.2 108.76 640.2C112.227 640.2 115.24 640.893 117.8 642.28C120.413 643.613 122.493 645.293 124.04 647.32V640.92H133.24V685H124.04V678.44C122.493 680.52 120.387 682.253 117.72 683.64C115.053 685.027 112.013 685.72 108.6 685.72C104.813 685.72 101.347 684.76 98.2 682.84C95.0533 680.867 92.5467 678.147 90.68 674.68C88.8667 671.16 87.96 667.187 87.96 662.76ZM124.04 662.92C124.04 659.88 123.4 657.24 122.12 655C120.893 652.76 119.267 651.053 117.24 649.88C115.213 648.707 113.027 648.12 110.68 648.12C108.333 648.12 106.147 648.707 104.12 649.88C102.093 651 100.44 652.68 99.16 654.92C97.9333 657.107 97.32 659.72 97.32 662.76C97.32 665.8 97.9333 668.467 99.16 670.76C100.44 673.053 102.093 674.813 104.12 676.04C106.2 677.213 108.387 677.8 110.68 677.8C113.027 677.8 115.213 677.213 117.24 676.04C119.267 674.867 120.893 673.16 122.12 670.92C123.4 668.627 124.04 665.96 124.04 662.92ZM142.179 662.92C142.179 658.387 143.085 654.413 144.899 651C146.765 647.533 149.325 644.867 152.579 643C155.832 641.133 159.565 640.2 163.779 640.2C169.112 640.2 173.512 641.48 176.979 644.04C180.499 646.547 182.872 650.147 184.099 654.84H174.259C173.459 652.653 172.179 650.947 170.419 649.72C168.659 648.493 166.445 647.88 163.779 647.88C160.045 647.88 157.059 649.213 154.819 651.88C152.632 654.493 151.539 658.173 151.539 662.92C151.539 667.667 152.632 671.373 154.819 674.04C157.059 676.707 160.045 678.04 163.779 678.04C169.059 678.04 172.552 675.72 174.259 671.08H184.099C182.819 675.56 180.419 679.133 176.899 681.8C173.379 684.413 169.005 685.72 163.779 685.72C159.565 685.72 155.832 684.787 152.579 682.92C149.325 681 146.765 678.333 144.899 674.92C143.085 671.453 142.179 667.453 142.179 662.92ZM190.148 662.92C190.148 658.387 191.054 654.413 192.868 651C194.734 647.533 197.294 644.867 200.548 643C203.801 641.133 207.534 640.2 211.748 640.2C217.081 640.2 221.481 641.48 224.948 644.04C228.468 646.547 230.841 650.147 232.068 654.84H222.228C221.428 652.653 220.148 650.947 218.388 649.72C216.628 648.493 214.414 647.88 211.748 647.88C208.014 647.88 205.028 649.213 202.788 651.88C200.601 654.493 199.508 658.173 199.508 662.92C199.508 667.667 200.601 671.373 202.788 674.04C205.028 676.707 208.014 678.04 211.748 678.04C217.028 678.04 220.521 675.72 222.228 671.08H232.068C230.788 675.56 228.388 679.133 224.868 681.8C221.348 684.413 216.974 685.72 211.748 685.72C207.534 685.72 203.801 684.787 200.548 682.92C197.294 681 194.734 678.333 192.868 674.92C191.054 671.453 190.148 667.453 190.148 662.92ZM260.276 685.72C256.116 685.72 252.356 684.787 248.996 682.92C245.636 681 242.996 678.333 241.076 674.92C239.156 671.453 238.196 667.453 238.196 662.92C238.196 658.44 239.183 654.467 241.156 651C243.13 647.533 245.823 644.867 249.236 643C252.65 641.133 256.463 640.2 260.676 640.2C264.89 640.2 268.703 641.133 272.116 643C275.53 644.867 278.223 647.533 280.196 651C282.17 654.467 283.156 658.44 283.156 662.92C283.156 667.4 282.143 671.373 280.116 674.84C278.09 678.307 275.316 681 271.796 682.92C268.33 684.787 264.49 685.72 260.276 685.72ZM260.276 677.8C262.623 677.8 264.81 677.24 266.836 676.12C268.916 675 270.596 673.32 271.876 671.08C273.156 668.84 273.796 666.12 273.796 662.92C273.796 659.72 273.183 657.027 271.956 654.84C270.73 652.6 269.103 650.92 267.076 649.8C265.05 648.68 262.863 648.12 260.516 648.12C258.17 648.12 255.983 648.68 253.956 649.8C251.983 650.92 250.41 652.6 249.236 654.84C248.063 657.027 247.476 659.72 247.476 662.92C247.476 667.667 248.676 671.347 251.076 673.96C253.53 676.52 256.596 677.8 260.276 677.8ZM332.092 640.92V685H322.972V679.8C321.532 681.613 319.639 683.053 317.292 684.12C314.999 685.133 312.545 685.64 309.932 685.64C306.465 685.64 303.345 684.92 300.572 683.48C297.852 682.04 295.692 679.907 294.092 677.08C292.545 674.253 291.772 670.84 291.772 666.84V640.92H300.812V665.48C300.812 669.427 301.799 672.467 303.772 674.6C305.745 676.68 308.439 677.72 311.852 677.72C315.265 677.72 317.959 676.68 319.932 674.6C321.959 672.467 322.972 669.427 322.972 665.48V640.92H332.092ZM366.365 640.2C369.832 640.2 372.925 640.92 375.645 642.36C378.418 643.8 380.578 645.933 382.125 648.76C383.672 651.587 384.445 655 384.445 659V685H375.405V660.36C375.405 656.413 374.418 653.4 372.445 651.32C370.472 649.187 367.778 648.12 364.365 648.12C360.952 648.12 358.232 649.187 356.205 651.32C354.232 653.4 353.245 656.413 353.245 660.36V685H344.125V640.92H353.245V645.96C354.738 644.147 356.632 642.733 358.925 641.72C361.272 640.707 363.752 640.2 366.365 640.2ZM406.718 648.36V672.76C406.718 674.413 407.091 675.613 407.838 676.36C408.638 677.053 409.971 677.4 411.838 677.4H417.438V685H410.238C406.131 685 402.985 684.04 400.798 682.12C398.611 680.2 397.518 677.08 397.518 672.76V648.36H392.318V640.92H397.518V629.96H406.718V640.92H417.438V648.36H406.718ZM429.524 685.56C427.87 685.56 426.484 685 425.364 683.88C424.244 682.76 423.684 681.373 423.684 679.72C423.684 678.067 424.244 676.68 425.364 675.56C426.484 674.44 427.87 673.88 429.524 673.88C431.124 673.88 432.484 674.44 433.604 675.56C434.724 676.68 435.284 678.067 435.284 679.72C435.284 681.373 434.724 682.76 433.604 683.88C432.484 685 431.124 685.56 429.524 685.56Z" fill="black"/>
<rect x="853" y="881" width="417" height="164" rx="30" fill="#009317" fill-opacity="0.3"/>
<path d="M1013.5 962.58C1015.74 962.98 1017.64 964.16 1019.2 966.12C1020.76 968.08 1021.54 970.3 1021.54 972.78C1021.54 974.9 1020.98 976.82 1019.86 978.54C1018.78 980.22 1017.2 981.56 1015.12 982.56C1013.04 983.52 1010.62 984 1007.86 984H991.178V942.3H1007.08C1009.92 942.3 1012.36 942.78 1014.4 943.74C1016.44 944.7 1017.98 946 1019.02 947.64C1020.06 949.24 1020.58 951.04 1020.58 953.04C1020.58 955.44 1019.94 957.44 1018.66 959.04C1017.38 960.64 1015.66 961.82 1013.5 962.58ZM998.018 959.82H1006.48C1008.72 959.82 1010.46 959.32 1011.7 958.32C1012.98 957.28 1013.62 955.8 1013.62 953.88C1013.62 952 1012.98 950.54 1011.7 949.5C1010.46 948.42 1008.72 947.88 1006.48 947.88H998.018V959.82ZM1007.26 978.42C1009.58 978.42 1011.4 977.86 1012.72 976.74C1014.04 975.62 1014.7 974.06 1014.7 972.06C1014.7 970.02 1014 968.4 1012.6 967.2C1011.2 966 1009.34 965.4 1007.02 965.4H998.018V978.42H1007.26ZM1026.69 967.32C1026.69 964 1027.37 961.06 1028.73 958.5C1030.13 955.94 1032.01 953.96 1034.37 952.56C1036.77 951.12 1039.41 950.4 1042.29 950.4C1044.89 950.4 1047.15 950.92 1049.07 951.96C1051.03 952.96 1052.59 954.22 1053.75 955.74V950.94H1060.65V984H1053.75V979.08C1052.59 980.64 1051.01 981.94 1049.01 982.98C1047.01 984.02 1044.73 984.54 1042.17 984.54C1039.33 984.54 1036.73 983.82 1034.37 982.38C1032.01 980.9 1030.13 978.86 1028.73 976.26C1027.37 973.62 1026.69 970.64 1026.69 967.32ZM1053.75 967.44C1053.75 965.16 1053.27 963.18 1052.31 961.5C1051.39 959.82 1050.17 958.54 1048.65 957.66C1047.13 956.78 1045.49 956.34 1043.73 956.34C1041.97 956.34 1040.33 956.78 1038.81 957.66C1037.29 958.5 1036.05 959.76 1035.09 961.44C1034.17 963.08 1033.71 965.04 1033.71 967.32C1033.71 969.6 1034.17 971.6 1035.09 973.32C1036.05 975.04 1037.29 976.36 1038.81 977.28C1040.37 978.16 1042.01 978.6 1043.73 978.6C1045.49 978.6 1047.13 978.16 1048.65 977.28C1050.17 976.4 1051.39 975.12 1052.31 973.44C1053.27 971.72 1053.75 969.72 1053.75 967.44ZM1086.31 950.4C1088.91 950.4 1091.23 950.94 1093.27 952.02C1095.35 953.1 1096.97 954.7 1098.13 956.82C1099.29 958.94 1099.87 961.5 1099.87 964.5V984H1093.09V965.52C1093.09 962.56 1092.35 960.3 1090.87 958.74C1089.39 957.14 1087.37 956.34 1084.81 956.34C1082.25 956.34 1080.21 957.14 1078.69 958.74C1077.21 960.3 1076.47 962.56 1076.47 965.52V984H1069.63V950.94H1076.47V954.72C1077.59 953.36 1079.01 952.3 1080.73 951.54C1082.49 950.78 1084.35 950.4 1086.31 950.4ZM1121.68 967.5L1136.92 984H1127.68L1115.44 969.78V984H1108.6V939.6H1115.44V965.4L1127.44 950.94H1136.92L1121.68 967.5Z" fill="white"/>
<rect x="123" y="881" width="628" height="164" rx="30" fill="#009317" fill-opacity="0.3"/>
<path d="M308.128 962.58C310.368 962.98 312.268 964.16 313.828 966.12C315.388 968.08 316.168 970.3 316.168 972.78C316.168 974.9 315.608 976.82 314.488 978.54C313.408 980.22 311.828 981.56 309.748 982.56C307.668 983.52 305.248 984 302.488 984H285.808V942.3H301.708C304.548 942.3 306.988 942.78 309.028 943.74C311.068 944.7 312.608 946 313.648 947.64C314.688 949.24 315.208 951.04 315.208 953.04C315.208 955.44 314.568 957.44 313.288 959.04C312.008 960.64 310.288 961.82 308.128 962.58ZM292.648 959.82H301.108C303.348 959.82 305.088 959.32 306.328 958.32C307.608 957.28 308.248 955.8 308.248 953.88C308.248 952 307.608 950.54 306.328 949.5C305.088 948.42 303.348 947.88 301.108 947.88H292.648V959.82ZM301.888 978.42C304.208 978.42 306.028 977.86 307.348 976.74C308.668 975.62 309.328 974.06 309.328 972.06C309.328 970.02 308.628 968.4 307.228 967.2C305.828 966 303.968 965.4 301.648 965.4H292.648V978.42H301.888ZM353.541 950.94V984H346.701V980.1C345.621 981.46 344.201 982.54 342.441 983.34C340.721 984.1 338.881 984.48 336.921 984.48C334.321 984.48 331.981 983.94 329.901 982.86C327.861 981.78 326.241 980.18 325.041 978.06C323.881 975.94 323.301 973.38 323.301 970.38V950.94H330.081V969.36C330.081 972.32 330.821 974.6 332.301 976.2C333.781 977.76 335.801 978.54 338.361 978.54C340.921 978.54 342.941 977.76 344.421 976.2C345.941 974.6 346.701 972.32 346.701 969.36V950.94H353.541ZM360.285 967.32C360.285 964 360.965 961.06 362.325 958.5C363.725 955.94 365.605 953.96 367.965 952.56C370.365 951.12 373.025 950.4 375.945 950.4C378.105 950.4 380.225 950.88 382.305 951.84C384.425 952.76 386.105 954 387.345 955.56V939.6H394.245V984H387.345V979.02C386.225 980.62 384.665 981.94 382.665 982.98C380.705 984.02 378.445 984.54 375.885 984.54C373.005 984.54 370.365 983.82 367.965 982.38C365.605 980.9 363.725 978.86 362.325 976.26C360.965 973.62 360.285 970.64 360.285 967.32ZM387.345 967.44C387.345 965.16 386.865 963.18 385.905 961.5C384.985 959.82 383.765 958.54 382.245 957.66C380.725 956.78 379.085 956.34 377.325 956.34C375.565 956.34 373.925 956.78 372.405 957.66C370.885 958.5 369.645 959.76 368.685 961.44C367.765 963.08 367.305 965.04 367.305 967.32C367.305 969.6 367.765 971.6 368.685 973.32C369.645 975.04 370.885 976.36 372.405 977.28C373.965 978.16 375.605 978.6 377.325 978.6C379.085 978.6 380.725 978.16 382.245 977.28C383.765 976.4 384.985 975.12 385.905 973.44C386.865 971.72 387.345 969.72 387.345 967.44ZM416.55 950.4C419.11 950.4 421.37 950.92 423.33 951.96C425.33 952.96 426.89 954.22 428.01 955.74V950.94H434.91V984.54C434.91 987.58 434.27 990.28 432.99 992.64C431.71 995.04 429.85 996.92 427.41 998.28C425.01 999.64 422.13 1000.32 418.77 1000.32C414.29 1000.32 410.57 999.26 407.61 997.14C404.65 995.06 402.97 992.22 402.57 988.62H409.35C409.87 990.34 410.97 991.72 412.65 992.76C414.37 993.84 416.41 994.38 418.77 994.38C421.53 994.38 423.75 993.54 425.43 991.86C427.15 990.18 428.01 987.74 428.01 984.54V979.02C426.85 980.58 425.27 981.9 423.27 982.98C421.31 984.02 419.07 984.54 416.55 984.54C413.67 984.54 411.03 983.82 408.63 982.38C406.27 980.9 404.39 978.86 402.99 976.26C401.63 973.62 400.95 970.64 400.95 967.32C400.95 964 401.63 961.06 402.99 958.5C404.39 955.94 406.27 953.96 408.63 952.56C411.03 951.12 413.67 950.4 416.55 950.4ZM428.01 967.44C428.01 965.16 427.53 963.18 426.57 961.5C425.65 959.82 424.43 958.54 422.91 957.66C421.39 956.78 419.75 956.34 417.99 956.34C416.23 956.34 414.59 956.78 413.07 957.66C411.55 958.5 410.31 959.76 409.35 961.44C408.43 963.08 407.97 965.04 407.97 967.32C407.97 969.6 408.43 971.6 409.35 973.32C410.31 975.04 411.55 976.36 413.07 977.28C414.63 978.16 416.27 978.6 417.99 978.6C419.75 978.6 421.39 978.16 422.91 977.28C424.43 976.4 425.65 975.12 426.57 973.44C427.53 971.72 428.01 969.72 428.01 967.44ZM474.194 966.66C474.194 967.9 474.114 969.02 473.954 970.02H448.694C448.894 972.66 449.874 974.78 451.634 976.38C453.394 977.98 455.554 978.78 458.114 978.78C461.794 978.78 464.394 977.24 465.914 974.16H473.294C472.294 977.2 470.474 979.7 467.834 981.66C465.234 983.58 461.994 984.54 458.114 984.54C454.954 984.54 452.114 983.84 449.594 982.44C447.114 981 445.154 979 443.714 976.44C442.314 973.84 441.614 970.84 441.614 967.44C441.614 964.04 442.294 961.06 443.654 958.5C445.054 955.9 446.994 953.9 449.474 952.5C451.994 951.1 454.874 950.4 458.114 950.4C461.234 950.4 464.014 951.08 466.454 952.44C468.894 953.8 470.794 955.72 472.154 958.2C473.514 960.64 474.194 963.46 474.194 966.66ZM467.054 964.5C467.014 961.98 466.114 959.96 464.354 958.44C462.594 956.92 460.414 956.16 457.814 956.16C455.454 956.16 453.434 956.92 451.754 958.44C450.074 959.92 449.074 961.94 448.754 964.5H467.054ZM488.905 956.52V974.82C488.905 976.06 489.185 976.96 489.745 977.52C490.345 978.04 491.345 978.3 492.745 978.3H496.945V984H491.545C488.465 984 486.105 983.28 484.465 981.84C482.825 980.4 482.005 978.06 482.005 974.82V956.52H478.105V950.94H482.005V942.72H488.905V950.94H496.945V956.52H488.905ZM506.729 946.56C505.489 946.56 504.449 946.14 503.609 945.3C502.769 944.46 502.349 943.42 502.349 942.18C502.349 940.94 502.769 939.9 503.609 939.06C504.449 938.22 505.489 937.8 506.729 937.8C507.929 937.8 508.949 938.22 509.789 939.06C510.629 939.9 511.049 940.94 511.049 942.18C511.049 943.42 510.629 944.46 509.789 945.3C508.949 946.14 507.929 946.56 506.729 946.56ZM510.089 950.94V984H503.249V950.94H510.089ZM535.749 950.4C538.349 950.4 540.669 950.94 542.709 952.02C544.789 953.1 546.409 954.7 547.569 956.82C548.729 958.94 549.309 961.5 549.309 964.5V984H542.529V965.52C542.529 962.56 541.789 960.3 540.309 958.74C538.829 957.14 536.809 956.34 534.249 956.34C531.689 956.34 529.649 957.14 528.129 958.74C526.649 960.3 525.909 962.56 525.909 965.52V984H519.069V950.94H525.909V954.72C527.029 953.36 528.449 952.3 530.169 951.54C531.929 950.78 533.789 950.4 535.749 950.4ZM571.354 950.4C573.914 950.4 576.174 950.92 578.134 951.96C580.134 952.96 581.694 954.22 582.814 955.74V950.94H589.714V984.54C589.714 987.58 589.074 990.28 587.794 992.64C586.514 995.04 584.654 996.92 582.214 998.28C579.814 999.64 576.934 1000.32 573.574 1000.32C569.094 1000.32 565.374 999.26 562.414 997.14C559.454 995.06 557.774 992.22 557.374 988.62H564.154C564.674 990.34 565.774 991.72 567.454 992.76C569.174 993.84 571.214 994.38 573.574 994.38C576.334 994.38 578.554 993.54 580.234 991.86C581.954 990.18 582.814 987.74 582.814 984.54V979.02C581.654 980.58 580.074 981.9 578.074 982.98C576.114 984.02 573.874 984.54 571.354 984.54C568.474 984.54 565.834 983.82 563.434 982.38C561.074 980.9 559.194 978.86 557.794 976.26C556.434 973.62 555.754 970.64 555.754 967.32C555.754 964 556.434 961.06 557.794 958.5C559.194 955.94 561.074 953.96 563.434 952.56C565.834 951.12 568.474 950.4 571.354 950.4ZM582.814 967.44C582.814 965.16 582.334 963.18 581.374 961.5C580.454 959.82 579.234 958.54 577.714 957.66C576.194 956.78 574.554 956.34 572.794 956.34C571.034 956.34 569.394 956.78 567.874 957.66C566.354 958.5 565.114 959.76 564.154 961.44C563.234 963.08 562.774 965.04 562.774 967.32C562.774 969.6 563.234 971.6 564.154 973.32C565.114 975.04 566.354 976.36 567.874 977.28C569.434 978.16 571.074 978.6 572.794 978.6C574.554 978.6 576.194 978.16 577.714 977.28C579.234 976.4 580.454 975.12 581.374 973.44C582.334 971.72 582.814 969.72 582.814 967.44Z" fill="white"/>
</svg>
