<svg width="2001" height="1320" viewBox="0 0 2001 1320" fill="none" xmlns="http://www.w3.org/2000/svg">
<rect x="3" y="3" width="1995" height="1314" rx="32" fill="white" stroke="#009317" stroke-width="6"/>
<path d="M242.96 235.76C242.96 260.96 260.48 278.6 285.32 278.6C305.36 278.6 320.48 267.44 325.28 249.2H302.72C299.24 256.4 292.88 260 285.08 260C272.48 260 263.84 250.64 263.84 235.76C263.84 220.88 272.48 211.52 285.08 211.52C292.88 211.52 299.24 215.12 302.72 222.32H325.28C320.48 204.08 305.36 192.8 285.32 192.8C260.48 192.8 242.96 210.56 242.96 235.76ZM403.366 244.52C403.366 223.28 388.246 210.08 368.566 210.08C349.006 210.08 333.766 223.28 333.766 244.52C333.766 265.76 348.646 278.96 368.326 278.96C388.006 278.96 403.366 265.76 403.366 244.52ZM354.646 244.52C354.646 233.12 361.126 227.84 368.566 227.84C375.766 227.84 382.486 233.12 382.486 244.52C382.486 255.8 375.646 261.2 368.326 261.2C360.886 261.2 354.646 255.8 354.646 244.52ZM460.453 278H480.853V238.88C480.853 220.88 470.533 210.32 455.053 210.32C446.053 210.32 438.853 214.28 434.773 219.92V211.04H414.253V278H434.773V241.64C434.773 232.52 439.813 227.48 447.613 227.48C455.413 227.48 460.453 232.52 460.453 241.64V278ZM491.032 244.52C491.032 265.76 504.952 278.96 524.632 278.96C541.432 278.96 553.312 269.24 556.792 253.76H534.952C533.152 258.68 529.912 261.44 524.272 261.44C516.952 261.44 511.912 255.68 511.912 244.52C511.912 233.36 516.952 227.6 524.272 227.6C529.912 227.6 533.272 230.6 534.952 235.28H556.792C553.312 219.32 541.432 210.08 524.632 210.08C504.952 210.08 491.032 223.4 491.032 244.52ZM597.288 226.52C604.128 226.52 609.888 230.72 609.888 238.04H584.208C585.408 230.6 590.568 226.52 597.288 226.52ZM629.328 255.8H607.488C605.808 259.4 602.568 262.28 596.808 262.28C590.208 262.28 584.808 258.2 584.088 249.44H630.528C630.768 247.4 630.888 245.36 630.888 243.44C630.888 223.04 617.088 210.08 597.528 210.08C577.608 210.08 563.688 223.28 563.688 244.52C563.688 265.76 577.848 278.96 597.528 278.96C614.208 278.96 626.088 268.88 629.328 255.8ZM662.233 220.52V211.04H641.713V309.92H662.233V268.64C665.953 274.28 673.033 278.96 682.873 278.96C699.313 278.96 712.393 265.52 712.393 244.4C712.393 223.28 699.313 210.08 682.873 210.08C673.033 210.08 665.953 214.64 662.233 220.52ZM691.513 244.4C691.513 255.08 684.553 261.08 676.753 261.08C669.073 261.08 662.113 255.2 662.113 244.52C662.113 233.84 669.073 227.96 676.753 227.96C684.553 227.96 691.513 233.72 691.513 244.4ZM726.399 254.72C726.399 272.12 736.119 278 750.039 278H760.479V260.6H753.159C748.599 260.6 746.919 258.92 746.919 254.96V228.08H760.359V211.04H746.919V194.72H726.399V211.04H718.239V228.08H726.399V254.72ZM853.138 241.16H833.218L836.578 225.44H856.498L853.138 241.16ZM845.218 278H864.418L868.378 259.64H886.738V241.16H872.338L875.698 225.44H894.418V206.96H879.538L883.378 189.2H864.178L860.338 206.96H840.418L844.258 189.2H825.058L821.218 206.96H799.978V225.44H817.378L814.018 241.16H792.298V259.64H810.058L806.098 278H825.298L829.258 259.64H849.178L845.218 278ZM903.094 276.8H963.334V260.12H930.934C944.854 249.44 962.014 234.08 962.014 214.88C962.014 200.12 953.134 188.48 933.214 188.48C917.254 188.48 903.454 197.6 902.854 218.84H922.654C922.654 210.56 926.254 205.76 932.374 205.76C938.614 205.76 941.494 209.84 941.494 216.2C941.494 230.96 921.694 246.2 903.094 261.56V276.8Z" fill="black"/>
<path d="M241.96 452.08C241.96 446.64 243.213 441.76 245.72 437.44C248.28 433.12 251.72 429.76 256.04 427.36C260.413 424.907 265.187 423.68 270.36 423.68C276.28 423.68 281.533 425.147 286.12 428.08C290.76 430.96 294.12 435.067 296.2 440.4H285.24C283.8 437.467 281.8 435.28 279.24 433.84C276.68 432.4 273.72 431.68 270.36 431.68C266.68 431.68 263.4 432.507 260.52 434.16C257.64 435.813 255.373 438.187 253.72 441.28C252.12 444.373 251.32 447.973 251.32 452.08C251.32 456.187 252.12 459.787 253.72 462.88C255.373 465.973 257.64 468.373 260.52 470.08C263.4 471.733 266.68 472.56 270.36 472.56C273.72 472.56 276.68 471.84 279.24 470.4C281.8 468.96 283.8 466.773 285.24 463.84H296.2C294.12 469.173 290.76 473.28 286.12 476.16C281.533 479.04 276.28 480.48 270.36 480.48C265.133 480.48 260.36 479.28 256.04 476.88C251.72 474.427 248.28 471.04 245.72 466.72C243.213 462.4 241.96 457.52 241.96 452.08ZM315.995 442.32C317.328 440.08 319.088 438.347 321.275 437.12C323.515 435.84 326.155 435.2 329.195 435.2V444.64H326.875C323.302 444.64 320.582 445.547 318.715 447.36C316.902 449.173 315.995 452.32 315.995 456.8V480H306.875V435.92H315.995V442.32ZM377.978 456.88C377.978 458.533 377.871 460.027 377.658 461.36H343.978C344.245 464.88 345.551 467.707 347.898 469.84C350.245 471.973 353.125 473.04 356.538 473.04C361.445 473.04 364.911 470.987 366.938 466.88H376.778C375.445 470.933 373.018 474.267 369.498 476.88C366.031 479.44 361.711 480.72 356.538 480.72C352.325 480.72 348.538 479.787 345.178 477.92C341.871 476 339.258 473.333 337.338 469.92C335.471 466.453 334.538 462.453 334.538 457.92C334.538 453.387 335.445 449.413 337.258 446C339.125 442.533 341.711 439.867 345.018 438C348.378 436.133 352.218 435.2 356.538 435.2C360.698 435.2 364.405 436.107 367.658 437.92C370.911 439.733 373.445 442.293 375.258 445.6C377.071 448.853 377.978 452.613 377.978 456.88ZM368.458 454C368.405 450.64 367.205 447.947 364.858 445.92C362.511 443.893 359.605 442.88 356.138 442.88C352.991 442.88 350.298 443.893 348.058 445.92C345.818 447.893 344.485 450.587 344.058 454H368.458ZM383.913 457.76C383.913 453.333 384.82 449.413 386.633 446C388.5 442.587 391.006 439.947 394.153 438.08C397.353 436.16 400.873 435.2 404.713 435.2C408.18 435.2 411.193 435.893 413.753 437.28C416.366 438.613 418.446 440.293 419.993 442.32V435.92H429.193V480H419.993V473.44C418.446 475.52 416.34 477.253 413.673 478.64C411.006 480.027 407.966 480.72 404.553 480.72C400.766 480.72 397.3 479.76 394.153 477.84C391.006 475.867 388.5 473.147 386.633 469.68C384.82 466.16 383.913 462.187 383.913 457.76ZM419.993 457.92C419.993 454.88 419.353 452.24 418.073 450C416.846 447.76 415.22 446.053 413.193 444.88C411.166 443.707 408.98 443.12 406.633 443.12C404.286 443.12 402.1 443.707 400.073 444.88C398.046 446 396.393 447.68 395.113 449.92C393.886 452.107 393.273 454.72 393.273 457.76C393.273 460.8 393.886 463.467 395.113 465.76C396.393 468.053 398.046 469.813 400.073 471.04C402.153 472.213 404.34 472.8 406.633 472.8C408.98 472.8 411.166 472.213 413.193 471.04C415.22 469.867 416.846 468.16 418.073 465.92C419.353 463.627 419.993 460.96 419.993 457.92ZM451.812 443.36V467.76C451.812 469.413 452.185 470.613 452.932 471.36C453.732 472.053 455.065 472.4 456.932 472.4H462.532V480H455.332C451.225 480 448.079 479.04 445.892 477.12C443.705 475.2 442.612 472.08 442.612 467.76V443.36H437.412V435.92H442.612V424.96H451.812V435.92H462.532V443.36H451.812ZM511.338 456.88C511.338 458.533 511.231 460.027 511.018 461.36H477.338C477.604 464.88 478.911 467.707 481.258 469.84C483.604 471.973 486.484 473.04 489.898 473.04C494.804 473.04 498.271 470.987 500.298 466.88H510.137C508.804 470.933 506.378 474.267 502.858 476.88C499.391 479.44 495.071 480.72 489.898 480.72C485.684 480.72 481.898 479.787 478.538 477.92C475.231 476 472.618 473.333 470.698 469.92C468.831 466.453 467.898 462.453 467.898 457.92C467.898 453.387 468.804 449.413 470.618 446C472.484 442.533 475.071 439.867 478.378 438C481.738 436.133 485.578 435.2 489.898 435.2C494.058 435.2 497.764 436.107 501.018 437.92C504.271 439.733 506.804 442.293 508.618 445.6C510.431 448.853 511.338 452.613 511.338 456.88ZM501.818 454C501.764 450.64 500.564 447.947 498.218 445.92C495.871 443.893 492.964 442.88 489.498 442.88C486.351 442.88 483.658 443.893 481.418 445.92C479.178 447.893 477.844 450.587 477.418 454H501.818ZM538.054 457.76C538.054 453.333 538.96 449.413 540.774 446C542.64 442.587 545.147 439.947 548.294 438.08C551.494 436.16 555.014 435.2 558.854 435.2C562.32 435.2 565.334 435.893 567.894 437.28C570.507 438.613 572.587 440.293 574.134 442.32V435.92H583.334V480H574.134V473.44C572.587 475.52 570.48 477.253 567.814 478.64C565.147 480.027 562.107 480.72 558.694 480.72C554.907 480.72 551.44 479.76 548.294 477.84C545.147 475.867 542.64 473.147 540.774 469.68C538.96 466.16 538.054 462.187 538.054 457.76ZM574.134 457.92C574.134 454.88 573.494 452.24 572.214 450C570.987 447.76 569.36 446.053 567.334 444.88C565.307 443.707 563.12 443.12 560.774 443.12C558.427 443.12 556.24 443.707 554.214 444.88C552.187 446 550.534 447.68 549.254 449.92C548.027 452.107 547.414 454.72 547.414 457.76C547.414 460.8 548.027 463.467 549.254 465.76C550.534 468.053 552.187 469.813 554.214 471.04C556.294 472.213 558.48 472.8 560.774 472.8C563.12 472.8 565.307 472.213 567.334 471.04C569.36 469.867 570.987 468.16 572.214 465.92C573.494 463.627 574.134 460.96 574.134 457.92ZM617.553 435.2C621.019 435.2 624.113 435.92 626.833 437.36C629.606 438.8 631.766 440.933 633.313 443.76C634.859 446.587 635.633 450 635.633 454V480H626.593V455.36C626.593 451.413 625.606 448.4 623.633 446.32C621.659 444.187 618.966 443.12 615.553 443.12C612.139 443.12 609.419 444.187 607.393 446.32C605.419 448.4 604.433 451.413 604.433 455.36V480H595.313V435.92H604.433V440.96C605.926 439.147 607.819 437.733 610.113 436.72C612.459 435.707 614.939 435.2 617.553 435.2ZM708.447 456.88C708.447 458.533 708.34 460.027 708.127 461.36H674.447C674.714 464.88 676.02 467.707 678.367 469.84C680.714 471.973 683.594 473.04 687.007 473.04C691.914 473.04 695.38 470.987 697.407 466.88H707.247C705.914 470.933 703.487 474.267 699.967 476.88C696.5 479.44 692.18 480.72 687.007 480.72C682.794 480.72 679.007 479.787 675.647 477.92C672.34 476 669.727 473.333 667.807 469.92C665.94 466.453 665.007 462.453 665.007 457.92C665.007 453.387 665.914 449.413 667.727 446C669.594 442.533 672.18 439.867 675.487 438C678.847 436.133 682.687 435.2 687.007 435.2C691.167 435.2 694.874 436.107 698.127 437.92C701.38 439.733 703.914 442.293 705.727 445.6C707.54 448.853 708.447 452.613 708.447 456.88ZM698.927 454C698.874 450.64 697.674 447.947 695.327 445.92C692.98 443.893 690.074 442.88 686.607 442.88C683.46 442.88 680.767 443.893 678.527 445.92C676.287 447.893 674.954 450.587 674.527 454H698.927ZM714.382 457.76C714.382 453.333 715.289 449.413 717.102 446C718.969 442.587 721.475 439.947 724.622 438.08C727.822 436.16 731.369 435.2 735.262 435.2C738.142 435.2 740.969 435.84 743.742 437.12C746.569 438.347 748.809 440 750.462 442.08V420.8H759.662V480H750.462V473.36C748.969 475.493 746.889 477.253 744.222 478.64C741.609 480.027 738.595 480.72 735.182 480.72C731.342 480.72 727.822 479.76 724.622 477.84C721.475 475.867 718.969 473.147 717.102 469.68C715.289 466.16 714.382 462.187 714.382 457.76ZM750.462 457.92C750.462 454.88 749.822 452.24 748.542 450C747.315 447.76 745.689 446.053 743.662 444.88C741.635 443.707 739.449 443.12 737.102 443.12C734.755 443.12 732.569 443.707 730.542 444.88C728.515 446 726.862 447.68 725.582 449.92C724.355 452.107 723.742 454.72 723.742 457.76C723.742 460.8 724.355 463.467 725.582 465.76C726.862 468.053 728.515 469.813 730.542 471.04C732.622 472.213 734.809 472.8 737.102 472.8C739.449 472.8 741.635 472.213 743.662 471.04C745.689 469.867 747.315 468.16 748.542 465.92C749.822 463.627 750.462 460.96 750.462 457.92ZM811.561 435.92V480H802.441V474.8C801.001 476.613 799.107 478.053 796.761 479.12C794.467 480.133 792.014 480.64 789.401 480.64C785.934 480.64 782.814 479.92 780.041 478.48C777.321 477.04 775.161 474.907 773.561 472.08C772.014 469.253 771.241 465.84 771.241 461.84V435.92H780.281V460.48C780.281 464.427 781.267 467.467 783.241 469.6C785.214 471.68 787.907 472.72 791.321 472.72C794.734 472.72 797.427 471.68 799.401 469.6C801.427 467.467 802.441 464.427 802.441 460.48V435.92H811.561ZM820.554 457.92C820.554 453.387 821.46 449.413 823.274 446C825.14 442.533 827.7 439.867 830.954 438C834.207 436.133 837.94 435.2 842.154 435.2C847.487 435.2 851.887 436.48 855.354 439.04C858.874 441.547 861.247 445.147 862.474 449.84H852.634C851.834 447.653 850.554 445.947 848.794 444.72C847.034 443.493 844.82 442.88 842.154 442.88C838.42 442.88 835.434 444.213 833.194 446.88C831.007 449.493 829.914 453.173 829.914 457.92C829.914 462.667 831.007 466.373 833.194 469.04C835.434 471.707 838.42 473.04 842.154 473.04C847.434 473.04 850.927 470.72 852.634 466.08H862.474C861.194 470.56 858.794 474.133 855.274 476.8C851.754 479.413 847.38 480.72 842.154 480.72C837.94 480.72 834.207 479.787 830.954 477.92C827.7 476 825.14 473.333 823.274 469.92C821.46 466.453 820.554 462.453 820.554 457.92ZM868.523 457.76C868.523 453.333 869.429 449.413 871.243 446C873.109 442.587 875.616 439.947 878.763 438.08C881.963 436.16 885.483 435.2 889.323 435.2C892.789 435.2 895.803 435.893 898.363 437.28C900.976 438.613 903.056 440.293 904.603 442.32V435.92H913.803V480H904.603V473.44C903.056 475.52 900.949 477.253 898.283 478.64C895.616 480.027 892.576 480.72 889.163 480.72C885.376 480.72 881.909 479.76 878.763 477.84C875.616 475.867 873.109 473.147 871.243 469.68C869.429 466.16 868.523 462.187 868.523 457.76ZM904.603 457.92C904.603 454.88 903.963 452.24 902.683 450C901.456 447.76 899.829 446.053 897.803 444.88C895.776 443.707 893.589 443.12 891.243 443.12C888.896 443.12 886.709 443.707 884.683 444.88C882.656 446 881.003 447.68 879.723 449.92C878.496 452.107 877.883 454.72 877.883 457.76C877.883 460.8 878.496 463.467 879.723 465.76C881.003 468.053 882.656 469.813 884.683 471.04C886.763 472.213 888.949 472.8 891.243 472.8C893.589 472.8 895.776 472.213 897.803 471.04C899.829 469.867 901.456 468.16 902.683 465.92C903.963 463.627 904.603 460.96 904.603 457.92ZM936.421 443.36V467.76C936.421 469.413 936.795 470.613 937.541 471.36C938.341 472.053 939.675 472.4 941.541 472.4H947.141V480H939.941C935.835 480 932.688 479.04 930.501 477.12C928.315 475.2 927.221 472.08 927.221 467.76V443.36H922.021V435.92H927.221V424.96H936.421V435.92H947.141V443.36H936.421ZM960.187 430.08C958.534 430.08 957.147 429.52 956.027 428.4C954.907 427.28 954.347 425.893 954.347 424.24C954.347 422.587 954.907 421.2 956.027 420.08C957.147 418.96 958.534 418.4 960.187 418.4C961.787 418.4 963.147 418.96 964.267 420.08C965.387 421.2 965.947 422.587 965.947 424.24C965.947 425.893 965.387 427.28 964.267 428.4C963.147 429.52 961.787 430.08 960.187 430.08ZM964.667 435.92V480H955.547V435.92H964.667ZM995.761 480.72C991.601 480.72 987.841 479.787 984.481 477.92C981.121 476 978.481 473.333 976.561 469.92C974.641 466.453 973.681 462.453 973.681 457.92C973.681 453.44 974.667 449.467 976.641 446C978.614 442.533 981.307 439.867 984.721 438C988.134 436.133 991.947 435.2 996.161 435.2C1000.37 435.2 1004.19 436.133 1007.6 438C1011.01 439.867 1013.71 442.533 1015.68 446C1017.65 449.467 1018.64 453.44 1018.64 457.92C1018.64 462.4 1017.63 466.373 1015.6 469.84C1013.57 473.307 1010.8 476 1007.28 477.92C1003.81 479.787 999.974 480.72 995.761 480.72ZM995.761 472.8C998.107 472.8 1000.29 472.24 1002.32 471.12C1004.4 470 1006.08 468.32 1007.36 466.08C1008.64 463.84 1009.28 461.12 1009.28 457.92C1009.28 454.72 1008.67 452.027 1007.44 449.84C1006.21 447.6 1004.59 445.92 1002.56 444.8C1000.53 443.68 998.347 443.12 996.001 443.12C993.654 443.12 991.467 443.68 989.441 444.8C987.467 445.92 985.894 447.6 984.721 449.84C983.547 452.027 982.961 454.72 982.961 457.92C982.961 462.667 984.161 466.347 986.561 468.96C989.014 471.52 992.081 472.8 995.761 472.8ZM1049.9 435.2C1053.36 435.2 1056.46 435.92 1059.18 437.36C1061.95 438.8 1064.11 440.933 1065.66 443.76C1067.2 446.587 1067.98 450 1067.98 454V480H1058.94V455.36C1058.94 451.413 1057.95 448.4 1055.98 446.32C1054 444.187 1051.31 443.12 1047.9 443.12C1044.48 443.12 1041.76 444.187 1039.74 446.32C1037.76 448.4 1036.78 451.413 1036.78 455.36V480H1027.66V435.92H1036.78V440.96C1038.27 439.147 1040.16 437.733 1042.46 436.72C1044.8 435.707 1047.28 435.2 1049.9 435.2ZM1076.57 457.76C1076.57 453.333 1077.48 449.413 1079.29 446C1081.16 442.587 1083.66 439.947 1086.81 438.08C1090.01 436.16 1093.53 435.2 1097.37 435.2C1100.84 435.2 1103.85 435.893 1106.41 437.28C1109.02 438.613 1111.1 440.293 1112.65 442.32V435.92H1121.85V480H1112.65V473.44C1111.1 475.52 1109 477.253 1106.33 478.64C1103.66 480.027 1100.62 480.72 1097.21 480.72C1093.42 480.72 1089.96 479.76 1086.81 477.84C1083.66 475.867 1081.16 473.147 1079.29 469.68C1077.48 466.16 1076.57 462.187 1076.57 457.76ZM1112.65 457.92C1112.65 454.88 1112.01 452.24 1110.73 450C1109.5 447.76 1107.88 446.053 1105.85 444.88C1103.82 443.707 1101.64 443.12 1099.29 443.12C1096.94 443.12 1094.76 443.707 1092.73 444.88C1090.7 446 1089.05 447.68 1087.77 449.92C1086.54 452.107 1085.93 454.72 1085.93 457.76C1085.93 460.8 1086.54 463.467 1087.77 465.76C1089.05 468.053 1090.7 469.813 1092.73 471.04C1094.81 472.213 1097 472.8 1099.29 472.8C1101.64 472.8 1103.82 472.213 1105.85 471.04C1107.88 469.867 1109.5 468.16 1110.73 465.92C1112.01 463.627 1112.65 460.96 1112.65 457.92ZM1142.95 420.8V480H1133.83V420.8H1142.95ZM1172.66 457.76C1172.66 453.333 1173.57 449.413 1175.38 446C1177.25 442.587 1179.76 439.947 1182.9 438.08C1186.1 436.16 1189.62 435.2 1193.46 435.2C1196.93 435.2 1199.94 435.893 1202.5 437.28C1205.12 438.613 1207.2 440.293 1208.74 442.32V435.92H1217.94V480H1208.74V473.44C1207.2 475.52 1205.09 477.253 1202.42 478.64C1199.76 480.027 1196.72 480.72 1193.3 480.72C1189.52 480.72 1186.05 479.76 1182.9 477.84C1179.76 475.867 1177.25 473.147 1175.38 469.68C1173.57 466.16 1172.66 462.187 1172.66 457.76ZM1208.74 457.92C1208.74 454.88 1208.1 452.24 1206.82 450C1205.6 447.76 1203.97 446.053 1201.94 444.88C1199.92 443.707 1197.73 443.12 1195.38 443.12C1193.04 443.12 1190.85 443.707 1188.82 444.88C1186.8 446 1185.14 447.68 1183.86 449.92C1182.64 452.107 1182.02 454.72 1182.02 457.76C1182.02 460.8 1182.64 463.467 1183.86 465.76C1185.14 468.053 1186.8 469.813 1188.82 471.04C1190.9 472.213 1193.09 472.8 1195.38 472.8C1197.73 472.8 1199.92 472.213 1201.94 471.04C1203.97 469.867 1205.6 468.16 1206.82 465.92C1208.1 463.627 1208.74 460.96 1208.74 457.92ZM1239.04 442.4C1240.59 440.373 1242.7 438.667 1245.36 437.28C1248.03 435.893 1251.04 435.2 1254.4 435.2C1258.24 435.2 1261.74 436.16 1264.88 438.08C1268.08 439.947 1270.59 442.587 1272.4 446C1274.22 449.413 1275.12 453.333 1275.12 457.76C1275.12 462.187 1274.22 466.16 1272.4 469.68C1270.59 473.147 1268.08 475.867 1264.88 477.84C1261.74 479.76 1258.24 480.72 1254.4 480.72C1251.04 480.72 1248.06 480.053 1245.44 478.72C1242.83 477.333 1240.7 475.627 1239.04 473.6V500.96H1229.92V435.92H1239.04V442.4ZM1265.84 457.76C1265.84 454.72 1265.2 452.107 1263.92 449.92C1262.7 447.68 1261.04 446 1258.96 444.88C1256.94 443.707 1254.75 443.12 1252.4 443.12C1250.11 443.12 1247.92 443.707 1245.84 444.88C1243.82 446.053 1242.16 447.76 1240.88 450C1239.66 452.24 1239.04 454.88 1239.04 457.92C1239.04 460.96 1239.66 463.627 1240.88 465.92C1242.16 468.16 1243.82 469.867 1245.84 471.04C1247.92 472.213 1250.11 472.8 1252.4 472.8C1254.75 472.8 1256.94 472.213 1258.96 471.04C1261.04 469.813 1262.7 468.053 1263.92 465.76C1265.2 463.467 1265.84 460.8 1265.84 457.76ZM1293.26 442.4C1294.81 440.373 1296.91 438.667 1299.58 437.28C1302.25 435.893 1305.26 435.2 1308.62 435.2C1312.46 435.2 1315.95 436.16 1319.1 438.08C1322.3 439.947 1324.81 442.587 1326.62 446C1328.43 449.413 1329.34 453.333 1329.34 457.76C1329.34 462.187 1328.43 466.16 1326.62 469.68C1324.81 473.147 1322.3 475.867 1319.1 477.84C1315.95 479.76 1312.46 480.72 1308.62 480.72C1305.26 480.72 1302.27 480.053 1299.66 478.72C1297.05 477.333 1294.91 475.627 1293.26 473.6V500.96H1284.14V435.92H1293.26V442.4ZM1320.06 457.76C1320.06 454.72 1319.42 452.107 1318.14 449.92C1316.91 447.68 1315.26 446 1313.18 444.88C1311.15 443.707 1308.97 443.12 1306.62 443.12C1304.33 443.12 1302.14 443.707 1300.06 444.88C1298.03 446.053 1296.38 447.76 1295.1 450C1293.87 452.24 1293.26 454.88 1293.26 457.92C1293.26 460.96 1293.87 463.627 1295.1 465.92C1296.38 468.16 1298.03 469.867 1300.06 471.04C1302.14 472.213 1304.33 472.8 1306.62 472.8C1308.97 472.8 1311.15 472.213 1313.18 471.04C1315.26 469.813 1316.91 468.053 1318.14 465.76C1319.42 463.467 1320.06 460.8 1320.06 457.76ZM1369.78 443.36V467.76C1369.78 469.413 1370.15 470.613 1370.9 471.36C1371.7 472.053 1373.03 472.4 1374.9 472.4H1380.5V480H1373.3C1369.19 480 1366.05 479.04 1363.86 477.12C1361.67 475.2 1360.58 472.08 1360.58 467.76V443.36H1355.38V435.92H1360.58V424.96H1369.78V435.92H1380.5V443.36H1369.78ZM1411.71 435.2C1415.07 435.2 1418.05 435.92 1420.67 437.36C1423.33 438.8 1425.41 440.933 1426.91 443.76C1428.45 446.587 1429.23 450 1429.23 454V480H1420.19V455.36C1420.19 451.413 1419.2 448.4 1417.23 446.32C1415.25 444.187 1412.56 443.12 1409.15 443.12C1405.73 443.12 1403.01 444.187 1400.99 446.32C1399.01 448.4 1398.03 451.413 1398.03 455.36V480H1388.91V420.8H1398.03V441.04C1399.57 439.173 1401.52 437.733 1403.87 436.72C1406.27 435.707 1408.88 435.2 1411.71 435.2ZM1437.82 457.76C1437.82 453.333 1438.73 449.413 1440.54 446C1442.41 442.587 1444.91 439.947 1448.06 438.08C1451.26 436.16 1454.78 435.2 1458.62 435.2C1462.09 435.2 1465.1 435.893 1467.66 437.28C1470.27 438.613 1472.35 440.293 1473.9 442.32V435.92H1483.1V480H1473.9V473.44C1472.35 475.52 1470.25 477.253 1467.58 478.64C1464.91 480.027 1461.87 480.72 1458.46 480.72C1454.67 480.72 1451.21 479.76 1448.06 477.84C1444.91 475.867 1442.41 473.147 1440.54 469.68C1438.73 466.16 1437.82 462.187 1437.82 457.76ZM1473.9 457.92C1473.9 454.88 1473.26 452.24 1471.98 450C1470.75 447.76 1469.13 446.053 1467.1 444.88C1465.07 443.707 1462.89 443.12 1460.54 443.12C1458.19 443.12 1456.01 443.707 1453.98 444.88C1451.95 446 1450.3 447.68 1449.02 449.92C1447.79 452.107 1447.18 454.72 1447.18 457.76C1447.18 460.8 1447.79 463.467 1449.02 465.76C1450.3 468.053 1451.95 469.813 1453.98 471.04C1456.06 472.213 1458.25 472.8 1460.54 472.8C1462.89 472.8 1465.07 472.213 1467.1 471.04C1469.13 469.867 1470.75 468.16 1471.98 465.92C1473.26 463.627 1473.9 460.96 1473.9 457.92ZM1505.72 443.36V467.76C1505.72 469.413 1506.09 470.613 1506.84 471.36C1507.64 472.053 1508.97 472.4 1510.84 472.4H1516.44V480H1509.24C1505.13 480 1501.98 479.04 1499.8 477.12C1497.61 475.2 1496.52 472.08 1496.52 467.76V443.36H1491.32V435.92H1496.52V424.96H1505.72V435.92H1516.44V443.36H1505.72ZM254.12 562.4C255.667 560.373 257.773 558.667 260.44 557.28C263.107 555.893 266.12 555.2 269.48 555.2C273.32 555.2 276.813 556.16 279.96 558.08C283.16 559.947 285.667 562.587 287.48 566C289.293 569.413 290.2 573.333 290.2 577.76C290.2 582.187 289.293 586.16 287.48 589.68C285.667 593.147 283.16 595.867 279.96 597.84C276.813 599.76 273.32 600.72 269.48 600.72C266.12 600.72 263.133 600.053 260.52 598.72C257.907 597.333 255.773 595.627 254.12 593.6V620.96H245V555.92H254.12V562.4ZM280.92 577.76C280.92 574.72 280.28 572.107 279 569.92C277.773 567.68 276.12 566 274.04 564.88C272.013 563.707 269.827 563.12 267.48 563.12C265.187 563.12 263 563.707 260.92 564.88C258.893 566.053 257.24 567.76 255.96 570C254.733 572.24 254.12 574.88 254.12 577.92C254.12 580.96 254.733 583.627 255.96 585.92C257.24 588.16 258.893 589.867 260.92 591.04C263 592.213 265.187 592.8 267.48 592.8C269.827 592.8 272.013 592.213 274.04 591.04C276.12 589.813 277.773 588.053 279 585.76C280.28 583.467 280.92 580.8 280.92 577.76ZM308.339 562.32C309.672 560.08 311.432 558.347 313.619 557.12C315.859 555.84 318.499 555.2 321.539 555.2V564.64H319.219C315.645 564.64 312.925 565.547 311.059 567.36C309.245 569.173 308.339 572.32 308.339 576.8V600H299.219V555.92H308.339V562.32ZM349.042 600.72C344.882 600.72 341.122 599.787 337.762 597.92C334.402 596 331.762 593.333 329.842 589.92C327.922 586.453 326.962 582.453 326.962 577.92C326.962 573.44 327.949 569.467 329.922 566C331.895 562.533 334.589 559.867 338.002 558C341.415 556.133 345.229 555.2 349.442 555.2C353.655 555.2 357.469 556.133 360.882 558C364.295 559.867 366.989 562.533 368.962 566C370.935 569.467 371.922 573.44 371.922 577.92C371.922 582.4 370.909 586.373 368.882 589.84C366.855 593.307 364.082 596 360.562 597.92C357.095 599.787 353.255 600.72 349.042 600.72ZM349.042 592.8C351.389 592.8 353.575 592.24 355.602 591.12C357.682 590 359.362 588.32 360.642 586.08C361.922 583.84 362.562 581.12 362.562 577.92C362.562 574.72 361.949 572.027 360.722 569.84C359.495 567.6 357.869 565.92 355.842 564.8C353.815 563.68 351.629 563.12 349.282 563.12C346.935 563.12 344.749 563.68 342.722 564.8C340.749 565.92 339.175 567.6 338.002 569.84C336.829 572.027 336.242 574.72 336.242 577.92C336.242 582.667 337.442 586.347 339.842 588.96C342.295 591.52 345.362 592.8 349.042 592.8ZM397.978 591.84L410.458 555.92H420.137L403.338 600H392.458L375.738 555.92H385.497L397.978 591.84ZM431.671 550.08C430.018 550.08 428.631 549.52 427.511 548.4C426.391 547.28 425.831 545.893 425.831 544.24C425.831 542.587 426.391 541.2 427.511 540.08C428.631 538.96 430.018 538.4 431.671 538.4C433.271 538.4 434.631 538.96 435.751 540.08C436.871 541.2 437.431 542.587 437.431 544.24C437.431 545.893 436.871 547.28 435.751 548.4C434.631 549.52 433.271 550.08 431.671 550.08ZM436.151 555.92V600H427.031V555.92H436.151ZM445.085 577.76C445.085 573.333 445.992 569.413 447.805 566C449.672 562.587 452.178 559.947 455.325 558.08C458.525 556.16 462.072 555.2 465.965 555.2C468.845 555.2 471.672 555.84 474.445 557.12C477.272 558.347 479.512 560 481.165 562.08V540.8H490.365V600H481.165V593.36C479.672 595.493 477.592 597.253 474.925 598.64C472.312 600.027 469.298 600.72 465.885 600.72C462.045 600.72 458.525 599.76 455.325 597.84C452.178 595.867 449.672 593.147 447.805 589.68C445.992 586.16 445.085 582.187 445.085 577.76ZM481.165 577.92C481.165 574.88 480.525 572.24 479.245 570C478.018 567.76 476.392 566.053 474.365 564.88C472.338 563.707 470.152 563.12 467.805 563.12C465.458 563.12 463.272 563.707 461.245 564.88C459.218 566 457.565 567.68 456.285 569.92C455.058 572.107 454.445 574.72 454.445 577.76C454.445 580.8 455.058 583.467 456.285 585.76C457.565 588.053 459.218 589.813 461.245 591.04C463.325 592.213 465.512 592.8 467.805 592.8C470.152 592.8 472.338 592.213 474.365 591.04C476.392 589.867 478.018 588.16 479.245 585.92C480.525 583.627 481.165 580.96 481.165 577.92ZM542.744 576.88C542.744 578.533 542.637 580.027 542.424 581.36H508.744C509.01 584.88 510.317 587.707 512.664 589.84C515.01 591.973 517.89 593.04 521.304 593.04C526.21 593.04 529.677 590.987 531.704 586.88H541.544C540.21 590.933 537.784 594.267 534.264 596.88C530.797 599.44 526.477 600.72 521.304 600.72C517.09 600.72 513.304 599.787 509.944 597.92C506.637 596 504.024 593.333 502.104 589.92C500.237 586.453 499.304 582.453 499.304 577.92C499.304 573.387 500.21 569.413 502.024 566C503.89 562.533 506.477 559.867 509.784 558C513.144 556.133 516.984 555.2 521.304 555.2C525.464 555.2 529.17 556.107 532.424 557.92C535.677 559.733 538.21 562.293 540.024 565.6C541.837 568.853 542.744 572.613 542.744 576.88ZM533.224 574C533.17 570.64 531.97 567.947 529.624 565.92C527.277 563.893 524.37 562.88 520.904 562.88C517.757 562.88 515.064 563.893 512.824 565.92C510.584 567.893 509.25 570.587 508.824 574H533.224ZM567.719 600.72C564.252 600.72 561.132 600.107 558.359 598.88C555.639 597.6 553.479 595.893 551.879 593.76C550.279 591.573 549.425 589.147 549.319 586.48H558.759C558.919 588.347 559.799 589.92 561.399 591.2C563.052 592.427 565.105 593.04 567.559 593.04C570.119 593.04 572.092 592.56 573.479 591.6C574.919 590.587 575.639 589.307 575.639 587.76C575.639 586.107 574.839 584.88 573.239 584.08C571.692 583.28 569.212 582.4 565.799 581.44C562.492 580.533 559.799 579.653 557.719 578.8C555.639 577.947 553.825 576.64 552.279 574.88C550.785 573.12 550.039 570.8 550.039 567.92C550.039 565.573 550.732 563.44 552.119 561.52C553.505 559.547 555.479 558 558.039 556.88C560.652 555.76 563.639 555.2 566.999 555.2C572.012 555.2 576.039 556.48 579.079 559.04C582.172 561.547 583.825 564.987 584.039 569.36H574.919C574.759 567.387 573.959 565.813 572.519 564.64C571.079 563.467 569.132 562.88 566.679 562.88C564.279 562.88 562.439 563.333 561.159 564.24C559.879 565.147 559.239 566.347 559.239 567.84C559.239 569.013 559.665 570 560.519 570.8C561.372 571.6 562.412 572.24 563.639 572.72C564.865 573.147 566.679 573.707 569.079 574.4C572.279 575.253 574.892 576.133 576.919 577.04C578.999 577.893 580.785 579.173 582.279 580.88C583.772 582.587 584.545 584.853 584.599 587.68C584.599 590.187 583.905 592.427 582.519 594.4C581.132 596.373 579.159 597.92 576.599 599.04C574.092 600.16 571.132 600.72 567.719 600.72ZM624.354 562.4C625.901 560.373 628.008 558.667 630.674 557.28C633.341 555.893 636.354 555.2 639.714 555.2C643.554 555.2 647.048 556.16 650.194 558.08C653.394 559.947 655.901 562.587 657.714 566C659.528 569.413 660.434 573.333 660.434 577.76C660.434 582.187 659.528 586.16 657.714 589.68C655.901 593.147 653.394 595.867 650.194 597.84C647.048 599.76 643.554 600.72 639.714 600.72C636.354 600.72 633.368 600.053 630.754 598.72C628.141 597.333 626.008 595.627 624.354 593.6V620.96H615.234V555.92H624.354V562.4ZM651.154 577.76C651.154 574.72 650.514 572.107 649.234 569.92C648.008 567.68 646.354 566 644.274 564.88C642.248 563.707 640.061 563.12 637.714 563.12C635.421 563.12 633.234 563.707 631.154 564.88C629.128 566.053 627.474 567.76 626.194 570C624.968 572.24 624.354 574.88 624.354 577.92C624.354 580.96 624.968 583.627 626.194 585.92C627.474 588.16 629.128 589.867 631.154 591.04C633.234 592.213 635.421 592.8 637.714 592.8C640.061 592.8 642.248 592.213 644.274 591.04C646.354 589.813 648.008 588.053 649.234 585.76C650.514 583.467 651.154 580.8 651.154 577.76ZM709.853 576.88C709.853 578.533 709.746 580.027 709.533 581.36H675.853C676.12 584.88 677.426 587.707 679.773 589.84C682.12 591.973 685 593.04 688.413 593.04C693.32 593.04 696.786 590.987 698.813 586.88H708.653C707.32 590.933 704.893 594.267 701.373 596.88C697.906 599.44 693.586 600.72 688.413 600.72C684.2 600.72 680.413 599.787 677.053 597.92C673.746 596 671.133 593.333 669.213 589.92C667.346 586.453 666.413 582.453 666.413 577.92C666.413 573.387 667.32 569.413 669.133 566C671 562.533 673.586 559.867 676.893 558C680.253 556.133 684.093 555.2 688.413 555.2C692.573 555.2 696.28 556.107 699.533 557.92C702.786 559.733 705.32 562.293 707.133 565.6C708.946 568.853 709.853 572.613 709.853 576.88ZM700.333 574C700.28 570.64 699.08 567.947 696.733 565.92C694.386 563.893 691.48 562.88 688.013 562.88C684.866 562.88 682.173 563.893 679.933 565.92C677.693 567.893 676.36 570.587 675.933 574H700.333ZM737.948 600.72C733.788 600.72 730.028 599.787 726.668 597.92C723.308 596 720.668 593.333 718.748 589.92C716.828 586.453 715.868 582.453 715.868 577.92C715.868 573.44 716.855 569.467 718.828 566C720.801 562.533 723.495 559.867 726.908 558C730.321 556.133 734.135 555.2 738.348 555.2C742.561 555.2 746.375 556.133 749.788 558C753.201 559.867 755.895 562.533 757.868 566C759.841 569.467 760.828 573.44 760.828 577.92C760.828 582.4 759.815 586.373 757.788 589.84C755.761 593.307 752.988 596 749.468 597.92C746.001 599.787 742.161 600.72 737.948 600.72ZM737.948 592.8C740.295 592.8 742.481 592.24 744.508 591.12C746.588 590 748.268 588.32 749.548 586.08C750.828 583.84 751.468 581.12 751.468 577.92C751.468 574.72 750.855 572.027 749.628 569.84C748.401 567.6 746.775 565.92 744.748 564.8C742.721 563.68 740.535 563.12 738.188 563.12C735.841 563.12 733.655 563.68 731.628 564.8C729.655 565.92 728.081 567.6 726.908 569.84C725.735 572.027 725.148 574.72 725.148 577.92C725.148 582.667 726.348 586.347 728.748 588.96C731.201 591.52 734.268 592.8 737.948 592.8ZM778.964 562.4C780.51 560.373 782.617 558.667 785.284 557.28C787.95 555.893 790.964 555.2 794.324 555.2C798.164 555.2 801.657 556.16 804.804 558.08C808.004 559.947 810.51 562.587 812.324 566C814.137 569.413 815.044 573.333 815.044 577.76C815.044 582.187 814.137 586.16 812.324 589.68C810.51 593.147 808.004 595.867 804.804 597.84C801.657 599.76 798.164 600.72 794.324 600.72C790.964 600.72 787.977 600.053 785.364 598.72C782.75 597.333 780.617 595.627 778.964 593.6V620.96H769.844V555.92H778.964V562.4ZM805.764 577.76C805.764 574.72 805.124 572.107 803.844 569.92C802.617 567.68 800.964 566 798.884 564.88C796.857 563.707 794.67 563.12 792.324 563.12C790.03 563.12 787.844 563.707 785.764 564.88C783.737 566.053 782.084 567.76 780.804 570C779.577 572.24 778.964 574.88 778.964 577.92C778.964 580.96 779.577 583.627 780.804 585.92C782.084 588.16 783.737 589.867 785.764 591.04C787.844 592.213 790.03 592.8 792.324 592.8C794.67 592.8 796.857 592.213 798.884 591.04C800.964 589.813 802.617 588.053 803.844 585.76C805.124 583.467 805.764 580.8 805.764 577.76ZM833.183 540.8V600H824.063V540.8H833.183ZM885.556 576.88C885.556 578.533 885.45 580.027 885.236 581.36H851.556C851.823 584.88 853.13 587.707 855.476 589.84C857.823 591.973 860.703 593.04 864.116 593.04C869.023 593.04 872.49 590.987 874.516 586.88H884.356C883.023 590.933 880.596 594.267 877.076 596.88C873.61 599.44 869.29 600.72 864.116 600.72C859.903 600.72 856.116 599.787 852.756 597.92C849.45 596 846.836 593.333 844.916 589.92C843.05 586.453 842.116 582.453 842.116 577.92C842.116 573.387 843.023 569.413 844.836 566C846.703 562.533 849.29 559.867 852.596 558C855.956 556.133 859.796 555.2 864.116 555.2C868.276 555.2 871.983 556.107 875.236 557.92C878.49 559.733 881.023 562.293 882.836 565.6C884.65 568.853 885.556 572.613 885.556 576.88ZM876.036 574C875.983 570.64 874.783 567.947 872.436 565.92C870.09 563.893 867.183 562.88 863.716 562.88C860.57 562.88 857.876 563.893 855.636 565.92C853.396 567.893 852.063 570.587 851.636 574H876.036ZM974.513 555.92L960.833 600H951.233L942.353 567.44L933.473 600H923.873L910.113 555.92H919.393L928.593 591.36L937.953 555.92H947.473L956.433 591.2L965.553 555.92H974.513ZM985.968 550.08C984.315 550.08 982.928 549.52 981.808 548.4C980.688 547.28 980.128 545.893 980.128 544.24C980.128 542.587 980.688 541.2 981.808 540.08C982.928 538.96 984.315 538.4 985.968 538.4C987.568 538.4 988.928 538.96 990.048 540.08C991.168 541.2 991.728 542.587 991.728 544.24C991.728 545.893 991.168 547.28 990.048 548.4C988.928 549.52 987.568 550.08 985.968 550.08ZM990.448 555.92V600H981.328V555.92H990.448ZM1013.06 563.36V587.76C1013.06 589.413 1013.44 590.613 1014.18 591.36C1014.98 592.053 1016.32 592.4 1018.18 592.4H1023.78V600H1016.58C1012.48 600 1009.33 599.04 1007.14 597.12C1004.96 595.2 1003.86 592.08 1003.86 587.76V563.36H998.662V555.92H1003.86V544.96H1013.06V555.92H1023.78V563.36H1013.06ZM1054.99 555.2C1058.35 555.2 1061.33 555.92 1063.95 557.36C1066.61 558.8 1068.69 560.933 1070.19 563.76C1071.73 566.587 1072.51 570 1072.51 574V600H1063.47V575.36C1063.47 571.413 1062.48 568.4 1060.51 566.32C1058.53 564.187 1055.84 563.12 1052.43 563.12C1049.01 563.12 1046.29 564.187 1044.27 566.32C1042.29 568.4 1041.31 571.413 1041.31 575.36V600H1032.19V540.8H1041.31V561.04C1042.85 559.173 1044.8 557.733 1047.15 556.72C1049.55 555.707 1052.16 555.2 1054.99 555.2ZM1101.88 577.92C1101.88 573.387 1102.79 569.413 1104.6 566C1106.47 562.533 1109.03 559.867 1112.28 558C1115.54 556.133 1119.27 555.2 1123.48 555.2C1128.82 555.2 1133.22 556.48 1136.68 559.04C1140.2 561.547 1142.58 565.147 1143.8 569.84H1133.96C1133.16 567.653 1131.88 565.947 1130.12 564.72C1128.36 563.493 1126.15 562.88 1123.48 562.88C1119.75 562.88 1116.76 564.213 1114.52 566.88C1112.34 569.493 1111.24 573.173 1111.24 577.92C1111.24 582.667 1112.34 586.373 1114.52 589.04C1116.76 591.707 1119.75 593.04 1123.48 593.04C1128.76 593.04 1132.26 590.72 1133.96 586.08H1143.8C1142.52 590.56 1140.12 594.133 1136.6 596.8C1133.08 599.413 1128.71 600.72 1123.48 600.72C1119.27 600.72 1115.54 599.787 1112.28 597.92C1109.03 596 1106.47 593.333 1104.6 589.92C1102.79 586.453 1101.88 582.453 1101.88 577.92ZM1162.01 562.32C1163.34 560.08 1165.1 558.347 1167.29 557.12C1169.53 555.84 1172.17 555.2 1175.21 555.2V564.64H1172.89C1169.32 564.64 1166.6 565.547 1164.73 567.36C1162.92 569.173 1162.01 572.32 1162.01 576.8V600H1152.89V555.92H1162.01V562.32ZM1223.99 576.88C1223.99 578.533 1223.89 580.027 1223.67 581.36H1189.99C1190.26 584.88 1191.57 587.707 1193.91 589.84C1196.26 591.973 1199.14 593.04 1202.55 593.04C1207.46 593.04 1210.93 590.987 1212.95 586.88H1222.79C1221.46 590.933 1219.03 594.267 1215.51 596.88C1212.05 599.44 1207.73 600.72 1202.55 600.72C1198.34 600.72 1194.55 599.787 1191.19 597.92C1187.89 596 1185.27 593.333 1183.35 589.92C1181.49 586.453 1180.55 582.453 1180.55 577.92C1180.55 573.387 1181.46 569.413 1183.27 566C1185.14 562.533 1187.73 559.867 1191.03 558C1194.39 556.133 1198.23 555.2 1202.55 555.2C1206.71 555.2 1210.42 556.107 1213.67 557.92C1216.93 559.733 1219.46 562.293 1221.27 565.6C1223.09 568.853 1223.99 572.613 1223.99 576.88ZM1214.47 574C1214.42 570.64 1213.22 567.947 1210.87 565.92C1208.53 563.893 1205.62 562.88 1202.15 562.88C1199.01 562.88 1196.31 563.893 1194.07 565.92C1191.83 567.893 1190.5 570.587 1190.07 574H1214.47ZM1229.93 577.76C1229.93 573.333 1230.84 569.413 1232.65 566C1234.52 562.587 1237.02 559.947 1240.17 558.08C1243.37 556.16 1246.89 555.2 1250.73 555.2C1254.2 555.2 1257.21 555.893 1259.77 557.28C1262.38 558.613 1264.46 560.293 1266.01 562.32V555.92H1275.21V600H1266.01V593.44C1264.46 595.52 1262.36 597.253 1259.69 598.64C1257.02 600.027 1253.98 600.72 1250.57 600.72C1246.78 600.72 1243.32 599.76 1240.17 597.84C1237.02 595.867 1234.52 593.147 1232.65 589.68C1230.84 586.16 1229.93 582.187 1229.93 577.76ZM1266.01 577.92C1266.01 574.88 1265.37 572.24 1264.09 570C1262.86 567.76 1261.24 566.053 1259.21 564.88C1257.18 563.707 1255 563.12 1252.65 563.12C1250.3 563.12 1248.12 563.707 1246.09 564.88C1244.06 566 1242.41 567.68 1241.13 569.92C1239.9 572.107 1239.29 574.72 1239.29 577.76C1239.29 580.8 1239.9 583.467 1241.13 585.76C1242.41 588.053 1244.06 589.813 1246.09 591.04C1248.17 592.213 1250.36 592.8 1252.65 592.8C1255 592.8 1257.18 592.213 1259.21 591.04C1261.24 589.867 1262.86 588.16 1264.09 585.92C1265.37 583.627 1266.01 580.96 1266.01 577.92ZM1297.83 563.36V587.76C1297.83 589.413 1298.2 590.613 1298.95 591.36C1299.75 592.053 1301.08 592.4 1302.95 592.4H1308.55V600H1301.35C1297.24 600 1294.09 599.04 1291.91 597.12C1289.72 595.2 1288.63 592.08 1288.63 587.76V563.36H1283.43V555.92H1288.63V544.96H1297.83V555.92H1308.55V563.36H1297.83ZM1321.59 550.08C1319.94 550.08 1318.55 549.52 1317.43 548.4C1316.31 547.28 1315.75 545.893 1315.75 544.24C1315.75 542.587 1316.31 541.2 1317.43 540.08C1318.55 538.96 1319.94 538.4 1321.59 538.4C1323.19 538.4 1324.55 538.96 1325.67 540.08C1326.79 541.2 1327.35 542.587 1327.35 544.24C1327.35 545.893 1326.79 547.28 1325.67 548.4C1324.55 549.52 1323.19 550.08 1321.59 550.08ZM1326.07 555.92V600H1316.95V555.92H1326.07ZM1355.09 591.84L1367.57 555.92H1377.25L1360.45 600H1349.57L1332.85 555.92H1342.61L1355.09 591.84ZM1424.54 576.88C1424.54 578.533 1424.43 580.027 1424.22 581.36H1390.54C1390.81 584.88 1392.11 587.707 1394.46 589.84C1396.81 591.973 1399.69 593.04 1403.1 593.04C1408.01 593.04 1411.47 590.987 1413.5 586.88H1423.34C1422.01 590.933 1419.58 594.267 1416.06 596.88C1412.59 599.44 1408.27 600.72 1403.1 600.72C1398.89 600.72 1395.1 599.787 1391.74 597.92C1388.43 596 1385.82 593.333 1383.9 589.92C1382.03 586.453 1381.1 582.453 1381.1 577.92C1381.1 573.387 1382.01 569.413 1383.82 566C1385.69 562.533 1388.27 559.867 1391.58 558C1394.94 556.133 1398.78 555.2 1403.1 555.2C1407.26 555.2 1410.97 556.107 1414.22 557.92C1417.47 559.733 1420.01 562.293 1421.82 565.6C1423.63 568.853 1424.54 572.613 1424.54 576.88ZM1415.02 574C1414.97 570.64 1413.77 567.947 1411.42 565.92C1409.07 563.893 1406.17 562.88 1402.7 562.88C1399.55 562.88 1396.86 563.893 1394.62 565.92C1392.38 567.893 1391.05 570.587 1390.62 574H1415.02ZM1513.5 555.92L1499.82 600H1490.22L1481.34 567.44L1472.46 600H1462.86L1449.1 555.92H1458.38L1467.58 591.36L1476.94 555.92H1486.46L1495.42 591.2L1504.54 555.92H1513.5ZM1517.27 577.76C1517.27 573.333 1518.18 569.413 1519.99 566C1521.86 562.587 1524.37 559.947 1527.51 558.08C1530.71 556.16 1534.23 555.2 1538.07 555.2C1541.54 555.2 1544.55 555.893 1547.11 557.28C1549.73 558.613 1551.81 560.293 1553.35 562.32V555.92H1562.55V600H1553.35V593.44C1551.81 595.52 1549.7 597.253 1547.03 598.64C1544.37 600.027 1541.33 600.72 1537.91 600.72C1534.13 600.72 1530.66 599.76 1527.51 597.84C1524.37 595.867 1521.86 593.147 1519.99 589.68C1518.18 586.16 1517.27 582.187 1517.27 577.76ZM1553.35 577.92C1553.35 574.88 1552.71 572.24 1551.43 570C1550.21 567.76 1548.58 566.053 1546.55 564.88C1544.53 563.707 1542.34 563.12 1539.99 563.12C1537.65 563.12 1535.46 563.707 1533.43 564.88C1531.41 566 1529.75 567.68 1528.47 569.92C1527.25 572.107 1526.63 574.72 1526.63 577.76C1526.63 580.8 1527.25 583.467 1528.47 585.76C1529.75 588.053 1531.41 589.813 1533.43 591.04C1535.51 592.213 1537.7 592.8 1539.99 592.8C1542.34 592.8 1544.53 592.213 1546.55 591.04C1548.58 589.867 1550.21 588.16 1551.43 585.92C1552.71 583.627 1553.35 580.96 1553.35 577.92ZM1614.21 555.92L1587.17 620.72H1577.73L1586.69 599.28L1569.33 555.92H1579.49L1591.89 589.52L1604.77 555.92H1614.21ZM1637.09 600.72C1633.63 600.72 1630.51 600.107 1627.73 598.88C1625.01 597.6 1622.85 595.893 1621.25 593.76C1619.65 591.573 1618.8 589.147 1618.69 586.48H1628.13C1628.29 588.347 1629.17 589.92 1630.77 591.2C1632.43 592.427 1634.48 593.04 1636.93 593.04C1639.49 593.04 1641.47 592.56 1642.85 591.6C1644.29 590.587 1645.01 589.307 1645.01 587.76C1645.01 586.107 1644.21 584.88 1642.61 584.08C1641.07 583.28 1638.59 582.4 1635.17 581.44C1631.87 580.533 1629.17 579.653 1627.09 578.8C1625.01 577.947 1623.2 576.64 1621.65 574.88C1620.16 573.12 1619.41 570.8 1619.41 567.92C1619.41 565.573 1620.11 563.44 1621.49 561.52C1622.88 559.547 1624.85 558 1627.41 556.88C1630.03 555.76 1633.01 555.2 1636.37 555.2C1641.39 555.2 1645.41 556.48 1648.45 559.04C1651.55 561.547 1653.2 564.987 1653.41 569.36H1644.29C1644.13 567.387 1643.33 565.813 1641.89 564.64C1640.45 563.467 1638.51 562.88 1636.05 562.88C1633.65 562.88 1631.81 563.333 1630.53 564.24C1629.25 565.147 1628.61 566.347 1628.61 567.84C1628.61 569.013 1629.04 570 1629.89 570.8C1630.75 571.6 1631.79 572.24 1633.01 572.72C1634.24 573.147 1636.05 573.707 1638.45 574.4C1641.65 575.253 1644.27 576.133 1646.29 577.04C1648.37 577.893 1650.16 579.173 1651.65 580.88C1653.15 582.587 1653.92 584.853 1653.97 587.68C1653.97 590.187 1653.28 592.427 1651.89 594.4C1650.51 596.373 1648.53 597.92 1645.97 599.04C1643.47 600.16 1640.51 600.72 1637.09 600.72ZM255.64 683.36V707.76C255.64 709.413 256.013 710.613 256.76 711.36C257.56 712.053 258.893 712.4 260.76 712.4H266.36V720H259.16C255.053 720 251.907 719.04 249.72 717.12C247.533 715.2 246.44 712.08 246.44 707.76V683.36H241.24V675.92H246.44V664.96H255.64V675.92H266.36V683.36H255.64ZM293.886 720.72C289.726 720.72 285.966 719.787 282.606 717.92C279.246 716 276.606 713.333 274.686 709.92C272.766 706.453 271.806 702.453 271.806 697.92C271.806 693.44 272.792 689.467 274.766 686C276.739 682.533 279.432 679.867 282.846 678C286.259 676.133 290.072 675.2 294.286 675.2C298.499 675.2 302.312 676.133 305.726 678C309.139 679.867 311.832 682.533 313.806 686C315.779 689.467 316.766 693.44 316.766 697.92C316.766 702.4 315.752 706.373 313.726 709.84C311.699 713.307 308.926 716 305.406 717.92C301.939 719.787 298.099 720.72 293.886 720.72ZM293.886 712.8C296.232 712.8 298.419 712.24 300.446 711.12C302.526 710 304.206 708.32 305.486 706.08C306.766 703.84 307.406 701.12 307.406 697.92C307.406 694.72 306.792 692.027 305.566 689.84C304.339 687.6 302.712 685.92 300.686 684.8C298.659 683.68 296.472 683.12 294.126 683.12C291.779 683.12 289.592 683.68 287.566 684.8C285.592 685.92 284.019 687.6 282.846 689.84C281.672 692.027 281.086 694.72 281.086 697.92C281.086 702.667 282.286 706.347 284.686 708.96C287.139 711.52 290.206 712.8 293.886 712.8ZM355.683 682.48C357.229 680.347 359.336 678.613 362.003 677.28C364.723 675.893 367.736 675.2 371.043 675.2C374.936 675.2 378.456 676.133 381.603 678C384.749 679.867 387.229 682.533 389.043 686C390.856 689.413 391.763 693.333 391.763 697.76C391.763 702.187 390.856 706.16 389.043 709.68C387.229 713.147 384.723 715.867 381.523 717.84C378.376 719.76 374.883 720.72 371.043 720.72C367.629 720.72 364.589 720.053 361.923 718.72C359.309 717.387 357.229 715.68 355.683 713.6V720H346.563V660.8H355.683V682.48ZM382.483 697.76C382.483 694.72 381.843 692.107 380.562 689.92C379.336 687.68 377.683 686 375.603 684.88C373.576 683.707 371.389 683.12 369.043 683.12C366.749 683.12 364.563 683.707 362.483 684.88C360.456 686.053 358.803 687.76 357.523 690C356.296 692.24 355.683 694.88 355.683 697.92C355.683 700.96 356.296 703.627 357.523 705.92C358.803 708.16 360.456 709.867 362.483 711.04C364.563 712.213 366.749 712.8 369.043 712.8C371.389 712.8 373.576 712.213 375.603 711.04C377.683 709.813 379.336 708.053 380.562 705.76C381.843 703.467 382.483 700.8 382.483 697.76ZM440.701 675.92V720H431.581V714.8C430.141 716.613 428.248 718.053 425.901 719.12C423.608 720.133 421.155 720.64 418.541 720.64C415.075 720.64 411.955 719.92 409.181 718.48C406.461 717.04 404.301 714.907 402.701 712.08C401.155 709.253 400.381 705.84 400.381 701.84V675.92H409.421V700.48C409.421 704.427 410.408 707.467 412.381 709.6C414.355 711.68 417.048 712.72 420.461 712.72C423.875 712.72 426.568 711.68 428.541 709.6C430.568 707.467 431.581 704.427 431.581 700.48V675.92H440.701ZM449.694 697.76C449.694 693.333 450.601 689.413 452.414 686C454.281 682.587 456.788 679.947 459.934 678.08C463.134 676.16 466.681 675.2 470.574 675.2C473.454 675.2 476.281 675.84 479.054 677.12C481.881 678.347 484.121 680 485.774 682.08V660.8H494.974V720H485.774V713.36C484.281 715.493 482.201 717.253 479.534 718.64C476.921 720.027 473.908 720.72 470.494 720.72C466.654 720.72 463.134 719.76 459.934 717.84C456.788 715.867 454.281 713.147 452.414 709.68C450.601 706.16 449.694 702.187 449.694 697.76ZM485.774 697.92C485.774 694.88 485.134 692.24 483.854 690C482.628 687.76 481.001 686.053 478.974 684.88C476.948 683.707 474.761 683.12 472.414 683.12C470.068 683.12 467.881 683.707 465.854 684.88C463.828 686 462.174 687.68 460.894 689.92C459.668 692.107 459.054 694.72 459.054 697.76C459.054 700.8 459.668 703.467 460.894 705.76C462.174 708.053 463.828 709.813 465.854 711.04C467.934 712.213 470.121 712.8 472.414 712.8C474.761 712.8 476.948 712.213 478.974 711.04C481.001 709.867 482.628 708.16 483.854 705.92C485.134 703.627 485.774 700.96 485.774 697.92ZM524.713 675.2C528.126 675.2 531.14 675.893 533.753 677.28C536.42 678.613 538.5 680.293 539.993 682.32V675.92H549.193V720.72C549.193 724.773 548.34 728.373 546.633 731.52C544.926 734.72 542.446 737.227 539.193 739.04C535.993 740.853 532.153 741.76 527.673 741.76C521.7 741.76 516.74 740.347 512.793 737.52C508.846 734.747 506.606 730.96 506.073 726.16H515.113C515.806 728.453 517.273 730.293 519.513 731.68C521.806 733.12 524.526 733.84 527.673 733.84C531.353 733.84 534.313 732.72 536.553 730.48C538.846 728.24 539.993 724.987 539.993 720.72V713.36C538.446 715.44 536.34 717.2 533.673 718.64C531.06 720.027 528.073 720.72 524.713 720.72C520.873 720.72 517.353 719.76 514.153 717.84C511.006 715.867 508.5 713.147 506.633 709.68C504.82 706.16 503.913 702.187 503.913 697.76C503.913 693.333 504.82 689.413 506.633 686C508.5 682.587 511.006 679.947 514.153 678.08C517.353 676.16 520.873 675.2 524.713 675.2ZM539.993 697.92C539.993 694.88 539.353 692.24 538.073 690C536.846 687.76 535.22 686.053 533.193 684.88C531.166 683.707 528.98 683.12 526.633 683.12C524.286 683.12 522.1 683.707 520.073 684.88C518.046 686 516.393 687.68 515.113 689.92C513.886 692.107 513.273 694.72 513.273 697.76C513.273 700.8 513.886 703.467 515.113 705.76C516.393 708.053 518.046 709.813 520.073 711.04C522.153 712.213 524.34 712.8 526.633 712.8C528.98 712.8 531.166 712.213 533.193 711.04C535.22 709.867 536.846 708.16 538.073 705.92C539.353 703.627 539.993 700.96 539.993 697.92ZM601.572 696.88C601.572 698.533 601.465 700.027 601.252 701.36H567.572C567.839 704.88 569.145 707.707 571.492 709.84C573.839 711.973 576.719 713.04 580.132 713.04C585.039 713.04 588.505 710.987 590.532 706.88H600.372C599.039 710.933 596.612 714.267 593.092 716.88C589.625 719.44 585.305 720.72 580.132 720.72C575.919 720.72 572.132 719.787 568.772 717.92C565.465 716 562.852 713.333 560.932 709.92C559.065 706.453 558.132 702.453 558.132 697.92C558.132 693.387 559.039 689.413 560.852 686C562.719 682.533 565.305 679.867 568.612 678C571.972 676.133 575.812 675.2 580.132 675.2C584.292 675.2 587.999 676.107 591.252 677.92C594.505 679.733 597.039 682.293 598.852 685.6C600.665 688.853 601.572 692.613 601.572 696.88ZM592.052 694C591.999 690.64 590.799 687.947 588.452 685.92C586.105 683.893 583.199 682.88 579.732 682.88C576.585 682.88 573.892 683.893 571.652 685.92C569.412 687.893 568.079 690.587 567.652 694H592.052ZM621.187 683.36V707.76C621.187 709.413 621.56 710.613 622.307 711.36C623.107 712.053 624.44 712.4 626.307 712.4H631.907V720H624.707C620.6 720 617.454 719.04 615.267 717.12C613.08 715.2 611.987 712.08 611.987 707.76V683.36H606.787V675.92H611.987V664.96H621.187V675.92H631.907V683.36H621.187ZM658.054 697.76C658.054 693.333 658.96 689.413 660.774 686C662.64 682.587 665.147 679.947 668.294 678.08C671.494 676.16 675.014 675.2 678.854 675.2C682.32 675.2 685.334 675.893 687.894 677.28C690.507 678.613 692.587 680.293 694.134 682.32V675.92H703.334V720H694.134V713.44C692.587 715.52 690.48 717.253 687.814 718.64C685.147 720.027 682.107 720.72 678.694 720.72C674.907 720.72 671.44 719.76 668.294 717.84C665.147 715.867 662.64 713.147 660.774 709.68C658.96 706.16 658.054 702.187 658.054 697.76ZM694.134 697.92C694.134 694.88 693.494 692.24 692.214 690C690.987 687.76 689.36 686.053 687.334 684.88C685.307 683.707 683.12 683.12 680.774 683.12C678.427 683.12 676.24 683.707 674.214 684.88C672.187 686 670.534 687.68 669.254 689.92C668.027 692.107 667.414 694.72 667.414 697.76C667.414 700.8 668.027 703.467 669.254 705.76C670.534 708.053 672.187 709.813 674.214 711.04C676.294 712.213 678.48 712.8 680.774 712.8C683.12 712.8 685.307 712.213 687.334 711.04C689.36 709.867 690.987 708.16 692.214 705.92C693.494 703.627 694.134 700.96 694.134 697.92ZM737.553 675.2C741.019 675.2 744.113 675.92 746.833 677.36C749.606 678.8 751.766 680.933 753.313 683.76C754.859 686.587 755.633 690 755.633 694V720H746.593V695.36C746.593 691.413 745.606 688.4 743.633 686.32C741.659 684.187 738.966 683.12 735.553 683.12C732.139 683.12 729.419 684.187 727.393 686.32C725.419 688.4 724.433 691.413 724.433 695.36V720H715.313V675.92H724.433V680.96C725.926 679.147 727.819 677.733 730.113 676.72C732.459 675.707 734.939 675.2 737.553 675.2ZM764.226 697.76C764.226 693.333 765.132 689.413 766.946 686C768.812 682.587 771.319 679.947 774.466 678.08C777.666 676.16 781.212 675.2 785.106 675.2C787.986 675.2 790.812 675.84 793.586 677.12C796.412 678.347 798.652 680 800.306 682.08V660.8H809.506V720H800.306V713.36C798.812 715.493 796.732 717.253 794.066 718.64C791.452 720.027 788.439 720.72 785.026 720.72C781.186 720.72 777.666 719.76 774.466 717.84C771.319 715.867 768.812 713.147 766.946 709.68C765.132 706.16 764.226 702.187 764.226 697.76ZM800.306 697.92C800.306 694.88 799.666 692.24 798.386 690C797.159 687.76 795.532 686.053 793.506 684.88C791.479 683.707 789.292 683.12 786.946 683.12C784.599 683.12 782.412 683.707 780.386 684.88C778.359 686 776.706 687.68 775.426 689.92C774.199 692.107 773.586 694.72 773.586 697.76C773.586 700.8 774.199 703.467 775.426 705.76C776.706 708.053 778.359 709.813 780.386 711.04C782.466 712.213 784.652 712.8 786.946 712.8C789.292 712.8 791.479 712.213 793.506 711.04C795.532 709.867 797.159 708.16 798.386 705.92C799.666 703.627 800.306 700.96 800.306 697.92ZM839.226 697.92C839.226 693.387 840.132 689.413 841.946 686C843.812 682.533 846.372 679.867 849.626 678C852.879 676.133 856.612 675.2 860.826 675.2C866.159 675.2 870.559 676.48 874.026 679.04C877.546 681.547 879.919 685.147 881.146 689.84H871.306C870.506 687.653 869.226 685.947 867.466 684.72C865.706 683.493 863.492 682.88 860.826 682.88C857.092 682.88 854.106 684.213 851.866 686.88C849.679 689.493 848.586 693.173 848.586 697.92C848.586 702.667 849.679 706.373 851.866 709.04C854.106 711.707 857.092 713.04 860.826 713.04C866.106 713.04 869.599 710.72 871.306 706.08H881.146C879.866 710.56 877.466 714.133 873.946 716.8C870.426 719.413 866.052 720.72 860.826 720.72C856.612 720.72 852.879 719.787 849.626 717.92C846.372 716 843.812 713.333 841.946 709.92C840.132 706.453 839.226 702.453 839.226 697.92ZM909.354 720.72C905.194 720.72 901.434 719.787 898.074 717.92C894.714 716 892.074 713.333 890.154 709.92C888.234 706.453 887.274 702.453 887.274 697.92C887.274 693.44 888.261 689.467 890.234 686C892.208 682.533 894.901 679.867 898.314 678C901.728 676.133 905.541 675.2 909.754 675.2C913.968 675.2 917.781 676.133 921.194 678C924.608 679.867 927.301 682.533 929.274 686C931.248 689.467 932.234 693.44 932.234 697.92C932.234 702.4 931.221 706.373 929.194 709.84C927.168 713.307 924.394 716 920.874 717.92C917.408 719.787 913.568 720.72 909.354 720.72ZM909.354 712.8C911.701 712.8 913.888 712.24 915.914 711.12C917.994 710 919.674 708.32 920.954 706.08C922.234 703.84 922.874 701.12 922.874 697.92C922.874 694.72 922.261 692.027 921.034 689.84C919.808 687.6 918.181 685.92 916.154 684.8C914.128 683.68 911.941 683.12 909.594 683.12C907.248 683.12 905.061 683.68 903.034 684.8C901.061 685.92 899.488 687.6 898.314 689.84C897.141 692.027 896.554 694.72 896.554 697.92C896.554 702.667 897.754 706.347 900.154 708.96C902.608 711.52 905.674 712.8 909.354 712.8ZM963.49 675.2C966.957 675.2 970.05 675.92 972.77 677.36C975.543 678.8 977.703 680.933 979.25 683.76C980.797 686.587 981.57 690 981.57 694V720H972.53V695.36C972.53 691.413 971.543 688.4 969.57 686.32C967.597 684.187 964.903 683.12 961.49 683.12C958.077 683.12 955.357 684.187 953.33 686.32C951.357 688.4 950.37 691.413 950.37 695.36V720H941.25V675.92H950.37V680.96C951.863 679.147 953.757 677.733 956.05 676.72C958.397 675.707 960.877 675.2 963.49 675.2ZM1015.44 675.2C1018.91 675.2 1022 675.92 1024.72 677.36C1027.5 678.8 1029.66 680.933 1031.2 683.76C1032.75 686.587 1033.52 690 1033.52 694V720H1024.48V695.36C1024.48 691.413 1023.5 688.4 1021.52 686.32C1019.55 684.187 1016.86 683.12 1013.44 683.12C1010.03 683.12 1007.31 684.187 1005.28 686.32C1003.31 688.4 1002.32 691.413 1002.32 695.36V720H993.203V675.92H1002.32V680.96C1003.82 679.147 1005.71 677.733 1008 676.72C1010.35 675.707 1012.83 675.2 1015.44 675.2ZM1085.56 696.88C1085.56 698.533 1085.45 700.027 1085.24 701.36H1051.56C1051.82 704.88 1053.13 707.707 1055.48 709.84C1057.82 711.973 1060.7 713.04 1064.12 713.04C1069.02 713.04 1072.49 710.987 1074.52 706.88H1084.36C1083.02 710.933 1080.6 714.267 1077.08 716.88C1073.61 719.44 1069.29 720.72 1064.12 720.72C1059.9 720.72 1056.12 719.787 1052.76 717.92C1049.45 716 1046.84 713.333 1044.92 709.92C1043.05 706.453 1042.12 702.453 1042.12 697.92C1042.12 693.387 1043.02 689.413 1044.84 686C1046.7 682.533 1049.29 679.867 1052.6 678C1055.96 676.133 1059.8 675.2 1064.12 675.2C1068.28 675.2 1071.98 676.107 1075.24 677.92C1078.49 679.733 1081.02 682.293 1082.84 685.6C1084.65 688.853 1085.56 692.613 1085.56 696.88ZM1076.04 694C1075.98 690.64 1074.78 687.947 1072.44 685.92C1070.09 683.893 1067.18 682.88 1063.72 682.88C1060.57 682.88 1057.88 683.893 1055.64 685.92C1053.4 687.893 1052.06 690.587 1051.64 694H1076.04ZM1091.49 697.92C1091.49 693.387 1092.4 689.413 1094.21 686C1096.08 682.533 1098.64 679.867 1101.89 678C1105.14 676.133 1108.88 675.2 1113.09 675.2C1118.42 675.2 1122.82 676.48 1126.29 679.04C1129.81 681.547 1132.18 685.147 1133.41 689.84H1123.57C1122.77 687.653 1121.49 685.947 1119.73 684.72C1117.97 683.493 1115.76 682.88 1113.09 682.88C1109.36 682.88 1106.37 684.213 1104.13 686.88C1101.94 689.493 1100.85 693.173 1100.85 697.92C1100.85 702.667 1101.94 706.373 1104.13 709.04C1106.37 711.707 1109.36 713.04 1113.09 713.04C1118.37 713.04 1121.86 710.72 1123.57 706.08H1133.41C1132.13 710.56 1129.73 714.133 1126.21 716.8C1122.69 719.413 1118.32 720.72 1113.09 720.72C1108.88 720.72 1105.14 719.787 1101.89 717.92C1098.64 716 1096.08 713.333 1094.21 709.92C1092.4 706.453 1091.49 702.453 1091.49 697.92ZM1153.14 683.36V707.76C1153.14 709.413 1153.51 710.613 1154.26 711.36C1155.06 712.053 1156.39 712.4 1158.26 712.4H1163.86V720H1156.66C1152.55 720 1149.41 719.04 1147.22 717.12C1145.03 715.2 1143.94 712.08 1143.94 707.76V683.36H1138.74V675.92H1143.94V664.96H1153.14V675.92H1163.86V683.36H1153.14ZM1203.69 683.36V707.76C1203.69 709.413 1204.06 710.613 1204.81 711.36C1205.61 712.053 1206.94 712.4 1208.81 712.4H1214.41V720H1207.21C1203.1 720 1199.95 719.04 1197.77 717.12C1195.58 715.2 1194.49 712.08 1194.49 707.76V683.36H1189.29V675.92H1194.49V664.96H1203.69V675.92H1214.41V683.36H1203.69ZM1241.93 720.72C1237.77 720.72 1234.01 719.787 1230.65 717.92C1227.29 716 1224.65 713.333 1222.73 709.92C1220.81 706.453 1219.85 702.453 1219.85 697.92C1219.85 693.44 1220.84 689.467 1222.81 686C1224.79 682.533 1227.48 679.867 1230.89 678C1234.31 676.133 1238.12 675.2 1242.33 675.2C1246.55 675.2 1250.36 676.133 1253.77 678C1257.19 679.867 1259.88 682.533 1261.85 686C1263.83 689.467 1264.81 693.44 1264.81 697.92C1264.81 702.4 1263.8 706.373 1261.77 709.84C1259.75 713.307 1256.97 716 1253.45 717.92C1249.99 719.787 1246.15 720.72 1241.93 720.72ZM1241.93 712.8C1244.28 712.8 1246.47 712.24 1248.49 711.12C1250.57 710 1252.25 708.32 1253.53 706.08C1254.81 703.84 1255.45 701.12 1255.45 697.92C1255.45 694.72 1254.84 692.027 1253.61 689.84C1252.39 687.6 1250.76 685.92 1248.73 684.8C1246.71 683.68 1244.52 683.12 1242.17 683.12C1239.83 683.12 1237.64 683.68 1235.61 684.8C1233.64 685.92 1232.07 687.6 1230.89 689.84C1229.72 692.027 1229.13 694.72 1229.13 697.92C1229.13 702.667 1230.33 706.347 1232.73 708.96C1235.19 711.52 1238.25 712.8 1241.93 712.8ZM1305.25 683.36V707.76C1305.25 709.413 1305.62 710.613 1306.37 711.36C1307.17 712.053 1308.5 712.4 1310.37 712.4H1315.97V720H1308.77C1304.66 720 1301.52 719.04 1299.33 717.12C1297.14 715.2 1296.05 712.08 1296.05 707.76V683.36H1290.85V675.92H1296.05V664.96H1305.25V675.92H1315.97V683.36H1305.25ZM1347.18 675.2C1350.54 675.2 1353.52 675.92 1356.14 677.36C1358.8 678.8 1360.88 680.933 1362.38 683.76C1363.92 686.587 1364.7 690 1364.7 694V720H1355.66V695.36C1355.66 691.413 1354.67 688.4 1352.7 686.32C1350.72 684.187 1348.03 683.12 1344.62 683.12C1341.2 683.12 1338.48 684.187 1336.46 686.32C1334.48 688.4 1333.5 691.413 1333.5 695.36V720H1324.38V660.8H1333.5V681.04C1335.04 679.173 1336.99 677.733 1339.34 676.72C1341.74 675.707 1344.35 675.2 1347.18 675.2ZM1416.73 696.88C1416.73 698.533 1416.62 700.027 1416.41 701.36H1382.73C1382.99 704.88 1384.3 707.707 1386.65 709.84C1388.99 711.973 1391.87 713.04 1395.29 713.04C1400.19 713.04 1403.66 710.987 1405.69 706.88H1415.53C1414.19 710.933 1411.77 714.267 1408.25 716.88C1404.78 719.44 1400.46 720.72 1395.29 720.72C1391.07 720.72 1387.29 719.787 1383.93 717.92C1380.62 716 1378.01 713.333 1376.09 709.92C1374.22 706.453 1373.29 702.453 1373.29 697.92C1373.29 693.387 1374.19 689.413 1376.01 686C1377.87 682.533 1380.46 679.867 1383.77 678C1387.13 676.133 1390.97 675.2 1395.29 675.2C1399.45 675.2 1403.15 676.107 1406.41 677.92C1409.66 679.733 1412.19 682.293 1414.01 685.6C1415.82 688.853 1416.73 692.613 1416.73 696.88ZM1407.21 694C1407.15 690.64 1405.95 687.947 1403.61 685.92C1401.26 683.893 1398.35 682.88 1394.89 682.88C1391.74 682.88 1389.05 683.893 1386.81 685.92C1384.57 687.893 1383.23 690.587 1382.81 694H1407.21ZM1430.34 670.08C1428.69 670.08 1427.3 669.52 1426.18 668.4C1425.06 667.28 1424.5 665.893 1424.5 664.24C1424.5 662.587 1425.06 661.2 1426.18 660.08C1427.3 658.96 1428.69 658.4 1430.34 658.4C1431.94 658.4 1433.3 658.96 1434.42 660.08C1435.54 661.2 1436.1 662.587 1436.1 664.24C1436.1 665.893 1435.54 667.28 1434.42 668.4C1433.3 669.52 1431.94 670.08 1430.34 670.08ZM1434.82 675.92V720H1425.7V675.92H1434.82ZM1455.92 682.32C1457.25 680.08 1459.01 678.347 1461.2 677.12C1463.44 675.84 1466.08 675.2 1469.12 675.2V684.64H1466.8C1463.22 684.64 1460.5 685.547 1458.64 687.36C1456.82 689.173 1455.92 692.32 1455.92 696.8V720H1446.8V675.92H1455.92V682.32ZM254.12 802.48C255.667 800.347 257.773 798.613 260.44 797.28C263.16 795.893 266.173 795.2 269.48 795.2C273.373 795.2 276.893 796.133 280.04 798C283.187 799.867 285.667 802.533 287.48 806C289.293 809.413 290.2 813.333 290.2 817.76C290.2 822.187 289.293 826.16 287.48 829.68C285.667 833.147 283.16 835.867 279.96 837.84C276.813 839.76 273.32 840.72 269.48 840.72C266.067 840.72 263.027 840.053 260.36 838.72C257.747 837.387 255.667 835.68 254.12 833.6V840H245V780.8H254.12V802.48ZM280.92 817.76C280.92 814.72 280.28 812.107 279 809.92C277.773 807.68 276.12 806 274.04 804.88C272.013 803.707 269.827 803.12 267.48 803.12C265.187 803.12 263 803.707 260.92 804.88C258.893 806.053 257.24 807.76 255.96 810C254.733 812.24 254.12 814.88 254.12 817.92C254.12 820.96 254.733 823.627 255.96 825.92C257.24 828.16 258.893 829.867 260.92 831.04C263 832.213 265.187 832.8 267.48 832.8C269.827 832.8 272.013 832.213 274.04 831.04C276.12 829.813 277.773 828.053 279 825.76C280.28 823.467 280.92 820.8 280.92 817.76ZM296.179 817.76C296.179 813.333 297.085 809.413 298.899 806C300.765 802.587 303.272 799.947 306.419 798.08C309.619 796.16 313.139 795.2 316.979 795.2C320.445 795.2 323.459 795.893 326.019 797.28C328.632 798.613 330.712 800.293 332.259 802.32V795.92H341.459V840H332.259V833.44C330.712 835.52 328.605 837.253 325.939 838.64C323.272 840.027 320.232 840.72 316.819 840.72C313.032 840.72 309.565 839.76 306.419 837.84C303.272 835.867 300.765 833.147 298.899 829.68C297.085 826.16 296.179 822.187 296.179 817.76ZM332.259 817.92C332.259 814.88 331.619 812.24 330.339 810C329.112 807.76 327.485 806.053 325.459 804.88C323.432 803.707 321.245 803.12 318.899 803.12C316.552 803.12 314.365 803.707 312.339 804.88C310.312 806 308.659 807.68 307.379 809.92C306.152 812.107 305.539 814.72 305.539 817.76C305.539 820.8 306.152 823.467 307.379 825.76C308.659 828.053 310.312 829.813 312.339 831.04C314.419 832.213 316.605 832.8 318.899 832.8C321.245 832.8 323.432 832.213 325.459 831.04C327.485 829.867 329.112 828.16 330.339 825.92C331.619 823.627 332.259 820.96 332.259 817.92ZM375.678 795.2C379.144 795.2 382.238 795.92 384.958 797.36C387.731 798.8 389.891 800.933 391.438 803.76C392.984 806.587 393.758 810 393.758 814V840H384.718V815.36C384.718 811.413 383.731 808.4 381.758 806.32C379.784 804.187 377.091 803.12 373.678 803.12C370.264 803.12 367.544 804.187 365.518 806.32C363.544 808.4 362.558 811.413 362.558 815.36V840H353.438V795.92H362.558V800.96C364.051 799.147 365.944 797.733 368.238 796.72C370.584 795.707 373.064 795.2 375.678 795.2ZM422.831 818L443.151 840H430.831L414.511 821.04V840H405.391V780.8H414.511V815.2L430.511 795.92H443.151L422.831 818ZM467.429 817.76C467.429 813.333 468.335 809.413 470.149 806C472.015 802.587 474.522 799.947 477.669 798.08C480.869 796.16 484.389 795.2 488.229 795.2C491.695 795.2 494.709 795.893 497.269 797.28C499.882 798.613 501.962 800.293 503.509 802.32V795.92H512.709V840H503.509V833.44C501.962 835.52 499.855 837.253 497.189 838.64C494.522 840.027 491.482 840.72 488.069 840.72C484.282 840.72 480.815 839.76 477.669 837.84C474.522 835.867 472.015 833.147 470.149 829.68C468.335 826.16 467.429 822.187 467.429 817.76ZM503.509 817.92C503.509 814.88 502.869 812.24 501.589 810C500.362 807.76 498.735 806.053 496.709 804.88C494.682 803.707 492.495 803.12 490.149 803.12C487.802 803.12 485.615 803.707 483.589 804.88C481.562 806 479.909 807.68 478.629 809.92C477.402 812.107 476.789 814.72 476.789 817.76C476.789 820.8 477.402 823.467 478.629 825.76C479.909 828.053 481.562 829.813 483.589 831.04C485.669 832.213 487.855 832.8 490.149 832.8C492.495 832.8 494.682 832.213 496.709 831.04C498.735 829.867 500.362 828.16 501.589 825.92C502.869 823.627 503.509 820.96 503.509 817.92ZM521.648 817.92C521.648 813.387 522.554 809.413 524.368 806C526.234 802.533 528.794 799.867 532.048 798C535.301 796.133 539.034 795.2 543.248 795.2C548.581 795.2 552.981 796.48 556.448 799.04C559.968 801.547 562.341 805.147 563.568 809.84H553.728C552.928 807.653 551.648 805.947 549.888 804.72C548.128 803.493 545.914 802.88 543.248 802.88C539.514 802.88 536.528 804.213 534.288 806.88C532.101 809.493 531.008 813.173 531.008 817.92C531.008 822.667 532.101 826.373 534.288 829.04C536.528 831.707 539.514 833.04 543.248 833.04C548.528 833.04 552.021 830.72 553.728 826.08H563.568C562.288 830.56 559.888 834.133 556.368 836.8C552.848 839.413 548.474 840.72 543.248 840.72C539.034 840.72 535.301 839.787 532.048 837.92C528.794 836 526.234 833.333 524.368 829.92C522.554 826.453 521.648 822.453 521.648 817.92ZM569.616 817.92C569.616 813.387 570.523 809.413 572.336 806C574.203 802.533 576.763 799.867 580.016 798C583.27 796.133 587.003 795.2 591.216 795.2C596.55 795.2 600.95 796.48 604.416 799.04C607.936 801.547 610.31 805.147 611.536 809.84H601.696C600.896 807.653 599.616 805.947 597.856 804.72C596.096 803.493 593.883 802.88 591.216 802.88C587.483 802.88 584.496 804.213 582.256 806.88C580.07 809.493 578.976 813.173 578.976 817.92C578.976 822.667 580.07 826.373 582.256 829.04C584.496 831.707 587.483 833.04 591.216 833.04C596.496 833.04 599.99 830.72 601.696 826.08H611.536C610.256 830.56 607.856 834.133 604.336 836.8C600.816 839.413 596.443 840.72 591.216 840.72C587.003 840.72 583.27 839.787 580.016 837.92C576.763 836 574.203 833.333 572.336 829.92C570.523 826.453 569.616 822.453 569.616 817.92ZM639.745 840.72C635.585 840.72 631.825 839.787 628.465 837.92C625.105 836 622.465 833.333 620.545 829.92C618.625 826.453 617.665 822.453 617.665 817.92C617.665 813.44 618.652 809.467 620.625 806C622.598 802.533 625.292 799.867 628.705 798C632.118 796.133 635.932 795.2 640.145 795.2C644.358 795.2 648.172 796.133 651.585 798C654.998 799.867 657.692 802.533 659.665 806C661.638 809.467 662.625 813.44 662.625 817.92C662.625 822.4 661.612 826.373 659.585 829.84C657.558 833.307 654.785 836 651.265 837.92C647.798 839.787 643.958 840.72 639.745 840.72ZM639.745 832.8C642.092 832.8 644.278 832.24 646.305 831.12C648.385 830 650.065 828.32 651.345 826.08C652.625 823.84 653.265 821.12 653.265 817.92C653.265 814.72 652.652 812.027 651.425 809.84C650.198 807.6 648.572 805.92 646.545 804.8C644.518 803.68 642.332 803.12 639.985 803.12C637.638 803.12 635.452 803.68 633.425 804.8C631.452 805.92 629.878 807.6 628.705 809.84C627.532 812.027 626.945 814.72 626.945 817.92C626.945 822.667 628.145 826.347 630.545 828.96C632.998 831.52 636.065 832.8 639.745 832.8ZM711.561 795.92V840H702.441V834.8C701.001 836.613 699.107 838.053 696.761 839.12C694.467 840.133 692.014 840.64 689.401 840.64C685.934 840.64 682.814 839.92 680.041 838.48C677.321 837.04 675.161 834.907 673.561 832.08C672.014 829.253 671.241 825.84 671.241 821.84V795.92H680.281V820.48C680.281 824.427 681.267 827.467 683.241 829.6C685.214 831.68 687.907 832.72 691.321 832.72C694.734 832.72 697.427 831.68 699.401 829.6C701.427 827.467 702.441 824.427 702.441 820.48V795.92H711.561ZM745.834 795.2C749.3 795.2 752.394 795.92 755.114 797.36C757.887 798.8 760.047 800.933 761.594 803.76C763.14 806.587 763.914 810 763.914 814V840H754.874V815.36C754.874 811.413 753.887 808.4 751.914 806.32C749.94 804.187 747.247 803.12 743.834 803.12C740.42 803.12 737.7 804.187 735.674 806.32C733.7 808.4 732.714 811.413 732.714 815.36V840H723.594V795.92H732.714V800.96C734.207 799.147 736.1 797.733 738.394 796.72C740.74 795.707 743.22 795.2 745.834 795.2ZM786.187 803.36V827.76C786.187 829.413 786.56 830.613 787.307 831.36C788.107 832.053 789.44 832.4 791.307 832.4H796.907V840H789.707C785.6 840 782.454 839.04 780.267 837.12C778.08 835.2 776.987 832.08 776.987 827.76V803.36H771.787V795.92H776.987V784.96H786.187V795.92H796.907V803.36H786.187ZM808.993 840.56C807.339 840.56 805.953 840 804.833 838.88C803.713 837.76 803.153 836.373 803.153 834.72C803.153 833.067 803.713 831.68 804.833 830.56C805.953 829.44 807.339 828.88 808.993 828.88C810.593 828.88 811.953 829.44 813.073 830.56C814.193 831.68 814.753 833.067 814.753 834.72C814.753 836.373 814.193 837.76 813.073 838.88C811.953 840 810.593 840.56 808.993 840.56Z" fill="black"/>
<rect x="937" y="967" width="417" height="164" rx="30" fill="#009317" fill-opacity="0.3"/>
<path d="M1093.38 1028.3V1070H1086.54V1041.44L1073.82 1070H1069.08L1056.3 1041.44V1070H1049.46V1028.3H1056.84L1071.48 1061L1086.06 1028.3H1093.38ZM1116.71 1070.54C1113.59 1070.54 1110.77 1069.84 1108.25 1068.44C1105.73 1067 1103.75 1065 1102.31 1062.44C1100.87 1059.84 1100.15 1056.84 1100.15 1053.44C1100.15 1050.08 1100.89 1047.1 1102.37 1044.5C1103.85 1041.9 1105.87 1039.9 1108.43 1038.5C1110.99 1037.1 1113.85 1036.4 1117.01 1036.4C1120.17 1036.4 1123.03 1037.1 1125.59 1038.5C1128.15 1039.9 1130.17 1041.9 1131.65 1044.5C1133.13 1047.1 1133.87 1050.08 1133.87 1053.44C1133.87 1056.8 1133.11 1059.78 1131.59 1062.38C1130.07 1064.98 1127.99 1067 1125.35 1068.44C1122.75 1069.84 1119.87 1070.54 1116.71 1070.54ZM1116.71 1064.6C1118.47 1064.6 1120.11 1064.18 1121.63 1063.34C1123.19 1062.5 1124.45 1061.24 1125.41 1059.56C1126.37 1057.88 1126.85 1055.84 1126.85 1053.44C1126.85 1051.04 1126.39 1049.02 1125.47 1047.38C1124.55 1045.7 1123.33 1044.44 1121.81 1043.6C1120.29 1042.76 1118.65 1042.34 1116.89 1042.34C1115.13 1042.34 1113.49 1042.76 1111.97 1043.6C1110.49 1044.44 1109.31 1045.7 1108.43 1047.38C1107.55 1049.02 1107.11 1051.04 1107.11 1053.44C1107.11 1057 1108.01 1059.76 1109.81 1061.72C1111.65 1063.64 1113.95 1064.6 1116.71 1064.6ZM1157.31 1036.4C1159.91 1036.4 1162.23 1036.94 1164.27 1038.02C1166.35 1039.1 1167.97 1040.7 1169.13 1042.82C1170.29 1044.94 1170.87 1047.5 1170.87 1050.5V1070H1164.09V1051.52C1164.09 1048.56 1163.35 1046.3 1161.87 1044.74C1160.39 1043.14 1158.37 1042.34 1155.81 1042.34C1153.25 1042.34 1151.21 1043.14 1149.69 1044.74C1148.21 1046.3 1147.47 1048.56 1147.47 1051.52V1070H1140.63V1036.94H1147.47V1040.72C1148.59 1039.36 1150.01 1038.3 1151.73 1037.54C1153.49 1036.78 1155.35 1036.4 1157.31 1036.4ZM1209.89 1052.66C1209.89 1053.9 1209.81 1055.02 1209.65 1056.02H1184.39C1184.59 1058.66 1185.57 1060.78 1187.33 1062.38C1189.09 1063.98 1191.25 1064.78 1193.81 1064.78C1197.49 1064.78 1200.09 1063.24 1201.61 1060.16H1208.99C1207.99 1063.2 1206.17 1065.7 1203.53 1067.66C1200.93 1069.58 1197.69 1070.54 1193.81 1070.54C1190.65 1070.54 1187.81 1069.84 1185.29 1068.44C1182.81 1067 1180.85 1065 1179.41 1062.44C1178.01 1059.84 1177.31 1056.84 1177.31 1053.44C1177.31 1050.04 1177.99 1047.06 1179.35 1044.5C1180.75 1041.9 1182.69 1039.9 1185.17 1038.5C1187.69 1037.1 1190.57 1036.4 1193.81 1036.4C1196.93 1036.4 1199.71 1037.08 1202.15 1038.44C1204.59 1039.8 1206.49 1041.72 1207.85 1044.2C1209.21 1046.64 1209.89 1049.46 1209.89 1052.66ZM1202.75 1050.5C1202.71 1047.98 1201.81 1045.96 1200.05 1044.44C1198.29 1042.92 1196.11 1042.16 1193.51 1042.16C1191.15 1042.16 1189.13 1042.92 1187.45 1044.44C1185.77 1045.92 1184.77 1047.94 1184.45 1050.5H1202.75ZM1246.38 1036.94L1226.1 1085.54H1219.02L1225.74 1069.46L1212.72 1036.94H1220.34L1229.64 1062.14L1239.3 1036.94H1246.38Z" fill="white"/>
<rect x="239" y="967" width="628" height="164" rx="30" fill="#009317" fill-opacity="0.3"/>
<path d="M413.54 1033.82V1046.06H427.94V1051.64H413.54V1064.42H429.74V1070H406.7V1028.24H429.74V1033.82H413.54ZM435.885 1053.32C435.885 1050 436.565 1047.06 437.925 1044.5C439.325 1041.94 441.205 1039.96 443.565 1038.56C445.965 1037.12 448.625 1036.4 451.545 1036.4C453.705 1036.4 455.825 1036.88 457.905 1037.84C460.025 1038.76 461.705 1040 462.945 1041.56V1025.6H469.845V1070H462.945V1065.02C461.825 1066.62 460.265 1067.94 458.265 1068.98C456.305 1070.02 454.045 1070.54 451.485 1070.54C448.605 1070.54 445.965 1069.82 443.565 1068.38C441.205 1066.9 439.325 1064.86 437.925 1062.26C436.565 1059.62 435.885 1056.64 435.885 1053.32ZM462.945 1053.44C462.945 1051.16 462.465 1049.18 461.505 1047.5C460.585 1045.82 459.365 1044.54 457.845 1043.66C456.325 1042.78 454.685 1042.34 452.925 1042.34C451.165 1042.34 449.525 1042.78 448.005 1043.66C446.485 1044.5 445.245 1045.76 444.285 1047.44C443.365 1049.08 442.905 1051.04 442.905 1053.32C442.905 1055.6 443.365 1057.6 444.285 1059.32C445.245 1061.04 446.485 1062.36 448.005 1063.28C449.565 1064.16 451.205 1064.6 452.925 1064.6C454.685 1064.6 456.325 1064.16 457.845 1063.28C459.365 1062.4 460.585 1061.12 461.505 1059.44C462.465 1057.72 462.945 1055.72 462.945 1053.44ZM508.769 1036.94V1070H501.929V1066.1C500.849 1067.46 499.429 1068.54 497.669 1069.34C495.949 1070.1 494.109 1070.48 492.149 1070.48C489.549 1070.48 487.209 1069.94 485.129 1068.86C483.089 1067.78 481.469 1066.18 480.269 1064.06C479.109 1061.94 478.529 1059.38 478.529 1056.38V1036.94H485.309V1055.36C485.309 1058.32 486.049 1060.6 487.529 1062.2C489.009 1063.76 491.029 1064.54 493.589 1064.54C496.149 1064.54 498.169 1063.76 499.649 1062.2C501.169 1060.6 501.929 1058.32 501.929 1055.36V1036.94H508.769ZM515.514 1053.44C515.514 1050.04 516.194 1047.06 517.554 1044.5C518.954 1041.9 520.874 1039.9 523.314 1038.5C525.754 1037.1 528.554 1036.4 531.714 1036.4C535.714 1036.4 539.014 1037.36 541.614 1039.28C544.254 1041.16 546.034 1043.86 546.954 1047.38H539.574C538.974 1045.74 538.014 1044.46 536.694 1043.54C535.374 1042.62 533.714 1042.16 531.714 1042.16C528.914 1042.16 526.674 1043.16 524.994 1045.16C523.354 1047.12 522.534 1049.88 522.534 1053.44C522.534 1057 523.354 1059.78 524.994 1061.78C526.674 1063.78 528.914 1064.78 531.714 1064.78C535.674 1064.78 538.294 1063.04 539.574 1059.56H546.954C545.994 1062.92 544.194 1065.6 541.554 1067.6C538.914 1069.56 535.634 1070.54 531.714 1070.54C528.554 1070.54 525.754 1069.84 523.314 1068.44C520.874 1067 518.954 1065 517.554 1062.44C516.194 1059.84 515.514 1056.84 515.514 1053.44ZM551.491 1053.32C551.491 1050 552.171 1047.06 553.531 1044.5C554.931 1041.94 556.811 1039.96 559.171 1038.56C561.571 1037.12 564.211 1036.4 567.091 1036.4C569.691 1036.4 571.951 1036.92 573.871 1037.96C575.831 1038.96 577.391 1040.22 578.551 1041.74V1036.94H585.451V1070H578.551V1065.08C577.391 1066.64 575.811 1067.94 573.811 1068.98C571.811 1070.02 569.531 1070.54 566.971 1070.54C564.131 1070.54 561.531 1069.82 559.171 1068.38C556.811 1066.9 554.931 1064.86 553.531 1062.26C552.171 1059.62 551.491 1056.64 551.491 1053.32ZM578.551 1053.44C578.551 1051.16 578.071 1049.18 577.111 1047.5C576.191 1045.82 574.971 1044.54 573.451 1043.66C571.931 1042.78 570.291 1042.34 568.531 1042.34C566.771 1042.34 565.131 1042.78 563.611 1043.66C562.091 1044.5 560.851 1045.76 559.891 1047.44C558.971 1049.08 558.511 1051.04 558.511 1053.32C558.511 1055.6 558.971 1057.6 559.891 1059.32C560.851 1061.04 562.091 1062.36 563.611 1063.28C565.171 1064.16 566.811 1064.6 568.531 1064.6C570.291 1064.6 571.931 1064.16 573.451 1063.28C574.971 1062.4 576.191 1061.12 577.111 1059.44C578.071 1057.72 578.551 1055.72 578.551 1053.44ZM602.415 1042.52V1060.82C602.415 1062.06 602.695 1062.96 603.255 1063.52C603.855 1064.04 604.855 1064.3 606.255 1064.3H610.455V1070H605.055C601.975 1070 599.615 1069.28 597.975 1067.84C596.335 1066.4 595.515 1064.06 595.515 1060.82V1042.52H591.615V1036.94H595.515V1028.72H602.415V1036.94H610.455V1042.52H602.415ZM620.239 1032.56C618.999 1032.56 617.959 1032.14 617.119 1031.3C616.279 1030.46 615.859 1029.42 615.859 1028.18C615.859 1026.94 616.279 1025.9 617.119 1025.06C617.959 1024.22 618.999 1023.8 620.239 1023.8C621.439 1023.8 622.459 1024.22 623.299 1025.06C624.139 1025.9 624.559 1026.94 624.559 1028.18C624.559 1029.42 624.139 1030.46 623.299 1031.3C622.459 1032.14 621.439 1032.56 620.239 1032.56ZM623.599 1036.94V1070H616.759V1036.94H623.599ZM646.919 1070.54C643.799 1070.54 640.979 1069.84 638.459 1068.44C635.939 1067 633.959 1065 632.519 1062.44C631.079 1059.84 630.359 1056.84 630.359 1053.44C630.359 1050.08 631.099 1047.1 632.579 1044.5C634.059 1041.9 636.079 1039.9 638.639 1038.5C641.199 1037.1 644.059 1036.4 647.219 1036.4C650.379 1036.4 653.239 1037.1 655.799 1038.5C658.359 1039.9 660.379 1041.9 661.859 1044.5C663.339 1047.1 664.079 1050.08 664.079 1053.44C664.079 1056.8 663.319 1059.78 661.799 1062.38C660.279 1064.98 658.199 1067 655.559 1068.44C652.959 1069.84 650.079 1070.54 646.919 1070.54ZM646.919 1064.6C648.679 1064.6 650.319 1064.18 651.839 1063.34C653.399 1062.5 654.659 1061.24 655.619 1059.56C656.579 1057.88 657.059 1055.84 657.059 1053.44C657.059 1051.04 656.599 1049.02 655.679 1047.38C654.759 1045.7 653.539 1044.44 652.019 1043.6C650.499 1042.76 648.859 1042.34 647.099 1042.34C645.339 1042.34 643.699 1042.76 642.179 1043.6C640.699 1044.44 639.519 1045.7 638.639 1047.38C637.759 1049.02 637.319 1051.04 637.319 1053.44C637.319 1057 638.219 1059.76 640.019 1061.72C641.859 1063.64 644.159 1064.6 646.919 1064.6ZM687.521 1036.4C690.121 1036.4 692.441 1036.94 694.481 1038.02C696.561 1039.1 698.181 1040.7 699.341 1042.82C700.501 1044.94 701.081 1047.5 701.081 1050.5V1070H694.301V1051.52C694.301 1048.56 693.561 1046.3 692.081 1044.74C690.601 1043.14 688.581 1042.34 686.021 1042.34C683.461 1042.34 681.421 1043.14 679.901 1044.74C678.421 1046.3 677.681 1048.56 677.681 1051.52V1070H670.841V1036.94H677.681V1040.72C678.801 1039.36 680.221 1038.3 681.941 1037.54C683.701 1036.78 685.561 1036.4 687.521 1036.4Z" fill="white"/>
<rect x="1424" y="967" width="417" height="164" rx="30" fill="#009317" fill-opacity="0.3"/>
<path d="M1531.77 1070.42C1528.97 1070.42 1526.45 1069.94 1524.21 1068.98C1521.97 1067.98 1520.21 1066.58 1518.93 1064.78C1517.65 1062.98 1517.01 1060.88 1517.01 1058.48H1524.33C1524.49 1060.28 1525.19 1061.76 1526.43 1062.92C1527.71 1064.08 1529.49 1064.66 1531.77 1064.66C1534.13 1064.66 1535.97 1064.1 1537.29 1062.98C1538.61 1061.82 1539.27 1060.34 1539.27 1058.54C1539.27 1057.14 1538.85 1056 1538.01 1055.12C1537.21 1054.24 1536.19 1053.56 1534.95 1053.08C1533.75 1052.6 1532.07 1052.08 1529.91 1051.52C1527.19 1050.8 1524.97 1050.08 1523.25 1049.36C1521.57 1048.6 1520.13 1047.44 1518.93 1045.88C1517.73 1044.32 1517.13 1042.24 1517.13 1039.64C1517.13 1037.24 1517.73 1035.14 1518.93 1033.34C1520.13 1031.54 1521.81 1030.16 1523.97 1029.2C1526.13 1028.24 1528.63 1027.76 1531.47 1027.76C1535.51 1027.76 1538.81 1028.78 1541.37 1030.82C1543.97 1032.82 1545.41 1035.58 1545.69 1039.1H1538.13C1538.01 1037.58 1537.29 1036.28 1535.97 1035.2C1534.65 1034.12 1532.91 1033.58 1530.75 1033.58C1528.79 1033.58 1527.19 1034.08 1525.95 1035.08C1524.71 1036.08 1524.09 1037.52 1524.09 1039.4C1524.09 1040.68 1524.47 1041.74 1525.23 1042.58C1526.03 1043.38 1527.03 1044.02 1528.23 1044.5C1529.43 1044.98 1531.07 1045.5 1533.15 1046.06C1535.91 1046.82 1538.15 1047.58 1539.87 1048.34C1541.63 1049.1 1543.11 1050.28 1544.31 1051.88C1545.55 1053.44 1546.17 1055.54 1546.17 1058.18C1546.17 1060.3 1545.59 1062.3 1544.43 1064.18C1543.31 1066.06 1541.65 1067.58 1539.45 1068.74C1537.29 1069.86 1534.73 1070.42 1531.77 1070.42ZM1551.96 1053.32C1551.96 1050 1552.64 1047.06 1554 1044.5C1555.4 1041.94 1557.28 1039.96 1559.64 1038.56C1562.04 1037.12 1564.68 1036.4 1567.56 1036.4C1570.16 1036.4 1572.42 1036.92 1574.34 1037.96C1576.3 1038.96 1577.86 1040.22 1579.02 1041.74V1036.94H1585.92V1070H1579.02V1065.08C1577.86 1066.64 1576.28 1067.94 1574.28 1068.98C1572.28 1070.02 1570 1070.54 1567.44 1070.54C1564.6 1070.54 1562 1069.82 1559.64 1068.38C1557.28 1066.9 1555.4 1064.86 1554 1062.26C1552.64 1059.62 1551.96 1056.64 1551.96 1053.32ZM1579.02 1053.44C1579.02 1051.16 1578.54 1049.18 1577.58 1047.5C1576.66 1045.82 1575.44 1044.54 1573.92 1043.66C1572.4 1042.78 1570.76 1042.34 1569 1042.34C1567.24 1042.34 1565.6 1042.78 1564.08 1043.66C1562.56 1044.5 1561.32 1045.76 1560.36 1047.44C1559.44 1049.08 1558.98 1051.04 1558.98 1053.32C1558.98 1055.6 1559.44 1057.6 1560.36 1059.32C1561.32 1061.04 1562.56 1062.36 1564.08 1063.28C1565.64 1064.16 1567.28 1064.6 1569 1064.6C1570.76 1064.6 1572.4 1064.16 1573.92 1063.28C1575.44 1062.4 1576.66 1061.12 1577.58 1059.44C1578.54 1057.72 1579.02 1055.72 1579.02 1053.44ZM1607.68 1063.88L1617.04 1036.94H1624.3L1611.7 1070H1603.54L1591 1036.94H1598.32L1607.68 1063.88ZM1632.95 1032.56C1631.71 1032.56 1630.67 1032.14 1629.83 1031.3C1628.99 1030.46 1628.57 1029.42 1628.57 1028.18C1628.57 1026.94 1628.99 1025.9 1629.83 1025.06C1630.67 1024.22 1631.71 1023.8 1632.95 1023.8C1634.15 1023.8 1635.17 1024.22 1636.01 1025.06C1636.85 1025.9 1637.27 1026.94 1637.27 1028.18C1637.27 1029.42 1636.85 1030.46 1636.01 1031.3C1635.17 1032.14 1634.15 1032.56 1632.95 1032.56ZM1636.31 1036.94V1070H1629.47V1036.94H1636.31ZM1661.97 1036.4C1664.57 1036.4 1666.89 1036.94 1668.93 1038.02C1671.01 1039.1 1672.63 1040.7 1673.79 1042.82C1674.95 1044.94 1675.53 1047.5 1675.53 1050.5V1070H1668.75V1051.52C1668.75 1048.56 1668.01 1046.3 1666.53 1044.74C1665.05 1043.14 1663.03 1042.34 1660.47 1042.34C1657.91 1042.34 1655.87 1043.14 1654.35 1044.74C1652.87 1046.3 1652.13 1048.56 1652.13 1051.52V1070H1645.29V1036.94H1652.13V1040.72C1653.25 1039.36 1654.67 1038.3 1656.39 1037.54C1658.15 1036.78 1660.01 1036.4 1661.97 1036.4ZM1697.58 1036.4C1700.14 1036.4 1702.4 1036.92 1704.36 1037.96C1706.36 1038.96 1707.92 1040.22 1709.04 1041.74V1036.94H1715.94V1070.54C1715.94 1073.58 1715.3 1076.28 1714.02 1078.64C1712.74 1081.04 1710.88 1082.92 1708.44 1084.28C1706.04 1085.64 1703.16 1086.32 1699.8 1086.32C1695.32 1086.32 1691.6 1085.26 1688.64 1083.14C1685.68 1081.06 1684 1078.22 1683.6 1074.62H1690.38C1690.9 1076.34 1692 1077.72 1693.68 1078.76C1695.4 1079.84 1697.44 1080.38 1699.8 1080.38C1702.56 1080.38 1704.78 1079.54 1706.46 1077.86C1708.18 1076.18 1709.04 1073.74 1709.04 1070.54V1065.02C1707.88 1066.58 1706.3 1067.9 1704.3 1068.98C1702.34 1070.02 1700.1 1070.54 1697.58 1070.54C1694.7 1070.54 1692.06 1069.82 1689.66 1068.38C1687.3 1066.9 1685.42 1064.86 1684.02 1062.26C1682.66 1059.62 1681.98 1056.64 1681.98 1053.32C1681.98 1050 1682.66 1047.06 1684.02 1044.5C1685.42 1041.94 1687.3 1039.96 1689.66 1038.56C1692.06 1037.12 1694.7 1036.4 1697.58 1036.4ZM1709.04 1053.44C1709.04 1051.16 1708.56 1049.18 1707.6 1047.5C1706.68 1045.82 1705.46 1044.54 1703.94 1043.66C1702.42 1042.78 1700.78 1042.34 1699.02 1042.34C1697.26 1042.34 1695.62 1042.78 1694.1 1043.66C1692.58 1044.5 1691.34 1045.76 1690.38 1047.44C1689.46 1049.08 1689 1051.04 1689 1053.32C1689 1055.6 1689.46 1057.6 1690.38 1059.32C1691.34 1061.04 1692.58 1062.36 1694.1 1063.28C1695.66 1064.16 1697.3 1064.6 1699.02 1064.6C1700.78 1064.6 1702.42 1064.16 1703.94 1063.28C1705.46 1062.4 1706.68 1061.12 1707.6 1059.44C1708.56 1057.72 1709.04 1055.72 1709.04 1053.44ZM1736.92 1070.54C1734.32 1070.54 1731.98 1070.08 1729.9 1069.16C1727.86 1068.2 1726.24 1066.92 1725.04 1065.32C1723.84 1063.68 1723.2 1061.86 1723.12 1059.86H1730.2C1730.32 1061.26 1730.98 1062.44 1732.18 1063.4C1733.42 1064.32 1734.96 1064.78 1736.8 1064.78C1738.72 1064.78 1740.2 1064.42 1741.24 1063.7C1742.32 1062.94 1742.86 1061.98 1742.86 1060.82C1742.86 1059.58 1742.26 1058.66 1741.06 1058.06C1739.9 1057.46 1738.04 1056.8 1735.48 1056.08C1733 1055.4 1730.98 1054.74 1729.42 1054.1C1727.86 1053.46 1726.5 1052.48 1725.34 1051.16C1724.22 1049.84 1723.66 1048.1 1723.66 1045.94C1723.66 1044.18 1724.18 1042.58 1725.22 1041.14C1726.26 1039.66 1727.74 1038.5 1729.66 1037.66C1731.62 1036.82 1733.86 1036.4 1736.38 1036.4C1740.14 1036.4 1743.16 1037.36 1745.44 1039.28C1747.76 1041.16 1749 1043.74 1749.16 1047.02H1742.32C1742.2 1045.54 1741.6 1044.36 1740.52 1043.48C1739.44 1042.6 1737.98 1042.16 1736.14 1042.16C1734.34 1042.16 1732.96 1042.5 1732 1043.18C1731.04 1043.86 1730.56 1044.76 1730.56 1045.88C1730.56 1046.76 1730.88 1047.5 1731.52 1048.1C1732.16 1048.7 1732.94 1049.18 1733.86 1049.54C1734.78 1049.86 1736.14 1050.28 1737.94 1050.8C1740.34 1051.44 1742.3 1052.1 1743.82 1052.78C1745.38 1053.42 1746.72 1054.38 1747.84 1055.66C1748.96 1056.94 1749.54 1058.64 1749.58 1060.76C1749.58 1062.64 1749.06 1064.32 1748.02 1065.8C1746.98 1067.28 1745.5 1068.44 1743.58 1069.28C1741.7 1070.12 1739.48 1070.54 1736.92 1070.54Z" fill="white"/>
</svg>
