<svg width="2001" height="1320" viewBox="0 0 2001 1320" fill="none" xmlns="http://www.w3.org/2000/svg">
<rect x="3" y="3" width="1995" height="1314" rx="32" fill="white" stroke="#009317" stroke-width="6"/>
<path d="M242.96 235.76C242.96 260.96 260.48 278.6 285.32 278.6C305.36 278.6 320.48 267.44 325.28 249.2H302.72C299.24 256.4 292.88 260 285.08 260C272.48 260 263.84 250.64 263.84 235.76C263.84 220.88 272.48 211.52 285.08 211.52C292.88 211.52 299.24 215.12 302.72 222.32H325.28C320.48 204.08 305.36 192.8 285.32 192.8C260.48 192.8 242.96 210.56 242.96 235.76ZM403.366 244.52C403.366 223.28 388.246 210.08 368.566 210.08C349.006 210.08 333.766 223.28 333.766 244.52C333.766 265.76 348.646 278.96 368.326 278.96C388.006 278.96 403.366 265.76 403.366 244.52ZM354.646 244.52C354.646 233.12 361.126 227.84 368.566 227.84C375.766 227.84 382.486 233.12 382.486 244.52C382.486 255.8 375.646 261.2 368.326 261.2C360.886 261.2 354.646 255.8 354.646 244.52ZM460.453 278H480.853V238.88C480.853 220.88 470.533 210.32 455.053 210.32C446.053 210.32 438.853 214.28 434.773 219.92V211.04H414.253V278H434.773V241.64C434.773 232.52 439.813 227.48 447.613 227.48C455.413 227.48 460.453 232.52 460.453 241.64V278ZM491.032 244.52C491.032 265.76 504.952 278.96 524.632 278.96C541.432 278.96 553.312 269.24 556.792 253.76H534.952C533.152 258.68 529.912 261.44 524.272 261.44C516.952 261.44 511.912 255.68 511.912 244.52C511.912 233.36 516.952 227.6 524.272 227.6C529.912 227.6 533.272 230.6 534.952 235.28H556.792C553.312 219.32 541.432 210.08 524.632 210.08C504.952 210.08 491.032 223.4 491.032 244.52ZM597.288 226.52C604.128 226.52 609.888 230.72 609.888 238.04H584.208C585.408 230.6 590.568 226.52 597.288 226.52ZM629.328 255.8H607.488C605.808 259.4 602.568 262.28 596.808 262.28C590.208 262.28 584.808 258.2 584.088 249.44H630.528C630.768 247.4 630.888 245.36 630.888 243.44C630.888 223.04 617.088 210.08 597.528 210.08C577.608 210.08 563.688 223.28 563.688 244.52C563.688 265.76 577.848 278.96 597.528 278.96C614.208 278.96 626.088 268.88 629.328 255.8ZM662.233 220.52V211.04H641.713V309.92H662.233V268.64C665.953 274.28 673.033 278.96 682.873 278.96C699.313 278.96 712.393 265.52 712.393 244.4C712.393 223.28 699.313 210.08 682.873 210.08C673.033 210.08 665.953 214.64 662.233 220.52ZM691.513 244.4C691.513 255.08 684.553 261.08 676.753 261.08C669.073 261.08 662.113 255.2 662.113 244.52C662.113 233.84 669.073 227.96 676.753 227.96C684.553 227.96 691.513 233.72 691.513 244.4ZM726.399 254.72C726.399 272.12 736.119 278 750.039 278H760.479V260.6H753.159C748.599 260.6 746.919 258.92 746.919 254.96V228.08H760.359V211.04H746.919V194.72H726.399V211.04H718.239V228.08H726.399V254.72ZM853.138 241.16H833.218L836.578 225.44H856.498L853.138 241.16ZM845.218 278H864.418L868.378 259.64H886.738V241.16H872.338L875.698 225.44H894.418V206.96H879.538L883.378 189.2H864.178L860.338 206.96H840.418L844.258 189.2H825.058L821.218 206.96H799.978V225.44H817.378L814.018 241.16H792.298V259.64H810.058L806.098 278H825.298L829.258 259.64H849.178L845.218 278ZM903.094 276.8H963.334V260.12H930.934C944.854 249.44 962.014 234.08 962.014 214.88C962.014 200.12 953.134 188.48 933.214 188.48C917.254 188.48 903.454 197.6 902.854 218.84H922.654C922.654 210.56 926.254 205.76 932.374 205.76C938.614 205.76 941.494 209.84 941.494 216.2C941.494 230.96 921.694 246.2 903.094 261.56V276.8Z" fill="black"/>
<path d="M241.96 512.08C241.96 506.64 243.213 501.76 245.72 497.44C248.28 493.12 251.72 489.76 256.04 487.36C260.413 484.907 265.187 483.68 270.36 483.68C276.28 483.68 281.533 485.147 286.12 488.08C290.76 490.96 294.12 495.067 296.2 500.4H285.24C283.8 497.467 281.8 495.28 279.24 493.84C276.68 492.4 273.72 491.68 270.36 491.68C266.68 491.68 263.4 492.507 260.52 494.16C257.64 495.813 255.373 498.187 253.72 501.28C252.12 504.373 251.32 507.973 251.32 512.08C251.32 516.187 252.12 519.787 253.72 522.88C255.373 525.973 257.64 528.373 260.52 530.08C263.4 531.733 266.68 532.56 270.36 532.56C273.72 532.56 276.68 531.84 279.24 530.4C281.8 528.96 283.8 526.773 285.24 523.84H296.2C294.12 529.173 290.76 533.28 286.12 536.16C281.533 539.04 276.28 540.48 270.36 540.48C265.133 540.48 260.36 539.28 256.04 536.88C251.72 534.427 248.28 531.04 245.72 526.72C243.213 522.4 241.96 517.52 241.96 512.08ZM315.995 502.32C317.328 500.08 319.088 498.347 321.275 497.12C323.515 495.84 326.155 495.2 329.195 495.2V504.64H326.875C323.302 504.64 320.582 505.547 318.715 507.36C316.902 509.173 315.995 512.32 315.995 516.8V540H306.875V495.92H315.995V502.32ZM377.978 516.88C377.978 518.533 377.871 520.027 377.658 521.36H343.978C344.245 524.88 345.551 527.707 347.898 529.84C350.245 531.973 353.125 533.04 356.538 533.04C361.445 533.04 364.911 530.987 366.938 526.88H376.778C375.445 530.933 373.018 534.267 369.498 536.88C366.031 539.44 361.711 540.72 356.538 540.72C352.325 540.72 348.538 539.787 345.178 537.92C341.871 536 339.258 533.333 337.338 529.92C335.471 526.453 334.538 522.453 334.538 517.92C334.538 513.387 335.445 509.413 337.258 506C339.125 502.533 341.711 499.867 345.018 498C348.378 496.133 352.218 495.2 356.538 495.2C360.698 495.2 364.405 496.107 367.658 497.92C370.911 499.733 373.445 502.293 375.258 505.6C377.071 508.853 377.978 512.613 377.978 516.88ZM368.458 514C368.405 510.64 367.205 507.947 364.858 505.92C362.511 503.893 359.605 502.88 356.138 502.88C352.991 502.88 350.298 503.893 348.058 505.92C345.818 507.893 344.485 510.587 344.058 514H368.458ZM383.913 517.76C383.913 513.333 384.82 509.413 386.633 506C388.5 502.587 391.006 499.947 394.153 498.08C397.353 496.16 400.873 495.2 404.713 495.2C408.18 495.2 411.193 495.893 413.753 497.28C416.366 498.613 418.446 500.293 419.993 502.32V495.92H429.193V540H419.993V533.44C418.446 535.52 416.34 537.253 413.673 538.64C411.006 540.027 407.966 540.72 404.553 540.72C400.766 540.72 397.3 539.76 394.153 537.84C391.006 535.867 388.5 533.147 386.633 529.68C384.82 526.16 383.913 522.187 383.913 517.76ZM419.993 517.92C419.993 514.88 419.353 512.24 418.073 510C416.846 507.76 415.22 506.053 413.193 504.88C411.166 503.707 408.98 503.12 406.633 503.12C404.286 503.12 402.1 503.707 400.073 504.88C398.046 506 396.393 507.68 395.113 509.92C393.886 512.107 393.273 514.72 393.273 517.76C393.273 520.8 393.886 523.467 395.113 525.76C396.393 528.053 398.046 529.813 400.073 531.04C402.153 532.213 404.34 532.8 406.633 532.8C408.98 532.8 411.166 532.213 413.193 531.04C415.22 529.867 416.846 528.16 418.073 525.92C419.353 523.627 419.993 520.96 419.993 517.92ZM451.812 503.36V527.76C451.812 529.413 452.185 530.613 452.932 531.36C453.732 532.053 455.065 532.4 456.932 532.4H462.532V540H455.332C451.225 540 448.079 539.04 445.892 537.12C443.705 535.2 442.612 532.08 442.612 527.76V503.36H437.412V495.92H442.612V484.96H451.812V495.92H462.532V503.36H451.812ZM511.338 516.88C511.338 518.533 511.231 520.027 511.018 521.36H477.338C477.604 524.88 478.911 527.707 481.258 529.84C483.604 531.973 486.484 533.04 489.898 533.04C494.804 533.04 498.271 530.987 500.298 526.88H510.137C508.804 530.933 506.378 534.267 502.858 536.88C499.391 539.44 495.071 540.72 489.898 540.72C485.684 540.72 481.898 539.787 478.538 537.92C475.231 536 472.618 533.333 470.698 529.92C468.831 526.453 467.898 522.453 467.898 517.92C467.898 513.387 468.804 509.413 470.618 506C472.484 502.533 475.071 499.867 478.378 498C481.738 496.133 485.578 495.2 489.898 495.2C494.058 495.2 497.764 496.107 501.018 497.92C504.271 499.733 506.804 502.293 508.618 505.6C510.431 508.853 511.338 512.613 511.338 516.88ZM501.818 514C501.764 510.64 500.564 507.947 498.218 505.92C495.871 503.893 492.964 502.88 489.498 502.88C486.351 502.88 483.658 503.893 481.418 505.92C479.178 507.893 477.844 510.587 477.418 514H501.818ZM538.054 517.76C538.054 513.333 538.96 509.413 540.774 506C542.64 502.587 545.147 499.947 548.294 498.08C551.494 496.16 555.014 495.2 558.854 495.2C562.32 495.2 565.334 495.893 567.894 497.28C570.507 498.613 572.587 500.293 574.134 502.32V495.92H583.334V540H574.134V533.44C572.587 535.52 570.48 537.253 567.814 538.64C565.147 540.027 562.107 540.72 558.694 540.72C554.907 540.72 551.44 539.76 548.294 537.84C545.147 535.867 542.64 533.147 540.774 529.68C538.96 526.16 538.054 522.187 538.054 517.76ZM574.134 517.92C574.134 514.88 573.494 512.24 572.214 510C570.987 507.76 569.36 506.053 567.334 504.88C565.307 503.707 563.12 503.12 560.774 503.12C558.427 503.12 556.24 503.707 554.214 504.88C552.187 506 550.534 507.68 549.254 509.92C548.027 512.107 547.414 514.72 547.414 517.76C547.414 520.8 548.027 523.467 549.254 525.76C550.534 528.053 552.187 529.813 554.214 531.04C556.294 532.213 558.48 532.8 560.774 532.8C563.12 532.8 565.307 532.213 567.334 531.04C569.36 529.867 570.987 528.16 572.214 525.92C573.494 523.627 574.134 520.96 574.134 517.92ZM617.553 495.2C621.019 495.2 624.113 495.92 626.833 497.36C629.606 498.8 631.766 500.933 633.313 503.76C634.859 506.587 635.633 510 635.633 514V540H626.593V515.36C626.593 511.413 625.606 508.4 623.633 506.32C621.659 504.187 618.966 503.12 615.553 503.12C612.139 503.12 609.419 504.187 607.393 506.32C605.419 508.4 604.433 511.413 604.433 515.36V540H595.313V495.92H604.433V500.96C605.926 499.147 607.819 497.733 610.113 496.72C612.459 495.707 614.939 495.2 617.553 495.2ZM708.447 516.88C708.447 518.533 708.34 520.027 708.127 521.36H674.447C674.714 524.88 676.02 527.707 678.367 529.84C680.714 531.973 683.594 533.04 687.007 533.04C691.914 533.04 695.38 530.987 697.407 526.88H707.247C705.914 530.933 703.487 534.267 699.967 536.88C696.5 539.44 692.18 540.72 687.007 540.72C682.794 540.72 679.007 539.787 675.647 537.92C672.34 536 669.727 533.333 667.807 529.92C665.94 526.453 665.007 522.453 665.007 517.92C665.007 513.387 665.914 509.413 667.727 506C669.594 502.533 672.18 499.867 675.487 498C678.847 496.133 682.687 495.2 687.007 495.2C691.167 495.2 694.874 496.107 698.127 497.92C701.38 499.733 703.914 502.293 705.727 505.6C707.54 508.853 708.447 512.613 708.447 516.88ZM698.927 514C698.874 510.64 697.674 507.947 695.327 505.92C692.98 503.893 690.074 502.88 686.607 502.88C683.46 502.88 680.767 503.893 678.527 505.92C676.287 507.893 674.954 510.587 674.527 514H698.927ZM714.382 517.76C714.382 513.333 715.289 509.413 717.102 506C718.969 502.587 721.475 499.947 724.622 498.08C727.822 496.16 731.369 495.2 735.262 495.2C738.142 495.2 740.969 495.84 743.742 497.12C746.569 498.347 748.809 500 750.462 502.08V480.8H759.662V540H750.462V533.36C748.969 535.493 746.889 537.253 744.222 538.64C741.609 540.027 738.595 540.72 735.182 540.72C731.342 540.72 727.822 539.76 724.622 537.84C721.475 535.867 718.969 533.147 717.102 529.68C715.289 526.16 714.382 522.187 714.382 517.76ZM750.462 517.92C750.462 514.88 749.822 512.24 748.542 510C747.315 507.76 745.689 506.053 743.662 504.88C741.635 503.707 739.449 503.12 737.102 503.12C734.755 503.12 732.569 503.707 730.542 504.88C728.515 506 726.862 507.68 725.582 509.92C724.355 512.107 723.742 514.72 723.742 517.76C723.742 520.8 724.355 523.467 725.582 525.76C726.862 528.053 728.515 529.813 730.542 531.04C732.622 532.213 734.809 532.8 737.102 532.8C739.449 532.8 741.635 532.213 743.662 531.04C745.689 529.867 747.315 528.16 748.542 525.92C749.822 523.627 750.462 520.96 750.462 517.92ZM811.561 495.92V540H802.441V534.8C801.001 536.613 799.107 538.053 796.761 539.12C794.467 540.133 792.014 540.64 789.401 540.64C785.934 540.64 782.814 539.92 780.041 538.48C777.321 537.04 775.161 534.907 773.561 532.08C772.014 529.253 771.241 525.84 771.241 521.84V495.92H780.281V520.48C780.281 524.427 781.267 527.467 783.241 529.6C785.214 531.68 787.907 532.72 791.321 532.72C794.734 532.72 797.427 531.68 799.401 529.6C801.427 527.467 802.441 524.427 802.441 520.48V495.92H811.561ZM820.554 517.92C820.554 513.387 821.46 509.413 823.274 506C825.14 502.533 827.7 499.867 830.954 498C834.207 496.133 837.94 495.2 842.154 495.2C847.487 495.2 851.887 496.48 855.354 499.04C858.874 501.547 861.247 505.147 862.474 509.84H852.634C851.834 507.653 850.554 505.947 848.794 504.72C847.034 503.493 844.82 502.88 842.154 502.88C838.42 502.88 835.434 504.213 833.194 506.88C831.007 509.493 829.914 513.173 829.914 517.92C829.914 522.667 831.007 526.373 833.194 529.04C835.434 531.707 838.42 533.04 842.154 533.04C847.434 533.04 850.927 530.72 852.634 526.08H862.474C861.194 530.56 858.794 534.133 855.274 536.8C851.754 539.413 847.38 540.72 842.154 540.72C837.94 540.72 834.207 539.787 830.954 537.92C827.7 536 825.14 533.333 823.274 529.92C821.46 526.453 820.554 522.453 820.554 517.92ZM868.523 517.76C868.523 513.333 869.429 509.413 871.243 506C873.109 502.587 875.616 499.947 878.763 498.08C881.963 496.16 885.483 495.2 889.323 495.2C892.789 495.2 895.803 495.893 898.363 497.28C900.976 498.613 903.056 500.293 904.603 502.32V495.92H913.803V540H904.603V533.44C903.056 535.52 900.949 537.253 898.283 538.64C895.616 540.027 892.576 540.72 889.163 540.72C885.376 540.72 881.909 539.76 878.763 537.84C875.616 535.867 873.109 533.147 871.243 529.68C869.429 526.16 868.523 522.187 868.523 517.76ZM904.603 517.92C904.603 514.88 903.963 512.24 902.683 510C901.456 507.76 899.829 506.053 897.803 504.88C895.776 503.707 893.589 503.12 891.243 503.12C888.896 503.12 886.709 503.707 884.683 504.88C882.656 506 881.003 507.68 879.723 509.92C878.496 512.107 877.883 514.72 877.883 517.76C877.883 520.8 878.496 523.467 879.723 525.76C881.003 528.053 882.656 529.813 884.683 531.04C886.763 532.213 888.949 532.8 891.243 532.8C893.589 532.8 895.776 532.213 897.803 531.04C899.829 529.867 901.456 528.16 902.683 525.92C903.963 523.627 904.603 520.96 904.603 517.92ZM936.421 503.36V527.76C936.421 529.413 936.795 530.613 937.541 531.36C938.341 532.053 939.675 532.4 941.541 532.4H947.141V540H939.941C935.835 540 932.688 539.04 930.501 537.12C928.315 535.2 927.221 532.08 927.221 527.76V503.36H922.021V495.92H927.221V484.96H936.421V495.92H947.141V503.36H936.421ZM960.187 490.08C958.534 490.08 957.147 489.52 956.027 488.4C954.907 487.28 954.347 485.893 954.347 484.24C954.347 482.587 954.907 481.2 956.027 480.08C957.147 478.96 958.534 478.4 960.187 478.4C961.787 478.4 963.147 478.96 964.267 480.08C965.387 481.2 965.947 482.587 965.947 484.24C965.947 485.893 965.387 487.28 964.267 488.4C963.147 489.52 961.787 490.08 960.187 490.08ZM964.667 495.92V540H955.547V495.92H964.667ZM995.761 540.72C991.601 540.72 987.841 539.787 984.481 537.92C981.121 536 978.481 533.333 976.561 529.92C974.641 526.453 973.681 522.453 973.681 517.92C973.681 513.44 974.667 509.467 976.641 506C978.614 502.533 981.307 499.867 984.721 498C988.134 496.133 991.947 495.2 996.161 495.2C1000.37 495.2 1004.19 496.133 1007.6 498C1011.01 499.867 1013.71 502.533 1015.68 506C1017.65 509.467 1018.64 513.44 1018.64 517.92C1018.64 522.4 1017.63 526.373 1015.6 529.84C1013.57 533.307 1010.8 536 1007.28 537.92C1003.81 539.787 999.974 540.72 995.761 540.72ZM995.761 532.8C998.107 532.8 1000.29 532.24 1002.32 531.12C1004.4 530 1006.08 528.32 1007.36 526.08C1008.64 523.84 1009.28 521.12 1009.28 517.92C1009.28 514.72 1008.67 512.027 1007.44 509.84C1006.21 507.6 1004.59 505.92 1002.56 504.8C1000.53 503.68 998.347 503.12 996.001 503.12C993.654 503.12 991.467 503.68 989.441 504.8C987.467 505.92 985.894 507.6 984.721 509.84C983.547 512.027 982.961 514.72 982.961 517.92C982.961 522.667 984.161 526.347 986.561 528.96C989.014 531.52 992.081 532.8 995.761 532.8ZM1049.9 495.2C1053.36 495.2 1056.46 495.92 1059.18 497.36C1061.95 498.8 1064.11 500.933 1065.66 503.76C1067.2 506.587 1067.98 510 1067.98 514V540H1058.94V515.36C1058.94 511.413 1057.95 508.4 1055.98 506.32C1054 504.187 1051.31 503.12 1047.9 503.12C1044.48 503.12 1041.76 504.187 1039.74 506.32C1037.76 508.4 1036.78 511.413 1036.78 515.36V540H1027.66V495.92H1036.78V500.96C1038.27 499.147 1040.16 497.733 1042.46 496.72C1044.8 495.707 1047.28 495.2 1049.9 495.2ZM1076.57 517.76C1076.57 513.333 1077.48 509.413 1079.29 506C1081.16 502.587 1083.66 499.947 1086.81 498.08C1090.01 496.16 1093.53 495.2 1097.37 495.2C1100.84 495.2 1103.85 495.893 1106.41 497.28C1109.02 498.613 1111.1 500.293 1112.65 502.32V495.92H1121.85V540H1112.65V533.44C1111.1 535.52 1109 537.253 1106.33 538.64C1103.66 540.027 1100.62 540.72 1097.21 540.72C1093.42 540.72 1089.96 539.76 1086.81 537.84C1083.66 535.867 1081.16 533.147 1079.29 529.68C1077.48 526.16 1076.57 522.187 1076.57 517.76ZM1112.65 517.92C1112.65 514.88 1112.01 512.24 1110.73 510C1109.5 507.76 1107.88 506.053 1105.85 504.88C1103.82 503.707 1101.64 503.12 1099.29 503.12C1096.94 503.12 1094.76 503.707 1092.73 504.88C1090.7 506 1089.05 507.68 1087.77 509.92C1086.54 512.107 1085.93 514.72 1085.93 517.76C1085.93 520.8 1086.54 523.467 1087.77 525.76C1089.05 528.053 1090.7 529.813 1092.73 531.04C1094.81 532.213 1097 532.8 1099.29 532.8C1101.64 532.8 1103.82 532.213 1105.85 531.04C1107.88 529.867 1109.5 528.16 1110.73 525.92C1112.01 523.627 1112.65 520.96 1112.65 517.92ZM1142.95 480.8V540H1133.83V480.8H1142.95ZM1172.66 517.76C1172.66 513.333 1173.57 509.413 1175.38 506C1177.25 502.587 1179.76 499.947 1182.9 498.08C1186.1 496.16 1189.62 495.2 1193.46 495.2C1196.93 495.2 1199.94 495.893 1202.5 497.28C1205.12 498.613 1207.2 500.293 1208.74 502.32V495.92H1217.94V540H1208.74V533.44C1207.2 535.52 1205.09 537.253 1202.42 538.64C1199.76 540.027 1196.72 540.72 1193.3 540.72C1189.52 540.72 1186.05 539.76 1182.9 537.84C1179.76 535.867 1177.25 533.147 1175.38 529.68C1173.57 526.16 1172.66 522.187 1172.66 517.76ZM1208.74 517.92C1208.74 514.88 1208.1 512.24 1206.82 510C1205.6 507.76 1203.97 506.053 1201.94 504.88C1199.92 503.707 1197.73 503.12 1195.38 503.12C1193.04 503.12 1190.85 503.707 1188.82 504.88C1186.8 506 1185.14 507.68 1183.86 509.92C1182.64 512.107 1182.02 514.72 1182.02 517.76C1182.02 520.8 1182.64 523.467 1183.86 525.76C1185.14 528.053 1186.8 529.813 1188.82 531.04C1190.9 532.213 1193.09 532.8 1195.38 532.8C1197.73 532.8 1199.92 532.213 1201.94 531.04C1203.97 529.867 1205.6 528.16 1206.82 525.92C1208.1 523.627 1208.74 520.96 1208.74 517.92ZM1239.04 502.4C1240.59 500.373 1242.7 498.667 1245.36 497.28C1248.03 495.893 1251.04 495.2 1254.4 495.2C1258.24 495.2 1261.74 496.16 1264.88 498.08C1268.08 499.947 1270.59 502.587 1272.4 506C1274.22 509.413 1275.12 513.333 1275.12 517.76C1275.12 522.187 1274.22 526.16 1272.4 529.68C1270.59 533.147 1268.08 535.867 1264.88 537.84C1261.74 539.76 1258.24 540.72 1254.4 540.72C1251.04 540.72 1248.06 540.053 1245.44 538.72C1242.83 537.333 1240.7 535.627 1239.04 533.6V560.96H1229.92V495.92H1239.04V502.4ZM1265.84 517.76C1265.84 514.72 1265.2 512.107 1263.92 509.92C1262.7 507.68 1261.04 506 1258.96 504.88C1256.94 503.707 1254.75 503.12 1252.4 503.12C1250.11 503.12 1247.92 503.707 1245.84 504.88C1243.82 506.053 1242.16 507.76 1240.88 510C1239.66 512.24 1239.04 514.88 1239.04 517.92C1239.04 520.96 1239.66 523.627 1240.88 525.92C1242.16 528.16 1243.82 529.867 1245.84 531.04C1247.92 532.213 1250.11 532.8 1252.4 532.8C1254.75 532.8 1256.94 532.213 1258.96 531.04C1261.04 529.813 1262.7 528.053 1263.92 525.76C1265.2 523.467 1265.84 520.8 1265.84 517.76ZM1293.26 502.4C1294.81 500.373 1296.91 498.667 1299.58 497.28C1302.25 495.893 1305.26 495.2 1308.62 495.2C1312.46 495.2 1315.95 496.16 1319.1 498.08C1322.3 499.947 1324.81 502.587 1326.62 506C1328.43 509.413 1329.34 513.333 1329.34 517.76C1329.34 522.187 1328.43 526.16 1326.62 529.68C1324.81 533.147 1322.3 535.867 1319.1 537.84C1315.95 539.76 1312.46 540.72 1308.62 540.72C1305.26 540.72 1302.27 540.053 1299.66 538.72C1297.05 537.333 1294.91 535.627 1293.26 533.6V560.96H1284.14V495.92H1293.26V502.4ZM1320.06 517.76C1320.06 514.72 1319.42 512.107 1318.14 509.92C1316.91 507.68 1315.26 506 1313.18 504.88C1311.15 503.707 1308.97 503.12 1306.62 503.12C1304.33 503.12 1302.14 503.707 1300.06 504.88C1298.03 506.053 1296.38 507.76 1295.1 510C1293.87 512.24 1293.26 514.88 1293.26 517.92C1293.26 520.96 1293.87 523.627 1295.1 525.92C1296.38 528.16 1298.03 529.867 1300.06 531.04C1302.14 532.213 1304.33 532.8 1306.62 532.8C1308.97 532.8 1311.15 532.213 1313.18 531.04C1315.26 529.813 1316.91 528.053 1318.14 525.76C1319.42 523.467 1320.06 520.8 1320.06 517.76ZM1369.78 503.36V527.76C1369.78 529.413 1370.15 530.613 1370.9 531.36C1371.7 532.053 1373.03 532.4 1374.9 532.4H1380.5V540H1373.3C1369.19 540 1366.05 539.04 1363.86 537.12C1361.67 535.2 1360.58 532.08 1360.58 527.76V503.36H1355.38V495.92H1360.58V484.96H1369.78V495.92H1380.5V503.36H1369.78ZM1411.71 495.2C1415.07 495.2 1418.05 495.92 1420.67 497.36C1423.33 498.8 1425.41 500.933 1426.91 503.76C1428.45 506.587 1429.23 510 1429.23 514V540H1420.19V515.36C1420.19 511.413 1419.2 508.4 1417.23 506.32C1415.25 504.187 1412.56 503.12 1409.15 503.12C1405.73 503.12 1403.01 504.187 1400.99 506.32C1399.01 508.4 1398.03 511.413 1398.03 515.36V540H1388.91V480.8H1398.03V501.04C1399.57 499.173 1401.52 497.733 1403.87 496.72C1406.27 495.707 1408.88 495.2 1411.71 495.2ZM1437.82 517.76C1437.82 513.333 1438.73 509.413 1440.54 506C1442.41 502.587 1444.91 499.947 1448.06 498.08C1451.26 496.16 1454.78 495.2 1458.62 495.2C1462.09 495.2 1465.1 495.893 1467.66 497.28C1470.27 498.613 1472.35 500.293 1473.9 502.32V495.92H1483.1V540H1473.9V533.44C1472.35 535.52 1470.25 537.253 1467.58 538.64C1464.91 540.027 1461.87 540.72 1458.46 540.72C1454.67 540.72 1451.21 539.76 1448.06 537.84C1444.91 535.867 1442.41 533.147 1440.54 529.68C1438.73 526.16 1437.82 522.187 1437.82 517.76ZM1473.9 517.92C1473.9 514.88 1473.26 512.24 1471.98 510C1470.75 507.76 1469.13 506.053 1467.1 504.88C1465.07 503.707 1462.89 503.12 1460.54 503.12C1458.19 503.12 1456.01 503.707 1453.98 504.88C1451.95 506 1450.3 507.68 1449.02 509.92C1447.79 512.107 1447.18 514.72 1447.18 517.76C1447.18 520.8 1447.79 523.467 1449.02 525.76C1450.3 528.053 1451.95 529.813 1453.98 531.04C1456.06 532.213 1458.25 532.8 1460.54 532.8C1462.89 532.8 1465.07 532.213 1467.1 531.04C1469.13 529.867 1470.75 528.16 1471.98 525.92C1473.26 523.627 1473.9 520.96 1473.9 517.92ZM1505.72 503.36V527.76C1505.72 529.413 1506.09 530.613 1506.84 531.36C1507.64 532.053 1508.97 532.4 1510.84 532.4H1516.44V540H1509.24C1505.13 540 1501.98 539.04 1499.8 537.12C1497.61 535.2 1496.52 532.08 1496.52 527.76V503.36H1491.32V495.92H1496.52V484.96H1505.72V495.92H1516.44V503.36H1505.72ZM285.4 636.88C285.4 638.533 285.293 640.027 285.08 641.36H251.4C251.667 644.88 252.973 647.707 255.32 649.84C257.667 651.973 260.547 653.04 263.96 653.04C268.867 653.04 272.333 650.987 274.36 646.88H284.2C282.867 650.933 280.44 654.267 276.92 656.88C273.453 659.44 269.133 660.72 263.96 660.72C259.747 660.72 255.96 659.787 252.6 657.92C249.293 656 246.68 653.333 244.76 649.92C242.893 646.453 241.96 642.453 241.96 637.92C241.96 633.387 242.867 629.413 244.68 626C246.547 622.533 249.133 619.867 252.44 618C255.8 616.133 259.64 615.2 263.96 615.2C268.12 615.2 271.827 616.107 275.08 617.92C278.333 619.733 280.867 622.293 282.68 625.6C284.493 628.853 285.4 632.613 285.4 636.88ZM275.88 634C275.827 630.64 274.627 627.947 272.28 625.92C269.933 623.893 267.027 622.88 263.56 622.88C260.413 622.88 257.72 623.893 255.48 625.92C253.24 627.893 251.907 630.587 251.48 634H275.88ZM291.335 637.76C291.335 633.333 292.242 629.413 294.055 626C295.922 622.587 298.428 619.947 301.575 618.08C304.775 616.16 308.322 615.2 312.215 615.2C315.095 615.2 317.922 615.84 320.695 617.12C323.522 618.347 325.762 620 327.415 622.08V600.8H336.615V660H327.415V653.36C325.922 655.493 323.842 657.253 321.175 658.64C318.562 660.027 315.548 660.72 312.135 660.72C308.295 660.72 304.775 659.76 301.575 657.84C298.428 655.867 295.922 653.147 294.055 649.68C292.242 646.16 291.335 642.187 291.335 637.76ZM327.415 637.92C327.415 634.88 326.775 632.24 325.495 630C324.268 627.76 322.642 626.053 320.615 624.88C318.588 623.707 316.402 623.12 314.055 623.12C311.708 623.12 309.522 623.707 307.495 624.88C305.468 626 303.815 627.68 302.535 629.92C301.308 632.107 300.695 634.72 300.695 637.76C300.695 640.8 301.308 643.467 302.535 645.76C303.815 648.053 305.468 649.813 307.495 651.04C309.575 652.213 311.762 652.8 314.055 652.8C316.402 652.8 318.588 652.213 320.615 651.04C322.642 649.867 324.268 648.16 325.495 645.92C326.775 643.627 327.415 640.96 327.415 637.92ZM388.514 615.92V660H379.394V654.8C377.954 656.613 376.06 658.053 373.714 659.12C371.42 660.133 368.967 660.64 366.354 660.64C362.887 660.64 359.767 659.92 356.994 658.48C354.274 657.04 352.114 654.907 350.514 652.08C348.967 649.253 348.194 645.84 348.194 641.84V615.92H357.234V640.48C357.234 644.427 358.22 647.467 360.194 649.6C362.167 651.68 364.86 652.72 368.274 652.72C371.687 652.72 374.38 651.68 376.354 649.6C378.38 647.467 379.394 644.427 379.394 640.48V615.92H388.514ZM397.507 637.92C397.507 633.387 398.414 629.413 400.227 626C402.094 622.533 404.654 619.867 407.907 618C411.16 616.133 414.894 615.2 419.107 615.2C424.44 615.2 428.84 616.48 432.307 619.04C435.827 621.547 438.2 625.147 439.427 629.84H429.587C428.787 627.653 427.507 625.947 425.747 624.72C423.987 623.493 421.774 622.88 419.107 622.88C415.374 622.88 412.387 624.213 410.147 626.88C407.96 629.493 406.867 633.173 406.867 637.92C406.867 642.667 407.96 646.373 410.147 649.04C412.387 651.707 415.374 653.04 419.107 653.04C424.387 653.04 427.88 650.72 429.587 646.08H439.427C438.147 650.56 435.747 654.133 432.227 656.8C428.707 659.413 424.334 660.72 419.107 660.72C414.894 660.72 411.16 659.787 407.907 657.92C404.654 656 402.094 653.333 400.227 649.92C398.414 646.453 397.507 642.453 397.507 637.92ZM445.476 637.76C445.476 633.333 446.382 629.413 448.196 626C450.062 622.587 452.569 619.947 455.716 618.08C458.916 616.16 462.436 615.2 466.276 615.2C469.742 615.2 472.756 615.893 475.316 617.28C477.929 618.613 480.009 620.293 481.556 622.32V615.92H490.756V660H481.556V653.44C480.009 655.52 477.902 657.253 475.236 658.64C472.569 660.027 469.529 660.72 466.116 660.72C462.329 660.72 458.862 659.76 455.716 657.84C452.569 655.867 450.062 653.147 448.196 649.68C446.382 646.16 445.476 642.187 445.476 637.76ZM481.556 637.92C481.556 634.88 480.916 632.24 479.636 630C478.409 627.76 476.782 626.053 474.756 624.88C472.729 623.707 470.542 623.12 468.196 623.12C465.849 623.12 463.662 623.707 461.636 624.88C459.609 626 457.956 627.68 456.676 629.92C455.449 632.107 454.836 634.72 454.836 637.76C454.836 640.8 455.449 643.467 456.676 645.76C457.956 648.053 459.609 649.813 461.636 651.04C463.716 652.213 465.902 652.8 468.196 652.8C470.542 652.8 472.729 652.213 474.756 651.04C476.782 649.867 478.409 648.16 479.636 645.92C480.916 643.627 481.556 640.96 481.556 637.92ZM513.374 623.36V647.76C513.374 649.413 513.748 650.613 514.494 651.36C515.294 652.053 516.628 652.4 518.494 652.4H524.094V660H516.894C512.788 660 509.641 659.04 507.454 657.12C505.268 655.2 504.174 652.08 504.174 647.76V623.36H498.974V615.92H504.174V604.96H513.374V615.92H524.094V623.36H513.374ZM572.9 636.88C572.9 638.533 572.793 640.027 572.58 641.36H538.9C539.167 644.88 540.473 647.707 542.82 649.84C545.167 651.973 548.047 653.04 551.46 653.04C556.367 653.04 559.833 650.987 561.86 646.88H571.7C570.367 650.933 567.94 654.267 564.42 656.88C560.953 659.44 556.633 660.72 551.46 660.72C547.247 660.72 543.46 659.787 540.1 657.92C536.793 656 534.18 653.333 532.26 649.92C530.393 646.453 529.46 642.453 529.46 637.92C529.46 633.387 530.367 629.413 532.18 626C534.047 622.533 536.633 619.867 539.94 618C543.3 616.133 547.14 615.2 551.46 615.2C555.62 615.2 559.327 616.107 562.58 617.92C565.833 619.733 568.367 622.293 570.18 625.6C571.993 628.853 572.9 632.613 572.9 636.88ZM563.38 634C563.327 630.64 562.127 627.947 559.78 625.92C557.433 623.893 554.527 622.88 551.06 622.88C547.913 622.88 545.22 623.893 542.98 625.92C540.74 627.893 539.407 630.587 538.98 634H563.38ZM597.875 660.72C594.408 660.72 591.288 660.107 588.515 658.88C585.795 657.6 583.635 655.893 582.035 653.76C580.435 651.573 579.582 649.147 579.475 646.48H588.915C589.075 648.347 589.955 649.92 591.555 651.2C593.208 652.427 595.262 653.04 597.715 653.04C600.275 653.04 602.248 652.56 603.635 651.6C605.075 650.587 605.795 649.307 605.795 647.76C605.795 646.107 604.995 644.88 603.395 644.08C601.848 643.28 599.368 642.4 595.955 641.44C592.648 640.533 589.955 639.653 587.875 638.8C585.795 637.947 583.982 636.64 582.435 634.88C580.942 633.12 580.195 630.8 580.195 627.92C580.195 625.573 580.888 623.44 582.275 621.52C583.662 619.547 585.635 618 588.195 616.88C590.808 615.76 593.795 615.2 597.155 615.2C602.168 615.2 606.195 616.48 609.235 619.04C612.328 621.547 613.982 624.987 614.195 629.36H605.075C604.915 627.387 604.115 625.813 602.675 624.64C601.235 623.467 599.288 622.88 596.835 622.88C594.435 622.88 592.595 623.333 591.315 624.24C590.035 625.147 589.395 626.347 589.395 627.84C589.395 629.013 589.822 630 590.675 630.8C591.528 631.6 592.568 632.24 593.795 632.72C595.022 633.147 596.835 633.707 599.235 634.4C602.435 635.253 605.048 636.133 607.075 637.04C609.155 637.893 610.942 639.173 612.435 640.88C613.928 642.587 614.702 644.853 614.755 647.68C614.755 650.187 614.062 652.427 612.675 654.4C611.288 656.373 609.315 657.92 606.755 659.04C604.248 660.16 601.288 660.72 597.875 660.72ZM654.511 622.4C656.057 620.373 658.164 618.667 660.831 617.28C663.497 615.893 666.511 615.2 669.871 615.2C673.711 615.2 677.204 616.16 680.351 618.08C683.551 619.947 686.057 622.587 687.871 626C689.684 629.413 690.591 633.333 690.591 637.76C690.591 642.187 689.684 646.16 687.871 649.68C686.057 653.147 683.551 655.867 680.351 657.84C677.204 659.76 673.711 660.72 669.871 660.72C666.511 660.72 663.524 660.053 660.911 658.72C658.297 657.333 656.164 655.627 654.511 653.6V680.96H645.391V615.92H654.511V622.4ZM681.311 637.76C681.311 634.72 680.671 632.107 679.391 629.92C678.164 627.68 676.511 626 674.431 624.88C672.404 623.707 670.217 623.12 667.871 623.12C665.577 623.12 663.391 623.707 661.311 624.88C659.284 626.053 657.631 627.76 656.351 630C655.124 632.24 654.511 634.88 654.511 637.92C654.511 640.96 655.124 643.627 656.351 645.92C657.631 648.16 659.284 649.867 661.311 651.04C663.391 652.213 665.577 652.8 667.871 652.8C670.217 652.8 672.404 652.213 674.431 651.04C676.511 649.813 678.164 648.053 679.391 645.76C680.671 643.467 681.311 640.8 681.311 637.76ZM740.009 636.88C740.009 638.533 739.903 640.027 739.689 641.36H706.009C706.276 644.88 707.583 647.707 709.929 649.84C712.276 651.973 715.156 653.04 718.569 653.04C723.476 653.04 726.943 650.987 728.969 646.88H738.809C737.476 650.933 735.049 654.267 731.529 656.88C728.063 659.44 723.743 660.72 718.569 660.72C714.356 660.72 710.569 659.787 707.209 657.92C703.903 656 701.289 653.333 699.369 649.92C697.503 646.453 696.569 642.453 696.569 637.92C696.569 633.387 697.476 629.413 699.289 626C701.156 622.533 703.743 619.867 707.049 618C710.409 616.133 714.249 615.2 718.569 615.2C722.729 615.2 726.436 616.107 729.689 617.92C732.943 619.733 735.476 622.293 737.289 625.6C739.103 628.853 740.009 632.613 740.009 636.88ZM730.489 634C730.436 630.64 729.236 627.947 726.889 625.92C724.543 623.893 721.636 622.88 718.169 622.88C715.023 622.88 712.329 623.893 710.089 625.92C707.849 627.893 706.516 630.587 706.089 634H730.489ZM768.104 660.72C763.944 660.72 760.184 659.787 756.824 657.92C753.464 656 750.824 653.333 748.904 649.92C746.984 646.453 746.024 642.453 746.024 637.92C746.024 633.44 747.011 629.467 748.984 626C750.958 622.533 753.651 619.867 757.064 618C760.478 616.133 764.291 615.2 768.504 615.2C772.718 615.2 776.531 616.133 779.944 618C783.358 619.867 786.051 622.533 788.024 626C789.998 629.467 790.984 633.44 790.984 637.92C790.984 642.4 789.971 646.373 787.944 649.84C785.918 653.307 783.144 656 779.624 657.92C776.158 659.787 772.318 660.72 768.104 660.72ZM768.104 652.8C770.451 652.8 772.638 652.24 774.664 651.12C776.744 650 778.424 648.32 779.704 646.08C780.984 643.84 781.624 641.12 781.624 637.92C781.624 634.72 781.011 632.027 779.784 629.84C778.558 627.6 776.931 625.92 774.904 624.8C772.878 623.68 770.691 623.12 768.344 623.12C765.998 623.12 763.811 623.68 761.784 624.8C759.811 625.92 758.238 627.6 757.064 629.84C755.891 632.027 755.304 634.72 755.304 637.92C755.304 642.667 756.504 646.347 758.904 648.96C761.358 651.52 764.424 652.8 768.104 652.8ZM809.12 622.4C810.667 620.373 812.773 618.667 815.44 617.28C818.107 615.893 821.12 615.2 824.48 615.2C828.32 615.2 831.813 616.16 834.96 618.08C838.16 619.947 840.667 622.587 842.48 626C844.293 629.413 845.2 633.333 845.2 637.76C845.2 642.187 844.293 646.16 842.48 649.68C840.667 653.147 838.16 655.867 834.96 657.84C831.813 659.76 828.32 660.72 824.48 660.72C821.12 660.72 818.133 660.053 815.52 658.72C812.907 657.333 810.773 655.627 809.12 653.6V680.96H800V615.92H809.12V622.4ZM835.92 637.76C835.92 634.72 835.28 632.107 834 629.92C832.773 627.68 831.12 626 829.04 624.88C827.013 623.707 824.827 623.12 822.48 623.12C820.187 623.12 818 623.707 815.92 624.88C813.893 626.053 812.24 627.76 810.96 630C809.733 632.24 809.12 634.88 809.12 637.92C809.12 640.96 809.733 643.627 810.96 645.92C812.24 648.16 813.893 649.867 815.92 651.04C818 652.213 820.187 652.8 822.48 652.8C824.827 652.8 827.013 652.213 829.04 651.04C831.12 649.813 832.773 648.053 834 645.76C835.28 643.467 835.92 640.8 835.92 637.76ZM863.339 600.8V660H854.219V600.8H863.339ZM915.713 636.88C915.713 638.533 915.606 640.027 915.393 641.36H881.713C881.979 644.88 883.286 647.707 885.633 649.84C887.979 651.973 890.859 653.04 894.273 653.04C899.179 653.04 902.646 650.987 904.673 646.88H914.512C913.179 650.933 910.753 654.267 907.233 656.88C903.766 659.44 899.446 660.72 894.273 660.72C890.059 660.72 886.273 659.787 882.913 657.92C879.606 656 876.993 653.333 875.073 649.92C873.206 646.453 872.273 642.453 872.273 637.92C872.273 633.387 873.179 629.413 874.993 626C876.859 622.533 879.446 619.867 882.753 618C886.113 616.133 889.953 615.2 894.273 615.2C898.433 615.2 902.139 616.107 905.393 617.92C908.646 619.733 911.179 622.293 912.993 625.6C914.806 628.853 915.713 632.613 915.713 636.88ZM906.193 634C906.139 630.64 904.939 627.947 902.593 625.92C900.246 623.893 897.339 622.88 893.873 622.88C890.726 622.88 888.033 623.893 885.793 625.92C883.553 627.893 882.219 630.587 881.793 634H906.193ZM964.589 660.72C960.429 660.72 956.669 659.787 953.309 657.92C949.949 656 947.309 653.333 945.389 649.92C943.469 646.453 942.509 642.453 942.509 637.92C942.509 633.44 943.495 629.467 945.469 626C947.442 622.533 950.135 619.867 953.549 618C956.962 616.133 960.775 615.2 964.989 615.2C969.202 615.2 973.015 616.133 976.429 618C979.842 619.867 982.535 622.533 984.509 626C986.482 629.467 987.469 633.44 987.469 637.92C987.469 642.4 986.455 646.373 984.429 649.84C982.402 653.307 979.629 656 976.109 657.92C972.642 659.787 968.802 660.72 964.589 660.72ZM964.589 652.8C966.935 652.8 969.122 652.24 971.149 651.12C973.229 650 974.909 648.32 976.189 646.08C977.469 643.84 978.109 641.12 978.109 637.92C978.109 634.72 977.495 632.027 976.269 629.84C975.042 627.6 973.415 625.92 971.389 624.8C969.362 623.68 967.175 623.12 964.829 623.12C962.482 623.12 960.295 623.68 958.269 624.8C956.295 625.92 954.722 627.6 953.549 629.84C952.375 632.027 951.789 634.72 951.789 637.92C951.789 642.667 952.989 646.347 955.389 648.96C957.842 651.52 960.909 652.8 964.589 652.8ZM1018.72 615.2C1022.19 615.2 1025.28 615.92 1028 617.36C1030.78 618.8 1032.94 620.933 1034.48 623.76C1036.03 626.587 1036.8 630 1036.8 634V660H1027.76V635.36C1027.76 631.413 1026.78 628.4 1024.8 626.32C1022.83 624.187 1020.14 623.12 1016.72 623.12C1013.31 623.12 1010.59 624.187 1008.56 626.32C1006.59 628.4 1005.6 631.413 1005.6 635.36V660H996.484V615.92H1005.6V620.96C1007.1 619.147 1008.99 617.733 1011.28 616.72C1013.63 615.707 1016.11 615.2 1018.72 615.2ZM1128.42 615.92L1114.74 660H1105.14L1096.26 627.44L1087.38 660H1077.78L1064.02 615.92H1073.3L1082.5 651.36L1091.86 615.92H1101.38L1110.34 651.2L1119.46 615.92H1128.42ZM1132.19 637.76C1132.19 633.333 1133.1 629.413 1134.91 626C1136.78 622.587 1139.29 619.947 1142.43 618.08C1145.63 616.16 1149.15 615.2 1152.99 615.2C1156.46 615.2 1159.47 615.893 1162.03 617.28C1164.65 618.613 1166.73 620.293 1168.27 622.32V615.92H1177.47V660H1168.27V653.44C1166.73 655.52 1164.62 657.253 1161.95 658.64C1159.29 660.027 1156.25 660.72 1152.83 660.72C1149.05 660.72 1145.58 659.76 1142.43 657.84C1139.29 655.867 1136.78 653.147 1134.91 649.68C1133.1 646.16 1132.19 642.187 1132.19 637.76ZM1168.27 637.92C1168.27 634.88 1167.63 632.24 1166.35 630C1165.13 627.76 1163.5 626.053 1161.47 624.88C1159.45 623.707 1157.26 623.12 1154.91 623.12C1152.57 623.12 1150.38 623.707 1148.35 624.88C1146.33 626 1144.67 627.68 1143.39 629.92C1142.17 632.107 1141.55 634.72 1141.55 637.76C1141.55 640.8 1142.17 643.467 1143.39 645.76C1144.67 648.053 1146.33 649.813 1148.35 651.04C1150.43 652.213 1152.62 652.8 1154.91 652.8C1157.26 652.8 1159.45 652.213 1161.47 651.04C1163.5 649.867 1165.13 648.16 1166.35 645.92C1167.63 643.627 1168.27 640.96 1168.27 637.92ZM1229.13 615.92L1202.09 680.72H1192.65L1201.61 659.28L1184.25 615.92H1194.41L1206.81 649.52L1219.69 615.92H1229.13ZM1252.02 660.72C1248.55 660.72 1245.43 660.107 1242.66 658.88C1239.94 657.6 1237.78 655.893 1236.18 653.76C1234.58 651.573 1233.72 649.147 1233.62 646.48H1243.06C1243.22 648.347 1244.1 649.92 1245.7 651.2C1247.35 652.427 1249.4 653.04 1251.86 653.04C1254.42 653.04 1256.39 652.56 1257.78 651.6C1259.22 650.587 1259.94 649.307 1259.94 647.76C1259.94 646.107 1259.14 644.88 1257.54 644.08C1255.99 643.28 1253.51 642.4 1250.1 641.44C1246.79 640.533 1244.1 639.653 1242.02 638.8C1239.94 637.947 1238.12 636.64 1236.58 634.88C1235.08 633.12 1234.34 630.8 1234.34 627.92C1234.34 625.573 1235.03 623.44 1236.42 621.52C1237.8 619.547 1239.78 618 1242.34 616.88C1244.95 615.76 1247.94 615.2 1251.3 615.2C1256.31 615.2 1260.34 616.48 1263.38 619.04C1266.47 621.547 1268.12 624.987 1268.34 629.36H1259.22C1259.06 627.387 1258.26 625.813 1256.82 624.64C1255.38 623.467 1253.43 622.88 1250.98 622.88C1248.58 622.88 1246.74 623.333 1245.46 624.24C1244.18 625.147 1243.54 626.347 1243.54 627.84C1243.54 629.013 1243.96 630 1244.82 630.8C1245.67 631.6 1246.71 632.24 1247.94 632.72C1249.16 633.147 1250.98 633.707 1253.38 634.4C1256.58 635.253 1259.19 636.133 1261.22 637.04C1263.3 637.893 1265.08 639.173 1266.58 640.88C1268.07 642.587 1268.84 644.853 1268.9 647.68C1268.9 650.187 1268.2 652.427 1266.82 654.4C1265.43 656.373 1263.46 657.92 1260.9 659.04C1258.39 660.16 1255.43 660.72 1252.02 660.72ZM1310.17 623.36V647.76C1310.17 649.413 1310.54 650.613 1311.29 651.36C1312.09 652.053 1313.42 652.4 1315.29 652.4H1320.89V660H1313.69C1309.58 660 1306.44 659.04 1304.25 657.12C1302.06 655.2 1300.97 652.08 1300.97 647.76V623.36H1295.77V615.92H1300.97V604.96H1310.17V615.92H1320.89V623.36H1310.17ZM1348.42 660.72C1344.26 660.72 1340.5 659.787 1337.14 657.92C1333.78 656 1331.14 653.333 1329.22 649.92C1327.3 646.453 1326.34 642.453 1326.34 637.92C1326.34 633.44 1327.32 629.467 1329.3 626C1331.27 622.533 1333.96 619.867 1337.38 618C1340.79 616.133 1344.6 615.2 1348.82 615.2C1353.03 615.2 1356.84 616.133 1360.26 618C1363.67 619.867 1366.36 622.533 1368.34 626C1370.31 629.467 1371.3 633.44 1371.3 637.92C1371.3 642.4 1370.28 646.373 1368.26 649.84C1366.23 653.307 1363.46 656 1359.94 657.92C1356.47 659.787 1352.63 660.72 1348.42 660.72ZM1348.42 652.8C1350.76 652.8 1352.95 652.24 1354.98 651.12C1357.06 650 1358.74 648.32 1360.02 646.08C1361.3 643.84 1361.94 641.12 1361.94 637.92C1361.94 634.72 1361.32 632.027 1360.1 629.84C1358.87 627.6 1357.24 625.92 1355.22 624.8C1353.19 623.68 1351 623.12 1348.66 623.12C1346.31 623.12 1344.12 623.68 1342.1 624.8C1340.12 625.92 1338.55 627.6 1337.38 629.84C1336.2 632.027 1335.62 634.72 1335.62 637.92C1335.62 642.667 1336.82 646.347 1339.22 648.96C1341.67 651.52 1344.74 652.8 1348.42 652.8ZM254.12 742.48C255.667 740.347 257.773 738.613 260.44 737.28C263.16 735.893 266.173 735.2 269.48 735.2C273.373 735.2 276.893 736.133 280.04 738C283.187 739.867 285.667 742.533 287.48 746C289.293 749.413 290.2 753.333 290.2 757.76C290.2 762.187 289.293 766.16 287.48 769.68C285.667 773.147 283.16 775.867 279.96 777.84C276.813 779.76 273.32 780.72 269.48 780.72C266.067 780.72 263.027 780.053 260.36 778.72C257.747 777.387 255.667 775.68 254.12 773.6V780H245V720.8H254.12V742.48ZM280.92 757.76C280.92 754.72 280.28 752.107 279 749.92C277.773 747.68 276.12 746 274.04 744.88C272.013 743.707 269.827 743.12 267.48 743.12C265.187 743.12 263 743.707 260.92 744.88C258.893 746.053 257.24 747.76 255.96 750C254.733 752.24 254.12 754.88 254.12 757.92C254.12 760.96 254.733 763.627 255.96 765.92C257.24 768.16 258.893 769.867 260.92 771.04C263 772.213 265.187 772.8 267.48 772.8C269.827 772.8 272.013 772.213 274.04 771.04C276.12 769.813 277.773 768.053 279 765.76C280.28 763.467 280.92 760.8 280.92 757.76ZM339.139 735.92V780H330.019V774.8C328.579 776.613 326.685 778.053 324.339 779.12C322.045 780.133 319.592 780.64 316.979 780.64C313.512 780.64 310.392 779.92 307.619 778.48C304.899 777.04 302.739 774.907 301.139 772.08C299.592 769.253 298.819 765.84 298.819 761.84V735.92H307.859V760.48C307.859 764.427 308.845 767.467 310.819 769.6C312.792 771.68 315.485 772.72 318.899 772.72C322.312 772.72 325.005 771.68 326.979 769.6C329.005 767.467 330.019 764.427 330.019 760.48V735.92H339.139ZM348.132 757.76C348.132 753.333 349.039 749.413 350.852 746C352.719 742.587 355.225 739.947 358.372 738.08C361.572 736.16 365.119 735.2 369.012 735.2C371.892 735.2 374.719 735.84 377.492 737.12C380.319 738.347 382.559 740 384.212 742.08V720.8H393.412V780H384.212V773.36C382.719 775.493 380.639 777.253 377.972 778.64C375.359 780.027 372.345 780.72 368.932 780.72C365.092 780.72 361.572 779.76 358.372 777.84C355.225 775.867 352.719 773.147 350.852 769.68C349.039 766.16 348.132 762.187 348.132 757.76ZM384.212 757.92C384.212 754.88 383.572 752.24 382.292 750C381.065 747.76 379.439 746.053 377.412 744.88C375.385 743.707 373.199 743.12 370.852 743.12C368.505 743.12 366.319 743.707 364.292 744.88C362.265 746 360.612 747.68 359.332 749.92C358.105 752.107 357.492 754.72 357.492 757.76C357.492 760.8 358.105 763.467 359.332 765.76C360.612 768.053 362.265 769.813 364.292 771.04C366.372 772.213 368.559 772.8 370.852 772.8C373.199 772.8 375.385 772.213 377.412 771.04C379.439 769.867 381.065 768.16 382.292 765.92C383.572 763.627 384.212 760.96 384.212 757.92ZM423.151 735.2C426.564 735.2 429.577 735.893 432.191 737.28C434.857 738.613 436.937 740.293 438.431 742.32V735.92H447.631V780.72C447.631 784.773 446.777 788.373 445.071 791.52C443.364 794.72 440.884 797.227 437.631 799.04C434.431 800.853 430.591 801.76 426.111 801.76C420.137 801.76 415.177 800.347 411.231 797.52C407.284 794.747 405.044 790.96 404.511 786.16H413.551C414.244 788.453 415.711 790.293 417.951 791.68C420.244 793.12 422.964 793.84 426.111 793.84C429.791 793.84 432.751 792.72 434.991 790.48C437.284 788.24 438.431 784.987 438.431 780.72V773.36C436.884 775.44 434.777 777.2 432.111 778.64C429.497 780.027 426.511 780.72 423.151 780.72C419.311 780.72 415.791 779.76 412.591 777.84C409.444 775.867 406.937 773.147 405.071 769.68C403.257 766.16 402.351 762.187 402.351 757.76C402.351 753.333 403.257 749.413 405.071 746C406.937 742.587 409.444 739.947 412.591 738.08C415.791 736.16 419.311 735.2 423.151 735.2ZM438.431 757.92C438.431 754.88 437.791 752.24 436.511 750C435.284 747.76 433.657 746.053 431.631 744.88C429.604 743.707 427.417 743.12 425.071 743.12C422.724 743.12 420.537 743.707 418.511 744.88C416.484 746 414.831 747.68 413.551 749.92C412.324 752.107 411.711 754.72 411.711 757.76C411.711 760.8 412.324 763.467 413.551 765.76C414.831 768.053 416.484 769.813 418.511 771.04C420.591 772.213 422.777 772.8 425.071 772.8C427.417 772.8 429.604 772.213 431.631 771.04C433.657 769.867 435.284 768.16 436.511 765.92C437.791 763.627 438.431 760.96 438.431 757.92ZM500.009 756.88C500.009 758.533 499.903 760.027 499.689 761.36H466.009C466.276 764.88 467.583 767.707 469.929 769.84C472.276 771.973 475.156 773.04 478.569 773.04C483.476 773.04 486.943 770.987 488.969 766.88H498.809C497.476 770.933 495.049 774.267 491.529 776.88C488.063 779.44 483.743 780.72 478.569 780.72C474.356 780.72 470.569 779.787 467.209 777.92C463.903 776 461.289 773.333 459.369 769.92C457.503 766.453 456.569 762.453 456.569 757.92C456.569 753.387 457.476 749.413 459.289 746C461.156 742.533 463.743 739.867 467.049 738C470.409 736.133 474.249 735.2 478.569 735.2C482.729 735.2 486.436 736.107 489.689 737.92C492.943 739.733 495.476 742.293 497.289 745.6C499.103 748.853 500.009 752.613 500.009 756.88ZM490.489 754C490.436 750.64 489.236 747.947 486.889 745.92C484.543 743.893 481.636 742.88 478.169 742.88C475.023 742.88 472.329 743.893 470.089 745.92C467.849 747.893 466.516 750.587 466.089 754H490.489ZM519.624 743.36V767.76C519.624 769.413 519.998 770.613 520.744 771.36C521.544 772.053 522.878 772.4 524.744 772.4H530.344V780H523.144C519.038 780 515.891 779.04 513.704 777.12C511.518 775.2 510.424 772.08 510.424 767.76V743.36H505.224V735.92H510.424V724.96H519.624V735.92H530.344V743.36H519.624ZM542.43 780.56C540.777 780.56 539.39 780 538.27 778.88C537.15 777.76 536.59 776.373 536.59 774.72C536.59 773.067 537.15 771.68 538.27 770.56C539.39 769.44 540.777 768.88 542.43 768.88C544.03 768.88 545.39 769.44 546.51 770.56C547.63 771.68 548.19 773.067 548.19 774.72C548.19 776.373 547.63 777.76 546.51 778.88C545.39 780 544.03 780.56 542.43 780.56Z" fill="black"/>
<rect x="937" y="967" width="417" height="164" rx="30" fill="#009317" fill-opacity="0.3"/>
<path d="M1093.38 1028.3V1070H1086.54V1041.44L1073.82 1070H1069.08L1056.3 1041.44V1070H1049.46V1028.3H1056.84L1071.48 1061L1086.06 1028.3H1093.38ZM1116.71 1070.54C1113.59 1070.54 1110.77 1069.84 1108.25 1068.44C1105.73 1067 1103.75 1065 1102.31 1062.44C1100.87 1059.84 1100.15 1056.84 1100.15 1053.44C1100.15 1050.08 1100.89 1047.1 1102.37 1044.5C1103.85 1041.9 1105.87 1039.9 1108.43 1038.5C1110.99 1037.1 1113.85 1036.4 1117.01 1036.4C1120.17 1036.4 1123.03 1037.1 1125.59 1038.5C1128.15 1039.9 1130.17 1041.9 1131.65 1044.5C1133.13 1047.1 1133.87 1050.08 1133.87 1053.44C1133.87 1056.8 1133.11 1059.78 1131.59 1062.38C1130.07 1064.98 1127.99 1067 1125.35 1068.44C1122.75 1069.84 1119.87 1070.54 1116.71 1070.54ZM1116.71 1064.6C1118.47 1064.6 1120.11 1064.18 1121.63 1063.34C1123.19 1062.5 1124.45 1061.24 1125.41 1059.56C1126.37 1057.88 1126.85 1055.84 1126.85 1053.44C1126.85 1051.04 1126.39 1049.02 1125.47 1047.38C1124.55 1045.7 1123.33 1044.44 1121.81 1043.6C1120.29 1042.76 1118.65 1042.34 1116.89 1042.34C1115.13 1042.34 1113.49 1042.76 1111.97 1043.6C1110.49 1044.44 1109.31 1045.7 1108.43 1047.38C1107.55 1049.02 1107.11 1051.04 1107.11 1053.44C1107.11 1057 1108.01 1059.76 1109.81 1061.72C1111.65 1063.64 1113.95 1064.6 1116.71 1064.6ZM1157.31 1036.4C1159.91 1036.4 1162.23 1036.94 1164.27 1038.02C1166.35 1039.1 1167.97 1040.7 1169.13 1042.82C1170.29 1044.94 1170.87 1047.5 1170.87 1050.5V1070H1164.09V1051.52C1164.09 1048.56 1163.35 1046.3 1161.87 1044.74C1160.39 1043.14 1158.37 1042.34 1155.81 1042.34C1153.25 1042.34 1151.21 1043.14 1149.69 1044.74C1148.21 1046.3 1147.47 1048.56 1147.47 1051.52V1070H1140.63V1036.94H1147.47V1040.72C1148.59 1039.36 1150.01 1038.3 1151.73 1037.54C1153.49 1036.78 1155.35 1036.4 1157.31 1036.4ZM1209.89 1052.66C1209.89 1053.9 1209.81 1055.02 1209.65 1056.02H1184.39C1184.59 1058.66 1185.57 1060.78 1187.33 1062.38C1189.09 1063.98 1191.25 1064.78 1193.81 1064.78C1197.49 1064.78 1200.09 1063.24 1201.61 1060.16H1208.99C1207.99 1063.2 1206.17 1065.7 1203.53 1067.66C1200.93 1069.58 1197.69 1070.54 1193.81 1070.54C1190.65 1070.54 1187.81 1069.84 1185.29 1068.44C1182.81 1067 1180.85 1065 1179.41 1062.44C1178.01 1059.84 1177.31 1056.84 1177.31 1053.44C1177.31 1050.04 1177.99 1047.06 1179.35 1044.5C1180.75 1041.9 1182.69 1039.9 1185.17 1038.5C1187.69 1037.1 1190.57 1036.4 1193.81 1036.4C1196.93 1036.4 1199.71 1037.08 1202.15 1038.44C1204.59 1039.8 1206.49 1041.72 1207.85 1044.2C1209.21 1046.64 1209.89 1049.46 1209.89 1052.66ZM1202.75 1050.5C1202.71 1047.98 1201.81 1045.96 1200.05 1044.44C1198.29 1042.92 1196.11 1042.16 1193.51 1042.16C1191.15 1042.16 1189.13 1042.92 1187.45 1044.44C1185.77 1045.92 1184.77 1047.94 1184.45 1050.5H1202.75ZM1246.38 1036.94L1226.1 1085.54H1219.02L1225.74 1069.46L1212.72 1036.94H1220.34L1229.64 1062.14L1239.3 1036.94H1246.38Z" fill="white"/>
<rect x="239" y="967" width="628" height="164" rx="30" fill="#009317" fill-opacity="0.3"/>
<path d="M413.54 1033.82V1046.06H427.94V1051.64H413.54V1064.42H429.74V1070H406.7V1028.24H429.74V1033.82H413.54ZM435.885 1053.32C435.885 1050 436.565 1047.06 437.925 1044.5C439.325 1041.94 441.205 1039.96 443.565 1038.56C445.965 1037.12 448.625 1036.4 451.545 1036.4C453.705 1036.4 455.825 1036.88 457.905 1037.84C460.025 1038.76 461.705 1040 462.945 1041.56V1025.6H469.845V1070H462.945V1065.02C461.825 1066.62 460.265 1067.94 458.265 1068.98C456.305 1070.02 454.045 1070.54 451.485 1070.54C448.605 1070.54 445.965 1069.82 443.565 1068.38C441.205 1066.9 439.325 1064.86 437.925 1062.26C436.565 1059.62 435.885 1056.64 435.885 1053.32ZM462.945 1053.44C462.945 1051.16 462.465 1049.18 461.505 1047.5C460.585 1045.82 459.365 1044.54 457.845 1043.66C456.325 1042.78 454.685 1042.34 452.925 1042.34C451.165 1042.34 449.525 1042.78 448.005 1043.66C446.485 1044.5 445.245 1045.76 444.285 1047.44C443.365 1049.08 442.905 1051.04 442.905 1053.32C442.905 1055.6 443.365 1057.6 444.285 1059.32C445.245 1061.04 446.485 1062.36 448.005 1063.28C449.565 1064.16 451.205 1064.6 452.925 1064.6C454.685 1064.6 456.325 1064.16 457.845 1063.28C459.365 1062.4 460.585 1061.12 461.505 1059.44C462.465 1057.72 462.945 1055.72 462.945 1053.44ZM508.769 1036.94V1070H501.929V1066.1C500.849 1067.46 499.429 1068.54 497.669 1069.34C495.949 1070.1 494.109 1070.48 492.149 1070.48C489.549 1070.48 487.209 1069.94 485.129 1068.86C483.089 1067.78 481.469 1066.18 480.269 1064.06C479.109 1061.94 478.529 1059.38 478.529 1056.38V1036.94H485.309V1055.36C485.309 1058.32 486.049 1060.6 487.529 1062.2C489.009 1063.76 491.029 1064.54 493.589 1064.54C496.149 1064.54 498.169 1063.76 499.649 1062.2C501.169 1060.6 501.929 1058.32 501.929 1055.36V1036.94H508.769ZM515.514 1053.44C515.514 1050.04 516.194 1047.06 517.554 1044.5C518.954 1041.9 520.874 1039.9 523.314 1038.5C525.754 1037.1 528.554 1036.4 531.714 1036.4C535.714 1036.4 539.014 1037.36 541.614 1039.28C544.254 1041.16 546.034 1043.86 546.954 1047.38H539.574C538.974 1045.74 538.014 1044.46 536.694 1043.54C535.374 1042.62 533.714 1042.16 531.714 1042.16C528.914 1042.16 526.674 1043.16 524.994 1045.16C523.354 1047.12 522.534 1049.88 522.534 1053.44C522.534 1057 523.354 1059.78 524.994 1061.78C526.674 1063.78 528.914 1064.78 531.714 1064.78C535.674 1064.78 538.294 1063.04 539.574 1059.56H546.954C545.994 1062.92 544.194 1065.6 541.554 1067.6C538.914 1069.56 535.634 1070.54 531.714 1070.54C528.554 1070.54 525.754 1069.84 523.314 1068.44C520.874 1067 518.954 1065 517.554 1062.44C516.194 1059.84 515.514 1056.84 515.514 1053.44ZM551.491 1053.32C551.491 1050 552.171 1047.06 553.531 1044.5C554.931 1041.94 556.811 1039.96 559.171 1038.56C561.571 1037.12 564.211 1036.4 567.091 1036.4C569.691 1036.4 571.951 1036.92 573.871 1037.96C575.831 1038.96 577.391 1040.22 578.551 1041.74V1036.94H585.451V1070H578.551V1065.08C577.391 1066.64 575.811 1067.94 573.811 1068.98C571.811 1070.02 569.531 1070.54 566.971 1070.54C564.131 1070.54 561.531 1069.82 559.171 1068.38C556.811 1066.9 554.931 1064.86 553.531 1062.26C552.171 1059.62 551.491 1056.64 551.491 1053.32ZM578.551 1053.44C578.551 1051.16 578.071 1049.18 577.111 1047.5C576.191 1045.82 574.971 1044.54 573.451 1043.66C571.931 1042.78 570.291 1042.34 568.531 1042.34C566.771 1042.34 565.131 1042.78 563.611 1043.66C562.091 1044.5 560.851 1045.76 559.891 1047.44C558.971 1049.08 558.511 1051.04 558.511 1053.32C558.511 1055.6 558.971 1057.6 559.891 1059.32C560.851 1061.04 562.091 1062.36 563.611 1063.28C565.171 1064.16 566.811 1064.6 568.531 1064.6C570.291 1064.6 571.931 1064.16 573.451 1063.28C574.971 1062.4 576.191 1061.12 577.111 1059.44C578.071 1057.72 578.551 1055.72 578.551 1053.44ZM602.415 1042.52V1060.82C602.415 1062.06 602.695 1062.96 603.255 1063.52C603.855 1064.04 604.855 1064.3 606.255 1064.3H610.455V1070H605.055C601.975 1070 599.615 1069.28 597.975 1067.84C596.335 1066.4 595.515 1064.06 595.515 1060.82V1042.52H591.615V1036.94H595.515V1028.72H602.415V1036.94H610.455V1042.52H602.415ZM620.239 1032.56C618.999 1032.56 617.959 1032.14 617.119 1031.3C616.279 1030.46 615.859 1029.42 615.859 1028.18C615.859 1026.94 616.279 1025.9 617.119 1025.06C617.959 1024.22 618.999 1023.8 620.239 1023.8C621.439 1023.8 622.459 1024.22 623.299 1025.06C624.139 1025.9 624.559 1026.94 624.559 1028.18C624.559 1029.42 624.139 1030.46 623.299 1031.3C622.459 1032.14 621.439 1032.56 620.239 1032.56ZM623.599 1036.94V1070H616.759V1036.94H623.599ZM646.919 1070.54C643.799 1070.54 640.979 1069.84 638.459 1068.44C635.939 1067 633.959 1065 632.519 1062.44C631.079 1059.84 630.359 1056.84 630.359 1053.44C630.359 1050.08 631.099 1047.1 632.579 1044.5C634.059 1041.9 636.079 1039.9 638.639 1038.5C641.199 1037.1 644.059 1036.4 647.219 1036.4C650.379 1036.4 653.239 1037.1 655.799 1038.5C658.359 1039.9 660.379 1041.9 661.859 1044.5C663.339 1047.1 664.079 1050.08 664.079 1053.44C664.079 1056.8 663.319 1059.78 661.799 1062.38C660.279 1064.98 658.199 1067 655.559 1068.44C652.959 1069.84 650.079 1070.54 646.919 1070.54ZM646.919 1064.6C648.679 1064.6 650.319 1064.18 651.839 1063.34C653.399 1062.5 654.659 1061.24 655.619 1059.56C656.579 1057.88 657.059 1055.84 657.059 1053.44C657.059 1051.04 656.599 1049.02 655.679 1047.38C654.759 1045.7 653.539 1044.44 652.019 1043.6C650.499 1042.76 648.859 1042.34 647.099 1042.34C645.339 1042.34 643.699 1042.76 642.179 1043.6C640.699 1044.44 639.519 1045.7 638.639 1047.38C637.759 1049.02 637.319 1051.04 637.319 1053.44C637.319 1057 638.219 1059.76 640.019 1061.72C641.859 1063.64 644.159 1064.6 646.919 1064.6ZM687.521 1036.4C690.121 1036.4 692.441 1036.94 694.481 1038.02C696.561 1039.1 698.181 1040.7 699.341 1042.82C700.501 1044.94 701.081 1047.5 701.081 1050.5V1070H694.301V1051.52C694.301 1048.56 693.561 1046.3 692.081 1044.74C690.601 1043.14 688.581 1042.34 686.021 1042.34C683.461 1042.34 681.421 1043.14 679.901 1044.74C678.421 1046.3 677.681 1048.56 677.681 1051.52V1070H670.841V1036.94H677.681V1040.72C678.801 1039.36 680.221 1038.3 681.941 1037.54C683.701 1036.78 685.561 1036.4 687.521 1036.4Z" fill="white"/>
<rect x="1424" y="967" width="417" height="164" rx="30" fill="#009317" fill-opacity="0.3"/>
<path d="M1531.77 1070.42C1528.97 1070.42 1526.45 1069.94 1524.21 1068.98C1521.97 1067.98 1520.21 1066.58 1518.93 1064.78C1517.65 1062.98 1517.01 1060.88 1517.01 1058.48H1524.33C1524.49 1060.28 1525.19 1061.76 1526.43 1062.92C1527.71 1064.08 1529.49 1064.66 1531.77 1064.66C1534.13 1064.66 1535.97 1064.1 1537.29 1062.98C1538.61 1061.82 1539.27 1060.34 1539.27 1058.54C1539.27 1057.14 1538.85 1056 1538.01 1055.12C1537.21 1054.24 1536.19 1053.56 1534.95 1053.08C1533.75 1052.6 1532.07 1052.08 1529.91 1051.52C1527.19 1050.8 1524.97 1050.08 1523.25 1049.36C1521.57 1048.6 1520.13 1047.44 1518.93 1045.88C1517.73 1044.32 1517.13 1042.24 1517.13 1039.64C1517.13 1037.24 1517.73 1035.14 1518.93 1033.34C1520.13 1031.54 1521.81 1030.16 1523.97 1029.2C1526.13 1028.24 1528.63 1027.76 1531.47 1027.76C1535.51 1027.76 1538.81 1028.78 1541.37 1030.82C1543.97 1032.82 1545.41 1035.58 1545.69 1039.1H1538.13C1538.01 1037.58 1537.29 1036.28 1535.97 1035.2C1534.65 1034.12 1532.91 1033.58 1530.75 1033.58C1528.79 1033.58 1527.19 1034.08 1525.95 1035.08C1524.71 1036.08 1524.09 1037.52 1524.09 1039.4C1524.09 1040.68 1524.47 1041.74 1525.23 1042.58C1526.03 1043.38 1527.03 1044.02 1528.23 1044.5C1529.43 1044.98 1531.07 1045.5 1533.15 1046.06C1535.91 1046.82 1538.15 1047.58 1539.87 1048.34C1541.63 1049.1 1543.11 1050.28 1544.31 1051.88C1545.55 1053.44 1546.17 1055.54 1546.17 1058.18C1546.17 1060.3 1545.59 1062.3 1544.43 1064.18C1543.31 1066.06 1541.65 1067.58 1539.45 1068.74C1537.29 1069.86 1534.73 1070.42 1531.77 1070.42ZM1551.96 1053.32C1551.96 1050 1552.64 1047.06 1554 1044.5C1555.4 1041.94 1557.28 1039.96 1559.64 1038.56C1562.04 1037.12 1564.68 1036.4 1567.56 1036.4C1570.16 1036.4 1572.42 1036.92 1574.34 1037.96C1576.3 1038.96 1577.86 1040.22 1579.02 1041.74V1036.94H1585.92V1070H1579.02V1065.08C1577.86 1066.64 1576.28 1067.94 1574.28 1068.98C1572.28 1070.02 1570 1070.54 1567.44 1070.54C1564.6 1070.54 1562 1069.82 1559.64 1068.38C1557.28 1066.9 1555.4 1064.86 1554 1062.26C1552.64 1059.62 1551.96 1056.64 1551.96 1053.32ZM1579.02 1053.44C1579.02 1051.16 1578.54 1049.18 1577.58 1047.5C1576.66 1045.82 1575.44 1044.54 1573.92 1043.66C1572.4 1042.78 1570.76 1042.34 1569 1042.34C1567.24 1042.34 1565.6 1042.78 1564.08 1043.66C1562.56 1044.5 1561.32 1045.76 1560.36 1047.44C1559.44 1049.08 1558.98 1051.04 1558.98 1053.32C1558.98 1055.6 1559.44 1057.6 1560.36 1059.32C1561.32 1061.04 1562.56 1062.36 1564.08 1063.28C1565.64 1064.16 1567.28 1064.6 1569 1064.6C1570.76 1064.6 1572.4 1064.16 1573.92 1063.28C1575.44 1062.4 1576.66 1061.12 1577.58 1059.44C1578.54 1057.72 1579.02 1055.72 1579.02 1053.44ZM1607.68 1063.88L1617.04 1036.94H1624.3L1611.7 1070H1603.54L1591 1036.94H1598.32L1607.68 1063.88ZM1632.95 1032.56C1631.71 1032.56 1630.67 1032.14 1629.83 1031.3C1628.99 1030.46 1628.57 1029.42 1628.57 1028.18C1628.57 1026.94 1628.99 1025.9 1629.83 1025.06C1630.67 1024.22 1631.71 1023.8 1632.95 1023.8C1634.15 1023.8 1635.17 1024.22 1636.01 1025.06C1636.85 1025.9 1637.27 1026.94 1637.27 1028.18C1637.27 1029.42 1636.85 1030.46 1636.01 1031.3C1635.17 1032.14 1634.15 1032.56 1632.95 1032.56ZM1636.31 1036.94V1070H1629.47V1036.94H1636.31ZM1661.97 1036.4C1664.57 1036.4 1666.89 1036.94 1668.93 1038.02C1671.01 1039.1 1672.63 1040.7 1673.79 1042.82C1674.95 1044.94 1675.53 1047.5 1675.53 1050.5V1070H1668.75V1051.52C1668.75 1048.56 1668.01 1046.3 1666.53 1044.74C1665.05 1043.14 1663.03 1042.34 1660.47 1042.34C1657.91 1042.34 1655.87 1043.14 1654.35 1044.74C1652.87 1046.3 1652.13 1048.56 1652.13 1051.52V1070H1645.29V1036.94H1652.13V1040.72C1653.25 1039.36 1654.67 1038.3 1656.39 1037.54C1658.15 1036.78 1660.01 1036.4 1661.97 1036.4ZM1697.58 1036.4C1700.14 1036.4 1702.4 1036.92 1704.36 1037.96C1706.36 1038.96 1707.92 1040.22 1709.04 1041.74V1036.94H1715.94V1070.54C1715.94 1073.58 1715.3 1076.28 1714.02 1078.64C1712.74 1081.04 1710.88 1082.92 1708.44 1084.28C1706.04 1085.64 1703.16 1086.32 1699.8 1086.32C1695.32 1086.32 1691.6 1085.26 1688.64 1083.14C1685.68 1081.06 1684 1078.22 1683.6 1074.62H1690.38C1690.9 1076.34 1692 1077.72 1693.68 1078.76C1695.4 1079.84 1697.44 1080.38 1699.8 1080.38C1702.56 1080.38 1704.78 1079.54 1706.46 1077.86C1708.18 1076.18 1709.04 1073.74 1709.04 1070.54V1065.02C1707.88 1066.58 1706.3 1067.9 1704.3 1068.98C1702.34 1070.02 1700.1 1070.54 1697.58 1070.54C1694.7 1070.54 1692.06 1069.82 1689.66 1068.38C1687.3 1066.9 1685.42 1064.86 1684.02 1062.26C1682.66 1059.62 1681.98 1056.64 1681.98 1053.32C1681.98 1050 1682.66 1047.06 1684.02 1044.5C1685.42 1041.94 1687.3 1039.96 1689.66 1038.56C1692.06 1037.12 1694.7 1036.4 1697.58 1036.4ZM1709.04 1053.44C1709.04 1051.16 1708.56 1049.18 1707.6 1047.5C1706.68 1045.82 1705.46 1044.54 1703.94 1043.66C1702.42 1042.78 1700.78 1042.34 1699.02 1042.34C1697.26 1042.34 1695.62 1042.78 1694.1 1043.66C1692.58 1044.5 1691.34 1045.76 1690.38 1047.44C1689.46 1049.08 1689 1051.04 1689 1053.32C1689 1055.6 1689.46 1057.6 1690.38 1059.32C1691.34 1061.04 1692.58 1062.36 1694.1 1063.28C1695.66 1064.16 1697.3 1064.6 1699.02 1064.6C1700.78 1064.6 1702.42 1064.16 1703.94 1063.28C1705.46 1062.4 1706.68 1061.12 1707.6 1059.44C1708.56 1057.72 1709.04 1055.72 1709.04 1053.44ZM1736.92 1070.54C1734.32 1070.54 1731.98 1070.08 1729.9 1069.16C1727.86 1068.2 1726.24 1066.92 1725.04 1065.32C1723.84 1063.68 1723.2 1061.86 1723.12 1059.86H1730.2C1730.32 1061.26 1730.98 1062.44 1732.18 1063.4C1733.42 1064.32 1734.96 1064.78 1736.8 1064.78C1738.72 1064.78 1740.2 1064.42 1741.24 1063.7C1742.32 1062.94 1742.86 1061.98 1742.86 1060.82C1742.86 1059.58 1742.26 1058.66 1741.06 1058.06C1739.9 1057.46 1738.04 1056.8 1735.48 1056.08C1733 1055.4 1730.98 1054.74 1729.42 1054.1C1727.86 1053.46 1726.5 1052.48 1725.34 1051.16C1724.22 1049.84 1723.66 1048.1 1723.66 1045.94C1723.66 1044.18 1724.18 1042.58 1725.22 1041.14C1726.26 1039.66 1727.74 1038.5 1729.66 1037.66C1731.62 1036.82 1733.86 1036.4 1736.38 1036.4C1740.14 1036.4 1743.16 1037.36 1745.44 1039.28C1747.76 1041.16 1749 1043.74 1749.16 1047.02H1742.32C1742.2 1045.54 1741.6 1044.36 1740.52 1043.48C1739.44 1042.6 1737.98 1042.16 1736.14 1042.16C1734.34 1042.16 1732.96 1042.5 1732 1043.18C1731.04 1043.86 1730.56 1044.76 1730.56 1045.88C1730.56 1046.76 1730.88 1047.5 1731.52 1048.1C1732.16 1048.7 1732.94 1049.18 1733.86 1049.54C1734.78 1049.86 1736.14 1050.28 1737.94 1050.8C1740.34 1051.44 1742.3 1052.1 1743.82 1052.78C1745.38 1053.42 1746.72 1054.38 1747.84 1055.66C1748.96 1056.94 1749.54 1058.64 1749.58 1060.76C1749.58 1062.64 1749.06 1064.32 1748.02 1065.8C1746.98 1067.28 1745.5 1068.44 1743.58 1069.28C1741.7 1070.12 1739.48 1070.54 1736.92 1070.54Z" fill="white"/>
</svg>
