<svg width="2020" height="1262" viewBox="0 0 2020 1262" fill="none" xmlns="http://www.w3.org/2000/svg">
<rect y="162" width="735" height="217" fill="#009317"/>
<rect y="562" width="735" height="217" fill="#009317"/>
<rect y="962" width="735" height="217" fill="#009317"/>
<rect x="1285" y="162" width="735" height="217" fill="#009317"/>
<rect x="1285" y="562" width="735" height="217" fill="#009317"/>
<rect x="1285" y="962" width="735" height="217" fill="#009317"/>
<path d="M1246.47 245.475C1247.84 244.108 1247.84 241.892 1246.47 240.525L1224.2 218.251C1222.83 216.884 1220.62 216.884 1219.25 218.251C1217.88 219.618 1217.88 221.834 1219.25 223.201L1239.05 243L1219.25 262.799C1217.88 264.166 1217.88 266.382 1219.25 267.749C1220.62 269.116 1222.83 269.116 1224.2 267.749L1246.47 245.475ZM823 246.5H1244V239.5H823V246.5Z" fill="#009317"/>
<path d="M820.525 725.525C819.158 726.892 819.158 729.108 820.525 730.475L842.799 752.749C844.166 754.116 846.382 754.116 847.749 752.749C849.116 751.382 849.116 749.166 847.749 747.799L827.95 728L847.749 708.201C849.116 706.834 849.116 704.618 847.749 703.251C846.382 701.884 844.166 701.884 842.799 703.251L820.525 725.525ZM1244 724.5H823V731.5H1244V724.5Z" fill="#009317"/>
<path d="M820.525 316.525C819.158 317.892 819.158 320.108 820.525 321.475L842.799 343.749C844.166 345.116 846.382 345.116 847.749 343.749C849.116 342.382 849.116 340.166 847.749 338.799L827.95 319L847.749 299.201C849.116 297.834 849.116 295.618 847.749 294.251C846.382 292.884 844.166 292.884 842.799 294.251L820.525 316.525ZM1244 315.5H823V322.5H1244V315.5Z" fill="#009317"/>
<path d="M796.525 1134.53C795.158 1135.89 795.158 1138.11 796.525 1139.47L818.799 1161.75C820.166 1163.12 822.382 1163.12 823.749 1161.75C825.116 1160.38 825.116 1158.17 823.749 1156.8L803.95 1137L823.749 1117.2C825.116 1115.83 825.116 1113.62 823.749 1112.25C822.382 1110.88 820.166 1110.88 818.799 1112.25L796.525 1134.53ZM1220 1133.5H799V1140.5H1220V1133.5Z" fill="#009317"/>
<path d="M1246.47 654.475C1247.84 653.108 1247.84 650.892 1246.47 649.525L1224.2 627.251C1222.83 625.884 1220.62 625.884 1219.25 627.251C1217.88 628.618 1217.88 630.834 1219.25 632.201L1239.05 652L1219.25 671.799C1217.88 673.166 1217.88 675.382 1219.25 676.749C1220.62 678.116 1222.83 678.116 1224.2 676.749L1246.47 654.475ZM823 655.5H1244V648.5H823V655.5Z" fill="#009317"/>
<path d="M1222.47 1063.47C1223.84 1062.11 1223.84 1059.89 1222.47 1058.53L1200.2 1036.25C1198.83 1034.88 1196.62 1034.88 1195.25 1036.25C1193.88 1037.62 1193.88 1039.83 1195.25 1041.2L1215.05 1061L1195.25 1080.8C1193.88 1082.17 1193.88 1084.38 1195.25 1085.75C1196.62 1087.12 1198.83 1087.12 1200.2 1085.75L1222.47 1063.47ZM799 1064.5H1220V1057.5H799V1064.5Z" fill="#009317"/>
<path d="M194.77 232.05H200.35V249H205.48V232.05H211.06V227.94H194.77V232.05ZM213.634 249H218.764V239.91C218.764 237.63 220.024 236.37 221.974 236.37C223.924 236.37 225.184 237.63 225.184 239.91V249H230.284V239.22C230.284 234.72 227.734 232.08 223.924 232.08C221.614 232.08 219.784 233.07 218.764 234.51V226.8H213.634V249ZM241.229 236.13C242.939 236.13 244.379 237.18 244.379 239.01H237.959C238.259 237.15 239.549 236.13 241.229 236.13ZM249.239 243.45H243.779C243.359 244.35 242.549 245.07 241.109 245.07C239.459 245.07 238.109 244.05 237.929 241.86H249.539C249.599 241.35 249.629 240.84 249.629 240.36C249.629 235.26 246.179 232.02 241.289 232.02C236.309 232.02 232.829 235.32 232.829 240.63C232.829 245.94 236.369 249.24 241.289 249.24C245.459 249.24 248.429 246.72 249.239 243.45ZM260.046 242.73L256.176 232.26H250.446L257.256 248.43L253.416 256.95H258.936L269.436 232.26H263.886L260.046 242.73ZM280.468 249H286.108L288.838 238.14L291.478 249H297.148L301.678 232.26H296.848L294.508 244.17L291.658 232.26H286.228L283.408 244.23L281.038 232.26H275.908L280.468 249ZM302.614 240.6C302.614 245.88 305.884 249.24 309.964 249.24C312.454 249.24 314.224 248.1 315.154 246.63V249H320.284V232.26H315.154V234.63C314.254 233.16 312.484 232.02 309.994 232.02C305.884 232.02 302.614 235.32 302.614 240.6ZM315.154 240.63C315.154 243.3 313.444 244.77 311.494 244.77C309.574 244.77 307.834 243.27 307.834 240.6C307.834 237.93 309.574 236.49 311.494 236.49C313.444 236.49 315.154 237.96 315.154 240.63ZM335.546 249H340.646V239.22C340.646 234.72 338.066 232.08 334.196 232.08C331.946 232.08 330.146 233.07 329.126 234.48V232.26H323.996V249H329.126V239.91C329.126 237.63 330.386 236.37 332.336 236.37C334.286 236.37 335.546 237.63 335.546 239.91V249ZM345.021 243.18C345.021 247.53 347.451 249 350.931 249H353.541V244.65H351.711C350.571 244.65 350.151 244.23 350.151 243.24V236.52H353.511V232.26H350.151V228.18H345.021V232.26H342.981V236.52H345.021V243.18ZM363.778 236.13C365.488 236.13 366.928 237.18 366.928 239.01H360.508C360.808 237.15 362.098 236.13 363.778 236.13ZM371.788 243.45H366.328C365.908 244.35 365.098 245.07 363.658 245.07C362.008 245.07 360.658 244.05 360.478 241.86H372.088C372.148 241.35 372.178 240.84 372.178 240.36C372.178 235.26 368.728 232.02 363.838 232.02C358.858 232.02 355.378 235.32 355.378 240.63C355.378 245.94 358.918 249.24 363.838 249.24C368.008 249.24 370.978 246.72 371.788 243.45ZM373.864 240.6C373.864 245.88 377.134 249.24 381.244 249.24C383.704 249.24 385.474 248.13 386.404 246.6V249H391.534V226.8H386.404V234.57C385.384 233.04 383.464 232.02 381.244 232.02C377.134 232.02 373.864 235.32 373.864 240.6ZM386.404 240.63C386.404 243.3 384.694 244.77 382.744 244.77C380.824 244.77 379.084 243.27 379.084 240.6C379.084 237.93 380.824 236.49 382.744 236.49C384.694 236.49 386.404 237.96 386.404 240.63ZM402.413 243.18C402.413 247.53 404.843 249 408.323 249H410.933V244.65H409.103C407.963 244.65 407.543 244.23 407.543 243.24V236.52H410.903V232.26H407.543V228.18H402.413V232.26H400.373V236.52H402.413V243.18ZM430.171 240.63C430.171 235.32 426.391 232.02 421.471 232.02C416.581 232.02 412.771 235.32 412.771 240.63C412.771 245.94 416.491 249.24 421.411 249.24C426.331 249.24 430.171 245.94 430.171 240.63ZM417.991 240.63C417.991 237.78 419.611 236.46 421.471 236.46C423.271 236.46 424.951 237.78 424.951 240.63C424.951 243.45 423.241 244.8 421.411 244.8C419.551 244.8 417.991 243.45 417.991 240.63ZM439.25 249H444.38V239.91C444.38 237.63 445.64 236.37 447.59 236.37C449.54 236.37 450.8 237.63 450.8 239.91V249H455.9V239.22C455.9 234.72 453.35 232.08 449.54 232.08C447.23 232.08 445.4 233.07 444.38 234.51V226.8H439.25V249ZM458.444 240.6C458.444 245.88 461.714 249.24 465.794 249.24C468.284 249.24 470.054 248.1 470.984 246.63V249H476.114V232.26H470.984V234.63C470.084 233.16 468.314 232.02 465.824 232.02C461.714 232.02 458.444 235.32 458.444 240.6ZM470.984 240.63C470.984 243.3 469.274 244.77 467.324 244.77C465.404 244.77 463.664 243.27 463.664 240.6C463.664 237.93 465.404 236.49 467.324 236.49C469.274 236.49 470.984 237.96 470.984 240.63ZM478.236 232.26L484.176 249H490.506L496.446 232.26H490.986L487.356 244.2L483.726 232.26H478.236ZM505.985 236.13C507.695 236.13 509.135 237.18 509.135 239.01H502.715C503.015 237.15 504.305 236.13 505.985 236.13ZM513.995 243.45H508.535C508.115 244.35 507.305 245.07 505.865 245.07C504.215 245.07 502.865 244.05 502.685 241.86H514.295C514.355 241.35 514.385 240.84 514.385 240.36C514.385 235.26 510.935 232.02 506.045 232.02C501.065 232.02 497.585 235.32 497.585 240.63C497.585 245.94 501.125 249.24 506.045 249.24C510.215 249.24 513.185 246.72 513.995 243.45ZM522.429 240.6C522.429 245.88 525.699 249.24 529.779 249.24C532.269 249.24 534.039 248.1 534.969 246.63V249H540.099V232.26H534.969V234.63C534.069 233.16 532.299 232.02 529.809 232.02C525.699 232.02 522.429 235.32 522.429 240.6ZM534.969 240.63C534.969 243.3 533.259 244.77 531.309 244.77C529.389 244.77 527.649 243.27 527.649 240.6C527.649 237.93 529.389 236.49 531.309 236.49C533.259 236.49 534.969 237.96 534.969 240.63ZM207.339 279.63V271.8H202.209V294H207.339V291.66C208.269 293.13 210.039 294.24 212.499 294.24C216.609 294.24 219.879 290.88 219.879 285.6C219.879 280.32 216.639 277.02 212.499 277.02C210.099 277.02 208.269 278.13 207.339 279.63ZM214.659 285.6C214.659 288.27 212.919 289.77 210.969 289.77C209.049 289.77 207.309 288.3 207.309 285.63C207.309 282.96 209.049 281.49 210.969 281.49C212.919 281.49 214.659 282.93 214.659 285.6ZM239.1 277.26H233.97V286.35C233.97 288.63 232.71 289.89 230.73 289.89C228.81 289.89 227.52 288.63 227.52 286.35V277.26H222.42V287.04C222.42 291.51 225.03 294.18 228.9 294.18C231.15 294.18 232.95 293.16 233.97 291.72V294H239.1V277.26ZM241.765 285.6C241.765 290.88 245.035 294.24 249.145 294.24C251.605 294.24 253.375 293.13 254.305 291.6V294H259.435V271.8H254.305V279.57C253.285 278.04 251.365 277.02 249.145 277.02C245.035 277.02 241.765 280.32 241.765 285.6ZM254.305 285.63C254.305 288.3 252.595 289.77 250.645 289.77C248.725 289.77 246.985 288.27 246.985 285.6C246.985 282.93 248.725 281.49 250.645 281.49C252.595 281.49 254.305 282.96 254.305 285.63ZM262.126 285.6C262.126 290.88 265.396 294.24 269.506 294.24C271.966 294.24 273.736 293.07 274.666 291.6V293.97C274.666 296.79 273.136 297.81 271.186 297.81C269.416 297.81 268.156 297 267.826 295.74H262.756C263.206 299.73 266.446 302.25 271.426 302.25C277.216 302.25 279.796 298.44 279.796 293.97V277.26H274.666V279.63C273.766 278.13 271.966 277.02 269.506 277.02C265.396 277.02 262.126 280.32 262.126 285.6ZM274.666 285.63C274.666 288.3 272.956 289.77 271.006 289.77C269.086 289.77 267.346 288.27 267.346 285.6C267.346 282.93 269.086 281.49 271.006 281.49C272.956 281.49 274.666 282.96 274.666 285.63ZM290.887 281.13C292.597 281.13 294.037 282.18 294.037 284.01H287.617C287.917 282.15 289.207 281.13 290.887 281.13ZM298.897 288.45H293.437C293.017 289.35 292.207 290.07 290.767 290.07C289.117 290.07 287.767 289.05 287.587 286.86H299.197C299.257 286.35 299.287 285.84 299.287 285.36C299.287 280.26 295.837 277.02 290.947 277.02C285.967 277.02 282.487 280.32 282.487 285.63C282.487 290.94 286.027 294.24 290.947 294.24C295.117 294.24 298.087 291.72 298.897 288.45ZM302.804 288.18C302.804 292.53 305.234 294 308.714 294H311.324V289.65H309.494C308.354 289.65 307.934 289.23 307.934 288.24V281.52H311.294V277.26H307.934V273.18H302.804V277.26H300.764V281.52H302.804V288.18ZM314.181 294H319.311V277.26H314.181V294ZM316.761 275.52C318.561 275.52 319.791 274.29 319.791 272.76C319.791 271.2 318.561 269.97 316.761 269.97C314.931 269.97 313.701 271.2 313.701 272.76C313.701 274.29 314.931 275.52 316.761 275.52ZM334.579 294H339.679V284.22C339.679 279.72 337.099 277.08 333.229 277.08C330.979 277.08 329.179 278.07 328.159 279.48V277.26H323.029V294H328.159V284.91C328.159 282.63 329.419 281.37 331.369 281.37C333.319 281.37 334.579 282.63 334.579 284.91V294ZM342.224 285.6C342.224 290.88 345.494 294.24 349.604 294.24C352.064 294.24 353.834 293.07 354.764 291.6V293.97C354.764 296.79 353.234 297.81 351.284 297.81C349.514 297.81 348.254 297 347.924 295.74H342.854C343.304 299.73 346.544 302.25 351.524 302.25C357.314 302.25 359.894 298.44 359.894 293.97V277.26H354.764V279.63C353.864 278.13 352.064 277.02 349.604 277.02C345.494 277.02 342.224 280.32 342.224 285.6ZM354.764 285.63C354.764 288.3 353.054 289.77 351.104 289.77C349.184 289.77 347.444 288.27 347.444 285.6C347.444 282.93 349.184 281.49 351.104 281.49C353.054 281.49 354.764 282.96 354.764 285.63ZM368.943 285.63C368.943 290.94 372.423 294.24 377.343 294.24C381.543 294.24 384.513 291.81 385.383 287.94H379.923C379.473 289.17 378.663 289.86 377.253 289.86C375.423 289.86 374.163 288.42 374.163 285.63C374.163 282.84 375.423 281.4 377.253 281.4C378.663 281.4 379.503 282.15 379.923 283.32H385.383C384.513 279.33 381.543 277.02 377.343 277.02C372.423 277.02 368.943 280.35 368.943 285.63ZM387.107 285.6C387.107 290.88 390.377 294.24 394.457 294.24C396.947 294.24 398.717 293.1 399.647 291.63V294H404.777V277.26H399.647V279.63C398.747 278.16 396.977 277.02 394.487 277.02C390.377 277.02 387.107 280.32 387.107 285.6ZM399.647 285.63C399.647 288.3 397.937 289.77 395.987 289.77C394.067 289.77 392.327 288.27 392.327 285.6C392.327 282.93 394.067 281.49 395.987 281.49C397.937 281.49 399.647 282.96 399.647 285.63ZM408.488 294H413.618V271.8H408.488V294ZM416.316 285.63C416.316 290.94 419.796 294.24 424.716 294.24C428.916 294.24 431.886 291.81 432.756 287.94H427.296C426.846 289.17 426.036 289.86 424.626 289.86C422.796 289.86 421.536 288.42 421.536 285.63C421.536 282.84 422.796 281.4 424.626 281.4C426.036 281.4 426.876 282.15 427.296 283.32H432.756C431.886 279.33 428.916 277.02 424.716 277.02C419.796 277.02 416.316 280.35 416.316 285.63ZM452.03 277.26H446.9V286.35C446.9 288.63 445.64 289.89 443.66 289.89C441.74 289.89 440.45 288.63 440.45 286.35V277.26H435.35V287.04C435.35 291.51 437.96 294.18 441.83 294.18C444.08 294.18 445.88 293.16 446.9 291.72V294H452.03V277.26ZM455.714 294H460.844V271.8H455.714V294ZM463.542 285.6C463.542 290.88 466.812 294.24 470.892 294.24C473.382 294.24 475.152 293.1 476.082 291.63V294H481.212V277.26H476.082V279.63C475.182 278.16 473.412 277.02 470.922 277.02C466.812 277.02 463.542 280.32 463.542 285.6ZM476.082 285.63C476.082 288.3 474.372 289.77 472.422 289.77C470.502 289.77 468.762 288.27 468.762 285.6C468.762 282.93 470.502 281.49 472.422 281.49C474.372 281.49 476.082 282.96 476.082 285.63ZM485.733 288.18C485.733 292.53 488.163 294 491.643 294H494.253V289.65H492.423C491.283 289.65 490.863 289.23 490.863 288.24V281.52H494.223V277.26H490.863V273.18H485.733V277.26H483.693V281.52H485.733V288.18ZM513.491 285.63C513.491 280.32 509.711 277.02 504.791 277.02C499.901 277.02 496.091 280.32 496.091 285.63C496.091 290.94 499.811 294.24 504.731 294.24C509.651 294.24 513.491 290.94 513.491 285.63ZM501.311 285.63C501.311 282.78 502.931 281.46 504.791 281.46C506.591 281.46 508.271 282.78 508.271 285.63C508.271 288.45 506.561 289.8 504.731 289.8C502.871 289.8 501.311 288.45 501.311 285.63ZM521.343 286.23C521.343 283.35 522.753 282.51 525.183 282.51H526.593V277.08C524.343 277.08 522.513 278.28 521.343 280.05V277.26H516.213V294H521.343V286.23ZM534.475 291.48C534.475 289.89 533.245 288.66 531.445 288.66C529.615 288.66 528.385 289.89 528.385 291.48C528.385 293.01 529.615 294.24 531.445 294.24C533.245 294.24 534.475 293.01 534.475 291.48Z" fill="white"/>
<path d="M1482.27 271H1487.4V249.94H1482.27V271ZM1497.48 271H1502.61V254.26H1497.48V271ZM1500.06 252.52C1501.86 252.52 1503.09 251.29 1503.09 249.76C1503.09 248.2 1501.86 246.97 1500.06 246.97C1498.23 246.97 1497 248.2 1497 249.76C1497 251.29 1498.23 252.52 1500.06 252.52ZM1517.87 271H1522.97V261.22C1522.97 256.72 1520.39 254.08 1516.52 254.08C1514.27 254.08 1512.47 255.07 1511.45 256.48V254.26H1506.32V271H1511.45V261.91C1511.45 259.63 1512.71 258.37 1514.66 258.37C1516.61 258.37 1517.87 259.63 1517.87 261.91V271ZM1525.52 262.63C1525.52 267.94 1529 271.24 1533.92 271.24C1538.12 271.24 1541.09 268.81 1541.96 264.94H1536.5C1536.05 266.17 1535.24 266.86 1533.83 266.86C1532 266.86 1530.74 265.42 1530.74 262.63C1530.74 259.84 1532 258.4 1533.83 258.4C1535.24 258.4 1536.08 259.15 1536.5 260.32H1541.96C1541.09 256.33 1538.12 254.02 1533.92 254.02C1529 254.02 1525.52 257.35 1525.52 262.63ZM1544.7 271H1549.83V248.8H1544.7V271ZM1570.08 254.26H1564.95V263.35C1564.95 265.63 1563.69 266.89 1561.71 266.89C1559.79 266.89 1558.5 265.63 1558.5 263.35V254.26H1553.4V264.04C1553.4 268.51 1556.01 271.18 1559.88 271.18C1562.13 271.18 1563.93 270.16 1564.95 268.72V271H1570.08V254.26ZM1572.75 262.6C1572.75 267.88 1576.02 271.24 1580.13 271.24C1582.59 271.24 1584.36 270.13 1585.29 268.6V271H1590.42V248.8H1585.29V256.57C1584.27 255.04 1582.35 254.02 1580.13 254.02C1576.02 254.02 1572.75 257.32 1572.75 262.6ZM1585.29 262.63C1585.29 265.3 1583.58 266.77 1581.63 266.77C1579.71 266.77 1577.97 265.27 1577.97 262.6C1577.97 259.93 1579.71 258.49 1581.63 258.49C1583.58 258.49 1585.29 259.96 1585.29 262.63ZM1601.51 258.13C1603.22 258.13 1604.66 259.18 1604.66 261.01H1598.24C1598.54 259.15 1599.83 258.13 1601.51 258.13ZM1609.52 265.45H1604.06C1603.64 266.35 1602.83 267.07 1601.39 267.07C1599.74 267.07 1598.39 266.05 1598.21 263.86H1609.82C1609.88 263.35 1609.91 262.84 1609.91 262.36C1609.91 257.26 1606.46 254.02 1601.57 254.02C1596.59 254.02 1593.11 257.32 1593.11 262.63C1593.11 267.94 1596.65 271.24 1601.57 271.24C1605.74 271.24 1608.71 268.72 1609.52 265.45ZM1611.59 262.6C1611.59 267.88 1614.86 271.24 1618.97 271.24C1621.43 271.24 1623.2 270.13 1624.13 268.6V271H1629.26V248.8H1624.13V256.57C1623.11 255.04 1621.19 254.02 1618.97 254.02C1614.86 254.02 1611.59 257.32 1611.59 262.6ZM1624.13 262.63C1624.13 265.3 1622.42 266.77 1620.47 266.77C1618.55 266.77 1616.81 265.27 1616.81 262.6C1616.81 259.93 1618.55 258.49 1620.47 258.49C1622.42 258.49 1624.13 259.96 1624.13 262.63ZM1638.31 262.6C1638.31 267.88 1641.58 271.24 1645.66 271.24C1648.15 271.24 1649.92 270.1 1650.85 268.63V271H1655.98V254.26H1650.85V256.63C1649.95 255.16 1648.18 254.02 1645.69 254.02C1641.58 254.02 1638.31 257.32 1638.31 262.6ZM1650.85 262.63C1650.85 265.3 1649.14 266.77 1647.19 266.77C1645.27 266.77 1643.53 265.27 1643.53 262.6C1643.53 259.93 1645.27 258.49 1647.19 258.49C1649.14 258.49 1650.85 259.96 1650.85 262.63ZM1671.18 256.63V248.8H1666.05V271H1671.18V268.66C1672.11 270.13 1673.88 271.24 1676.34 271.24C1680.45 271.24 1683.72 267.88 1683.72 262.6C1683.72 257.32 1680.48 254.02 1676.34 254.02C1673.94 254.02 1672.11 255.13 1671.18 256.63ZM1678.5 262.6C1678.5 265.27 1676.76 266.77 1674.81 266.77C1672.89 266.77 1671.15 265.3 1671.15 262.63C1671.15 259.96 1672.89 258.49 1674.81 258.49C1676.76 258.49 1678.5 259.93 1678.5 262.6ZM1702.94 254.26H1697.81V263.35C1697.81 265.63 1696.55 266.89 1694.57 266.89C1692.65 266.89 1691.36 265.63 1691.36 263.35V254.26H1686.26V264.04C1686.26 268.51 1688.87 271.18 1692.74 271.18C1694.99 271.18 1696.79 270.16 1697.81 268.72V271H1702.94V254.26ZM1705.61 262.6C1705.61 267.88 1708.88 271.24 1712.99 271.24C1715.45 271.24 1717.22 270.13 1718.15 268.6V271H1723.28V248.8H1718.15V256.57C1717.13 255.04 1715.21 254.02 1712.99 254.02C1708.88 254.02 1705.61 257.32 1705.61 262.6ZM1718.15 262.63C1718.15 265.3 1716.44 266.77 1714.49 266.77C1712.57 266.77 1710.83 265.27 1710.83 262.6C1710.83 259.93 1712.57 258.49 1714.49 258.49C1716.44 258.49 1718.15 259.96 1718.15 262.63ZM1725.97 262.6C1725.97 267.88 1729.24 271.24 1733.35 271.24C1735.81 271.24 1737.58 270.07 1738.51 268.6V270.97C1738.51 273.79 1736.98 274.81 1735.03 274.81C1733.26 274.81 1732 274 1731.67 272.74H1726.6C1727.05 276.73 1730.29 279.25 1735.27 279.25C1741.06 279.25 1743.64 275.44 1743.64 270.97V254.26H1738.51V256.63C1737.61 255.13 1735.81 254.02 1733.35 254.02C1729.24 254.02 1725.97 257.32 1725.97 262.6ZM1738.51 262.63C1738.51 265.3 1736.8 266.77 1734.85 266.77C1732.93 266.77 1731.19 265.27 1731.19 262.6C1731.19 259.93 1732.93 258.49 1734.85 258.49C1736.8 258.49 1738.51 259.96 1738.51 262.63ZM1754.73 258.13C1756.44 258.13 1757.88 259.18 1757.88 261.01H1751.46C1751.76 259.15 1753.05 258.13 1754.73 258.13ZM1762.74 265.45H1757.28C1756.86 266.35 1756.05 267.07 1754.61 267.07C1752.96 267.07 1751.61 266.05 1751.43 263.86H1763.04C1763.1 263.35 1763.13 262.84 1763.13 262.36C1763.13 257.26 1759.68 254.02 1754.79 254.02C1749.81 254.02 1746.33 257.32 1746.33 262.63C1746.33 267.94 1749.87 271.24 1754.79 271.24C1758.96 271.24 1761.93 268.72 1762.74 265.45ZM1766.65 265.18C1766.65 269.53 1769.08 271 1772.56 271H1775.17V266.65H1773.34C1772.2 266.65 1771.78 266.23 1771.78 265.24V258.52H1775.14V254.26H1771.78V250.18H1766.65V254.26H1764.61V258.52H1766.65V265.18ZM1778.02 271H1783.15V254.26H1778.02V271ZM1780.6 252.52C1782.4 252.52 1783.63 251.29 1783.63 249.76C1783.63 248.2 1782.4 246.97 1780.6 246.97C1778.77 246.97 1777.54 248.2 1777.54 249.76C1777.54 251.29 1778.77 252.52 1780.6 252.52ZM1798.42 271H1803.52V261.22C1803.52 256.72 1800.94 254.08 1797.07 254.08C1794.82 254.08 1793.02 255.07 1792 256.48V254.26H1786.87V271H1792V261.91C1792 259.63 1793.26 258.37 1795.21 258.37C1797.16 258.37 1798.42 259.63 1798.42 261.91V271ZM1806.07 262.6C1806.07 267.88 1809.34 271.24 1813.45 271.24C1815.91 271.24 1817.68 270.07 1818.61 268.6V270.97C1818.61 273.79 1817.08 274.81 1815.13 274.81C1813.36 274.81 1812.1 274 1811.77 272.74H1806.7C1807.15 276.73 1810.39 279.25 1815.37 279.25C1821.16 279.25 1823.74 275.44 1823.74 270.97V254.26H1818.61V256.63C1817.71 255.13 1815.91 254.02 1813.45 254.02C1809.34 254.02 1806.07 257.32 1806.07 262.6ZM1818.61 262.63C1818.61 265.3 1816.9 266.77 1814.95 266.77C1813.03 266.77 1811.29 265.27 1811.29 262.6C1811.29 259.93 1813.03 258.49 1814.95 258.49C1816.9 258.49 1818.61 259.96 1818.61 262.63ZM1570.07 307.63C1570.07 312.94 1573.55 316.24 1578.47 316.24C1582.67 316.24 1585.64 313.81 1586.51 309.94H1581.05C1580.6 311.17 1579.79 311.86 1578.38 311.86C1576.55 311.86 1575.29 310.42 1575.29 307.63C1575.29 304.84 1576.55 303.4 1578.38 303.4C1579.79 303.4 1580.63 304.15 1581.05 305.32H1586.51C1585.64 301.33 1582.67 299.02 1578.47 299.02C1573.55 299.02 1570.07 302.35 1570.07 307.63ZM1588.23 307.6C1588.23 312.88 1591.5 316.24 1595.58 316.24C1598.07 316.24 1599.84 315.1 1600.77 313.63V316H1605.9V299.26H1600.77V301.63C1599.87 300.16 1598.1 299.02 1595.61 299.02C1591.5 299.02 1588.23 302.32 1588.23 307.6ZM1600.77 307.63C1600.77 310.3 1599.06 311.77 1597.11 311.77C1595.19 311.77 1593.45 310.27 1593.45 307.6C1593.45 304.93 1595.19 303.49 1597.11 303.49C1599.06 303.49 1600.77 304.96 1600.77 307.63ZM1609.61 316H1614.74V293.8H1609.61V316ZM1617.44 307.63C1617.44 312.94 1620.92 316.24 1625.84 316.24C1630.04 316.24 1633.01 313.81 1633.88 309.94H1628.42C1627.97 311.17 1627.16 311.86 1625.75 311.86C1623.92 311.86 1622.66 310.42 1622.66 307.63C1622.66 304.84 1623.92 303.4 1625.75 303.4C1627.16 303.4 1628 304.15 1628.42 305.32H1633.88C1633.01 301.33 1630.04 299.02 1625.84 299.02C1620.92 299.02 1617.44 302.35 1617.44 307.63ZM1653.15 299.26H1648.02V308.35C1648.02 310.63 1646.76 311.89 1644.78 311.89C1642.86 311.89 1641.57 310.63 1641.57 308.35V299.26H1636.47V309.04C1636.47 313.51 1639.08 316.18 1642.95 316.18C1645.2 316.18 1647 315.16 1648.02 313.72V316H1653.15V299.26ZM1656.84 316H1661.97V293.8H1656.84V316ZM1664.67 307.6C1664.67 312.88 1667.94 316.24 1672.02 316.24C1674.51 316.24 1676.28 315.1 1677.21 313.63V316H1682.34V299.26H1677.21V301.63C1676.31 300.16 1674.54 299.02 1672.05 299.02C1667.94 299.02 1664.67 302.32 1664.67 307.6ZM1677.21 307.63C1677.21 310.3 1675.5 311.77 1673.55 311.77C1671.63 311.77 1669.89 310.27 1669.89 307.6C1669.89 304.93 1671.63 303.49 1673.55 303.49C1675.5 303.49 1677.21 304.96 1677.21 307.63ZM1686.86 310.18C1686.86 314.53 1689.29 316 1692.77 316H1695.38V311.65H1693.55C1692.41 311.65 1691.99 311.23 1691.99 310.24V303.52H1695.35V299.26H1691.99V295.18H1686.86V299.26H1684.82V303.52H1686.86V310.18ZM1714.61 307.63C1714.61 302.32 1710.83 299.02 1705.91 299.02C1701.02 299.02 1697.21 302.32 1697.21 307.63C1697.21 312.94 1700.93 316.24 1705.85 316.24C1710.77 316.24 1714.61 312.94 1714.61 307.63ZM1702.43 307.63C1702.43 304.78 1704.05 303.46 1705.91 303.46C1707.71 303.46 1709.39 304.78 1709.39 307.63C1709.39 310.45 1707.68 311.8 1705.85 311.8C1703.99 311.8 1702.43 310.45 1702.43 307.63ZM1722.47 308.23C1722.47 305.35 1723.88 304.51 1726.31 304.51H1727.72V299.08C1725.47 299.08 1723.64 300.28 1722.47 302.05V299.26H1717.34V316H1722.47V308.23ZM1735.6 313.48C1735.6 311.89 1734.37 310.66 1732.57 310.66C1730.74 310.66 1729.51 311.89 1729.51 313.48C1729.51 315.01 1730.74 316.24 1732.57 316.24C1734.37 316.24 1735.6 315.01 1735.6 313.48Z" fill="white"/>
<path d="M140.116 632.05H145.696V649H150.826V632.05H156.406V627.94H140.116V632.05ZM158.981 649H164.111V639.91C164.111 637.63 165.371 636.37 167.321 636.37C169.271 636.37 170.531 637.63 170.531 639.91V649H175.631V639.22C175.631 634.72 173.081 632.08 169.271 632.08C166.961 632.08 165.131 633.07 164.111 634.51V626.8H158.981V649ZM186.576 636.13C188.286 636.13 189.726 637.18 189.726 639.01H183.306C183.606 637.15 184.896 636.13 186.576 636.13ZM194.586 643.45H189.126C188.706 644.35 187.896 645.07 186.456 645.07C184.806 645.07 183.456 644.05 183.276 641.86H194.886C194.946 641.35 194.976 640.84 194.976 640.36C194.976 635.26 191.526 632.02 186.636 632.02C181.656 632.02 178.176 635.32 178.176 640.63C178.176 645.94 181.716 649.24 186.636 649.24C190.806 649.24 193.776 646.72 194.586 643.45ZM205.392 642.73L201.522 632.26H195.792L202.602 648.43L198.762 656.95H204.282L214.782 632.26H209.232L205.392 642.73ZM225.815 649H231.455L234.185 638.14L236.825 649H242.495L247.025 632.26H242.195L239.855 644.17L237.005 632.26H231.575L228.755 644.23L226.385 632.26H221.255L225.815 649ZM247.961 640.6C247.961 645.88 251.231 649.24 255.311 649.24C257.801 649.24 259.571 648.1 260.501 646.63V649H265.631V632.26H260.501V634.63C259.601 633.16 257.831 632.02 255.341 632.02C251.231 632.02 247.961 635.32 247.961 640.6ZM260.501 640.63C260.501 643.3 258.791 644.77 256.841 644.77C254.921 644.77 253.181 643.27 253.181 640.6C253.181 637.93 254.921 636.49 256.841 636.49C258.791 636.49 260.501 637.96 260.501 640.63ZM280.892 649H285.992V639.22C285.992 634.72 283.412 632.08 279.542 632.08C277.292 632.08 275.492 633.07 274.472 634.48V632.26H269.342V649H274.472V639.91C274.472 637.63 275.732 636.37 277.682 636.37C279.632 636.37 280.892 637.63 280.892 639.91V649ZM290.367 643.18C290.367 647.53 292.797 649 296.277 649H298.887V644.65H297.057C295.917 644.65 295.497 644.23 295.497 643.24V636.52H298.857V632.26H295.497V628.18H290.367V632.26H288.327V636.52H290.367V643.18ZM309.125 636.13C310.835 636.13 312.275 637.18 312.275 639.01H305.855C306.155 637.15 307.445 636.13 309.125 636.13ZM317.135 643.45H311.675C311.255 644.35 310.445 645.07 309.005 645.07C307.355 645.07 306.005 644.05 305.825 641.86H317.435C317.495 641.35 317.525 640.84 317.525 640.36C317.525 635.26 314.075 632.02 309.185 632.02C304.205 632.02 300.725 635.32 300.725 640.63C300.725 645.94 304.265 649.24 309.185 649.24C313.355 649.24 316.325 646.72 317.135 643.45ZM319.211 640.6C319.211 645.88 322.481 649.24 326.591 649.24C329.051 649.24 330.821 648.13 331.751 646.6V649H336.881V626.8H331.751V634.57C330.731 633.04 328.811 632.02 326.591 632.02C322.481 632.02 319.211 635.32 319.211 640.6ZM331.751 640.63C331.751 643.3 330.041 644.77 328.091 644.77C326.171 644.77 324.431 643.27 324.431 640.6C324.431 637.93 326.171 636.49 328.091 636.49C330.041 636.49 331.751 637.96 331.751 640.63ZM347.76 643.18C347.76 647.53 350.19 649 353.67 649H356.28V644.65H354.45C353.31 644.65 352.89 644.23 352.89 643.24V636.52H356.25V632.26H352.89V628.18H347.76V632.26H345.72V636.52H347.76V643.18ZM375.517 640.63C375.517 635.32 371.737 632.02 366.817 632.02C361.927 632.02 358.117 635.32 358.117 640.63C358.117 645.94 361.837 649.24 366.757 649.24C371.677 649.24 375.517 645.94 375.517 640.63ZM363.337 640.63C363.337 637.78 364.957 636.46 366.817 636.46C368.617 636.46 370.297 637.78 370.297 640.63C370.297 643.45 368.587 644.8 366.757 644.8C364.897 644.8 363.337 643.45 363.337 640.63ZM384.596 649H389.726V639.91C389.726 637.63 390.986 636.37 392.936 636.37C394.886 636.37 396.146 637.63 396.146 639.91V649H401.246V639.22C401.246 634.72 398.696 632.08 394.886 632.08C392.576 632.08 390.746 633.07 389.726 634.51V626.8H384.596V649ZM403.791 640.6C403.791 645.88 407.061 649.24 411.141 649.24C413.631 649.24 415.401 648.1 416.331 646.63V649H421.461V632.26H416.331V634.63C415.431 633.16 413.661 632.02 411.171 632.02C407.061 632.02 403.791 635.32 403.791 640.6ZM416.331 640.63C416.331 643.3 414.621 644.77 412.671 644.77C410.751 644.77 409.011 643.27 409.011 640.6C409.011 637.93 410.751 636.49 412.671 636.49C414.621 636.49 416.331 637.96 416.331 640.63ZM423.583 632.26L429.523 649H435.853L441.793 632.26H436.333L432.703 644.2L429.073 632.26H423.583ZM451.332 636.13C453.042 636.13 454.482 637.18 454.482 639.01H448.062C448.362 637.15 449.652 636.13 451.332 636.13ZM459.342 643.45H453.882C453.462 644.35 452.652 645.07 451.212 645.07C449.562 645.07 448.212 644.05 448.032 641.86H459.642C459.702 641.35 459.732 640.84 459.732 640.36C459.732 635.26 456.282 632.02 451.392 632.02C446.412 632.02 442.932 635.32 442.932 640.63C442.932 645.94 446.472 649.24 451.392 649.24C455.562 649.24 458.532 646.72 459.342 643.45ZM467.776 640.6C467.776 645.88 471.046 649.24 475.126 649.24C477.616 649.24 479.386 648.1 480.316 646.63V649H485.446V632.26H480.316V634.63C479.416 633.16 477.646 632.02 475.156 632.02C471.046 632.02 467.776 635.32 467.776 640.6ZM480.316 640.63C480.316 643.3 478.606 644.77 476.656 644.77C474.736 644.77 472.996 643.27 472.996 640.6C472.996 637.93 474.736 636.49 476.656 636.49C478.606 636.49 480.316 637.96 480.316 640.63ZM498.334 649H503.974L506.704 638.14L509.344 649H515.014L519.544 632.26H514.714L512.374 644.17L509.524 632.26H504.094L501.274 644.23L498.904 632.26H493.774L498.334 649ZM520.481 640.6C520.481 645.88 523.751 649.24 527.831 649.24C530.321 649.24 532.091 648.1 533.021 646.63V649H538.151V632.26H533.021V634.63C532.121 633.16 530.351 632.02 527.861 632.02C523.751 632.02 520.481 635.32 520.481 640.6ZM533.021 640.63C533.021 643.3 531.311 644.77 529.361 644.77C527.441 644.77 525.701 643.27 525.701 640.6C525.701 637.93 527.441 636.49 529.361 636.49C531.311 636.49 533.021 637.96 533.021 640.63ZM549.572 642.73L545.702 632.26H539.972L546.782 648.43L542.942 656.95H548.462L558.962 632.26H553.412L549.572 642.73ZM567.984 643.18C567.984 647.53 570.414 649 573.894 649H576.504V644.65H574.674C573.534 644.65 573.114 644.23 573.114 643.24V636.52H576.474V632.26H573.114V628.18H567.984V632.26H565.944V636.52H567.984V643.18ZM595.742 640.63C595.742 635.32 591.962 632.02 587.042 632.02C582.152 632.02 578.342 635.32 578.342 640.63C578.342 645.94 582.062 649.24 586.982 649.24C591.902 649.24 595.742 645.94 595.742 640.63ZM583.562 640.63C583.562 637.78 585.182 636.46 587.042 636.46C588.842 636.46 590.522 637.78 590.522 640.63C590.522 643.45 588.812 644.8 586.982 644.8C585.122 644.8 583.562 643.45 583.562 640.63ZM223.059 685.63C223.059 690.94 226.539 694.24 231.459 694.24C235.659 694.24 238.629 691.81 239.499 687.94H234.039C233.589 689.17 232.779 689.86 231.369 689.86C229.539 689.86 228.279 688.42 228.279 685.63C228.279 682.84 229.539 681.4 231.369 681.4C232.779 681.4 233.619 682.15 234.039 683.32H239.499C238.629 679.33 235.659 677.02 231.459 677.02C226.539 677.02 223.059 680.35 223.059 685.63ZM258.623 685.63C258.623 680.32 254.843 677.02 249.923 677.02C245.033 677.02 241.223 680.32 241.223 685.63C241.223 690.94 244.943 694.24 249.863 694.24C254.783 694.24 258.623 690.94 258.623 685.63ZM246.443 685.63C246.443 682.78 248.063 681.46 249.923 681.46C251.723 681.46 253.403 682.78 253.403 685.63C253.403 688.45 251.693 689.8 249.863 689.8C248.003 689.8 246.443 688.45 246.443 685.63ZM272.894 694H277.994V684.22C277.994 679.72 275.414 677.08 271.544 677.08C269.294 677.08 267.494 678.07 266.474 679.48V677.26H261.344V694H266.474V684.91C266.474 682.63 267.734 681.37 269.684 681.37C271.634 681.37 272.894 682.63 272.894 684.91V694ZM293.109 694H298.209V684.22C298.209 679.72 295.629 677.08 291.759 677.08C289.509 677.08 287.709 678.07 286.689 679.48V677.26H281.559V694H286.689V684.91C286.689 682.63 287.949 681.37 289.899 681.37C291.849 681.37 293.109 682.63 293.109 684.91V694ZM309.154 681.13C310.864 681.13 312.304 682.18 312.304 684.01H305.884C306.184 682.15 307.474 681.13 309.154 681.13ZM317.164 688.45H311.704C311.284 689.35 310.474 690.07 309.034 690.07C307.384 690.07 306.034 689.05 305.854 686.86H317.464C317.524 686.35 317.554 685.84 317.554 685.36C317.554 680.26 314.104 677.02 309.214 677.02C304.234 677.02 300.754 680.32 300.754 685.63C300.754 690.94 304.294 694.24 309.214 694.24C313.384 694.24 316.354 691.72 317.164 688.45ZM319.24 685.63C319.24 690.94 322.72 694.24 327.64 694.24C331.84 694.24 334.81 691.81 335.68 687.94H330.22C329.77 689.17 328.96 689.86 327.55 689.86C325.72 689.86 324.46 688.42 324.46 685.63C324.46 682.84 325.72 681.4 327.55 681.4C328.96 681.4 329.8 682.15 330.22 683.32H335.68C334.81 679.33 331.84 677.02 327.64 677.02C322.72 677.02 319.24 680.35 319.24 685.63ZM339.234 688.18C339.234 692.53 341.664 694 345.144 694H347.754V689.65H345.924C344.784 689.65 344.364 689.23 344.364 688.24V681.52H347.724V677.26H344.364V673.18H339.234V677.26H337.194V681.52H339.234V688.18ZM357.779 688.18C357.779 692.53 360.209 694 363.689 694H366.299V689.65H364.469C363.329 689.65 362.909 689.23 362.909 688.24V681.52H366.269V677.26H362.909V673.18H357.779V677.26H355.739V681.52H357.779V688.18ZM385.537 685.63C385.537 680.32 381.757 677.02 376.837 677.02C371.947 677.02 368.137 680.32 368.137 685.63C368.137 690.94 371.857 694.24 376.777 694.24C381.697 694.24 385.537 690.94 385.537 685.63ZM373.357 685.63C373.357 682.78 374.977 681.46 376.837 681.46C378.637 681.46 380.317 682.78 380.317 685.63C380.317 688.45 378.607 689.8 376.777 689.8C374.917 689.8 373.357 688.45 373.357 685.63ZM393.596 685.6C393.596 690.88 396.866 694.24 400.946 694.24C403.436 694.24 405.206 693.1 406.136 691.63V694H411.266V677.26H406.136V679.63C405.236 678.16 403.466 677.02 400.976 677.02C396.866 677.02 393.596 680.32 393.596 685.6ZM406.136 685.63C406.136 688.3 404.426 689.77 402.476 689.77C400.556 689.77 398.816 688.27 398.816 685.6C398.816 682.93 400.556 681.49 402.476 681.49C404.426 681.49 406.136 682.96 406.136 685.63ZM426.465 679.63V671.8H421.335V694H426.465V691.66C427.395 693.13 429.165 694.24 431.625 694.24C435.735 694.24 439.005 690.88 439.005 685.6C439.005 680.32 435.765 677.02 431.625 677.02C429.225 677.02 427.395 678.13 426.465 679.63ZM433.785 685.6C433.785 688.27 432.045 689.77 430.095 689.77C428.175 689.77 426.435 688.3 426.435 685.63C426.435 682.96 428.175 681.49 430.095 681.49C432.045 681.49 433.785 682.93 433.785 685.6ZM440.676 685.6C440.676 690.88 443.946 694.24 448.026 694.24C450.516 694.24 452.286 693.1 453.216 691.63V694H458.346V677.26H453.216V679.63C452.316 678.16 450.546 677.02 448.056 677.02C443.946 677.02 440.676 680.32 440.676 685.6ZM453.216 685.63C453.216 688.3 451.506 689.77 449.556 689.77C447.636 689.77 445.896 688.27 445.896 685.6C445.896 682.93 447.636 681.49 449.556 681.49C451.506 681.49 453.216 682.96 453.216 685.63ZM473.607 694H478.707V684.22C478.707 679.72 476.127 677.08 472.257 677.08C470.007 677.08 468.207 678.07 467.187 679.48V677.26H462.057V694H467.187V684.91C467.187 682.63 468.447 681.37 470.397 681.37C472.347 681.37 473.607 682.63 473.607 684.91V694ZM482.272 694H487.402V686.98L492.502 694H498.862L491.842 685.66L498.802 677.26H492.472L487.402 684.07V671.8H482.272V694ZM506.247 691.48C506.247 689.89 505.017 688.66 503.217 688.66C501.387 688.66 500.157 689.89 500.157 691.48C500.157 693.01 501.387 694.24 503.217 694.24C505.017 694.24 506.247 693.01 506.247 691.48Z" fill="white"/>
<path d="M1455.74 659H1460.87V637.94H1455.74V659ZM1469.93 650.6C1469.93 655.88 1473.2 659.24 1477.28 659.24C1479.77 659.24 1481.54 658.1 1482.47 656.63V659H1487.6V642.26H1482.47V644.63C1481.57 643.16 1479.8 642.02 1477.31 642.02C1473.2 642.02 1469.93 645.32 1469.93 650.6ZM1482.47 650.63C1482.47 653.3 1480.76 654.77 1478.81 654.77C1476.89 654.77 1475.15 653.27 1475.15 650.6C1475.15 647.93 1476.89 646.49 1478.81 646.49C1480.76 646.49 1482.47 647.96 1482.47 650.63ZM1490.29 650.6C1490.29 655.88 1493.56 659.24 1497.67 659.24C1500.13 659.24 1501.9 658.13 1502.83 656.6V659H1507.96V636.8H1502.83V644.57C1501.81 643.04 1499.89 642.02 1497.67 642.02C1493.56 642.02 1490.29 645.32 1490.29 650.6ZM1502.83 650.63C1502.83 653.3 1501.12 654.77 1499.17 654.77C1497.25 654.77 1495.51 653.27 1495.51 650.6C1495.51 647.93 1497.25 646.49 1499.17 646.49C1501.12 646.49 1502.83 647.96 1502.83 650.63ZM1510.65 650.6C1510.65 655.88 1513.92 659.24 1518.03 659.24C1520.49 659.24 1522.26 658.13 1523.19 656.6V659H1528.32V636.8H1523.19V644.57C1522.17 643.04 1520.25 642.02 1518.03 642.02C1513.92 642.02 1510.65 645.32 1510.65 650.6ZM1523.19 650.63C1523.19 653.3 1521.48 654.77 1519.53 654.77C1517.61 654.77 1515.87 653.27 1515.87 650.6C1515.87 647.93 1517.61 646.49 1519.53 646.49C1521.48 646.49 1523.19 647.96 1523.19 650.63ZM1539.41 646.13C1541.12 646.13 1542.56 647.18 1542.56 649.01H1536.14C1536.44 647.15 1537.73 646.13 1539.41 646.13ZM1547.42 653.45H1541.96C1541.54 654.35 1540.73 655.07 1539.29 655.07C1537.64 655.07 1536.29 654.05 1536.11 651.86H1547.72C1547.78 651.35 1547.81 650.84 1547.81 650.36C1547.81 645.26 1544.36 642.02 1539.47 642.02C1534.49 642.02 1531.01 645.32 1531.01 650.63C1531.01 655.94 1534.55 659.24 1539.47 659.24C1543.64 659.24 1546.61 656.72 1547.42 653.45ZM1549.5 650.6C1549.5 655.88 1552.77 659.24 1556.88 659.24C1559.34 659.24 1561.11 658.13 1562.04 656.6V659H1567.17V636.8H1562.04V644.57C1561.02 643.04 1559.1 642.02 1556.88 642.02C1552.77 642.02 1549.5 645.32 1549.5 650.6ZM1562.04 650.63C1562.04 653.3 1560.33 654.77 1558.38 654.77C1556.46 654.77 1554.72 653.27 1554.72 650.6C1554.72 647.93 1556.46 646.49 1558.38 646.49C1560.33 646.49 1562.04 647.96 1562.04 650.63ZM1576.22 650.6C1576.22 655.88 1579.49 659.24 1583.57 659.24C1586.06 659.24 1587.83 658.1 1588.76 656.63V659H1593.89V642.26H1588.76V644.63C1587.86 643.16 1586.09 642.02 1583.6 642.02C1579.49 642.02 1576.22 645.32 1576.22 650.6ZM1588.76 650.63C1588.76 653.3 1587.05 654.77 1585.1 654.77C1583.18 654.77 1581.44 653.27 1581.44 650.6C1581.44 647.93 1583.18 646.49 1585.1 646.49C1587.05 646.49 1588.76 647.96 1588.76 650.63ZM1602.94 650.63C1602.94 655.94 1606.42 659.24 1611.34 659.24C1615.54 659.24 1618.51 656.81 1619.38 652.94H1613.92C1613.47 654.17 1612.66 654.86 1611.25 654.86C1609.42 654.86 1608.16 653.42 1608.16 650.63C1608.16 647.84 1609.42 646.4 1611.25 646.4C1612.66 646.4 1613.5 647.15 1613.92 648.32H1619.38C1618.51 644.33 1615.54 642.02 1611.34 642.02C1606.42 642.02 1602.94 645.35 1602.94 650.63ZM1638.5 650.63C1638.5 645.32 1634.72 642.02 1629.8 642.02C1624.91 642.02 1621.1 645.32 1621.1 650.63C1621.1 655.94 1624.82 659.24 1629.74 659.24C1634.66 659.24 1638.5 655.94 1638.5 650.63ZM1626.32 650.63C1626.32 647.78 1627.94 646.46 1629.8 646.46C1631.6 646.46 1633.28 647.78 1633.28 650.63C1633.28 653.45 1631.57 654.8 1629.74 654.8C1627.88 654.8 1626.32 653.45 1626.32 650.63ZM1652.77 659H1657.87V649.22C1657.87 644.72 1655.29 642.08 1651.42 642.08C1649.17 642.08 1647.37 643.07 1646.35 644.48V642.26H1641.22V659H1646.35V649.91C1646.35 647.63 1647.61 646.37 1649.56 646.37C1651.51 646.37 1652.77 647.63 1652.77 649.91V659ZM1672.99 659H1678.09V649.22C1678.09 644.72 1675.51 642.08 1671.64 642.08C1669.39 642.08 1667.59 643.07 1666.57 644.48V642.26H1661.44V659H1666.57V649.91C1666.57 647.63 1667.83 646.37 1669.78 646.37C1671.73 646.37 1672.99 647.63 1672.99 649.91V659ZM1689.03 646.13C1690.74 646.13 1692.18 647.18 1692.18 649.01H1685.76C1686.06 647.15 1687.35 646.13 1689.03 646.13ZM1697.04 653.45H1691.58C1691.16 654.35 1690.35 655.07 1688.91 655.07C1687.26 655.07 1685.91 654.05 1685.73 651.86H1697.34C1697.4 651.35 1697.43 650.84 1697.43 650.36C1697.43 645.26 1693.98 642.02 1689.09 642.02C1684.11 642.02 1680.63 645.32 1680.63 650.63C1680.63 655.94 1684.17 659.24 1689.09 659.24C1693.26 659.24 1696.23 656.72 1697.04 653.45ZM1699.12 650.63C1699.12 655.94 1702.6 659.24 1707.52 659.24C1711.72 659.24 1714.69 656.81 1715.56 652.94H1710.1C1709.65 654.17 1708.84 654.86 1707.43 654.86C1705.6 654.86 1704.34 653.42 1704.34 650.63C1704.34 647.84 1705.6 646.4 1707.43 646.4C1708.84 646.4 1709.68 647.15 1710.1 648.32H1715.56C1714.69 644.33 1711.72 642.02 1707.52 642.02C1702.6 642.02 1699.12 645.35 1699.12 650.63ZM1719.11 653.18C1719.11 657.53 1721.54 659 1725.02 659H1727.63V654.65H1725.8C1724.66 654.65 1724.24 654.23 1724.24 653.24V646.52H1727.6V642.26H1724.24V638.18H1719.11V642.26H1717.07V646.52H1719.11V653.18ZM1737.66 653.18C1737.66 657.53 1740.09 659 1743.57 659H1746.18V654.65H1744.35C1743.21 654.65 1742.79 654.23 1742.79 653.24V646.52H1746.15V642.26H1742.79V638.18H1737.66V642.26H1735.62V646.52H1737.66V653.18ZM1765.41 650.63C1765.41 645.32 1761.63 642.02 1756.71 642.02C1751.82 642.02 1748.01 645.32 1748.01 650.63C1748.01 655.94 1751.73 659.24 1756.65 659.24C1761.57 659.24 1765.41 655.94 1765.41 650.63ZM1753.23 650.63C1753.23 647.78 1754.85 646.46 1756.71 646.46C1758.51 646.46 1760.19 647.78 1760.19 650.63C1760.19 653.45 1758.48 654.8 1756.65 654.8C1754.79 654.8 1753.23 653.45 1753.23 650.63ZM1779.62 644.63V636.8H1774.49V659H1779.62V656.66C1780.55 658.13 1782.32 659.24 1784.78 659.24C1788.89 659.24 1792.16 655.88 1792.16 650.6C1792.16 645.32 1788.92 642.02 1784.78 642.02C1782.38 642.02 1780.55 643.13 1779.62 644.63ZM1786.94 650.6C1786.94 653.27 1785.2 654.77 1783.25 654.77C1781.33 654.77 1779.59 653.3 1779.59 650.63C1779.59 647.96 1781.33 646.49 1783.25 646.49C1785.2 646.49 1786.94 647.93 1786.94 650.6ZM1793.84 650.6C1793.84 655.88 1797.11 659.24 1801.19 659.24C1803.68 659.24 1805.45 658.1 1806.38 656.63V659H1811.51V642.26H1806.38V644.63C1805.48 643.16 1803.71 642.02 1801.22 642.02C1797.11 642.02 1793.84 645.32 1793.84 650.6ZM1806.38 650.63C1806.38 653.3 1804.67 654.77 1802.72 654.77C1800.8 654.77 1799.06 653.27 1799.06 650.6C1799.06 647.93 1800.8 646.49 1802.72 646.49C1804.67 646.49 1806.38 647.96 1806.38 650.63ZM1826.77 659H1831.87V649.22C1831.87 644.72 1829.29 642.08 1825.42 642.08C1823.17 642.08 1821.37 643.07 1820.35 644.48V642.26H1815.22V659H1820.35V649.91C1820.35 647.63 1821.61 646.37 1823.56 646.37C1825.51 646.37 1826.77 647.63 1826.77 649.91V659ZM1835.43 659H1840.56V651.98L1845.66 659H1852.02L1845 650.66L1851.96 642.26H1845.63L1840.56 649.07V636.8H1835.43V659ZM1594.45 704H1599.58V691.52H1602.34V687.26H1599.58V687.11C1599.58 685.34 1600.27 684.74 1602.25 684.86V680.51C1597.15 680.24 1594.45 682.4 1594.45 686.78V687.26H1592.59V691.52H1594.45V704ZM1612.13 691.13C1613.84 691.13 1615.28 692.18 1615.28 694.01H1608.86C1609.16 692.15 1610.45 691.13 1612.13 691.13ZM1620.14 698.45H1614.68C1614.26 699.35 1613.45 700.07 1612.01 700.07C1610.36 700.07 1609.01 699.05 1608.83 696.86H1620.44C1620.5 696.35 1620.53 695.84 1620.53 695.36C1620.53 690.26 1617.08 687.02 1612.19 687.02C1607.21 687.02 1603.73 690.32 1603.73 695.63C1603.73 700.94 1607.27 704.24 1612.19 704.24C1616.36 704.24 1619.33 701.72 1620.14 698.45ZM1622.21 695.6C1622.21 700.88 1625.48 704.24 1629.56 704.24C1632.05 704.24 1633.82 703.1 1634.75 701.63V704H1639.88V687.26H1634.75V689.63C1633.85 688.16 1632.08 687.02 1629.59 687.02C1625.48 687.02 1622.21 690.32 1622.21 695.6ZM1634.75 695.63C1634.75 698.3 1633.04 699.77 1631.09 699.77C1629.17 699.77 1627.43 698.27 1627.43 695.6C1627.43 692.93 1629.17 691.49 1631.09 691.49C1633.04 691.49 1634.75 692.96 1634.75 695.63ZM1644.41 698.18C1644.41 702.53 1646.84 704 1650.32 704H1652.93V699.65H1651.1C1649.96 699.65 1649.54 699.23 1649.54 698.24V691.52H1652.9V687.26H1649.54V683.18H1644.41V687.26H1642.37V691.52H1644.41V698.18ZM1672.31 687.26H1667.18V696.35C1667.18 698.63 1665.92 699.89 1663.94 699.89C1662.02 699.89 1660.73 698.63 1660.73 696.35V687.26H1655.63V697.04C1655.63 701.51 1658.24 704.18 1662.11 704.18C1664.36 704.18 1666.16 703.16 1667.18 701.72V704H1672.31V687.26ZM1681.13 696.23C1681.13 693.35 1682.54 692.51 1684.97 692.51H1686.38V687.08C1684.13 687.08 1682.3 688.28 1681.13 690.05V687.26H1676V704H1681.13V696.23ZM1696.21 691.13C1697.92 691.13 1699.36 692.18 1699.36 694.01H1692.94C1693.24 692.15 1694.53 691.13 1696.21 691.13ZM1704.22 698.45H1698.76C1698.34 699.35 1697.53 700.07 1696.09 700.07C1694.44 700.07 1693.09 699.05 1692.91 696.86H1704.52C1704.58 696.35 1704.61 695.84 1704.61 695.36C1704.61 690.26 1701.16 687.02 1696.27 687.02C1691.29 687.02 1687.81 690.32 1687.81 695.63C1687.81 700.94 1691.35 704.24 1696.27 704.24C1700.44 704.24 1703.41 701.72 1704.22 698.45ZM1712.75 701.48C1712.75 699.89 1711.52 698.66 1709.72 698.66C1707.89 698.66 1706.66 699.89 1706.66 701.48C1706.66 703.01 1707.89 704.24 1709.72 704.24C1711.52 704.24 1712.75 703.01 1712.75 701.48Z" fill="white"/>
<path d="M1491.18 1072H1496.31V1050.94H1491.18V1072ZM1505.36 1063.6C1505.36 1068.88 1508.63 1072.24 1512.71 1072.24C1515.2 1072.24 1516.97 1071.1 1517.9 1069.63V1072H1523.03V1055.26H1517.9V1057.63C1517 1056.16 1515.23 1055.02 1512.74 1055.02C1508.63 1055.02 1505.36 1058.32 1505.36 1063.6ZM1517.9 1063.63C1517.9 1066.3 1516.19 1067.77 1514.24 1067.77C1512.32 1067.77 1510.58 1066.27 1510.58 1063.6C1510.58 1060.93 1512.32 1059.49 1514.24 1059.49C1516.19 1059.49 1517.9 1060.96 1517.9 1063.63ZM1525.72 1063.6C1525.72 1068.88 1528.99 1072.24 1533.1 1072.24C1535.56 1072.24 1537.33 1071.13 1538.26 1069.6V1072H1543.39V1049.8H1538.26V1057.57C1537.24 1056.04 1535.32 1055.02 1533.1 1055.02C1528.99 1055.02 1525.72 1058.32 1525.72 1063.6ZM1538.26 1063.63C1538.26 1066.3 1536.55 1067.77 1534.6 1067.77C1532.68 1067.77 1530.94 1066.27 1530.94 1063.6C1530.94 1060.93 1532.68 1059.49 1534.6 1059.49C1536.55 1059.49 1538.26 1060.96 1538.26 1063.63ZM1546.09 1063.6C1546.09 1068.88 1549.36 1072.24 1553.47 1072.24C1555.93 1072.24 1557.7 1071.13 1558.63 1069.6V1072H1563.76V1049.8H1558.63V1057.57C1557.61 1056.04 1555.69 1055.02 1553.47 1055.02C1549.36 1055.02 1546.09 1058.32 1546.09 1063.6ZM1558.63 1063.63C1558.63 1066.3 1556.92 1067.77 1554.97 1067.77C1553.05 1067.77 1551.31 1066.27 1551.31 1063.6C1551.31 1060.93 1553.05 1059.49 1554.97 1059.49C1556.92 1059.49 1558.63 1060.96 1558.63 1063.63ZM1574.85 1059.13C1576.56 1059.13 1578 1060.18 1578 1062.01H1571.58C1571.88 1060.15 1573.17 1059.13 1574.85 1059.13ZM1582.86 1066.45H1577.4C1576.98 1067.35 1576.17 1068.07 1574.73 1068.07C1573.08 1068.07 1571.73 1067.05 1571.55 1064.86H1583.16C1583.22 1064.35 1583.25 1063.84 1583.25 1063.36C1583.25 1058.26 1579.8 1055.02 1574.91 1055.02C1569.93 1055.02 1566.45 1058.32 1566.45 1063.63C1566.45 1068.94 1569.99 1072.24 1574.91 1072.24C1579.08 1072.24 1582.05 1069.72 1582.86 1066.45ZM1584.93 1063.6C1584.93 1068.88 1588.2 1072.24 1592.31 1072.24C1594.77 1072.24 1596.54 1071.13 1597.47 1069.6V1072H1602.6V1049.8H1597.47V1057.57C1596.45 1056.04 1594.53 1055.02 1592.31 1055.02C1588.2 1055.02 1584.93 1058.32 1584.93 1063.6ZM1597.47 1063.63C1597.47 1066.3 1595.76 1067.77 1593.81 1067.77C1591.89 1067.77 1590.15 1066.27 1590.15 1063.6C1590.15 1060.93 1591.89 1059.49 1593.81 1059.49C1595.76 1059.49 1597.47 1060.96 1597.47 1063.63ZM1611.65 1063.6C1611.65 1068.88 1614.92 1072.24 1619 1072.24C1621.49 1072.24 1623.26 1071.1 1624.19 1069.63V1072H1629.32V1055.26H1624.19V1057.63C1623.29 1056.16 1621.52 1055.02 1619.03 1055.02C1614.92 1055.02 1611.65 1058.32 1611.65 1063.6ZM1624.19 1063.63C1624.19 1066.3 1622.48 1067.77 1620.53 1067.77C1618.61 1067.77 1616.87 1066.27 1616.87 1063.6C1616.87 1060.93 1618.61 1059.49 1620.53 1059.49C1622.48 1059.49 1624.19 1060.96 1624.19 1063.63ZM1638.37 1063.6C1638.37 1068.88 1641.64 1072.24 1645.75 1072.24C1648.21 1072.24 1649.98 1071.13 1650.91 1069.6V1072H1656.04V1049.8H1650.91V1057.57C1649.89 1056.04 1647.97 1055.02 1645.75 1055.02C1641.64 1055.02 1638.37 1058.32 1638.37 1063.6ZM1650.91 1063.63C1650.91 1066.3 1649.2 1067.77 1647.25 1067.77C1645.33 1067.77 1643.59 1066.27 1643.59 1063.6C1643.59 1060.93 1645.33 1059.49 1647.25 1059.49C1649.2 1059.49 1650.91 1060.96 1650.91 1063.63ZM1658.73 1063.6C1658.73 1068.88 1662 1072.24 1666.08 1072.24C1668.57 1072.24 1670.34 1071.1 1671.27 1069.63V1072H1676.4V1055.26H1671.27V1057.63C1670.37 1056.16 1668.6 1055.02 1666.11 1055.02C1662 1055.02 1658.73 1058.32 1658.73 1063.6ZM1671.27 1063.63C1671.27 1066.3 1669.56 1067.77 1667.61 1067.77C1665.69 1067.77 1663.95 1066.27 1663.95 1063.6C1663.95 1060.93 1665.69 1059.49 1667.61 1059.49C1669.56 1059.49 1671.27 1060.96 1671.27 1063.63ZM1693.7 1067.14C1693.61 1060.9 1684.55 1062.79 1684.55 1060.12C1684.55 1059.31 1685.21 1058.83 1686.41 1058.83C1687.85 1058.83 1688.72 1059.58 1688.87 1060.72H1693.61C1693.28 1057.42 1690.88 1055.02 1686.56 1055.02C1682.18 1055.02 1679.75 1057.36 1679.75 1060.21C1679.75 1066.36 1688.87 1064.41 1688.87 1067.11C1688.87 1067.86 1688.18 1068.46 1686.86 1068.46C1685.45 1068.46 1684.4 1067.68 1684.28 1066.51H1679.21C1679.45 1069.75 1682.45 1072.24 1686.92 1072.24C1691.12 1072.24 1693.7 1070.05 1693.7 1067.14ZM1696.84 1072H1701.97V1062.91C1701.97 1060.63 1703.23 1059.37 1705.18 1059.37C1707.13 1059.37 1708.39 1060.63 1708.39 1062.91V1072H1713.49V1062.22C1713.49 1057.72 1710.94 1055.08 1707.13 1055.08C1704.82 1055.08 1702.99 1056.07 1701.97 1057.51V1049.8H1696.84V1072ZM1722.19 1057.63V1049.8H1717.06V1072H1722.19V1069.66C1723.12 1071.13 1724.89 1072.24 1727.35 1072.24C1731.46 1072.24 1734.73 1068.88 1734.73 1063.6C1734.73 1058.32 1731.49 1055.02 1727.35 1055.02C1724.95 1055.02 1723.12 1056.13 1722.19 1057.63ZM1729.51 1063.6C1729.51 1066.27 1727.77 1067.77 1725.82 1067.77C1723.9 1067.77 1722.16 1066.3 1722.16 1063.63C1722.16 1060.96 1723.9 1059.49 1725.82 1059.49C1727.77 1059.49 1729.51 1060.93 1729.51 1063.6ZM1753.8 1063.63C1753.8 1058.32 1750.02 1055.02 1745.1 1055.02C1740.21 1055.02 1736.4 1058.32 1736.4 1063.63C1736.4 1068.94 1740.12 1072.24 1745.04 1072.24C1749.96 1072.24 1753.8 1068.94 1753.8 1063.63ZM1741.62 1063.63C1741.62 1060.78 1743.24 1059.46 1745.1 1059.46C1746.9 1059.46 1748.58 1060.78 1748.58 1063.63C1748.58 1066.45 1746.87 1067.8 1745.04 1067.8C1743.18 1067.8 1741.62 1066.45 1741.62 1063.63ZM1755.5 1063.6C1755.5 1068.88 1758.77 1072.24 1762.85 1072.24C1765.34 1072.24 1767.11 1071.1 1768.04 1069.63V1072H1773.17V1055.26H1768.04V1057.63C1767.14 1056.16 1765.37 1055.02 1762.88 1055.02C1758.77 1055.02 1755.5 1058.32 1755.5 1063.6ZM1768.04 1063.63C1768.04 1066.3 1766.33 1067.77 1764.38 1067.77C1762.46 1067.77 1760.72 1066.27 1760.72 1063.6C1760.72 1060.93 1762.46 1059.49 1764.38 1059.49C1766.33 1059.49 1768.04 1060.96 1768.04 1063.63ZM1782.01 1064.23C1782.01 1061.35 1783.42 1060.51 1785.85 1060.51H1787.26V1055.08C1785.01 1055.08 1783.18 1056.28 1782.01 1058.05V1055.26H1776.88V1072H1782.01V1064.23ZM1788.69 1063.6C1788.69 1068.88 1791.96 1072.24 1796.07 1072.24C1798.53 1072.24 1800.3 1071.13 1801.23 1069.6V1072H1806.36V1049.8H1801.23V1057.57C1800.21 1056.04 1798.29 1055.02 1796.07 1055.02C1791.96 1055.02 1788.69 1058.32 1788.69 1063.6ZM1801.23 1063.63C1801.23 1066.3 1799.52 1067.77 1797.57 1067.77C1795.65 1067.77 1793.91 1066.27 1793.91 1063.6C1793.91 1060.93 1795.65 1059.49 1797.57 1059.49C1799.52 1059.49 1801.23 1060.96 1801.23 1063.63ZM1815.5 1069.48C1815.5 1067.89 1814.27 1066.66 1812.47 1066.66C1810.64 1066.66 1809.41 1067.89 1809.41 1069.48C1809.41 1071.01 1810.64 1072.24 1812.47 1072.24C1814.27 1072.24 1815.5 1071.01 1815.5 1069.48Z" fill="white"/>
<path d="M113.837 1054.05H119.417V1071H124.547V1054.05H130.127V1049.94H113.837V1054.05ZM132.702 1071H137.832V1061.91C137.832 1059.63 139.092 1058.37 141.042 1058.37C142.992 1058.37 144.252 1059.63 144.252 1061.91V1071H149.352V1061.22C149.352 1056.72 146.802 1054.08 142.992 1054.08C140.682 1054.08 138.852 1055.07 137.832 1056.51V1048.8H132.702V1071ZM160.297 1058.13C162.007 1058.13 163.447 1059.18 163.447 1061.01H157.027C157.327 1059.15 158.617 1058.13 160.297 1058.13ZM168.307 1065.45H162.847C162.427 1066.35 161.617 1067.07 160.177 1067.07C158.527 1067.07 157.177 1066.05 156.997 1063.86H168.607C168.667 1063.35 168.697 1062.84 168.697 1062.36C168.697 1057.26 165.247 1054.02 160.357 1054.02C155.377 1054.02 151.897 1057.32 151.897 1062.63C151.897 1067.94 155.437 1071.24 160.357 1071.24C164.527 1071.24 167.497 1068.72 168.307 1065.45ZM179.113 1064.73L175.243 1054.26H169.513L176.323 1070.43L172.483 1078.95H178.003L188.503 1054.26H182.953L179.113 1064.73ZM199.535 1071H205.175L207.905 1060.14L210.545 1071H216.215L220.745 1054.26H215.915L213.575 1066.17L210.725 1054.26H205.295L202.475 1066.23L200.105 1054.26H194.975L199.535 1071ZM221.682 1062.6C221.682 1067.88 224.952 1071.24 229.032 1071.24C231.522 1071.24 233.292 1070.1 234.222 1068.63V1071H239.352V1054.26H234.222V1056.63C233.322 1055.16 231.552 1054.02 229.062 1054.02C224.952 1054.02 221.682 1057.32 221.682 1062.6ZM234.222 1062.63C234.222 1065.3 232.512 1066.77 230.562 1066.77C228.642 1066.77 226.902 1065.27 226.902 1062.6C226.902 1059.93 228.642 1058.49 230.562 1058.49C232.512 1058.49 234.222 1059.96 234.222 1062.63ZM254.613 1071H259.713V1061.22C259.713 1056.72 257.133 1054.08 253.263 1054.08C251.013 1054.08 249.213 1055.07 248.193 1056.48V1054.26H243.063V1071H248.193V1061.91C248.193 1059.63 249.453 1058.37 251.403 1058.37C253.353 1058.37 254.613 1059.63 254.613 1061.91V1071ZM264.088 1065.18C264.088 1069.53 266.518 1071 269.998 1071H272.608V1066.65H270.778C269.638 1066.65 269.218 1066.23 269.218 1065.24V1058.52H272.578V1054.26H269.218V1050.18H264.088V1054.26H262.048V1058.52H264.088V1065.18ZM282.845 1058.13C284.555 1058.13 285.995 1059.18 285.995 1061.01H279.575C279.875 1059.15 281.165 1058.13 282.845 1058.13ZM290.855 1065.45H285.395C284.975 1066.35 284.165 1067.07 282.725 1067.07C281.075 1067.07 279.725 1066.05 279.545 1063.86H291.155C291.215 1063.35 291.245 1062.84 291.245 1062.36C291.245 1057.26 287.795 1054.02 282.905 1054.02C277.925 1054.02 274.445 1057.32 274.445 1062.63C274.445 1067.94 277.985 1071.24 282.905 1071.24C287.075 1071.24 290.045 1068.72 290.855 1065.45ZM292.932 1062.6C292.932 1067.88 296.202 1071.24 300.312 1071.24C302.772 1071.24 304.542 1070.13 305.472 1068.6V1071H310.602V1048.8H305.472V1056.57C304.452 1055.04 302.532 1054.02 300.312 1054.02C296.202 1054.02 292.932 1057.32 292.932 1062.6ZM305.472 1062.63C305.472 1065.3 303.762 1066.77 301.812 1066.77C299.892 1066.77 298.152 1065.27 298.152 1062.6C298.152 1059.93 299.892 1058.49 301.812 1058.49C303.762 1058.49 305.472 1059.96 305.472 1062.63ZM321.481 1065.18C321.481 1069.53 323.911 1071 327.391 1071H330.001V1066.65H328.171C327.031 1066.65 326.611 1066.23 326.611 1065.24V1058.52H329.971V1054.26H326.611V1050.18H321.481V1054.26H319.441V1058.52H321.481V1065.18ZM349.238 1062.63C349.238 1057.32 345.458 1054.02 340.538 1054.02C335.648 1054.02 331.838 1057.32 331.838 1062.63C331.838 1067.94 335.558 1071.24 340.478 1071.24C345.398 1071.24 349.238 1067.94 349.238 1062.63ZM337.058 1062.63C337.058 1059.78 338.678 1058.46 340.538 1058.46C342.338 1058.46 344.018 1059.78 344.018 1062.63C344.018 1065.45 342.308 1066.8 340.478 1066.8C338.618 1066.8 337.058 1065.45 337.058 1062.63ZM358.317 1071H363.447V1061.91C363.447 1059.63 364.707 1058.37 366.657 1058.37C368.607 1058.37 369.867 1059.63 369.867 1061.91V1071H374.967V1061.22C374.967 1056.72 372.417 1054.08 368.607 1054.08C366.297 1054.08 364.467 1055.07 363.447 1056.51V1048.8H358.317V1071ZM377.512 1062.6C377.512 1067.88 380.782 1071.24 384.862 1071.24C387.352 1071.24 389.122 1070.1 390.052 1068.63V1071H395.182V1054.26H390.052V1056.63C389.152 1055.16 387.382 1054.02 384.892 1054.02C380.782 1054.02 377.512 1057.32 377.512 1062.6ZM390.052 1062.63C390.052 1065.3 388.342 1066.77 386.392 1066.77C384.472 1066.77 382.732 1065.27 382.732 1062.6C382.732 1059.93 384.472 1058.49 386.392 1058.49C388.342 1058.49 390.052 1059.96 390.052 1062.63ZM397.303 1054.26L403.243 1071H409.573L415.513 1054.26H410.053L406.423 1066.2L402.793 1054.26H397.303ZM425.053 1058.13C426.763 1058.13 428.203 1059.18 428.203 1061.01H421.783C422.083 1059.15 423.373 1058.13 425.053 1058.13ZM433.063 1065.45H427.603C427.183 1066.35 426.373 1067.07 424.933 1067.07C423.283 1067.07 421.933 1066.05 421.753 1063.86H433.363C433.423 1063.35 433.452 1062.84 433.452 1062.36C433.452 1057.26 430.003 1054.02 425.113 1054.02C420.133 1054.02 416.653 1057.32 416.653 1062.63C416.653 1067.94 420.193 1071.24 425.113 1071.24C429.283 1071.24 432.253 1068.72 433.063 1065.45ZM441.496 1062.6C441.496 1067.88 444.766 1071.24 448.846 1071.24C451.336 1071.24 453.106 1070.1 454.036 1068.63V1071H459.166V1054.26H454.036V1056.63C453.136 1055.16 451.366 1054.02 448.876 1054.02C444.766 1054.02 441.496 1057.32 441.496 1062.6ZM454.036 1062.63C454.036 1065.3 452.326 1066.77 450.376 1066.77C448.456 1066.77 446.716 1065.27 446.716 1062.6C446.716 1059.93 448.456 1058.49 450.376 1058.49C452.326 1058.49 454.036 1059.96 454.036 1062.63ZM468.215 1062.6C468.215 1067.88 471.485 1071.24 475.595 1071.24C478.055 1071.24 479.825 1070.13 480.755 1068.6V1071H485.885V1048.8H480.755V1056.57C479.735 1055.04 477.815 1054.02 475.595 1054.02C471.485 1054.02 468.215 1057.32 468.215 1062.6ZM480.755 1062.63C480.755 1065.3 479.045 1066.77 477.095 1066.77C475.175 1066.77 473.435 1065.27 473.435 1062.6C473.435 1059.93 475.175 1058.49 477.095 1058.49C479.045 1058.49 480.755 1059.96 480.755 1062.63ZM488.576 1062.6C488.576 1067.88 491.846 1071.24 495.926 1071.24C498.416 1071.24 500.186 1070.1 501.116 1068.63V1071H506.246V1054.26H501.116V1056.63C500.216 1055.16 498.446 1054.02 495.956 1054.02C491.846 1054.02 488.576 1057.32 488.576 1062.6ZM501.116 1062.63C501.116 1065.3 499.406 1066.77 497.456 1066.77C495.536 1066.77 493.796 1065.27 493.796 1062.6C493.796 1059.93 495.536 1058.49 497.456 1058.49C499.406 1058.49 501.116 1059.96 501.116 1062.63ZM523.548 1066.14C523.458 1059.9 514.398 1061.79 514.398 1059.12C514.398 1058.31 515.058 1057.83 516.258 1057.83C517.698 1057.83 518.568 1058.58 518.718 1059.72H523.458C523.128 1056.42 520.728 1054.02 516.408 1054.02C512.028 1054.02 509.598 1056.36 509.598 1059.21C509.598 1065.36 518.718 1063.41 518.718 1066.11C518.718 1066.86 518.028 1067.46 516.708 1067.46C515.298 1067.46 514.248 1066.68 514.128 1065.51H509.058C509.298 1068.75 512.298 1071.24 516.768 1071.24C520.968 1071.24 523.548 1069.05 523.548 1066.14ZM526.686 1071H531.816V1061.91C531.816 1059.63 533.076 1058.37 535.026 1058.37C536.976 1058.37 538.236 1059.63 538.236 1061.91V1071H543.336V1061.22C543.336 1056.72 540.786 1054.08 536.976 1054.08C534.666 1054.08 532.836 1055.07 531.816 1056.51V1048.8H526.686V1071ZM552.031 1056.63V1048.8H546.901V1071H552.031V1068.66C552.961 1070.13 554.731 1071.24 557.191 1071.24C561.301 1071.24 564.571 1067.88 564.571 1062.6C564.571 1057.32 561.331 1054.02 557.191 1054.02C554.791 1054.02 552.961 1055.13 552.031 1056.63ZM559.351 1062.6C559.351 1065.27 557.611 1066.77 555.661 1066.77C553.741 1066.77 552.001 1065.3 552.001 1062.63C552.001 1059.96 553.741 1058.49 555.661 1058.49C557.611 1058.49 559.351 1059.93 559.351 1062.6ZM583.642 1062.63C583.642 1057.32 579.862 1054.02 574.942 1054.02C570.052 1054.02 566.242 1057.32 566.242 1062.63C566.242 1067.94 569.962 1071.24 574.882 1071.24C579.802 1071.24 583.642 1067.94 583.642 1062.63ZM571.462 1062.63C571.462 1059.78 573.082 1058.46 574.942 1058.46C576.742 1058.46 578.422 1059.78 578.422 1062.63C578.422 1065.45 576.712 1066.8 574.882 1066.8C573.022 1066.8 571.462 1065.45 571.462 1062.63ZM585.344 1062.6C585.344 1067.88 588.614 1071.24 592.694 1071.24C595.184 1071.24 596.954 1070.1 597.884 1068.63V1071H603.014V1054.26H597.884V1056.63C596.984 1055.16 595.214 1054.02 592.724 1054.02C588.614 1054.02 585.344 1057.32 585.344 1062.6ZM597.884 1062.63C597.884 1065.3 596.174 1066.77 594.224 1066.77C592.304 1066.77 590.564 1065.27 590.564 1062.6C590.564 1059.93 592.304 1058.49 594.224 1058.49C596.174 1058.49 597.884 1059.96 597.884 1062.63ZM611.855 1063.23C611.855 1060.35 613.265 1059.51 615.695 1059.51H617.105V1054.08C614.855 1054.08 613.025 1055.28 611.855 1057.05V1054.26H606.725V1071H611.855V1063.23ZM618.537 1062.6C618.537 1067.88 621.807 1071.24 625.917 1071.24C628.377 1071.24 630.147 1070.13 631.077 1068.6V1071H636.207V1048.8H631.077V1056.57C630.057 1055.04 628.137 1054.02 625.917 1054.02C621.807 1054.02 618.537 1057.32 618.537 1062.6ZM631.077 1062.63C631.077 1065.3 629.367 1066.77 627.417 1066.77C625.497 1066.77 623.757 1065.27 623.757 1062.6C623.757 1059.93 625.497 1058.49 627.417 1058.49C629.367 1058.49 631.077 1059.96 631.077 1062.63ZM645.349 1068.48C645.349 1066.89 644.119 1065.66 642.319 1065.66C640.489 1065.66 639.259 1066.89 639.259 1068.48C639.259 1070.01 640.489 1071.24 642.319 1071.24C644.119 1071.24 645.349 1070.01 645.349 1068.48Z" fill="white"/>
<path d="M230.918 15.4545V62H221.077V15.4545H230.918ZM248.514 41.8182V62H238.832V27.0909H248.06V33.25H248.469C249.241 31.2197 250.537 29.6136 252.355 28.4318C254.173 27.2348 256.378 26.6364 258.969 26.6364C261.393 26.6364 263.507 27.1667 265.31 28.2273C267.113 29.2879 268.514 30.803 269.514 32.7727C270.514 34.7273 271.014 37.0606 271.014 39.7727V62H261.332V41.5C261.348 39.3636 260.802 37.697 259.696 36.5C258.59 35.2879 257.067 34.6818 255.128 34.6818C253.825 34.6818 252.673 34.9621 251.673 35.5227C250.688 36.0833 249.916 36.9015 249.355 37.9773C248.81 39.0379 248.529 40.3182 248.514 41.8182ZM307.69 37.0455L298.827 37.5909C298.675 36.8333 298.349 36.1515 297.849 35.5455C297.349 34.9242 296.69 34.4318 295.872 34.0682C295.069 33.6894 294.107 33.5 292.986 33.5C291.486 33.5 290.221 33.8182 289.19 34.4545C288.16 35.0758 287.645 35.9091 287.645 36.9545C287.645 37.7879 287.978 38.4924 288.645 39.0682C289.312 39.6439 290.455 40.1061 292.077 40.4545L298.395 41.7273C301.789 42.4242 304.319 43.5455 305.986 45.0909C307.652 46.6364 308.486 48.6667 308.486 51.1818C308.486 53.4697 307.812 55.4773 306.463 57.2045C305.13 58.9318 303.296 60.2803 300.963 61.25C298.645 62.2045 295.971 62.6818 292.94 62.6818C288.319 62.6818 284.637 61.7197 281.895 59.7955C279.168 57.8561 277.569 55.2197 277.099 51.8864L286.622 51.3864C286.91 52.7955 287.607 53.8712 288.713 54.6136C289.819 55.3409 291.236 55.7045 292.963 55.7045C294.66 55.7045 296.024 55.3788 297.054 54.7273C298.099 54.0606 298.63 53.2045 298.645 52.1591C298.63 51.2803 298.259 50.5606 297.531 50C296.804 49.4242 295.683 48.9848 294.168 48.6818L288.122 47.4773C284.713 46.7955 282.175 45.6136 280.509 43.9318C278.857 42.25 278.031 40.1061 278.031 37.5C278.031 35.2576 278.637 33.3258 279.849 31.7045C281.077 30.0833 282.796 28.8333 285.009 27.9545C287.236 27.0758 289.842 26.6364 292.827 26.6364C297.236 26.6364 300.705 27.5682 303.236 29.4318C305.781 31.2955 307.266 33.8333 307.69 37.0455ZM314.582 62V27.0909H324.264V62H314.582ZM319.446 22.5909C318.007 22.5909 316.772 22.1136 315.741 21.1591C314.726 20.1894 314.219 19.0303 314.219 17.6818C314.219 16.3485 314.726 15.2045 315.741 14.25C316.772 13.2803 318.007 12.7955 319.446 12.7955C320.885 12.7955 322.113 13.2803 323.128 14.25C324.158 15.2045 324.673 16.3485 324.673 17.6818C324.673 19.0303 324.158 20.1894 323.128 21.1591C322.113 22.1136 320.885 22.5909 319.446 22.5909ZM347.747 75.8182C344.611 75.8182 341.921 75.3864 339.679 74.5227C337.452 73.6742 335.679 72.5152 334.361 71.0455C333.043 69.5758 332.187 67.9242 331.793 66.0909L340.747 64.8864C341.02 65.5833 341.452 66.2348 342.043 66.8409C342.634 67.447 343.414 67.9318 344.384 68.2955C345.368 68.6742 346.565 68.8636 347.974 68.8636C350.08 68.8636 351.815 68.3485 353.179 67.3182C354.558 66.303 355.247 64.5985 355.247 62.2045V55.8182H354.838C354.414 56.7879 353.777 57.7045 352.929 58.5682C352.08 59.4318 350.99 60.1364 349.656 60.6818C348.323 61.2273 346.732 61.5 344.884 61.5C342.262 61.5 339.876 60.8939 337.724 59.6818C335.588 58.4545 333.884 56.5833 332.611 54.0682C331.353 51.5379 330.724 48.3409 330.724 44.4773C330.724 40.5227 331.368 37.2197 332.656 34.5682C333.944 31.9167 335.656 29.9318 337.793 28.6136C339.944 27.2955 342.3 26.6364 344.861 26.6364C346.815 26.6364 348.452 26.9697 349.77 27.6364C351.088 28.2879 352.149 29.1061 352.952 30.0909C353.77 31.0606 354.399 32.0152 354.838 32.9545H355.202V27.0909H364.815V62.3409C364.815 65.3106 364.088 67.7955 362.634 69.7955C361.179 71.7955 359.164 73.2955 356.588 74.2955C354.027 75.3106 351.08 75.8182 347.747 75.8182ZM347.952 54.2273C349.512 54.2273 350.83 53.8409 351.906 53.0682C352.997 52.2803 353.83 51.1591 354.406 49.7045C354.997 48.2348 355.293 46.4773 355.293 44.4318C355.293 42.3864 355.005 40.6136 354.429 39.1136C353.853 37.5985 353.02 36.4242 351.929 35.5909C350.838 34.7576 349.512 34.3409 347.952 34.3409C346.361 34.3409 345.02 34.7727 343.929 35.6364C342.838 36.4848 342.012 37.6667 341.452 39.1818C340.891 40.697 340.611 42.447 340.611 44.4318C340.611 46.447 340.891 48.1894 341.452 49.6591C342.027 51.1136 342.853 52.2424 343.929 53.0455C345.02 53.8333 346.361 54.2273 347.952 54.2273ZM382.202 41.8182V62H372.52V15.4545H381.929V33.25H382.338C383.126 31.1894 384.399 29.5758 386.156 28.4091C387.914 27.2273 390.118 26.6364 392.77 26.6364C395.194 26.6364 397.308 27.1667 399.111 28.2273C400.929 29.2727 402.338 30.7803 403.338 32.75C404.353 34.7045 404.853 37.0455 404.838 39.7727V62H395.156V41.5C395.171 39.3485 394.626 37.6742 393.52 36.4773C392.429 35.2803 390.899 34.6818 388.929 34.6818C387.611 34.6818 386.444 34.9621 385.429 35.5227C384.429 36.0833 383.641 36.9015 383.065 37.9773C382.505 39.0379 382.217 40.3182 382.202 41.8182ZM431.026 27.0909V34.3636H410.003V27.0909H431.026ZM414.776 18.7273H424.457V51.2727C424.457 52.1667 424.594 52.8636 424.866 53.3636C425.139 53.8485 425.518 54.1894 426.003 54.3864C426.503 54.5833 427.079 54.6818 427.73 54.6818C428.185 54.6818 428.639 54.6439 429.094 54.5682C429.548 54.4773 429.897 54.4091 430.139 54.3636L431.662 61.5682C431.177 61.7197 430.495 61.8939 429.616 62.0909C428.738 62.303 427.67 62.4318 426.412 62.4773C424.079 62.5682 422.033 62.2576 420.276 61.5455C418.533 60.8333 417.177 59.7273 416.207 58.2273C415.238 56.7273 414.76 54.8333 414.776 52.5455V18.7273ZM465.94 37.0455L457.077 37.5909C456.925 36.8333 456.599 36.1515 456.099 35.5455C455.599 34.9242 454.94 34.4318 454.122 34.0682C453.319 33.6894 452.357 33.5 451.236 33.5C449.736 33.5 448.471 33.8182 447.44 34.4545C446.41 35.0758 445.895 35.9091 445.895 36.9545C445.895 37.7879 446.228 38.4924 446.895 39.0682C447.562 39.6439 448.705 40.1061 450.327 40.4545L456.645 41.7273C460.039 42.4242 462.569 43.5455 464.236 45.0909C465.902 46.6364 466.736 48.6667 466.736 51.1818C466.736 53.4697 466.062 55.4773 464.713 57.2045C463.38 58.9318 461.546 60.2803 459.213 61.25C456.895 62.2045 454.221 62.6818 451.19 62.6818C446.569 62.6818 442.887 61.7197 440.145 59.7955C437.418 57.8561 435.819 55.2197 435.349 51.8864L444.872 51.3864C445.16 52.7955 445.857 53.8712 446.963 54.6136C448.069 55.3409 449.486 55.7045 451.213 55.7045C452.91 55.7045 454.274 55.3788 455.304 54.7273C456.349 54.0606 456.88 53.2045 456.895 52.1591C456.88 51.2803 456.509 50.5606 455.781 50C455.054 49.4242 453.933 48.9848 452.418 48.6818L446.372 47.4773C442.963 46.7955 440.425 45.6136 438.759 43.9318C437.107 42.25 436.281 40.1061 436.281 37.5C436.281 35.2576 436.887 33.3258 438.099 31.7045C439.327 30.0833 441.046 28.8333 443.259 27.9545C445.486 27.0758 448.092 26.6364 451.077 26.6364C455.486 26.6364 458.955 27.5682 461.486 29.4318C464.031 31.2955 465.516 33.8333 465.94 37.0455Z" fill="black"/>
<path d="M1377.51 62V15.4545H1408.33V23.5682H1387.36V34.6591H1406.29V42.7727H1387.36V62H1377.51ZM1428.12 62.6818C1424.53 62.6818 1421.43 61.9545 1418.84 60.5C1416.27 59.0303 1414.28 56.9545 1412.89 54.2727C1411.5 51.5758 1410.8 48.3864 1410.8 44.7045C1410.8 41.1136 1411.5 37.9621 1412.89 35.25C1414.28 32.5379 1416.25 30.4242 1418.78 28.9091C1421.32 27.3939 1424.31 26.6364 1427.73 26.6364C1430.03 26.6364 1432.18 27.0076 1434.16 27.75C1436.16 28.4773 1437.9 29.5758 1439.39 31.0455C1440.89 32.5152 1442.06 34.3636 1442.89 36.5909C1443.72 38.803 1444.14 41.3939 1444.14 44.3636V47.0227H1414.66V41.0227H1435.03C1435.03 39.6288 1434.72 38.3939 1434.12 37.3182C1433.51 36.2424 1432.67 35.4015 1431.59 34.7955C1430.53 34.1742 1429.3 33.8636 1427.89 33.8636C1426.42 33.8636 1425.12 34.2045 1423.98 34.8864C1422.86 35.553 1421.98 36.4545 1421.34 37.5909C1420.71 38.7121 1420.38 39.9621 1420.37 41.3409V47.0455C1420.37 48.7727 1420.68 50.2652 1421.32 51.5227C1421.97 52.7803 1422.89 53.75 1424.07 54.4318C1425.25 55.1136 1426.65 55.4545 1428.28 55.4545C1429.35 55.4545 1430.34 55.303 1431.23 55C1432.12 54.697 1432.89 54.2424 1433.53 53.6364C1434.16 53.0303 1434.65 52.2879 1434.98 51.4091L1443.93 52C1443.48 54.1515 1442.55 56.0303 1441.14 57.6364C1439.75 59.2273 1437.94 60.4697 1435.73 61.3636C1433.53 62.2424 1431 62.6818 1428.12 62.6818ZM1460.41 62.6591C1458.18 62.6591 1456.2 62.2727 1454.46 61.5C1452.71 60.7121 1451.34 59.553 1450.32 58.0227C1449.32 56.4773 1448.82 54.553 1448.82 52.25C1448.82 50.3106 1449.18 48.6818 1449.89 47.3636C1450.6 46.0455 1451.57 44.9848 1452.8 44.1818C1454.03 43.3788 1455.42 42.7727 1456.98 42.3636C1458.56 41.9545 1460.21 41.6667 1461.93 41.5C1463.96 41.2879 1465.6 41.0909 1466.84 40.9091C1468.09 40.7121 1468.99 40.4242 1469.55 40.0455C1470.11 39.6667 1470.39 39.1061 1470.39 38.3636V38.2273C1470.39 36.7879 1469.93 35.6742 1469.03 34.8864C1468.13 34.0985 1466.86 33.7045 1465.21 33.7045C1463.46 33.7045 1462.08 34.0909 1461.05 34.8636C1460.02 35.6212 1459.34 36.5758 1459 37.7273L1450.05 37C1450.5 34.8788 1451.4 33.0455 1452.73 31.5C1454.06 29.9394 1455.78 28.7424 1457.89 27.9091C1460.01 27.0606 1462.46 26.6364 1465.25 26.6364C1467.19 26.6364 1469.05 26.8636 1470.82 27.3182C1472.61 27.7727 1474.19 28.4773 1475.57 29.4318C1476.96 30.3864 1478.06 31.6136 1478.87 33.1136C1479.67 34.5985 1480.07 36.3788 1480.07 38.4545V62H1470.89V57.1591H1470.62C1470.06 58.25 1469.31 59.2121 1468.37 60.0455C1467.43 60.8636 1466.3 61.5076 1464.98 61.9773C1463.66 62.4318 1462.14 62.6591 1460.41 62.6591ZM1463.18 55.9773C1464.61 55.9773 1465.87 55.697 1466.96 55.1364C1468.05 54.5606 1468.9 53.7879 1469.53 52.8182C1470.15 51.8485 1470.46 50.75 1470.46 49.5227V45.8182C1470.15 46.0152 1469.74 46.197 1469.21 46.3636C1468.69 46.5152 1468.11 46.6591 1467.46 46.7955C1466.81 46.9167 1466.15 47.0303 1465.5 47.1364C1464.85 47.2273 1464.26 47.3106 1463.73 47.3864C1462.59 47.553 1461.6 47.8182 1460.75 48.1818C1459.9 48.5455 1459.25 49.0379 1458.78 49.6591C1458.31 50.2652 1458.07 51.0227 1458.07 51.9318C1458.07 53.25 1458.55 54.2576 1459.5 54.9545C1460.47 55.6364 1461.7 55.9773 1463.18 55.9773ZM1506.15 27.0909V34.3636H1485.13V27.0909H1506.15ZM1489.9 18.7273H1499.58V51.2727C1499.58 52.1667 1499.72 52.8636 1499.99 53.3636C1500.26 53.8485 1500.64 54.1894 1501.13 54.3864C1501.63 54.5833 1502.2 54.6818 1502.86 54.6818C1503.31 54.6818 1503.76 54.6439 1504.22 54.5682C1504.67 54.4773 1505.02 54.4091 1505.26 54.3636L1506.79 61.5682C1506.3 61.7197 1505.62 61.8939 1504.74 62.0909C1503.86 62.303 1502.79 62.4318 1501.54 62.4773C1499.2 62.5682 1497.16 62.2576 1495.4 61.5455C1493.66 60.8333 1492.3 59.7273 1491.33 58.2273C1490.36 56.7273 1489.89 54.8333 1489.9 52.5455V18.7273ZM1534.84 47.1364V27.0909H1544.53V62H1535.23V55.6591H1534.87C1534.08 57.7045 1532.77 59.3485 1530.93 60.5909C1529.12 61.8333 1526.9 62.4545 1524.28 62.4545C1521.94 62.4545 1519.89 61.9242 1518.12 60.8636C1516.34 59.803 1514.96 58.2955 1513.96 56.3409C1512.97 54.3864 1512.47 52.0455 1512.46 49.3182V27.0909H1522.14V47.5909C1522.15 49.6515 1522.71 51.2803 1523.8 52.4773C1524.89 53.6742 1526.35 54.2727 1528.18 54.2727C1529.35 54.2727 1530.44 54.0076 1531.46 53.4773C1532.47 52.9318 1533.29 52.1288 1533.91 51.0682C1534.55 50.0076 1534.86 48.697 1534.84 47.1364ZM1552.27 62V27.0909H1561.66V33.1818H1562.02C1562.66 31.0152 1563.72 29.3788 1565.22 28.2727C1566.72 27.1515 1568.45 26.5909 1570.41 26.5909C1570.89 26.5909 1571.41 26.6212 1571.97 26.6818C1572.54 26.7424 1573.03 26.8258 1573.45 26.9318V35.5227C1573 35.3864 1572.37 35.2652 1571.57 35.1591C1570.76 35.053 1570.03 35 1569.36 35C1567.94 35 1566.66 35.3106 1565.54 35.9318C1564.44 36.5379 1563.56 37.3864 1562.91 38.4773C1562.27 39.5682 1561.95 40.8258 1561.95 42.25V62H1552.27ZM1592.74 62.6818C1589.15 62.6818 1586.06 61.9545 1583.47 60.5C1580.89 59.0303 1578.91 56.9545 1577.51 54.2727C1576.12 51.5758 1575.42 48.3864 1575.42 44.7045C1575.42 41.1136 1576.12 37.9621 1577.51 35.25C1578.91 32.5379 1580.87 30.4242 1583.4 28.9091C1585.95 27.3939 1588.93 26.6364 1592.36 26.6364C1594.66 26.6364 1596.8 27.0076 1598.79 27.75C1600.79 28.4773 1602.53 29.5758 1604.01 31.0455C1605.51 32.5152 1606.68 34.3636 1607.51 36.5909C1608.35 38.803 1608.76 41.3939 1608.76 44.3636V47.0227H1579.29V41.0227H1599.65C1599.65 39.6288 1599.35 38.3939 1598.74 37.3182C1598.14 36.2424 1597.29 35.4015 1596.22 34.7955C1595.16 34.1742 1593.92 33.8636 1592.51 33.8636C1591.04 33.8636 1589.74 34.2045 1588.61 34.8864C1587.48 35.553 1586.61 36.4545 1585.97 37.5909C1585.33 38.7121 1585.01 39.9621 1584.99 41.3409V47.0455C1584.99 48.7727 1585.31 50.2652 1585.95 51.5227C1586.6 52.7803 1587.51 53.75 1588.7 54.4318C1589.88 55.1136 1591.28 55.4545 1592.9 55.4545C1593.98 55.4545 1594.96 55.303 1595.86 55C1596.75 54.697 1597.51 54.2424 1598.15 53.6364C1598.79 53.0303 1599.27 52.2879 1599.61 51.4091L1608.56 52C1608.11 54.1515 1607.17 56.0303 1605.76 57.6364C1604.37 59.2273 1602.57 60.4697 1600.36 61.3636C1598.16 62.2424 1595.62 62.6818 1592.74 62.6818ZM1644.13 37.0455L1635.26 37.5909C1635.11 36.8333 1634.79 36.1515 1634.29 35.5455C1633.79 34.9242 1633.13 34.4318 1632.31 34.0682C1631.51 33.6894 1630.54 33.5 1629.42 33.5C1627.92 33.5 1626.66 33.8182 1625.63 34.4545C1624.6 35.0758 1624.08 35.9091 1624.08 36.9545C1624.08 37.7879 1624.42 38.4924 1625.08 39.0682C1625.75 39.6439 1626.89 40.1061 1628.51 40.4545L1634.83 41.7273C1638.23 42.4242 1640.76 43.5455 1642.42 45.0909C1644.09 46.6364 1644.92 48.6667 1644.92 51.1818C1644.92 53.4697 1644.25 55.4773 1642.9 57.2045C1641.57 58.9318 1639.73 60.2803 1637.4 61.25C1635.08 62.2045 1632.41 62.6818 1629.38 62.6818C1624.76 62.6818 1621.07 61.7197 1618.33 59.7955C1615.61 57.8561 1614.01 55.2197 1613.54 51.8864L1623.06 51.3864C1623.35 52.7955 1624.04 53.8712 1625.15 54.6136C1626.26 55.3409 1627.67 55.7045 1629.4 55.7045C1631.1 55.7045 1632.46 55.3788 1633.49 54.7273C1634.54 54.0606 1635.07 53.2045 1635.08 52.1591C1635.07 51.2803 1634.7 50.5606 1633.97 50C1633.24 49.4242 1632.12 48.9848 1630.61 48.6818L1624.56 47.4773C1621.15 46.7955 1618.61 45.6136 1616.95 43.9318C1615.29 42.25 1614.47 40.1061 1614.47 37.5C1614.47 35.2576 1615.07 33.3258 1616.29 31.7045C1617.51 30.0833 1619.23 28.8333 1621.45 27.9545C1623.67 27.0758 1626.28 26.6364 1629.26 26.6364C1633.67 26.6364 1637.14 27.5682 1639.67 29.4318C1642.22 31.2955 1643.7 33.8333 1644.13 37.0455ZM1674.04 62H1663.49L1679.56 15.4545H1692.24L1708.29 62H1697.74L1686.08 26.0909H1685.72L1674.04 62ZM1673.38 43.7045H1698.29V51.3864H1673.38V43.7045ZM1724.95 62.5682C1722.29 62.5682 1719.89 61.8864 1717.74 60.5227C1715.61 59.1439 1713.91 57.1212 1712.65 54.4545C1711.41 51.7727 1710.79 48.4848 1710.79 44.5909C1710.79 40.5909 1711.43 37.2652 1712.72 34.6136C1714.01 31.947 1715.72 29.9545 1717.86 28.6364C1720.01 27.303 1722.36 26.6364 1724.92 26.6364C1726.88 26.6364 1728.51 26.9697 1729.81 27.6364C1731.13 28.2879 1732.19 29.1061 1732.99 30.0909C1733.81 31.0606 1734.43 32.0152 1734.86 32.9545H1735.15V15.4545H1744.81V62H1735.26V56.4091H1734.86C1734.4 57.3788 1733.76 58.3409 1732.92 59.2955C1732.11 60.2348 1731.04 61.0152 1729.72 61.6364C1728.42 62.2576 1726.82 62.5682 1724.95 62.5682ZM1728.01 54.8636C1729.57 54.8636 1730.89 54.4394 1731.97 53.5909C1733.06 52.7273 1733.89 51.5227 1734.47 49.9773C1735.06 48.4318 1735.36 46.6212 1735.36 44.5455C1735.36 42.4697 1735.07 40.6667 1734.49 39.1364C1733.92 37.6061 1733.08 36.4242 1731.99 35.5909C1730.9 34.7576 1729.57 34.3409 1728.01 34.3409C1726.42 34.3409 1725.08 34.7727 1723.99 35.6364C1722.9 36.5 1722.07 37.697 1721.51 39.2273C1720.95 40.7576 1720.67 42.5303 1720.67 44.5455C1720.67 46.5758 1720.95 48.3712 1721.51 49.9318C1722.09 51.4773 1722.92 52.6894 1723.99 53.5682C1725.08 54.4318 1726.42 54.8636 1728.01 54.8636ZM1765.63 62.5682C1762.98 62.5682 1760.58 61.8864 1758.43 60.5227C1756.29 59.1439 1754.6 57.1212 1753.34 54.4545C1752.1 51.7727 1751.47 48.4848 1751.47 44.5909C1751.47 40.5909 1752.12 37.2652 1753.41 34.6136C1754.69 31.947 1756.41 29.9545 1758.54 28.6364C1760.69 27.303 1763.05 26.6364 1765.61 26.6364C1767.57 26.6364 1769.19 26.9697 1770.5 27.6364C1771.82 28.2879 1772.88 29.1061 1773.68 30.0909C1774.5 31.0606 1775.12 32.0152 1775.54 32.9545H1775.84V15.4545H1785.5V62H1775.95V56.4091H1775.54C1775.09 57.3788 1774.44 58.3409 1773.61 59.2955C1772.79 60.2348 1771.72 61.0152 1770.41 61.6364C1769.1 62.2576 1767.51 62.5682 1765.63 62.5682ZM1768.7 54.8636C1770.26 54.8636 1771.58 54.4394 1772.66 53.5909C1773.75 52.7273 1774.58 51.5227 1775.16 49.9773C1775.75 48.4318 1776.04 46.6212 1776.04 44.5455C1776.04 42.4697 1775.75 40.6667 1775.18 39.1364C1774.6 37.6061 1773.77 36.4242 1772.68 35.5909C1771.59 34.7576 1770.26 34.3409 1768.7 34.3409C1767.11 34.3409 1765.77 34.7727 1764.68 35.6364C1763.59 36.5 1762.76 37.697 1762.2 39.2273C1761.64 40.7576 1761.36 42.5303 1761.36 44.5455C1761.36 46.5758 1761.64 48.3712 1762.2 49.9318C1762.78 51.4773 1763.6 52.6894 1764.68 53.5682C1765.77 54.4318 1767.11 54.8636 1768.7 54.8636ZM1809.37 62.6818C1805.78 62.6818 1802.68 61.9545 1800.09 60.5C1797.52 59.0303 1795.53 56.9545 1794.14 54.2727C1792.75 51.5758 1792.05 48.3864 1792.05 44.7045C1792.05 41.1136 1792.75 37.9621 1794.14 35.25C1795.53 32.5379 1797.5 30.4242 1800.03 28.9091C1802.57 27.3939 1805.56 26.6364 1808.98 26.6364C1811.28 26.6364 1813.43 27.0076 1815.41 27.75C1817.41 28.4773 1819.15 29.5758 1820.64 31.0455C1822.14 32.5152 1823.31 34.3636 1824.14 36.5909C1824.97 38.803 1825.39 41.3939 1825.39 44.3636V47.0227H1795.91V41.0227H1816.28C1816.28 39.6288 1815.97 38.3939 1815.37 37.3182C1814.76 36.2424 1813.92 35.4015 1812.84 34.7955C1811.78 34.1742 1810.55 33.8636 1809.14 33.8636C1807.67 33.8636 1806.37 34.2045 1805.23 34.8864C1804.11 35.553 1803.23 36.4545 1802.59 37.5909C1801.96 38.7121 1801.63 39.9621 1801.62 41.3409V47.0455C1801.62 48.7727 1801.93 50.2652 1802.57 51.5227C1803.22 52.7803 1804.14 53.75 1805.32 54.4318C1806.5 55.1136 1807.9 55.4545 1809.53 55.4545C1810.6 55.4545 1811.59 55.303 1812.48 55C1813.37 54.697 1814.14 54.2424 1814.78 53.6364C1815.41 53.0303 1815.9 52.2879 1816.23 51.4091L1825.18 52C1824.73 54.1515 1823.8 56.0303 1822.39 57.6364C1821 59.2273 1819.19 60.4697 1816.98 61.3636C1814.78 62.2424 1812.25 62.6818 1809.37 62.6818ZM1844.57 62.5682C1841.92 62.5682 1839.52 61.8864 1837.37 60.5227C1835.23 59.1439 1833.53 57.1212 1832.28 54.4545C1831.03 51.7727 1830.41 48.4848 1830.41 44.5909C1830.41 40.5909 1831.06 37.2652 1832.34 34.6136C1833.63 31.947 1835.34 29.9545 1837.48 28.6364C1839.63 27.303 1841.99 26.6364 1844.55 26.6364C1846.5 26.6364 1848.13 26.9697 1849.43 27.6364C1850.75 28.2879 1851.81 29.1061 1852.62 30.0909C1853.43 31.0606 1854.06 32.0152 1854.48 32.9545H1854.78V15.4545H1864.43V62H1854.89V56.4091H1854.48C1854.03 57.3788 1853.38 58.3409 1852.55 59.2955C1851.73 60.2348 1850.66 61.0152 1849.34 61.6364C1848.04 62.2576 1846.45 62.5682 1844.57 62.5682ZM1847.64 54.8636C1849.2 54.8636 1850.52 54.4394 1851.59 53.5909C1852.68 52.7273 1853.52 51.5227 1854.09 49.9773C1854.68 48.4318 1854.98 46.6212 1854.98 44.5455C1854.98 42.4697 1854.69 40.6667 1854.12 39.1364C1853.54 37.6061 1852.71 36.4242 1851.62 35.5909C1850.53 34.7576 1849.2 34.3409 1847.64 34.3409C1846.05 34.3409 1844.71 34.7727 1843.62 35.6364C1842.53 36.5 1841.7 37.697 1841.14 39.2273C1840.58 40.7576 1840.3 42.5303 1840.3 44.5455C1840.3 46.5758 1840.58 48.3712 1841.14 49.9318C1841.71 51.4773 1842.54 52.6894 1843.62 53.5682C1844.71 54.4318 1846.05 54.8636 1847.64 54.8636Z" fill="black"/>
</svg>
