<svg width="952" height="836" viewBox="0 0 952 836" fill="none" xmlns="http://www.w3.org/2000/svg">
<rect width="952" height="836" rx="25" fill="#8C20BF" fill-opacity="0.5"/>
<path d="M136.998 308.077V314.587H124.048V356.727H116.068V314.587H103.048V308.077H136.998ZM165.03 317.527C167.97 317.527 170.583 318.157 172.87 319.417C175.203 320.677 177.023 322.544 178.33 325.017C179.683 327.491 180.36 330.477 180.36 333.977V356.727H172.45V335.167C172.45 331.714 171.587 329.077 169.86 327.257C168.133 325.391 165.777 324.457 162.79 324.457C159.803 324.457 157.423 325.391 155.65 327.257C153.923 329.077 153.06 331.714 153.06 335.167V356.727H145.08V304.927H153.06V322.637C154.413 321.004 156.117 319.744 158.17 318.857C160.27 317.971 162.557 317.527 165.03 317.527ZM194.599 313.047C193.152 313.047 191.939 312.557 190.959 311.577C189.979 310.597 189.489 309.384 189.489 307.937C189.489 306.491 189.979 305.277 190.959 304.297C191.939 303.317 193.152 302.827 194.599 302.827C195.999 302.827 197.189 303.317 198.169 304.297C199.149 305.277 199.639 306.491 199.639 307.937C199.639 309.384 199.149 310.597 198.169 311.577C197.189 312.557 195.999 313.047 194.599 313.047ZM198.519 318.157V356.727H190.539V318.157H198.519ZM222.996 357.357C219.963 357.357 217.233 356.821 214.806 355.747C212.426 354.627 210.536 353.134 209.136 351.267C207.736 349.354 206.989 347.231 206.896 344.897H215.156C215.296 346.531 216.066 347.907 217.466 349.027C218.913 350.101 220.709 350.637 222.856 350.637C225.096 350.637 226.823 350.217 228.036 349.377C229.296 348.491 229.926 347.371 229.926 346.017C229.926 344.571 229.226 343.497 227.826 342.797C226.473 342.097 224.303 341.327 221.316 340.487C218.423 339.694 216.066 338.924 214.246 338.177C212.426 337.431 210.839 336.287 209.486 334.747C208.179 333.207 207.526 331.177 207.526 328.657C207.526 326.604 208.133 324.737 209.346 323.057C210.559 321.331 212.286 319.977 214.526 318.997C216.813 318.017 219.426 317.527 222.366 317.527C226.753 317.527 230.276 318.647 232.936 320.887C235.643 323.081 237.089 326.091 237.276 329.917H229.296C229.156 328.191 228.456 326.814 227.196 325.787C225.936 324.761 224.233 324.247 222.086 324.247C219.986 324.247 218.376 324.644 217.256 325.437C216.136 326.231 215.576 327.281 215.576 328.587C215.576 329.614 215.949 330.477 216.696 331.177C217.443 331.877 218.353 332.437 219.426 332.857C220.499 333.231 222.086 333.721 224.186 334.327C226.986 335.074 229.273 335.844 231.046 336.637C232.866 337.384 234.429 338.504 235.736 339.997C237.043 341.491 237.719 343.474 237.766 345.947C237.766 348.141 237.159 350.101 235.946 351.827C234.733 353.554 233.006 354.907 230.766 355.887C228.573 356.867 225.983 357.357 222.996 357.357ZM280.742 324.667H273.602V356.727H265.552V324.667H261.002V318.157H265.552V315.427C265.552 310.994 266.719 307.774 269.052 305.767C271.432 303.714 275.142 302.687 280.182 302.687V309.337C277.756 309.337 276.052 309.804 275.072 310.737C274.092 311.624 273.602 313.187 273.602 315.427V318.157H280.742V324.667ZM323.164 336.497C323.164 337.944 323.071 339.251 322.884 340.417H293.414C293.648 343.497 294.791 345.971 296.844 347.837C298.898 349.704 301.418 350.637 304.404 350.637C308.698 350.637 311.731 348.841 313.504 345.247H322.114C320.948 348.794 318.824 351.711 315.744 353.997C312.711 356.237 308.931 357.357 304.404 357.357C300.718 357.357 297.404 356.541 294.464 354.907C291.571 353.227 289.284 350.894 287.604 347.907C285.971 344.874 285.154 341.374 285.154 337.407C285.154 333.441 285.948 329.964 287.534 326.977C289.168 323.944 291.431 321.611 294.324 319.977C297.264 318.344 300.624 317.527 304.404 317.527C308.044 317.527 311.288 318.321 314.134 319.907C316.981 321.494 319.198 323.734 320.784 326.627C322.371 329.474 323.164 332.764 323.164 336.497ZM314.834 333.977C314.788 331.037 313.738 328.681 311.684 326.907C309.631 325.134 307.088 324.247 304.054 324.247C301.301 324.247 298.944 325.134 296.984 326.907C295.024 328.634 293.858 330.991 293.484 333.977H314.834ZM328.358 337.267C328.358 333.394 329.151 329.964 330.738 326.977C332.371 323.991 334.564 321.681 337.318 320.047C340.118 318.367 343.198 317.527 346.558 317.527C349.591 317.527 352.228 318.134 354.468 319.347C356.754 320.514 358.574 321.984 359.928 323.757V318.157H367.978V356.727H359.928V350.987C358.574 352.807 356.731 354.324 354.398 355.537C352.064 356.751 349.404 357.357 346.418 357.357C343.104 357.357 340.071 356.517 337.318 354.837C334.564 353.111 332.371 350.731 330.738 347.697C329.151 344.617 328.358 341.141 328.358 337.267ZM359.928 337.407C359.928 334.747 359.368 332.437 358.248 330.477C357.174 328.517 355.751 327.024 353.978 325.997C352.204 324.971 350.291 324.457 348.238 324.457C346.184 324.457 344.271 324.971 342.498 325.997C340.724 326.977 339.278 328.447 338.158 330.407C337.084 332.321 336.548 334.607 336.548 337.267C336.548 339.927 337.084 342.261 338.158 344.267C339.278 346.274 340.724 347.814 342.498 348.887C344.318 349.914 346.231 350.427 348.238 350.427C350.291 350.427 352.204 349.914 353.978 348.887C355.751 347.861 357.174 346.367 358.248 344.407C359.368 342.401 359.928 340.067 359.928 337.407ZM387.769 324.667V346.017C387.769 347.464 388.096 348.514 388.749 349.167C389.449 349.774 390.616 350.077 392.249 350.077H397.149V356.727H390.849C387.256 356.727 384.502 355.887 382.589 354.207C380.676 352.527 379.719 349.797 379.719 346.017V324.667H375.169V318.157H379.719V308.567H387.769V318.157H397.149V324.667H387.769ZM439.434 318.157V356.727H431.454V352.177C430.194 353.764 428.537 355.024 426.484 355.957C424.477 356.844 422.331 357.287 420.044 357.287C417.011 357.287 414.281 356.657 411.854 355.397C409.474 354.137 407.584 352.271 406.184 349.797C404.831 347.324 404.154 344.337 404.154 340.837V318.157H412.064V339.647C412.064 343.101 412.927 345.761 414.654 347.627C416.381 349.447 418.737 350.357 421.724 350.357C424.711 350.357 427.067 349.447 428.794 347.627C430.567 345.761 431.454 343.101 431.454 339.647V318.157H439.434ZM457.943 323.757C459.11 321.797 460.65 320.281 462.563 319.207C464.523 318.087 466.833 317.527 469.493 317.527V325.787H467.463C464.336 325.787 461.956 326.581 460.323 328.167C458.736 329.754 457.943 332.507 457.943 336.427V356.727H449.963V318.157H457.943V323.757ZM512.178 336.497C512.178 337.944 512.085 339.251 511.898 340.417H482.428C482.661 343.497 483.805 345.971 485.858 347.837C487.911 349.704 490.431 350.637 493.418 350.637C497.711 350.637 500.745 348.841 502.518 345.247H511.128C509.961 348.794 507.838 351.711 504.758 353.997C501.725 356.237 497.945 357.357 493.418 357.357C489.731 357.357 486.418 356.541 483.478 354.907C480.585 353.227 478.298 350.894 476.618 347.907C474.985 344.874 474.168 341.374 474.168 337.407C474.168 333.441 474.961 329.964 476.548 326.977C478.181 323.944 480.445 321.611 483.338 319.977C486.278 318.344 489.638 317.527 493.418 317.527C497.058 317.527 500.301 318.321 503.148 319.907C505.995 321.494 508.211 323.734 509.798 326.627C511.385 329.474 512.178 332.764 512.178 336.497ZM503.848 333.977C503.801 331.037 502.751 328.681 500.698 326.907C498.645 325.134 496.101 324.247 493.068 324.247C490.315 324.247 487.958 325.134 485.998 326.907C484.038 328.634 482.871 330.991 482.498 333.977H503.848ZM553.755 317.527C556.742 317.527 559.378 318.134 561.665 319.347C563.998 320.514 565.818 321.984 567.125 323.757V318.157H575.175V357.357C575.175 360.904 574.428 364.054 572.935 366.807C571.442 369.607 569.272 371.801 566.425 373.387C563.625 374.974 560.265 375.767 556.345 375.767C551.118 375.767 546.778 374.531 543.325 372.057C539.872 369.631 537.912 366.317 537.445 362.117H545.355C545.962 364.124 547.245 365.734 549.205 366.947C551.212 368.207 553.592 368.837 556.345 368.837C559.565 368.837 562.155 367.857 564.115 365.897C566.122 363.937 567.125 361.091 567.125 357.357V350.917C565.772 352.737 563.928 354.277 561.595 355.537C559.308 356.751 556.695 357.357 553.755 357.357C550.395 357.357 547.315 356.517 544.515 354.837C541.762 353.111 539.568 350.731 537.935 347.697C536.348 344.617 535.555 341.141 535.555 337.267C535.555 333.394 536.348 329.964 537.935 326.977C539.568 323.991 541.762 321.681 544.515 320.047C547.315 318.367 550.395 317.527 553.755 317.527ZM567.125 337.407C567.125 334.747 566.565 332.437 565.445 330.477C564.372 328.517 562.948 327.024 561.175 325.997C559.402 324.971 557.488 324.457 555.435 324.457C553.382 324.457 551.468 324.971 549.695 325.997C547.922 326.977 546.475 328.447 545.355 330.407C544.282 332.321 543.745 334.607 543.745 337.267C543.745 339.927 544.282 342.261 545.355 344.267C546.475 346.274 547.922 347.814 549.695 348.887C551.515 349.914 553.428 350.427 555.435 350.427C557.488 350.427 559.402 349.914 561.175 348.887C562.948 347.861 564.372 346.367 565.445 344.407C566.565 342.401 567.125 340.067 567.125 337.407ZM589.716 313.047C588.27 313.047 587.056 312.557 586.076 311.577C585.096 310.597 584.606 309.384 584.606 307.937C584.606 306.491 585.096 305.277 586.076 304.297C587.056 303.317 588.27 302.827 589.716 302.827C591.116 302.827 592.306 303.317 593.286 304.297C594.266 305.277 594.756 306.491 594.756 307.937C594.756 309.384 594.266 310.597 593.286 311.577C592.306 312.557 591.116 313.047 589.716 313.047ZM593.636 318.157V356.727H585.656V318.157H593.636ZM619.023 349.587L629.943 318.157H638.413L623.713 356.727H614.193L599.563 318.157H608.103L619.023 349.587ZM679.795 336.497C679.795 337.944 679.702 339.251 679.515 340.417H650.045C650.279 343.497 651.422 345.971 653.475 347.837C655.529 349.704 658.049 350.637 661.035 350.637C665.329 350.637 668.362 348.841 670.135 345.247H678.745C677.579 348.794 675.455 351.711 672.375 353.997C669.342 356.237 665.562 357.357 661.035 357.357C657.349 357.357 654.035 356.541 651.095 354.907C648.202 353.227 645.915 350.894 644.235 347.907C642.602 344.874 641.785 341.374 641.785 337.407C641.785 333.441 642.579 329.964 644.165 326.977C645.799 323.944 648.062 321.611 650.955 319.977C653.895 318.344 657.255 317.527 661.035 317.527C664.675 317.527 667.919 318.321 670.765 319.907C673.612 321.494 675.829 323.734 677.415 326.627C679.002 329.474 679.795 332.764 679.795 336.497ZM671.465 333.977C671.419 331.037 670.369 328.681 668.315 326.907C666.262 325.134 663.719 324.247 660.685 324.247C657.932 324.247 655.575 325.134 653.615 326.907C651.655 328.634 650.489 330.991 650.115 333.977H671.465ZM701.648 357.357C698.615 357.357 695.885 356.821 693.458 355.747C691.078 354.627 689.188 353.134 687.788 351.267C686.388 349.354 685.642 347.231 685.548 344.897H693.808C693.948 346.531 694.718 347.907 696.118 349.027C697.565 350.101 699.362 350.637 701.508 350.637C703.748 350.637 705.475 350.217 706.688 349.377C707.948 348.491 708.578 347.371 708.578 346.017C708.578 344.571 707.878 343.497 706.478 342.797C705.125 342.097 702.955 341.327 699.968 340.487C697.075 339.694 694.718 338.924 692.898 338.177C691.078 337.431 689.492 336.287 688.138 334.747C686.832 333.207 686.178 331.177 686.178 328.657C686.178 326.604 686.785 324.737 687.998 323.057C689.212 321.331 690.938 319.977 693.178 318.997C695.465 318.017 698.078 317.527 701.018 317.527C705.405 317.527 708.928 318.647 711.588 320.887C714.295 323.081 715.742 326.091 715.928 329.917H707.948C707.808 328.191 707.108 326.814 705.848 325.787C704.588 324.761 702.885 324.247 700.738 324.247C698.638 324.247 697.028 324.644 695.908 325.437C694.788 326.231 694.228 327.281 694.228 328.587C694.228 329.614 694.602 330.477 695.348 331.177C696.095 331.877 697.005 332.437 698.078 332.857C699.152 333.231 700.738 333.721 702.838 334.327C705.638 335.074 707.925 335.844 709.698 336.637C711.518 337.384 713.082 338.504 714.388 339.997C715.695 341.491 716.372 343.474 716.418 345.947C716.418 348.141 715.812 350.101 714.598 351.827C713.385 353.554 711.658 354.907 709.418 355.887C707.225 356.867 704.635 357.357 701.648 357.357ZM752.535 324.667V346.017C752.535 347.464 752.861 348.514 753.515 349.167C754.215 349.774 755.381 350.077 757.015 350.077H761.915V356.727H755.615C752.021 356.727 749.268 355.887 747.355 354.207C745.441 352.527 744.485 349.797 744.485 346.017V324.667H739.935V318.157H744.485V308.567H752.535V318.157H761.915V324.667H752.535ZM789.22 317.527C792.16 317.527 794.773 318.157 797.06 319.417C799.393 320.677 801.213 322.544 802.52 325.017C803.873 327.491 804.55 330.477 804.55 333.977V356.727H796.64V335.167C796.64 331.714 795.776 329.077 794.05 327.257C792.323 325.391 789.966 324.457 786.98 324.457C783.993 324.457 781.613 325.391 779.84 327.257C778.113 329.077 777.25 331.714 777.25 335.167V356.727H769.27V304.927H777.25V322.637C778.603 321.004 780.306 319.744 782.36 318.857C784.46 317.971 786.746 317.527 789.22 317.527ZM850.079 336.497C850.079 337.944 849.985 339.251 849.799 340.417H820.329C820.562 343.497 821.705 345.971 823.759 347.837C825.812 349.704 828.332 350.637 831.319 350.637C835.612 350.637 838.645 348.841 840.419 345.247H849.029C847.862 348.794 845.739 351.711 842.659 353.997C839.625 356.237 835.845 357.357 831.319 357.357C827.632 357.357 824.319 356.541 821.379 354.907C818.485 353.227 816.199 350.894 814.519 347.907C812.885 344.874 812.069 341.374 812.069 337.407C812.069 333.441 812.862 329.964 814.449 326.977C816.082 323.944 818.345 321.611 821.239 319.977C824.179 318.344 827.539 317.527 831.319 317.527C834.959 317.527 838.202 318.321 841.049 319.907C843.895 321.494 846.112 323.734 847.699 326.627C849.285 329.474 850.079 332.764 850.079 336.497ZM841.749 333.977C841.702 331.037 840.652 328.681 838.599 326.907C836.545 325.134 834.002 324.247 830.969 324.247C828.215 324.247 825.859 325.134 823.899 326.907C821.939 328.634 820.772 330.991 820.399 333.977H841.749ZM168.578 409.927V461.727H160.598V409.927H168.578ZM176.395 442.267C176.395 438.394 177.188 434.964 178.775 431.977C180.408 428.991 182.601 426.681 185.355 425.047C188.155 423.367 191.235 422.527 194.595 422.527C197.628 422.527 200.265 423.134 202.505 424.347C204.791 425.514 206.611 426.984 207.965 428.757V423.157H216.015V461.727H207.965V455.987C206.611 457.807 204.768 459.324 202.435 460.537C200.101 461.751 197.441 462.357 194.455 462.357C191.141 462.357 188.108 461.517 185.355 459.837C182.601 458.111 180.408 455.731 178.775 452.697C177.188 449.617 176.395 446.141 176.395 442.267ZM207.965 442.407C207.965 439.747 207.405 437.437 206.285 435.477C205.211 433.517 203.788 432.024 202.015 430.997C200.241 429.971 198.328 429.457 196.275 429.457C194.221 429.457 192.308 429.971 190.535 430.997C188.761 431.977 187.315 433.447 186.195 435.407C185.121 437.321 184.585 439.607 184.585 442.267C184.585 444.927 185.121 447.261 186.195 449.267C187.315 451.274 188.761 452.814 190.535 453.887C192.355 454.914 194.268 455.427 196.275 455.427C198.328 455.427 200.241 454.914 202.015 453.887C203.788 452.861 205.211 451.367 206.285 449.407C207.405 447.401 207.965 445.067 207.965 442.407ZM235.806 429.667V451.017C235.806 452.464 236.133 453.514 236.786 454.167C237.486 454.774 238.653 455.077 240.286 455.077H245.186V461.727H238.886C235.293 461.727 232.539 460.887 230.626 459.207C228.713 457.527 227.756 454.797 227.756 451.017V429.667H223.206V423.157H227.756V413.567H235.806V423.157H245.186V429.667H235.806ZM287.891 441.497C287.891 442.944 287.798 444.251 287.611 445.417H258.141C258.374 448.497 259.518 450.971 261.571 452.837C263.624 454.704 266.144 455.637 269.131 455.637C273.424 455.637 276.458 453.841 278.231 450.247H286.841C285.674 453.794 283.551 456.711 280.471 458.997C277.438 461.237 273.658 462.357 269.131 462.357C265.444 462.357 262.131 461.541 259.191 459.907C256.298 458.227 254.011 455.894 252.331 452.907C250.698 449.874 249.881 446.374 249.881 442.407C249.881 438.441 250.674 434.964 252.261 431.977C253.894 428.944 256.158 426.611 259.051 424.977C261.991 423.344 265.351 422.527 269.131 422.527C272.771 422.527 276.014 423.321 278.861 424.907C281.708 426.494 283.924 428.734 285.511 431.627C287.098 434.474 287.891 437.764 287.891 441.497ZM279.561 438.977C279.514 436.037 278.464 433.681 276.411 431.907C274.358 430.134 271.814 429.247 268.781 429.247C266.028 429.247 263.671 430.134 261.711 431.907C259.751 433.634 258.584 435.991 258.211 438.977H279.561ZM309.744 462.357C306.711 462.357 303.981 461.821 301.554 460.747C299.174 459.627 297.284 458.134 295.884 456.267C294.484 454.354 293.737 452.231 293.644 449.897H301.904C302.044 451.531 302.814 452.907 304.214 454.027C305.661 455.101 307.457 455.637 309.604 455.637C311.844 455.637 313.571 455.217 314.784 454.377C316.044 453.491 316.674 452.371 316.674 451.017C316.674 449.571 315.974 448.497 314.574 447.797C313.221 447.097 311.051 446.327 308.064 445.487C305.171 444.694 302.814 443.924 300.994 443.177C299.174 442.431 297.587 441.287 296.234 439.747C294.927 438.207 294.274 436.177 294.274 433.657C294.274 431.604 294.881 429.737 296.094 428.057C297.307 426.331 299.034 424.977 301.274 423.997C303.561 423.017 306.174 422.527 309.114 422.527C313.501 422.527 317.024 423.647 319.684 425.887C322.391 428.081 323.837 431.091 324.024 434.917H316.044C315.904 433.191 315.204 431.814 313.944 430.787C312.684 429.761 310.981 429.247 308.834 429.247C306.734 429.247 305.124 429.644 304.004 430.437C302.884 431.231 302.324 432.281 302.324 433.587C302.324 434.614 302.697 435.477 303.444 436.177C304.191 436.877 305.101 437.437 306.174 437.857C307.247 438.231 308.834 438.721 310.934 439.327C313.734 440.074 316.021 440.844 317.794 441.637C319.614 442.384 321.177 443.504 322.484 444.997C323.791 446.491 324.467 448.474 324.514 450.947C324.514 453.141 323.907 455.101 322.694 456.827C321.481 458.554 319.754 459.907 317.514 460.887C315.321 461.867 312.731 462.357 309.744 462.357ZM342.447 429.667V451.017C342.447 452.464 342.773 453.514 343.427 454.167C344.127 454.774 345.293 455.077 346.927 455.077H351.827V461.727H345.527C341.933 461.727 339.18 460.887 337.267 459.207C335.353 457.527 334.397 454.797 334.397 451.017V429.667H329.847V423.157H334.397V413.567H342.447V423.157H351.827V429.667H342.447ZM392.889 442.267C392.889 438.394 393.682 434.964 395.269 431.977C396.902 428.991 399.095 426.681 401.849 425.047C404.649 423.367 407.729 422.527 411.089 422.527C414.122 422.527 416.759 423.134 418.999 424.347C421.285 425.514 423.105 426.984 424.459 428.757V423.157H432.509V461.727H424.459V455.987C423.105 457.807 421.262 459.324 418.929 460.537C416.595 461.751 413.935 462.357 410.949 462.357C407.635 462.357 404.602 461.517 401.849 459.837C399.095 458.111 396.902 455.731 395.269 452.697C393.682 449.617 392.889 446.141 392.889 442.267ZM424.459 442.407C424.459 439.747 423.899 437.437 422.779 435.477C421.705 433.517 420.282 432.024 418.509 430.997C416.735 429.971 414.822 429.457 412.769 429.457C410.715 429.457 408.802 429.971 407.029 430.997C405.255 431.977 403.809 433.447 402.689 435.407C401.615 437.321 401.079 439.607 401.079 442.267C401.079 444.927 401.615 447.261 402.689 449.267C403.809 451.274 405.255 452.814 407.029 453.887C408.849 454.914 410.762 455.427 412.769 455.427C414.822 455.427 416.735 454.914 418.509 453.887C420.282 452.861 421.705 451.367 422.779 449.407C423.899 447.401 424.459 445.067 424.459 442.407ZM462.45 422.527C465.484 422.527 468.19 423.157 470.57 424.417C472.997 425.677 474.887 427.544 476.24 430.017C477.594 432.491 478.27 435.477 478.27 438.977V461.727H470.36V440.167C470.36 436.714 469.497 434.077 467.77 432.257C466.044 430.391 463.687 429.457 460.7 429.457C457.714 429.457 455.334 430.391 453.56 432.257C451.834 434.077 450.97 436.714 450.97 440.167V461.727H442.99V423.157H450.97V427.567C452.277 425.981 453.934 424.744 455.94 423.857C457.994 422.971 460.164 422.527 462.45 422.527ZM485.789 442.267C485.789 438.394 486.583 434.964 488.169 431.977C489.803 428.991 491.996 426.681 494.749 425.047C497.549 423.367 500.653 422.527 504.059 422.527C506.579 422.527 509.053 423.087 511.479 424.207C513.953 425.281 515.913 426.727 517.359 428.547V409.927H525.409V461.727H517.359V455.917C516.053 457.784 514.233 459.324 511.899 460.537C509.613 461.751 506.976 462.357 503.989 462.357C500.629 462.357 497.549 461.517 494.749 459.837C491.996 458.111 489.803 455.731 488.169 452.697C486.583 449.617 485.789 446.141 485.789 442.267ZM517.359 442.407C517.359 439.747 516.799 437.437 515.679 435.477C514.606 433.517 513.183 432.024 511.409 430.997C509.636 429.971 507.723 429.457 505.669 429.457C503.616 429.457 501.703 429.971 499.929 430.997C498.156 431.977 496.709 433.447 495.589 435.407C494.516 437.321 493.979 439.607 493.979 442.267C493.979 444.927 494.516 447.261 495.589 449.267C496.709 451.274 498.156 452.814 499.929 453.887C501.749 454.914 503.663 455.427 505.669 455.427C507.723 455.427 509.636 454.914 511.409 453.887C513.183 452.861 514.606 451.367 515.679 449.407C516.799 447.401 517.359 445.067 517.359 442.407ZM574.024 422.527C576.964 422.527 579.578 423.157 581.864 424.417C584.198 425.677 586.018 427.544 587.324 430.017C588.678 432.491 589.354 435.477 589.354 438.977V461.727H581.444V440.167C581.444 436.714 580.581 434.077 578.854 432.257C577.128 430.391 574.771 429.457 571.784 429.457C568.798 429.457 566.418 430.391 564.644 432.257C562.918 434.077 562.054 436.714 562.054 440.167V461.727H554.074V409.927H562.054V427.637C563.408 426.004 565.111 424.744 567.164 423.857C569.264 422.971 571.551 422.527 574.024 422.527ZM616.263 462.357C612.623 462.357 609.333 461.541 606.393 459.907C603.453 458.227 601.143 455.894 599.463 452.907C597.783 449.874 596.943 446.374 596.943 442.407C596.943 438.487 597.807 435.011 599.533 431.977C601.26 428.944 603.617 426.611 606.603 424.977C609.59 423.344 612.927 422.527 616.613 422.527C620.3 422.527 623.637 423.344 626.623 424.977C629.61 426.611 631.967 428.944 633.693 431.977C635.42 435.011 636.283 438.487 636.283 442.407C636.283 446.327 635.397 449.804 633.623 452.837C631.85 455.871 629.423 458.227 626.343 459.907C623.31 461.541 619.95 462.357 616.263 462.357ZM616.263 455.427C618.317 455.427 620.23 454.937 622.003 453.957C623.823 452.977 625.293 451.507 626.413 449.547C627.533 447.587 628.093 445.207 628.093 442.407C628.093 439.607 627.557 437.251 626.483 435.337C625.41 433.377 623.987 431.907 622.213 430.927C620.44 429.947 618.527 429.457 616.473 429.457C614.42 429.457 612.507 429.947 610.733 430.927C609.007 431.907 607.63 433.377 606.603 435.337C605.577 437.251 605.063 439.607 605.063 442.407C605.063 446.561 606.113 449.781 608.213 452.067C610.36 454.307 613.043 455.427 616.263 455.427ZM653.482 429.667V451.017C653.482 452.464 653.809 453.514 654.462 454.167C655.162 454.774 656.329 455.077 657.962 455.077H662.862V461.727H656.562C652.969 461.727 650.215 460.887 648.302 459.207C646.389 457.527 645.432 454.797 645.432 451.017V429.667H640.882V423.157H645.432V413.567H653.482V423.157H662.862V429.667H653.482ZM679.527 429.667V451.017C679.527 452.464 679.853 453.514 680.507 454.167C681.207 454.774 682.373 455.077 684.007 455.077H688.907V461.727H682.607C679.013 461.727 676.26 460.887 674.347 459.207C672.433 457.527 671.477 454.797 671.477 451.017V429.667H666.927V423.157H671.477V413.567H679.527V423.157H688.907V429.667H679.527ZM731.612 441.497C731.612 442.944 731.518 444.251 731.332 445.417H701.862C702.095 448.497 703.238 450.971 705.292 452.837C707.345 454.704 709.865 455.637 712.852 455.637C717.145 455.637 720.178 453.841 721.952 450.247H730.562C729.395 453.794 727.272 456.711 724.192 458.997C721.158 461.237 717.378 462.357 712.852 462.357C709.165 462.357 705.852 461.541 702.912 459.907C700.018 458.227 697.732 455.894 696.052 452.907C694.418 449.874 693.602 446.374 693.602 442.407C693.602 438.441 694.395 434.964 695.982 431.977C697.615 428.944 699.878 426.611 702.772 424.977C705.712 423.344 709.072 422.527 712.852 422.527C716.492 422.527 719.735 423.321 722.582 424.907C725.428 426.494 727.645 428.734 729.232 431.627C730.818 434.474 731.612 437.764 731.612 441.497ZM723.282 438.977C723.235 436.037 722.185 433.681 720.132 431.907C718.078 430.134 715.535 429.247 712.502 429.247C709.748 429.247 707.392 430.134 705.432 431.907C703.472 433.634 702.305 435.991 701.932 438.977H723.282ZM753.465 462.357C750.432 462.357 747.702 461.821 745.275 460.747C742.895 459.627 741.005 458.134 739.605 456.267C738.205 454.354 737.458 452.231 737.365 449.897H745.625C745.765 451.531 746.535 452.907 747.935 454.027C749.382 455.101 751.178 455.637 753.325 455.637C755.565 455.637 757.292 455.217 758.505 454.377C759.765 453.491 760.395 452.371 760.395 451.017C760.395 449.571 759.695 448.497 758.295 447.797C756.942 447.097 754.772 446.327 751.785 445.487C748.892 444.694 746.535 443.924 744.715 443.177C742.895 442.431 741.308 441.287 739.955 439.747C738.648 438.207 737.995 436.177 737.995 433.657C737.995 431.604 738.602 429.737 739.815 428.057C741.028 426.331 742.755 424.977 744.995 423.997C747.282 423.017 749.895 422.527 752.835 422.527C757.222 422.527 760.745 423.647 763.405 425.887C766.112 428.081 767.558 431.091 767.745 434.917H759.765C759.625 433.191 758.925 431.814 757.665 430.787C756.405 429.761 754.702 429.247 752.555 429.247C750.455 429.247 748.845 429.644 747.725 430.437C746.605 431.231 746.045 432.281 746.045 433.587C746.045 434.614 746.418 435.477 747.165 436.177C747.912 436.877 748.822 437.437 749.895 437.857C750.968 438.231 752.555 438.721 754.655 439.327C757.455 440.074 759.742 440.844 761.515 441.637C763.335 442.384 764.898 443.504 766.205 444.997C767.512 446.491 768.188 448.474 768.235 450.947C768.235 453.141 767.628 455.101 766.415 456.827C765.202 458.554 763.475 459.907 761.235 460.887C759.042 461.867 756.452 462.357 753.465 462.357ZM786.167 429.667V451.017C786.167 452.464 786.494 453.514 787.147 454.167C787.847 454.774 789.014 455.077 790.647 455.077H795.547V461.727H789.247C785.654 461.727 782.901 460.887 780.987 459.207C779.074 457.527 778.117 454.797 778.117 451.017V429.667H773.567V423.157H778.117V413.567H786.167V423.157H795.547V429.667H786.167ZM138.393 527.527C141.426 527.527 144.133 528.157 146.513 529.417C148.939 530.677 150.829 532.544 152.183 535.017C153.536 537.491 154.213 540.477 154.213 543.977V566.727H146.303V545.167C146.303 541.714 145.439 539.077 143.713 537.257C141.986 535.391 139.629 534.457 136.643 534.457C133.656 534.457 131.276 535.391 129.503 537.257C127.776 539.077 126.913 541.714 126.913 545.167V566.727H118.933V528.157H126.913V532.567C128.219 530.981 129.876 529.744 131.883 528.857C133.936 527.971 136.106 527.527 138.393 527.527ZM199.742 546.497C199.742 547.944 199.648 549.251 199.462 550.417H169.992C170.225 553.497 171.368 555.971 173.422 557.837C175.475 559.704 177.995 560.637 180.982 560.637C185.275 560.637 188.308 558.841 190.082 555.247H198.692C197.525 558.794 195.402 561.711 192.322 563.997C189.288 566.237 185.508 567.357 180.982 567.357C177.295 567.357 173.982 566.541 171.042 564.907C168.148 563.227 165.862 560.894 164.182 557.907C162.548 554.874 161.732 551.374 161.732 547.407C161.732 543.441 162.525 539.964 164.112 536.977C165.745 533.944 168.008 531.611 170.902 529.977C173.842 528.344 177.202 527.527 180.982 527.527C184.622 527.527 187.865 528.321 190.712 529.907C193.558 531.494 195.775 533.734 197.362 536.627C198.948 539.474 199.742 542.764 199.742 546.497ZM191.412 543.977C191.365 541.037 190.315 538.681 188.262 536.907C186.208 535.134 183.665 534.247 180.632 534.247C177.878 534.247 175.522 535.134 173.562 536.907C171.602 538.634 170.435 540.991 170.062 543.977H191.412ZM259.395 528.157L247.425 566.727H239.025L231.255 538.237L223.485 566.727H215.085L203.045 528.157H211.165L219.215 559.167L227.405 528.157H235.735L243.575 559.027L251.555 528.157H259.395ZM279.358 567.357C276.325 567.357 273.595 566.821 271.168 565.747C268.788 564.627 266.898 563.134 265.498 561.267C264.098 559.354 263.352 557.231 263.258 554.897H271.518C271.658 556.531 272.428 557.907 273.828 559.027C275.275 560.101 277.072 560.637 279.218 560.637C281.458 560.637 283.185 560.217 284.398 559.377C285.658 558.491 286.288 557.371 286.288 556.017C286.288 554.571 285.588 553.497 284.188 552.797C282.835 552.097 280.665 551.327 277.678 550.487C274.785 549.694 272.428 548.924 270.608 548.177C268.788 547.431 267.202 546.287 265.848 544.747C264.542 543.207 263.888 541.177 263.888 538.657C263.888 536.604 264.495 534.737 265.708 533.057C266.922 531.331 268.648 529.977 270.888 528.997C273.175 528.017 275.788 527.527 278.728 527.527C283.115 527.527 286.638 528.647 289.298 530.887C292.005 533.081 293.452 536.091 293.638 539.917H285.658C285.518 538.191 284.818 536.814 283.558 535.787C282.298 534.761 280.595 534.247 278.448 534.247C276.348 534.247 274.738 534.644 273.618 535.437C272.498 536.231 271.938 537.281 271.938 538.587C271.938 539.614 272.312 540.477 273.058 541.177C273.805 541.877 274.715 542.437 275.788 542.857C276.862 543.231 278.448 543.721 280.548 544.327C283.348 545.074 285.635 545.844 287.408 546.637C289.228 547.384 290.792 548.504 292.098 549.997C293.405 551.491 294.082 553.474 294.128 555.947C294.128 558.141 293.522 560.101 292.308 561.827C291.095 563.554 289.368 564.907 287.128 565.887C284.935 566.867 282.345 567.357 279.358 567.357ZM355.865 528.157V566.727H347.885V562.177C346.625 563.764 344.968 565.024 342.915 565.957C340.908 566.844 338.761 567.287 336.475 567.287C333.441 567.287 330.711 566.657 328.285 565.397C325.905 564.137 324.015 562.271 322.615 559.797C321.261 557.324 320.585 554.337 320.585 550.837V528.157H328.495V549.647C328.495 553.101 329.358 555.761 331.085 557.627C332.811 559.447 335.168 560.357 338.155 560.357C341.141 560.357 343.498 559.447 345.225 557.627C346.998 555.761 347.885 553.101 347.885 549.647V528.157H355.865ZM374.374 533.827C375.727 532.054 377.57 530.561 379.904 529.347C382.237 528.134 384.874 527.527 387.814 527.527C391.174 527.527 394.23 528.367 396.984 530.047C399.784 531.681 401.977 533.991 403.564 536.977C405.15 539.964 405.944 543.394 405.944 547.267C405.944 551.141 405.15 554.617 403.564 557.697C401.977 560.731 399.784 563.111 396.984 564.837C394.23 566.517 391.174 567.357 387.814 567.357C384.874 567.357 382.26 566.774 379.974 565.607C377.687 564.394 375.82 562.901 374.374 561.127V585.067H366.394V528.157H374.374V533.827ZM397.824 547.267C397.824 544.607 397.264 542.321 396.144 540.407C395.07 538.447 393.624 536.977 391.804 535.997C390.03 534.971 388.117 534.457 386.064 534.457C384.057 534.457 382.144 534.971 380.324 535.997C378.55 537.024 377.104 538.517 375.984 540.477C374.91 542.437 374.374 544.747 374.374 547.407C374.374 550.067 374.91 552.401 375.984 554.407C377.104 556.367 378.55 557.861 380.324 558.887C382.144 559.914 384.057 560.427 386.064 560.427C388.117 560.427 390.03 559.914 391.804 558.887C393.624 557.814 395.07 556.274 396.144 554.267C397.264 552.261 397.824 549.927 397.824 547.267ZM411.175 547.267C411.175 543.394 411.968 539.964 413.555 536.977C415.188 533.991 417.382 531.681 420.135 530.047C422.935 528.367 426.038 527.527 429.445 527.527C431.965 527.527 434.438 528.087 436.865 529.207C439.338 530.281 441.298 531.727 442.745 533.547V514.927H450.795V566.727H442.745V560.917C441.438 562.784 439.618 564.324 437.285 565.537C434.998 566.751 432.362 567.357 429.375 567.357C426.015 567.357 422.935 566.517 420.135 564.837C417.382 563.111 415.188 560.731 413.555 557.697C411.968 554.617 411.175 551.141 411.175 547.267ZM442.745 547.407C442.745 544.747 442.185 542.437 441.065 540.477C439.992 538.517 438.568 537.024 436.795 535.997C435.022 534.971 433.108 534.457 431.055 534.457C429.002 534.457 427.088 534.971 425.315 535.997C423.542 536.977 422.095 538.447 420.975 540.407C419.902 542.321 419.365 544.607 419.365 547.267C419.365 549.927 419.902 552.261 420.975 554.267C422.095 556.274 423.542 557.814 425.315 558.887C427.135 559.914 429.048 560.427 431.055 560.427C433.108 560.427 435.022 559.914 436.795 558.887C438.568 557.861 439.992 556.367 441.065 554.407C442.185 552.401 442.745 550.067 442.745 547.407ZM458.616 547.267C458.616 543.394 459.41 539.964 460.996 536.977C462.63 533.991 464.823 531.681 467.576 530.047C470.376 528.367 473.456 527.527 476.816 527.527C479.85 527.527 482.486 528.134 484.726 529.347C487.013 530.514 488.833 531.984 490.186 533.757V528.157H498.236V566.727H490.186V560.987C488.833 562.807 486.99 564.324 484.656 565.537C482.323 566.751 479.663 567.357 476.676 567.357C473.363 567.357 470.33 566.517 467.576 564.837C464.823 563.111 462.63 560.731 460.996 557.697C459.41 554.617 458.616 551.141 458.616 547.267ZM490.186 547.407C490.186 544.747 489.626 542.437 488.506 540.477C487.433 538.517 486.01 537.024 484.236 535.997C482.463 534.971 480.55 534.457 478.496 534.457C476.443 534.457 474.53 534.971 472.756 535.997C470.983 536.977 469.536 538.447 468.416 540.407C467.343 542.321 466.806 544.607 466.806 547.267C466.806 549.927 467.343 552.261 468.416 554.267C469.536 556.274 470.983 557.814 472.756 558.887C474.576 559.914 476.49 560.427 478.496 560.427C480.55 560.427 482.463 559.914 484.236 558.887C486.01 557.861 487.433 556.367 488.506 554.407C489.626 552.401 490.186 550.067 490.186 547.407ZM518.028 534.667V556.017C518.028 557.464 518.354 558.514 519.008 559.167C519.708 559.774 520.874 560.077 522.508 560.077H527.408V566.727H521.108C517.514 566.727 514.761 565.887 512.848 564.207C510.934 562.527 509.978 559.797 509.978 556.017V534.667H505.428V528.157H509.978V518.567H518.028V528.157H527.408V534.667H518.028ZM570.113 546.497C570.113 547.944 570.019 549.251 569.833 550.417H540.363C540.596 553.497 541.739 555.971 543.793 557.837C545.846 559.704 548.366 560.637 551.353 560.637C555.646 560.637 558.679 558.841 560.453 555.247H569.063C567.896 558.794 565.773 561.711 562.693 563.997C559.659 566.237 555.879 567.357 551.353 567.357C547.666 567.357 544.353 566.541 541.413 564.907C538.519 563.227 536.233 560.894 534.553 557.907C532.919 554.874 532.103 551.374 532.103 547.407C532.103 543.441 532.896 539.964 534.483 536.977C536.116 533.944 538.379 531.611 541.273 529.977C544.213 528.344 547.573 527.527 551.353 527.527C554.993 527.527 558.236 528.321 561.083 529.907C563.929 531.494 566.146 533.734 567.733 536.627C569.319 539.474 570.113 542.764 570.113 546.497ZM561.783 543.977C561.736 541.037 560.686 538.681 558.633 536.907C556.579 535.134 554.036 534.247 551.003 534.247C548.249 534.247 545.893 535.134 543.933 536.907C541.973 538.634 540.806 540.991 540.433 543.977H561.783ZM591.966 567.357C588.932 567.357 586.202 566.821 583.776 565.747C581.396 564.627 579.506 563.134 578.106 561.267C576.706 559.354 575.959 557.231 575.866 554.897H584.126C584.266 556.531 585.036 557.907 586.436 559.027C587.882 560.101 589.679 560.637 591.826 560.637C594.066 560.637 595.792 560.217 597.006 559.377C598.266 558.491 598.896 557.371 598.896 556.017C598.896 554.571 598.196 553.497 596.796 552.797C595.442 552.097 593.272 551.327 590.286 550.487C587.392 549.694 585.036 548.924 583.216 548.177C581.396 547.431 579.809 546.287 578.456 544.747C577.149 543.207 576.496 541.177 576.496 538.657C576.496 536.604 577.102 534.737 578.316 533.057C579.529 531.331 581.256 529.977 583.496 528.997C585.782 528.017 588.396 527.527 591.336 527.527C595.722 527.527 599.246 528.647 601.906 530.887C604.612 533.081 606.059 536.091 606.246 539.917H598.266C598.126 538.191 597.426 536.814 596.166 535.787C594.906 534.761 593.202 534.247 591.056 534.247C588.956 534.247 587.346 534.644 586.226 535.437C585.106 536.231 584.546 537.281 584.546 538.587C584.546 539.614 584.919 540.477 585.666 541.177C586.412 541.877 587.322 542.437 588.396 542.857C589.469 543.231 591.056 543.721 593.156 544.327C595.956 545.074 598.242 545.844 600.016 546.637C601.836 547.384 603.399 548.504 604.706 549.997C606.012 551.491 606.689 553.474 606.736 555.947C606.736 558.141 606.129 560.101 604.916 561.827C603.702 563.554 601.976 564.907 599.736 565.887C597.542 566.867 594.952 567.357 591.966 567.357ZM630.882 547.267C630.882 543.394 631.675 539.964 633.262 536.977C634.895 533.991 637.089 531.681 639.842 530.047C642.642 528.367 645.722 527.527 649.082 527.527C652.115 527.527 654.752 528.134 656.992 529.347C659.279 530.514 661.099 531.984 662.452 533.757V528.157H670.502V566.727H662.452V560.987C661.099 562.807 659.255 564.324 656.922 565.537C654.589 566.751 651.929 567.357 648.942 567.357C645.629 567.357 642.595 566.517 639.842 564.837C637.089 563.111 634.895 560.731 633.262 557.697C631.675 554.617 630.882 551.141 630.882 547.267ZM662.452 547.407C662.452 544.747 661.892 542.437 660.772 540.477C659.699 538.517 658.275 537.024 656.502 535.997C654.729 534.971 652.815 534.457 650.762 534.457C648.709 534.457 646.795 534.971 645.022 535.997C643.249 536.977 641.802 538.447 640.682 540.407C639.609 542.321 639.072 544.607 639.072 547.267C639.072 549.927 639.609 552.261 640.682 554.267C641.802 556.274 643.249 557.814 645.022 558.887C646.842 559.914 648.755 560.427 650.762 560.427C652.815 560.427 654.729 559.914 656.502 558.887C658.275 557.861 659.699 556.367 660.772 554.407C661.892 552.401 662.452 550.067 662.452 547.407ZM688.963 533.897C690.317 532.031 692.16 530.514 694.493 529.347C696.873 528.134 699.51 527.527 702.403 527.527C705.81 527.527 708.89 528.344 711.643 529.977C714.397 531.611 716.567 533.944 718.153 536.977C719.74 539.964 720.533 543.394 720.533 547.267C720.533 551.141 719.74 554.617 718.153 557.697C716.567 560.731 714.373 563.111 711.573 564.837C708.82 566.517 705.763 567.357 702.403 567.357C699.417 567.357 696.757 566.774 694.423 565.607C692.137 564.441 690.317 562.947 688.963 561.127V566.727H680.983V514.927H688.963V533.897ZM712.413 547.267C712.413 544.607 711.853 542.321 710.733 540.407C709.66 538.447 708.213 536.977 706.393 535.997C704.62 534.971 702.707 534.457 700.653 534.457C698.647 534.457 696.733 534.971 694.913 535.997C693.14 537.024 691.693 538.517 690.573 540.477C689.5 542.437 688.963 544.747 688.963 547.407C688.963 550.067 689.5 552.401 690.573 554.407C691.693 556.367 693.14 557.861 694.913 558.887C696.733 559.914 698.647 560.427 700.653 560.427C702.707 560.427 704.62 559.914 706.393 558.887C708.213 557.814 709.66 556.274 710.733 554.267C711.853 552.261 712.413 549.927 712.413 547.267ZM745.155 567.357C741.515 567.357 738.225 566.541 735.285 564.907C732.345 563.227 730.035 560.894 728.355 557.907C726.675 554.874 725.835 551.374 725.835 547.407C725.835 543.487 726.698 540.011 728.425 536.977C730.151 533.944 732.508 531.611 735.495 529.977C738.481 528.344 741.818 527.527 745.505 527.527C749.191 527.527 752.528 528.344 755.515 529.977C758.501 531.611 760.858 533.944 762.585 536.977C764.311 540.011 765.175 543.487 765.175 547.407C765.175 551.327 764.288 554.804 762.515 557.837C760.741 560.871 758.315 563.227 755.235 564.907C752.201 566.541 748.841 567.357 745.155 567.357ZM745.155 560.427C747.208 560.427 749.121 559.937 750.895 558.957C752.715 557.977 754.185 556.507 755.305 554.547C756.425 552.587 756.985 550.207 756.985 547.407C756.985 544.607 756.448 542.251 755.375 540.337C754.301 538.377 752.878 536.907 751.105 535.927C749.331 534.947 747.418 534.457 745.365 534.457C743.311 534.457 741.398 534.947 739.625 535.927C737.898 536.907 736.521 538.377 735.495 540.337C734.468 542.251 733.955 544.607 733.955 547.407C733.955 551.561 735.005 554.781 737.105 557.067C739.251 559.307 741.935 560.427 745.155 560.427ZM807.993 528.157V566.727H800.013V562.177C798.753 563.764 797.097 565.024 795.043 565.957C793.037 566.844 790.89 567.287 788.603 567.287C785.57 567.287 782.84 566.657 780.413 565.397C778.033 564.137 776.143 562.271 774.743 559.797C773.39 557.324 772.713 554.337 772.713 550.837V528.157H780.623V549.647C780.623 553.101 781.487 555.761 783.213 557.627C784.94 559.447 787.297 560.357 790.283 560.357C793.27 560.357 795.627 559.447 797.353 557.627C799.127 555.761 800.013 553.101 800.013 549.647V528.157H807.993ZM827.832 534.667V556.017C827.832 557.464 828.159 558.514 828.812 559.167C829.512 559.774 830.679 560.077 832.312 560.077H837.212V566.727H830.912C827.319 566.727 824.566 565.887 822.652 564.207C820.739 562.527 819.782 559.797 819.782 556.017V534.667H815.232V528.157H819.782V518.567H827.832V528.157H837.212V534.667H827.832ZM197.408 633.157V671.727H189.428V667.177C188.168 668.764 186.511 670.024 184.458 670.957C182.451 671.844 180.304 672.287 178.018 672.287C174.984 672.287 172.254 671.657 169.828 670.397C167.448 669.137 165.558 667.271 164.158 664.797C162.804 662.324 162.128 659.337 162.128 655.837V633.157H170.038V654.647C170.038 658.101 170.901 660.761 172.628 662.627C174.354 664.447 176.711 665.357 179.698 665.357C182.684 665.357 185.041 664.447 186.768 662.627C188.541 660.761 189.428 658.101 189.428 654.647V633.157H197.408ZM215.917 638.827C217.27 637.054 219.113 635.561 221.447 634.347C223.78 633.134 226.417 632.527 229.357 632.527C232.717 632.527 235.773 633.367 238.527 635.047C241.327 636.681 243.52 638.991 245.107 641.977C246.693 644.964 247.487 648.394 247.487 652.267C247.487 656.141 246.693 659.617 245.107 662.697C243.52 665.731 241.327 668.111 238.527 669.837C235.773 671.517 232.717 672.357 229.357 672.357C226.417 672.357 223.803 671.774 221.517 670.607C219.23 669.394 217.363 667.901 215.917 666.127V690.067H207.937V633.157H215.917V638.827ZM239.367 652.267C239.367 649.607 238.807 647.321 237.687 645.407C236.613 643.447 235.167 641.977 233.347 640.997C231.573 639.971 229.66 639.457 227.607 639.457C225.6 639.457 223.687 639.971 221.867 640.997C220.093 642.024 218.647 643.517 217.527 645.477C216.453 647.437 215.917 649.747 215.917 652.407C215.917 655.067 216.453 657.401 217.527 659.407C218.647 661.367 220.093 662.861 221.867 663.887C223.687 664.914 225.6 665.427 227.607 665.427C229.66 665.427 231.573 664.914 233.347 663.887C235.167 662.814 236.613 661.274 237.687 659.267C238.807 657.261 239.367 654.927 239.367 652.267ZM252.718 652.407C252.718 648.441 253.511 644.964 255.098 641.977C256.731 638.944 258.971 636.611 261.818 634.977C264.665 633.344 267.931 632.527 271.618 632.527C276.285 632.527 280.135 633.647 283.168 635.887C286.248 638.081 288.325 641.231 289.398 645.337H280.788C280.088 643.424 278.968 641.931 277.428 640.857C275.888 639.784 273.951 639.247 271.618 639.247C268.351 639.247 265.738 640.414 263.778 642.747C261.865 645.034 260.908 648.254 260.908 652.407C260.908 656.561 261.865 659.804 263.778 662.137C265.738 664.471 268.351 665.637 271.618 665.637C276.238 665.637 279.295 663.607 280.788 659.547H289.398C288.278 663.467 286.178 666.594 283.098 668.927C280.018 671.214 276.191 672.357 271.618 672.357C267.931 672.357 264.665 671.541 261.818 669.907C258.971 668.227 256.731 665.894 255.098 662.907C253.511 659.874 252.718 656.374 252.718 652.407ZM314.081 672.357C310.441 672.357 307.151 671.541 304.211 669.907C301.271 668.227 298.961 665.894 297.281 662.907C295.601 659.874 294.761 656.374 294.761 652.407C294.761 648.487 295.624 645.011 297.351 641.977C299.077 638.944 301.434 636.611 304.421 634.977C307.407 633.344 310.744 632.527 314.431 632.527C318.117 632.527 321.454 633.344 324.441 634.977C327.427 636.611 329.784 638.944 331.511 641.977C333.237 645.011 334.101 648.487 334.101 652.407C334.101 656.327 333.214 659.804 331.441 662.837C329.667 665.871 327.241 668.227 324.161 669.907C321.127 671.541 317.767 672.357 314.081 672.357ZM314.081 665.427C316.134 665.427 318.047 664.937 319.821 663.957C321.641 662.977 323.111 661.507 324.231 659.547C325.351 657.587 325.911 655.207 325.911 652.407C325.911 649.607 325.374 647.251 324.301 645.337C323.227 643.377 321.804 641.907 320.031 640.927C318.257 639.947 316.344 639.457 314.291 639.457C312.237 639.457 310.324 639.947 308.551 640.927C306.824 641.907 305.447 643.377 304.421 645.337C303.394 647.251 302.881 649.607 302.881 652.407C302.881 656.561 303.931 659.781 306.031 662.067C308.177 664.307 310.861 665.427 314.081 665.427ZM388.679 632.527C391.713 632.527 394.419 633.157 396.799 634.417C399.226 635.677 401.116 637.544 402.469 640.017C403.869 642.491 404.569 645.477 404.569 648.977V671.727H396.659V650.167C396.659 646.714 395.796 644.077 394.069 642.257C392.343 640.391 389.986 639.457 386.999 639.457C384.013 639.457 381.633 640.391 379.859 642.257C378.133 644.077 377.269 646.714 377.269 650.167V671.727H369.359V650.167C369.359 646.714 368.496 644.077 366.769 642.257C365.043 640.391 362.686 639.457 359.699 639.457C356.713 639.457 354.333 640.391 352.559 642.257C350.833 644.077 349.969 646.714 349.969 650.167V671.727H341.989V633.157H349.969V637.567C351.276 635.981 352.933 634.744 354.939 633.857C356.946 632.971 359.093 632.527 361.379 632.527C364.459 632.527 367.213 633.181 369.639 634.487C372.066 635.794 373.933 637.684 375.239 640.157C376.406 637.824 378.226 635.981 380.699 634.627C383.173 633.227 385.833 632.527 388.679 632.527ZM418.784 628.047C417.337 628.047 416.124 627.557 415.144 626.577C414.164 625.597 413.674 624.384 413.674 622.937C413.674 621.491 414.164 620.277 415.144 619.297C416.124 618.317 417.337 617.827 418.784 617.827C420.184 617.827 421.374 618.317 422.354 619.297C423.334 620.277 423.824 621.491 423.824 622.937C423.824 624.384 423.334 625.597 422.354 626.577C421.374 627.557 420.184 628.047 418.784 628.047ZM422.704 633.157V671.727H414.724V633.157H422.704ZM452.641 632.527C455.674 632.527 458.381 633.157 460.761 634.417C463.187 635.677 465.077 637.544 466.431 640.017C467.784 642.491 468.461 645.477 468.461 648.977V671.727H460.551V650.167C460.551 646.714 459.687 644.077 457.961 642.257C456.234 640.391 453.877 639.457 450.891 639.457C447.904 639.457 445.524 640.391 443.751 642.257C442.024 644.077 441.161 646.714 441.161 650.167V671.727H433.181V633.157H441.161V637.567C442.467 635.981 444.124 634.744 446.131 633.857C448.184 632.971 450.354 632.527 452.641 632.527ZM494.18 632.527C497.166 632.527 499.803 633.134 502.09 634.347C504.423 635.514 506.243 636.984 507.55 638.757V633.157H515.6V672.357C515.6 675.904 514.853 679.054 513.36 681.807C511.866 684.607 509.696 686.801 506.85 688.387C504.05 689.974 500.69 690.767 496.77 690.767C491.543 690.767 487.203 689.531 483.75 687.057C480.296 684.631 478.336 681.317 477.87 677.117H485.78C486.386 679.124 487.67 680.734 489.63 681.947C491.636 683.207 494.016 683.837 496.77 683.837C499.99 683.837 502.58 682.857 504.54 680.897C506.546 678.937 507.55 676.091 507.55 672.357V665.917C506.196 667.737 504.353 669.277 502.02 670.537C499.733 671.751 497.12 672.357 494.18 672.357C490.82 672.357 487.74 671.517 484.94 669.837C482.186 668.111 479.993 665.731 478.36 662.697C476.773 659.617 475.98 656.141 475.98 652.267C475.98 648.394 476.773 644.964 478.36 641.977C479.993 638.991 482.186 636.681 484.94 635.047C487.74 633.367 490.82 632.527 494.18 632.527ZM507.55 652.407C507.55 649.747 506.99 647.437 505.87 645.477C504.796 643.517 503.373 642.024 501.6 640.997C499.826 639.971 497.913 639.457 495.86 639.457C493.806 639.457 491.893 639.971 490.12 640.997C488.346 641.977 486.9 643.447 485.78 645.407C484.706 647.321 484.17 649.607 484.17 652.267C484.17 654.927 484.706 657.261 485.78 659.267C486.9 661.274 488.346 662.814 490.12 663.887C491.94 664.914 493.853 665.427 495.86 665.427C497.913 665.427 499.826 664.914 501.6 663.887C503.373 662.861 504.796 661.367 505.87 659.407C506.99 657.401 507.55 655.067 507.55 652.407ZM590.955 632.527C593.988 632.527 596.695 633.157 599.075 634.417C601.501 635.677 603.391 637.544 604.745 640.017C606.145 642.491 606.845 645.477 606.845 648.977V671.727H598.935V650.167C598.935 646.714 598.071 644.077 596.345 642.257C594.618 640.391 592.261 639.457 589.275 639.457C586.288 639.457 583.908 640.391 582.135 642.257C580.408 644.077 579.545 646.714 579.545 650.167V671.727H571.635V650.167C571.635 646.714 570.771 644.077 569.045 642.257C567.318 640.391 564.961 639.457 561.975 639.457C558.988 639.457 556.608 640.391 554.835 642.257C553.108 644.077 552.245 646.714 552.245 650.167V671.727H544.265V633.157H552.245V637.567C553.551 635.981 555.208 634.744 557.215 633.857C559.221 632.971 561.368 632.527 563.655 632.527C566.735 632.527 569.488 633.181 571.915 634.487C574.341 635.794 576.208 637.684 577.515 640.157C578.681 637.824 580.501 635.981 582.975 634.627C585.448 633.227 588.108 632.527 590.955 632.527ZM633.729 672.357C630.089 672.357 626.799 671.541 623.859 669.907C620.919 668.227 618.609 665.894 616.929 662.907C615.249 659.874 614.409 656.374 614.409 652.407C614.409 648.487 615.272 645.011 616.999 641.977C618.726 638.944 621.082 636.611 624.069 634.977C627.056 633.344 630.392 632.527 634.079 632.527C637.766 632.527 641.102 633.344 644.089 634.977C647.076 636.611 649.432 638.944 651.159 641.977C652.886 645.011 653.749 648.487 653.749 652.407C653.749 656.327 652.862 659.804 651.089 662.837C649.316 665.871 646.889 668.227 643.809 669.907C640.776 671.541 637.416 672.357 633.729 672.357ZM633.729 665.427C635.782 665.427 637.696 664.937 639.469 663.957C641.289 662.977 642.759 661.507 643.879 659.547C644.999 657.587 645.559 655.207 645.559 652.407C645.559 649.607 645.022 647.251 643.949 645.337C642.876 643.377 641.452 641.907 639.679 640.927C637.906 639.947 635.992 639.457 633.939 639.457C631.886 639.457 629.972 639.947 628.199 640.927C626.472 641.907 625.096 643.377 624.069 645.337C623.042 647.251 622.529 649.607 622.529 652.407C622.529 656.561 623.579 659.781 625.679 662.067C627.826 664.307 630.509 665.427 633.729 665.427ZM676.548 664.587L687.468 633.157H695.938L681.238 671.727H671.718L657.088 633.157H665.628L676.548 664.587ZM706.03 628.047C704.583 628.047 703.37 627.557 702.39 626.577C701.41 625.597 700.92 624.384 700.92 622.937C700.92 621.491 701.41 620.277 702.39 619.297C703.37 618.317 704.583 617.827 706.03 617.827C707.43 617.827 708.62 618.317 709.6 619.297C710.58 620.277 711.07 621.491 711.07 622.937C711.07 624.384 710.58 625.597 709.6 626.577C708.62 627.557 707.43 628.047 706.03 628.047ZM709.95 633.157V671.727H701.97V633.157H709.95ZM755.777 651.497C755.777 652.944 755.683 654.251 755.497 655.417H726.027C726.26 658.497 727.403 660.971 729.457 662.837C731.51 664.704 734.03 665.637 737.017 665.637C741.31 665.637 744.343 663.841 746.117 660.247H754.727C753.56 663.794 751.437 666.711 748.357 668.997C745.323 671.237 741.543 672.357 737.017 672.357C733.33 672.357 730.017 671.541 727.077 669.907C724.183 668.227 721.897 665.894 720.217 662.907C718.583 659.874 717.767 656.374 717.767 652.407C717.767 648.441 718.56 644.964 720.147 641.977C721.78 638.944 724.043 636.611 726.937 634.977C729.877 633.344 733.237 632.527 737.017 632.527C740.657 632.527 743.9 633.321 746.747 634.907C749.593 636.494 751.81 638.734 753.397 641.627C754.983 644.474 755.777 647.764 755.777 651.497ZM747.447 648.977C747.4 646.037 746.35 643.681 744.297 641.907C742.243 640.134 739.7 639.247 736.667 639.247C733.913 639.247 731.557 640.134 729.597 641.907C727.637 643.634 726.47 645.991 726.097 648.977H747.447ZM777.63 672.357C774.597 672.357 771.867 671.821 769.44 670.747C767.06 669.627 765.17 668.134 763.77 666.267C762.37 664.354 761.623 662.231 761.53 659.897H769.79C769.93 661.531 770.7 662.907 772.1 664.027C773.547 665.101 775.343 665.637 777.49 665.637C779.73 665.637 781.457 665.217 782.67 664.377C783.93 663.491 784.56 662.371 784.56 661.017C784.56 659.571 783.86 658.497 782.46 657.797C781.107 657.097 778.937 656.327 775.95 655.487C773.057 654.694 770.7 653.924 768.88 653.177C767.06 652.431 765.473 651.287 764.12 649.747C762.813 648.207 762.16 646.177 762.16 643.657C762.16 641.604 762.767 639.737 763.98 638.057C765.193 636.331 766.92 634.977 769.16 633.997C771.447 633.017 774.06 632.527 777 632.527C781.387 632.527 784.91 633.647 787.57 635.887C790.277 638.081 791.723 641.091 791.91 644.917H783.93C783.79 643.191 783.09 641.814 781.83 640.787C780.57 639.761 778.867 639.247 776.72 639.247C774.62 639.247 773.01 639.644 771.89 640.437C770.77 641.231 770.21 642.281 770.21 643.587C770.21 644.614 770.583 645.477 771.33 646.177C772.077 646.877 772.987 647.437 774.06 647.857C775.133 648.231 776.72 648.721 778.82 649.327C781.62 650.074 783.907 650.844 785.68 651.637C787.5 652.384 789.063 653.504 790.37 654.997C791.677 656.491 792.353 658.474 792.4 660.947C792.4 663.141 791.793 665.101 790.58 666.827C789.367 668.554 787.64 669.907 785.4 670.887C783.207 671.867 780.617 672.357 777.63 672.357Z" fill="white"/>
<path d="M553.009 109.8L464.876 137.813C463.841 138.465 462.654 138.847 461.426 138.924L431.152 148.528H557.063C558.969 148.528 560.797 149.269 562.145 150.588C563.493 151.906 564.25 153.695 564.25 155.56V225.872C564.25 235.196 560.464 244.138 553.724 250.731C546.985 257.324 537.844 261.028 528.313 261.028H427.688C418.156 261.028 409.016 257.324 402.276 250.731C395.536 244.138 391.75 235.196 391.75 225.872V155.56C391.75 154.069 392.224 152.677 393.044 151.524L390.241 143.058C387.296 134.191 388.073 124.543 392.399 116.236C396.726 107.928 404.249 101.643 413.313 98.7612L509.007 68.344C518.071 65.4634 527.934 66.223 536.426 70.4557C544.917 74.6884 551.343 82.0475 554.288 90.9143L557.623 100.941C558.212 102.714 558.057 104.644 557.191 106.305C556.326 107.967 554.822 109.224 553.009 109.8V109.8ZM499.189 112.121L517.661 80.8174C516.23 80.9798 514.819 81.2813 513.449 81.7174L495.552 87.3987L476.749 119.25L499.174 112.121H499.189ZM532.179 84.2909C532.091 84.4681 531.995 84.6416 531.892 84.8112L519.616 105.624L541.724 98.5924L540.618 95.2596C539.14 90.7822 536.168 86.9196 532.179 84.2909V84.2909ZM475.111 93.8955L452.686 101.025L433.869 132.877L456.294 125.747L475.125 93.8955H475.111ZM405.018 142.06L413.456 139.388L432.244 107.522L417.754 112.135C412.316 113.864 407.803 117.635 405.207 122.619C402.611 127.604 402.145 133.392 403.911 138.713L405.018 142.06V142.06ZM406.125 162.591V225.872C406.125 231.467 408.397 236.832 412.441 240.788C416.484 244.744 421.969 246.966 427.688 246.966H528.313C534.031 246.966 539.516 244.744 543.56 240.788C547.603 236.832 549.875 231.467 549.875 225.872V162.591H406.125Z" fill="white"/>
</svg>
