<svg width="952" height="836" viewBox="0 0 952 836" fill="none" xmlns="http://www.w3.org/2000/svg">
<rect width="952" height="836" rx="25" fill="#8C20BF" fill-opacity="0.5"/>
<path d="M206.139 438.3C205.059 436.22 203.559 434.66 201.639 433.62C199.719 432.54 197.499 432 194.979 432C192.219 432 189.759 432.62 187.599 433.86C185.439 435.1 183.739 436.86 182.499 439.14C181.299 441.42 180.699 444.06 180.699 447.06C180.699 450.06 181.299 452.72 182.499 455.04C183.739 457.32 185.439 459.08 187.599 460.32C189.759 461.56 192.219 462.18 194.979 462.18C198.699 462.18 201.719 461.14 204.039 459.06C206.359 456.98 207.779 454.16 208.299 450.6H192.639V445.14H215.619V450.48C215.179 453.72 214.019 456.7 212.139 459.42C210.299 462.14 207.879 464.32 204.879 465.96C201.919 467.56 198.619 468.36 194.979 468.36C191.059 468.36 187.479 467.46 184.239 465.66C180.999 463.82 178.419 461.28 176.499 458.04C174.619 454.8 173.679 451.14 173.679 447.06C173.679 442.98 174.619 439.32 176.499 436.08C178.419 432.84 180.999 430.32 184.239 428.52C187.519 426.68 191.099 425.76 194.979 425.76C199.419 425.76 203.359 426.86 206.799 429.06C210.279 431.22 212.799 434.3 214.359 438.3H206.139ZM252.665 450.66C252.665 451.9 252.585 453.02 252.425 454.02H227.165C227.365 456.66 228.345 458.78 230.105 460.38C231.865 461.98 234.025 462.78 236.585 462.78C240.265 462.78 242.865 461.24 244.385 458.16H251.765C250.765 461.2 248.945 463.7 246.305 465.66C243.705 467.58 240.465 468.54 236.585 468.54C233.425 468.54 230.585 467.84 228.065 466.44C225.585 465 223.625 463 222.185 460.44C220.785 457.84 220.085 454.84 220.085 451.44C220.085 448.04 220.765 445.06 222.125 442.5C223.525 439.9 225.465 437.9 227.945 436.5C230.465 435.1 233.345 434.4 236.585 434.4C239.705 434.4 242.485 435.08 244.925 436.44C247.365 437.8 249.265 439.72 250.625 442.2C251.985 444.64 252.665 447.46 252.665 450.66ZM245.525 448.5C245.485 445.98 244.585 443.96 242.825 442.44C241.065 440.92 238.885 440.16 236.285 440.16C233.925 440.16 231.905 440.92 230.225 442.44C228.545 443.92 227.545 445.94 227.225 448.5H245.525ZM267.376 440.52V458.82C267.376 460.06 267.656 460.96 268.216 461.52C268.816 462.04 269.816 462.3 271.216 462.3H275.416V468H270.016C266.936 468 264.576 467.28 262.936 465.84C261.296 464.4 260.476 462.06 260.476 458.82V440.52H256.576V434.94H260.476V426.72H267.376V434.94H275.416V440.52H267.376ZM305.287 440.52V458.82C305.287 460.06 305.567 460.96 306.127 461.52C306.727 462.04 307.727 462.3 309.127 462.3H313.327V468H307.927C304.847 468 302.487 467.28 300.847 465.84C299.207 464.4 298.387 462.06 298.387 458.82V440.52H294.487V434.94H298.387V426.72H305.287V434.94H313.327V440.52H305.287ZM336.731 434.4C339.251 434.4 341.491 434.94 343.451 436.02C345.451 437.1 347.011 438.7 348.131 440.82C349.291 442.94 349.871 445.5 349.871 448.5V468H343.091V449.52C343.091 446.56 342.351 444.3 340.871 442.74C339.391 441.14 337.371 440.34 334.811 440.34C332.251 440.34 330.211 441.14 328.691 442.74C327.211 444.3 326.471 446.56 326.471 449.52V468H319.631V423.6H326.471V438.78C327.631 437.38 329.091 436.3 330.851 435.54C332.651 434.78 334.611 434.4 336.731 434.4ZM388.896 450.66C388.896 451.9 388.816 453.02 388.656 454.02H363.396C363.596 456.66 364.576 458.78 366.336 460.38C368.096 461.98 370.256 462.78 372.816 462.78C376.496 462.78 379.096 461.24 380.616 458.16H387.996C386.996 461.2 385.176 463.7 382.536 465.66C379.936 467.58 376.696 468.54 372.816 468.54C369.656 468.54 366.816 467.84 364.296 466.44C361.816 465 359.856 463 358.416 460.44C357.016 457.84 356.316 454.84 356.316 451.44C356.316 448.04 356.996 445.06 358.356 442.5C359.756 439.9 361.696 437.9 364.176 436.5C366.696 435.1 369.576 434.4 372.816 434.4C375.936 434.4 378.716 435.08 381.156 436.44C383.596 437.8 385.496 439.72 386.856 442.2C388.216 444.64 388.896 447.46 388.896 450.66ZM381.756 448.5C381.716 445.98 380.816 443.96 379.056 442.44C377.296 440.92 375.116 440.16 372.516 440.16C370.156 440.16 368.136 440.92 366.456 442.44C364.776 443.92 363.776 445.94 363.456 448.5H381.756ZM418.053 423.6V468H411.213V423.6H418.053ZM424.753 451.32C424.753 448 425.433 445.06 426.793 442.5C428.193 439.94 430.073 437.96 432.433 436.56C434.833 435.12 437.473 434.4 440.353 434.4C442.953 434.4 445.213 434.92 447.133 435.96C449.093 436.96 450.653 438.22 451.813 439.74V434.94H458.713V468H451.813V463.08C450.653 464.64 449.073 465.94 447.073 466.98C445.073 468.02 442.793 468.54 440.233 468.54C437.393 468.54 434.793 467.82 432.433 466.38C430.073 464.9 428.193 462.86 426.793 460.26C425.433 457.62 424.753 454.64 424.753 451.32ZM451.813 451.44C451.813 449.16 451.333 447.18 450.373 445.5C449.453 443.82 448.233 442.54 446.713 441.66C445.193 440.78 443.553 440.34 441.793 440.34C440.033 440.34 438.393 440.78 436.873 441.66C435.353 442.5 434.113 443.76 433.153 445.44C432.233 447.08 431.773 449.04 431.773 451.32C431.773 453.6 432.233 455.6 433.153 457.32C434.113 459.04 435.353 460.36 436.873 461.28C438.433 462.16 440.073 462.6 441.793 462.6C443.553 462.6 445.193 462.16 446.713 461.28C448.233 460.4 449.453 459.12 450.373 457.44C451.333 455.72 451.813 453.72 451.813 451.44ZM475.677 440.52V458.82C475.677 460.06 475.957 460.96 476.517 461.52C477.117 462.04 478.117 462.3 479.517 462.3H483.717V468H478.317C475.237 468 472.877 467.28 471.237 465.84C469.597 464.4 468.777 462.06 468.777 458.82V440.52H464.877V434.94H468.777V426.72H475.677V434.94H483.717V440.52H475.677ZM520.321 450.66C520.321 451.9 520.241 453.02 520.081 454.02H494.821C495.021 456.66 496.001 458.78 497.761 460.38C499.521 461.98 501.681 462.78 504.241 462.78C507.921 462.78 510.521 461.24 512.041 458.16H519.421C518.421 461.2 516.601 463.7 513.961 465.66C511.361 467.58 508.121 468.54 504.241 468.54C501.081 468.54 498.241 467.84 495.721 466.44C493.241 465 491.281 463 489.841 460.44C488.441 457.84 487.741 454.84 487.741 451.44C487.741 448.04 488.421 445.06 489.781 442.5C491.181 439.9 493.121 437.9 495.601 436.5C498.121 435.1 501.001 434.4 504.241 434.4C507.361 434.4 510.141 435.08 512.581 436.44C515.021 437.8 516.921 439.72 518.281 442.2C519.641 444.64 520.321 447.46 520.321 450.66ZM513.181 448.5C513.141 445.98 512.241 443.96 510.481 442.44C508.721 440.92 506.541 440.16 503.941 440.16C501.581 440.16 499.561 440.92 497.881 442.44C496.201 443.92 495.201 445.94 494.881 448.5H513.181ZM539.053 468.54C536.453 468.54 534.113 468.08 532.033 467.16C529.993 466.2 528.373 464.92 527.173 463.32C525.973 461.68 525.333 459.86 525.253 457.86H532.333C532.453 459.26 533.113 460.44 534.313 461.4C535.553 462.32 537.093 462.78 538.933 462.78C540.853 462.78 542.333 462.42 543.373 461.7C544.453 460.94 544.993 459.98 544.993 458.82C544.993 457.58 544.393 456.66 543.193 456.06C542.033 455.46 540.173 454.8 537.613 454.08C535.133 453.4 533.113 452.74 531.553 452.1C529.993 451.46 528.633 450.48 527.473 449.16C526.353 447.84 525.793 446.1 525.793 443.94C525.793 442.18 526.313 440.58 527.353 439.14C528.393 437.66 529.873 436.5 531.793 435.66C533.753 434.82 535.993 434.4 538.513 434.4C542.273 434.4 545.293 435.36 547.573 437.28C549.893 439.16 551.133 441.74 551.293 445.02H544.453C544.333 443.54 543.733 442.36 542.653 441.48C541.573 440.6 540.113 440.16 538.273 440.16C536.473 440.16 535.093 440.5 534.133 441.18C533.173 441.86 532.693 442.76 532.693 443.88C532.693 444.76 533.013 445.5 533.653 446.1C534.293 446.7 535.073 447.18 535.993 447.54C536.913 447.86 538.273 448.28 540.073 448.8C542.473 449.44 544.433 450.1 545.953 450.78C547.513 451.42 548.853 452.38 549.973 453.66C551.093 454.94 551.673 456.64 551.713 458.76C551.713 460.64 551.193 462.32 550.153 463.8C549.113 465.28 547.633 466.44 545.713 467.28C543.833 468.12 541.613 468.54 539.053 468.54ZM567.084 440.52V458.82C567.084 460.06 567.364 460.96 567.924 461.52C568.524 462.04 569.524 462.3 570.924 462.3H575.124V468H569.724C566.644 468 564.284 467.28 562.644 465.84C561.004 464.4 560.184 462.06 560.184 458.82V440.52H556.284V434.94H560.184V426.72H567.084V434.94H575.124V440.52H567.084ZM637.034 434.4C639.634 434.4 641.954 434.94 643.994 436.02C646.074 437.1 647.694 438.7 648.854 440.82C650.054 442.94 650.654 445.5 650.654 448.5V468H643.874V449.52C643.874 446.56 643.134 444.3 641.654 442.74C640.174 441.14 638.154 440.34 635.594 440.34C633.034 440.34 630.994 441.14 629.474 442.74C627.994 444.3 627.254 446.56 627.254 449.52V468H620.474V449.52C620.474 446.56 619.734 444.3 618.254 442.74C616.774 441.14 614.754 440.34 612.194 440.34C609.634 440.34 607.594 441.14 606.074 442.74C604.594 444.3 603.854 446.56 603.854 449.52V468H597.014V434.94H603.854V438.72C604.974 437.36 606.394 436.3 608.114 435.54C609.834 434.78 611.674 434.4 613.634 434.4C616.274 434.4 618.634 434.96 620.714 436.08C622.794 437.2 624.394 438.82 625.514 440.94C626.514 438.94 628.074 437.36 630.194 436.2C632.314 435 634.594 434.4 637.034 434.4ZM673.697 468.54C670.577 468.54 667.757 467.84 665.237 466.44C662.717 465 660.737 463 659.297 460.44C657.857 457.84 657.137 454.84 657.137 451.44C657.137 448.08 657.877 445.1 659.357 442.5C660.837 439.9 662.857 437.9 665.417 436.5C667.977 435.1 670.837 434.4 673.997 434.4C677.157 434.4 680.017 435.1 682.577 436.5C685.137 437.9 687.157 439.9 688.637 442.5C690.117 445.1 690.857 448.08 690.857 451.44C690.857 454.8 690.097 457.78 688.577 460.38C687.057 462.98 684.977 465 682.337 466.44C679.737 467.84 676.857 468.54 673.697 468.54ZM673.697 462.6C675.457 462.6 677.097 462.18 678.617 461.34C680.177 460.5 681.437 459.24 682.397 457.56C683.357 455.88 683.837 453.84 683.837 451.44C683.837 449.04 683.377 447.02 682.457 445.38C681.537 443.7 680.317 442.44 678.797 441.6C677.277 440.76 675.637 440.34 673.877 440.34C672.117 440.34 670.477 440.76 668.957 441.6C667.477 442.44 666.297 443.7 665.417 445.38C664.537 447.02 664.097 449.04 664.097 451.44C664.097 455 664.997 457.76 666.797 459.72C668.637 461.64 670.937 462.6 673.697 462.6ZM710.399 461.88L719.759 434.94H727.019L714.419 468H706.259L693.719 434.94H701.039L710.399 461.88ZM735.669 430.56C734.429 430.56 733.389 430.14 732.549 429.3C731.709 428.46 731.289 427.42 731.289 426.18C731.289 424.94 731.709 423.9 732.549 423.06C733.389 422.22 734.429 421.8 735.669 421.8C736.869 421.8 737.889 422.22 738.729 423.06C739.569 423.9 739.989 424.94 739.989 426.18C739.989 427.42 739.569 428.46 738.729 429.3C737.889 430.14 736.869 430.56 735.669 430.56ZM739.029 434.94V468H732.189V434.94H739.029ZM778.31 450.66C778.31 451.9 778.23 453.02 778.07 454.02H752.81C753.01 456.66 753.99 458.78 755.75 460.38C757.51 461.98 759.67 462.78 762.23 462.78C765.91 462.78 768.51 461.24 770.03 458.16H777.41C776.41 461.2 774.59 463.7 771.95 465.66C769.35 467.58 766.11 468.54 762.23 468.54C759.07 468.54 756.23 467.84 753.71 466.44C751.23 465 749.27 463 747.83 460.44C746.43 457.84 745.73 454.84 745.73 451.44C745.73 448.04 746.41 445.06 747.77 442.5C749.17 439.9 751.11 437.9 753.59 436.5C756.11 435.1 758.99 434.4 762.23 434.4C765.35 434.4 768.13 435.08 770.57 436.44C773.01 437.8 774.91 439.72 776.27 442.2C777.63 444.64 778.31 447.46 778.31 450.66ZM771.17 448.5C771.13 445.98 770.23 443.96 768.47 442.44C766.71 440.92 764.53 440.16 761.93 440.16C759.57 440.16 757.55 440.92 755.87 442.44C754.19 443.92 753.19 445.94 752.87 448.5H771.17ZM189.991 524.94V558H183.151V554.1C182.071 555.46 180.651 556.54 178.891 557.34C177.171 558.1 175.331 558.48 173.371 558.48C170.771 558.48 168.431 557.94 166.351 556.86C164.311 555.78 162.691 554.18 161.491 552.06C160.331 549.94 159.751 547.38 159.751 544.38V524.94H166.531V543.36C166.531 546.32 167.271 548.6 168.751 550.2C170.231 551.76 172.251 552.54 174.811 552.54C177.371 552.54 179.391 551.76 180.871 550.2C182.391 548.6 183.151 546.32 183.151 543.36V524.94H189.991ZM205.856 529.8C207.016 528.28 208.596 527 210.596 525.96C212.596 524.92 214.856 524.4 217.376 524.4C220.256 524.4 222.876 525.12 225.236 526.56C227.636 527.96 229.516 529.94 230.876 532.5C232.236 535.06 232.916 538 232.916 541.32C232.916 544.64 232.236 547.62 230.876 550.26C229.516 552.86 227.636 554.9 225.236 556.38C222.876 557.82 220.256 558.54 217.376 558.54C214.856 558.54 212.616 558.04 210.656 557.04C208.696 556 207.096 554.72 205.856 553.2V573.72H199.016V524.94H205.856V529.8ZM225.956 541.32C225.956 539.04 225.476 537.08 224.516 535.44C223.596 533.76 222.356 532.5 220.796 531.66C219.276 530.78 217.636 530.34 215.876 530.34C214.156 530.34 212.516 530.78 210.956 531.66C209.436 532.54 208.196 533.82 207.236 535.5C206.316 537.18 205.856 539.16 205.856 541.44C205.856 543.72 206.316 545.72 207.236 547.44C208.196 549.12 209.436 550.4 210.956 551.28C212.516 552.16 214.156 552.6 215.876 552.6C217.636 552.6 219.276 552.16 220.796 551.28C222.356 550.36 223.596 549.04 224.516 547.32C225.476 545.6 225.956 543.6 225.956 541.32ZM237.4 541.32C237.4 538 238.08 535.06 239.44 532.5C240.84 529.94 242.72 527.96 245.08 526.56C247.48 525.12 250.14 524.4 253.06 524.4C255.22 524.4 257.34 524.88 259.42 525.84C261.54 526.76 263.22 528 264.46 529.56V513.6H271.36V558H264.46V553.02C263.34 554.62 261.78 555.94 259.78 556.98C257.82 558.02 255.56 558.54 253 558.54C250.12 558.54 247.48 557.82 245.08 556.38C242.72 554.9 240.84 552.86 239.44 550.26C238.08 547.62 237.4 544.64 237.4 541.32ZM264.46 541.44C264.46 539.16 263.98 537.18 263.02 535.5C262.1 533.82 260.88 532.54 259.36 531.66C257.84 530.78 256.2 530.34 254.44 530.34C252.68 530.34 251.04 530.78 249.52 531.66C248 532.5 246.76 533.76 245.8 535.44C244.88 537.08 244.42 539.04 244.42 541.32C244.42 543.6 244.88 545.6 245.8 547.32C246.76 549.04 248 550.36 249.52 551.28C251.08 552.16 252.72 552.6 254.44 552.6C256.2 552.6 257.84 552.16 259.36 551.28C260.88 550.4 262.1 549.12 263.02 547.44C263.98 545.72 264.46 543.72 264.46 541.44ZM278.064 541.32C278.064 538 278.744 535.06 280.104 532.5C281.504 529.94 283.384 527.96 285.744 526.56C288.144 525.12 290.784 524.4 293.664 524.4C296.264 524.4 298.524 524.92 300.444 525.96C302.404 526.96 303.964 528.22 305.124 529.74V524.94H312.024V558H305.124V553.08C303.964 554.64 302.384 555.94 300.384 556.98C298.384 558.02 296.104 558.54 293.544 558.54C290.704 558.54 288.104 557.82 285.744 556.38C283.384 554.9 281.504 552.86 280.104 550.26C278.744 547.62 278.064 544.64 278.064 541.32ZM305.124 541.44C305.124 539.16 304.644 537.18 303.684 535.5C302.764 533.82 301.544 532.54 300.024 531.66C298.504 530.78 296.864 530.34 295.104 530.34C293.344 530.34 291.704 530.78 290.184 531.66C288.664 532.5 287.424 533.76 286.464 535.44C285.544 537.08 285.084 539.04 285.084 541.32C285.084 543.6 285.544 545.6 286.464 547.32C287.424 549.04 288.664 550.36 290.184 551.28C291.744 552.16 293.384 552.6 295.104 552.6C296.864 552.6 298.504 552.16 300.024 551.28C301.544 550.4 302.764 549.12 303.684 547.44C304.644 545.72 305.124 543.72 305.124 541.44ZM328.988 530.52V548.82C328.988 550.06 329.268 550.96 329.828 551.52C330.428 552.04 331.428 552.3 332.828 552.3H337.028V558H331.628C328.548 558 326.188 557.28 324.548 555.84C322.908 554.4 322.088 552.06 322.088 548.82V530.52H318.188V524.94H322.088V516.72H328.988V524.94H337.028V530.52H328.988ZM373.632 540.66C373.632 541.9 373.552 543.02 373.392 544.02H348.132C348.332 546.66 349.312 548.78 351.072 550.38C352.832 551.98 354.992 552.78 357.552 552.78C361.232 552.78 363.832 551.24 365.352 548.16H372.732C371.732 551.2 369.912 553.7 367.272 555.66C364.672 557.58 361.432 558.54 357.552 558.54C354.392 558.54 351.552 557.84 349.032 556.44C346.552 555 344.592 553 343.152 550.44C341.752 547.84 341.052 544.84 341.052 541.44C341.052 538.04 341.732 535.06 343.092 532.5C344.492 529.9 346.432 527.9 348.912 526.5C351.432 525.1 354.312 524.4 357.552 524.4C360.672 524.4 363.452 525.08 365.892 526.44C368.332 527.8 370.232 529.72 371.592 532.2C372.952 534.64 373.632 537.46 373.632 540.66ZM366.492 538.5C366.452 535.98 365.552 533.96 363.792 532.44C362.032 530.92 359.852 530.16 357.252 530.16C354.892 530.16 352.872 530.92 351.192 532.44C349.512 533.92 348.512 535.94 348.192 538.5H366.492ZM392.363 558.54C389.763 558.54 387.423 558.08 385.343 557.16C383.303 556.2 381.683 554.92 380.483 553.32C379.283 551.68 378.643 549.86 378.563 547.86H385.643C385.763 549.26 386.423 550.44 387.623 551.4C388.863 552.32 390.403 552.78 392.243 552.78C394.163 552.78 395.643 552.42 396.683 551.7C397.763 550.94 398.303 549.98 398.303 548.82C398.303 547.58 397.703 546.66 396.503 546.06C395.343 545.46 393.483 544.8 390.923 544.08C388.443 543.4 386.423 542.74 384.863 542.1C383.303 541.46 381.943 540.48 380.783 539.16C379.663 537.84 379.103 536.1 379.103 533.94C379.103 532.18 379.623 530.58 380.663 529.14C381.703 527.66 383.183 526.5 385.103 525.66C387.063 524.82 389.303 524.4 391.823 524.4C395.583 524.4 398.603 525.36 400.883 527.28C403.203 529.16 404.443 531.74 404.603 535.02H397.763C397.643 533.54 397.043 532.36 395.963 531.48C394.883 530.6 393.423 530.16 391.583 530.16C389.783 530.16 388.403 530.5 387.443 531.18C386.483 531.86 386.003 532.76 386.003 533.88C386.003 534.76 386.323 535.5 386.963 536.1C387.603 536.7 388.383 537.18 389.303 537.54C390.223 537.86 391.583 538.28 393.383 538.8C395.783 539.44 397.743 540.1 399.263 540.78C400.823 541.42 402.163 542.38 403.283 543.66C404.403 544.94 404.983 546.64 405.023 548.76C405.023 550.64 404.503 552.32 403.463 553.8C402.423 555.28 400.943 556.44 399.023 557.28C397.143 558.12 394.923 558.54 392.363 558.54ZM441.86 530.52H435.74V558H428.84V530.52H424.94V524.94H428.84V522.6C428.84 518.8 429.84 516.04 431.84 514.32C433.88 512.56 437.06 511.68 441.38 511.68V517.38C439.3 517.38 437.84 517.78 437 518.58C436.16 519.34 435.74 520.68 435.74 522.6V524.94H441.86V530.52ZM454.762 529.74C455.762 528.06 457.082 526.76 458.722 525.84C460.402 524.88 462.382 524.4 464.662 524.4V531.48H462.922C460.242 531.48 458.202 532.16 456.802 533.52C455.442 534.88 454.762 537.24 454.762 540.6V558H447.922V524.94H454.762V529.74ZM485.289 558.54C482.169 558.54 479.349 557.84 476.829 556.44C474.309 555 472.329 553 470.889 550.44C469.449 547.84 468.729 544.84 468.729 541.44C468.729 538.08 469.469 535.1 470.949 532.5C472.429 529.9 474.449 527.9 477.009 526.5C479.569 525.1 482.429 524.4 485.589 524.4C488.749 524.4 491.609 525.1 494.169 526.5C496.729 527.9 498.749 529.9 500.229 532.5C501.709 535.1 502.449 538.08 502.449 541.44C502.449 544.8 501.689 547.78 500.169 550.38C498.649 552.98 496.569 555 493.929 556.44C491.329 557.84 488.449 558.54 485.289 558.54ZM485.289 552.6C487.049 552.6 488.689 552.18 490.209 551.34C491.769 550.5 493.029 549.24 493.989 547.56C494.949 545.88 495.429 543.84 495.429 541.44C495.429 539.04 494.969 537.02 494.049 535.38C493.129 533.7 491.909 532.44 490.389 531.6C488.869 530.76 487.229 530.34 485.469 530.34C483.709 530.34 482.069 530.76 480.549 531.6C479.069 532.44 477.889 533.7 477.009 535.38C476.129 537.02 475.689 539.04 475.689 541.44C475.689 545 476.589 547.76 478.389 549.72C480.229 551.64 482.529 552.6 485.289 552.6ZM549.231 524.4C551.831 524.4 554.151 524.94 556.191 526.02C558.271 527.1 559.891 528.7 561.051 530.82C562.251 532.94 562.851 535.5 562.851 538.5V558H556.071V539.52C556.071 536.56 555.331 534.3 553.851 532.74C552.371 531.14 550.351 530.34 547.791 530.34C545.231 530.34 543.191 531.14 541.671 532.74C540.191 534.3 539.451 536.56 539.451 539.52V558H532.671V539.52C532.671 536.56 531.931 534.3 530.451 532.74C528.971 531.14 526.951 530.34 524.391 530.34C521.831 530.34 519.791 531.14 518.271 532.74C516.791 534.3 516.051 536.56 516.051 539.52V558H509.211V524.94H516.051V528.72C517.171 527.36 518.591 526.3 520.311 525.54C522.031 524.78 523.871 524.4 525.831 524.4C528.471 524.4 530.831 524.96 532.911 526.08C534.991 527.2 536.591 528.82 537.711 530.94C538.711 528.94 540.271 527.36 542.391 526.2C544.511 525 546.791 524.4 549.231 524.4ZM584.861 541.32C584.861 538 585.541 535.06 586.901 532.5C588.301 529.94 590.181 527.96 592.541 526.56C594.941 525.12 597.581 524.4 600.461 524.4C603.061 524.4 605.321 524.92 607.241 525.96C609.201 526.96 610.761 528.22 611.921 529.74V524.94H618.821V558H611.921V553.08C610.761 554.64 609.181 555.94 607.181 556.98C605.181 558.02 602.901 558.54 600.341 558.54C597.501 558.54 594.901 557.82 592.541 556.38C590.181 554.9 588.301 552.86 586.901 550.26C585.541 547.62 584.861 544.64 584.861 541.32ZM611.921 541.44C611.921 539.16 611.441 537.18 610.481 535.5C609.561 533.82 608.341 532.54 606.821 531.66C605.301 530.78 603.661 530.34 601.901 530.34C600.141 530.34 598.501 530.78 596.981 531.66C595.461 532.5 594.221 533.76 593.261 535.44C592.341 537.08 591.881 539.04 591.881 541.32C591.881 543.6 592.341 545.6 593.261 547.32C594.221 549.04 595.461 550.36 596.981 551.28C598.541 552.16 600.181 552.6 601.901 552.6C603.661 552.6 605.301 552.16 606.821 551.28C608.341 550.4 609.561 549.12 610.481 547.44C611.441 545.72 611.921 543.72 611.921 541.44ZM660.071 524.4C662.671 524.4 664.991 524.94 667.031 526.02C669.111 527.1 670.731 528.7 671.891 530.82C673.051 532.94 673.631 535.5 673.631 538.5V558H666.851V539.52C666.851 536.56 666.111 534.3 664.631 532.74C663.151 531.14 661.131 530.34 658.571 530.34C656.011 530.34 653.971 531.14 652.451 532.74C650.971 534.3 650.231 536.56 650.231 539.52V558H643.391V524.94H650.231V528.72C651.351 527.36 652.771 526.3 654.491 525.54C656.251 524.78 658.111 524.4 660.071 524.4ZM712.655 540.66C712.655 541.9 712.575 543.02 712.415 544.02H687.155C687.355 546.66 688.335 548.78 690.095 550.38C691.855 551.98 694.015 552.78 696.575 552.78C700.255 552.78 702.855 551.24 704.375 548.16H711.755C710.755 551.2 708.935 553.7 706.295 555.66C703.695 557.58 700.455 558.54 696.575 558.54C693.415 558.54 690.575 557.84 688.055 556.44C685.575 555 683.615 553 682.175 550.44C680.775 547.84 680.075 544.84 680.075 541.44C680.075 538.04 680.755 535.06 682.115 532.5C683.515 529.9 685.455 527.9 687.935 526.5C690.455 525.1 693.335 524.4 696.575 524.4C699.695 524.4 702.475 525.08 704.915 526.44C707.355 527.8 709.255 529.72 710.615 532.2C711.975 534.64 712.655 537.46 712.655 540.66ZM705.515 538.5C705.475 535.98 704.575 533.96 702.815 532.44C701.055 530.92 698.875 530.16 696.275 530.16C693.915 530.16 691.895 530.92 690.215 532.44C688.535 533.92 687.535 535.94 687.215 538.5H705.515ZM763.787 524.94L753.527 558H746.327L739.667 533.58L733.007 558H725.807L715.487 524.94H722.447L729.347 551.52L736.367 524.94H743.507L750.227 551.4L757.067 524.94H763.787ZM780.898 558.54C778.298 558.54 775.958 558.08 773.878 557.16C771.838 556.2 770.218 554.92 769.018 553.32C767.818 551.68 767.178 549.86 767.098 547.86H774.178C774.298 549.26 774.958 550.44 776.158 551.4C777.398 552.32 778.938 552.78 780.778 552.78C782.698 552.78 784.178 552.42 785.218 551.7C786.298 550.94 786.838 549.98 786.838 548.82C786.838 547.58 786.238 546.66 785.038 546.06C783.878 545.46 782.018 544.8 779.458 544.08C776.978 543.4 774.958 542.74 773.398 542.1C771.838 541.46 770.478 540.48 769.318 539.16C768.198 537.84 767.638 536.1 767.638 533.94C767.638 532.18 768.158 530.58 769.198 529.14C770.238 527.66 771.718 526.5 773.638 525.66C775.598 524.82 777.838 524.4 780.358 524.4C784.118 524.4 787.138 525.36 789.418 527.28C791.738 529.16 792.978 531.74 793.138 535.02H786.298C786.178 533.54 785.578 532.36 784.498 531.48C783.418 530.6 781.958 530.16 780.118 530.16C778.318 530.16 776.938 530.5 775.978 531.18C775.018 531.86 774.538 532.76 774.538 533.88C774.538 534.76 774.858 535.5 775.498 536.1C776.138 536.7 776.918 537.18 777.838 537.54C778.758 537.86 780.118 538.28 781.918 538.8C784.318 539.44 786.278 540.1 787.798 540.78C789.358 541.42 790.698 542.38 791.818 543.66C792.938 544.94 793.518 546.64 793.558 548.76C793.558 550.64 793.038 552.32 791.998 553.8C790.958 555.28 789.478 556.44 787.558 557.28C785.678 558.12 783.458 558.54 780.898 558.54ZM427.036 620.52H420.916V648H414.016V620.52H410.116V614.94H414.016V612.6C414.016 608.8 415.016 606.04 417.016 604.32C419.056 602.56 422.236 601.68 426.556 601.68V607.38C424.476 607.38 423.016 607.78 422.176 608.58C421.336 609.34 420.916 610.68 420.916 612.6V614.94H427.036V620.52ZM463.398 630.66C463.398 631.9 463.318 633.02 463.158 634.02H437.898C438.098 636.66 439.078 638.78 440.838 640.38C442.598 641.98 444.758 642.78 447.318 642.78C450.998 642.78 453.598 641.24 455.118 638.16H462.498C461.498 641.2 459.678 643.7 457.038 645.66C454.438 647.58 451.198 648.54 447.318 648.54C444.158 648.54 441.318 647.84 438.798 646.44C436.318 645 434.358 643 432.918 640.44C431.518 637.84 430.818 634.84 430.818 631.44C430.818 628.04 431.498 625.06 432.858 622.5C434.258 619.9 436.198 617.9 438.678 616.5C441.198 615.1 444.078 614.4 447.318 614.4C450.438 614.4 453.218 615.08 455.658 616.44C458.098 617.8 459.998 619.72 461.358 622.2C462.718 624.64 463.398 627.46 463.398 630.66ZM456.258 628.5C456.218 625.98 455.318 623.96 453.558 622.44C451.798 620.92 449.618 620.16 447.018 620.16C444.658 620.16 442.638 620.92 440.958 622.44C439.278 623.92 438.278 625.94 437.958 628.5H456.258ZM500.429 630.66C500.429 631.9 500.349 633.02 500.189 634.02H474.929C475.129 636.66 476.109 638.78 477.869 640.38C479.629 641.98 481.789 642.78 484.349 642.78C488.029 642.78 490.629 641.24 492.149 638.16H499.529C498.529 641.2 496.709 643.7 494.069 645.66C491.469 647.58 488.229 648.54 484.349 648.54C481.189 648.54 478.349 647.84 475.829 646.44C473.349 645 471.389 643 469.949 640.44C468.549 637.84 467.849 634.84 467.849 631.44C467.849 628.04 468.529 625.06 469.889 622.5C471.289 619.9 473.229 617.9 475.709 616.5C478.229 615.1 481.109 614.4 484.349 614.4C487.469 614.4 490.249 615.08 492.689 616.44C495.129 617.8 497.029 619.72 498.389 622.2C499.749 624.64 500.429 627.46 500.429 630.66ZM493.289 628.5C493.249 625.98 492.349 623.96 490.589 622.44C488.829 620.92 486.649 620.16 484.049 620.16C481.689 620.16 479.669 620.92 477.989 622.44C476.309 623.92 475.309 625.94 474.989 628.5H493.289ZM504.88 631.32C504.88 628 505.56 625.06 506.92 622.5C508.32 619.94 510.2 617.96 512.56 616.56C514.96 615.12 517.62 614.4 520.54 614.4C522.7 614.4 524.82 614.88 526.9 615.84C529.02 616.76 530.7 618 531.94 619.56V603.6H538.84V648H531.94V643.02C530.82 644.62 529.26 645.94 527.26 646.98C525.3 648.02 523.04 648.54 520.48 648.54C517.6 648.54 514.96 647.82 512.56 646.38C510.2 644.9 508.32 642.86 506.92 640.26C505.56 637.62 504.88 634.64 504.88 631.32ZM531.94 631.44C531.94 629.16 531.46 627.18 530.5 625.5C529.58 623.82 528.36 622.54 526.84 621.66C525.32 620.78 523.68 620.34 521.92 620.34C520.16 620.34 518.52 620.78 517 621.66C515.48 622.5 514.24 623.76 513.28 625.44C512.36 627.08 511.9 629.04 511.9 631.32C511.9 633.6 512.36 635.6 513.28 637.32C514.24 639.04 515.48 640.36 517 641.28C518.56 642.16 520.2 642.6 521.92 642.6C523.68 642.6 525.32 642.16 526.84 641.28C528.36 640.4 529.58 639.12 530.5 637.44C531.46 635.72 531.94 633.72 531.94 631.44Z" fill="white"/>
<path d="M416.938 153.625C415.197 153.625 413.528 154.316 412.297 155.547C411.066 156.778 410.375 158.447 410.375 160.188C410.375 161.928 411.066 163.597 412.297 164.828C413.528 166.059 415.197 166.75 416.938 166.75H508.812C510.553 166.75 512.222 166.059 513.453 164.828C514.684 163.597 515.375 161.928 515.375 160.188C515.375 158.447 514.684 156.778 513.453 155.547C512.222 154.316 510.553 153.625 508.812 153.625H416.938ZM416.938 179.875C415.197 179.875 413.528 180.566 412.297 181.797C411.066 183.028 410.375 184.697 410.375 186.438V212.688C410.375 214.428 411.066 216.097 412.297 217.328C413.528 218.559 415.197 219.25 416.938 219.25H443.188C444.928 219.25 446.597 218.559 447.828 217.328C449.059 216.097 449.75 214.428 449.75 212.688V186.438C449.75 184.697 449.059 183.028 447.828 181.797C446.597 180.566 444.928 179.875 443.188 179.875H416.938ZM423.5 206.125V193H436.625V206.125H423.5ZM469.438 179.875C467.697 179.875 466.028 180.566 464.797 181.797C463.566 183.028 462.875 184.697 462.875 186.438C462.875 188.178 463.566 189.847 464.797 191.078C466.028 192.309 467.697 193 469.438 193H508.812C510.553 193 512.222 192.309 513.453 191.078C514.684 189.847 515.375 188.178 515.375 186.438C515.375 184.697 514.684 183.028 513.453 181.797C512.222 180.566 510.553 179.875 508.812 179.875H469.438ZM469.438 206.125C467.697 206.125 466.028 206.816 464.797 208.047C463.566 209.278 462.875 210.947 462.875 212.688C462.875 214.428 463.566 216.097 464.797 217.328C466.028 218.559 467.697 219.25 469.438 219.25H508.812C510.553 219.25 512.222 218.559 513.453 217.328C514.684 216.097 515.375 214.428 515.375 212.688C515.375 210.947 514.684 209.278 513.453 208.047C512.222 206.816 510.553 206.125 508.812 206.125H469.438ZM384.125 140.5C384.125 133.538 386.891 126.861 391.813 121.938C396.736 117.016 403.413 114.25 410.375 114.25H515.375C522.337 114.25 529.014 117.016 533.937 121.938C538.859 126.861 541.625 133.538 541.625 140.5C548.587 140.5 555.264 143.266 560.187 148.188C565.109 153.111 567.875 159.788 567.875 166.75V225.812C567.875 234.515 564.418 242.861 558.264 249.014C552.111 255.168 543.765 258.625 535.062 258.625H416.938C408.235 258.625 399.889 255.168 393.736 249.014C387.582 242.861 384.125 234.515 384.125 225.812V140.5ZM535.062 225.812C533.322 225.812 531.653 225.121 530.422 223.89C529.191 222.66 528.5 220.99 528.5 219.25V140.5C528.5 137.019 527.117 133.681 524.656 131.219C522.194 128.758 518.856 127.375 515.375 127.375H410.375C406.894 127.375 403.556 128.758 401.094 131.219C398.633 133.681 397.25 137.019 397.25 140.5V225.812C397.25 231.034 399.324 236.042 403.016 239.734C406.708 243.426 411.716 245.5 416.938 245.5H535.062C540.284 245.5 545.292 243.426 548.984 239.734C552.676 236.042 554.75 231.034 554.75 225.812V166.75C554.75 163.269 553.367 159.931 550.906 157.469C548.444 155.008 545.106 153.625 541.625 153.625V219.25C541.625 220.99 540.934 222.66 539.703 223.89C538.472 225.121 536.803 225.812 535.062 225.812Z" fill="white"/>
</svg>
