<svg width="952" height="836" viewBox="0 0 952 836" fill="none" xmlns="http://www.w3.org/2000/svg">
<rect width="952" height="836" rx="25" fill="#8C20BF" fill-opacity="0.5"/>
<path d="M155.558 330.35V336.86H142.608V379H134.628V336.86H121.608V330.35H155.558ZM183.59 339.8C186.53 339.8 189.143 340.43 191.43 341.69C193.763 342.95 195.583 344.817 196.89 347.29C198.243 349.763 198.92 352.75 198.92 356.25V379H191.01V357.44C191.01 353.987 190.146 351.35 188.42 349.53C186.693 347.663 184.336 346.73 181.35 346.73C178.363 346.73 175.983 347.663 174.21 349.53C172.483 351.35 171.62 353.987 171.62 357.44V379H163.64V327.2H171.62V344.91C172.973 343.277 174.676 342.017 176.73 341.13C178.83 340.243 181.116 339.8 183.59 339.8ZM213.159 335.32C211.712 335.32 210.499 334.83 209.519 333.85C208.539 332.87 208.049 331.657 208.049 330.21C208.049 328.763 208.539 327.55 209.519 326.57C210.499 325.59 211.712 325.1 213.159 325.1C214.559 325.1 215.749 325.59 216.729 326.57C217.709 327.55 218.199 328.763 218.199 330.21C218.199 331.657 217.709 332.87 216.729 333.85C215.749 334.83 214.559 335.32 213.159 335.32ZM217.079 340.43V379H209.099V340.43H217.079ZM241.556 379.63C238.522 379.63 235.792 379.093 233.366 378.02C230.986 376.9 229.096 375.407 227.696 373.54C226.296 371.627 225.549 369.503 225.456 367.17H233.716C233.856 368.803 234.626 370.18 236.026 371.3C237.472 372.373 239.269 372.91 241.416 372.91C243.656 372.91 245.382 372.49 246.596 371.65C247.856 370.763 248.486 369.643 248.486 368.29C248.486 366.843 247.786 365.77 246.386 365.07C245.032 364.37 242.862 363.6 239.876 362.76C236.982 361.967 234.626 361.197 232.806 360.45C230.986 359.703 229.399 358.56 228.046 357.02C226.739 355.48 226.086 353.45 226.086 350.93C226.086 348.877 226.692 347.01 227.906 345.33C229.119 343.603 230.846 342.25 233.086 341.27C235.372 340.29 237.986 339.8 240.926 339.8C245.312 339.8 248.836 340.92 251.496 343.16C254.202 345.353 255.649 348.363 255.836 352.19H247.856C247.716 350.463 247.016 349.087 245.756 348.06C244.496 347.033 242.792 346.52 240.646 346.52C238.546 346.52 236.936 346.917 235.816 347.71C234.696 348.503 234.136 349.553 234.136 350.86C234.136 351.887 234.509 352.75 235.256 353.45C236.002 354.15 236.912 354.71 237.986 355.13C239.059 355.503 240.646 355.993 242.746 356.6C245.546 357.347 247.832 358.117 249.606 358.91C251.426 359.657 252.989 360.777 254.296 362.27C255.602 363.763 256.279 365.747 256.326 368.22C256.326 370.413 255.719 372.373 254.506 374.1C253.292 375.827 251.566 377.18 249.326 378.16C247.132 379.14 244.542 379.63 241.556 379.63ZM299.302 346.94H292.162V379H284.112V346.94H279.562V340.43H284.112V337.7C284.112 333.267 285.279 330.047 287.612 328.04C289.992 325.987 293.702 324.96 298.742 324.96V331.61C296.315 331.61 294.612 332.077 293.632 333.01C292.652 333.897 292.162 335.46 292.162 337.7V340.43H299.302V346.94ZM341.724 358.77C341.724 360.217 341.631 361.523 341.444 362.69H311.974C312.207 365.77 313.351 368.243 315.404 370.11C317.457 371.977 319.977 372.91 322.964 372.91C327.257 372.91 330.291 371.113 332.064 367.52H340.674C339.507 371.067 337.384 373.983 334.304 376.27C331.271 378.51 327.491 379.63 322.964 379.63C319.277 379.63 315.964 378.813 313.024 377.18C310.131 375.5 307.844 373.167 306.164 370.18C304.531 367.147 303.714 363.647 303.714 359.68C303.714 355.713 304.507 352.237 306.094 349.25C307.727 346.217 309.991 343.883 312.884 342.25C315.824 340.617 319.184 339.8 322.964 339.8C326.604 339.8 329.847 340.593 332.694 342.18C335.541 343.767 337.757 346.007 339.344 348.9C340.931 351.747 341.724 355.037 341.724 358.77ZM333.394 356.25C333.347 353.31 332.297 350.953 330.244 349.18C328.191 347.407 325.647 346.52 322.614 346.52C319.861 346.52 317.504 347.407 315.544 349.18C313.584 350.907 312.417 353.263 312.044 356.25H333.394ZM346.917 359.54C346.917 355.667 347.71 352.237 349.297 349.25C350.93 346.263 353.124 343.953 355.877 342.32C358.677 340.64 361.757 339.8 365.117 339.8C368.15 339.8 370.787 340.407 373.027 341.62C375.314 342.787 377.134 344.257 378.487 346.03V340.43H386.537V379H378.487V373.26C377.134 375.08 375.29 376.597 372.957 377.81C370.624 379.023 367.964 379.63 364.977 379.63C361.664 379.63 358.63 378.79 355.877 377.11C353.124 375.383 350.93 373.003 349.297 369.97C347.71 366.89 346.917 363.413 346.917 359.54ZM378.487 359.68C378.487 357.02 377.927 354.71 376.807 352.75C375.734 350.79 374.31 349.297 372.537 348.27C370.764 347.243 368.85 346.73 366.797 346.73C364.744 346.73 362.83 347.243 361.057 348.27C359.284 349.25 357.837 350.72 356.717 352.68C355.644 354.593 355.107 356.88 355.107 359.54C355.107 362.2 355.644 364.533 356.717 366.54C357.837 368.547 359.284 370.087 361.057 371.16C362.877 372.187 364.79 372.7 366.797 372.7C368.85 372.7 370.764 372.187 372.537 371.16C374.31 370.133 375.734 368.64 376.807 366.68C377.927 364.673 378.487 362.34 378.487 359.68ZM406.329 346.94V368.29C406.329 369.737 406.655 370.787 407.309 371.44C408.009 372.047 409.175 372.35 410.809 372.35H415.709V379H409.409C405.815 379 403.062 378.16 401.149 376.48C399.235 374.8 398.279 372.07 398.279 368.29V346.94H393.729V340.43H398.279V330.84H406.329V340.43H415.709V346.94H406.329ZM457.993 340.43V379H450.013V374.45C448.753 376.037 447.097 377.297 445.043 378.23C443.037 379.117 440.89 379.56 438.603 379.56C435.57 379.56 432.84 378.93 430.413 377.67C428.033 376.41 426.143 374.543 424.743 372.07C423.39 369.597 422.713 366.61 422.713 363.11V340.43H430.623V361.92C430.623 365.373 431.487 368.033 433.213 369.9C434.94 371.72 437.297 372.63 440.283 372.63C443.27 372.63 445.627 371.72 447.353 369.9C449.127 368.033 450.013 365.373 450.013 361.92V340.43H457.993ZM476.502 346.03C477.669 344.07 479.209 342.553 481.122 341.48C483.082 340.36 485.392 339.8 488.052 339.8V348.06H486.022C482.896 348.06 480.516 348.853 478.882 350.44C477.296 352.027 476.502 354.78 476.502 358.7V379H468.522V340.43H476.502V346.03ZM530.738 358.77C530.738 360.217 530.644 361.523 530.458 362.69H500.988C501.221 365.77 502.364 368.243 504.418 370.11C506.471 371.977 508.991 372.91 511.978 372.91C516.271 372.91 519.304 371.113 521.078 367.52H529.688C528.521 371.067 526.398 373.983 523.318 376.27C520.284 378.51 516.504 379.63 511.978 379.63C508.291 379.63 504.978 378.813 502.038 377.18C499.144 375.5 496.858 373.167 495.178 370.18C493.544 367.147 492.728 363.647 492.728 359.68C492.728 355.713 493.521 352.237 495.108 349.25C496.741 346.217 499.004 343.883 501.898 342.25C504.838 340.617 508.198 339.8 511.978 339.8C515.618 339.8 518.861 340.593 521.708 342.18C524.554 343.767 526.771 346.007 528.358 348.9C529.944 351.747 530.738 355.037 530.738 358.77ZM522.408 356.25C522.361 353.31 521.311 350.953 519.258 349.18C517.204 347.407 514.661 346.52 511.628 346.52C508.874 346.52 506.518 347.407 504.558 349.18C502.598 350.907 501.431 353.263 501.058 356.25H522.408ZM592.124 358.77C592.124 360.217 592.031 361.523 591.844 362.69H562.374C562.608 365.77 563.751 368.243 565.804 370.11C567.858 371.977 570.378 372.91 573.364 372.91C577.658 372.91 580.691 371.113 582.464 367.52H591.074C589.908 371.067 587.784 373.983 584.704 376.27C581.671 378.51 577.891 379.63 573.364 379.63C569.678 379.63 566.364 378.813 563.424 377.18C560.531 375.5 558.244 373.167 556.564 370.18C554.931 367.147 554.114 363.647 554.114 359.68C554.114 355.713 554.908 352.237 556.494 349.25C558.128 346.217 560.391 343.883 563.284 342.25C566.224 340.617 569.584 339.8 573.364 339.8C577.004 339.8 580.248 340.593 583.094 342.18C585.941 343.767 588.158 346.007 589.744 348.9C591.331 351.747 592.124 355.037 592.124 358.77ZM583.794 356.25C583.748 353.31 582.698 350.953 580.644 349.18C578.591 347.407 576.048 346.52 573.014 346.52C570.261 346.52 567.904 347.407 565.944 349.18C563.984 350.907 562.818 353.263 562.444 356.25H583.794ZM619.438 339.8C622.471 339.8 625.178 340.43 627.558 341.69C629.984 342.95 631.874 344.817 633.228 347.29C634.581 349.763 635.258 352.75 635.258 356.25V379H627.348V357.44C627.348 353.987 626.484 351.35 624.758 349.53C623.031 347.663 620.674 346.73 617.688 346.73C614.701 346.73 612.321 347.663 610.548 349.53C608.821 351.35 607.958 353.987 607.958 357.44V379H599.978V340.43H607.958V344.84C609.264 343.253 610.921 342.017 612.928 341.13C614.981 340.243 617.151 339.8 619.438 339.8ZM642.777 359.54C642.777 355.667 643.57 352.237 645.157 349.25C646.79 346.263 648.983 343.953 651.737 342.32C654.537 340.64 657.617 339.8 660.977 339.8C664.01 339.8 666.647 340.407 668.887 341.62C671.173 342.787 672.993 344.257 674.347 346.03V340.43H682.397V379H674.347V373.26C672.993 375.08 671.15 376.597 668.817 377.81C666.483 379.023 663.823 379.63 660.837 379.63C657.523 379.63 654.49 378.79 651.737 377.11C648.983 375.383 646.79 373.003 645.157 369.97C643.57 366.89 642.777 363.413 642.777 359.54ZM674.347 359.68C674.347 357.02 673.787 354.71 672.667 352.75C671.593 350.79 670.17 349.297 668.397 348.27C666.623 347.243 664.71 346.73 662.657 346.73C660.603 346.73 658.69 347.243 656.917 348.27C655.143 349.25 653.697 350.72 652.577 352.68C651.503 354.593 650.967 356.88 650.967 359.54C650.967 362.2 651.503 364.533 652.577 366.54C653.697 368.547 655.143 370.087 656.917 371.16C658.737 372.187 660.65 372.7 662.657 372.7C664.71 372.7 666.623 372.187 668.397 371.16C670.17 370.133 671.593 368.64 672.667 366.68C673.787 364.673 674.347 362.34 674.347 359.68ZM700.858 346.17C702.211 344.303 704.055 342.787 706.388 341.62C708.768 340.407 711.405 339.8 714.298 339.8C717.705 339.8 720.785 340.617 723.538 342.25C726.291 343.883 728.461 346.217 730.048 349.25C731.635 352.237 732.428 355.667 732.428 359.54C732.428 363.413 731.635 366.89 730.048 369.97C728.461 373.003 726.268 375.383 723.468 377.11C720.715 378.79 717.658 379.63 714.298 379.63C711.311 379.63 708.651 379.047 706.318 377.88C704.031 376.713 702.211 375.22 700.858 373.4V379H692.878V327.2H700.858V346.17ZM724.308 359.54C724.308 356.88 723.748 354.593 722.628 352.68C721.555 350.72 720.108 349.25 718.288 348.27C716.515 347.243 714.601 346.73 712.548 346.73C710.541 346.73 708.628 347.243 706.808 348.27C705.035 349.297 703.588 350.79 702.468 352.75C701.395 354.71 700.858 357.02 700.858 359.68C700.858 362.34 701.395 364.673 702.468 366.68C703.588 368.64 705.035 370.133 706.808 371.16C708.628 372.187 710.541 372.7 712.548 372.7C714.601 372.7 716.515 372.187 718.288 371.16C720.108 370.087 721.555 368.547 722.628 366.54C723.748 364.533 724.308 362.2 724.308 359.54ZM748.299 327.2V379H740.319V327.2H748.299ZM794.126 358.77C794.126 360.217 794.033 361.523 793.846 362.69H764.376C764.61 365.77 765.753 368.243 767.806 370.11C769.86 371.977 772.38 372.91 775.366 372.91C779.66 372.91 782.693 371.113 784.466 367.52H793.076C791.91 371.067 789.786 373.983 786.706 376.27C783.673 378.51 779.893 379.63 775.366 379.63C771.68 379.63 768.366 378.813 765.426 377.18C762.533 375.5 760.246 373.167 758.566 370.18C756.933 367.147 756.116 363.647 756.116 359.68C756.116 355.713 756.91 352.237 758.496 349.25C760.13 346.217 762.393 343.883 765.286 342.25C768.226 340.617 771.586 339.8 775.366 339.8C779.006 339.8 782.25 340.593 785.096 342.18C787.943 343.767 790.16 346.007 791.746 348.9C793.333 351.747 794.126 355.037 794.126 358.77ZM785.796 356.25C785.75 353.31 784.7 350.953 782.646 349.18C780.593 347.407 778.05 346.52 775.016 346.52C772.263 346.52 769.906 347.407 767.946 349.18C765.986 350.907 764.82 353.263 764.446 356.25H785.796ZM815.979 379.63C812.946 379.63 810.216 379.093 807.789 378.02C805.409 376.9 803.519 375.407 802.119 373.54C800.719 371.627 799.973 369.503 799.879 367.17H808.139C808.279 368.803 809.049 370.18 810.449 371.3C811.896 372.373 813.693 372.91 815.839 372.91C818.079 372.91 819.806 372.49 821.019 371.65C822.279 370.763 822.909 369.643 822.909 368.29C822.909 366.843 822.209 365.77 820.809 365.07C819.456 364.37 817.286 363.6 814.299 362.76C811.406 361.967 809.049 361.197 807.229 360.45C805.409 359.703 803.823 358.56 802.469 357.02C801.163 355.48 800.509 353.45 800.509 350.93C800.509 348.877 801.116 347.01 802.329 345.33C803.543 343.603 805.269 342.25 807.509 341.27C809.796 340.29 812.409 339.8 815.349 339.8C819.736 339.8 823.259 340.92 825.919 343.16C828.626 345.353 830.073 348.363 830.259 352.19H822.279C822.139 350.463 821.439 349.087 820.179 348.06C818.919 347.033 817.216 346.52 815.069 346.52C812.969 346.52 811.359 346.917 810.239 347.71C809.119 348.503 808.559 349.553 808.559 350.86C808.559 351.887 808.933 352.75 809.679 353.45C810.426 354.15 811.336 354.71 812.409 355.13C813.483 355.503 815.069 355.993 817.169 356.6C819.969 357.347 822.256 358.117 824.029 358.91C825.849 359.657 827.413 360.777 828.719 362.27C830.026 363.763 830.703 365.747 830.749 368.22C830.749 370.413 830.143 372.373 828.929 374.1C827.716 375.827 825.989 377.18 823.749 378.16C821.556 379.14 818.966 379.63 815.979 379.63ZM182.471 445.43V484H174.491V479.45C173.231 481.037 171.574 482.297 169.521 483.23C167.514 484.117 165.368 484.56 163.081 484.56C160.048 484.56 157.318 483.93 154.891 482.67C152.511 481.41 150.621 479.543 149.221 477.07C147.868 474.597 147.191 471.61 147.191 468.11V445.43H155.101V466.92C155.101 470.373 155.964 473.033 157.691 474.9C159.418 476.72 161.774 477.63 164.761 477.63C167.748 477.63 170.104 476.72 171.831 474.9C173.604 473.033 174.491 470.373 174.491 466.92V445.43H182.471ZM207 484.63C203.967 484.63 201.237 484.093 198.81 483.02C196.43 481.9 194.54 480.407 193.14 478.54C191.74 476.627 190.993 474.503 190.9 472.17H199.16C199.3 473.803 200.07 475.18 201.47 476.3C202.917 477.373 204.713 477.91 206.86 477.91C209.1 477.91 210.827 477.49 212.04 476.65C213.3 475.763 213.93 474.643 213.93 473.29C213.93 471.843 213.23 470.77 211.83 470.07C210.477 469.37 208.307 468.6 205.32 467.76C202.427 466.967 200.07 466.197 198.25 465.45C196.43 464.703 194.843 463.56 193.49 462.02C192.183 460.48 191.53 458.45 191.53 455.93C191.53 453.877 192.137 452.01 193.35 450.33C194.563 448.603 196.29 447.25 198.53 446.27C200.817 445.29 203.43 444.8 206.37 444.8C210.757 444.8 214.28 445.92 216.94 448.16C219.647 450.353 221.093 453.363 221.28 457.19H213.3C213.16 455.463 212.46 454.087 211.2 453.06C209.94 452.033 208.237 451.52 206.09 451.52C203.99 451.52 202.38 451.917 201.26 452.71C200.14 453.503 199.58 454.553 199.58 455.86C199.58 456.887 199.953 457.75 200.7 458.45C201.447 459.15 202.357 459.71 203.43 460.13C204.503 460.503 206.09 460.993 208.19 461.6C210.99 462.347 213.277 463.117 215.05 463.91C216.87 464.657 218.433 465.777 219.74 467.27C221.047 468.763 221.723 470.747 221.77 473.22C221.77 475.413 221.163 477.373 219.95 479.1C218.737 480.827 217.01 482.18 214.77 483.16C212.577 484.14 209.987 484.63 207 484.63ZM265.743 463.77C265.743 465.217 265.649 466.523 265.463 467.69H235.993C236.226 470.77 237.369 473.243 239.423 475.11C241.476 476.977 243.996 477.91 246.983 477.91C251.276 477.91 254.309 476.113 256.083 472.52H264.693C263.526 476.067 261.403 478.983 258.323 481.27C255.289 483.51 251.509 484.63 246.983 484.63C243.296 484.63 239.983 483.813 237.043 482.18C234.149 480.5 231.863 478.167 230.183 475.18C228.549 472.147 227.733 468.647 227.733 464.68C227.733 460.713 228.526 457.237 230.113 454.25C231.746 451.217 234.009 448.883 236.903 447.25C239.843 445.617 243.203 444.8 246.983 444.8C250.623 444.8 253.866 445.593 256.713 447.18C259.559 448.767 261.776 451.007 263.363 453.9C264.949 456.747 265.743 460.037 265.743 463.77ZM257.413 461.25C257.366 458.31 256.316 455.953 254.263 454.18C252.209 452.407 249.666 451.52 246.633 451.52C243.879 451.52 241.523 452.407 239.563 454.18C237.603 455.907 236.436 458.263 236.063 461.25H257.413ZM281.576 451.03C282.742 449.07 284.282 447.553 286.196 446.48C288.156 445.36 290.466 444.8 293.126 444.8V453.06H291.096C287.969 453.06 285.589 453.853 283.956 455.44C282.369 457.027 281.576 459.78 281.576 463.7V484H273.596V445.43H281.576V451.03ZM314.461 484.63C311.428 484.63 308.698 484.093 306.271 483.02C303.891 481.9 302.001 480.407 300.601 478.54C299.201 476.627 298.454 474.503 298.361 472.17H306.621C306.761 473.803 307.531 475.18 308.931 476.3C310.378 477.373 312.174 477.91 314.321 477.91C316.561 477.91 318.288 477.49 319.501 476.65C320.761 475.763 321.391 474.643 321.391 473.29C321.391 471.843 320.691 470.77 319.291 470.07C317.938 469.37 315.768 468.6 312.781 467.76C309.888 466.967 307.531 466.197 305.711 465.45C303.891 464.703 302.304 463.56 300.951 462.02C299.644 460.48 298.991 458.45 298.991 455.93C298.991 453.877 299.598 452.01 300.811 450.33C302.024 448.603 303.751 447.25 305.991 446.27C308.278 445.29 310.891 444.8 313.831 444.8C318.218 444.8 321.741 445.92 324.401 448.16C327.108 450.353 328.554 453.363 328.741 457.19H320.761C320.621 455.463 319.921 454.087 318.661 453.06C317.401 452.033 315.698 451.52 313.551 451.52C311.451 451.52 309.841 451.917 308.721 452.71C307.601 453.503 307.041 454.553 307.041 455.86C307.041 456.887 307.414 457.75 308.161 458.45C308.908 459.15 309.818 459.71 310.891 460.13C311.964 460.503 313.551 460.993 315.651 461.6C318.451 462.347 320.738 463.117 322.511 463.91C324.331 464.657 325.894 465.777 327.201 467.27C328.508 468.763 329.184 470.747 329.231 473.22C329.231 475.413 328.624 477.373 327.411 479.1C326.198 480.827 324.471 482.18 322.231 483.16C320.038 484.14 317.448 484.63 314.461 484.63ZM360.097 440.32C358.65 440.32 357.437 439.83 356.457 438.85C355.477 437.87 354.987 436.657 354.987 435.21C354.987 433.763 355.477 432.55 356.457 431.57C357.437 430.59 358.65 430.1 360.097 430.1C361.497 430.1 362.687 430.59 363.667 431.57C364.647 432.55 365.137 433.763 365.137 435.21C365.137 436.657 364.647 437.87 363.667 438.85C362.687 439.83 361.497 440.32 360.097 440.32ZM364.017 445.43V484H356.037V445.43H364.017ZM393.954 444.8C396.987 444.8 399.694 445.43 402.074 446.69C404.501 447.95 406.391 449.817 407.744 452.29C409.097 454.763 409.774 457.75 409.774 461.25V484H401.864V462.44C401.864 458.987 401.001 456.35 399.274 454.53C397.547 452.663 395.191 451.73 392.204 451.73C389.217 451.73 386.837 452.663 385.064 454.53C383.337 456.35 382.474 458.987 382.474 462.44V484H374.494V445.43H382.474V449.84C383.781 448.253 385.437 447.017 387.444 446.13C389.497 445.243 391.667 444.8 393.954 444.8ZM447.447 451.94V473.29C447.447 474.737 447.773 475.787 448.427 476.44C449.127 477.047 450.293 477.35 451.927 477.35H456.827V484H450.527C446.933 484 444.18 483.16 442.267 481.48C440.353 479.8 439.397 477.07 439.397 473.29V451.94H434.847V445.43H439.397V435.84H447.447V445.43H456.827V451.94H447.447ZM484.132 444.8C487.072 444.8 489.685 445.43 491.972 446.69C494.305 447.95 496.125 449.817 497.432 452.29C498.785 454.763 499.462 457.75 499.462 461.25V484H491.552V462.44C491.552 458.987 490.688 456.35 488.962 454.53C487.235 452.663 484.878 451.73 481.892 451.73C478.905 451.73 476.525 452.663 474.752 454.53C473.025 456.35 472.162 458.987 472.162 462.44V484H464.182V432.2H472.162V449.91C473.515 448.277 475.218 447.017 477.272 446.13C479.372 445.243 481.658 444.8 484.132 444.8ZM544.991 463.77C544.991 465.217 544.897 466.523 544.711 467.69H515.241C515.474 470.77 516.617 473.243 518.671 475.11C520.724 476.977 523.244 477.91 526.231 477.91C530.524 477.91 533.557 476.113 535.331 472.52H543.941C542.774 476.067 540.651 478.983 537.571 481.27C534.537 483.51 530.757 484.63 526.231 484.63C522.544 484.63 519.231 483.813 516.291 482.18C513.397 480.5 511.111 478.167 509.431 475.18C507.797 472.147 506.981 468.647 506.981 464.68C506.981 460.713 507.774 457.237 509.361 454.25C510.994 451.217 513.257 448.883 516.151 447.25C519.091 445.617 522.451 444.8 526.231 444.8C529.871 444.8 533.114 445.593 535.961 447.18C538.807 448.767 541.024 451.007 542.611 453.9C544.197 456.747 544.991 460.037 544.991 463.77ZM536.661 461.25C536.614 458.31 535.564 455.953 533.511 454.18C531.457 452.407 528.914 451.52 525.881 451.52C523.127 451.52 520.771 452.407 518.811 454.18C516.851 455.907 515.684 458.263 515.311 461.25H536.661ZM617.717 444.8C620.751 444.8 623.457 445.43 625.837 446.69C628.264 447.95 630.154 449.817 631.507 452.29C632.907 454.763 633.607 457.75 633.607 461.25V484H625.697V462.44C625.697 458.987 624.834 456.35 623.107 454.53C621.381 452.663 619.024 451.73 616.037 451.73C613.051 451.73 610.671 452.663 608.897 454.53C607.171 456.35 606.307 458.987 606.307 462.44V484H598.397V462.44C598.397 458.987 597.534 456.35 595.807 454.53C594.081 452.663 591.724 451.73 588.737 451.73C585.751 451.73 583.371 452.663 581.597 454.53C579.871 456.35 579.007 458.987 579.007 462.44V484H571.027V445.43H579.007V449.84C580.314 448.253 581.971 447.017 583.977 446.13C585.984 445.243 588.131 444.8 590.417 444.8C593.497 444.8 596.251 445.453 598.677 446.76C601.104 448.067 602.971 449.957 604.277 452.43C605.444 450.097 607.264 448.253 609.737 446.9C612.211 445.5 614.871 444.8 617.717 444.8ZM660.492 484.63C656.852 484.63 653.562 483.813 650.622 482.18C647.682 480.5 645.372 478.167 643.692 475.18C642.012 472.147 641.172 468.647 641.172 464.68C641.172 460.76 642.035 457.283 643.762 454.25C645.488 451.217 647.845 448.883 650.832 447.25C653.818 445.617 657.155 444.8 660.842 444.8C664.528 444.8 667.865 445.617 670.852 447.25C673.838 448.883 676.195 451.217 677.922 454.25C679.648 457.283 680.512 460.76 680.512 464.68C680.512 468.6 679.625 472.077 677.852 475.11C676.078 478.143 673.652 480.5 670.572 482.18C667.538 483.813 664.178 484.63 660.492 484.63ZM660.492 477.7C662.545 477.7 664.458 477.21 666.232 476.23C668.052 475.25 669.522 473.78 670.642 471.82C671.762 469.86 672.322 467.48 672.322 464.68C672.322 461.88 671.785 459.523 670.712 457.61C669.638 455.65 668.215 454.18 666.442 453.2C664.668 452.22 662.755 451.73 660.702 451.73C658.648 451.73 656.735 452.22 654.962 453.2C653.235 454.18 651.858 455.65 650.832 457.61C649.805 459.523 649.292 461.88 649.292 464.68C649.292 468.833 650.342 472.053 652.442 474.34C654.588 476.58 657.272 477.7 660.492 477.7ZM696.38 451.17C697.734 449.303 699.577 447.787 701.91 446.62C704.29 445.407 706.927 444.8 709.82 444.8C713.227 444.8 716.307 445.617 719.06 447.25C721.814 448.883 723.984 451.217 725.57 454.25C727.157 457.237 727.95 460.667 727.95 464.54C727.95 468.413 727.157 471.89 725.57 474.97C723.984 478.003 721.79 480.383 718.99 482.11C716.237 483.79 713.18 484.63 709.82 484.63C706.834 484.63 704.174 484.047 701.84 482.88C699.554 481.713 697.734 480.22 696.38 478.4V484H688.4V432.2H696.38V451.17ZM719.83 464.54C719.83 461.88 719.27 459.593 718.15 457.68C717.077 455.72 715.63 454.25 713.81 453.27C712.037 452.243 710.124 451.73 708.07 451.73C706.064 451.73 704.15 452.243 702.33 453.27C700.557 454.297 699.11 455.79 697.99 457.75C696.917 459.71 696.38 462.02 696.38 464.68C696.38 467.34 696.917 469.673 697.99 471.68C699.11 473.64 700.557 475.133 702.33 476.16C704.15 477.187 706.064 477.7 708.07 477.7C710.124 477.7 712.037 477.187 713.81 476.16C715.63 475.087 717.077 473.547 718.15 471.54C719.27 469.533 719.83 467.2 719.83 464.54ZM739.902 440.32C738.455 440.32 737.242 439.83 736.262 438.85C735.282 437.87 734.792 436.657 734.792 435.21C734.792 433.763 735.282 432.55 736.262 431.57C737.242 430.59 738.455 430.1 739.902 430.1C741.302 430.1 742.492 430.59 743.472 431.57C744.452 432.55 744.942 433.763 744.942 435.21C744.942 436.657 744.452 437.87 743.472 438.85C742.492 439.83 741.302 440.32 739.902 440.32ZM743.822 445.43V484H735.842V445.43H743.822ZM762.279 432.2V484H754.299V432.2H762.279ZM808.106 463.77C808.106 465.217 808.013 466.523 807.826 467.69H778.356C778.589 470.77 779.733 473.243 781.786 475.11C783.839 476.977 786.359 477.91 789.346 477.91C793.639 477.91 796.673 476.113 798.446 472.52H807.056C805.889 476.067 803.766 478.983 800.686 481.27C797.653 483.51 793.873 484.63 789.346 484.63C785.659 484.63 782.346 483.813 779.406 482.18C776.513 480.5 774.226 478.167 772.546 475.18C770.913 472.147 770.096 468.647 770.096 464.68C770.096 460.713 770.889 457.237 772.476 454.25C774.109 451.217 776.373 448.883 779.266 447.25C782.206 445.617 785.566 444.8 789.346 444.8C792.986 444.8 796.229 445.593 799.076 447.18C801.923 448.767 804.139 451.007 805.726 453.9C807.313 456.747 808.106 460.037 808.106 463.77ZM799.776 461.25C799.729 458.31 798.679 455.953 796.626 454.18C794.573 452.407 792.029 451.52 788.996 451.52C786.243 451.52 783.886 452.407 781.926 454.18C779.966 455.907 778.799 458.263 778.426 461.25H799.776ZM145.677 556.1C147.031 554.327 148.874 552.833 151.207 551.62C153.541 550.407 156.177 549.8 159.117 549.8C162.477 549.8 165.534 550.64 168.287 552.32C171.087 553.953 173.281 556.263 174.867 559.25C176.454 562.237 177.247 565.667 177.247 569.54C177.247 573.413 176.454 576.89 174.867 579.97C173.281 583.003 171.087 585.383 168.287 587.11C165.534 588.79 162.477 589.63 159.117 589.63C156.177 589.63 153.564 589.047 151.277 587.88C148.991 586.667 147.124 585.173 145.677 583.4V607.34H137.697V550.43H145.677V556.1ZM169.127 569.54C169.127 566.88 168.567 564.593 167.447 562.68C166.374 560.72 164.927 559.25 163.107 558.27C161.334 557.243 159.421 556.73 157.367 556.73C155.361 556.73 153.447 557.243 151.627 558.27C149.854 559.297 148.407 560.79 147.287 562.75C146.214 564.71 145.677 567.02 145.677 569.68C145.677 572.34 146.214 574.673 147.287 576.68C148.407 578.64 149.854 580.133 151.627 581.16C153.447 582.187 155.361 582.7 157.367 582.7C159.421 582.7 161.334 582.187 163.107 581.16C164.927 580.087 166.374 578.547 167.447 576.54C168.567 574.533 169.127 572.2 169.127 569.54ZM193.119 537.2V589H185.139V537.2H193.119ZM200.936 569.54C200.936 565.667 201.729 562.237 203.316 559.25C204.949 556.263 207.142 553.953 209.896 552.32C212.696 550.64 215.776 549.8 219.136 549.8C222.169 549.8 224.806 550.407 227.046 551.62C229.332 552.787 231.152 554.257 232.506 556.03V550.43H240.556V589H232.506V583.26C231.152 585.08 229.309 586.597 226.976 587.81C224.642 589.023 221.982 589.63 218.996 589.63C215.682 589.63 212.649 588.79 209.896 587.11C207.142 585.383 204.949 583.003 203.316 579.97C201.729 576.89 200.936 573.413 200.936 569.54ZM232.506 569.68C232.506 567.02 231.946 564.71 230.826 562.75C229.752 560.79 228.329 559.297 226.556 558.27C224.782 557.243 222.869 556.73 220.816 556.73C218.762 556.73 216.849 557.243 215.076 558.27C213.302 559.25 211.856 560.72 210.736 562.68C209.662 564.593 209.126 566.88 209.126 569.54C209.126 572.2 209.662 574.533 210.736 576.54C211.856 578.547 213.302 580.087 215.076 581.16C216.896 582.187 218.809 582.7 220.816 582.7C222.869 582.7 224.782 582.187 226.556 581.16C228.329 580.133 229.752 578.64 230.826 576.68C231.946 574.673 232.506 572.34 232.506 569.68ZM260.347 556.94V578.29C260.347 579.737 260.674 580.787 261.327 581.44C262.027 582.047 263.194 582.35 264.827 582.35H269.727V589H263.427C259.834 589 257.08 588.16 255.167 586.48C253.254 584.8 252.297 582.07 252.297 578.29V556.94H247.747V550.43H252.297V540.84H260.347V550.43H269.727V556.94H260.347ZM293.252 556.94H286.112V589H278.062V556.94H273.512V550.43H278.062V547.7C278.062 543.267 279.229 540.047 281.562 538.04C283.942 535.987 287.652 534.96 292.692 534.96V541.61C290.265 541.61 288.562 542.077 287.582 543.01C286.602 543.897 286.112 545.46 286.112 547.7V550.43H293.252V556.94ZM317.054 589.63C313.414 589.63 310.124 588.813 307.184 587.18C304.244 585.5 301.934 583.167 300.254 580.18C298.574 577.147 297.734 573.647 297.734 569.68C297.734 565.76 298.598 562.283 300.324 559.25C302.051 556.217 304.408 553.883 307.394 552.25C310.381 550.617 313.718 549.8 317.404 549.8C321.091 549.8 324.428 550.617 327.414 552.25C330.401 553.883 332.758 556.217 334.484 559.25C336.211 562.283 337.074 565.76 337.074 569.68C337.074 573.6 336.188 577.077 334.414 580.11C332.641 583.143 330.214 585.5 327.134 587.18C324.101 588.813 320.741 589.63 317.054 589.63ZM317.054 582.7C319.108 582.7 321.021 582.21 322.794 581.23C324.614 580.25 326.084 578.78 327.204 576.82C328.324 574.86 328.884 572.48 328.884 569.68C328.884 566.88 328.348 564.523 327.274 562.61C326.201 560.65 324.778 559.18 323.004 558.2C321.231 557.22 319.318 556.73 317.264 556.73C315.211 556.73 313.298 557.22 311.524 558.2C309.798 559.18 308.421 560.65 307.394 562.61C306.368 564.523 305.854 566.88 305.854 569.68C305.854 573.833 306.904 577.053 309.004 579.34C311.151 581.58 313.834 582.7 317.054 582.7ZM352.943 556.03C354.11 554.07 355.65 552.553 357.563 551.48C359.523 550.36 361.833 549.8 364.493 549.8V558.06H362.463C359.336 558.06 356.956 558.853 355.323 560.44C353.736 562.027 352.943 564.78 352.943 568.7V589H344.963V550.43H352.943V556.03ZM418.518 549.8C421.551 549.8 424.258 550.43 426.638 551.69C429.065 552.95 430.955 554.817 432.308 557.29C433.708 559.763 434.408 562.75 434.408 566.25V589H426.498V567.44C426.498 563.987 425.635 561.35 423.908 559.53C422.181 557.663 419.825 556.73 416.838 556.73C413.851 556.73 411.471 557.663 409.698 559.53C407.971 561.35 407.108 563.987 407.108 567.44V589H399.198V567.44C399.198 563.987 398.335 561.35 396.608 559.53C394.881 557.663 392.525 556.73 389.538 556.73C386.551 556.73 384.171 557.663 382.398 559.53C380.671 561.35 379.808 563.987 379.808 567.44V589H371.828V550.43H379.808V554.84C381.115 553.253 382.771 552.017 384.778 551.13C386.785 550.243 388.931 549.8 391.218 549.8C394.298 549.8 397.051 550.453 399.478 551.76C401.905 553.067 403.771 554.957 405.078 557.43C406.245 555.097 408.065 553.253 410.538 551.9C413.011 550.5 415.671 549.8 418.518 549.8ZM472.056 556.94V578.29C472.056 579.737 472.383 580.787 473.036 581.44C473.736 582.047 474.903 582.35 476.536 582.35H481.436V589H475.136C471.543 589 468.789 588.16 466.876 586.48C464.963 584.8 464.006 582.07 464.006 578.29V556.94H459.456V550.43H464.006V540.84H472.056V550.43H481.436V556.94H472.056ZM505.521 589.63C501.881 589.63 498.591 588.813 495.651 587.18C492.711 585.5 490.401 583.167 488.721 580.18C487.041 577.147 486.201 573.647 486.201 569.68C486.201 565.76 487.064 562.283 488.791 559.25C490.518 556.217 492.874 553.883 495.861 552.25C498.848 550.617 502.184 549.8 505.871 549.8C509.558 549.8 512.894 550.617 515.881 552.25C518.868 553.883 521.224 556.217 522.951 559.25C524.678 562.283 525.541 565.76 525.541 569.68C525.541 573.6 524.654 577.077 522.881 580.11C521.108 583.143 518.681 585.5 515.601 587.18C512.568 588.813 509.208 589.63 505.521 589.63ZM505.521 582.7C507.574 582.7 509.488 582.21 511.261 581.23C513.081 580.25 514.551 578.78 515.671 576.82C516.791 574.86 517.351 572.48 517.351 569.68C517.351 566.88 516.814 564.523 515.741 562.61C514.668 560.65 513.244 559.18 511.471 558.2C509.698 557.22 507.784 556.73 505.731 556.73C503.678 556.73 501.764 557.22 499.991 558.2C498.264 559.18 496.888 560.65 495.861 562.61C494.834 564.523 494.321 566.88 494.321 569.68C494.321 573.833 495.371 577.053 497.471 579.34C499.618 581.58 502.301 582.7 505.521 582.7ZM586.963 568.77C586.963 570.217 586.87 571.523 586.683 572.69H557.213C557.447 575.77 558.59 578.243 560.643 580.11C562.697 581.977 565.217 582.91 568.203 582.91C572.497 582.91 575.53 581.113 577.303 577.52H585.913C584.747 581.067 582.623 583.983 579.543 586.27C576.51 588.51 572.73 589.63 568.203 589.63C564.517 589.63 561.203 588.813 558.263 587.18C555.37 585.5 553.083 583.167 551.403 580.18C549.77 577.147 548.953 573.647 548.953 569.68C548.953 565.713 549.747 562.237 551.333 559.25C552.967 556.217 555.23 553.883 558.123 552.25C561.063 550.617 564.423 549.8 568.203 549.8C571.843 549.8 575.087 550.593 577.933 552.18C580.78 553.767 582.997 556.007 584.583 558.9C586.17 561.747 586.963 565.037 586.963 568.77ZM578.633 566.25C578.587 563.31 577.537 560.953 575.483 559.18C573.43 557.407 570.887 556.52 567.853 556.52C565.1 556.52 562.743 557.407 560.783 559.18C558.823 560.907 557.657 563.263 557.283 566.25H578.633ZM614.276 549.8C617.31 549.8 620.016 550.43 622.396 551.69C624.823 552.95 626.713 554.817 628.066 557.29C629.42 559.763 630.096 562.75 630.096 566.25V589H622.186V567.44C622.186 563.987 621.323 561.35 619.596 559.53C617.87 557.663 615.513 556.73 612.526 556.73C609.54 556.73 607.16 557.663 605.386 559.53C603.66 561.35 602.796 563.987 602.796 567.44V589H594.816V550.43H602.796V554.84C604.103 553.253 605.76 552.017 607.766 551.13C609.82 550.243 611.99 549.8 614.276 549.8ZM655.815 549.8C658.802 549.8 661.439 550.407 663.725 551.62C666.059 552.787 667.879 554.257 669.185 556.03V550.43H677.235V589.63C677.235 593.177 676.489 596.327 674.995 599.08C673.502 601.88 671.332 604.073 668.485 605.66C665.685 607.247 662.325 608.04 658.405 608.04C653.179 608.04 648.839 606.803 645.385 604.33C641.932 601.903 639.972 598.59 639.505 594.39H647.415C648.022 596.397 649.305 598.007 651.265 599.22C653.272 600.48 655.652 601.11 658.405 601.11C661.625 601.11 664.215 600.13 666.175 598.17C668.182 596.21 669.185 593.363 669.185 589.63V583.19C667.832 585.01 665.989 586.55 663.655 587.81C661.369 589.023 658.755 589.63 655.815 589.63C652.455 589.63 649.375 588.79 646.575 587.11C643.822 585.383 641.629 583.003 639.995 579.97C638.409 576.89 637.615 573.413 637.615 569.54C637.615 565.667 638.409 562.237 639.995 559.25C641.629 556.263 643.822 553.953 646.575 552.32C649.375 550.64 652.455 549.8 655.815 549.8ZM669.185 569.68C669.185 567.02 668.625 564.71 667.505 562.75C666.432 560.79 665.009 559.297 663.235 558.27C661.462 557.243 659.549 556.73 657.495 556.73C655.442 556.73 653.529 557.243 651.755 558.27C649.982 559.25 648.535 560.72 647.415 562.68C646.342 564.593 645.805 566.88 645.805 569.54C645.805 572.2 646.342 574.533 647.415 576.54C648.535 578.547 649.982 580.087 651.755 581.16C653.575 582.187 655.489 582.7 657.495 582.7C659.549 582.7 661.462 582.187 663.235 581.16C665.009 580.133 666.432 578.64 667.505 576.68C668.625 574.673 669.185 572.34 669.185 569.68ZM685.057 569.54C685.057 565.667 685.85 562.237 687.437 559.25C689.07 556.263 691.263 553.953 694.017 552.32C696.817 550.64 699.897 549.8 703.257 549.8C706.29 549.8 708.927 550.407 711.167 551.62C713.453 552.787 715.273 554.257 716.627 556.03V550.43H724.677V589H716.627V583.26C715.273 585.08 713.43 586.597 711.097 587.81C708.763 589.023 706.103 589.63 703.117 589.63C699.803 589.63 696.77 588.79 694.017 587.11C691.263 585.383 689.07 583.003 687.437 579.97C685.85 576.89 685.057 573.413 685.057 569.54ZM716.627 569.68C716.627 567.02 716.067 564.71 714.947 562.75C713.873 560.79 712.45 559.297 710.677 558.27C708.903 557.243 706.99 556.73 704.937 556.73C702.883 556.73 700.97 557.243 699.197 558.27C697.423 559.25 695.977 560.72 694.857 562.68C693.783 564.593 693.247 566.88 693.247 569.54C693.247 572.2 693.783 574.533 694.857 576.54C695.977 578.547 697.423 580.087 699.197 581.16C701.017 582.187 702.93 582.7 704.937 582.7C706.99 582.7 708.903 582.187 710.677 581.16C712.45 580.133 713.873 578.64 714.947 576.68C716.067 574.673 716.627 572.34 716.627 569.68ZM750.698 549.8C753.685 549.8 756.322 550.407 758.608 551.62C760.942 552.787 762.762 554.257 764.068 556.03V550.43H772.118V589.63C772.118 593.177 771.372 596.327 769.878 599.08C768.385 601.88 766.215 604.073 763.368 605.66C760.568 607.247 757.208 608.04 753.288 608.04C748.062 608.04 743.722 606.803 740.268 604.33C736.815 601.903 734.855 598.59 734.388 594.39H742.298C742.905 596.397 744.188 598.007 746.148 599.22C748.155 600.48 750.535 601.11 753.288 601.11C756.508 601.11 759.098 600.13 761.058 598.17C763.065 596.21 764.068 593.363 764.068 589.63V583.19C762.715 585.01 760.872 586.55 758.538 587.81C756.252 589.023 753.638 589.63 750.698 589.63C747.338 589.63 744.258 588.79 741.458 587.11C738.705 585.383 736.512 583.003 734.878 579.97C733.292 576.89 732.498 573.413 732.498 569.54C732.498 565.667 733.292 562.237 734.878 559.25C736.512 556.263 738.705 553.953 741.458 552.32C744.258 550.64 747.338 549.8 750.698 549.8ZM764.068 569.68C764.068 567.02 763.508 564.71 762.388 562.75C761.315 560.79 759.892 559.297 758.118 558.27C756.345 557.243 754.432 556.73 752.378 556.73C750.325 556.73 748.412 557.243 746.638 558.27C744.865 559.25 743.418 560.72 742.298 562.68C741.225 564.593 740.688 566.88 740.688 569.54C740.688 572.2 741.225 574.533 742.298 576.54C743.418 578.547 744.865 580.087 746.638 581.16C748.458 582.187 750.372 582.7 752.378 582.7C754.432 582.7 756.345 582.187 758.118 581.16C759.892 580.133 761.315 578.64 762.388 576.68C763.508 574.673 764.068 572.34 764.068 569.68ZM817.95 568.77C817.95 570.217 817.856 571.523 817.67 572.69H788.2C788.433 575.77 789.576 578.243 791.63 580.11C793.683 581.977 796.203 582.91 799.19 582.91C803.483 582.91 806.516 581.113 808.29 577.52H816.9C815.733 581.067 813.61 583.983 810.53 586.27C807.496 588.51 803.716 589.63 799.19 589.63C795.503 589.63 792.19 588.813 789.25 587.18C786.356 585.5 784.07 583.167 782.39 580.18C780.756 577.147 779.94 573.647 779.94 569.68C779.94 565.713 780.733 562.237 782.32 559.25C783.953 556.217 786.216 553.883 789.11 552.25C792.05 550.617 795.41 549.8 799.19 549.8C802.83 549.8 806.073 550.593 808.92 552.18C811.766 553.767 813.983 556.007 815.57 558.9C817.156 561.747 817.95 565.037 817.95 568.77ZM809.62 566.25C809.573 563.31 808.523 560.953 806.47 559.18C804.416 557.407 801.873 556.52 798.84 556.52C796.086 556.52 793.73 557.407 791.77 559.18C789.81 560.907 788.643 563.263 788.27 566.25H809.62ZM329.702 655.43L317.732 694H309.332L301.562 665.51L293.792 694H285.392L273.352 655.43H281.472L289.522 686.44L297.712 655.43H306.042L313.882 686.3L321.862 655.43H329.702ZM339.726 650.32C338.279 650.32 337.066 649.83 336.086 648.85C335.106 647.87 334.616 646.657 334.616 645.21C334.616 643.763 335.106 642.55 336.086 641.57C337.066 640.59 338.279 640.1 339.726 640.1C341.126 640.1 342.316 640.59 343.296 641.57C344.276 642.55 344.766 643.763 344.766 645.21C344.766 646.657 344.276 647.87 343.296 648.85C342.316 649.83 341.126 650.32 339.726 650.32ZM343.646 655.43V694H335.666V655.43H343.646ZM363.433 661.94V683.29C363.433 684.737 363.76 685.787 364.413 686.44C365.113 687.047 366.28 687.35 367.913 687.35H372.813V694H366.513C362.92 694 360.166 693.16 358.253 691.48C356.34 689.8 355.383 687.07 355.383 683.29V661.94H350.833V655.43H355.383V645.84H363.433V655.43H372.813V661.94H363.433ZM400.118 654.8C403.058 654.8 405.671 655.43 407.958 656.69C410.291 657.95 412.111 659.817 413.418 662.29C414.771 664.763 415.448 667.75 415.448 671.25V694H407.538V672.44C407.538 668.987 406.675 666.35 404.948 664.53C403.221 662.663 400.865 661.73 397.878 661.73C394.891 661.73 392.511 662.663 390.738 664.53C389.011 666.35 388.148 668.987 388.148 672.44V694H380.168V642.2H388.148V659.91C389.501 658.277 391.205 657.017 393.258 656.13C395.358 655.243 397.645 654.8 400.118 654.8ZM460.541 694.63C456.901 694.63 453.611 693.813 450.671 692.18C447.731 690.5 445.421 688.167 443.741 685.18C442.061 682.147 441.221 678.647 441.221 674.68C441.221 670.76 442.084 667.283 443.811 664.25C445.537 661.217 447.894 658.883 450.881 657.25C453.867 655.617 457.204 654.8 460.891 654.8C464.577 654.8 467.914 655.617 470.901 657.25C473.887 658.883 476.244 661.217 477.971 664.25C479.697 667.283 480.561 670.76 480.561 674.68C480.561 678.6 479.674 682.077 477.901 685.11C476.127 688.143 473.701 690.5 470.621 692.18C467.587 693.813 464.227 694.63 460.541 694.63ZM460.541 687.7C462.594 687.7 464.507 687.21 466.281 686.23C468.101 685.25 469.571 683.78 470.691 681.82C471.811 679.86 472.371 677.48 472.371 674.68C472.371 671.88 471.834 669.523 470.761 667.61C469.687 665.65 468.264 664.18 466.491 663.2C464.717 662.22 462.804 661.73 460.751 661.73C458.697 661.73 456.784 662.22 455.011 663.2C453.284 664.18 451.907 665.65 450.881 667.61C449.854 669.523 449.341 671.88 449.341 674.68C449.341 678.833 450.391 682.053 452.491 684.34C454.637 686.58 457.321 687.7 460.541 687.7ZM497.759 661.94V683.29C497.759 684.737 498.086 685.787 498.739 686.44C499.439 687.047 500.606 687.35 502.239 687.35H507.139V694H500.839C497.246 694 494.493 693.16 492.579 691.48C490.666 689.8 489.709 687.07 489.709 683.29V661.94H485.159V655.43H489.709V645.84H497.759V655.43H507.139V661.94H497.759ZM534.444 654.8C537.384 654.8 539.997 655.43 542.284 656.69C544.617 657.95 546.437 659.817 547.744 662.29C549.097 664.763 549.774 667.75 549.774 671.25V694H541.864V672.44C541.864 668.987 541.001 666.35 539.274 664.53C537.547 662.663 535.191 661.73 532.204 661.73C529.217 661.73 526.837 662.663 525.064 664.53C523.337 666.35 522.474 668.987 522.474 672.44V694H514.494V642.2H522.474V659.91C523.827 658.277 525.531 657.017 527.584 656.13C529.684 655.243 531.971 654.8 534.444 654.8ZM595.303 673.77C595.303 675.217 595.21 676.523 595.023 677.69H565.553C565.786 680.77 566.93 683.243 568.983 685.11C571.036 686.977 573.556 687.91 576.543 687.91C580.836 687.91 583.87 686.113 585.643 682.52H594.253C593.086 686.067 590.963 688.983 587.883 691.27C584.85 693.51 581.07 694.63 576.543 694.63C572.856 694.63 569.543 693.813 566.603 692.18C563.71 690.5 561.423 688.167 559.743 685.18C558.11 682.147 557.293 678.647 557.293 674.68C557.293 670.713 558.086 667.237 559.673 664.25C561.306 661.217 563.57 658.883 566.463 657.25C569.403 655.617 572.763 654.8 576.543 654.8C580.183 654.8 583.426 655.593 586.273 657.18C589.12 658.767 591.336 661.007 592.923 663.9C594.51 666.747 595.303 670.037 595.303 673.77ZM586.973 671.25C586.926 668.31 585.876 665.953 583.823 664.18C581.77 662.407 579.226 661.52 576.193 661.52C573.44 661.52 571.083 662.407 569.123 664.18C567.163 665.907 565.996 668.263 565.623 671.25H586.973ZM611.136 661.03C612.303 659.07 613.843 657.553 615.756 656.48C617.716 655.36 620.026 654.8 622.686 654.8V663.06H620.656C617.53 663.06 615.15 663.853 613.516 665.44C611.93 667.027 611.136 669.78 611.136 673.7V694H603.156V655.43H611.136V661.03ZM644.021 694.63C640.988 694.63 638.258 694.093 635.831 693.02C633.451 691.9 631.561 690.407 630.161 688.54C628.761 686.627 628.015 684.503 627.921 682.17H636.181C636.321 683.803 637.091 685.18 638.491 686.3C639.938 687.373 641.735 687.91 643.881 687.91C646.121 687.91 647.848 687.49 649.061 686.65C650.321 685.763 650.951 684.643 650.951 683.29C650.951 681.843 650.251 680.77 648.851 680.07C647.498 679.37 645.328 678.6 642.341 677.76C639.448 676.967 637.091 676.197 635.271 675.45C633.451 674.703 631.865 673.56 630.511 672.02C629.205 670.48 628.551 668.45 628.551 665.93C628.551 663.877 629.158 662.01 630.371 660.33C631.585 658.603 633.311 657.25 635.551 656.27C637.838 655.29 640.451 654.8 643.391 654.8C647.778 654.8 651.301 655.92 653.961 658.16C656.668 660.353 658.115 663.363 658.301 667.19H650.321C650.181 665.463 649.481 664.087 648.221 663.06C646.961 662.033 645.258 661.52 643.111 661.52C641.011 661.52 639.401 661.917 638.281 662.71C637.161 663.503 636.601 664.553 636.601 665.86C636.601 666.887 636.975 667.75 637.721 668.45C638.468 669.15 639.378 669.71 640.451 670.13C641.525 670.503 643.111 670.993 645.211 671.6C648.011 672.347 650.298 673.117 652.071 673.91C653.891 674.657 655.455 675.777 656.761 677.27C658.068 678.763 658.745 680.747 658.791 683.22C658.791 685.413 658.185 687.373 656.971 689.1C655.758 690.827 654.031 692.18 651.791 693.16C649.598 694.14 647.008 694.63 644.021 694.63Z" fill="white"/>
<path d="M447.911 74.176C443.475 93.1608 456.325 125.494 478.049 125.494C499.619 125.494 512.47 93.1608 508.033 74.176C504.668 59.6407 491.511 50 478.049 50C464.433 50 451.43 59.6407 447.911 74.176ZM384.73 87.5247C380.905 103.543 391.92 130.982 410.278 130.982C428.636 130.982 439.65 103.543 435.826 87.5247C432.919 75.2142 421.751 66.9084 410.278 66.9084C398.804 66.9084 387.636 75.2142 384.73 87.5247V87.5247ZM520.272 87.5247C516.447 103.543 527.462 130.982 545.667 130.982C564.025 130.982 575.04 103.543 571.215 87.5247C568.309 75.2142 557.141 66.9084 545.667 66.9084C534.346 66.9084 523.179 75.2142 520.272 87.5247V87.5247ZM511.246 257.053L530.369 193.276C542.302 156.345 519.507 133.652 478.049 133.652C436.438 133.652 413.643 156.345 425.423 193.276L444.699 257.053C448.217 267.732 462.751 275 478.049 275C493.041 275 507.727 267.732 511.246 257.053V257.053ZM417.927 143.886C410.431 153.823 403.241 171.028 411.502 197.133L428.636 253.345C423.434 256.312 416.856 257.943 410.278 257.943C397.274 257.943 385.036 251.862 381.976 242.666L365.607 188.53C355.663 157.235 374.939 138.102 410.278 138.102C414.408 138.102 418.539 138.398 422.363 138.991C420.834 140.475 419.304 142.254 417.927 143.886V143.886ZM545.667 138.102C581.006 138.102 600.435 157.235 590.338 188.53L573.969 242.666C570.909 251.862 558.671 257.943 545.667 257.943C539.089 257.943 532.511 256.312 527.309 253.345L544.29 197.429C552.704 171.028 545.514 153.823 537.865 143.886C536.641 142.254 535.111 140.475 533.582 138.991C537.406 138.398 541.384 138.102 545.667 138.102V138.102Z" fill="white"/>
</svg>
