<svg width="952" height="836" viewBox="0 0 952 836" fill="none" xmlns="http://www.w3.org/2000/svg">
<rect width="952" height="836" rx="25" fill="#8C20BF" fill-opacity="0.5"/>
<path d="M218.09 496.42C215.29 496.42 212.77 495.94 210.53 494.98C208.29 493.98 206.53 492.58 205.25 490.78C203.97 488.98 203.33 486.88 203.33 484.48H210.65C210.81 486.28 211.51 487.76 212.75 488.92C214.03 490.08 215.81 490.66 218.09 490.66C220.45 490.66 222.29 490.1 223.61 488.98C224.93 487.82 225.59 486.34 225.59 484.54C225.59 483.14 225.17 482 224.33 481.12C223.53 480.24 222.51 479.56 221.27 479.08C220.07 478.6 218.39 478.08 216.23 477.52C213.51 476.8 211.29 476.08 209.57 475.36C207.89 474.6 206.45 473.44 205.25 471.88C204.05 470.32 203.45 468.24 203.45 465.64C203.45 463.24 204.05 461.14 205.25 459.34C206.45 457.54 208.13 456.16 210.29 455.2C212.45 454.24 214.95 453.76 217.79 453.76C221.83 453.76 225.13 454.78 227.69 456.82C230.29 458.82 231.73 461.58 232.01 465.1H224.45C224.33 463.58 223.61 462.28 222.29 461.2C220.97 460.12 219.23 459.58 217.07 459.58C215.11 459.58 213.51 460.08 212.27 461.08C211.03 462.08 210.41 463.52 210.41 465.4C210.41 466.68 210.79 467.74 211.55 468.58C212.35 469.38 213.35 470.02 214.55 470.5C215.75 470.98 217.39 471.5 219.47 472.06C222.23 472.82 224.47 473.58 226.19 474.34C227.95 475.1 229.43 476.28 230.63 477.88C231.87 479.44 232.49 481.54 232.49 484.18C232.49 486.3 231.91 488.3 230.75 490.18C229.63 492.06 227.97 493.58 225.77 494.74C223.61 495.86 221.05 496.42 218.09 496.42ZM257.661 462.4C260.181 462.4 262.421 462.94 264.381 464.02C266.381 465.1 267.941 466.7 269.061 468.82C270.221 470.94 270.801 473.5 270.801 476.5V496H264.021V477.52C264.021 474.56 263.281 472.3 261.801 470.74C260.321 469.14 258.301 468.34 255.741 468.34C253.181 468.34 251.141 469.14 249.621 470.74C248.141 472.3 247.401 474.56 247.401 477.52V496H240.561V451.6H247.401V466.78C248.561 465.38 250.021 464.3 251.781 463.54C253.581 462.78 255.541 462.4 257.661 462.4ZM277.245 479.32C277.245 476 277.925 473.06 279.285 470.5C280.685 467.94 282.565 465.96 284.925 464.56C287.325 463.12 289.965 462.4 292.845 462.4C295.445 462.4 297.705 462.92 299.625 463.96C301.585 464.96 303.145 466.22 304.305 467.74V462.94H311.205V496H304.305V491.08C303.145 492.64 301.565 493.94 299.565 494.98C297.565 496.02 295.285 496.54 292.725 496.54C289.885 496.54 287.285 495.82 284.925 494.38C282.565 492.9 280.685 490.86 279.285 488.26C277.925 485.62 277.245 482.64 277.245 479.32ZM304.305 479.44C304.305 477.16 303.825 475.18 302.865 473.5C301.945 471.82 300.725 470.54 299.205 469.66C297.685 468.78 296.045 468.34 294.285 468.34C292.525 468.34 290.885 468.78 289.365 469.66C287.845 470.5 286.605 471.76 285.645 473.44C284.725 475.08 284.265 477.04 284.265 479.32C284.265 481.6 284.725 483.6 285.645 485.32C286.605 487.04 287.845 488.36 289.365 489.28C290.925 490.16 292.565 490.6 294.285 490.6C296.045 490.6 297.685 490.16 299.205 489.28C300.725 488.4 301.945 487.12 302.865 485.44C303.825 483.72 304.305 481.72 304.305 479.44ZM327.029 467.74C328.029 466.06 329.349 464.76 330.989 463.84C332.669 462.88 334.649 462.4 336.929 462.4V469.48H335.189C332.509 469.48 330.469 470.16 329.069 471.52C327.709 472.88 327.029 475.24 327.029 478.6V496H320.189V462.94H327.029V467.74ZM373.517 478.66C373.517 479.9 373.437 481.02 373.277 482.02H348.017C348.217 484.66 349.197 486.78 350.957 488.38C352.717 489.98 354.877 490.78 357.437 490.78C361.117 490.78 363.717 489.24 365.237 486.16H372.617C371.617 489.2 369.797 491.7 367.157 493.66C364.557 495.58 361.317 496.54 357.437 496.54C354.277 496.54 351.437 495.84 348.917 494.44C346.437 493 344.477 491 343.037 488.44C341.637 485.84 340.937 482.84 340.937 479.44C340.937 476.04 341.617 473.06 342.977 470.5C344.377 467.9 346.317 465.9 348.797 464.5C351.317 463.1 354.197 462.4 357.437 462.4C360.557 462.4 363.337 463.08 365.777 464.44C368.217 465.8 370.117 467.72 371.477 470.2C372.837 472.64 373.517 475.46 373.517 478.66ZM366.377 476.5C366.337 473.98 365.437 471.96 363.677 470.44C361.917 468.92 359.737 468.16 357.137 468.16C354.777 468.16 352.757 468.92 351.077 470.44C349.397 471.92 348.397 473.94 348.077 476.5H366.377ZM402.674 467.8C403.834 466.28 405.414 465 407.414 463.96C409.414 462.92 411.674 462.4 414.194 462.4C417.074 462.4 419.694 463.12 422.054 464.56C424.454 465.96 426.334 467.94 427.694 470.5C429.054 473.06 429.734 476 429.734 479.32C429.734 482.64 429.054 485.62 427.694 488.26C426.334 490.86 424.454 492.9 422.054 494.38C419.694 495.82 417.074 496.54 414.194 496.54C411.674 496.54 409.434 496.04 407.474 495.04C405.514 494 403.914 492.72 402.674 491.2V511.72H395.834V462.94H402.674V467.8ZM422.774 479.32C422.774 477.04 422.294 475.08 421.334 473.44C420.414 471.76 419.174 470.5 417.614 469.66C416.094 468.78 414.454 468.34 412.694 468.34C410.974 468.34 409.334 468.78 407.774 469.66C406.254 470.54 405.014 471.82 404.054 473.5C403.134 475.18 402.674 477.16 402.674 479.44C402.674 481.72 403.134 483.72 404.054 485.44C405.014 487.12 406.254 488.4 407.774 489.28C409.334 490.16 410.974 490.6 412.694 490.6C414.454 490.6 416.094 490.16 417.614 489.28C419.174 488.36 420.414 487.04 421.334 485.32C422.294 483.6 422.774 481.6 422.774 479.32ZM450.838 496.54C447.718 496.54 444.898 495.84 442.378 494.44C439.858 493 437.878 491 436.438 488.44C434.998 485.84 434.278 482.84 434.278 479.44C434.278 476.08 435.018 473.1 436.498 470.5C437.978 467.9 439.998 465.9 442.558 464.5C445.118 463.1 447.978 462.4 451.138 462.4C454.298 462.4 457.158 463.1 459.718 464.5C462.278 465.9 464.298 467.9 465.778 470.5C467.258 473.1 467.998 476.08 467.998 479.44C467.998 482.8 467.238 485.78 465.718 488.38C464.198 490.98 462.118 493 459.478 494.44C456.878 495.84 453.998 496.54 450.838 496.54ZM450.838 490.6C452.598 490.6 454.238 490.18 455.758 489.34C457.318 488.5 458.578 487.24 459.538 485.56C460.498 483.88 460.978 481.84 460.978 479.44C460.978 477.04 460.518 475.02 459.598 473.38C458.678 471.7 457.458 470.44 455.938 469.6C454.418 468.76 452.778 468.34 451.018 468.34C449.258 468.34 447.618 468.76 446.098 469.6C444.618 470.44 443.438 471.7 442.558 473.38C441.678 475.02 441.238 477.04 441.238 479.44C441.238 483 442.138 485.76 443.938 487.72C445.778 489.64 448.078 490.6 450.838 490.6ZM486.76 496.54C484.16 496.54 481.82 496.08 479.74 495.16C477.7 494.2 476.08 492.92 474.88 491.32C473.68 489.68 473.04 487.86 472.96 485.86H480.04C480.16 487.26 480.82 488.44 482.02 489.4C483.26 490.32 484.8 490.78 486.64 490.78C488.56 490.78 490.04 490.42 491.08 489.7C492.16 488.94 492.7 487.98 492.7 486.82C492.7 485.58 492.1 484.66 490.9 484.06C489.74 483.46 487.88 482.8 485.32 482.08C482.84 481.4 480.82 480.74 479.26 480.1C477.7 479.46 476.34 478.48 475.18 477.16C474.06 475.84 473.5 474.1 473.5 471.94C473.5 470.18 474.02 468.58 475.06 467.14C476.1 465.66 477.58 464.5 479.5 463.66C481.46 462.82 483.7 462.4 486.22 462.4C489.98 462.4 493 463.36 495.28 465.28C497.6 467.16 498.84 469.74 499 473.02H492.16C492.04 471.54 491.44 470.36 490.36 469.48C489.28 468.6 487.82 468.16 485.98 468.16C484.18 468.16 482.8 468.5 481.84 469.18C480.88 469.86 480.4 470.76 480.4 471.88C480.4 472.76 480.72 473.5 481.36 474.1C482 474.7 482.78 475.18 483.7 475.54C484.62 475.86 485.98 476.28 487.78 476.8C490.18 477.44 492.14 478.1 493.66 478.78C495.22 479.42 496.56 480.38 497.68 481.66C498.8 482.94 499.38 484.64 499.42 486.76C499.42 488.64 498.9 490.32 497.86 491.8C496.82 493.28 495.34 494.44 493.42 495.28C491.54 496.12 489.32 496.54 486.76 496.54ZM514.791 468.52V486.82C514.791 488.06 515.071 488.96 515.631 489.52C516.231 490.04 517.231 490.3 518.631 490.3H522.831V496H517.431C514.351 496 511.991 495.28 510.351 493.84C508.711 492.4 507.891 490.06 507.891 486.82V468.52H503.991V462.94H507.891V454.72H514.791V462.94H522.831V468.52H514.791ZM541.135 496.54C538.535 496.54 536.195 496.08 534.115 495.16C532.075 494.2 530.455 492.92 529.255 491.32C528.055 489.68 527.415 487.86 527.335 485.86H534.415C534.535 487.26 535.195 488.44 536.395 489.4C537.635 490.32 539.175 490.78 541.015 490.78C542.935 490.78 544.415 490.42 545.455 489.7C546.535 488.94 547.075 487.98 547.075 486.82C547.075 485.58 546.475 484.66 545.275 484.06C544.115 483.46 542.255 482.8 539.695 482.08C537.215 481.4 535.195 480.74 533.635 480.1C532.075 479.46 530.715 478.48 529.555 477.16C528.435 475.84 527.875 474.1 527.875 471.94C527.875 470.18 528.395 468.58 529.435 467.14C530.475 465.66 531.955 464.5 533.875 463.66C535.835 462.82 538.075 462.4 540.595 462.4C544.355 462.4 547.375 463.36 549.655 465.28C551.975 467.16 553.215 469.74 553.375 473.02H546.535C546.415 471.54 545.815 470.36 544.735 469.48C543.655 468.6 542.195 468.16 540.355 468.16C538.555 468.16 537.175 468.5 536.215 469.18C535.255 469.86 534.775 470.76 534.775 471.88C534.775 472.76 535.095 473.5 535.735 474.1C536.375 474.7 537.155 475.18 538.075 475.54C538.995 475.86 540.355 476.28 542.155 476.8C544.555 477.44 546.515 478.1 548.035 478.78C549.595 479.42 550.935 480.38 552.055 481.66C553.175 482.94 553.755 484.64 553.795 486.76C553.795 488.64 553.275 490.32 552.235 491.8C551.195 493.28 549.715 494.44 547.795 495.28C545.915 496.12 543.695 496.54 541.135 496.54ZM574.491 479.32C574.491 476 575.171 473.06 576.531 470.5C577.931 467.94 579.811 465.96 582.171 464.56C584.571 463.12 587.211 462.4 590.091 462.4C592.691 462.4 594.951 462.92 596.871 463.96C598.831 464.96 600.391 466.22 601.551 467.74V462.94H608.451V496H601.551V491.08C600.391 492.64 598.811 493.94 596.811 494.98C594.811 496.02 592.531 496.54 589.971 496.54C587.131 496.54 584.531 495.82 582.171 494.38C579.811 492.9 577.931 490.86 576.531 488.26C575.171 485.62 574.491 482.64 574.491 479.32ZM601.551 479.44C601.551 477.16 601.071 475.18 600.111 473.5C599.191 471.82 597.971 470.54 596.451 469.66C594.931 468.78 593.291 468.34 591.531 468.34C589.771 468.34 588.131 468.78 586.611 469.66C585.091 470.5 583.851 471.76 582.891 473.44C581.971 475.08 581.511 477.04 581.511 479.32C581.511 481.6 581.971 483.6 582.891 485.32C583.851 487.04 585.091 488.36 586.611 489.28C588.171 490.16 589.811 490.6 591.531 490.6C593.291 490.6 594.931 490.16 596.451 489.28C597.971 488.4 599.191 487.12 600.111 485.44C601.071 483.72 601.551 481.72 601.551 479.44ZM624.276 467.86C625.436 466.26 627.016 464.96 629.016 463.96C631.056 462.92 633.316 462.4 635.796 462.4C638.716 462.4 641.356 463.1 643.716 464.5C646.076 465.9 647.936 467.9 649.296 470.5C650.656 473.06 651.336 476 651.336 479.32C651.336 482.64 650.656 485.62 649.296 488.26C647.936 490.86 646.056 492.9 643.656 494.38C641.296 495.82 638.676 496.54 635.796 496.54C633.236 496.54 630.956 496.04 628.956 495.04C626.996 494.04 625.436 492.76 624.276 491.2V496H617.436V451.6H624.276V467.86ZM644.376 479.32C644.376 477.04 643.896 475.08 642.936 473.44C642.016 471.76 640.776 470.5 639.216 469.66C637.696 468.78 636.056 468.34 634.296 468.34C632.576 468.34 630.936 468.78 629.376 469.66C627.856 470.54 626.616 471.82 625.656 473.5C624.736 475.18 624.276 477.16 624.276 479.44C624.276 481.72 624.736 483.72 625.656 485.44C626.616 487.12 627.856 488.4 629.376 489.28C630.936 490.16 632.576 490.6 634.296 490.6C636.056 490.6 637.696 490.16 639.216 489.28C640.776 488.36 642.016 487.04 642.936 485.32C643.896 483.6 644.376 481.6 644.376 479.32ZM672.44 496.54C669.32 496.54 666.5 495.84 663.98 494.44C661.46 493 659.48 491 658.04 488.44C656.6 485.84 655.88 482.84 655.88 479.44C655.88 476.08 656.62 473.1 658.1 470.5C659.58 467.9 661.6 465.9 664.16 464.5C666.72 463.1 669.58 462.4 672.74 462.4C675.9 462.4 678.76 463.1 681.32 464.5C683.88 465.9 685.9 467.9 687.38 470.5C688.86 473.1 689.6 476.08 689.6 479.44C689.6 482.8 688.84 485.78 687.32 488.38C685.8 490.98 683.72 493 681.08 494.44C678.48 495.84 675.6 496.54 672.44 496.54ZM672.44 490.6C674.2 490.6 675.84 490.18 677.36 489.34C678.92 488.5 680.18 487.24 681.14 485.56C682.1 483.88 682.58 481.84 682.58 479.44C682.58 477.04 682.12 475.02 681.2 473.38C680.28 471.7 679.06 470.44 677.54 469.6C676.02 468.76 674.38 468.34 672.62 468.34C670.86 468.34 669.22 468.76 667.7 469.6C666.22 470.44 665.04 471.7 664.16 473.38C663.28 475.02 662.84 477.04 662.84 479.44C662.84 483 663.74 485.76 665.54 487.72C667.38 489.64 669.68 490.6 672.44 490.6ZM726.301 462.94V496H719.461V492.1C718.381 493.46 716.961 494.54 715.201 495.34C713.481 496.1 711.641 496.48 709.681 496.48C707.081 496.48 704.741 495.94 702.661 494.86C700.621 493.78 699.001 492.18 697.801 490.06C696.641 487.94 696.061 485.38 696.061 482.38V462.94H702.841V481.36C702.841 484.32 703.581 486.6 705.061 488.2C706.541 489.76 708.561 490.54 711.121 490.54C713.681 490.54 715.701 489.76 717.181 488.2C718.701 486.6 719.461 484.32 719.461 481.36V462.94H726.301ZM743.306 468.52V486.82C743.306 488.06 743.586 488.96 744.146 489.52C744.746 490.04 745.746 490.3 747.146 490.3H751.346V496H745.946C742.866 496 740.506 495.28 738.866 493.84C737.226 492.4 736.406 490.06 736.406 486.82V468.52H732.506V462.94H736.406V454.72H743.306V462.94H751.346V468.52H743.306ZM200.864 552.4C203.464 552.4 205.784 552.94 207.824 554.02C209.904 555.1 211.524 556.7 212.684 558.82C213.884 560.94 214.484 563.5 214.484 566.5V586H207.704V567.52C207.704 564.56 206.964 562.3 205.484 560.74C204.004 559.14 201.984 558.34 199.424 558.34C196.864 558.34 194.824 559.14 193.304 560.74C191.824 562.3 191.084 564.56 191.084 567.52V586H184.304V567.52C184.304 564.56 183.564 562.3 182.084 560.74C180.604 559.14 178.584 558.34 176.024 558.34C173.464 558.34 171.424 559.14 169.904 560.74C168.424 562.3 167.684 564.56 167.684 567.52V586H160.844V552.94H167.684V556.72C168.804 555.36 170.224 554.3 171.944 553.54C173.664 552.78 175.504 552.4 177.464 552.4C180.104 552.4 182.464 552.96 184.544 554.08C186.624 555.2 188.224 556.82 189.344 558.94C190.344 556.94 191.904 555.36 194.024 554.2C196.144 553 198.424 552.4 200.864 552.4ZM237.528 586.54C234.408 586.54 231.588 585.84 229.068 584.44C226.548 583 224.568 581 223.128 578.44C221.688 575.84 220.968 572.84 220.968 569.44C220.968 566.08 221.708 563.1 223.188 560.5C224.668 557.9 226.688 555.9 229.248 554.5C231.808 553.1 234.668 552.4 237.828 552.4C240.988 552.4 243.848 553.1 246.408 554.5C248.968 555.9 250.988 557.9 252.468 560.5C253.948 563.1 254.688 566.08 254.688 569.44C254.688 572.8 253.928 575.78 252.408 578.38C250.888 580.98 248.808 583 246.168 584.44C243.568 585.84 240.688 586.54 237.528 586.54ZM237.528 580.6C239.288 580.6 240.928 580.18 242.448 579.34C244.008 578.5 245.268 577.24 246.228 575.56C247.188 573.88 247.668 571.84 247.668 569.44C247.668 567.04 247.208 565.02 246.288 563.38C245.368 561.7 244.148 560.44 242.628 559.6C241.108 558.76 239.468 558.34 237.708 558.34C235.948 558.34 234.308 558.76 232.788 559.6C231.308 560.44 230.128 561.7 229.248 563.38C228.368 565.02 227.928 567.04 227.928 569.44C227.928 573 228.828 575.76 230.628 577.72C232.468 579.64 234.768 580.6 237.528 580.6ZM274.229 579.88L283.589 552.94H290.849L278.249 586H270.089L257.549 552.94H264.869L274.229 579.88ZM299.5 548.56C298.26 548.56 297.22 548.14 296.38 547.3C295.54 546.46 295.12 545.42 295.12 544.18C295.12 542.94 295.54 541.9 296.38 541.06C297.22 540.22 298.26 539.8 299.5 539.8C300.7 539.8 301.72 540.22 302.56 541.06C303.4 541.9 303.82 542.94 303.82 544.18C303.82 545.42 303.4 546.46 302.56 547.3C301.72 548.14 300.7 548.56 299.5 548.56ZM302.86 552.94V586H296.02V552.94H302.86ZM342.14 568.66C342.14 569.9 342.06 571.02 341.9 572.02H316.64C316.84 574.66 317.82 576.78 319.58 578.38C321.34 579.98 323.5 580.78 326.06 580.78C329.74 580.78 332.34 579.24 333.86 576.16H341.24C340.24 579.2 338.42 581.7 335.78 583.66C333.18 585.58 329.94 586.54 326.06 586.54C322.9 586.54 320.06 585.84 317.54 584.44C315.06 583 313.1 581 311.66 578.44C310.26 575.84 309.56 572.84 309.56 569.44C309.56 566.04 310.24 563.06 311.6 560.5C313 557.9 314.94 555.9 317.42 554.5C319.94 553.1 322.82 552.4 326.06 552.4C329.18 552.4 331.96 553.08 334.4 554.44C336.84 555.8 338.74 557.72 340.1 560.2C341.46 562.64 342.14 565.46 342.14 568.66ZM335 566.5C334.96 563.98 334.06 561.96 332.3 560.44C330.54 558.92 328.36 558.16 325.76 558.16C323.4 558.16 321.38 558.92 319.7 560.44C318.02 561.92 317.02 563.94 316.7 566.5H335ZM360.871 586.54C358.271 586.54 355.931 586.08 353.851 585.16C351.811 584.2 350.191 582.92 348.991 581.32C347.791 579.68 347.151 577.86 347.071 575.86H354.151C354.271 577.26 354.931 578.44 356.131 579.4C357.371 580.32 358.911 580.78 360.751 580.78C362.671 580.78 364.151 580.42 365.191 579.7C366.271 578.94 366.811 577.98 366.811 576.82C366.811 575.58 366.211 574.66 365.011 574.06C363.851 573.46 361.991 572.8 359.431 572.08C356.951 571.4 354.931 570.74 353.371 570.1C351.811 569.46 350.451 568.48 349.291 567.16C348.171 565.84 347.611 564.1 347.611 561.94C347.611 560.18 348.131 558.58 349.171 557.14C350.211 555.66 351.691 554.5 353.611 553.66C355.571 552.82 357.811 552.4 360.331 552.4C364.091 552.4 367.111 553.36 369.391 555.28C371.711 557.16 372.951 559.74 373.111 563.02H366.271C366.151 561.54 365.551 560.36 364.471 559.48C363.391 558.6 361.931 558.16 360.091 558.16C358.291 558.16 356.911 558.5 355.951 559.18C354.991 559.86 354.511 560.76 354.511 561.88C354.511 562.76 354.831 563.5 355.471 564.1C356.111 564.7 356.891 565.18 357.811 565.54C358.731 565.86 360.091 566.28 361.891 566.8C364.291 567.44 366.251 568.1 367.771 568.78C369.331 569.42 370.671 570.38 371.791 571.66C372.911 572.94 373.491 574.64 373.531 576.76C373.531 578.64 373.011 580.32 371.971 581.8C370.931 583.28 369.451 584.44 367.531 585.28C365.651 586.12 363.431 586.54 360.871 586.54ZM394.228 569.32C394.228 566 394.908 563.06 396.268 560.5C397.668 557.94 399.548 555.96 401.908 554.56C404.308 553.12 406.948 552.4 409.828 552.4C412.428 552.4 414.688 552.92 416.608 553.96C418.568 554.96 420.128 556.22 421.288 557.74V552.94H428.188V586H421.288V581.08C420.128 582.64 418.548 583.94 416.548 584.98C414.548 586.02 412.268 586.54 409.708 586.54C406.868 586.54 404.268 585.82 401.908 584.38C399.548 582.9 397.668 580.86 396.268 578.26C394.908 575.62 394.228 572.64 394.228 569.32ZM421.288 569.44C421.288 567.16 420.808 565.18 419.848 563.5C418.928 561.82 417.708 560.54 416.188 559.66C414.668 558.78 413.028 558.34 411.268 558.34C409.508 558.34 407.868 558.78 406.348 559.66C404.828 560.5 403.588 561.76 402.628 563.44C401.708 565.08 401.248 567.04 401.248 569.32C401.248 571.6 401.708 573.6 402.628 575.32C403.588 577.04 404.828 578.36 406.348 579.28C407.908 580.16 409.548 580.6 411.268 580.6C413.028 580.6 414.668 580.16 416.188 579.28C417.708 578.4 418.928 577.12 419.848 575.44C420.808 573.72 421.288 571.72 421.288 569.44ZM453.852 552.4C456.452 552.4 458.772 552.94 460.812 554.02C462.892 555.1 464.512 556.7 465.672 558.82C466.832 560.94 467.412 563.5 467.412 566.5V586H460.632V567.52C460.632 564.56 459.892 562.3 458.412 560.74C456.932 559.14 454.912 558.34 452.352 558.34C449.792 558.34 447.752 559.14 446.232 560.74C444.752 562.3 444.012 564.56 444.012 567.52V586H437.172V552.94H444.012V556.72C445.132 555.36 446.552 554.3 448.272 553.54C450.032 552.78 451.892 552.4 453.852 552.4ZM473.857 569.32C473.857 566 474.537 563.06 475.897 560.5C477.297 557.94 479.177 555.96 481.537 554.56C483.937 553.12 486.597 552.4 489.517 552.4C491.677 552.4 493.797 552.88 495.877 553.84C497.997 554.76 499.677 556 500.917 557.56V541.6H507.817V586H500.917V581.02C499.797 582.62 498.237 583.94 496.237 584.98C494.277 586.02 492.017 586.54 489.457 586.54C486.577 586.54 483.937 585.82 481.537 584.38C479.177 582.9 477.297 580.86 475.897 578.26C474.537 575.62 473.857 572.64 473.857 569.32ZM500.917 569.44C500.917 567.16 500.437 565.18 499.477 563.5C498.557 561.82 497.337 560.54 495.817 559.66C494.297 558.78 492.657 558.34 490.897 558.34C489.137 558.34 487.497 558.78 485.977 559.66C484.457 560.5 483.217 561.76 482.257 563.44C481.337 565.08 480.877 567.04 480.877 569.32C480.877 571.6 481.337 573.6 482.257 575.32C483.217 577.04 484.457 578.36 485.977 579.28C487.537 580.16 489.177 580.6 490.897 580.6C492.657 580.6 494.297 580.16 495.817 579.28C497.337 578.4 498.557 577.12 499.477 575.44C500.437 573.72 500.917 571.72 500.917 569.44ZM545.167 579.88L554.527 552.94H561.787L549.187 586H541.027L528.487 552.94H535.807L545.167 579.88ZM570.437 548.56C569.197 548.56 568.157 548.14 567.317 547.3C566.477 546.46 566.057 545.42 566.057 544.18C566.057 542.94 566.477 541.9 567.317 541.06C568.157 540.22 569.197 539.8 570.437 539.8C571.637 539.8 572.657 540.22 573.497 541.06C574.337 541.9 574.757 542.94 574.757 544.18C574.757 545.42 574.337 546.46 573.497 547.3C572.657 548.14 571.637 548.56 570.437 548.56ZM573.797 552.94V586H566.957V552.94H573.797ZM580.497 569.32C580.497 566 581.177 563.06 582.537 560.5C583.937 557.94 585.817 555.96 588.177 554.56C590.577 553.12 593.237 552.4 596.157 552.4C598.317 552.4 600.437 552.88 602.517 553.84C604.637 554.76 606.317 556 607.557 557.56V541.6H614.457V586H607.557V581.02C606.437 582.62 604.877 583.94 602.877 584.98C600.917 586.02 598.657 586.54 596.097 586.54C593.217 586.54 590.577 585.82 588.177 584.38C585.817 582.9 583.937 580.86 582.537 578.26C581.177 575.62 580.497 572.64 580.497 569.32ZM607.557 569.44C607.557 567.16 607.077 565.18 606.117 563.5C605.197 561.82 603.977 560.54 602.457 559.66C600.937 558.78 599.297 558.34 597.537 558.34C595.777 558.34 594.137 558.78 592.617 559.66C591.097 560.5 589.857 561.76 588.897 563.44C587.977 565.08 587.517 567.04 587.517 569.32C587.517 571.6 587.977 573.6 588.897 575.32C589.857 577.04 591.097 578.36 592.617 579.28C594.177 580.16 595.817 580.6 597.537 580.6C599.297 580.6 600.937 580.16 602.457 579.28C603.977 578.4 605.197 577.12 606.117 575.44C607.077 573.72 607.557 571.72 607.557 569.44ZM653.741 568.66C653.741 569.9 653.661 571.02 653.501 572.02H628.241C628.441 574.66 629.421 576.78 631.181 578.38C632.941 579.98 635.101 580.78 637.661 580.78C641.341 580.78 643.941 579.24 645.461 576.16H652.841C651.841 579.2 650.021 581.7 647.381 583.66C644.781 585.58 641.541 586.54 637.661 586.54C634.501 586.54 631.661 585.84 629.141 584.44C626.661 583 624.701 581 623.261 578.44C621.861 575.84 621.161 572.84 621.161 569.44C621.161 566.04 621.841 563.06 623.201 560.5C624.601 557.9 626.541 555.9 629.021 554.5C631.541 553.1 634.421 552.4 637.661 552.4C640.781 552.4 643.561 553.08 646.001 554.44C648.441 555.8 650.341 557.72 651.701 560.2C653.061 562.64 653.741 565.46 653.741 568.66ZM646.601 566.5C646.561 563.98 645.661 561.96 643.901 560.44C642.141 558.92 639.961 558.16 637.361 558.16C635.001 558.16 632.981 558.92 631.301 560.44C629.621 561.92 628.621 563.94 628.301 566.5H646.601ZM674.813 586.54C671.693 586.54 668.873 585.84 666.353 584.44C663.833 583 661.853 581 660.413 578.44C658.973 575.84 658.253 572.84 658.253 569.44C658.253 566.08 658.993 563.1 660.473 560.5C661.953 557.9 663.973 555.9 666.533 554.5C669.093 553.1 671.953 552.4 675.113 552.4C678.273 552.4 681.133 553.1 683.693 554.5C686.253 555.9 688.273 557.9 689.753 560.5C691.233 563.1 691.973 566.08 691.973 569.44C691.973 572.8 691.213 575.78 689.693 578.38C688.173 580.98 686.093 583 683.453 584.44C680.853 585.84 677.973 586.54 674.813 586.54ZM674.813 580.6C676.573 580.6 678.213 580.18 679.733 579.34C681.293 578.5 682.553 577.24 683.513 575.56C684.473 573.88 684.953 571.84 684.953 569.44C684.953 567.04 684.493 565.02 683.573 563.38C682.653 561.7 681.433 560.44 679.913 559.6C678.393 558.76 676.753 558.34 674.993 558.34C673.233 558.34 671.593 558.76 670.073 559.6C668.593 560.44 667.413 561.7 666.533 563.38C665.653 565.02 665.213 567.04 665.213 569.44C665.213 573 666.113 575.76 667.913 577.72C669.753 579.64 672.053 580.6 674.813 580.6ZM710.734 586.54C708.134 586.54 705.794 586.08 703.714 585.16C701.674 584.2 700.054 582.92 698.854 581.32C697.654 579.68 697.014 577.86 696.934 575.86H704.014C704.134 577.26 704.794 578.44 705.994 579.4C707.234 580.32 708.774 580.78 710.614 580.78C712.534 580.78 714.014 580.42 715.054 579.7C716.134 578.94 716.674 577.98 716.674 576.82C716.674 575.58 716.074 574.66 714.874 574.06C713.714 573.46 711.854 572.8 709.294 572.08C706.814 571.4 704.794 570.74 703.234 570.1C701.674 569.46 700.314 568.48 699.154 567.16C698.034 565.84 697.474 564.1 697.474 561.94C697.474 560.18 697.994 558.58 699.034 557.14C700.074 555.66 701.554 554.5 703.474 553.66C705.434 552.82 707.674 552.4 710.194 552.4C713.954 552.4 716.974 553.36 719.254 555.28C721.574 557.16 722.814 559.74 722.974 563.02H716.134C716.014 561.54 715.414 560.36 714.334 559.48C713.254 558.6 711.794 558.16 709.954 558.16C708.154 558.16 706.774 558.5 705.814 559.18C704.854 559.86 704.374 560.76 704.374 561.88C704.374 562.76 704.694 563.5 705.334 564.1C705.974 564.7 706.754 565.18 707.674 565.54C708.594 565.86 709.954 566.28 711.754 566.8C714.154 567.44 716.114 568.1 717.634 568.78C719.194 569.42 720.534 570.38 721.654 571.66C722.774 572.94 723.354 574.64 723.394 576.76C723.394 578.64 722.874 580.32 721.834 581.8C720.794 583.28 719.314 584.44 717.394 585.28C715.514 586.12 713.294 586.54 710.734 586.54ZM749.851 548.56C748.611 548.56 747.571 548.14 746.731 547.3C745.891 546.46 745.471 545.42 745.471 544.18C745.471 542.94 745.891 541.9 746.731 541.06C747.571 540.22 748.611 539.8 749.851 539.8C751.051 539.8 752.071 540.22 752.911 541.06C753.751 541.9 754.171 542.94 754.171 544.18C754.171 545.42 753.751 546.46 752.911 547.3C752.071 548.14 751.051 548.56 749.851 548.56ZM753.211 552.94V586H746.371V552.94H753.211ZM778.871 552.4C781.471 552.4 783.791 552.94 785.831 554.02C787.911 555.1 789.531 556.7 790.691 558.82C791.851 560.94 792.431 563.5 792.431 566.5V586H785.651V567.52C785.651 564.56 784.911 562.3 783.431 560.74C781.951 559.14 779.931 558.34 777.371 558.34C774.811 558.34 772.771 559.14 771.251 560.74C769.771 562.3 769.031 564.56 769.031 567.52V586H762.191V552.94H769.031V556.72C770.151 555.36 771.571 554.3 773.291 553.54C775.051 552.78 776.911 552.4 778.871 552.4ZM278.769 659.44C278.769 656.04 279.449 653.06 280.809 650.5C282.209 647.9 284.129 645.9 286.569 644.5C289.009 643.1 291.809 642.4 294.969 642.4C298.969 642.4 302.269 643.36 304.869 645.28C307.509 647.16 309.289 649.86 310.209 653.38H302.829C302.229 651.74 301.269 650.46 299.949 649.54C298.629 648.62 296.969 648.16 294.969 648.16C292.169 648.16 289.929 649.16 288.249 651.16C286.609 653.12 285.789 655.88 285.789 659.44C285.789 663 286.609 665.78 288.249 667.78C289.929 669.78 292.169 670.78 294.969 670.78C298.929 670.78 301.549 669.04 302.829 665.56H310.209C309.249 668.92 307.449 671.6 304.809 673.6C302.169 675.56 298.889 676.54 294.969 676.54C291.809 676.54 289.009 675.84 286.569 674.44C284.129 673 282.209 671 280.809 668.44C279.449 665.84 278.769 662.84 278.769 659.44ZM331.365 676.54C328.245 676.54 325.425 675.84 322.905 674.44C320.385 673 318.405 671 316.965 668.44C315.525 665.84 314.805 662.84 314.805 659.44C314.805 656.08 315.545 653.1 317.025 650.5C318.505 647.9 320.525 645.9 323.085 644.5C325.645 643.1 328.505 642.4 331.665 642.4C334.825 642.4 337.685 643.1 340.245 644.5C342.805 645.9 344.825 647.9 346.305 650.5C347.785 653.1 348.525 656.08 348.525 659.44C348.525 662.8 347.765 665.78 346.245 668.38C344.725 670.98 342.645 673 340.005 674.44C337.405 675.84 334.525 676.54 331.365 676.54ZM331.365 670.6C333.125 670.6 334.765 670.18 336.285 669.34C337.845 668.5 339.105 667.24 340.065 665.56C341.025 663.88 341.505 661.84 341.505 659.44C341.505 657.04 341.045 655.02 340.125 653.38C339.205 651.7 337.985 650.44 336.465 649.6C334.945 648.76 333.305 648.34 331.545 648.34C329.785 648.34 328.145 648.76 326.625 649.6C325.145 650.44 323.965 651.7 323.085 653.38C322.205 655.02 321.765 657.04 321.765 659.44C321.765 663 322.665 665.76 324.465 667.72C326.305 669.64 328.605 670.6 331.365 670.6ZM395.307 642.4C397.907 642.4 400.227 642.94 402.267 644.02C404.347 645.1 405.967 646.7 407.127 648.82C408.327 650.94 408.927 653.5 408.927 656.5V676H402.147V657.52C402.147 654.56 401.407 652.3 399.927 650.74C398.447 649.14 396.427 648.34 393.867 648.34C391.307 648.34 389.267 649.14 387.747 650.74C386.267 652.3 385.527 654.56 385.527 657.52V676H378.747V657.52C378.747 654.56 378.007 652.3 376.527 650.74C375.047 649.14 373.027 648.34 370.467 648.34C367.907 648.34 365.867 649.14 364.347 650.74C362.867 652.3 362.127 654.56 362.127 657.52V676H355.287V642.94H362.127V646.72C363.247 645.36 364.667 644.3 366.387 643.54C368.107 642.78 369.947 642.4 371.907 642.4C374.547 642.4 376.907 642.96 378.987 644.08C381.067 645.2 382.667 646.82 383.787 648.94C384.787 646.94 386.347 645.36 388.467 644.2C390.587 643 392.867 642.4 395.307 642.4ZM457.651 642.4C460.251 642.4 462.571 642.94 464.611 644.02C466.691 645.1 468.311 646.7 469.471 648.82C470.671 650.94 471.271 653.5 471.271 656.5V676H464.491V657.52C464.491 654.56 463.751 652.3 462.271 650.74C460.791 649.14 458.771 648.34 456.211 648.34C453.651 648.34 451.611 649.14 450.091 650.74C448.611 652.3 447.871 654.56 447.871 657.52V676H441.091V657.52C441.091 654.56 440.351 652.3 438.871 650.74C437.391 649.14 435.371 648.34 432.811 648.34C430.251 648.34 428.211 649.14 426.691 650.74C425.211 652.3 424.471 654.56 424.471 657.52V676H417.631V642.94H424.471V646.72C425.591 645.36 427.011 644.3 428.731 643.54C430.451 642.78 432.291 642.4 434.251 642.4C436.891 642.4 439.251 642.96 441.331 644.08C443.411 645.2 445.011 646.82 446.131 648.94C447.131 646.94 448.691 645.36 450.811 644.2C452.931 643 455.211 642.4 457.651 642.4ZM509.915 642.94V676H503.075V672.1C501.995 673.46 500.575 674.54 498.815 675.34C497.095 676.1 495.255 676.48 493.295 676.48C490.695 676.48 488.355 675.94 486.275 674.86C484.235 673.78 482.615 672.18 481.415 670.06C480.255 667.94 479.675 665.38 479.675 662.38V642.94H486.455V661.36C486.455 664.32 487.195 666.6 488.675 668.2C490.155 669.76 492.175 670.54 494.735 670.54C497.295 670.54 499.315 669.76 500.795 668.2C502.315 666.6 503.075 664.32 503.075 661.36V642.94H509.915ZM535.619 642.4C538.219 642.4 540.539 642.94 542.579 644.02C544.659 645.1 546.279 646.7 547.439 648.82C548.599 650.94 549.179 653.5 549.179 656.5V676H542.399V657.52C542.399 654.56 541.659 652.3 540.179 650.74C538.699 649.14 536.679 648.34 534.119 648.34C531.559 648.34 529.519 649.14 527.999 650.74C526.519 652.3 525.779 654.56 525.779 657.52V676H518.939V642.94H525.779V646.72C526.899 645.36 528.319 644.3 530.039 643.54C531.799 642.78 533.659 642.4 535.619 642.4ZM561.384 638.56C560.144 638.56 559.104 638.14 558.264 637.3C557.424 636.46 557.004 635.42 557.004 634.18C557.004 632.94 557.424 631.9 558.264 631.06C559.104 630.22 560.144 629.8 561.384 629.8C562.584 629.8 563.604 630.22 564.444 631.06C565.284 631.9 565.704 632.94 565.704 634.18C565.704 635.42 565.284 636.46 564.444 637.3C563.604 638.14 562.584 638.56 561.384 638.56ZM564.744 642.94V676H557.904V642.94H564.744ZM581.705 648.52V666.82C581.705 668.06 581.985 668.96 582.545 669.52C583.145 670.04 584.145 670.3 585.545 670.3H589.745V676H584.345C581.265 676 578.905 675.28 577.265 673.84C575.625 672.4 574.805 670.06 574.805 666.82V648.52H570.905V642.94H574.805V634.72H581.705V642.94H589.745V648.52H581.705ZM599.529 638.56C598.289 638.56 597.249 638.14 596.409 637.3C595.569 636.46 595.149 635.42 595.149 634.18C595.149 632.94 595.569 631.9 596.409 631.06C597.249 630.22 598.289 629.8 599.529 629.8C600.729 629.8 601.749 630.22 602.589 631.06C603.429 631.9 603.849 632.94 603.849 634.18C603.849 635.42 603.429 636.46 602.589 637.3C601.749 638.14 600.729 638.56 599.529 638.56ZM602.889 642.94V676H596.049V642.94H602.889ZM642.169 658.66C642.169 659.9 642.089 661.02 641.929 662.02H616.669C616.869 664.66 617.849 666.78 619.609 668.38C621.369 669.98 623.529 670.78 626.089 670.78C629.769 670.78 632.369 669.24 633.889 666.16H641.269C640.269 669.2 638.449 671.7 635.809 673.66C633.209 675.58 629.969 676.54 626.089 676.54C622.929 676.54 620.089 675.84 617.569 674.44C615.089 673 613.129 671 611.689 668.44C610.289 665.84 609.589 662.84 609.589 659.44C609.589 656.04 610.269 653.06 611.629 650.5C613.029 647.9 614.969 645.9 617.449 644.5C619.969 643.1 622.849 642.4 626.089 642.4C629.209 642.4 631.989 643.08 634.429 644.44C636.869 645.8 638.769 647.72 640.129 650.2C641.489 652.64 642.169 655.46 642.169 658.66ZM635.029 656.5C634.989 653.98 634.089 651.96 632.329 650.44C630.569 648.92 628.389 648.16 625.789 648.16C623.429 648.16 621.409 648.92 619.729 650.44C618.049 651.92 617.049 653.94 616.729 656.5H635.029ZM660.9 676.54C658.3 676.54 655.96 676.08 653.88 675.16C651.84 674.2 650.22 672.92 649.02 671.32C647.82 669.68 647.18 667.86 647.1 665.86H654.18C654.3 667.26 654.96 668.44 656.16 669.4C657.4 670.32 658.94 670.78 660.78 670.78C662.7 670.78 664.18 670.42 665.22 669.7C666.3 668.94 666.84 667.98 666.84 666.82C666.84 665.58 666.24 664.66 665.04 664.06C663.88 663.46 662.02 662.8 659.46 662.08C656.98 661.4 654.96 660.74 653.4 660.1C651.84 659.46 650.48 658.48 649.32 657.16C648.2 655.84 647.64 654.1 647.64 651.94C647.64 650.18 648.16 648.58 649.2 647.14C650.24 645.66 651.72 644.5 653.64 643.66C655.6 642.82 657.84 642.4 660.36 642.4C664.12 642.4 667.14 643.36 669.42 645.28C671.74 647.16 672.98 649.74 673.14 653.02H666.3C666.18 651.54 665.58 650.36 664.5 649.48C663.42 648.6 661.96 648.16 660.12 648.16C658.32 648.16 656.94 648.5 655.98 649.18C655.02 649.86 654.54 650.76 654.54 651.88C654.54 652.76 654.86 653.5 655.5 654.1C656.14 654.7 656.92 655.18 657.84 655.54C658.76 655.86 660.12 656.28 661.92 656.8C664.32 657.44 666.28 658.1 667.8 658.78C669.36 659.42 670.7 660.38 671.82 661.66C672.94 662.94 673.52 664.64 673.56 666.76C673.56 668.64 673.04 670.32 672 671.8C670.96 673.28 669.48 674.44 667.56 675.28C665.68 676.12 663.46 676.54 660.9 676.54Z" fill="white"/>
<path d="M445.911 121.176C441.475 140.161 454.325 172.494 476.049 172.494C497.619 172.494 510.47 140.161 506.033 121.176C502.668 106.641 489.511 97 476.049 97C462.433 97 449.43 106.641 445.911 121.176ZM382.73 134.525C378.905 150.543 389.92 177.982 408.278 177.982C426.636 177.982 437.65 150.543 433.826 134.525C430.919 122.214 419.751 113.908 408.278 113.908C396.804 113.908 385.636 122.214 382.73 134.525V134.525ZM518.272 134.525C514.447 150.543 525.462 177.982 543.667 177.982C562.025 177.982 573.04 150.543 569.215 134.525C566.309 122.214 555.141 113.908 543.667 113.908C532.346 113.908 521.179 122.214 518.272 134.525V134.525ZM509.246 304.053L528.369 240.276C540.302 203.345 517.507 180.652 476.049 180.652C434.438 180.652 411.643 203.345 423.423 240.276L442.699 304.053C446.217 314.732 460.751 322 476.049 322C491.041 322 505.727 314.732 509.246 304.053V304.053ZM415.927 190.886C408.431 200.823 401.241 218.028 409.502 244.133L426.636 300.345C421.434 303.312 414.856 304.943 408.278 304.943C395.274 304.943 383.036 298.862 379.976 289.666L363.607 235.53C353.663 204.235 372.939 185.102 408.278 185.102C412.408 185.102 416.539 185.398 420.363 185.991C418.834 187.475 417.304 189.254 415.927 190.886V190.886ZM543.667 185.102C579.006 185.102 598.435 204.235 588.338 235.53L571.969 289.666C568.909 298.862 556.671 304.943 543.667 304.943C537.089 304.943 530.511 303.312 525.309 300.345L542.29 244.429C550.704 218.028 543.514 200.823 535.865 190.886C534.641 189.254 533.111 187.475 531.582 185.991C535.406 185.398 539.384 185.102 543.667 185.102V185.102Z" fill="white"/>
</svg>
