<svg width="952" height="836" viewBox="0 0 952 836" fill="none" xmlns="http://www.w3.org/2000/svg">
<rect width="952" height="836" rx="25" fill="#8C20BF" fill-opacity="0.5"/>
<path d="M155.558 330.35V336.86H142.608V379H134.628V336.86H121.608V330.35H155.558ZM183.59 339.8C186.53 339.8 189.143 340.43 191.43 341.69C193.763 342.95 195.583 344.817 196.89 347.29C198.243 349.763 198.92 352.75 198.92 356.25V379H191.01V357.44C191.01 353.987 190.146 351.35 188.42 349.53C186.693 347.663 184.336 346.73 181.35 346.73C178.363 346.73 175.983 347.663 174.21 349.53C172.483 351.35 171.62 353.987 171.62 357.44V379H163.64V327.2H171.62V344.91C172.973 343.277 174.676 342.017 176.73 341.13C178.83 340.243 181.116 339.8 183.59 339.8ZM213.159 335.32C211.712 335.32 210.499 334.83 209.519 333.85C208.539 332.87 208.049 331.657 208.049 330.21C208.049 328.763 208.539 327.55 209.519 326.57C210.499 325.59 211.712 325.1 213.159 325.1C214.559 325.1 215.749 325.59 216.729 326.57C217.709 327.55 218.199 328.763 218.199 330.21C218.199 331.657 217.709 332.87 216.729 333.85C215.749 334.83 214.559 335.32 213.159 335.32ZM217.079 340.43V379H209.099V340.43H217.079ZM241.556 379.63C238.522 379.63 235.792 379.093 233.366 378.02C230.986 376.9 229.096 375.407 227.696 373.54C226.296 371.627 225.549 369.503 225.456 367.17H233.716C233.856 368.803 234.626 370.18 236.026 371.3C237.472 372.373 239.269 372.91 241.416 372.91C243.656 372.91 245.382 372.49 246.596 371.65C247.856 370.763 248.486 369.643 248.486 368.29C248.486 366.843 247.786 365.77 246.386 365.07C245.032 364.37 242.862 363.6 239.876 362.76C236.982 361.967 234.626 361.197 232.806 360.45C230.986 359.703 229.399 358.56 228.046 357.02C226.739 355.48 226.086 353.45 226.086 350.93C226.086 348.877 226.692 347.01 227.906 345.33C229.119 343.603 230.846 342.25 233.086 341.27C235.372 340.29 237.986 339.8 240.926 339.8C245.312 339.8 248.836 340.92 251.496 343.16C254.202 345.353 255.649 348.363 255.836 352.19H247.856C247.716 350.463 247.016 349.087 245.756 348.06C244.496 347.033 242.792 346.52 240.646 346.52C238.546 346.52 236.936 346.917 235.816 347.71C234.696 348.503 234.136 349.553 234.136 350.86C234.136 351.887 234.509 352.75 235.256 353.45C236.002 354.15 236.912 354.71 237.986 355.13C239.059 355.503 240.646 355.993 242.746 356.6C245.546 357.347 247.832 358.117 249.606 358.91C251.426 359.657 252.989 360.777 254.296 362.27C255.602 363.763 256.279 365.747 256.326 368.22C256.326 370.413 255.719 372.373 254.506 374.1C253.292 375.827 251.566 377.18 249.326 378.16C247.132 379.14 244.542 379.63 241.556 379.63ZM299.302 346.94H292.162V379H284.112V346.94H279.562V340.43H284.112V337.7C284.112 333.267 285.279 330.047 287.612 328.04C289.992 325.987 293.702 324.96 298.742 324.96V331.61C296.315 331.61 294.612 332.077 293.632 333.01C292.652 333.897 292.162 335.46 292.162 337.7V340.43H299.302V346.94ZM341.724 358.77C341.724 360.217 341.631 361.523 341.444 362.69H311.974C312.207 365.77 313.351 368.243 315.404 370.11C317.457 371.977 319.977 372.91 322.964 372.91C327.257 372.91 330.291 371.113 332.064 367.52H340.674C339.507 371.067 337.384 373.983 334.304 376.27C331.271 378.51 327.491 379.63 322.964 379.63C319.277 379.63 315.964 378.813 313.024 377.18C310.131 375.5 307.844 373.167 306.164 370.18C304.531 367.147 303.714 363.647 303.714 359.68C303.714 355.713 304.507 352.237 306.094 349.25C307.727 346.217 309.991 343.883 312.884 342.25C315.824 340.617 319.184 339.8 322.964 339.8C326.604 339.8 329.847 340.593 332.694 342.18C335.541 343.767 337.757 346.007 339.344 348.9C340.931 351.747 341.724 355.037 341.724 358.77ZM333.394 356.25C333.347 353.31 332.297 350.953 330.244 349.18C328.191 347.407 325.647 346.52 322.614 346.52C319.861 346.52 317.504 347.407 315.544 349.18C313.584 350.907 312.417 353.263 312.044 356.25H333.394ZM346.917 359.54C346.917 355.667 347.71 352.237 349.297 349.25C350.93 346.263 353.124 343.953 355.877 342.32C358.677 340.64 361.757 339.8 365.117 339.8C368.15 339.8 370.787 340.407 373.027 341.62C375.314 342.787 377.134 344.257 378.487 346.03V340.43H386.537V379H378.487V373.26C377.134 375.08 375.29 376.597 372.957 377.81C370.624 379.023 367.964 379.63 364.977 379.63C361.664 379.63 358.63 378.79 355.877 377.11C353.124 375.383 350.93 373.003 349.297 369.97C347.71 366.89 346.917 363.413 346.917 359.54ZM378.487 359.68C378.487 357.02 377.927 354.71 376.807 352.75C375.734 350.79 374.31 349.297 372.537 348.27C370.764 347.243 368.85 346.73 366.797 346.73C364.744 346.73 362.83 347.243 361.057 348.27C359.284 349.25 357.837 350.72 356.717 352.68C355.644 354.593 355.107 356.88 355.107 359.54C355.107 362.2 355.644 364.533 356.717 366.54C357.837 368.547 359.284 370.087 361.057 371.16C362.877 372.187 364.79 372.7 366.797 372.7C368.85 372.7 370.764 372.187 372.537 371.16C374.31 370.133 375.734 368.64 376.807 366.68C377.927 364.673 378.487 362.34 378.487 359.68ZM406.329 346.94V368.29C406.329 369.737 406.655 370.787 407.309 371.44C408.009 372.047 409.175 372.35 410.809 372.35H415.709V379H409.409C405.815 379 403.062 378.16 401.149 376.48C399.235 374.8 398.279 372.07 398.279 368.29V346.94H393.729V340.43H398.279V330.84H406.329V340.43H415.709V346.94H406.329ZM457.993 340.43V379H450.013V374.45C448.753 376.037 447.097 377.297 445.043 378.23C443.037 379.117 440.89 379.56 438.603 379.56C435.57 379.56 432.84 378.93 430.413 377.67C428.033 376.41 426.143 374.543 424.743 372.07C423.39 369.597 422.713 366.61 422.713 363.11V340.43H430.623V361.92C430.623 365.373 431.487 368.033 433.213 369.9C434.94 371.72 437.297 372.63 440.283 372.63C443.27 372.63 445.627 371.72 447.353 369.9C449.127 368.033 450.013 365.373 450.013 361.92V340.43H457.993ZM476.502 346.03C477.669 344.07 479.209 342.553 481.122 341.48C483.082 340.36 485.392 339.8 488.052 339.8V348.06H486.022C482.896 348.06 480.516 348.853 478.882 350.44C477.296 352.027 476.502 354.78 476.502 358.7V379H468.522V340.43H476.502V346.03ZM530.738 358.77C530.738 360.217 530.644 361.523 530.458 362.69H500.988C501.221 365.77 502.364 368.243 504.418 370.11C506.471 371.977 508.991 372.91 511.978 372.91C516.271 372.91 519.304 371.113 521.078 367.52H529.688C528.521 371.067 526.398 373.983 523.318 376.27C520.284 378.51 516.504 379.63 511.978 379.63C508.291 379.63 504.978 378.813 502.038 377.18C499.144 375.5 496.858 373.167 495.178 370.18C493.544 367.147 492.728 363.647 492.728 359.68C492.728 355.713 493.521 352.237 495.108 349.25C496.741 346.217 499.004 343.883 501.898 342.25C504.838 340.617 508.198 339.8 511.978 339.8C515.618 339.8 518.861 340.593 521.708 342.18C524.554 343.767 526.771 346.007 528.358 348.9C529.944 351.747 530.738 355.037 530.738 358.77ZM522.408 356.25C522.361 353.31 521.311 350.953 519.258 349.18C517.204 347.407 514.661 346.52 511.628 346.52C508.874 346.52 506.518 347.407 504.558 349.18C502.598 350.907 501.431 353.263 501.058 356.25H522.408ZM592.124 358.77C592.124 360.217 592.031 361.523 591.844 362.69H562.374C562.608 365.77 563.751 368.243 565.804 370.11C567.858 371.977 570.378 372.91 573.364 372.91C577.658 372.91 580.691 371.113 582.464 367.52H591.074C589.908 371.067 587.784 373.983 584.704 376.27C581.671 378.51 577.891 379.63 573.364 379.63C569.678 379.63 566.364 378.813 563.424 377.18C560.531 375.5 558.244 373.167 556.564 370.18C554.931 367.147 554.114 363.647 554.114 359.68C554.114 355.713 554.908 352.237 556.494 349.25C558.128 346.217 560.391 343.883 563.284 342.25C566.224 340.617 569.584 339.8 573.364 339.8C577.004 339.8 580.248 340.593 583.094 342.18C585.941 343.767 588.158 346.007 589.744 348.9C591.331 351.747 592.124 355.037 592.124 358.77ZM583.794 356.25C583.748 353.31 582.698 350.953 580.644 349.18C578.591 347.407 576.048 346.52 573.014 346.52C570.261 346.52 567.904 347.407 565.944 349.18C563.984 350.907 562.818 353.263 562.444 356.25H583.794ZM619.438 339.8C622.471 339.8 625.178 340.43 627.558 341.69C629.984 342.95 631.874 344.817 633.228 347.29C634.581 349.763 635.258 352.75 635.258 356.25V379H627.348V357.44C627.348 353.987 626.484 351.35 624.758 349.53C623.031 347.663 620.674 346.73 617.688 346.73C614.701 346.73 612.321 347.663 610.548 349.53C608.821 351.35 607.958 353.987 607.958 357.44V379H599.978V340.43H607.958V344.84C609.264 343.253 610.921 342.017 612.928 341.13C614.981 340.243 617.151 339.8 619.438 339.8ZM642.777 359.54C642.777 355.667 643.57 352.237 645.157 349.25C646.79 346.263 648.983 343.953 651.737 342.32C654.537 340.64 657.617 339.8 660.977 339.8C664.01 339.8 666.647 340.407 668.887 341.62C671.173 342.787 672.993 344.257 674.347 346.03V340.43H682.397V379H674.347V373.26C672.993 375.08 671.15 376.597 668.817 377.81C666.483 379.023 663.823 379.63 660.837 379.63C657.523 379.63 654.49 378.79 651.737 377.11C648.983 375.383 646.79 373.003 645.157 369.97C643.57 366.89 642.777 363.413 642.777 359.54ZM674.347 359.68C674.347 357.02 673.787 354.71 672.667 352.75C671.593 350.79 670.17 349.297 668.397 348.27C666.623 347.243 664.71 346.73 662.657 346.73C660.603 346.73 658.69 347.243 656.917 348.27C655.143 349.25 653.697 350.72 652.577 352.68C651.503 354.593 650.967 356.88 650.967 359.54C650.967 362.2 651.503 364.533 652.577 366.54C653.697 368.547 655.143 370.087 656.917 371.16C658.737 372.187 660.65 372.7 662.657 372.7C664.71 372.7 666.623 372.187 668.397 371.16C670.17 370.133 671.593 368.64 672.667 366.68C673.787 364.673 674.347 362.34 674.347 359.68ZM700.858 346.17C702.211 344.303 704.055 342.787 706.388 341.62C708.768 340.407 711.405 339.8 714.298 339.8C717.705 339.8 720.785 340.617 723.538 342.25C726.291 343.883 728.461 346.217 730.048 349.25C731.635 352.237 732.428 355.667 732.428 359.54C732.428 363.413 731.635 366.89 730.048 369.97C728.461 373.003 726.268 375.383 723.468 377.11C720.715 378.79 717.658 379.63 714.298 379.63C711.311 379.63 708.651 379.047 706.318 377.88C704.031 376.713 702.211 375.22 700.858 373.4V379H692.878V327.2H700.858V346.17ZM724.308 359.54C724.308 356.88 723.748 354.593 722.628 352.68C721.555 350.72 720.108 349.25 718.288 348.27C716.515 347.243 714.601 346.73 712.548 346.73C710.541 346.73 708.628 347.243 706.808 348.27C705.035 349.297 703.588 350.79 702.468 352.75C701.395 354.71 700.858 357.02 700.858 359.68C700.858 362.34 701.395 364.673 702.468 366.68C703.588 368.64 705.035 370.133 706.808 371.16C708.628 372.187 710.541 372.7 712.548 372.7C714.601 372.7 716.515 372.187 718.288 371.16C720.108 370.087 721.555 368.547 722.628 366.54C723.748 364.533 724.308 362.2 724.308 359.54ZM748.299 327.2V379H740.319V327.2H748.299ZM794.126 358.77C794.126 360.217 794.033 361.523 793.846 362.69H764.376C764.61 365.77 765.753 368.243 767.806 370.11C769.86 371.977 772.38 372.91 775.366 372.91C779.66 372.91 782.693 371.113 784.466 367.52H793.076C791.91 371.067 789.786 373.983 786.706 376.27C783.673 378.51 779.893 379.63 775.366 379.63C771.68 379.63 768.366 378.813 765.426 377.18C762.533 375.5 760.246 373.167 758.566 370.18C756.933 367.147 756.116 363.647 756.116 359.68C756.116 355.713 756.91 352.237 758.496 349.25C760.13 346.217 762.393 343.883 765.286 342.25C768.226 340.617 771.586 339.8 775.366 339.8C779.006 339.8 782.25 340.593 785.096 342.18C787.943 343.767 790.16 346.007 791.746 348.9C793.333 351.747 794.126 355.037 794.126 358.77ZM785.796 356.25C785.75 353.31 784.7 350.953 782.646 349.18C780.593 347.407 778.05 346.52 775.016 346.52C772.263 346.52 769.906 347.407 767.946 349.18C765.986 350.907 764.82 353.263 764.446 356.25H785.796ZM815.979 379.63C812.946 379.63 810.216 379.093 807.789 378.02C805.409 376.9 803.519 375.407 802.119 373.54C800.719 371.627 799.973 369.503 799.879 367.17H808.139C808.279 368.803 809.049 370.18 810.449 371.3C811.896 372.373 813.693 372.91 815.839 372.91C818.079 372.91 819.806 372.49 821.019 371.65C822.279 370.763 822.909 369.643 822.909 368.29C822.909 366.843 822.209 365.77 820.809 365.07C819.456 364.37 817.286 363.6 814.299 362.76C811.406 361.967 809.049 361.197 807.229 360.45C805.409 359.703 803.823 358.56 802.469 357.02C801.163 355.48 800.509 353.45 800.509 350.93C800.509 348.877 801.116 347.01 802.329 345.33C803.543 343.603 805.269 342.25 807.509 341.27C809.796 340.29 812.409 339.8 815.349 339.8C819.736 339.8 823.259 340.92 825.919 343.16C828.626 345.353 830.073 348.363 830.259 352.19H822.279C822.139 350.463 821.439 349.087 820.179 348.06C818.919 347.033 817.216 346.52 815.069 346.52C812.969 346.52 811.359 346.917 810.239 347.71C809.119 348.503 808.559 349.553 808.559 350.86C808.559 351.887 808.933 352.75 809.679 353.45C810.426 354.15 811.336 354.71 812.409 355.13C813.483 355.503 815.069 355.993 817.169 356.6C819.969 357.347 822.256 358.117 824.029 358.91C825.849 359.657 827.413 360.777 828.719 362.27C830.026 363.763 830.703 365.747 830.749 368.22C830.749 370.413 830.143 372.373 828.929 374.1C827.716 375.827 825.989 377.18 823.749 378.16C821.556 379.14 818.966 379.63 815.979 379.63ZM203.594 445.43V484H195.614V479.45C194.354 481.037 192.697 482.297 190.644 483.23C188.637 484.117 186.491 484.56 184.204 484.56C181.171 484.56 178.441 483.93 176.014 482.67C173.634 481.41 171.744 479.543 170.344 477.07C168.991 474.597 168.314 471.61 168.314 468.11V445.43H176.224V466.92C176.224 470.373 177.087 473.033 178.814 474.9C180.541 476.72 182.897 477.63 185.884 477.63C188.871 477.63 191.227 476.72 192.954 474.9C194.727 473.033 195.614 470.373 195.614 466.92V445.43H203.594ZM228.123 484.63C225.09 484.63 222.36 484.093 219.933 483.02C217.553 481.9 215.663 480.407 214.263 478.54C212.863 476.627 212.116 474.503 212.023 472.17H220.283C220.423 473.803 221.193 475.18 222.593 476.3C224.04 477.373 225.836 477.91 227.983 477.91C230.223 477.91 231.95 477.49 233.163 476.65C234.423 475.763 235.053 474.643 235.053 473.29C235.053 471.843 234.353 470.77 232.953 470.07C231.6 469.37 229.43 468.6 226.443 467.76C223.55 466.967 221.193 466.197 219.373 465.45C217.553 464.703 215.966 463.56 214.613 462.02C213.306 460.48 212.653 458.45 212.653 455.93C212.653 453.877 213.26 452.01 214.473 450.33C215.686 448.603 217.413 447.25 219.653 446.27C221.94 445.29 224.553 444.8 227.493 444.8C231.88 444.8 235.403 445.92 238.063 448.16C240.77 450.353 242.216 453.363 242.403 457.19H234.423C234.283 455.463 233.583 454.087 232.323 453.06C231.063 452.033 229.36 451.52 227.213 451.52C225.113 451.52 223.503 451.917 222.383 452.71C221.263 453.503 220.703 454.553 220.703 455.86C220.703 456.887 221.076 457.75 221.823 458.45C222.57 459.15 223.48 459.71 224.553 460.13C225.626 460.503 227.213 460.993 229.313 461.6C232.113 462.347 234.4 463.117 236.173 463.91C237.993 464.657 239.556 465.777 240.863 467.27C242.17 468.763 242.846 470.747 242.893 473.22C242.893 475.413 242.286 477.373 241.073 479.1C239.86 480.827 238.133 482.18 235.893 483.16C233.7 484.14 231.11 484.63 228.123 484.63ZM286.866 463.77C286.866 465.217 286.772 466.523 286.586 467.69H257.116C257.349 470.77 258.492 473.243 260.546 475.11C262.599 476.977 265.119 477.91 268.106 477.91C272.399 477.91 275.432 476.113 277.206 472.52H285.816C284.649 476.067 282.526 478.983 279.446 481.27C276.412 483.51 272.632 484.63 268.106 484.63C264.419 484.63 261.106 483.813 258.166 482.18C255.272 480.5 252.986 478.167 251.306 475.18C249.672 472.147 248.856 468.647 248.856 464.68C248.856 460.713 249.649 457.237 251.236 454.25C252.869 451.217 255.132 448.883 258.026 447.25C260.966 445.617 264.326 444.8 268.106 444.8C271.746 444.8 274.989 445.593 277.836 447.18C280.682 448.767 282.899 451.007 284.486 453.9C286.072 456.747 286.866 460.037 286.866 463.77ZM278.536 461.25C278.489 458.31 277.439 455.953 275.386 454.18C273.332 452.407 270.789 451.52 267.756 451.52C265.002 451.52 262.646 452.407 260.686 454.18C258.726 455.907 257.559 458.263 257.186 461.25H278.536ZM302.699 451.03C303.865 449.07 305.405 447.553 307.319 446.48C309.279 445.36 311.589 444.8 314.249 444.8V453.06H312.219C309.092 453.06 306.712 453.853 305.079 455.44C303.492 457.027 302.699 459.78 302.699 463.7V484H294.719V445.43H302.699V451.03ZM335.584 484.63C332.551 484.63 329.821 484.093 327.394 483.02C325.014 481.9 323.124 480.407 321.724 478.54C320.324 476.627 319.577 474.503 319.484 472.17H327.744C327.884 473.803 328.654 475.18 330.054 476.3C331.501 477.373 333.297 477.91 335.444 477.91C337.684 477.91 339.411 477.49 340.624 476.65C341.884 475.763 342.514 474.643 342.514 473.29C342.514 471.843 341.814 470.77 340.414 470.07C339.061 469.37 336.891 468.6 333.904 467.76C331.011 466.967 328.654 466.197 326.834 465.45C325.014 464.703 323.427 463.56 322.074 462.02C320.767 460.48 320.114 458.45 320.114 455.93C320.114 453.877 320.721 452.01 321.934 450.33C323.147 448.603 324.874 447.25 327.114 446.27C329.401 445.29 332.014 444.8 334.954 444.8C339.341 444.8 342.864 445.92 345.524 448.16C348.231 450.353 349.677 453.363 349.864 457.19H341.884C341.744 455.463 341.044 454.087 339.784 453.06C338.524 452.033 336.821 451.52 334.674 451.52C332.574 451.52 330.964 451.917 329.844 452.71C328.724 453.503 328.164 454.553 328.164 455.86C328.164 456.887 328.537 457.75 329.284 458.45C330.031 459.15 330.941 459.71 332.014 460.13C333.087 460.503 334.674 460.993 336.774 461.6C339.574 462.347 341.861 463.117 343.634 463.91C345.454 464.657 347.017 465.777 348.324 467.27C349.631 468.763 350.307 470.747 350.354 473.22C350.354 475.413 349.747 477.373 348.534 479.1C347.321 480.827 345.594 482.18 343.354 483.16C341.161 484.14 338.571 484.63 335.584 484.63ZM386.47 451.94V473.29C386.47 474.737 386.797 475.787 387.45 476.44C388.15 477.047 389.317 477.35 390.95 477.35H395.85V484H389.55C385.957 484 383.203 483.16 381.29 481.48C379.377 479.8 378.42 477.07 378.42 473.29V451.94H373.87V445.43H378.42V435.84H386.47V445.43H395.85V451.94H386.47ZM419.935 484.63C416.295 484.63 413.005 483.813 410.065 482.18C407.125 480.5 404.815 478.167 403.135 475.18C401.455 472.147 400.615 468.647 400.615 464.68C400.615 460.76 401.478 457.283 403.205 454.25C404.932 451.217 407.288 448.883 410.275 447.25C413.262 445.617 416.598 444.8 420.285 444.8C423.972 444.8 427.308 445.617 430.295 447.25C433.282 448.883 435.638 451.217 437.365 454.25C439.092 457.283 439.955 460.76 439.955 464.68C439.955 468.6 439.068 472.077 437.295 475.11C435.522 478.143 433.095 480.5 430.015 482.18C426.982 483.813 423.622 484.63 419.935 484.63ZM419.935 477.7C421.988 477.7 423.902 477.21 425.675 476.23C427.495 475.25 428.965 473.78 430.085 471.82C431.205 469.86 431.765 467.48 431.765 464.68C431.765 461.88 431.228 459.523 430.155 457.61C429.082 455.65 427.658 454.18 425.885 453.2C424.112 452.22 422.198 451.73 420.145 451.73C418.092 451.73 416.178 452.22 414.405 453.2C412.678 454.18 411.302 455.65 410.275 457.61C409.248 459.523 408.735 461.88 408.735 464.68C408.735 468.833 409.785 472.053 411.885 474.34C414.032 476.58 416.715 477.7 419.935 477.7ZM512.717 444.8C515.751 444.8 518.457 445.43 520.837 446.69C523.264 447.95 525.154 449.817 526.507 452.29C527.907 454.763 528.607 457.75 528.607 461.25V484H520.697V462.44C520.697 458.987 519.834 456.35 518.107 454.53C516.381 452.663 514.024 451.73 511.037 451.73C508.051 451.73 505.671 452.663 503.897 454.53C502.171 456.35 501.307 458.987 501.307 462.44V484H493.397V462.44C493.397 458.987 492.534 456.35 490.807 454.53C489.081 452.663 486.724 451.73 483.737 451.73C480.751 451.73 478.371 452.663 476.597 454.53C474.871 456.35 474.007 458.987 474.007 462.44V484H466.027V445.43H474.007V449.84C475.314 448.253 476.971 447.017 478.977 446.13C480.984 445.243 483.131 444.8 485.417 444.8C488.497 444.8 491.251 445.453 493.677 446.76C496.104 448.067 497.971 449.957 499.277 452.43C500.444 450.097 502.264 448.253 504.737 446.9C507.211 445.5 509.871 444.8 512.717 444.8ZM574.112 463.77C574.112 465.217 574.018 466.523 573.832 467.69H544.362C544.595 470.77 545.738 473.243 547.792 475.11C549.845 476.977 552.365 477.91 555.352 477.91C559.645 477.91 562.678 476.113 564.452 472.52H573.062C571.895 476.067 569.772 478.983 566.692 481.27C563.658 483.51 559.878 484.63 555.352 484.63C551.665 484.63 548.352 483.813 545.412 482.18C542.518 480.5 540.232 478.167 538.552 475.18C536.918 472.147 536.102 468.647 536.102 464.68C536.102 460.713 536.895 457.237 538.482 454.25C540.115 451.217 542.378 448.883 545.272 447.25C548.212 445.617 551.572 444.8 555.352 444.8C558.992 444.8 562.235 445.593 565.082 447.18C567.928 448.767 570.145 451.007 571.732 453.9C573.318 456.747 574.112 460.037 574.112 463.77ZM565.782 461.25C565.735 458.31 564.685 455.953 562.632 454.18C560.578 452.407 558.035 451.52 555.002 451.52C552.248 451.52 549.892 452.407 547.932 454.18C545.972 455.907 544.805 458.263 544.432 461.25H565.782ZM595.965 484.63C592.932 484.63 590.202 484.093 587.775 483.02C585.395 481.9 583.505 480.407 582.105 478.54C580.705 476.627 579.958 474.503 579.865 472.17H588.125C588.265 473.803 589.035 475.18 590.435 476.3C591.882 477.373 593.678 477.91 595.825 477.91C598.065 477.91 599.792 477.49 601.005 476.65C602.265 475.763 602.895 474.643 602.895 473.29C602.895 471.843 602.195 470.77 600.795 470.07C599.442 469.37 597.272 468.6 594.285 467.76C591.392 466.967 589.035 466.197 587.215 465.45C585.395 464.703 583.808 463.56 582.455 462.02C581.148 460.48 580.495 458.45 580.495 455.93C580.495 453.877 581.102 452.01 582.315 450.33C583.528 448.603 585.255 447.25 587.495 446.27C589.782 445.29 592.395 444.8 595.335 444.8C599.722 444.8 603.245 445.92 605.905 448.16C608.612 450.353 610.058 453.363 610.245 457.19H602.265C602.125 455.463 601.425 454.087 600.165 453.06C598.905 452.033 597.202 451.52 595.055 451.52C592.955 451.52 591.345 451.917 590.225 452.71C589.105 453.503 588.545 454.553 588.545 455.86C588.545 456.887 588.918 457.75 589.665 458.45C590.412 459.15 591.322 459.71 592.395 460.13C593.468 460.503 595.055 460.993 597.155 461.6C599.955 462.347 602.242 463.117 604.015 463.91C605.835 464.657 607.398 465.777 608.705 467.27C610.012 468.763 610.688 470.747 610.735 473.22C610.735 475.413 610.128 477.373 608.915 479.1C607.702 480.827 605.975 482.18 603.735 483.16C601.542 484.14 598.952 484.63 595.965 484.63ZM633.357 484.63C630.324 484.63 627.594 484.093 625.167 483.02C622.787 481.9 620.897 480.407 619.497 478.54C618.097 476.627 617.351 474.503 617.257 472.17H625.517C625.657 473.803 626.427 475.18 627.827 476.3C629.274 477.373 631.071 477.91 633.217 477.91C635.457 477.91 637.184 477.49 638.397 476.65C639.657 475.763 640.287 474.643 640.287 473.29C640.287 471.843 639.587 470.77 638.187 470.07C636.834 469.37 634.664 468.6 631.677 467.76C628.784 466.967 626.427 466.197 624.607 465.45C622.787 464.703 621.201 463.56 619.847 462.02C618.541 460.48 617.887 458.45 617.887 455.93C617.887 453.877 618.494 452.01 619.707 450.33C620.921 448.603 622.647 447.25 624.887 446.27C627.174 445.29 629.787 444.8 632.727 444.8C637.114 444.8 640.637 445.92 643.297 448.16C646.004 450.353 647.451 453.363 647.637 457.19H639.657C639.517 455.463 638.817 454.087 637.557 453.06C636.297 452.033 634.594 451.52 632.447 451.52C630.347 451.52 628.737 451.917 627.617 452.71C626.497 453.503 625.937 454.553 625.937 455.86C625.937 456.887 626.311 457.75 627.057 458.45C627.804 459.15 628.714 459.71 629.787 460.13C630.861 460.503 632.447 460.993 634.547 461.6C637.347 462.347 639.634 463.117 641.407 463.91C643.227 464.657 644.791 465.777 646.097 467.27C647.404 468.763 648.081 470.747 648.127 473.22C648.127 475.413 647.521 477.373 646.307 479.1C645.094 480.827 643.367 482.18 641.127 483.16C638.934 484.14 636.344 484.63 633.357 484.63ZM654.09 464.54C654.09 460.667 654.883 457.237 656.47 454.25C658.103 451.263 660.297 448.953 663.05 447.32C665.85 445.64 668.93 444.8 672.29 444.8C675.323 444.8 677.96 445.407 680.2 446.62C682.487 447.787 684.307 449.257 685.66 451.03V445.43H693.71V484H685.66V478.26C684.307 480.08 682.463 481.597 680.13 482.81C677.797 484.023 675.137 484.63 672.15 484.63C668.837 484.63 665.803 483.79 663.05 482.11C660.297 480.383 658.103 478.003 656.47 474.97C654.883 471.89 654.09 468.413 654.09 464.54ZM685.66 464.68C685.66 462.02 685.1 459.71 683.98 457.75C682.907 455.79 681.483 454.297 679.71 453.27C677.937 452.243 676.023 451.73 673.97 451.73C671.917 451.73 670.003 452.243 668.23 453.27C666.457 454.25 665.01 455.72 663.89 457.68C662.817 459.593 662.28 461.88 662.28 464.54C662.28 467.2 662.817 469.533 663.89 471.54C665.01 473.547 666.457 475.087 668.23 476.16C670.05 477.187 671.963 477.7 673.97 477.7C676.023 477.7 677.937 477.187 679.71 476.16C681.483 475.133 682.907 473.64 683.98 471.68C685.1 469.673 685.66 467.34 685.66 464.68ZM719.731 444.8C722.718 444.8 725.355 445.407 727.641 446.62C729.975 447.787 731.795 449.257 733.101 451.03V445.43H741.151V484.63C741.151 488.177 740.405 491.327 738.911 494.08C737.418 496.88 735.248 499.073 732.401 500.66C729.601 502.247 726.241 503.04 722.321 503.04C717.095 503.04 712.755 501.803 709.301 499.33C705.848 496.903 703.888 493.59 703.421 489.39H711.331C711.938 491.397 713.221 493.007 715.181 494.22C717.188 495.48 719.568 496.11 722.321 496.11C725.541 496.11 728.131 495.13 730.091 493.17C732.098 491.21 733.101 488.363 733.101 484.63V478.19C731.748 480.01 729.905 481.55 727.571 482.81C725.285 484.023 722.671 484.63 719.731 484.63C716.371 484.63 713.291 483.79 710.491 482.11C707.738 480.383 705.545 478.003 703.911 474.97C702.325 471.89 701.531 468.413 701.531 464.54C701.531 460.667 702.325 457.237 703.911 454.25C705.545 451.263 707.738 448.953 710.491 447.32C713.291 445.64 716.371 444.8 719.731 444.8ZM733.101 464.68C733.101 462.02 732.541 459.71 731.421 457.75C730.348 455.79 728.925 454.297 727.151 453.27C725.378 452.243 723.465 451.73 721.411 451.73C719.358 451.73 717.445 452.243 715.671 453.27C713.898 454.25 712.451 455.72 711.331 457.68C710.258 459.593 709.721 461.88 709.721 464.54C709.721 467.2 710.258 469.533 711.331 471.54C712.451 473.547 713.898 475.087 715.671 476.16C717.491 477.187 719.405 477.7 721.411 477.7C723.465 477.7 725.378 477.187 727.151 476.16C728.925 475.133 730.348 473.64 731.421 471.68C732.541 469.673 733.101 467.34 733.101 464.68ZM786.983 463.77C786.983 465.217 786.889 466.523 786.703 467.69H757.233C757.466 470.77 758.609 473.243 760.663 475.11C762.716 476.977 765.236 477.91 768.223 477.91C772.516 477.91 775.549 476.113 777.323 472.52H785.933C784.766 476.067 782.643 478.983 779.563 481.27C776.529 483.51 772.749 484.63 768.223 484.63C764.536 484.63 761.223 483.813 758.283 482.18C755.389 480.5 753.103 478.167 751.423 475.18C749.789 472.147 748.973 468.647 748.973 464.68C748.973 460.713 749.766 457.237 751.353 454.25C752.986 451.217 755.249 448.883 758.143 447.25C761.083 445.617 764.443 444.8 768.223 444.8C771.863 444.8 775.106 445.593 777.953 447.18C780.799 448.767 783.016 451.007 784.603 453.9C786.189 456.747 786.983 460.037 786.983 463.77ZM778.653 461.25C778.606 458.31 777.556 455.953 775.503 454.18C773.449 452.407 770.906 451.52 767.873 451.52C765.119 451.52 762.763 452.407 760.803 454.18C758.843 455.907 757.676 458.263 757.303 461.25H778.653ZM205.279 568.77C205.279 570.217 205.185 571.523 204.999 572.69H175.529C175.762 575.77 176.905 578.243 178.959 580.11C181.012 581.977 183.532 582.91 186.519 582.91C190.812 582.91 193.845 581.113 195.619 577.52H204.229C203.062 581.067 200.939 583.983 197.859 586.27C194.825 588.51 191.045 589.63 186.519 589.63C182.832 589.63 179.519 588.813 176.579 587.18C173.685 585.5 171.399 583.167 169.719 580.18C168.085 577.147 167.269 573.647 167.269 569.68C167.269 565.713 168.062 562.237 169.649 559.25C171.282 556.217 173.545 553.883 176.439 552.25C179.379 550.617 182.739 549.8 186.519 549.8C190.159 549.8 193.402 550.593 196.249 552.18C199.095 553.767 201.312 556.007 202.899 558.9C204.485 561.747 205.279 565.037 205.279 568.77ZM196.949 566.25C196.902 563.31 195.852 560.953 193.799 559.18C191.745 557.407 189.202 556.52 186.169 556.52C183.415 556.52 181.059 557.407 179.099 559.18C177.139 560.907 175.972 563.263 175.599 566.25H196.949ZM210.472 569.54C210.472 565.667 211.265 562.237 212.852 559.25C214.485 556.263 216.679 553.953 219.432 552.32C222.232 550.64 225.312 549.8 228.672 549.8C231.705 549.8 234.342 550.407 236.582 551.62C238.869 552.787 240.689 554.257 242.042 556.03V550.43H250.092V589H242.042V583.26C240.689 585.08 238.845 586.597 236.512 587.81C234.179 589.023 231.519 589.63 228.532 589.63C225.219 589.63 222.185 588.79 219.432 587.11C216.679 585.383 214.485 583.003 212.852 579.97C211.265 576.89 210.472 573.413 210.472 569.54ZM242.042 569.68C242.042 567.02 241.482 564.71 240.362 562.75C239.289 560.79 237.865 559.297 236.092 558.27C234.319 557.243 232.405 556.73 230.352 556.73C228.299 556.73 226.385 557.243 224.612 558.27C222.839 559.25 221.392 560.72 220.272 562.68C219.199 564.593 218.662 566.88 218.662 569.54C218.662 572.2 219.199 574.533 220.272 576.54C221.392 578.547 222.839 580.087 224.612 581.16C226.432 582.187 228.345 582.7 230.352 582.7C232.405 582.7 234.319 582.187 236.092 581.16C237.865 580.133 239.289 578.64 240.362 576.68C241.482 574.673 242.042 572.34 242.042 569.68ZM257.913 569.68C257.913 565.713 258.707 562.237 260.293 559.25C261.927 556.217 264.167 553.883 267.013 552.25C269.86 550.617 273.127 549.8 276.813 549.8C281.48 549.8 285.33 550.92 288.363 553.16C291.443 555.353 293.52 558.503 294.593 562.61H285.983C285.283 560.697 284.163 559.203 282.623 558.13C281.083 557.057 279.147 556.52 276.813 556.52C273.547 556.52 270.933 557.687 268.973 560.02C267.06 562.307 266.103 565.527 266.103 569.68C266.103 573.833 267.06 577.077 268.973 579.41C270.933 581.743 273.547 582.91 276.813 582.91C281.433 582.91 284.49 580.88 285.983 576.82H294.593C293.473 580.74 291.373 583.867 288.293 586.2C285.213 588.487 281.387 589.63 276.813 589.63C273.127 589.63 269.86 588.813 267.013 587.18C264.167 585.5 261.927 583.167 260.293 580.18C258.707 577.147 257.913 573.647 257.913 569.68ZM322.496 549.8C325.436 549.8 328.049 550.43 330.336 551.69C332.669 552.95 334.489 554.817 335.796 557.29C337.149 559.763 337.826 562.75 337.826 566.25V589H329.916V567.44C329.916 563.987 329.053 561.35 327.326 559.53C325.599 557.663 323.243 556.73 320.256 556.73C317.269 556.73 314.889 557.663 313.116 559.53C311.389 561.35 310.526 563.987 310.526 567.44V589H302.546V537.2H310.526V554.91C311.879 553.277 313.583 552.017 315.636 551.13C317.736 550.243 320.023 549.8 322.496 549.8ZM364.735 589.63C361.095 589.63 357.805 588.813 354.865 587.18C351.925 585.5 349.615 583.167 347.935 580.18C346.255 577.147 345.415 573.647 345.415 569.68C345.415 565.76 346.278 562.283 348.005 559.25C349.732 556.217 352.088 553.883 355.075 552.25C358.062 550.617 361.398 549.8 365.085 549.8C368.772 549.8 372.108 550.617 375.095 552.25C378.082 553.883 380.438 556.217 382.165 559.25C383.892 562.283 384.755 565.76 384.755 569.68C384.755 573.6 383.868 577.077 382.095 580.11C380.322 583.143 377.895 585.5 374.815 587.18C371.782 588.813 368.422 589.63 364.735 589.63ZM364.735 582.7C366.788 582.7 368.702 582.21 370.475 581.23C372.295 580.25 373.765 578.78 374.885 576.82C376.005 574.86 376.565 572.48 376.565 569.68C376.565 566.88 376.028 564.523 374.955 562.61C373.882 560.65 372.458 559.18 370.685 558.2C368.912 557.22 366.998 556.73 364.945 556.73C362.892 556.73 360.978 557.22 359.205 558.2C357.478 559.18 356.102 560.65 355.075 562.61C354.048 564.523 353.535 566.88 353.535 569.68C353.535 573.833 354.585 577.053 356.685 579.34C358.832 581.58 361.515 582.7 364.735 582.7ZM401.954 556.94V578.29C401.954 579.737 402.28 580.787 402.934 581.44C403.634 582.047 404.8 582.35 406.434 582.35H411.334V589H405.034C401.44 589 398.687 588.16 396.774 586.48C394.86 584.8 393.904 582.07 393.904 578.29V556.94H389.354V550.43H393.904V540.84H401.954V550.43H411.334V556.94H401.954ZM438.638 549.8C441.578 549.8 444.192 550.43 446.478 551.69C448.812 552.95 450.632 554.817 451.938 557.29C453.292 559.763 453.968 562.75 453.968 566.25V589H446.058V567.44C446.058 563.987 445.195 561.35 443.468 559.53C441.742 557.663 439.385 556.73 436.398 556.73C433.412 556.73 431.032 557.663 429.258 559.53C427.532 561.35 426.668 563.987 426.668 567.44V589H418.688V537.2H426.668V554.91C428.022 553.277 429.725 552.017 431.778 551.13C433.878 550.243 436.165 549.8 438.638 549.8ZM499.497 568.77C499.497 570.217 499.404 571.523 499.217 572.69H469.747C469.981 575.77 471.124 578.243 473.177 580.11C475.231 581.977 477.751 582.91 480.737 582.91C485.031 582.91 488.064 581.113 489.837 577.52H498.447C497.281 581.067 495.157 583.983 492.077 586.27C489.044 588.51 485.264 589.63 480.737 589.63C477.051 589.63 473.737 588.813 470.797 587.18C467.904 585.5 465.617 583.167 463.937 580.18C462.304 577.147 461.487 573.647 461.487 569.68C461.487 565.713 462.281 562.237 463.867 559.25C465.501 556.217 467.764 553.883 470.657 552.25C473.597 550.617 476.957 549.8 480.737 549.8C484.377 549.8 487.621 550.593 490.467 552.18C493.314 553.767 495.531 556.007 497.117 558.9C498.704 561.747 499.497 565.037 499.497 568.77ZM491.167 566.25C491.121 563.31 490.071 560.953 488.017 559.18C485.964 557.407 483.421 556.52 480.387 556.52C477.634 556.52 475.277 557.407 473.317 559.18C471.357 560.907 470.191 563.263 469.817 566.25H491.167ZM515.331 556.03C516.497 554.07 518.037 552.553 519.951 551.48C521.911 550.36 524.221 549.8 526.881 549.8V558.06H524.851C521.724 558.06 519.344 558.853 517.711 560.44C516.124 562.027 515.331 564.78 515.331 568.7V589H507.351V550.43H515.331V556.03ZM587.313 589.63C583.673 589.63 580.383 588.813 577.443 587.18C574.503 585.5 572.193 583.167 570.513 580.18C568.833 577.147 567.993 573.647 567.993 569.68C567.993 565.76 568.856 562.283 570.583 559.25C572.31 556.217 574.666 553.883 577.653 552.25C580.64 550.617 583.976 549.8 587.663 549.8C591.35 549.8 594.686 550.617 597.673 552.25C600.66 553.883 603.016 556.217 604.743 559.25C606.47 562.283 607.333 565.76 607.333 569.68C607.333 573.6 606.446 577.077 604.673 580.11C602.9 583.143 600.473 585.5 597.393 587.18C594.36 588.813 591 589.63 587.313 589.63ZM587.313 582.7C589.366 582.7 591.28 582.21 593.053 581.23C594.873 580.25 596.343 578.78 597.463 576.82C598.583 574.86 599.143 572.48 599.143 569.68C599.143 566.88 598.606 564.523 597.533 562.61C596.46 560.65 595.036 559.18 593.263 558.2C591.49 557.22 589.576 556.73 587.523 556.73C585.47 556.73 583.556 557.22 581.783 558.2C580.056 559.18 578.68 560.65 577.653 562.61C576.626 564.523 576.113 566.88 576.113 569.68C576.113 573.833 577.163 577.053 579.263 579.34C581.41 581.58 584.093 582.7 587.313 582.7ZM634.682 549.8C637.715 549.8 640.422 550.43 642.802 551.69C645.228 552.95 647.118 554.817 648.472 557.29C649.825 559.763 650.502 562.75 650.502 566.25V589H642.592V567.44C642.592 563.987 641.728 561.35 640.002 559.53C638.275 557.663 635.918 556.73 632.932 556.73C629.945 556.73 627.565 557.663 625.792 559.53C624.065 561.35 623.202 563.987 623.202 567.44V589H615.222V550.43H623.202V554.84C624.508 553.253 626.165 552.017 628.172 551.13C630.225 550.243 632.395 549.8 634.682 549.8ZM688.174 556.94V578.29C688.174 579.737 688.501 580.787 689.154 581.44C689.854 582.047 691.021 582.35 692.654 582.35H697.554V589H691.254C687.661 589 684.908 588.16 682.994 586.48C681.081 584.8 680.124 582.07 680.124 578.29V556.94H675.574V550.43H680.124V540.84H688.174V550.43H697.554V556.94H688.174ZM724.859 549.8C727.799 549.8 730.413 550.43 732.699 551.69C735.033 552.95 736.853 554.817 738.159 557.29C739.513 559.763 740.189 562.75 740.189 566.25V589H732.279V567.44C732.279 563.987 731.416 561.35 729.689 559.53C727.963 557.663 725.606 556.73 722.619 556.73C719.633 556.73 717.253 557.663 715.479 559.53C713.753 561.35 712.889 563.987 712.889 567.44V589H704.909V537.2H712.889V554.91C714.243 553.277 715.946 552.017 717.999 551.13C720.099 550.243 722.386 549.8 724.859 549.8ZM785.718 568.77C785.718 570.217 785.625 571.523 785.438 572.69H755.968C756.201 575.77 757.345 578.243 759.398 580.11C761.451 581.977 763.971 582.91 766.958 582.91C771.251 582.91 774.285 581.113 776.058 577.52H784.668C783.501 581.067 781.378 583.983 778.298 586.27C775.265 588.51 771.485 589.63 766.958 589.63C763.271 589.63 759.958 588.813 757.018 587.18C754.125 585.5 751.838 583.167 750.158 580.18C748.525 577.147 747.708 573.647 747.708 569.68C747.708 565.713 748.501 562.237 750.088 559.25C751.721 556.217 753.985 553.883 756.878 552.25C759.818 550.617 763.178 549.8 766.958 549.8C770.598 549.8 773.841 550.593 776.688 552.18C779.535 553.767 781.751 556.007 783.338 558.9C784.925 561.747 785.718 565.037 785.718 568.77ZM777.388 566.25C777.341 563.31 776.291 560.953 774.238 559.18C772.185 557.407 769.641 556.52 766.608 556.52C763.855 556.52 761.498 557.407 759.538 559.18C757.578 560.907 756.411 563.263 756.038 566.25H777.388ZM195.256 654.8C198.29 654.8 200.996 655.43 203.376 656.69C205.803 657.95 207.693 659.817 209.046 662.29C210.446 664.763 211.146 667.75 211.146 671.25V694H203.236V672.44C203.236 668.987 202.373 666.35 200.646 664.53C198.92 662.663 196.563 661.73 193.576 661.73C190.59 661.73 188.21 662.663 186.436 664.53C184.71 666.35 183.846 668.987 183.846 672.44V694H175.936V672.44C175.936 668.987 175.073 666.35 173.346 664.53C171.62 662.663 169.263 661.73 166.276 661.73C163.29 661.73 160.91 662.663 159.136 664.53C157.41 666.35 156.546 668.987 156.546 672.44V694H148.566V655.43H156.546V659.84C157.853 658.253 159.51 657.017 161.516 656.13C163.523 655.243 165.67 654.8 167.956 654.8C171.036 654.8 173.79 655.453 176.216 656.76C178.643 658.067 180.51 659.957 181.816 662.43C182.983 660.097 184.803 658.253 187.276 656.9C189.75 655.5 192.41 654.8 195.256 654.8ZM238.031 694.63C234.391 694.63 231.101 693.813 228.161 692.18C225.221 690.5 222.911 688.167 221.231 685.18C219.551 682.147 218.711 678.647 218.711 674.68C218.711 670.76 219.574 667.283 221.301 664.25C223.027 661.217 225.384 658.883 228.371 657.25C231.357 655.617 234.694 654.8 238.381 654.8C242.067 654.8 245.404 655.617 248.391 657.25C251.377 658.883 253.734 661.217 255.461 664.25C257.187 667.283 258.051 670.76 258.051 674.68C258.051 678.6 257.164 682.077 255.391 685.11C253.617 688.143 251.191 690.5 248.111 692.18C245.077 693.813 241.717 694.63 238.031 694.63ZM238.031 687.7C240.084 687.7 241.997 687.21 243.771 686.23C245.591 685.25 247.061 683.78 248.181 681.82C249.301 679.86 249.861 677.48 249.861 674.68C249.861 671.88 249.324 669.523 248.251 667.61C247.177 665.65 245.754 664.18 243.981 663.2C242.207 662.22 240.294 661.73 238.241 661.73C236.187 661.73 234.274 662.22 232.501 663.2C230.774 664.18 229.397 665.65 228.371 667.61C227.344 669.523 226.831 671.88 226.831 674.68C226.831 678.833 227.881 682.053 229.981 684.34C232.127 686.58 234.811 687.7 238.031 687.7ZM273.919 661.17C275.273 659.303 277.116 657.787 279.449 656.62C281.829 655.407 284.466 654.8 287.359 654.8C290.766 654.8 293.846 655.617 296.599 657.25C299.353 658.883 301.523 661.217 303.109 664.25C304.696 667.237 305.489 670.667 305.489 674.54C305.489 678.413 304.696 681.89 303.109 684.97C301.523 688.003 299.329 690.383 296.529 692.11C293.776 693.79 290.719 694.63 287.359 694.63C284.373 694.63 281.713 694.047 279.379 692.88C277.093 691.713 275.273 690.22 273.919 688.4V694H265.939V642.2H273.919V661.17ZM297.369 674.54C297.369 671.88 296.809 669.593 295.689 667.68C294.616 665.72 293.169 664.25 291.349 663.27C289.576 662.243 287.663 661.73 285.609 661.73C283.603 661.73 281.689 662.243 279.869 663.27C278.096 664.297 276.649 665.79 275.529 667.75C274.456 669.71 273.919 672.02 273.919 674.68C273.919 677.34 274.456 679.673 275.529 681.68C276.649 683.64 278.096 685.133 279.869 686.16C281.689 687.187 283.603 687.7 285.609 687.7C287.663 687.7 289.576 687.187 291.349 686.16C293.169 685.087 294.616 683.547 295.689 681.54C296.809 679.533 297.369 677.2 297.369 674.54ZM317.441 650.32C315.994 650.32 314.781 649.83 313.801 648.85C312.821 647.87 312.331 646.657 312.331 645.21C312.331 643.763 312.821 642.55 313.801 641.57C314.781 640.59 315.994 640.1 317.441 640.1C318.841 640.1 320.031 640.59 321.011 641.57C321.991 642.55 322.481 643.763 322.481 645.21C322.481 646.657 321.991 647.87 321.011 648.85C320.031 649.83 318.841 650.32 317.441 650.32ZM321.361 655.43V694H313.381V655.43H321.361ZM339.818 642.2V694H331.838V642.2H339.818ZM385.645 673.77C385.645 675.217 385.552 676.523 385.365 677.69H355.895C356.128 680.77 357.272 683.243 359.325 685.11C361.378 686.977 363.898 687.91 366.885 687.91C371.178 687.91 374.212 686.113 375.985 682.52H384.595C383.428 686.067 381.305 688.983 378.225 691.27C375.192 693.51 371.412 694.63 366.885 694.63C363.198 694.63 359.885 693.813 356.945 692.18C354.052 690.5 351.765 688.167 350.085 685.18C348.452 682.147 347.635 678.647 347.635 674.68C347.635 670.713 348.428 667.237 350.015 664.25C351.648 661.217 353.912 658.883 356.805 657.25C359.745 655.617 363.105 654.8 366.885 654.8C370.525 654.8 373.768 655.593 376.615 657.18C379.462 658.767 381.678 661.007 383.265 663.9C384.852 666.747 385.645 670.037 385.645 673.77ZM377.315 671.25C377.268 668.31 376.218 665.953 374.165 664.18C372.112 662.407 369.568 661.52 366.535 661.52C363.782 661.52 361.425 662.407 359.465 664.18C357.505 665.907 356.338 668.263 355.965 671.25H377.315ZM409.022 674.54C409.022 670.667 409.815 667.237 411.402 664.25C413.035 661.263 415.228 658.953 417.982 657.32C420.782 655.64 423.862 654.8 427.222 654.8C430.255 654.8 432.892 655.407 435.132 656.62C437.418 657.787 439.238 659.257 440.592 661.03V655.43H448.642V694H440.592V688.26C439.238 690.08 437.395 691.597 435.062 692.81C432.728 694.023 430.068 694.63 427.082 694.63C423.768 694.63 420.735 693.79 417.982 692.11C415.228 690.383 413.035 688.003 411.402 684.97C409.815 681.89 409.022 678.413 409.022 674.54ZM440.592 674.68C440.592 672.02 440.032 669.71 438.912 667.75C437.838 665.79 436.415 664.297 434.642 663.27C432.868 662.243 430.955 661.73 428.902 661.73C426.848 661.73 424.935 662.243 423.162 663.27C421.388 664.25 419.942 665.72 418.822 667.68C417.748 669.593 417.212 671.88 417.212 674.54C417.212 677.2 417.748 679.533 418.822 681.54C419.942 683.547 421.388 685.087 423.162 686.16C424.982 687.187 426.895 687.7 428.902 687.7C430.955 687.7 432.868 687.187 434.642 686.16C436.415 685.133 437.838 683.64 438.912 681.68C440.032 679.673 440.592 677.34 440.592 674.68ZM467.103 661.1C468.456 659.327 470.3 657.833 472.633 656.62C474.966 655.407 477.603 654.8 480.543 654.8C483.903 654.8 486.96 655.64 489.713 657.32C492.513 658.953 494.706 661.263 496.293 664.25C497.88 667.237 498.673 670.667 498.673 674.54C498.673 678.413 497.88 681.89 496.293 684.97C494.706 688.003 492.513 690.383 489.713 692.11C486.96 693.79 483.903 694.63 480.543 694.63C477.603 694.63 474.99 694.047 472.703 692.88C470.416 691.667 468.55 690.173 467.103 688.4V712.34H459.123V655.43H467.103V661.1ZM490.553 674.54C490.553 671.88 489.993 669.593 488.873 667.68C487.8 665.72 486.353 664.25 484.533 663.27C482.76 662.243 480.846 661.73 478.793 661.73C476.786 661.73 474.873 662.243 473.053 663.27C471.28 664.297 469.833 665.79 468.713 667.75C467.64 669.71 467.103 672.02 467.103 674.68C467.103 677.34 467.64 679.673 468.713 681.68C469.833 683.64 471.28 685.133 473.053 686.16C474.873 687.187 476.786 687.7 478.793 687.7C480.846 687.7 482.76 687.187 484.533 686.16C486.353 685.087 487.8 683.547 488.873 681.54C489.993 679.533 490.553 677.2 490.553 674.54ZM514.544 661.1C515.898 659.327 517.741 657.833 520.074 656.62C522.408 655.407 525.044 654.8 527.984 654.8C531.344 654.8 534.401 655.64 537.154 657.32C539.954 658.953 542.148 661.263 543.734 664.25C545.321 667.237 546.114 670.667 546.114 674.54C546.114 678.413 545.321 681.89 543.734 684.97C542.148 688.003 539.954 690.383 537.154 692.11C534.401 693.79 531.344 694.63 527.984 694.63C525.044 694.63 522.431 694.047 520.144 692.88C517.858 691.667 515.991 690.173 514.544 688.4V712.34H506.564V655.43H514.544V661.1ZM537.994 674.54C537.994 671.88 537.434 669.593 536.314 667.68C535.241 665.72 533.794 664.25 531.974 663.27C530.201 662.243 528.288 661.73 526.234 661.73C524.228 661.73 522.314 662.243 520.494 663.27C518.721 664.297 517.274 665.79 516.154 667.75C515.081 669.71 514.544 672.02 514.544 674.68C514.544 677.34 515.081 679.673 516.154 681.68C517.274 683.64 518.721 685.133 520.494 686.16C522.314 687.187 524.228 687.7 526.234 687.7C528.288 687.7 530.201 687.187 531.974 686.16C533.794 685.087 535.241 683.547 536.314 681.54C537.434 679.533 537.994 677.2 537.994 674.54ZM561.986 642.2V694H554.006V642.2H561.986ZM576.523 650.32C575.076 650.32 573.863 649.83 572.883 648.85C571.903 647.87 571.413 646.657 571.413 645.21C571.413 643.763 571.903 642.55 572.883 641.57C573.863 640.59 575.076 640.1 576.523 640.1C577.923 640.1 579.113 640.59 580.093 641.57C581.073 642.55 581.563 643.763 581.563 645.21C581.563 646.657 581.073 647.87 580.093 648.85C579.113 649.83 577.923 650.32 576.523 650.32ZM580.443 655.43V694H572.463V655.43H580.443ZM588.26 674.68C588.26 670.713 589.053 667.237 590.64 664.25C592.273 661.217 594.513 658.883 597.36 657.25C600.207 655.617 603.473 654.8 607.16 654.8C611.827 654.8 615.677 655.92 618.71 658.16C621.79 660.353 623.867 663.503 624.94 667.61H616.33C615.63 665.697 614.51 664.203 612.97 663.13C611.43 662.057 609.493 661.52 607.16 661.52C603.893 661.52 601.28 662.687 599.32 665.02C597.407 667.307 596.45 670.527 596.45 674.68C596.45 678.833 597.407 682.077 599.32 684.41C601.28 686.743 603.893 687.91 607.16 687.91C611.78 687.91 614.837 685.88 616.33 681.82H624.94C623.82 685.74 621.72 688.867 618.64 691.2C615.56 693.487 611.733 694.63 607.16 694.63C603.473 694.63 600.207 693.813 597.36 692.18C594.513 690.5 592.273 688.167 590.64 685.18C589.053 682.147 588.26 678.647 588.26 674.68ZM630.233 674.54C630.233 670.667 631.026 667.237 632.613 664.25C634.246 661.263 636.439 658.953 639.193 657.32C641.993 655.64 645.073 654.8 648.433 654.8C651.466 654.8 654.103 655.407 656.343 656.62C658.629 657.787 660.449 659.257 661.803 661.03V655.43H669.853V694H661.803V688.26C660.449 690.08 658.606 691.597 656.273 692.81C653.939 694.023 651.279 694.63 648.293 694.63C644.979 694.63 641.946 693.79 639.193 692.11C636.439 690.383 634.246 688.003 632.613 684.97C631.026 681.89 630.233 678.413 630.233 674.54ZM661.803 674.68C661.803 672.02 661.243 669.71 660.123 667.75C659.049 665.79 657.626 664.297 655.853 663.27C654.079 662.243 652.166 661.73 650.113 661.73C648.059 661.73 646.146 662.243 644.373 663.27C642.599 664.25 641.153 665.72 640.033 667.68C638.959 669.593 638.423 671.88 638.423 674.54C638.423 677.2 638.959 679.533 640.033 681.54C641.153 683.547 642.599 685.087 644.373 686.16C646.193 687.187 648.106 687.7 650.113 687.7C652.166 687.7 654.079 687.187 655.853 686.16C657.626 685.133 659.049 683.64 660.123 681.68C661.243 679.673 661.803 677.34 661.803 674.68ZM689.644 661.94V683.29C689.644 684.737 689.971 685.787 690.624 686.44C691.324 687.047 692.491 687.35 694.124 687.35H699.024V694H692.724C689.131 694 686.377 693.16 684.464 691.48C682.551 689.8 681.594 687.07 681.594 683.29V661.94H677.044V655.43H681.594V645.84H689.644V655.43H699.024V661.94H689.644ZM710.439 650.32C708.992 650.32 707.779 649.83 706.799 648.85C705.819 647.87 705.329 646.657 705.329 645.21C705.329 643.763 705.819 642.55 706.799 641.57C707.779 640.59 708.992 640.1 710.439 640.1C711.839 640.1 713.029 640.59 714.009 641.57C714.989 642.55 715.479 643.763 715.479 645.21C715.479 646.657 714.989 647.87 714.009 648.85C713.029 649.83 711.839 650.32 710.439 650.32ZM714.359 655.43V694H706.379V655.43H714.359ZM741.566 694.63C737.926 694.63 734.636 693.813 731.696 692.18C728.756 690.5 726.446 688.167 724.766 685.18C723.086 682.147 722.246 678.647 722.246 674.68C722.246 670.76 723.109 667.283 724.836 664.25C726.563 661.217 728.919 658.883 731.906 657.25C734.893 655.617 738.229 654.8 741.916 654.8C745.603 654.8 748.939 655.617 751.926 657.25C754.913 658.883 757.269 661.217 758.996 664.25C760.723 667.283 761.586 670.76 761.586 674.68C761.586 678.6 760.699 682.077 758.926 685.11C757.153 688.143 754.726 690.5 751.646 692.18C748.613 693.813 745.253 694.63 741.566 694.63ZM741.566 687.7C743.619 687.7 745.533 687.21 747.306 686.23C749.126 685.25 750.596 683.78 751.716 681.82C752.836 679.86 753.396 677.48 753.396 674.68C753.396 671.88 752.859 669.523 751.786 667.61C750.713 665.65 749.289 664.18 747.516 663.2C745.743 662.22 743.829 661.73 741.776 661.73C739.723 661.73 737.809 662.22 736.036 663.2C734.309 664.18 732.933 665.65 731.906 667.61C730.879 669.523 730.366 671.88 730.366 674.68C730.366 678.833 731.416 682.053 733.516 684.34C735.663 686.58 738.346 687.7 741.566 687.7ZM788.935 654.8C791.968 654.8 794.675 655.43 797.055 656.69C799.481 657.95 801.371 659.817 802.725 662.29C804.078 664.763 804.755 667.75 804.755 671.25V694H796.845V672.44C796.845 668.987 795.981 666.35 794.255 664.53C792.528 662.663 790.171 661.73 787.185 661.73C784.198 661.73 781.818 662.663 780.045 664.53C778.318 666.35 777.455 668.987 777.455 672.44V694H769.475V655.43H777.455V659.84C778.761 658.253 780.418 657.017 782.425 656.13C784.478 655.243 786.648 654.8 788.935 654.8Z" fill="white"/>
<path d="M468.219 162.5C468.219 165.297 469.355 167.98 471.377 169.958C473.398 171.936 476.141 173.047 479 173.047C481.859 173.047 484.602 171.936 486.624 169.958C488.645 167.98 489.781 165.297 489.781 162.5C489.781 159.703 488.645 157.02 486.624 155.042C484.602 153.064 481.859 151.953 479 151.953C476.141 151.953 473.398 153.064 471.377 155.042C469.355 157.02 468.219 159.703 468.219 162.5V162.5ZM513.141 162.5C513.141 165.297 514.277 167.98 516.298 169.958C518.32 171.936 521.063 173.047 523.922 173.047C526.781 173.047 529.524 171.936 531.545 169.958C533.567 167.98 534.703 165.297 534.703 162.5C534.703 159.703 533.567 157.02 531.545 155.042C529.524 153.064 526.781 151.953 523.922 151.953C521.063 151.953 518.32 153.064 516.298 155.042C514.277 157.02 513.141 159.703 513.141 162.5ZM423.297 162.5C423.297 165.297 424.433 167.98 426.455 169.958C428.477 171.936 431.219 173.047 434.078 173.047C436.938 173.047 439.68 171.936 441.702 169.958C443.724 167.98 444.859 165.297 444.859 162.5C444.859 159.703 443.724 157.02 441.702 155.042C439.68 153.064 436.938 151.953 434.078 151.953C431.219 151.953 428.477 153.064 426.455 155.042C424.433 157.02 423.297 159.703 423.297 162.5V162.5ZM571.809 124.355C566.732 112.556 559.455 101.965 550.179 92.8687C540.967 83.8246 530.032 76.6357 517.992 71.709C505.639 66.6333 492.522 64.0625 479 64.0625H478.551C464.94 64.1284 451.755 66.7651 439.357 71.9507C427.42 76.928 416.587 84.1296 407.462 93.1543C398.275 102.229 391.065 112.776 386.079 124.531C380.913 136.704 378.308 149.646 378.375 162.961C378.451 178.221 382.142 193.255 389.156 206.885V240.283C389.156 242.964 390.245 245.535 392.182 247.43C394.12 249.326 396.748 250.391 399.488 250.391H433.651C447.584 257.253 462.952 260.863 478.551 260.938H479.023C492.477 260.938 505.526 258.389 517.813 253.401C529.792 248.533 540.686 241.428 549.887 232.483C559.163 223.496 566.463 212.993 571.562 201.282C576.862 189.153 579.558 176.255 579.625 162.939C579.692 149.558 577.042 136.572 571.809 124.355V124.355ZM537.87 220.596C522.125 235.845 501.236 244.238 479 244.238H478.618C465.074 244.172 451.62 240.876 439.738 234.68L437.852 233.691H406.227V202.754L405.216 200.908C398.882 189.285 395.513 176.123 395.445 162.874C395.356 140.967 403.913 120.4 419.613 104.91C435.291 89.4189 456.247 80.8496 478.641 80.7617H479.023C490.253 80.7617 501.147 82.8931 511.411 87.1118C521.429 91.2207 530.413 97.1313 538.14 104.69C545.844 112.227 551.908 121.038 556.108 130.837C560.466 140.989 562.645 151.755 562.6 162.874C562.465 184.758 553.683 205.259 537.87 220.596V220.596Z" fill="white"/>
</svg>
