<svg width="952" height="836" viewBox="0 0 952 836" fill="none" xmlns="http://www.w3.org/2000/svg">
<rect width="952" height="836" rx="25" fill="#8C20BF" fill-opacity="0.5"/>
<path d="M99.968 454.06C99.968 449.98 100.908 446.32 102.788 443.08C104.708 439.84 107.288 437.32 110.528 435.52C113.808 433.68 117.388 432.76 121.268 432.76C125.708 432.76 129.648 433.86 133.088 436.06C136.568 438.22 139.088 441.3 140.648 445.3H132.428C131.348 443.1 129.848 441.46 127.928 440.38C126.008 439.3 123.788 438.76 121.268 438.76C118.508 438.76 116.048 439.38 113.888 440.62C111.728 441.86 110.028 443.64 108.788 445.96C107.588 448.28 106.988 450.98 106.988 454.06C106.988 457.14 107.588 459.84 108.788 462.16C110.028 464.48 111.728 466.28 113.888 467.56C116.048 468.8 118.508 469.42 121.268 469.42C123.788 469.42 126.008 468.88 127.928 467.8C129.848 466.72 131.348 465.08 132.428 462.88H140.648C139.088 466.88 136.568 469.96 133.088 472.12C129.648 474.28 125.708 475.36 121.268 475.36C117.348 475.36 113.768 474.46 110.528 472.66C107.288 470.82 104.708 468.28 102.788 465.04C100.908 461.8 99.968 458.14 99.968 454.06ZM162.994 475.54C159.874 475.54 157.054 474.84 154.534 473.44C152.014 472 150.034 470 148.594 467.44C147.154 464.84 146.434 461.84 146.434 458.44C146.434 455.08 147.174 452.1 148.654 449.5C150.134 446.9 152.154 444.9 154.714 443.5C157.274 442.1 160.134 441.4 163.294 441.4C166.454 441.4 169.314 442.1 171.874 443.5C174.434 444.9 176.454 446.9 177.934 449.5C179.414 452.1 180.154 455.08 180.154 458.44C180.154 461.8 179.394 464.78 177.874 467.38C176.354 469.98 174.274 472 171.634 473.44C169.034 474.84 166.154 475.54 162.994 475.54ZM162.994 469.6C164.754 469.6 166.394 469.18 167.914 468.34C169.474 467.5 170.734 466.24 171.694 464.56C172.654 462.88 173.134 460.84 173.134 458.44C173.134 456.04 172.674 454.02 171.754 452.38C170.834 450.7 169.614 449.44 168.094 448.6C166.574 447.76 164.934 447.34 163.174 447.34C161.414 447.34 159.774 447.76 158.254 448.6C156.774 449.44 155.594 450.7 154.714 452.38C153.834 454.02 153.394 456.04 153.394 458.44C153.394 462 154.294 464.76 156.094 466.72C157.934 468.64 160.234 469.6 162.994 469.6ZM226.936 441.4C229.536 441.4 231.856 441.94 233.896 443.02C235.976 444.1 237.596 445.7 238.756 447.82C239.956 449.94 240.556 452.5 240.556 455.5V475H233.776V456.52C233.776 453.56 233.036 451.3 231.556 449.74C230.076 448.14 228.056 447.34 225.496 447.34C222.936 447.34 220.896 448.14 219.376 449.74C217.896 451.3 217.156 453.56 217.156 456.52V475H210.376V456.52C210.376 453.56 209.636 451.3 208.156 449.74C206.676 448.14 204.656 447.34 202.096 447.34C199.536 447.34 197.496 448.14 195.976 449.74C194.496 451.3 193.756 453.56 193.756 456.52V475H186.916V441.94H193.756V445.72C194.876 444.36 196.296 443.3 198.016 442.54C199.736 441.78 201.576 441.4 203.536 441.4C206.176 441.4 208.536 441.96 210.616 443.08C212.696 444.2 214.296 445.82 215.416 447.94C216.416 445.94 217.976 444.36 220.096 443.2C222.216 442 224.496 441.4 226.936 441.4ZM289.28 441.4C291.88 441.4 294.2 441.94 296.24 443.02C298.32 444.1 299.94 445.7 301.1 447.82C302.3 449.94 302.9 452.5 302.9 455.5V475H296.12V456.52C296.12 453.56 295.38 451.3 293.9 449.74C292.42 448.14 290.4 447.34 287.84 447.34C285.28 447.34 283.24 448.14 281.72 449.74C280.24 451.3 279.5 453.56 279.5 456.52V475H272.72V456.52C272.72 453.56 271.98 451.3 270.5 449.74C269.02 448.14 267 447.34 264.44 447.34C261.88 447.34 259.84 448.14 258.32 449.74C256.84 451.3 256.1 453.56 256.1 456.52V475H249.26V441.94H256.1V445.72C257.22 444.36 258.64 443.3 260.36 442.54C262.08 441.78 263.92 441.4 265.88 441.4C268.52 441.4 270.88 441.96 272.96 443.08C275.04 444.2 276.64 445.82 277.76 447.94C278.76 445.94 280.32 444.36 282.44 443.2C284.56 442 286.84 441.4 289.28 441.4ZM341.544 441.94V475H334.704V471.1C333.624 472.46 332.204 473.54 330.444 474.34C328.724 475.1 326.884 475.48 324.924 475.48C322.324 475.48 319.984 474.94 317.904 473.86C315.864 472.78 314.244 471.18 313.044 469.06C311.884 466.94 311.304 464.38 311.304 461.38V441.94H318.084V460.36C318.084 463.32 318.824 465.6 320.304 467.2C321.784 468.76 323.804 469.54 326.364 469.54C328.924 469.54 330.944 468.76 332.424 467.2C333.944 465.6 334.704 463.32 334.704 460.36V441.94H341.544ZM367.248 441.4C369.848 441.4 372.168 441.94 374.208 443.02C376.288 444.1 377.908 445.7 379.068 447.82C380.228 449.94 380.808 452.5 380.808 455.5V475H374.028V456.52C374.028 453.56 373.288 451.3 371.808 449.74C370.328 448.14 368.308 447.34 365.748 447.34C363.188 447.34 361.148 448.14 359.628 449.74C358.148 451.3 357.408 453.56 357.408 456.52V475H350.568V441.94H357.408V445.72C358.528 444.36 359.948 443.3 361.668 442.54C363.428 441.78 365.288 441.4 367.248 441.4ZM393.013 437.56C391.773 437.56 390.733 437.14 389.893 436.3C389.053 435.46 388.633 434.42 388.633 433.18C388.633 431.94 389.053 430.9 389.893 430.06C390.733 429.22 391.773 428.8 393.013 428.8C394.213 428.8 395.233 429.22 396.073 430.06C396.913 430.9 397.333 431.94 397.333 433.18C397.333 434.42 396.913 435.46 396.073 436.3C395.233 437.14 394.213 437.56 393.013 437.56ZM396.373 441.94V475H389.533V441.94H396.373ZM403.074 458.44C403.074 455.04 403.754 452.06 405.114 449.5C406.514 446.9 408.434 444.9 410.874 443.5C413.314 442.1 416.114 441.4 419.274 441.4C423.274 441.4 426.574 442.36 429.174 444.28C431.814 446.16 433.594 448.86 434.514 452.38H427.134C426.534 450.74 425.574 449.46 424.254 448.54C422.934 447.62 421.274 447.16 419.274 447.16C416.474 447.16 414.234 448.16 412.554 450.16C410.914 452.12 410.094 454.88 410.094 458.44C410.094 462 410.914 464.78 412.554 466.78C414.234 468.78 416.474 469.78 419.274 469.78C423.234 469.78 425.854 468.04 427.134 464.56H434.514C433.554 467.92 431.754 470.6 429.114 472.6C426.474 474.56 423.194 475.54 419.274 475.54C416.114 475.54 413.314 474.84 410.874 473.44C408.434 472 406.514 470 405.114 467.44C403.754 464.84 403.074 461.84 403.074 458.44ZM439.05 458.32C439.05 455 439.73 452.06 441.09 449.5C442.49 446.94 444.37 444.96 446.73 443.56C449.13 442.12 451.77 441.4 454.65 441.4C457.25 441.4 459.51 441.92 461.43 442.96C463.39 443.96 464.95 445.22 466.11 446.74V441.94H473.01V475H466.11V470.08C464.95 471.64 463.37 472.94 461.37 473.98C459.37 475.02 457.09 475.54 454.53 475.54C451.69 475.54 449.09 474.82 446.73 473.38C444.37 471.9 442.49 469.86 441.09 467.26C439.73 464.62 439.05 461.64 439.05 458.32ZM466.11 458.44C466.11 456.16 465.63 454.18 464.67 452.5C463.75 450.82 462.53 449.54 461.01 448.66C459.49 447.78 457.85 447.34 456.09 447.34C454.33 447.34 452.69 447.78 451.17 448.66C449.65 449.5 448.41 450.76 447.45 452.44C446.53 454.08 446.07 456.04 446.07 458.32C446.07 460.6 446.53 462.6 447.45 464.32C448.41 466.04 449.65 467.36 451.17 468.28C452.73 469.16 454.37 469.6 456.09 469.6C457.85 469.6 459.49 469.16 461.01 468.28C462.53 467.4 463.75 466.12 464.67 464.44C465.63 462.72 466.11 460.72 466.11 458.44ZM489.974 447.52V465.82C489.974 467.06 490.254 467.96 490.814 468.52C491.414 469.04 492.414 469.3 493.814 469.3H498.014V475H492.614C489.534 475 487.174 474.28 485.534 472.84C483.894 471.4 483.074 469.06 483.074 465.82V447.52H479.174V441.94H483.074V433.72H489.974V441.94H498.014V447.52H489.974ZM534.618 457.66C534.618 458.9 534.538 460.02 534.378 461.02H509.118C509.318 463.66 510.298 465.78 512.058 467.38C513.818 468.98 515.978 469.78 518.538 469.78C522.218 469.78 524.818 468.24 526.338 465.16H533.718C532.718 468.2 530.898 470.7 528.258 472.66C525.658 474.58 522.418 475.54 518.538 475.54C515.378 475.54 512.538 474.84 510.018 473.44C507.538 472 505.578 470 504.138 467.44C502.738 464.84 502.038 461.84 502.038 458.44C502.038 455.04 502.718 452.06 504.078 449.5C505.478 446.9 507.418 444.9 509.898 443.5C512.418 442.1 515.298 441.4 518.538 441.4C521.658 441.4 524.438 442.08 526.878 443.44C529.318 444.8 531.218 446.72 532.578 449.2C533.938 451.64 534.618 454.46 534.618 457.66ZM527.478 455.5C527.438 452.98 526.538 450.96 524.778 449.44C523.018 447.92 520.838 447.16 518.238 447.16C515.878 447.16 513.858 447.92 512.178 449.44C510.498 450.92 509.498 452.94 509.178 455.5H527.478ZM601.336 441.94L591.076 475H583.876L577.216 450.58L570.556 475H563.356L553.036 441.94H559.996L566.896 468.52L573.916 441.94H581.056L587.776 468.4L594.616 441.94H601.336ZM609.927 437.56C608.687 437.56 607.647 437.14 606.807 436.3C605.967 435.46 605.547 434.42 605.547 433.18C605.547 431.94 605.967 430.9 606.807 430.06C607.647 429.22 608.687 428.8 609.927 428.8C611.127 428.8 612.147 429.22 612.987 430.06C613.827 430.9 614.247 431.94 614.247 433.18C614.247 434.42 613.827 435.46 612.987 436.3C612.147 437.14 611.127 437.56 609.927 437.56ZM613.287 441.94V475H606.447V441.94H613.287ZM630.248 447.52V465.82C630.248 467.06 630.528 467.96 631.088 468.52C631.688 469.04 632.688 469.3 634.088 469.3H638.288V475H632.888C629.808 475 627.448 474.28 625.808 472.84C624.168 471.4 623.348 469.06 623.348 465.82V447.52H619.448V441.94H623.348V433.72H630.248V441.94H638.288V447.52H630.248ZM661.692 441.4C664.212 441.4 666.452 441.94 668.412 443.02C670.412 444.1 671.972 445.7 673.092 447.82C674.252 449.94 674.832 452.5 674.832 455.5V475H668.052V456.52C668.052 453.56 667.312 451.3 665.832 449.74C664.352 448.14 662.332 447.34 659.772 447.34C657.212 447.34 655.172 448.14 653.652 449.74C652.172 451.3 651.432 453.56 651.432 456.52V475H644.592V430.6H651.432V445.78C652.592 444.38 654.052 443.3 655.812 442.54C657.612 441.78 659.572 441.4 661.692 441.4ZM713.483 475.54C710.363 475.54 707.543 474.84 705.023 473.44C702.503 472 700.523 470 699.083 467.44C697.643 464.84 696.923 461.84 696.923 458.44C696.923 455.08 697.663 452.1 699.143 449.5C700.623 446.9 702.643 444.9 705.203 443.5C707.763 442.1 710.623 441.4 713.783 441.4C716.943 441.4 719.803 442.1 722.363 443.5C724.923 444.9 726.943 446.9 728.423 449.5C729.903 452.1 730.643 455.08 730.643 458.44C730.643 461.8 729.883 464.78 728.363 467.38C726.843 469.98 724.763 472 722.123 473.44C719.523 474.84 716.643 475.54 713.483 475.54ZM713.483 469.6C715.243 469.6 716.883 469.18 718.403 468.34C719.963 467.5 721.223 466.24 722.183 464.56C723.143 462.88 723.623 460.84 723.623 458.44C723.623 456.04 723.163 454.02 722.243 452.38C721.323 450.7 720.103 449.44 718.583 448.6C717.063 447.76 715.423 447.34 713.663 447.34C711.903 447.34 710.263 447.76 708.743 448.6C707.263 449.44 706.083 450.7 705.203 452.38C704.323 454.02 703.883 456.04 703.883 458.44C703.883 462 704.783 464.76 706.583 466.72C708.423 468.64 710.723 469.6 713.483 469.6ZM745.384 447.52V465.82C745.384 467.06 745.664 467.96 746.224 468.52C746.824 469.04 747.824 469.3 749.224 469.3H753.424V475H748.024C744.944 475 742.584 474.28 740.944 472.84C739.304 471.4 738.484 469.06 738.484 465.82V447.52H734.584V441.94H738.484V433.72H745.384V441.94H753.424V447.52H745.384ZM776.829 441.4C779.349 441.4 781.589 441.94 783.549 443.02C785.549 444.1 787.109 445.7 788.229 447.82C789.389 449.94 789.969 452.5 789.969 455.5V475H783.189V456.52C783.189 453.56 782.449 451.3 780.969 449.74C779.489 448.14 777.469 447.34 774.909 447.34C772.349 447.34 770.309 448.14 768.789 449.74C767.309 451.3 766.569 453.56 766.569 456.52V475H759.729V430.6H766.569V445.78C767.729 444.38 769.189 443.3 770.949 442.54C772.749 441.78 774.709 441.4 776.829 441.4ZM828.993 457.66C828.993 458.9 828.913 460.02 828.753 461.02H803.493C803.693 463.66 804.673 465.78 806.433 467.38C808.193 468.98 810.353 469.78 812.913 469.78C816.593 469.78 819.193 468.24 820.713 465.16H828.093C827.093 468.2 825.273 470.7 822.633 472.66C820.033 474.58 816.793 475.54 812.913 475.54C809.753 475.54 806.913 474.84 804.393 473.44C801.913 472 799.953 470 798.513 467.44C797.113 464.84 796.413 461.84 796.413 458.44C796.413 455.04 797.093 452.06 798.453 449.5C799.853 446.9 801.793 444.9 804.273 443.5C806.793 442.1 809.673 441.4 812.913 441.4C816.033 441.4 818.813 442.08 821.253 443.44C823.693 444.8 825.593 446.72 826.953 449.2C828.313 451.64 828.993 454.46 828.993 457.66ZM821.853 455.5C821.813 452.98 820.913 450.96 819.153 449.44C817.393 447.92 815.213 447.16 812.613 447.16C810.253 447.16 808.233 447.92 806.553 449.44C804.873 450.92 803.873 452.94 803.553 455.5H821.853ZM842.565 446.74C843.565 445.06 844.885 443.76 846.525 442.84C848.205 441.88 850.185 441.4 852.465 441.4V448.48H850.725C848.045 448.48 846.005 449.16 844.605 450.52C843.245 451.88 842.565 454.24 842.565 457.6V475H835.725V441.94H842.565V446.74ZM223.741 531.94V565H216.901V561.1C215.821 562.46 214.401 563.54 212.641 564.34C210.921 565.1 209.081 565.48 207.121 565.48C204.521 565.48 202.181 564.94 200.101 563.86C198.061 562.78 196.441 561.18 195.241 559.06C194.081 556.94 193.501 554.38 193.501 551.38V531.94H200.281V550.36C200.281 553.32 201.021 555.6 202.501 557.2C203.981 558.76 206.001 559.54 208.561 559.54C211.121 559.54 213.141 558.76 214.621 557.2C216.141 555.6 216.901 553.32 216.901 550.36V531.94H223.741ZM244.766 565.54C242.166 565.54 239.826 565.08 237.746 564.16C235.706 563.2 234.086 561.92 232.886 560.32C231.686 558.68 231.046 556.86 230.966 554.86H238.046C238.166 556.26 238.826 557.44 240.026 558.4C241.266 559.32 242.806 559.78 244.646 559.78C246.566 559.78 248.046 559.42 249.086 558.7C250.166 557.94 250.706 556.98 250.706 555.82C250.706 554.58 250.106 553.66 248.906 553.06C247.746 552.46 245.886 551.8 243.326 551.08C240.846 550.4 238.826 549.74 237.266 549.1C235.706 548.46 234.346 547.48 233.186 546.16C232.066 544.84 231.506 543.1 231.506 540.94C231.506 539.18 232.026 537.58 233.066 536.14C234.106 534.66 235.586 533.5 237.506 532.66C239.466 531.82 241.706 531.4 244.226 531.4C247.986 531.4 251.006 532.36 253.286 534.28C255.606 536.16 256.846 538.74 257.006 542.02H250.166C250.046 540.54 249.446 539.36 248.366 538.48C247.286 537.6 245.826 537.16 243.986 537.16C242.186 537.16 240.806 537.5 239.846 538.18C238.886 538.86 238.406 539.76 238.406 540.88C238.406 541.76 238.726 542.5 239.366 543.1C240.006 543.7 240.786 544.18 241.706 544.54C242.626 544.86 243.986 545.28 245.786 545.8C248.186 546.44 250.146 547.1 251.666 547.78C253.226 548.42 254.566 549.38 255.686 550.66C256.806 551.94 257.386 553.64 257.426 555.76C257.426 557.64 256.906 559.32 255.866 560.8C254.826 562.28 253.346 563.44 251.426 564.28C249.546 565.12 247.326 565.54 244.766 565.54ZM295.116 547.66C295.116 548.9 295.036 550.02 294.876 551.02H269.616C269.816 553.66 270.796 555.78 272.556 557.38C274.316 558.98 276.476 559.78 279.036 559.78C282.716 559.78 285.316 558.24 286.836 555.16H294.216C293.216 558.2 291.396 560.7 288.756 562.66C286.156 564.58 282.916 565.54 279.036 565.54C275.876 565.54 273.036 564.84 270.516 563.44C268.036 562 266.076 560 264.636 557.44C263.236 554.84 262.536 551.84 262.536 548.44C262.536 545.04 263.216 542.06 264.576 539.5C265.976 536.9 267.916 534.9 270.396 533.5C272.916 532.1 275.796 531.4 279.036 531.4C282.156 531.4 284.936 532.08 287.376 533.44C289.816 534.8 291.716 536.72 293.076 539.2C294.436 541.64 295.116 544.46 295.116 547.66ZM287.976 545.5C287.936 542.98 287.036 540.96 285.276 539.44C283.516 537.92 281.336 537.16 278.736 537.16C276.376 537.16 274.356 537.92 272.676 539.44C270.996 540.92 269.996 542.94 269.676 545.5H287.976ZM308.688 536.74C309.688 535.06 311.008 533.76 312.648 532.84C314.328 531.88 316.308 531.4 318.588 531.4V538.48H316.848C314.168 538.48 312.128 539.16 310.728 540.52C309.368 541.88 308.688 544.24 308.688 547.6V565H301.848V531.94H308.688V536.74ZM336.875 565.54C334.275 565.54 331.935 565.08 329.855 564.16C327.815 563.2 326.195 561.92 324.995 560.32C323.795 558.68 323.155 556.86 323.075 554.86H330.155C330.275 556.26 330.935 557.44 332.135 558.4C333.375 559.32 334.915 559.78 336.755 559.78C338.675 559.78 340.155 559.42 341.195 558.7C342.275 557.94 342.815 556.98 342.815 555.82C342.815 554.58 342.215 553.66 341.015 553.06C339.855 552.46 337.995 551.8 335.435 551.08C332.955 550.4 330.935 549.74 329.375 549.1C327.815 548.46 326.455 547.48 325.295 546.16C324.175 544.84 323.615 543.1 323.615 540.94C323.615 539.18 324.135 537.58 325.175 536.14C326.215 534.66 327.695 533.5 329.615 532.66C331.575 531.82 333.815 531.4 336.335 531.4C340.095 531.4 343.115 532.36 345.395 534.28C347.715 536.16 348.955 538.74 349.115 542.02H342.275C342.155 540.54 341.555 539.36 340.475 538.48C339.395 537.6 337.935 537.16 336.095 537.16C334.295 537.16 332.915 537.5 331.955 538.18C330.995 538.86 330.515 539.76 330.515 540.88C330.515 541.76 330.835 542.5 331.475 543.1C332.115 543.7 332.895 544.18 333.815 544.54C334.735 544.86 336.095 545.28 337.895 545.8C340.295 546.44 342.255 547.1 343.775 547.78C345.335 548.42 346.675 549.38 347.795 550.66C348.915 551.94 349.495 553.64 349.535 555.76C349.535 557.64 349.015 559.32 347.975 560.8C346.935 562.28 345.455 563.44 343.535 564.28C341.655 565.12 339.435 565.54 336.875 565.54ZM380.492 537.52V555.82C380.492 557.06 380.772 557.96 381.332 558.52C381.932 559.04 382.932 559.3 384.332 559.3H388.532V565H383.132C380.052 565 377.692 564.28 376.052 562.84C374.412 561.4 373.592 559.06 373.592 555.82V537.52H369.692V531.94H373.592V523.72H380.492V531.94H388.532V537.52H380.492ZM411.936 531.4C414.456 531.4 416.696 531.94 418.656 533.02C420.656 534.1 422.216 535.7 423.336 537.82C424.496 539.94 425.076 542.5 425.076 545.5V565H418.296V546.52C418.296 543.56 417.556 541.3 416.076 539.74C414.596 538.14 412.576 537.34 410.016 537.34C407.456 537.34 405.416 538.14 403.896 539.74C402.416 541.3 401.676 543.56 401.676 546.52V565H394.836V520.6H401.676V535.78C402.836 534.38 404.296 533.3 406.056 532.54C407.856 531.78 409.816 531.4 411.936 531.4ZM440.641 536.74C441.641 535.06 442.961 533.76 444.601 532.84C446.281 531.88 448.261 531.4 450.541 531.4V538.48H448.801C446.121 538.48 444.081 539.16 442.681 540.52C441.321 541.88 440.641 544.24 440.641 547.6V565H433.801V531.94H440.641V536.74ZM471.168 565.54C468.048 565.54 465.228 564.84 462.708 563.44C460.188 562 458.208 560 456.768 557.44C455.328 554.84 454.608 551.84 454.608 548.44C454.608 545.08 455.348 542.1 456.828 539.5C458.308 536.9 460.328 534.9 462.888 533.5C465.448 532.1 468.308 531.4 471.468 531.4C474.628 531.4 477.488 532.1 480.048 533.5C482.608 534.9 484.628 536.9 486.108 539.5C487.588 542.1 488.328 545.08 488.328 548.44C488.328 551.8 487.568 554.78 486.048 557.38C484.528 559.98 482.448 562 479.808 563.44C477.208 564.84 474.328 565.54 471.168 565.54ZM471.168 559.6C472.928 559.6 474.568 559.18 476.088 558.34C477.648 557.5 478.908 556.24 479.868 554.56C480.828 552.88 481.308 550.84 481.308 548.44C481.308 546.04 480.848 544.02 479.928 542.38C479.008 540.7 477.788 539.44 476.268 538.6C474.748 537.76 473.108 537.34 471.348 537.34C469.588 537.34 467.948 537.76 466.428 538.6C464.948 539.44 463.768 540.7 462.888 542.38C462.008 544.02 461.568 546.04 461.568 548.44C461.568 552 462.468 554.76 464.268 556.72C466.108 558.64 468.408 559.6 471.168 559.6ZM525.03 531.94V565H518.19V561.1C517.11 562.46 515.69 563.54 513.93 564.34C512.21 565.1 510.37 565.48 508.41 565.48C505.81 565.48 503.47 564.94 501.39 563.86C499.35 562.78 497.73 561.18 496.53 559.06C495.37 556.94 494.79 554.38 494.79 551.38V531.94H501.57V550.36C501.57 553.32 502.31 555.6 503.79 557.2C505.27 558.76 507.29 559.54 509.85 559.54C512.41 559.54 514.43 558.76 515.91 557.2C517.43 555.6 518.19 553.32 518.19 550.36V531.94H525.03ZM547.375 531.4C549.935 531.4 552.195 531.92 554.155 532.96C556.155 533.96 557.715 535.22 558.835 536.74V531.94H565.735V565.54C565.735 568.58 565.095 571.28 563.815 573.64C562.535 576.04 560.675 577.92 558.235 579.28C555.835 580.64 552.955 581.32 549.595 581.32C545.115 581.32 541.395 580.26 538.435 578.14C535.475 576.06 533.795 573.22 533.395 569.62H540.175C540.695 571.34 541.795 572.72 543.475 573.76C545.195 574.84 547.235 575.38 549.595 575.38C552.355 575.38 554.575 574.54 556.255 572.86C557.975 571.18 558.835 568.74 558.835 565.54V560.02C557.675 561.58 556.095 562.9 554.095 563.98C552.135 565.02 549.895 565.54 547.375 565.54C544.495 565.54 541.855 564.82 539.455 563.38C537.095 561.9 535.215 559.86 533.815 557.26C532.455 554.62 531.775 551.64 531.775 548.32C531.775 545 532.455 542.06 533.815 539.5C535.215 536.94 537.095 534.96 539.455 533.56C541.855 532.12 544.495 531.4 547.375 531.4ZM558.835 548.44C558.835 546.16 558.355 544.18 557.395 542.5C556.475 540.82 555.255 539.54 553.735 538.66C552.215 537.78 550.575 537.34 548.815 537.34C547.055 537.34 545.415 537.78 543.895 538.66C542.375 539.5 541.135 540.76 540.175 542.44C539.255 544.08 538.795 546.04 538.795 548.32C538.795 550.6 539.255 552.6 540.175 554.32C541.135 556.04 542.375 557.36 543.895 558.28C545.455 559.16 547.095 559.6 548.815 559.6C550.575 559.6 552.215 559.16 553.735 558.28C555.255 557.4 556.475 556.12 557.395 554.44C558.355 552.72 558.835 550.72 558.835 548.44ZM591.819 531.4C594.339 531.4 596.579 531.94 598.539 533.02C600.539 534.1 602.099 535.7 603.219 537.82C604.379 539.94 604.959 542.5 604.959 545.5V565H598.179V546.52C598.179 543.56 597.439 541.3 595.959 539.74C594.479 538.14 592.459 537.34 589.899 537.34C587.339 537.34 585.299 538.14 583.779 539.74C582.299 541.3 581.559 543.56 581.559 546.52V565H574.719V520.6H581.559V535.78C582.719 534.38 584.179 533.3 585.939 532.54C587.739 531.78 589.699 531.4 591.819 531.4ZM626.99 548.44C626.99 545.04 627.67 542.06 629.03 539.5C630.43 536.9 632.35 534.9 634.79 533.5C637.23 532.1 640.03 531.4 643.19 531.4C647.19 531.4 650.49 532.36 653.09 534.28C655.73 536.16 657.51 538.86 658.43 542.38H651.05C650.45 540.74 649.49 539.46 648.17 538.54C646.85 537.62 645.19 537.16 643.19 537.16C640.39 537.16 638.15 538.16 636.47 540.16C634.83 542.12 634.01 544.88 634.01 548.44C634.01 552 634.83 554.78 636.47 556.78C638.15 558.78 640.39 559.78 643.19 559.78C647.15 559.78 649.77 558.04 651.05 554.56H658.43C657.47 557.92 655.67 560.6 653.03 562.6C650.39 564.56 647.11 565.54 643.19 565.54C640.03 565.54 637.23 564.84 634.79 563.44C632.35 562 630.43 560 629.03 557.44C627.67 554.84 626.99 551.84 626.99 548.44ZM682.346 531.4C684.866 531.4 687.106 531.94 689.066 533.02C691.066 534.1 692.626 535.7 693.746 537.82C694.906 539.94 695.486 542.5 695.486 545.5V565H688.706V546.52C688.706 543.56 687.966 541.3 686.486 539.74C685.006 538.14 682.986 537.34 680.426 537.34C677.866 537.34 675.826 538.14 674.306 539.74C672.826 541.3 672.086 543.56 672.086 546.52V565H665.246V520.6H672.086V535.78C673.246 534.38 674.706 533.3 676.466 532.54C678.266 531.78 680.226 531.4 682.346 531.4ZM701.931 548.32C701.931 545 702.611 542.06 703.971 539.5C705.371 536.94 707.251 534.96 709.611 533.56C712.011 532.12 714.651 531.4 717.531 531.4C720.131 531.4 722.391 531.92 724.311 532.96C726.271 533.96 727.831 535.22 728.991 536.74V531.94H735.891V565H728.991V560.08C727.831 561.64 726.251 562.94 724.251 563.98C722.251 565.02 719.971 565.54 717.411 565.54C714.571 565.54 711.971 564.82 709.611 563.38C707.251 561.9 705.371 559.86 703.971 557.26C702.611 554.62 701.931 551.64 701.931 548.32ZM728.991 548.44C728.991 546.16 728.511 544.18 727.551 542.5C726.631 540.82 725.411 539.54 723.891 538.66C722.371 537.78 720.731 537.34 718.971 537.34C717.211 537.34 715.571 537.78 714.051 538.66C712.531 539.5 711.291 540.76 710.331 542.44C709.411 544.08 708.951 546.04 708.951 548.32C708.951 550.6 709.411 552.6 710.331 554.32C711.291 556.04 712.531 557.36 714.051 558.28C715.611 559.16 717.251 559.6 718.971 559.6C720.731 559.6 722.371 559.16 723.891 558.28C725.411 557.4 726.631 556.12 727.551 554.44C728.511 552.72 728.991 550.72 728.991 548.44ZM752.855 537.52V555.82C752.855 557.06 753.135 557.96 753.695 558.52C754.295 559.04 755.295 559.3 756.695 559.3H760.895V565H755.495C752.415 565 750.055 564.28 748.415 562.84C746.775 561.4 745.955 559.06 745.955 555.82V537.52H742.055V531.94H745.955V523.72H752.855V531.94H760.895V537.52H752.855Z" fill="white"/>
<path d="M464.845 223.438C464.845 226.235 465.981 228.917 468.003 230.895C470.025 232.873 472.767 233.984 475.626 233.984C478.486 233.984 481.228 232.873 483.25 230.895C485.272 228.917 486.408 226.235 486.408 223.438C486.408 220.64 485.272 217.958 483.25 215.98C481.228 214.002 478.486 212.891 475.626 212.891C472.767 212.891 470.025 214.002 468.003 215.98C465.981 217.958 464.845 220.64 464.845 223.438V223.438ZM509.767 223.438C509.767 226.235 510.903 228.917 512.925 230.895C514.947 232.873 517.689 233.984 520.548 233.984C523.408 233.984 526.15 232.873 528.172 230.895C530.194 228.917 531.329 226.235 531.329 223.438C531.329 220.64 530.194 217.958 528.172 215.98C526.15 214.002 523.408 212.891 520.548 212.891C517.689 212.891 514.947 214.002 512.925 215.98C510.903 217.958 509.767 220.64 509.767 223.438ZM419.923 223.438C419.923 226.235 421.059 228.917 423.081 230.895C425.103 232.873 427.845 233.984 430.704 233.984C433.564 233.984 436.306 232.873 438.328 230.895C440.35 228.917 441.486 226.235 441.486 223.438C441.486 220.64 440.35 217.958 438.328 215.98C436.306 214.002 433.564 212.891 430.704 212.891C427.845 212.891 425.103 214.002 423.081 215.98C421.059 217.958 419.923 220.64 419.923 223.438V223.438ZM568.435 185.293C563.359 173.494 556.081 162.903 546.805 153.806C537.594 144.762 526.658 137.573 514.618 132.646C502.265 127.571 489.148 125 475.626 125H475.177C461.566 125.066 448.381 127.703 435.983 132.888C424.046 137.865 413.213 145.067 404.088 154.092C394.902 163.167 387.692 173.713 382.705 185.469C377.539 197.642 374.934 210.583 375.001 223.899C375.077 239.158 378.768 254.193 385.783 267.822V301.221C385.783 303.901 386.871 306.472 388.809 308.368C390.746 310.263 393.374 311.328 396.115 311.328H430.278C444.21 318.19 459.579 321.8 475.177 321.875H475.649C489.103 321.875 502.153 319.326 514.439 314.338C526.418 309.47 537.312 302.365 546.513 293.42C555.789 284.434 563.089 273.931 568.188 262.219C573.489 250.09 576.184 237.192 576.251 223.877C576.319 210.496 573.668 197.51 568.435 185.293V185.293ZM534.496 281.533C518.751 296.782 497.863 305.176 475.626 305.176H475.244C461.7 305.11 448.246 301.814 436.365 295.618L434.478 294.629H402.853V263.691L401.842 261.846C395.508 250.222 392.139 237.061 392.072 223.811C391.982 201.904 400.539 181.338 416.24 165.847C431.917 150.356 452.873 141.787 475.267 141.699H475.649C486.879 141.699 497.773 143.831 508.037 148.049C518.055 152.158 527.039 158.069 534.766 165.627C542.47 173.164 548.534 181.975 552.735 191.775C557.092 201.926 559.271 212.693 559.226 223.811C559.091 245.696 550.309 266.196 534.496 281.533V281.533Z" fill="white"/>
</svg>
