<svg width="375" height="812" viewBox="0 0 375 812" fill="none" xmlns="http://www.w3.org/2000/svg">
<g clip-path="url(#clip0_82_127)">
<rect width="375" height="812" fill="white"/>
<path d="M375 0H0V812H375V0Z" fill="white"/>
<path d="M82.397 543.997V535.801H85.162L85.573 532.592H82.397V530.548C82.397 529.622 82.655 528.988 83.984 528.988H85.668V526.127C84.8486 526.039 84.025 525.997 83.201 526C80.757 526 79.079 527.492 79.079 530.231V532.586H76.332V535.795H79.085V543.997H82.397Z" fill="white"/>
<path d="M86.707 466.293C86.6142 466.2 86.504 466.126 86.3827 466.076C86.2614 466.026 86.1313 466 86 466C85.8687 466 85.7386 466.026 85.6173 466.076C85.496 466.126 85.3858 466.2 85.293 466.293L83.699 467.887C82.96 467.667 81.581 467.167 80.707 466.293C79.833 465.419 79.333 464.04 79.113 463.301L80.707 461.707C80.7999 461.614 80.8737 461.504 80.924 461.383C80.9743 461.261 81.0002 461.131 81.0002 461C81.0002 460.869 80.9743 460.739 80.924 460.617C80.8737 460.496 80.7999 460.386 80.707 460.293L76.707 456.293C76.6142 456.2 76.504 456.126 76.3827 456.076C76.2614 456.026 76.1313 456 76 456C75.8687 456 75.7386 456.026 75.6173 456.076C75.496 456.126 75.3858 456.2 75.293 456.293L72.581 459.005C72.201 459.385 71.987 459.907 71.995 460.44C72.018 461.864 72.395 466.81 76.293 470.708C80.191 474.606 85.137 474.982 86.562 475.006H86.59C87.118 475.006 87.617 474.798 87.995 474.42L90.707 471.708C90.7999 471.615 90.8737 471.505 90.924 471.384C90.9743 471.262 91.0002 471.132 91.0002 471.001C91.0002 470.87 90.9743 470.74 90.924 470.618C90.8737 470.497 90.7999 470.387 90.707 470.294L86.707 466.293ZM86.58 473.005C85.332 472.984 81.062 472.649 77.707 469.293C74.341 465.927 74.015 461.642 73.995 460.419L76 458.414L78.586 461L77.293 462.293C77.1755 462.41 77.089 462.555 77.0416 462.715C76.9941 462.874 76.987 463.042 77.021 463.205C77.045 463.32 77.632 466.047 79.292 467.707C80.952 469.367 83.679 469.954 83.794 469.978C83.9565 470.013 84.1253 470.006 84.2846 469.959C84.444 469.912 84.5889 469.825 84.706 469.707L86 468.414L88.586 471L86.58 473.005Z" fill="white"/>
<path d="M88.103 597.998C88.226 598.657 88.293 599.346 88.293 600.065C88.293 605.689 84.529 609.688 78.844 609.688C77.5512 609.688 76.2709 609.434 75.0764 608.939C73.8819 608.445 72.7965 607.72 71.8824 606.806C70.9682 605.891 70.2431 604.806 69.7485 603.612C69.254 602.417 68.9996 601.137 69 599.844C68.9996 598.551 69.254 597.271 69.7485 596.076C70.2431 594.882 70.9682 593.797 71.8824 592.882C72.7965 591.968 73.8819 591.243 75.0764 590.749C76.2709 590.254 77.5512 590 78.844 590C81.502 590 83.723 590.978 85.427 592.566L82.652 595.341V595.334C81.619 594.35 80.308 593.845 78.844 593.845C75.596 593.845 72.956 596.589 72.956 599.838C72.956 603.086 75.596 605.836 78.844 605.836C81.791 605.836 83.797 604.151 84.209 601.837H78.844V597.998H88.104H88.103Z" fill="white"/>
<path d="M83.5977 665.463C83.5898 664.131 84.1934 663.127 85.4121 662.387C84.7305 661.41 83.6992 660.873 82.3398 660.77C81.0527 660.668 79.6445 661.52 79.1289 661.52C78.584 661.52 77.3379 660.805 76.3574 660.805C74.334 660.836 72.1836 662.418 72.1836 665.637C72.1836 666.588 72.3574 667.57 72.7051 668.582C73.1699 669.914 74.8457 673.178 76.5938 673.125C77.5078 673.104 78.1543 672.477 79.3437 672.477C80.498 672.477 81.0957 673.125 82.1152 673.125C83.8789 673.1 85.3945 670.133 85.8359 668.797C83.4707 667.682 83.5977 665.531 83.5977 665.463ZM81.5449 659.506C82.5352 658.33 82.4453 657.26 82.416 656.875C81.541 656.926 80.5293 657.471 79.9531 658.141C79.3184 658.859 78.9453 659.748 79.0254 660.75C79.9707 660.822 80.834 660.336 81.5449 659.506Z" fill="white"/>
<g filter="url(#filter0_d_82_127)">
<path d="M325 402H50C42.8203 402 37 407.82 37 415V441C37 448.18 42.8203 454 50 454H325C332.18 454 338 448.18 338 441V415C338 407.82 332.18 402 325 402Z" fill="#F82E4B"/>
</g>
<path d="M131.042 425.237C130.452 425.237 129.919 425.339 129.446 425.544C128.977 425.745 128.577 426.038 128.245 426.423C127.917 426.804 127.666 427.266 127.49 427.808C127.314 428.35 127.227 428.96 127.227 429.639C127.227 430.537 127.366 431.318 127.644 431.982C127.927 432.642 128.347 433.152 128.904 433.513C129.465 433.875 130.166 434.055 131.006 434.055C131.484 434.055 131.934 434.016 132.354 433.938C132.778 433.855 133.191 433.752 133.591 433.63V434.714C133.201 434.861 132.791 434.968 132.361 435.037C131.931 435.11 131.421 435.146 130.83 435.146C129.741 435.146 128.831 434.922 128.098 434.473C127.371 434.019 126.824 433.379 126.458 432.554C126.096 431.729 125.916 430.754 125.916 429.631C125.916 428.821 126.028 428.081 126.252 427.412C126.482 426.738 126.814 426.157 127.249 425.669C127.688 425.181 128.225 424.805 128.86 424.541C129.5 424.272 130.232 424.138 131.057 424.138C131.599 424.138 132.122 424.192 132.625 424.299C133.127 424.407 133.582 424.561 133.987 424.761L133.489 425.815C133.147 425.659 132.771 425.525 132.361 425.413C131.956 425.295 131.516 425.237 131.042 425.237ZM142.651 430.972C142.651 431.631 142.566 432.219 142.395 432.737C142.224 433.254 141.978 433.691 141.655 434.048C141.333 434.404 140.942 434.678 140.483 434.868C140.029 435.054 139.514 435.146 138.938 435.146C138.401 435.146 137.908 435.054 137.458 434.868C137.014 434.678 136.628 434.404 136.301 434.048C135.979 433.691 135.728 433.254 135.547 432.737C135.371 432.219 135.283 431.631 135.283 430.972C135.283 430.093 135.432 429.346 135.73 428.73C136.028 428.11 136.453 427.639 137.004 427.317C137.561 426.99 138.223 426.826 138.989 426.826C139.722 426.826 140.361 426.99 140.908 427.317C141.46 427.644 141.887 428.118 142.19 428.738C142.498 429.353 142.651 430.098 142.651 430.972ZM136.543 430.972C136.543 431.616 136.628 432.175 136.799 432.649C136.97 433.123 137.234 433.489 137.59 433.748C137.947 434.006 138.406 434.136 138.967 434.136C139.524 434.136 139.98 434.006 140.337 433.748C140.698 433.489 140.964 433.123 141.135 432.649C141.306 432.175 141.392 431.616 141.392 430.972C141.392 430.332 141.306 429.78 141.135 429.316C140.964 428.848 140.701 428.486 140.344 428.232C139.988 427.979 139.526 427.852 138.96 427.852C138.125 427.852 137.512 428.127 137.122 428.679C136.736 429.231 136.543 429.995 136.543 430.972ZM148.555 426.826C149.507 426.826 150.227 427.061 150.715 427.529C151.204 427.993 151.448 428.74 151.448 429.771V435H150.247V429.851C150.247 429.182 150.093 428.682 149.785 428.35C149.482 428.018 149.016 427.852 148.386 427.852C147.498 427.852 146.873 428.103 146.511 428.606C146.15 429.109 145.969 429.839 145.969 430.796V435H144.753V426.973H145.735L145.918 428.13H145.984C146.155 427.847 146.372 427.61 146.636 427.419C146.899 427.224 147.195 427.078 147.522 426.98C147.849 426.877 148.193 426.826 148.555 426.826ZM156.545 434.15C156.746 434.15 156.951 434.133 157.161 434.099C157.371 434.065 157.542 434.023 157.673 433.975V434.919C157.532 434.983 157.334 435.037 157.08 435.081C156.831 435.125 156.587 435.146 156.348 435.146C155.923 435.146 155.537 435.073 155.19 434.927C154.844 434.775 154.565 434.521 154.355 434.165C154.15 433.809 154.048 433.315 154.048 432.686V427.925H152.905V427.332L154.055 426.855L154.539 425.112H155.271V426.973H157.622V427.925H155.271V432.649C155.271 433.152 155.386 433.528 155.615 433.777C155.85 434.026 156.16 434.15 156.545 434.15ZM160.515 426.973V435H159.299V426.973H160.515ZM159.922 423.97C160.122 423.97 160.293 424.036 160.435 424.167C160.581 424.294 160.654 424.495 160.654 424.768C160.654 425.037 160.581 425.237 160.435 425.369C160.293 425.5 160.122 425.566 159.922 425.566C159.712 425.566 159.536 425.5 159.395 425.369C159.258 425.237 159.189 425.037 159.189 424.768C159.189 424.495 159.258 424.294 159.395 424.167C159.536 424.036 159.712 423.97 159.922 423.97ZM166.895 426.826C167.847 426.826 168.567 427.061 169.055 427.529C169.543 427.993 169.788 428.74 169.788 429.771V435H168.586V429.851C168.586 429.182 168.433 428.682 168.125 428.35C167.822 428.018 167.356 427.852 166.726 427.852C165.837 427.852 165.212 428.103 164.851 428.606C164.49 429.109 164.309 429.839 164.309 430.796V435H163.093V426.973H164.075L164.258 428.13H164.324C164.495 427.847 164.712 427.61 164.976 427.419C165.239 427.224 165.535 427.078 165.862 426.98C166.189 426.877 166.533 426.826 166.895 426.826ZM178.921 426.973V435H177.925L177.749 433.872H177.683C177.517 434.15 177.302 434.385 177.039 434.575C176.775 434.766 176.477 434.907 176.145 435C175.818 435.098 175.469 435.146 175.098 435.146C174.463 435.146 173.931 435.044 173.501 434.839C173.071 434.634 172.747 434.316 172.527 433.887C172.312 433.457 172.205 432.905 172.205 432.231V426.973H173.435V432.144C173.435 432.812 173.586 433.313 173.889 433.645C174.192 433.972 174.653 434.136 175.273 434.136C175.869 434.136 176.343 434.023 176.694 433.799C177.051 433.574 177.307 433.245 177.463 432.81C177.62 432.371 177.698 431.833 177.698 431.199V426.973H178.921ZM184.583 426.826C185.266 426.826 185.852 426.978 186.34 427.28C186.829 427.583 187.202 428.008 187.461 428.555C187.72 429.097 187.849 429.731 187.849 430.459V431.213H182.305C182.319 432.156 182.554 432.874 183.008 433.367C183.462 433.86 184.102 434.106 184.927 434.106C185.435 434.106 185.884 434.06 186.274 433.967C186.665 433.875 187.07 433.738 187.49 433.557V434.626C187.085 434.807 186.682 434.939 186.282 435.022C185.886 435.105 185.417 435.146 184.875 435.146C184.104 435.146 183.43 434.99 182.854 434.678C182.283 434.36 181.838 433.896 181.521 433.286C181.204 432.676 181.045 431.929 181.045 431.045C181.045 430.181 181.189 429.434 181.477 428.804C181.77 428.169 182.18 427.681 182.708 427.339C183.24 426.997 183.865 426.826 184.583 426.826ZM184.568 427.822C183.918 427.822 183.401 428.035 183.015 428.459C182.629 428.884 182.4 429.478 182.327 430.239H186.575C186.57 429.761 186.494 429.341 186.348 428.979C186.206 428.613 185.989 428.33 185.696 428.13C185.403 427.925 185.027 427.822 184.568 427.822ZM200.344 434.985L198.916 430.312C198.853 430.112 198.792 429.917 198.733 429.727C198.679 429.531 198.628 429.346 198.579 429.17C198.535 428.989 198.494 428.823 198.455 428.672C198.42 428.516 198.391 428.381 198.367 428.269H198.315C198.296 428.381 198.269 428.516 198.235 428.672C198.201 428.823 198.159 428.989 198.11 429.17C198.066 429.351 198.018 429.541 197.964 429.741C197.91 429.937 197.849 430.134 197.781 430.334L196.287 434.985H194.917L192.705 426.958H193.965L195.122 431.389C195.2 431.682 195.273 431.973 195.342 432.261C195.415 432.544 195.476 432.812 195.525 433.066C195.579 433.315 195.618 433.533 195.642 433.718H195.701C195.73 433.596 195.762 433.45 195.796 433.279C195.835 433.108 195.876 432.927 195.92 432.737C195.969 432.542 196.021 432.349 196.074 432.158C196.128 431.963 196.182 431.78 196.235 431.609L197.715 426.958H199.026L200.454 431.602C200.527 431.836 200.598 432.08 200.667 432.334C200.74 432.588 200.806 432.834 200.864 433.074C200.923 433.308 200.964 433.518 200.989 433.704H201.047C201.067 433.538 201.104 433.333 201.157 433.088C201.211 432.844 201.272 432.576 201.34 432.283C201.414 431.99 201.489 431.692 201.567 431.389L202.739 426.958H203.977L201.758 434.985H200.344ZM206.658 426.973V435H205.442V426.973H206.658ZM206.064 423.97C206.265 423.97 206.436 424.036 206.577 424.167C206.724 424.294 206.797 424.495 206.797 424.768C206.797 425.037 206.724 425.237 206.577 425.369C206.436 425.5 206.265 425.566 206.064 425.566C205.854 425.566 205.679 425.5 205.537 425.369C205.4 425.237 205.332 425.037 205.332 424.768C205.332 424.495 205.4 424.294 205.537 424.167C205.679 424.036 205.854 423.97 206.064 423.97ZM211.829 434.15C212.029 434.15 212.234 434.133 212.444 434.099C212.654 434.065 212.825 434.023 212.957 433.975V434.919C212.815 434.983 212.617 435.037 212.363 435.081C212.114 435.125 211.87 435.146 211.631 435.146C211.206 435.146 210.82 435.073 210.474 434.927C210.127 434.775 209.849 434.521 209.639 434.165C209.434 433.809 209.331 433.315 209.331 432.686V427.925H208.188V427.332L209.338 426.855L209.822 425.112H210.554V426.973H212.905V427.925H210.554V432.649C210.554 433.152 210.669 433.528 210.898 433.777C211.133 434.026 211.443 434.15 211.829 434.15ZM215.798 423.604V427.009C215.798 427.205 215.793 427.402 215.784 427.603C215.774 427.798 215.757 427.979 215.732 428.145H215.813C215.979 427.861 216.189 427.625 216.443 427.434C216.702 427.239 216.995 427.092 217.322 426.995C217.649 426.892 217.996 426.841 218.362 426.841C219.006 426.841 219.543 426.943 219.973 427.148C220.408 427.354 220.732 427.671 220.947 428.101C221.167 428.53 221.277 429.087 221.277 429.771V435H220.076V429.851C220.076 429.182 219.922 428.682 219.614 428.35C219.312 428.018 218.845 427.852 218.215 427.852C217.62 427.852 217.144 427.966 216.787 428.196C216.436 428.42 216.182 428.752 216.025 429.192C215.874 429.631 215.798 430.168 215.798 430.803V435H214.583V423.604H215.798ZM230.659 424.292C232.041 424.292 233.049 424.563 233.684 425.105C234.324 425.642 234.644 426.414 234.644 427.419C234.644 427.874 234.568 428.306 234.417 428.716C234.27 429.121 234.031 429.48 233.699 429.792C233.367 430.1 232.93 430.344 232.388 430.525C231.851 430.701 231.191 430.789 230.41 430.789H229.106V435H227.861V424.292H230.659ZM230.542 425.354H229.106V429.719H230.271C230.955 429.719 231.523 429.646 231.978 429.5C232.437 429.353 232.781 429.116 233.01 428.789C233.24 428.457 233.354 428.018 233.354 427.471C233.354 426.758 233.127 426.228 232.673 425.881C232.219 425.53 231.509 425.354 230.542 425.354ZM237.917 423.604V427.009C237.917 427.205 237.913 427.402 237.903 427.603C237.893 427.798 237.876 427.979 237.852 428.145H237.932C238.098 427.861 238.308 427.625 238.562 427.434C238.821 427.239 239.114 427.092 239.441 426.995C239.768 426.892 240.115 426.841 240.481 426.841C241.125 426.841 241.663 426.943 242.092 427.148C242.527 427.354 242.852 427.671 243.066 428.101C243.286 428.53 243.396 429.087 243.396 429.771V435H242.195V429.851C242.195 429.182 242.041 428.682 241.733 428.35C241.431 428.018 240.964 427.852 240.334 427.852C239.739 427.852 239.263 427.966 238.906 428.196C238.555 428.42 238.301 428.752 238.145 429.192C237.993 429.631 237.917 430.168 237.917 430.803V435H236.702V423.604H237.917ZM252.822 430.972C252.822 431.631 252.737 432.219 252.566 432.737C252.395 433.254 252.148 433.691 251.826 434.048C251.504 434.404 251.113 434.678 250.654 434.868C250.2 435.054 249.685 435.146 249.109 435.146C248.572 435.146 248.079 435.054 247.629 434.868C247.185 434.678 246.799 434.404 246.472 434.048C246.15 433.691 245.898 433.254 245.718 432.737C245.542 432.219 245.454 431.631 245.454 430.972C245.454 430.093 245.603 429.346 245.901 428.73C246.199 428.11 246.624 427.639 247.175 427.317C247.732 426.99 248.394 426.826 249.16 426.826C249.893 426.826 250.532 426.99 251.079 427.317C251.631 427.644 252.058 428.118 252.361 428.738C252.668 429.353 252.822 430.098 252.822 430.972ZM246.714 430.972C246.714 431.616 246.799 432.175 246.97 432.649C247.141 433.123 247.405 433.489 247.761 433.748C248.118 434.006 248.577 434.136 249.138 434.136C249.695 434.136 250.151 434.006 250.508 433.748C250.869 433.489 251.135 433.123 251.306 432.649C251.477 432.175 251.562 431.616 251.562 430.972C251.562 430.332 251.477 429.78 251.306 429.316C251.135 428.848 250.872 428.486 250.515 428.232C250.159 427.979 249.697 427.852 249.131 427.852C248.296 427.852 247.683 428.127 247.292 428.679C246.907 429.231 246.714 429.995 246.714 430.972ZM258.726 426.826C259.678 426.826 260.398 427.061 260.886 427.529C261.375 427.993 261.619 428.74 261.619 429.771V435H260.417V429.851C260.417 429.182 260.264 428.682 259.956 428.35C259.653 428.018 259.187 427.852 258.557 427.852C257.668 427.852 257.043 428.103 256.682 428.606C256.321 429.109 256.14 429.839 256.14 430.796V435H254.924V426.973H255.906L256.089 428.13H256.155C256.326 427.847 256.543 427.61 256.807 427.419C257.07 427.224 257.366 427.078 257.693 426.98C258.02 426.877 258.364 426.826 258.726 426.826ZM267.214 426.826C267.898 426.826 268.484 426.978 268.972 427.28C269.46 427.583 269.834 428.008 270.093 428.555C270.352 429.097 270.481 429.731 270.481 430.459V431.213H264.937C264.951 432.156 265.186 432.874 265.64 433.367C266.094 433.86 266.733 434.106 267.559 434.106C268.066 434.106 268.516 434.06 268.906 433.967C269.297 433.875 269.702 433.738 270.122 433.557V434.626C269.717 434.807 269.314 434.939 268.914 435.022C268.518 435.105 268.049 435.146 267.507 435.146C266.736 435.146 266.062 434.99 265.486 434.678C264.915 434.36 264.47 433.896 264.153 433.286C263.835 432.676 263.677 431.929 263.677 431.045C263.677 430.181 263.821 429.434 264.109 428.804C264.402 428.169 264.812 427.681 265.339 427.339C265.872 426.997 266.497 426.826 267.214 426.826ZM267.2 427.822C266.55 427.822 266.033 428.035 265.647 428.459C265.261 428.884 265.032 429.478 264.958 430.239H269.207C269.202 429.761 269.126 429.341 268.979 428.979C268.838 428.613 268.621 428.33 268.328 428.13C268.035 427.925 267.659 427.822 267.2 427.822Z" fill="white"/>
<g filter="url(#filter1_d_82_127)">
<path d="M325 275.5H50C43.0964 275.5 37.5 281.096 37.5 288V314C37.5 320.904 43.0964 326.5 50 326.5H325C331.904 326.5 337.5 320.904 337.5 314V288C337.5 281.096 331.904 275.5 325 275.5Z" stroke="#707070" stroke-opacity="0.57"/>
</g>
<path d="M167.771 308H160.732V306.953L163.552 304.118C164.412 303.249 164.978 302.629 165.251 302.258C165.525 301.887 165.73 301.525 165.867 301.174C166.003 300.822 166.072 300.444 166.072 300.039C166.072 299.467 165.898 299.016 165.552 298.684C165.205 298.347 164.724 298.178 164.109 298.178C163.665 298.178 163.242 298.251 162.842 298.398C162.446 298.544 162.004 298.811 161.516 299.196L160.872 298.369C161.858 297.548 162.932 297.138 164.094 297.138C165.1 297.138 165.889 297.397 166.46 297.915C167.031 298.427 167.317 299.118 167.317 299.987C167.317 300.666 167.126 301.337 166.746 302.001C166.365 302.666 165.652 303.505 164.607 304.521L162.263 306.813V306.872H167.771V308ZM175.952 299.812C175.952 300.495 175.759 301.054 175.374 301.489C174.993 301.923 174.451 302.214 173.748 302.36V302.419C174.607 302.526 175.244 302.8 175.659 303.239C176.074 303.679 176.282 304.255 176.282 304.968C176.282 305.988 175.928 306.774 175.22 307.326C174.512 307.873 173.506 308.146 172.202 308.146C171.636 308.146 171.116 308.103 170.642 308.015C170.173 307.932 169.717 307.783 169.272 307.568V306.411C169.736 306.64 170.229 306.816 170.752 306.938C171.279 307.055 171.777 307.114 172.246 307.114C174.097 307.114 175.022 306.389 175.022 304.938C175.022 303.64 174.001 302.99 171.96 302.99H170.906V301.943H171.975C172.81 301.943 173.472 301.76 173.96 301.394C174.448 301.022 174.692 300.51 174.692 299.855C174.692 299.333 174.512 298.923 174.15 298.625C173.794 298.327 173.308 298.178 172.693 298.178C172.224 298.178 171.782 298.242 171.367 298.369C170.952 298.496 170.479 298.73 169.946 299.072L169.331 298.251C169.771 297.905 170.276 297.634 170.847 297.438C171.423 297.238 172.029 297.138 172.664 297.138C173.704 297.138 174.512 297.377 175.088 297.856C175.664 298.33 175.952 298.981 175.952 299.812ZM181.248 301.459C182.375 301.459 183.262 301.74 183.906 302.302C184.556 302.858 184.88 303.623 184.88 304.594C184.88 305.703 184.526 306.572 183.818 307.202C183.115 307.832 182.144 308.146 180.903 308.146C179.697 308.146 178.777 307.954 178.142 307.568V306.396C178.484 306.616 178.909 306.789 179.417 306.916C179.924 307.038 180.425 307.099 180.918 307.099C181.777 307.099 182.444 306.896 182.917 306.491C183.396 306.086 183.635 305.5 183.635 304.733C183.635 303.239 182.72 302.492 180.889 302.492C180.425 302.492 179.805 302.563 179.028 302.705L178.398 302.302L178.801 297.292H184.126V298.413H179.841L179.57 301.628C180.132 301.516 180.691 301.459 181.248 301.459ZM197.925 305.539H196.335V308H195.171V305.539H189.963V304.477L195.046 297.233H196.335V304.433H197.925V305.539ZM195.171 304.433V300.874C195.171 300.175 195.195 299.387 195.244 298.508H195.186C194.951 298.977 194.731 299.365 194.526 299.672L191.179 304.433H195.171ZM202.312 301.459C203.44 301.459 204.326 301.74 204.971 302.302C205.62 302.858 205.945 303.623 205.945 304.594C205.945 305.703 205.591 306.572 204.883 307.202C204.18 307.832 203.208 308.146 201.968 308.146C200.762 308.146 199.841 307.954 199.207 307.568V306.396C199.548 306.616 199.973 306.789 200.481 306.916C200.989 307.038 201.489 307.099 201.982 307.099C202.842 307.099 203.508 306.896 203.982 306.491C204.46 306.086 204.7 305.5 204.7 304.733C204.7 303.239 203.784 302.492 201.953 302.492C201.489 302.492 200.869 302.563 200.093 302.705L199.463 302.302L199.866 297.292H205.19V298.413H200.906L200.635 301.628C201.196 301.516 201.755 301.459 202.312 301.459ZM211.094 297.138C212.07 297.138 212.844 297.365 213.416 297.819C213.987 298.273 214.272 298.901 214.272 299.702C214.272 300.229 214.109 300.71 213.782 301.145C213.455 301.579 212.932 301.975 212.214 302.331C213.083 302.746 213.701 303.183 214.067 303.642C214.434 304.096 214.617 304.624 214.617 305.224C214.617 306.113 214.307 306.823 213.687 307.355C213.066 307.883 212.217 308.146 211.138 308.146C209.995 308.146 209.116 307.897 208.501 307.399C207.886 306.896 207.578 306.186 207.578 305.268C207.578 304.042 208.325 303.088 209.819 302.404C209.146 302.023 208.662 301.613 208.369 301.174C208.076 300.729 207.93 300.234 207.93 299.687C207.93 298.911 208.215 298.293 208.787 297.834C209.363 297.37 210.132 297.138 211.094 297.138ZM208.779 305.297C208.779 305.883 208.982 306.34 209.387 306.667C209.797 306.994 210.371 307.158 211.108 307.158C211.836 307.158 212.402 306.987 212.808 306.645C213.213 306.303 213.416 305.834 213.416 305.239C213.416 304.765 213.225 304.345 212.844 303.979C212.463 303.608 211.799 303.249 210.852 302.902C210.125 303.215 209.597 303.562 209.27 303.942C208.943 304.318 208.779 304.77 208.779 305.297ZM211.079 298.127C210.469 298.127 209.99 298.273 209.644 298.566C209.297 298.859 209.124 299.25 209.124 299.738C209.124 300.188 209.268 300.573 209.556 300.896C209.844 301.218 210.376 301.54 211.152 301.862C211.851 301.569 212.344 301.254 212.632 300.917C212.925 300.581 213.071 300.188 213.071 299.738C213.071 299.245 212.893 298.854 212.537 298.566C212.185 298.273 211.699 298.127 211.079 298.127ZM227.573 305.539H225.984V308H224.819V305.539H219.612V304.477L224.695 297.233H225.984V304.433H227.573V305.539ZM224.819 304.433V300.874C224.819 300.175 224.844 299.387 224.893 298.508H224.834C224.6 298.977 224.38 299.365 224.175 299.672L220.828 304.433H224.819ZM232.158 297.138C233.135 297.138 233.909 297.365 234.48 297.819C235.051 298.273 235.337 298.901 235.337 299.702C235.337 300.229 235.173 300.71 234.846 301.145C234.519 301.579 233.997 301.975 233.279 302.331C234.148 302.746 234.766 303.183 235.132 303.642C235.498 304.096 235.681 304.624 235.681 305.224C235.681 306.113 235.371 306.823 234.751 307.355C234.131 307.883 233.281 308.146 232.202 308.146C231.06 308.146 230.181 307.897 229.565 307.399C228.95 306.896 228.643 306.186 228.643 305.268C228.643 304.042 229.39 303.088 230.884 302.404C230.21 302.023 229.727 301.613 229.434 301.174C229.141 300.729 228.994 300.234 228.994 299.687C228.994 298.911 229.28 298.293 229.851 297.834C230.427 297.37 231.196 297.138 232.158 297.138ZM229.844 305.297C229.844 305.883 230.046 306.34 230.452 306.667C230.862 306.994 231.436 307.158 232.173 307.158C232.9 307.158 233.467 306.987 233.872 306.645C234.277 306.303 234.48 305.834 234.48 305.239C234.48 304.765 234.29 304.345 233.909 303.979C233.528 303.608 232.864 303.249 231.917 302.902C231.189 303.215 230.662 303.562 230.334 303.942C230.007 304.318 229.844 304.77 229.844 305.297ZM232.144 298.127C231.533 298.127 231.055 298.273 230.708 298.566C230.361 298.859 230.188 299.25 230.188 299.738C230.188 300.188 230.332 300.573 230.62 300.896C230.908 301.218 231.44 301.54 232.217 301.862C232.915 301.569 233.408 301.254 233.696 300.917C233.989 300.581 234.136 300.188 234.136 299.738C234.136 299.245 233.958 298.854 233.601 298.566C233.25 298.273 232.764 298.127 232.144 298.127ZM244.236 301.862C244.236 306.052 242.615 308.146 239.373 308.146C238.806 308.146 238.357 308.098 238.025 308V306.953C238.416 307.08 238.86 307.143 239.358 307.143C240.53 307.143 241.414 306.782 242.009 306.059C242.61 305.332 242.937 304.218 242.991 302.719H242.903C242.634 303.125 242.278 303.435 241.833 303.649C241.389 303.859 240.889 303.964 240.332 303.964C239.385 303.964 238.633 303.681 238.076 303.115C237.52 302.548 237.241 301.757 237.241 300.742C237.241 299.628 237.551 298.75 238.171 298.105C238.796 297.46 239.617 297.138 240.632 297.138C241.36 297.138 241.995 297.326 242.537 297.702C243.083 298.073 243.503 298.618 243.796 299.335C244.089 300.048 244.236 300.891 244.236 301.862ZM240.632 298.178C239.934 298.178 239.395 298.403 239.014 298.852C238.633 299.301 238.442 299.926 238.442 300.727C238.442 301.43 238.618 301.984 238.97 302.39C239.321 302.79 239.856 302.99 240.574 302.99C241.018 302.99 241.426 302.9 241.797 302.719C242.173 302.539 242.468 302.292 242.683 301.979C242.898 301.667 243.005 301.34 243.005 300.998C243.005 300.485 242.905 300.012 242.705 299.577C242.505 299.143 242.224 298.801 241.863 298.552C241.506 298.303 241.096 298.178 240.632 298.178ZM249.326 297.138C250.303 297.138 251.077 297.365 251.648 297.819C252.219 298.273 252.505 298.901 252.505 299.702C252.505 300.229 252.341 300.71 252.014 301.145C251.687 301.579 251.165 301.975 250.447 302.331C251.316 302.746 251.934 303.183 252.3 303.642C252.666 304.096 252.849 304.624 252.849 305.224C252.849 306.113 252.539 306.823 251.919 307.355C251.299 307.883 250.449 308.146 249.37 308.146C248.228 308.146 247.349 307.897 246.733 307.399C246.118 306.896 245.811 306.186 245.811 305.268C245.811 304.042 246.558 303.088 248.052 302.404C247.378 302.023 246.895 301.613 246.602 301.174C246.309 300.729 246.162 300.234 246.162 299.687C246.162 298.911 246.448 298.293 247.019 297.834C247.595 297.37 248.364 297.138 249.326 297.138ZM247.012 305.297C247.012 305.883 247.214 306.34 247.62 306.667C248.03 306.994 248.604 307.158 249.341 307.158C250.068 307.158 250.635 306.987 251.04 306.645C251.445 306.303 251.648 305.834 251.648 305.239C251.648 304.765 251.458 304.345 251.077 303.979C250.696 303.608 250.032 303.249 249.084 302.902C248.357 303.215 247.83 303.562 247.502 303.942C247.175 304.318 247.012 304.77 247.012 305.297ZM249.312 298.127C248.701 298.127 248.223 298.273 247.876 298.566C247.529 298.859 247.356 299.25 247.356 299.738C247.356 300.188 247.5 300.573 247.788 300.896C248.076 301.218 248.608 301.54 249.385 301.862C250.083 301.569 250.576 301.254 250.864 300.917C251.157 300.581 251.304 300.188 251.304 299.738C251.304 299.245 251.125 298.854 250.769 298.566C250.417 298.273 249.932 298.127 249.312 298.127Z" fill="black"/>
<g opacity="0.49">
<path opacity="0.49" d="M143 293H142V309H143V293Z" fill="black"/>
<path opacity="0.49" d="M142.5 293.5V308.5V293.5Z" stroke="black"/>
</g>
<path d="M80.6006 303.891C80.6006 302.597 80.7886 301.386 81.1646 300.258C81.5454 299.13 82.0923 298.142 82.8052 297.292H83.9917C83.2886 298.234 82.7588 299.27 82.4023 300.397C82.0508 301.525 81.875 302.685 81.875 303.876C81.875 305.048 82.0557 306.193 82.417 307.312C82.7783 308.43 83.2983 309.45 83.9771 310.373H82.8052C82.0874 309.543 81.5405 308.574 81.1646 307.465C80.7886 306.357 80.6006 305.166 80.6006 303.891ZM89.2212 302.207H92.2388V303.217H89.2212V306.337H88.2031V303.217H85.2002V302.207H88.2031V299.072H89.2212V302.207ZM101.299 305.539H99.7095V308H98.5449V305.539H93.3374V304.477L98.4204 297.233H99.7095V304.433H101.299V305.539ZM98.5449 304.433V300.874C98.5449 300.175 98.5693 299.387 98.6182 298.508H98.5596C98.3252 298.977 98.1055 299.365 97.9004 299.672L94.5532 304.433H98.5449ZM109.883 305.539H108.293V308H107.129V305.539H101.921V304.477L107.004 297.233H108.293V304.433H109.883V305.539ZM107.129 304.433V300.874C107.129 300.175 107.153 299.387 107.202 298.508H107.144C106.909 298.977 106.689 299.365 106.484 299.672L103.137 304.433H107.129ZM114.028 303.891C114.028 305.175 113.838 306.372 113.457 307.48C113.081 308.588 112.537 309.553 111.824 310.373H110.652C111.331 309.455 111.851 308.437 112.212 307.319C112.573 306.196 112.754 305.048 112.754 303.876C112.754 302.685 112.576 301.525 112.219 300.397C111.868 299.27 111.34 298.234 110.637 297.292H111.824C112.542 298.146 113.088 299.14 113.464 300.273C113.84 301.401 114.028 302.607 114.028 303.891Z" fill="black"/>
<path d="M76 293H52V309H76V293Z" fill="#FF0000"/>
<path d="M38.247 172.879C38.247 170.907 38.6917 169.138 39.581 167.572C40.4703 165.987 41.6787 164.749 43.206 163.86C44.7527 162.971 46.4637 162.526 48.339 162.526C50.543 162.526 52.4667 163.058 54.11 164.121C55.7533 165.184 56.952 166.692 57.706 168.645H54.545C53.9843 167.427 53.1723 166.489 52.109 165.832C51.065 165.175 49.8083 164.846 48.339 164.846C46.9277 164.846 45.6613 165.175 44.54 165.832C43.4187 166.489 42.539 167.427 41.901 168.645C41.263 169.844 40.944 171.255 40.944 172.879C40.944 174.484 41.263 175.895 41.901 177.113C42.539 178.312 43.4187 179.24 44.54 179.897C45.6613 180.554 46.9277 180.883 48.339 180.883C49.8083 180.883 51.065 180.564 52.109 179.926C53.1723 179.269 53.9843 178.331 54.545 177.113H57.706C56.952 179.046 55.7533 180.545 54.11 181.608C52.4667 182.652 50.543 183.174 48.339 183.174C46.4637 183.174 44.7527 182.739 43.206 181.869C41.6787 180.98 40.4703 179.752 39.581 178.186C38.6917 176.62 38.247 174.851 38.247 172.879ZM68.5654 183.261C67.0767 183.261 65.7234 182.923 64.5054 182.246C63.3067 181.569 62.3594 180.612 61.6634 179.375C60.9867 178.118 60.6484 176.668 60.6484 175.025C60.6484 173.401 60.9964 171.97 61.6924 170.733C62.4077 169.476 63.3744 168.519 64.5924 167.862C65.8104 167.185 67.1734 166.847 68.6814 166.847C70.1894 166.847 71.5524 167.185 72.7704 167.862C73.9884 168.519 74.9454 169.467 75.6414 170.704C76.3567 171.941 76.7144 173.382 76.7144 175.025C76.7144 176.668 76.347 178.118 75.6124 179.375C74.897 180.612 73.9207 181.569 72.6834 182.246C71.446 182.923 70.0734 183.261 68.5654 183.261ZM68.5654 180.941C69.5127 180.941 70.402 180.719 71.2334 180.274C72.0647 179.829 72.7317 179.162 73.2344 178.273C73.7564 177.384 74.0174 176.301 74.0174 175.025C74.0174 173.749 73.766 172.666 73.2634 171.777C72.7607 170.888 72.1034 170.23 71.2914 169.805C70.4794 169.36 69.5997 169.138 68.6524 169.138C67.6857 169.138 66.7964 169.36 65.9844 169.805C65.1917 170.23 64.5537 170.888 64.0704 171.777C63.587 172.666 63.3454 173.749 63.3454 175.025C63.3454 176.32 63.5774 177.413 64.0414 178.302C64.5247 179.191 65.1627 179.858 65.9554 180.303C66.748 180.728 67.618 180.941 68.5654 180.941ZM87.9272 166.818C89.8605 166.818 91.4265 167.408 92.6252 168.587C93.8238 169.747 94.4232 171.429 94.4232 173.633V183H91.8132V174.01C91.8132 172.425 91.4168 171.216 90.6242 170.385C89.8315 169.534 88.7488 169.109 87.3762 169.109C85.9842 169.109 84.8725 169.544 84.0412 170.414C83.2292 171.284 82.8232 172.55 82.8232 174.213V183H80.1842V167.108H82.8232V169.37C83.3452 168.558 84.0508 167.93 84.9402 167.485C85.8488 167.04 86.8445 166.818 87.9272 166.818ZM101.953 169.283V178.65C101.953 179.423 102.117 179.974 102.446 180.303C102.775 180.612 103.345 180.767 104.157 180.767H106.1V183H103.722C102.253 183 101.151 182.662 100.416 181.985C99.6813 181.308 99.314 180.197 99.314 178.65V169.283H97.255V167.108H99.314V163.106H101.953V167.108H106.1V169.283H101.953ZM110.66 164.527C110.158 164.527 109.732 164.353 109.384 164.005C109.036 163.657 108.862 163.232 108.862 162.729C108.862 162.226 109.036 161.801 109.384 161.453C109.732 161.105 110.158 160.931 110.66 160.931C111.144 160.931 111.55 161.105 111.878 161.453C112.226 161.801 112.4 162.226 112.4 162.729C112.4 163.232 112.226 163.657 111.878 164.005C111.55 164.353 111.144 164.527 110.66 164.527ZM111.936 167.108V183H109.297V167.108H111.936ZM124.177 166.818C126.111 166.818 127.677 167.408 128.875 168.587C130.074 169.747 130.673 171.429 130.673 173.633V183H128.063V174.01C128.063 172.425 127.667 171.216 126.874 170.385C126.082 169.534 124.999 169.109 123.626 169.109C122.234 169.109 121.123 169.544 120.291 170.414C119.479 171.284 119.073 172.55 119.073 174.213V183H116.434V167.108H119.073V169.37C119.595 168.558 120.301 167.93 121.19 167.485C122.099 167.04 123.095 166.818 124.177 166.818ZM149.078 167.108V183H146.439V180.651C145.936 181.463 145.231 182.101 144.322 182.565C143.433 183.01 142.447 183.232 141.364 183.232C140.127 183.232 139.015 182.981 138.029 182.478C137.043 181.956 136.26 181.183 135.68 180.158C135.119 179.133 134.839 177.886 134.839 176.417V167.108H137.449V176.069C137.449 177.635 137.845 178.843 138.638 179.694C139.431 180.525 140.513 180.941 141.886 180.941C143.297 180.941 144.409 180.506 145.221 179.636C146.033 178.766 146.439 177.5 146.439 175.837V167.108H149.078ZM168.034 174.445C168.034 174.948 168.005 175.479 167.947 176.04H155.245C155.341 177.606 155.873 178.834 156.84 179.723C157.826 180.593 159.015 181.028 160.407 181.028C161.547 181.028 162.495 180.767 163.249 180.245C164.022 179.704 164.563 178.988 164.873 178.099H167.715C167.289 179.626 166.439 180.873 165.163 181.84C163.887 182.787 162.301 183.261 160.407 183.261C158.899 183.261 157.545 182.923 156.347 182.246C155.167 181.569 154.239 180.612 153.563 179.375C152.886 178.118 152.548 176.668 152.548 175.025C152.548 173.382 152.876 171.941 153.534 170.704C154.191 169.467 155.109 168.519 156.289 167.862C157.487 167.185 158.86 166.847 160.407 166.847C161.915 166.847 163.249 167.176 164.409 167.833C165.569 168.49 166.458 169.399 167.077 170.559C167.715 171.7 168.034 172.995 168.034 174.445ZM165.308 173.894C165.308 172.889 165.085 172.028 164.641 171.313C164.196 170.578 163.587 170.027 162.814 169.66C162.06 169.273 161.219 169.08 160.291 169.08C158.957 169.08 157.816 169.505 156.869 170.356C155.941 171.207 155.409 172.386 155.274 173.894H165.308ZM200.419 167.108L195.46 183H192.734L188.906 170.385L185.078 183H182.352L177.364 167.108H180.061L183.715 180.448L187.659 167.108H190.356L194.213 180.477L197.809 167.108H200.419ZM204.401 164.527C203.898 164.527 203.473 164.353 203.125 164.005C202.777 163.657 202.603 163.232 202.603 162.729C202.603 162.226 202.777 161.801 203.125 161.453C203.473 161.105 203.898 160.931 204.401 160.931C204.884 160.931 205.29 161.105 205.619 161.453C205.967 161.801 206.141 162.226 206.141 162.729C206.141 163.232 205.967 163.657 205.619 164.005C205.29 164.353 204.884 164.527 204.401 164.527ZM205.677 167.108V183H203.038V167.108H205.677ZM213.393 169.283V178.65C213.393 179.423 213.558 179.974 213.886 180.303C214.215 180.612 214.785 180.767 215.597 180.767H217.54V183H215.162C213.693 183 212.591 182.662 211.856 181.985C211.122 181.308 210.754 180.197 210.754 178.65V169.283H208.695V167.108H210.754V163.106H213.393V167.108H217.54V169.283H213.393ZM228.626 166.818C229.825 166.818 230.907 167.079 231.874 167.601C232.841 168.104 233.595 168.867 234.136 169.892C234.697 170.917 234.977 172.164 234.977 173.633V183H232.367V174.01C232.367 172.425 231.971 171.216 231.178 170.385C230.385 169.534 229.303 169.109 227.93 169.109C226.538 169.109 225.426 169.544 224.595 170.414C223.783 171.284 223.377 172.55 223.377 174.213V183H220.738V161.54H223.377V169.37C223.899 168.558 224.614 167.93 225.523 167.485C226.451 167.04 227.485 166.818 228.626 166.818ZM260.533 168.703C260.533 170.385 259.953 171.787 258.793 172.908C257.652 174.01 255.903 174.561 253.544 174.561H249.658V183H247.019V162.787H253.544C255.825 162.787 257.556 163.338 258.735 164.44C259.934 165.542 260.533 166.963 260.533 168.703ZM253.544 172.386C255.013 172.386 256.096 172.067 256.792 171.429C257.488 170.791 257.836 169.882 257.836 168.703C257.836 166.209 256.405 164.962 253.544 164.962H249.658V172.386H253.544ZM271.701 166.818C272.9 166.818 273.982 167.079 274.949 167.601C275.916 168.104 276.67 168.867 277.211 169.892C277.772 170.917 278.052 172.164 278.052 173.633V183H275.442V174.01C275.442 172.425 275.046 171.216 274.253 170.385C273.46 169.534 272.378 169.109 271.005 169.109C269.613 169.109 268.501 169.544 267.67 170.414C266.858 171.284 266.452 172.55 266.452 174.213V183H263.813V161.54H266.452V169.37C266.974 168.558 267.689 167.93 268.598 167.485C269.526 167.04 270.56 166.818 271.701 166.818ZM289.294 183.261C287.805 183.261 286.452 182.923 285.234 182.246C284.035 181.569 283.088 180.612 282.392 179.375C281.715 178.118 281.377 176.668 281.377 175.025C281.377 173.401 281.725 171.97 282.421 170.733C283.136 169.476 284.103 168.519 285.321 167.862C286.539 167.185 287.902 166.847 289.41 166.847C290.918 166.847 292.281 167.185 293.499 167.862C294.717 168.519 295.674 169.467 296.37 170.704C297.085 171.941 297.443 173.382 297.443 175.025C297.443 176.668 297.076 178.118 296.341 179.375C295.626 180.612 294.649 181.569 293.412 182.246C292.175 182.923 290.802 183.261 289.294 183.261ZM289.294 180.941C290.241 180.941 291.131 180.719 291.962 180.274C292.793 179.829 293.46 179.162 293.963 178.273C294.485 177.384 294.746 176.301 294.746 175.025C294.746 173.749 294.495 172.666 293.992 171.777C293.489 170.888 292.832 170.23 292.02 169.805C291.208 169.36 290.328 169.138 289.381 169.138C288.414 169.138 287.525 169.36 286.713 169.805C285.92 170.23 285.282 170.888 284.799 171.777C284.316 172.666 284.074 173.749 284.074 175.025C284.074 176.32 284.306 177.413 284.77 178.302C285.253 179.191 285.891 179.858 286.684 180.303C287.477 180.728 288.347 180.941 289.294 180.941ZM308.656 166.818C310.589 166.818 312.155 167.408 313.354 168.587C314.552 169.747 315.152 171.429 315.152 173.633V183H312.542V174.01C312.542 172.425 312.145 171.216 311.353 170.385C310.56 169.534 309.477 169.109 308.105 169.109C306.713 169.109 305.601 169.544 304.77 170.414C303.958 171.284 303.552 172.55 303.552 174.213V183H300.913V167.108H303.552V169.37C304.074 168.558 304.779 167.93 305.669 167.485C306.577 167.04 307.573 166.818 308.656 166.818ZM333.962 174.445C333.962 174.948 333.933 175.479 333.875 176.04H321.173C321.27 177.606 321.802 178.834 322.768 179.723C323.754 180.593 324.943 181.028 326.335 181.028C327.476 181.028 328.423 180.767 329.177 180.245C329.951 179.704 330.492 178.988 330.801 178.099H333.643C333.218 179.626 332.367 180.873 331.091 181.84C329.815 182.787 328.23 183.261 326.335 183.261C324.827 183.261 323.474 182.923 322.275 182.246C321.096 181.569 320.168 180.612 319.491 179.375C318.815 178.118 318.476 176.668 318.476 175.025C318.476 173.382 318.805 171.941 319.462 170.704C320.12 169.467 321.038 168.519 322.217 167.862C323.416 167.185 324.789 166.847 326.335 166.847C327.843 166.847 329.177 167.176 330.337 167.833C331.497 168.49 332.387 169.399 333.005 170.559C333.643 171.7 333.962 172.995 333.962 174.445ZM331.236 173.894C331.236 172.889 331.014 172.028 330.569 171.313C330.125 170.578 329.516 170.027 328.742 169.66C327.988 169.273 327.147 169.08 326.219 169.08C324.885 169.08 323.745 169.505 322.797 170.356C321.869 171.207 321.338 172.386 321.202 173.894H331.236Z" fill="black"/>
<path opacity="0.57" d="M43.37 213L39.352 208.548V213H38.078V203.242H39.352V207.764L43.384 203.242H44.994L40.57 208.128L45.036 213H43.37ZM47.1169 204.082C46.8742 204.082 46.6689 203.998 46.5009 203.83C46.3329 203.662 46.2489 203.457 46.2489 203.214C46.2489 202.971 46.3329 202.766 46.5009 202.598C46.6689 202.43 46.8742 202.346 47.1169 202.346C47.3502 202.346 47.5462 202.43 47.7049 202.598C47.8729 202.766 47.9569 202.971 47.9569 203.214C47.9569 203.457 47.8729 203.662 47.7049 203.83C47.5462 203.998 47.3502 204.082 47.1169 204.082ZM47.7329 205.328V213H46.4589V205.328H47.7329ZM53.6422 205.188C54.5755 205.188 55.3315 205.473 55.9102 206.042C56.4888 206.602 56.7782 207.414 56.7782 208.478V213H55.5182V208.66C55.5182 207.895 55.3268 207.311 54.9442 206.91C54.5615 206.499 54.0388 206.294 53.3762 206.294C52.7042 206.294 52.1675 206.504 51.7662 206.924C51.3742 207.344 51.1782 207.955 51.1782 208.758V213H49.9042V205.328H51.1782V206.42C51.4302 206.028 51.7708 205.725 52.2002 205.51C52.6388 205.295 53.1195 205.188 53.6422 205.188ZM58.3833 209.136C58.3833 208.352 58.5419 207.666 58.8593 207.078C59.1766 206.481 59.6106 206.019 60.1613 205.692C60.7213 205.365 61.3466 205.202 62.0373 205.202C62.6346 205.202 63.1899 205.342 63.7033 205.622C64.2166 205.893 64.6086 206.252 64.8793 206.7V202.64H66.1673V213H64.8793V211.558C64.6273 212.015 64.2539 212.393 63.7593 212.692C63.2646 212.981 62.6859 213.126 62.0233 213.126C61.3419 213.126 60.7213 212.958 60.1613 212.622C59.6106 212.286 59.1766 211.815 58.8593 211.208C58.5419 210.601 58.3833 209.911 58.3833 209.136ZM64.8793 209.15C64.8793 208.571 64.7626 208.067 64.5293 207.638C64.2959 207.209 63.9786 206.882 63.5773 206.658C63.1853 206.425 62.7513 206.308 62.2753 206.308C61.7993 206.308 61.3653 206.42 60.9733 206.644C60.5813 206.868 60.2686 207.195 60.0353 207.624C59.8019 208.053 59.6853 208.557 59.6853 209.136C59.6853 209.724 59.8019 210.237 60.0353 210.676C60.2686 211.105 60.5813 211.437 60.9733 211.67C61.3653 211.894 61.7993 212.006 62.2753 212.006C62.7513 212.006 63.1853 211.894 63.5773 211.67C63.9786 211.437 64.2959 211.105 64.5293 210.676C64.7626 210.237 64.8793 209.729 64.8793 209.15ZM69.5942 202.64V213H68.3202V202.64H69.5942ZM78.3735 205.328L73.7535 216.612H72.4375L73.9495 212.916L70.8555 205.328H72.2695L74.6775 211.544L77.0575 205.328H78.3735ZM90.3866 208.87C90.3866 209.113 90.3726 209.369 90.3446 209.64H84.2126C84.2593 210.396 84.5159 210.989 84.9826 211.418C85.4586 211.838 86.0326 212.048 86.7046 212.048C87.2553 212.048 87.7126 211.922 88.0766 211.67C88.4499 211.409 88.7113 211.063 88.8606 210.634H90.2326C90.0273 211.371 89.6166 211.973 89.0006 212.44C88.3846 212.897 87.6193 213.126 86.7046 213.126C85.9766 213.126 85.3233 212.963 84.7446 212.636C84.1753 212.309 83.7273 211.847 83.4006 211.25C83.0739 210.643 82.9106 209.943 82.9106 209.15C82.9106 208.357 83.0693 207.661 83.3866 207.064C83.7039 206.467 84.1473 206.009 84.7166 205.692C85.2953 205.365 85.9579 205.202 86.7046 205.202C87.4326 205.202 88.0766 205.361 88.6366 205.678C89.1966 205.995 89.6259 206.434 89.9246 206.994C90.2326 207.545 90.3866 208.17 90.3866 208.87ZM89.0706 208.604C89.0706 208.119 88.9633 207.703 88.7486 207.358C88.5339 207.003 88.2399 206.737 87.8666 206.56C87.5026 206.373 87.0966 206.28 86.6486 206.28C86.0046 206.28 85.4539 206.485 84.9966 206.896C84.5486 207.307 84.2919 207.876 84.2266 208.604H89.0706ZM95.8062 205.188C96.7396 205.188 97.4956 205.473 98.0742 206.042C98.6529 206.602 98.9422 207.414 98.9422 208.478V213H97.6822V208.66C97.6822 207.895 97.4909 207.311 97.1082 206.91C96.7256 206.499 96.2029 206.294 95.5402 206.294C94.8682 206.294 94.3316 206.504 93.9302 206.924C93.5382 207.344 93.3422 207.955 93.3422 208.758V213H92.0682V205.328H93.3422V206.42C93.5942 206.028 93.9349 205.725 94.3642 205.51C94.8029 205.295 95.2836 205.188 95.8062 205.188ZM102.577 206.378V210.9C102.577 211.273 102.657 211.539 102.815 211.698C102.974 211.847 103.249 211.922 103.641 211.922H104.579V213H103.431C102.722 213 102.19 212.837 101.835 212.51C101.481 212.183 101.303 211.647 101.303 210.9V206.378H100.309V205.328H101.303V203.396H102.577V205.328H104.579V206.378H102.577ZM113.123 208.87C113.123 209.113 113.109 209.369 113.081 209.64H106.949C106.996 210.396 107.252 210.989 107.719 211.418C108.195 211.838 108.769 212.048 109.441 212.048C109.992 212.048 110.449 211.922 110.813 211.67C111.186 211.409 111.448 211.063 111.597 210.634H112.969C112.764 211.371 112.353 211.973 111.737 212.44C111.121 212.897 110.356 213.126 109.441 213.126C108.713 213.126 108.06 212.963 107.481 212.636C106.912 212.309 106.464 211.847 106.137 211.25C105.81 210.643 105.647 209.943 105.647 209.15C105.647 208.357 105.806 207.661 106.123 207.064C106.44 206.467 106.884 206.009 107.453 205.692C108.032 205.365 108.694 205.202 109.441 205.202C110.169 205.202 110.813 205.361 111.373 205.678C111.933 205.995 112.362 206.434 112.661 206.994C112.969 207.545 113.123 208.17 113.123 208.87ZM111.807 208.604C111.807 208.119 111.7 207.703 111.485 207.358C111.27 207.003 110.976 206.737 110.603 206.56C110.239 206.373 109.833 206.28 109.385 206.28C108.741 206.28 108.19 206.485 107.733 206.896C107.285 207.307 107.028 207.876 106.963 208.604H111.807ZM116.079 206.574C116.303 206.135 116.62 205.795 117.031 205.552C117.451 205.309 117.959 205.188 118.557 205.188V206.504H118.221C116.793 206.504 116.079 207.279 116.079 208.828V213H114.805V205.328H116.079V206.574ZM130.368 205.328L125.748 216.612H124.432L125.944 212.916L122.85 205.328H124.264L126.672 211.544L129.052 205.328H130.368ZM134.994 213.126C134.276 213.126 133.622 212.963 133.034 212.636C132.456 212.309 131.998 211.847 131.662 211.25C131.336 210.643 131.172 209.943 131.172 209.15C131.172 208.366 131.34 207.675 131.676 207.078C132.022 206.471 132.488 206.009 133.076 205.692C133.664 205.365 134.322 205.202 135.05 205.202C135.778 205.202 136.436 205.365 137.024 205.692C137.612 206.009 138.074 206.467 138.41 207.064C138.756 207.661 138.928 208.357 138.928 209.15C138.928 209.943 138.751 210.643 138.396 211.25C138.051 211.847 137.58 212.309 136.982 212.636C136.385 212.963 135.722 213.126 134.994 213.126ZM134.994 212.006C135.452 212.006 135.881 211.899 136.282 211.684C136.684 211.469 137.006 211.147 137.248 210.718C137.5 210.289 137.626 209.766 137.626 209.15C137.626 208.534 137.505 208.011 137.262 207.582C137.02 207.153 136.702 206.835 136.31 206.63C135.918 206.415 135.494 206.308 135.036 206.308C134.57 206.308 134.14 206.415 133.748 206.63C133.366 206.835 133.058 207.153 132.824 207.582C132.591 208.011 132.474 208.534 132.474 209.15C132.474 209.775 132.586 210.303 132.81 210.732C133.044 211.161 133.352 211.483 133.734 211.698C134.117 211.903 134.537 212.006 134.994 212.006ZM147.407 205.328V213H146.133V211.866C145.891 212.258 145.55 212.566 145.111 212.79C144.682 213.005 144.206 213.112 143.683 213.112C143.086 213.112 142.549 212.991 142.073 212.748C141.597 212.496 141.219 212.123 140.939 211.628C140.669 211.133 140.533 210.531 140.533 209.822V205.328H141.793V209.654C141.793 210.41 141.985 210.993 142.367 211.404C142.75 211.805 143.273 212.006 143.935 212.006C144.617 212.006 145.153 211.796 145.545 211.376C145.937 210.956 146.133 210.345 146.133 209.542V205.328H147.407ZM150.832 206.574C151.056 206.135 151.374 205.795 151.784 205.552C152.204 205.309 152.713 205.188 153.31 205.188V206.504H152.974C151.546 206.504 150.832 207.279 150.832 208.828V213H149.558V205.328H150.832V206.574ZM159.788 206.742C160.04 206.303 160.413 205.939 160.908 205.65C161.412 205.351 161.995 205.202 162.658 205.202C163.339 205.202 163.955 205.365 164.506 205.692C165.066 206.019 165.504 206.481 165.822 207.078C166.139 207.666 166.298 208.352 166.298 209.136C166.298 209.911 166.139 210.601 165.822 211.208C165.504 211.815 165.066 212.286 164.506 212.622C163.955 212.958 163.339 213.126 162.658 213.126C162.004 213.126 161.426 212.981 160.922 212.692C160.427 212.393 160.049 212.025 159.788 211.586V216.64H158.514V205.328H159.788V206.742ZM164.996 209.136C164.996 208.557 164.879 208.053 164.646 207.624C164.412 207.195 164.095 206.868 163.694 206.644C163.302 206.42 162.868 206.308 162.392 206.308C161.925 206.308 161.491 206.425 161.09 206.658C160.698 206.882 160.38 207.213 160.138 207.652C159.904 208.081 159.788 208.581 159.788 209.15C159.788 209.729 159.904 210.237 160.138 210.676C160.38 211.105 160.698 211.437 161.09 211.67C161.491 211.894 161.925 212.006 162.392 212.006C162.868 212.006 163.302 211.894 163.694 211.67C164.095 211.437 164.412 211.105 164.646 210.676C164.879 210.237 164.996 209.724 164.996 209.136ZM171.782 205.188C172.361 205.188 172.884 205.314 173.35 205.566C173.817 205.809 174.181 206.177 174.442 206.672C174.713 207.167 174.848 207.769 174.848 208.478V213H173.588V208.66C173.588 207.895 173.397 207.311 173.014 206.91C172.632 206.499 172.109 206.294 171.446 206.294C170.774 206.294 170.238 206.504 169.836 206.924C169.444 207.344 169.248 207.955 169.248 208.758V213H167.974V202.64H169.248V206.42C169.5 206.028 169.846 205.725 170.284 205.51C170.732 205.295 171.232 205.188 171.782 205.188ZM180.276 213.126C179.557 213.126 178.904 212.963 178.316 212.636C177.737 212.309 177.28 211.847 176.944 211.25C176.617 210.643 176.454 209.943 176.454 209.15C176.454 208.366 176.622 207.675 176.958 207.078C177.303 206.471 177.77 206.009 178.358 205.692C178.946 205.365 179.604 205.202 180.332 205.202C181.06 205.202 181.718 205.365 182.306 205.692C182.894 206.009 183.356 206.467 183.692 207.064C184.037 207.661 184.21 208.357 184.21 209.15C184.21 209.943 184.032 210.643 183.678 211.25C183.332 211.847 182.861 212.309 182.264 212.636C181.666 212.963 181.004 213.126 180.276 213.126ZM180.276 212.006C180.733 212.006 181.162 211.899 181.564 211.684C181.965 211.469 182.287 211.147 182.53 210.718C182.782 210.289 182.908 209.766 182.908 209.15C182.908 208.534 182.786 208.011 182.544 207.582C182.301 207.153 181.984 206.835 181.592 206.63C181.2 206.415 180.775 206.308 180.318 206.308C179.851 206.308 179.422 206.415 179.03 206.63C178.647 206.835 178.339 207.153 178.106 207.582C177.872 208.011 177.756 208.534 177.756 209.15C177.756 209.775 177.868 210.303 178.092 210.732C178.325 211.161 178.633 211.483 179.016 211.698C179.398 211.903 179.818 212.006 180.276 212.006ZM189.623 205.188C190.556 205.188 191.312 205.473 191.891 206.042C192.469 206.602 192.759 207.414 192.759 208.478V213H191.499V208.66C191.499 207.895 191.307 207.311 190.925 206.91C190.542 206.499 190.019 206.294 189.357 206.294C188.685 206.294 188.148 206.504 187.747 206.924C187.355 207.344 187.159 207.955 187.159 208.758V213H185.885V205.328H187.159V206.42C187.411 206.028 187.751 205.725 188.181 205.51C188.619 205.295 189.1 205.188 189.623 205.188ZM201.84 208.87C201.84 209.113 201.826 209.369 201.798 209.64H195.666C195.712 210.396 195.969 210.989 196.436 211.418C196.912 211.838 197.486 212.048 198.158 212.048C198.708 212.048 199.166 211.922 199.53 211.67C199.903 211.409 200.164 211.063 200.314 210.634H201.686C201.48 211.371 201.07 211.973 200.454 212.44C199.838 212.897 199.072 213.126 198.158 213.126C197.43 213.126 196.776 212.963 196.198 212.636C195.628 212.309 195.18 211.847 194.854 211.25C194.527 210.643 194.364 209.943 194.364 209.15C194.364 208.357 194.522 207.661 194.84 207.064C195.157 206.467 195.6 206.009 196.17 205.692C196.748 205.365 197.411 205.202 198.158 205.202C198.886 205.202 199.53 205.361 200.09 205.678C200.65 205.995 201.079 206.434 201.378 206.994C201.686 207.545 201.84 208.17 201.84 208.87ZM200.524 208.604C200.524 208.119 200.416 207.703 200.202 207.358C199.987 207.003 199.693 206.737 199.32 206.56C198.956 206.373 198.55 206.28 198.102 206.28C197.458 206.28 196.907 206.485 196.45 206.896C196.002 207.307 195.745 207.876 195.68 208.604H200.524ZM210.992 205.188C211.925 205.188 212.681 205.473 213.26 206.042C213.838 206.602 214.128 207.414 214.128 208.478V213H212.868V208.66C212.868 207.895 212.676 207.311 212.294 206.91C211.911 206.499 211.388 206.294 210.726 206.294C210.054 206.294 209.517 206.504 209.116 206.924C208.724 207.344 208.528 207.955 208.528 208.758V213H207.254V205.328H208.528V206.42C208.78 206.028 209.12 205.725 209.55 205.51C209.988 205.295 210.469 205.188 210.992 205.188ZM223.013 205.328V213H221.739V211.866C221.496 212.258 221.156 212.566 220.717 212.79C220.288 213.005 219.812 213.112 219.289 213.112C218.692 213.112 218.155 212.991 217.679 212.748C217.203 212.496 216.825 212.123 216.545 211.628C216.274 211.133 216.139 210.531 216.139 209.822V205.328H217.399V209.654C217.399 210.41 217.59 210.993 217.973 211.404C218.356 211.805 218.878 212.006 219.541 212.006C220.222 212.006 220.759 211.796 221.151 211.376C221.543 210.956 221.739 210.345 221.739 209.542V205.328H223.013ZM234.39 205.188C234.987 205.188 235.519 205.314 235.986 205.566C236.453 205.809 236.821 206.177 237.092 206.672C237.363 207.167 237.498 207.769 237.498 208.478V213H236.238V208.66C236.238 207.895 236.047 207.311 235.664 206.91C235.291 206.499 234.782 206.294 234.138 206.294C233.475 206.294 232.948 206.509 232.556 206.938C232.164 207.358 231.968 207.969 231.968 208.772V213H230.708V208.66C230.708 207.895 230.517 207.311 230.134 206.91C229.761 206.499 229.252 206.294 228.608 206.294C227.945 206.294 227.418 206.509 227.026 206.938C226.634 207.358 226.438 207.969 226.438 208.772V213H225.164V205.328H226.438V206.434C226.69 206.033 227.026 205.725 227.446 205.51C227.875 205.295 228.347 205.188 228.86 205.188C229.504 205.188 230.073 205.333 230.568 205.622C231.063 205.911 231.431 206.336 231.674 206.896C231.889 206.355 232.243 205.935 232.738 205.636C233.233 205.337 233.783 205.188 234.39 205.188ZM240.862 206.756C241.123 206.299 241.506 205.925 242.01 205.636C242.514 205.347 243.088 205.202 243.732 205.202C244.422 205.202 245.043 205.365 245.594 205.692C246.144 206.019 246.578 206.481 246.896 207.078C247.213 207.666 247.372 208.352 247.372 209.136C247.372 209.911 247.213 210.601 246.896 211.208C246.578 211.815 246.14 212.286 245.58 212.622C245.029 212.958 244.413 213.126 243.732 213.126C243.069 213.126 242.486 212.981 241.982 212.692C241.487 212.403 241.114 212.034 240.862 211.586V213H239.588V202.64H240.862V206.756ZM246.07 209.136C246.07 208.557 245.953 208.053 245.72 207.624C245.486 207.195 245.169 206.868 244.768 206.644C244.376 206.42 243.942 206.308 243.466 206.308C242.999 206.308 242.565 206.425 242.164 206.658C241.772 206.882 241.454 207.213 241.212 207.652C240.978 208.081 240.862 208.581 240.862 209.15C240.862 209.729 240.978 210.237 241.212 210.676C241.454 211.105 241.772 211.437 242.164 211.67C242.565 211.894 242.999 212.006 243.466 212.006C243.942 212.006 244.376 211.894 244.768 211.67C245.169 211.437 245.486 211.105 245.72 210.676C245.953 210.237 246.07 209.724 246.07 209.136ZM256.049 208.87C256.049 209.113 256.035 209.369 256.007 209.64H249.875C249.921 210.396 250.178 210.989 250.645 211.418C251.121 211.838 251.695 212.048 252.367 212.048C252.917 212.048 253.375 211.922 253.739 211.67C254.112 211.409 254.373 211.063 254.523 210.634H255.895C255.689 211.371 255.279 211.973 254.663 212.44C254.047 212.897 253.281 213.126 252.367 213.126C251.639 213.126 250.985 212.963 250.407 212.636C249.837 212.309 249.389 211.847 249.063 211.25C248.736 210.643 248.573 209.943 248.573 209.15C248.573 208.357 248.731 207.661 249.049 207.064C249.366 206.467 249.809 206.009 250.379 205.692C250.957 205.365 251.62 205.202 252.367 205.202C253.095 205.202 253.739 205.361 254.299 205.678C254.859 205.995 255.288 206.434 255.587 206.994C255.895 207.545 256.049 208.17 256.049 208.87ZM254.733 208.604C254.733 208.119 254.625 207.703 254.411 207.358C254.196 207.003 253.902 206.737 253.529 206.56C253.165 206.373 252.759 206.28 252.311 206.28C251.667 206.28 251.116 206.485 250.659 206.896C250.211 207.307 249.954 207.876 249.889 208.604H254.733ZM259.004 206.574C259.228 206.135 259.546 205.795 259.956 205.552C260.376 205.309 260.885 205.188 261.482 205.188V206.504H261.146C259.718 206.504 259.004 207.279 259.004 208.828V213H257.73V205.328H259.004V206.574ZM263.359 213.084C263.116 213.084 262.911 213 262.743 212.832C262.575 212.664 262.491 212.459 262.491 212.216C262.491 211.973 262.575 211.768 262.743 211.6C262.911 211.432 263.116 211.348 263.359 211.348C263.592 211.348 263.788 211.432 263.947 211.6C264.115 211.768 264.199 211.973 264.199 212.216C264.199 212.459 264.115 212.664 263.947 212.832C263.788 213 263.592 213.084 263.359 213.084ZM276.112 205.328L273.718 213H272.402L270.554 206.91L268.706 213H267.39L264.982 205.328H266.284L268.048 211.768L269.952 205.328H271.254L273.116 211.782L274.852 205.328H276.112ZM284.377 208.87C284.377 209.113 284.363 209.369 284.335 209.64H278.203C278.249 210.396 278.506 210.989 278.973 211.418C279.449 211.838 280.023 212.048 280.695 212.048C281.245 212.048 281.703 211.922 282.067 211.67C282.44 211.409 282.701 211.063 282.851 210.634H284.223C284.017 211.371 283.607 211.973 282.991 212.44C282.375 212.897 281.609 213.126 280.695 213.126C279.967 213.126 279.313 212.963 278.735 212.636C278.165 212.309 277.717 211.847 277.391 211.25C277.064 210.643 276.901 209.943 276.901 209.15C276.901 208.357 277.059 207.661 277.377 207.064C277.694 206.467 278.137 206.009 278.707 205.692C279.285 205.365 279.948 205.202 280.695 205.202C281.423 205.202 282.067 205.361 282.627 205.678C283.187 205.995 283.616 206.434 283.915 206.994C284.223 207.545 284.377 208.17 284.377 208.87ZM283.061 208.604C283.061 208.119 282.953 207.703 282.739 207.358C282.524 207.003 282.23 206.737 281.857 206.56C281.493 206.373 281.087 206.28 280.639 206.28C279.995 206.28 279.444 206.485 278.987 206.896C278.539 207.307 278.282 207.876 278.217 208.604H283.061ZM300.011 205.328L297.617 213H296.301L294.453 206.91L292.605 213H291.289L288.881 205.328H290.183L291.947 211.768L293.851 205.328H295.153L297.015 211.782L298.751 205.328H300.011ZM301.933 204.082C301.691 204.082 301.485 203.998 301.317 203.83C301.149 203.662 301.065 203.457 301.065 203.214C301.065 202.971 301.149 202.766 301.317 202.598C301.485 202.43 301.691 202.346 301.933 202.346C302.167 202.346 302.363 202.43 302.521 202.598C302.689 202.766 302.773 202.971 302.773 203.214C302.773 203.457 302.689 203.662 302.521 203.83C302.363 203.998 302.167 204.082 301.933 204.082ZM302.549 205.328V213H301.275V205.328H302.549ZM305.995 202.64V213H304.721V202.64H305.995ZM309.44 202.64V213H308.166V202.64H309.44ZM40.794 234.126C40.206 234.126 39.6787 234.028 39.212 233.832C38.7453 233.627 38.3767 233.347 38.106 232.992C37.8353 232.628 37.686 232.213 37.658 231.746H38.974C39.0113 232.129 39.1887 232.441 39.506 232.684C39.8327 232.927 40.2573 233.048 40.78 233.048C41.2653 233.048 41.648 232.941 41.928 232.726C42.208 232.511 42.348 232.241 42.348 231.914C42.348 231.578 42.1987 231.331 41.9 231.172C41.6013 231.004 41.1393 230.841 40.514 230.682C39.9447 230.533 39.478 230.383 39.114 230.234C38.7593 230.075 38.4513 229.847 38.19 229.548C37.938 229.24 37.812 228.839 37.812 228.344C37.812 227.952 37.9287 227.593 38.162 227.266C38.3953 226.939 38.7267 226.683 39.156 226.496C39.5853 226.3 40.0753 226.202 40.626 226.202C41.4753 226.202 42.1613 226.417 42.684 226.846C43.2067 227.275 43.4867 227.863 43.524 228.61H42.25C42.222 228.209 42.0587 227.887 41.76 227.644C41.4707 227.401 41.0787 227.28 40.584 227.28C40.1267 227.28 39.7627 227.378 39.492 227.574C39.2213 227.77 39.086 228.027 39.086 228.344C39.086 228.596 39.1653 228.806 39.324 228.974C39.492 229.133 39.6973 229.263 39.94 229.366C40.192 229.459 40.5373 229.567 40.976 229.688C41.5267 229.837 41.9747 229.987 42.32 230.136C42.6653 230.276 42.9593 230.491 43.202 230.78C43.454 231.069 43.5847 231.447 43.594 231.914C43.594 232.334 43.4773 232.712 43.244 233.048C43.0107 233.384 42.6793 233.65 42.25 233.846C41.83 234.033 41.3447 234.126 40.794 234.126ZM52.3925 229.87C52.3925 230.113 52.3785 230.369 52.3505 230.64H46.2185C46.2651 231.396 46.5218 231.989 46.9885 232.418C47.4645 232.838 48.0385 233.048 48.7105 233.048C49.2611 233.048 49.7185 232.922 50.0825 232.67C50.4558 232.409 50.7171 232.063 50.8665 231.634H52.2385C52.0331 232.371 51.6225 232.973 51.0065 233.44C50.3905 233.897 49.6251 234.126 48.7105 234.126C47.9825 234.126 47.3291 233.963 46.7505 233.636C46.1811 233.309 45.7331 232.847 45.4065 232.25C45.0798 231.643 44.9165 230.943 44.9165 230.15C44.9165 229.357 45.0751 228.661 45.3925 228.064C45.7098 227.467 46.1531 227.009 46.7225 226.692C47.3011 226.365 47.9638 226.202 48.7105 226.202C49.4385 226.202 50.0825 226.361 50.6425 226.678C51.2025 226.995 51.6318 227.434 51.9305 227.994C52.2385 228.545 52.3925 229.17 52.3925 229.87ZM51.0765 229.604C51.0765 229.119 50.9691 228.703 50.7545 228.358C50.5398 228.003 50.2458 227.737 49.8725 227.56C49.5085 227.373 49.1025 227.28 48.6545 227.28C48.0105 227.28 47.4598 227.485 47.0025 227.896C46.5545 228.307 46.2978 228.876 46.2325 229.604H51.0765ZM57.8121 226.188C58.7454 226.188 59.5014 226.473 60.0801 227.042C60.6588 227.602 60.9481 228.414 60.9481 229.478V234H59.6881V229.66C59.6881 228.895 59.4968 228.311 59.1141 227.91C58.7314 227.499 58.2088 227.294 57.5461 227.294C56.8741 227.294 56.3374 227.504 55.9361 227.924C55.5441 228.344 55.3481 228.955 55.3481 229.758V234H54.0741V226.328H55.3481V227.42C55.6001 227.028 55.9408 226.725 56.3701 226.51C56.8088 226.295 57.2894 226.188 57.8121 226.188ZM62.5532 230.136C62.5532 229.352 62.7118 228.666 63.0292 228.078C63.3465 227.481 63.7805 227.019 64.3312 226.692C64.8912 226.365 65.5165 226.202 66.2072 226.202C66.8045 226.202 67.3598 226.342 67.8732 226.622C68.3865 226.893 68.7785 227.252 69.0492 227.7V223.64H70.3372V234H69.0492V232.558C68.7972 233.015 68.4238 233.393 67.9292 233.692C67.4345 233.981 66.8558 234.126 66.1932 234.126C65.5118 234.126 64.8912 233.958 64.3312 233.622C63.7805 233.286 63.3465 232.815 63.0292 232.208C62.7118 231.601 62.5532 230.911 62.5532 230.136ZM69.0492 230.15C69.0492 229.571 68.9325 229.067 68.6992 228.638C68.4658 228.209 68.1485 227.882 67.7472 227.658C67.3552 227.425 66.9212 227.308 66.4452 227.308C65.9692 227.308 65.5352 227.42 65.1432 227.644C64.7512 227.868 64.4385 228.195 64.2052 228.624C63.9718 229.053 63.8552 229.557 63.8552 230.136C63.8552 230.724 63.9718 231.237 64.2052 231.676C64.4385 232.105 64.7512 232.437 65.1432 232.67C65.5352 232.894 65.9692 233.006 66.4452 233.006C66.9212 233.006 67.3552 232.894 67.7472 232.67C68.1485 232.437 68.4658 232.105 68.6992 231.676C68.9325 231.237 69.0492 230.729 69.0492 230.15ZM76.8805 225.082C76.6379 225.082 76.4325 224.998 76.2645 224.83C76.0965 224.662 76.0125 224.457 76.0125 224.214C76.0125 223.971 76.0965 223.766 76.2645 223.598C76.4325 223.43 76.6379 223.346 76.8805 223.346C77.1139 223.346 77.3099 223.43 77.4685 223.598C77.6365 223.766 77.7205 223.971 77.7205 224.214C77.7205 224.457 77.6365 224.662 77.4685 224.83C77.3099 224.998 77.1139 225.082 76.8805 225.082ZM77.4965 226.328V234H76.2225V226.328H77.4965ZM83.4058 226.188C84.3392 226.188 85.0952 226.473 85.6738 227.042C86.2525 227.602 86.5418 228.414 86.5418 229.478V234H85.2818V229.66C85.2818 228.895 85.0905 228.311 84.7078 227.91C84.3252 227.499 83.8025 227.294 83.1398 227.294C82.4678 227.294 81.9312 227.504 81.5298 227.924C81.1378 228.344 80.9418 228.955 80.9418 229.758V234H79.6678V226.328H80.9418V227.42C81.1938 227.028 81.5345 226.725 81.9638 226.51C82.4025 226.295 82.8832 226.188 83.4058 226.188ZM91.8793 230.136C91.8793 229.352 92.038 228.666 92.3553 228.078C92.6727 227.481 93.1067 227.019 93.6573 226.692C94.2173 226.365 94.838 226.202 95.5193 226.202C96.1913 226.202 96.7747 226.347 97.2693 226.636C97.764 226.925 98.1327 227.289 98.3753 227.728V226.328H99.6633V234H98.3753V232.572C98.1233 233.02 97.7453 233.393 97.2413 233.692C96.7467 233.981 96.168 234.126 95.5053 234.126C94.824 234.126 94.208 233.958 93.6573 233.622C93.1067 233.286 92.6727 232.815 92.3553 232.208C92.038 231.601 91.8793 230.911 91.8793 230.136ZM98.3753 230.15C98.3753 229.571 98.2587 229.067 98.0253 228.638C97.792 228.209 97.4747 227.882 97.0733 227.658C96.6813 227.425 96.2473 227.308 95.7713 227.308C95.2953 227.308 94.8613 227.42 94.4693 227.644C94.0773 227.868 93.7647 228.195 93.5313 228.624C93.298 229.053 93.1813 229.557 93.1813 230.136C93.1813 230.724 93.298 231.237 93.5313 231.676C93.7647 232.105 94.0773 232.437 94.4693 232.67C94.8613 232.894 95.2953 233.006 95.7713 233.006C96.2473 233.006 96.6813 232.894 97.0733 232.67C97.4747 232.437 97.792 232.105 98.0253 231.676C98.2587 231.237 98.3753 230.729 98.3753 230.15ZM105.554 226.188C106.488 226.188 107.244 226.473 107.822 227.042C108.401 227.602 108.69 228.414 108.69 229.478V234H107.43V229.66C107.43 228.895 107.239 228.311 106.856 227.91C106.474 227.499 105.951 227.294 105.288 227.294C104.616 227.294 104.08 227.504 103.678 227.924C103.286 228.344 103.09 228.955 103.09 229.758V234H101.816V226.328H103.09V227.42C103.342 227.028 103.683 226.725 104.112 226.51C104.551 226.295 105.032 226.188 105.554 226.188ZM117.85 234.126C117.131 234.126 116.478 233.963 115.89 233.636C115.311 233.309 114.854 232.847 114.518 232.25C114.191 231.643 114.028 230.943 114.028 230.15C114.028 229.366 114.196 228.675 114.532 228.078C114.877 227.471 115.344 227.009 115.932 226.692C116.52 226.365 117.178 226.202 117.906 226.202C118.634 226.202 119.292 226.365 119.88 226.692C120.468 227.009 120.93 227.467 121.266 228.064C121.611 228.661 121.784 229.357 121.784 230.15C121.784 230.943 121.606 231.643 121.252 232.25C120.906 232.847 120.435 233.309 119.838 233.636C119.24 233.963 118.578 234.126 117.85 234.126ZM117.85 233.006C118.307 233.006 118.736 232.899 119.138 232.684C119.539 232.469 119.861 232.147 120.104 231.718C120.356 231.289 120.482 230.766 120.482 230.15C120.482 229.534 120.36 229.011 120.118 228.582C119.875 228.153 119.558 227.835 119.166 227.63C118.774 227.415 118.349 227.308 117.892 227.308C117.425 227.308 116.996 227.415 116.604 227.63C116.221 227.835 115.913 228.153 115.68 228.582C115.446 229.011 115.33 229.534 115.33 230.15C115.33 230.775 115.442 231.303 115.666 231.732C115.899 232.161 116.207 232.483 116.59 232.698C116.972 232.903 117.392 233.006 117.85 233.006ZM124.733 227.742C124.985 227.303 125.358 226.939 125.853 226.65C126.357 226.351 126.94 226.202 127.603 226.202C128.284 226.202 128.9 226.365 129.451 226.692C130.011 227.019 130.45 227.481 130.767 228.078C131.084 228.666 131.243 229.352 131.243 230.136C131.243 230.911 131.084 231.601 130.767 232.208C130.45 232.815 130.011 233.286 129.451 233.622C128.9 233.958 128.284 234.126 127.603 234.126C126.95 234.126 126.371 233.981 125.867 233.692C125.372 233.393 124.994 233.025 124.733 232.586V237.64H123.459V226.328H124.733V227.742ZM129.941 230.136C129.941 229.557 129.824 229.053 129.591 228.624C129.358 228.195 129.04 227.868 128.639 227.644C128.247 227.42 127.813 227.308 127.337 227.308C126.87 227.308 126.436 227.425 126.035 227.658C125.643 227.882 125.326 228.213 125.083 228.652C124.85 229.081 124.733 229.581 124.733 230.15C124.733 230.729 124.85 231.237 125.083 231.676C125.326 232.105 125.643 232.437 126.035 232.67C126.436 232.894 126.87 233.006 127.337 233.006C127.813 233.006 128.247 232.894 128.639 232.67C129.04 232.437 129.358 232.105 129.591 231.676C129.824 231.237 129.941 230.724 129.941 230.136ZM134.474 227.378V231.9C134.474 232.273 134.553 232.539 134.712 232.698C134.87 232.847 135.146 232.922 135.538 232.922H136.476V234H135.328C134.618 234 134.086 233.837 133.732 233.51C133.377 233.183 133.2 232.647 133.2 231.9V227.378H132.206V226.328H133.2V224.396H134.474V226.328H136.476V227.378H134.474ZM143.306 227.378V231.9C143.306 232.273 143.385 232.539 143.544 232.698C143.702 232.847 143.978 232.922 144.37 232.922H145.308V234H144.16C143.45 234 142.918 233.837 142.564 233.51C142.209 233.183 142.032 232.647 142.032 231.9V227.378H141.038V226.328H142.032V224.396H143.306V226.328H145.308V227.378H143.306ZM150.197 234.126C149.479 234.126 148.825 233.963 148.237 233.636C147.659 233.309 147.201 232.847 146.865 232.25C146.539 231.643 146.375 230.943 146.375 230.15C146.375 229.366 146.543 228.675 146.879 228.078C147.225 227.471 147.691 227.009 148.279 226.692C148.867 226.365 149.525 226.202 150.253 226.202C150.981 226.202 151.639 226.365 152.227 226.692C152.815 227.009 153.277 227.467 153.613 228.064C153.959 228.661 154.131 229.357 154.131 230.15C154.131 230.943 153.954 231.643 153.599 232.25C153.254 232.847 152.783 233.309 152.185 233.636C151.588 233.963 150.925 234.126 150.197 234.126ZM150.197 233.006C150.655 233.006 151.084 232.899 151.485 232.684C151.887 232.469 152.209 232.147 152.451 231.718C152.703 231.289 152.829 230.766 152.829 230.15C152.829 229.534 152.708 229.011 152.465 228.582C152.223 228.153 151.905 227.835 151.513 227.63C151.121 227.415 150.697 227.308 150.239 227.308C149.773 227.308 149.343 227.415 148.951 227.63C148.569 227.835 148.261 228.153 148.027 228.582C147.794 229.011 147.677 229.534 147.677 230.15C147.677 230.775 147.789 231.303 148.013 231.732C148.247 232.161 148.555 232.483 148.937 232.698C149.32 232.903 149.74 233.006 150.197 233.006ZM162.395 232.824L164.775 226.328H166.133L163.123 234H161.639L158.629 226.328H160.001L162.395 232.824ZM174.387 229.87C174.387 230.113 174.373 230.369 174.345 230.64H168.213C168.259 231.396 168.516 231.989 168.983 232.418C169.459 232.838 170.033 233.048 170.705 233.048C171.255 233.048 171.713 232.922 172.077 232.67C172.45 232.409 172.711 232.063 172.861 231.634H174.233C174.027 232.371 173.617 232.973 173.001 233.44C172.385 233.897 171.619 234.126 170.705 234.126C169.977 234.126 169.323 233.963 168.745 233.636C168.175 233.309 167.727 232.847 167.401 232.25C167.074 231.643 166.911 230.943 166.911 230.15C166.911 229.357 167.069 228.661 167.387 228.064C167.704 227.467 168.147 227.009 168.717 226.692C169.295 226.365 169.958 226.202 170.705 226.202C171.433 226.202 172.077 226.361 172.637 226.678C173.197 226.995 173.626 227.434 173.925 227.994C174.233 228.545 174.387 229.17 174.387 229.87ZM173.071 229.604C173.071 229.119 172.963 228.703 172.749 228.358C172.534 228.003 172.24 227.737 171.867 227.56C171.503 227.373 171.097 227.28 170.649 227.28C170.005 227.28 169.454 227.485 168.997 227.896C168.549 228.307 168.292 228.876 168.227 229.604H173.071ZM177.342 227.574C177.566 227.135 177.884 226.795 178.294 226.552C178.714 226.309 179.223 226.188 179.82 226.188V227.504H179.484C178.056 227.504 177.342 228.279 177.342 229.828V234H176.068V226.328H177.342V227.574ZM181.949 225.082C181.706 225.082 181.501 224.998 181.333 224.83C181.165 224.662 181.081 224.457 181.081 224.214C181.081 223.971 181.165 223.766 181.333 223.598C181.501 223.43 181.706 223.346 181.949 223.346C182.182 223.346 182.378 223.43 182.537 223.598C182.705 223.766 182.789 223.971 182.789 224.214C182.789 224.457 182.705 224.662 182.537 224.83C182.378 224.998 182.182 225.082 181.949 225.082ZM182.565 226.328V234H181.291V226.328H182.565ZM187.858 227.378H186.248V234H184.974V227.378H183.98V226.328H184.974V225.782C184.974 224.923 185.194 224.298 185.632 223.906C186.08 223.505 186.794 223.304 187.774 223.304V224.368C187.214 224.368 186.818 224.48 186.584 224.704C186.36 224.919 186.248 225.278 186.248 225.782V226.328H187.858V227.378ZM195.952 226.328L191.332 237.612H190.016L191.528 233.916L188.434 226.328H189.848L192.256 232.544L194.636 226.328H195.952ZM201.623 225.082C201.38 225.082 201.175 224.998 201.007 224.83C200.839 224.662 200.755 224.457 200.755 224.214C200.755 223.971 200.839 223.766 201.007 223.598C201.175 223.43 201.38 223.346 201.623 223.346C201.856 223.346 202.052 223.43 202.211 223.598C202.379 223.766 202.463 223.971 202.463 224.214C202.463 224.457 202.379 224.662 202.211 224.83C202.052 224.998 201.856 225.082 201.623 225.082ZM202.239 226.328V234H200.965V226.328H202.239ZM205.964 227.378V231.9C205.964 232.273 206.043 232.539 206.202 232.698C206.361 232.847 206.636 232.922 207.028 232.922H207.966V234H206.818C206.109 234 205.577 233.837 205.222 233.51C204.867 233.183 204.69 232.647 204.69 231.9V227.378H203.696V226.328H204.69V224.396H205.964V226.328H207.966V227.378H205.964ZM212.226 234.126C211.638 234.126 211.11 234.028 210.644 233.832C210.177 233.627 209.808 233.347 209.538 232.992C209.267 232.628 209.118 232.213 209.09 231.746H210.406C210.443 232.129 210.62 232.441 210.938 232.684C211.264 232.927 211.689 233.048 212.212 233.048C212.697 233.048 213.08 232.941 213.36 232.726C213.64 232.511 213.78 232.241 213.78 231.914C213.78 231.578 213.63 231.331 213.332 231.172C213.033 231.004 212.571 230.841 211.946 230.682C211.376 230.533 210.91 230.383 210.546 230.234C210.191 230.075 209.883 229.847 209.622 229.548C209.37 229.24 209.244 228.839 209.244 228.344C209.244 227.952 209.36 227.593 209.594 227.266C209.827 226.939 210.158 226.683 210.588 226.496C211.017 226.3 211.507 226.202 212.058 226.202C212.907 226.202 213.593 226.417 214.116 226.846C214.638 227.275 214.918 227.863 214.956 228.61H213.682C213.654 228.209 213.49 227.887 213.192 227.644C212.902 227.401 212.51 227.28 212.016 227.28C211.558 227.28 211.194 227.378 210.924 227.574C210.653 227.77 210.518 228.027 210.518 228.344C210.518 228.596 210.597 228.806 210.756 228.974C210.924 229.133 211.129 229.263 211.372 229.366C211.624 229.459 211.969 229.567 212.408 229.688C212.958 229.837 213.406 229.987 213.752 230.136C214.097 230.276 214.391 230.491 214.634 230.78C214.886 231.069 215.016 231.447 215.026 231.914C215.026 232.334 214.909 232.712 214.676 233.048C214.442 233.384 214.111 233.65 213.682 233.846C213.262 234.033 212.776 234.126 212.226 234.126ZM227.165 226.328L222.545 237.612H221.229L222.741 233.916L219.647 226.328H221.061L223.469 232.544L225.849 226.328H227.165ZM231.791 234.126C231.073 234.126 230.419 233.963 229.831 233.636C229.253 233.309 228.795 232.847 228.459 232.25C228.133 231.643 227.969 230.943 227.969 230.15C227.969 229.366 228.137 228.675 228.473 228.078C228.819 227.471 229.285 227.009 229.873 226.692C230.461 226.365 231.119 226.202 231.847 226.202C232.575 226.202 233.233 226.365 233.821 226.692C234.409 227.009 234.871 227.467 235.207 228.064C235.553 228.661 235.725 229.357 235.725 230.15C235.725 230.943 235.548 231.643 235.193 232.25C234.848 232.847 234.377 233.309 233.779 233.636C233.182 233.963 232.519 234.126 231.791 234.126ZM231.791 233.006C232.249 233.006 232.678 232.899 233.079 232.684C233.481 232.469 233.803 232.147 234.045 231.718C234.297 231.289 234.423 230.766 234.423 230.15C234.423 229.534 234.302 229.011 234.059 228.582C233.817 228.153 233.499 227.835 233.107 227.63C232.715 227.415 232.291 227.308 231.833 227.308C231.367 227.308 230.937 227.415 230.545 227.63C230.163 227.835 229.855 228.153 229.621 228.582C229.388 229.011 229.271 229.534 229.271 230.15C229.271 230.775 229.383 231.303 229.607 231.732C229.841 232.161 230.149 232.483 230.531 232.698C230.914 232.903 231.334 233.006 231.791 233.006ZM244.204 226.328V234H242.93V232.866C242.688 233.258 242.347 233.566 241.908 233.79C241.479 234.005 241.003 234.112 240.48 234.112C239.883 234.112 239.346 233.991 238.87 233.748C238.394 233.496 238.016 233.123 237.736 232.628C237.466 232.133 237.33 231.531 237.33 230.822V226.328H238.59V230.654C238.59 231.41 238.782 231.993 239.164 232.404C239.547 232.805 240.07 233.006 240.732 233.006C241.414 233.006 241.95 232.796 242.342 232.376C242.734 231.956 242.93 231.345 242.93 230.542V226.328H244.204Z" fill="black"/>
</g>
<defs>
<filter id="filter0_d_82_127" x="31" y="399" width="313" height="64" filterUnits="userSpaceOnUse" color-interpolation-filters="sRGB">
<feFlood flood-opacity="0" result="BackgroundImageFix"/>
<feColorMatrix in="SourceAlpha" type="matrix" values="0 0 0 0 0 0 0 0 0 0 0 0 0 0 0 0 0 0 127 0" result="hardAlpha"/>
<feOffset dy="3"/>
<feGaussianBlur stdDeviation="3"/>
<feColorMatrix type="matrix" values="0 0 0 0 0 0 0 0 0 0 0 0 0 0 0 0 0 0 0.161 0"/>
<feBlend mode="normal" in2="BackgroundImageFix" result="effect1_dropShadow_82_127"/>
<feBlend mode="normal" in="SourceGraphic" in2="effect1_dropShadow_82_127" result="shape"/>
</filter>
<filter id="filter1_d_82_127" x="31" y="272" width="313" height="64" filterUnits="userSpaceOnUse" color-interpolation-filters="sRGB">
<feFlood flood-opacity="0" result="BackgroundImageFix"/>
<feColorMatrix in="SourceAlpha" type="matrix" values="0 0 0 0 0 0 0 0 0 0 0 0 0 0 0 0 0 0 127 0" result="hardAlpha"/>
<feOffset dy="3"/>
<feGaussianBlur stdDeviation="3"/>
<feColorMatrix type="matrix" values="0 0 0 0 0 0 0 0 0 0 0 0 0 0 0 0 0 0 0.161 0"/>
<feBlend mode="normal" in2="BackgroundImageFix" result="effect1_dropShadow_82_127"/>
<feBlend mode="normal" in="SourceGraphic" in2="effect1_dropShadow_82_127" result="shape"/>
</filter>
<clipPath id="clip0_82_127">
<rect width="375" height="812" fill="white"/>
</clipPath>
</defs>
</svg>
