<svg width="375" height="812" viewBox="0 0 375 812" fill="none" xmlns="http://www.w3.org/2000/svg">
<g clip-path="url(#clip0_2_2)">
<rect width="375" height="812" fill="#F82E4B"/>
<path d="M375 0H0V812H375V0Z" fill="#F82E4B"/>
<path d="M91.622 499H96.942V481.748L104.086 499H108.114L115.22 481.748V499H120.54V472.476H114.536L106.1 492.198L97.664 472.476H91.622V499ZM124.432 488.398C124.432 494.972 128.688 499.342 134.008 499.342C137.352 499.342 139.746 497.746 141 495.922V499H146.358V477.948H141V480.95C139.746 479.202 137.428 477.606 134.046 477.606C128.688 477.606 124.432 481.824 124.432 488.398ZM141 488.474C141 492.464 138.34 494.668 135.414 494.668C132.564 494.668 129.866 492.388 129.866 488.398C129.866 484.408 132.564 482.28 135.414 482.28C138.34 482.28 141 484.484 141 488.474ZM150.186 488.398C150.186 494.972 154.442 499.342 159.8 499.342C163.106 499.342 165.5 497.708 166.754 495.884V499.152C166.754 503.066 164.474 504.738 161.548 504.738C158.888 504.738 156.912 503.484 156.38 501.584H151.098C151.63 506.41 155.772 509.374 161.7 509.374C168.616 509.374 172.112 504.852 172.112 499.152V477.948H166.754V480.95C165.5 479.126 163.106 477.606 159.8 477.606C154.442 477.606 150.186 481.824 150.186 488.398ZM166.754 488.474C166.754 492.464 164.094 494.668 161.168 494.668C158.318 494.668 155.62 492.388 155.62 488.398C155.62 484.408 158.318 482.28 161.168 482.28C164.094 482.28 166.754 484.484 166.754 488.474ZM192.052 499H197.372V486.65C197.372 480.836 193.876 477.644 188.974 477.644C186.276 477.644 183.996 478.784 182.628 480.57V477.948H177.308V499H182.628V487.372C182.628 483.99 184.49 482.166 187.378 482.166C190.19 482.166 192.052 483.99 192.052 487.372V499ZM202.431 499H207.751V477.948H202.431V499ZM205.129 475.44C206.991 475.44 208.397 474.072 208.397 472.324C208.397 470.576 206.991 469.208 205.129 469.208C203.229 469.208 201.861 470.576 201.861 472.324C201.861 474.072 203.229 475.44 205.129 475.44ZM213.843 492.464C213.843 497.29 216.541 499 220.569 499H223.913V494.516H221.443C219.771 494.516 219.201 493.908 219.201 492.502V482.318H223.913V477.948H219.201V472.742H213.843V477.948H211.335V482.318H213.843V492.464ZM247.613 477.948H242.255V489.538C242.255 492.92 240.431 494.744 237.543 494.744C234.731 494.744 232.869 492.92 232.869 489.538V477.948H227.549V490.298C227.549 496.074 231.083 499.266 235.985 499.266C238.607 499.266 240.925 498.126 242.255 496.34V499H247.613V477.948ZM251.494 488.398C251.494 494.972 255.75 499.342 261.108 499.342C264.414 499.342 266.77 497.822 268.024 495.884V499H273.42V470.88H268.024V480.874C266.58 478.898 263.92 477.606 261.146 477.606C255.75 477.606 251.494 481.824 251.494 488.398ZM268.062 488.474C268.062 492.464 265.402 494.668 262.476 494.668C259.626 494.668 256.928 492.388 256.928 488.398C256.928 484.408 259.626 482.28 262.476 482.28C265.402 482.28 268.062 484.484 268.062 488.474ZM287.66 481.976C290.396 481.976 292.6 483.724 292.676 486.498H282.682C283.1 483.61 285.114 481.976 287.66 481.976ZM297.654 492.388H291.916C291.232 493.794 289.978 494.934 287.698 494.934C285.038 494.934 282.91 493.186 282.644 490.07H298.034C298.148 489.386 298.186 488.702 298.186 488.018C298.186 481.748 293.892 477.606 287.812 477.606C281.58 477.606 277.248 481.824 277.248 488.474C277.248 495.086 281.694 499.342 287.812 499.342C293.018 499.342 296.514 496.264 297.654 492.388Z" fill="white"/>
<g filter="url(#filter0_d_2_2)">
<path d="M211 326H157C144.297 326 134 336.297 134 349V403C134 415.703 144.297 426 157 426H211C223.703 426 234 415.703 234 403V349C234 336.297 223.703 326 211 326Z" fill="#F82E4B"/>
</g>
<g filter="url(#filter1_d_2_2)">
<path d="M196 326H157C144.297 326 134 336.297 134 349V388C134 400.703 144.297 411 157 411H196C208.703 411 219 400.703 219 388V349C219 336.297 208.703 326 196 326Z" fill="#FB546C"/>
</g>
<g filter="url(#filter2_d_2_2)">
<path d="M181 326H157C144.297 326 134 336.297 134 349V373C134 385.703 144.297 396 157 396H181C193.703 396 204 385.703 204 373V349C204 336.297 193.703 326 181 326Z" fill="#FC7084"/>
</g>
<g filter="url(#filter3_d_2_2)">
<path d="M166 326H157C144.297 326 134 336.297 134 349V358C134 370.703 144.297 381 157 381H166C178.703 381 189 370.703 189 358V349C189 336.297 178.703 326 166 326Z" fill="#F28E9C"/>
</g>
</g>
<defs>
<filter id="filter0_d_2_2" x="128" y="323" width="112" height="112" filterUnits="userSpaceOnUse" color-interpolation-filters="sRGB">
<feFlood flood-opacity="0" result="BackgroundImageFix"/>
<feColorMatrix in="SourceAlpha" type="matrix" values="0 0 0 0 0 0 0 0 0 0 0 0 0 0 0 0 0 0 127 0" result="hardAlpha"/>
<feOffset dy="3"/>
<feGaussianBlur stdDeviation="3"/>
<feColorMatrix type="matrix" values="0 0 0 0 0 0 0 0 0 0 0 0 0 0 0 0 0 0 0.161 0"/>
<feBlend mode="normal" in2="BackgroundImageFix" result="effect1_dropShadow_2_2"/>
<feBlend mode="normal" in="SourceGraphic" in2="effect1_dropShadow_2_2" result="shape"/>
</filter>
<filter id="filter1_d_2_2" x="128" y="323" width="97" height="97" filterUnits="userSpaceOnUse" color-interpolation-filters="sRGB">
<feFlood flood-opacity="0" result="BackgroundImageFix"/>
<feColorMatrix in="SourceAlpha" type="matrix" values="0 0 0 0 0 0 0 0 0 0 0 0 0 0 0 0 0 0 127 0" result="hardAlpha"/>
<feOffset dy="3"/>
<feGaussianBlur stdDeviation="3"/>
<feColorMatrix type="matrix" values="0 0 0 0 0 0 0 0 0 0 0 0 0 0 0 0 0 0 0.161 0"/>
<feBlend mode="normal" in2="BackgroundImageFix" result="effect1_dropShadow_2_2"/>
<feBlend mode="normal" in="SourceGraphic" in2="effect1_dropShadow_2_2" result="shape"/>
</filter>
<filter id="filter2_d_2_2" x="128" y="323" width="82" height="82" filterUnits="userSpaceOnUse" color-interpolation-filters="sRGB">
<feFlood flood-opacity="0" result="BackgroundImageFix"/>
<feColorMatrix in="SourceAlpha" type="matrix" values="0 0 0 0 0 0 0 0 0 0 0 0 0 0 0 0 0 0 127 0" result="hardAlpha"/>
<feOffset dy="3"/>
<feGaussianBlur stdDeviation="3"/>
<feColorMatrix type="matrix" values="0 0 0 0 0 0 0 0 0 0 0 0 0 0 0 0 0 0 0.161 0"/>
<feBlend mode="normal" in2="BackgroundImageFix" result="effect1_dropShadow_2_2"/>
<feBlend mode="normal" in="SourceGraphic" in2="effect1_dropShadow_2_2" result="shape"/>
</filter>
<filter id="filter3_d_2_2" x="128" y="323" width="67" height="67" filterUnits="userSpaceOnUse" color-interpolation-filters="sRGB">
<feFlood flood-opacity="0" result="BackgroundImageFix"/>
<feColorMatrix in="SourceAlpha" type="matrix" values="0 0 0 0 0 0 0 0 0 0 0 0 0 0 0 0 0 0 127 0" result="hardAlpha"/>
<feOffset dy="3"/>
<feGaussianBlur stdDeviation="3"/>
<feColorMatrix type="matrix" values="0 0 0 0 0 0 0 0 0 0 0 0 0 0 0 0 0 0 0.161 0"/>
<feBlend mode="normal" in2="BackgroundImageFix" result="effect1_dropShadow_2_2"/>
<feBlend mode="normal" in="SourceGraphic" in2="effect1_dropShadow_2_2" result="shape"/>
</filter>
<clipPath id="clip0_2_2">
<rect width="375" height="812" fill="white"/>
</clipPath>
</defs>
</svg>
