<svg width="375" height="812" viewBox="0 0 375 812" fill="none" xmlns="http://www.w3.org/2000/svg">
<g clip-path="url(#clip0_3_174)">
<path d="M375 0H0V812H375V0Z" fill="white"/>
<path d="M-118.345 -84H451.564V812H-118.345V-84Z" fill="#F1F1F1"/>
<path d="M247.879 812L233.026 774.632L205.49 781.3L201.606 812H195.436L205.149 735.145L188.349 736.962L157.503 811.9H144.593L160.816 772.412L123.797 764.737L103.574 810.484L107.574 811.999H96.3741L106.429 789.277L66.2111 775.643C60.2087 788.114 53.5346 800.251 46.2181 812H32.0501C50.3301 784.127 64.2691 752.618 73.7501 726.965L-12.8569 721.108L4.28607 812H-8.05392L-13.5369 783.016L-63.2369 790.49L-63.6939 796.348L-53.2989 812H-60.3829L-64.4959 805.84L-64.9529 812H-71.0089L-69.2949 791.4L-105.626 796.85L-104.371 811.9H-116.596L-116.826 809.1V636.537L-105.971 603.754L-116.826 602.939V592.2L-102.544 593.255L-88.3759 550.43L-116.826 538.3V518.549L-109.284 521.749L-83.0059 439.949L-107.799 427.624L-116.826 452.138V434.806L-113.512 425.806L-116.826 425.316V419.9L-111.57 420.651L-93.8599 372.579L-116.826 364.313V358.467L-92.0319 367.432L-60.2679 281.388L-116.826 286.149V275.275L-31.5899 268.159L-92.6029 206.25C-96.7719 206.6 -108.441 207.638 -116.826 208.3V203.032L-94.5449 201.1L-96.8259 170.9L-116.826 173.157V155.075L-99.1159 153.129L-103.226 130.2C-108.206 130.891 -112.877 131.544 -116.826 132.084V126.551L-104.143 124.851L-108.37 101.724L-116.826 102.7V97.281L-109.399 96.367L-115.112 64.659L-116.826 64.807V54.07L-69.0659 50.016L-76.6079 2.55C-89.3259 4.873 -102.859 6.648 -116.826 7.981V-2.8C-114.487 -3.022 -112.163 -3.25867 -109.856 -3.51L-113.398 -46.23L-116.826 -46.6V-57.5L-114.426 -57.241L-116.596 -83.9H-104.371L-97.7439 -5.025C-90.6599 -6.035 -83.8049 -7.045 -77.1779 -8.358L-71.0089 -83.9H-64.9519L-71.0089 -9.671C-52.9559 -13.508 -37.1889 -18.659 -25.0779 -25.627C-24.2779 -26.132 -23.3639 -26.738 -22.4499 -27.242L-60.2679 -83.9H-53.1839L-37.0739 -59.762L-6.56792 -75.82L-8.05293 -83.9H4.28607L9.77407 -54.713C17.9852 -63.8163 25.4355 -73.5781 32.0501 -83.9H46.2171C44.5031 -81.072 42.6747 -78.244 40.7321 -75.416L86.5501 -61.378L96.4901 -83.9H107.69L139.682 -72.083L144.592 -83.9H157.502L156.474 -81.274L193.836 -71.074L195.436 -83.9H201.606L199.664 -69.458L228.913 -61.378C232.913 -62.388 242.967 -64.913 254.279 -67.639L247.764 -84H254.164C256.564 -78.042 258.62 -72.69 260.106 -69.053C269.475 -71.377 278.958 -73.699 286.042 -75.416L281.355 -83.9H303.974L306.031 -80.365L319.86 -83.9H363.392C342.368 -78.548 322.945 -73.5 311.405 -70.568L330.829 -35.524L376.187 -42.291L370.361 -83.9H382.586L388.299 -44.008L434.687 -50.977L441.543 -83.9H453.083V-41.012L449.997 -26.536L453.083 -25.736V-20.2L449.312 -21.185L453.083 -13.985V11.609L445.313 -3.206L428.29 78.794C433.532 81.8724 438.051 86.0399 441.544 91.015L453.084 84.878V91.239L444.4 95.861C446.766 100.743 448.015 106.09 448.056 111.515C448.056 112.323 447.942 113.03 447.942 113.837L453.083 114.689V132.942L442 131.107C435.6 140.907 424.4 148.074 411.265 150.094L394.241 197.06L453.083 207.492V213L426.004 208.17C425.319 212.007 423.947 219.38 422.463 227.358L453.083 230.936V236.362L421.548 232.61C420.178 240.184 418.806 247.657 417.892 252.51L453.084 258.385V269.3L415.608 263.109L401.668 319.463L453.083 277V284.451L400.753 327.543L421.662 350.164L453.082 333.676V346.1L429.431 358.541L447.031 377.427L453.087 374.261V380.575L450.802 381.77L453.087 384.241V392.679L424.174 361.373L363.164 393.388L453.083 407.677V425.912L429.432 422.172L418.007 482.262L453.084 489.641V495.164L416.974 487.513L410.232 523.163C425.314 525.678 439.923 528.194 453.079 530.42V541.34L424.514 536.495L415.374 592.746L443.374 597.8L453.087 562.03V585.339L449.43 598.809L453.087 599.462V610.462L413.787 603.455L408.417 636.48L453.091 644.27V649.653L407.503 641.732L400.99 682.132L453.09 690.022V700.961L399.275 692.837L392.875 732.526L453.089 739.802V750.567L426.924 747.373L420.297 786.053L448.29 778.884L453.09 756.123V811.9H441.315L445.774 790.69C431.148 794.527 406.698 800.79 381.904 807.152L382.589 811.898H370.361L370.133 810.181C367.847 810.787 365.677 811.292 363.393 811.898H319.86L369.904 799.173L374.36 771.298L293.695 793.415L303.974 812H281.355L257.362 768.776L238.853 773.22C241.48 779.885 248.564 797.76 254.277 812.001L247.879 812ZM382.586 795.841L413.778 787.863L420.748 746.863L391.041 743.228L382.586 795.841ZM-109.284 753.626L-106.084 791.498L-14.5659 777.662L-20.7359 745.142L-109.284 753.626ZM280.328 769.38L290.953 788.468L321.46 779.984L315.747 760.392L280.328 769.38ZM68.6121 770.593L108.712 784.125L117.853 763.525L75.6931 754.739C73.5251 759.989 71.1251 765.24 68.6121 770.593ZM321.574 758.978L327.287 778.469L375.274 765.341L378.588 744.541L321.574 758.978ZM211.317 734.438L206.174 775.542L254.618 763.827L236.681 731.509L211.317 734.438ZM130.31 755.138L165.043 762.309L176.011 735.445L154.074 727.469L130.31 755.138ZM258.962 730.8L274.957 759.583L380.53 732.921L383.73 713.328L276.786 699.7L258.962 730.8ZM79.9221 744.636L123.911 753.724L149.505 723.932L124.825 686.767L99.6891 686.161C94.2164 706.013 87.6167 725.537 79.9221 744.638V744.636ZM-112.598 713.432L-110.198 742.82L-22.6779 734.438L-27.8189 707.069L-112.598 713.432ZM190.751 731.409L233.94 726.46L219.54 700.606C214.977 701.951 210.243 702.632 205.486 702.626C204.533 702.645 203.579 702.612 202.63 702.526L190.751 731.409ZM157.96 723.026L178.183 730.398L190.638 700.198C187.322 699.203 184.138 697.813 181.154 696.057L157.96 723.026ZM236.796 691.012L255.535 724.743L283.874 675.458L249.141 670.206C247.426 678.31 243.087 685.622 236.796 691.011V691.012ZM-13.8809 715.552L75.6961 721.611C81.0661 706.563 84.9501 694.04 87.2361 685.86L-19.9369 683.134L-13.8809 715.552ZM153.619 719.389L176.471 692.829C174.532 691.386 172.734 689.762 171.1 687.981L132.025 686.971L153.619 719.389ZM-112.94 708.18L-28.7339 701.817L-32.2769 682.932L-115.226 680.811L-112.94 708.18ZM339.86 702.323L384.533 707.978L387.275 691.011L344.316 684.649L339.86 702.323ZM279.646 694.647L333.803 701.515L338.374 683.639L290.043 676.47L279.646 694.647ZM181.386 663.34C181.386 675.156 192.241 684.65 205.495 684.65C218.864 684.65 229.604 675.055 229.604 663.34C229.604 651.525 218.749 642.03 205.495 642.03C192.241 642.03 181.497 651.624 181.382 663.339L181.386 663.34ZM320.551 670.107L388.989 680.407L392.417 659.507L324.892 648.296L320.551 670.107ZM131.909 669.1L161.844 669.807C161.367 667.688 161.174 665.514 161.272 663.344C161.288 661.245 161.48 659.15 161.844 657.083L136.48 646.277L131.909 669.1ZM80.4941 644.56L77.1811 667.687L125.625 668.898L130.652 643.853L92.2631 627.492L80.4941 644.56ZM244.68 645.166C247.341 649.495 249.018 654.357 249.593 659.406L308.548 668.293L322.148 600.124L244.68 645.166ZM-19.7079 665.266L71.1251 667.589L74.2111 645.775L-11.9389 629.313L-19.7079 665.266ZM-112.94 662.936L-32.0479 664.956L-29.0769 651.221L-106.657 644.05L-112.94 662.936ZM325.917 642.936L393.327 654.247L395.841 638.391L332.658 609.508L325.917 642.936ZM-63.8099 642.536L-27.9329 645.869L-14.1089 582.041L-43.9259 569.316L-63.8099 642.536ZM-104.826 638.8L-69.8659 642.03L-49.5259 566.993L-77.2929 555.177L-104.826 638.8ZM43.3631 634.357L76.0391 640.619L86.6651 625.066L56.7301 612.341L43.3631 634.357ZM235.54 634.557C237.707 636.348 239.697 638.343 241.482 640.515L323.632 592.848L324.661 587.596L257.022 575.477L235.54 634.557ZM111.8 615.975L169.5 640.515C173.463 635.714 178.412 631.821 184.011 629.1L174.527 595.671L111.8 615.975ZM-10.7999 623.953L37.1871 633.143L51.2411 609.916L-2.80293 586.89L-10.7999 623.953ZM333.795 603.953L396.751 632.736L401.778 601.327L336.652 589.714L333.795 603.953ZM182.182 549.117L203.662 624.154H205.491C209.577 624.139 213.647 624.648 217.603 625.669L241.482 559.519L230.627 535.787L182.182 549.117ZM71.4681 598.7L104.259 612.739L146.074 599.21L138.19 574.164L71.4681 598.7ZM131.909 534.368L151.674 597.189L173.039 590.322L154.874 526.6L131.909 534.368ZM14.1091 574.26L64.1531 595.57L87.5741 586.99L67.6931 556.19L14.1091 574.26ZM338.709 579.108L403.493 590.722L412.634 534.47L349.793 523.764L338.709 579.108ZM73.4091 554.163L93.1741 584.868L136.474 568.912L126.191 536.292L73.4091 554.163ZM260.788 565.171L326.829 576.988L337.912 521.745L280.099 511.945L260.788 565.171ZM-29.1919 555.78L-0.968925 567.8L57.9861 547.9L-10.4539 506.4L-29.1919 555.78ZM212.916 482.661L244.45 551.538L280.44 452.264L212.916 482.661ZM-98.0839 526.492L-40.1559 551.134L-21.1899 500.941L-81.9779 476.3L-98.0839 526.492ZM33.6491 481.05L26.4491 522.25L64.8381 545.58L88.1461 537.702L106.546 454.788C90.2081 449.738 71.2411 443.88 54.6741 438.73L33.6491 481.05ZM158.188 464.79L180.811 543.967L228.455 530.839L194.065 455.8L158.188 464.79ZM94.8881 535.383L152.016 516.094L137.163 464.185C130.993 462.265 122.31 459.539 112.369 456.509L94.8881 535.383ZM357.905 514.175C372.987 516.699 388.754 519.425 404.178 522.052L423.378 421.161L413.552 419.546L357.905 514.175ZM-8.39493 501.147L20.9691 518.922L27.2531 482.665L-0.396927 479.737L-8.39493 501.147ZM283.871 501.647C297.471 503.971 322.832 508.212 351.739 513.16L355.967 505.99L298.839 460.242L283.871 501.647ZM331.745 479.329L358.71 501.041L407.154 418.632L376.305 413.684L331.745 479.329ZM-80.3769 471.051L-19.2509 495.794L-12.2809 477.312L-74.8939 454.185L-80.3769 471.051ZM199.323 452.973L210.635 477.716L281.814 445.7L217.944 431.259L199.323 452.973ZM1.77407 474.687L28.9671 477.515L48.9671 437.015C36.2851 433.076 25.5441 429.744 19.3751 427.824L1.77407 474.687ZM300.897 454.587L327.174 475.7L369.906 412.681L318.946 404.6L300.897 454.587ZM-41.5279 454.887L-8.39293 467.108L7.71707 424.49L-25.1889 415.501L-41.5279 454.887ZM156.592 459.533L193.953 450.14L211.435 429.74L143.795 414.49L156.592 459.533ZM76.2691 439.738L135.226 458.018L121.284 409.244L87.6931 400.357L76.2691 439.738ZM-71.4659 443.783L-47.0139 452.771L-14.1139 373.594L-46.2159 365.11L-71.4659 443.783ZM21.1961 422.675L70.5551 437.925L81.8671 398.74L34.9071 386.419L21.1961 422.675ZM265.018 430.755L286.384 435.6L297.239 405.808L274.731 399.143L265.018 430.755ZM-53.6409 280.782L-105.856 422.373L-81.2919 434.592L-31.2479 278.965L-53.6409 280.782ZM226.974 422.272L259.195 429.543L269.021 397.529L241.713 389.451L226.974 422.272ZM188.699 355.921L166.304 367.333L180.471 411.567L215.091 419.344L245.712 351.577L188.699 355.921ZM-22.9009 410.355C-16.0459 412.274 0.751068 416.92 9.77707 419.344L23.3771 383.391L-8.27093 375.109L-22.9009 410.355ZM134.886 383.391L140.371 402.68L173.506 410.153L160.816 370.16L134.886 383.391ZM243.886 384.4L299.072 400.66L316.774 351.88L266.501 334.307L243.886 384.4ZM64.3861 382.987L117.974 397.024L104.607 350.365L64.3861 382.987ZM325.231 387.43L344.883 390.561L382.816 370.661C384.645 362.986 388.644 347.029 392.985 329.356L349.568 320.267L325.231 387.43ZM3.94407 304.01L-11.5959 362.99L57.5291 381.168L103.002 344.508L90.7741 301.788L3.94407 304.01ZM121.974 338.045L133.399 377.937L183.215 352.588C177.273 345.518 159.907 325.119 154.537 318.756L121.974 338.045ZM390.018 366.727L416.411 352.89L398.239 333.3L390.018 366.727ZM-42.9019 354.81L-17.4259 361.475L-7.48593 323.704L-30.7939 317.139L-42.9019 354.81ZM159.558 315.625L189.151 350.467L248.106 346.023L249.248 343.499L188.924 298.153L159.558 315.625ZM268.788 329.259L318.718 346.73L330.143 315.12L282.156 299.668L268.788 329.259ZM228.226 320.674L251.649 338.247L271.186 294.821L256.447 285.327L228.226 320.674ZM116.142 317.846L120.368 332.491L150.76 314.413L140.136 302.6L116.142 317.846ZM351.395 315.22L394.241 324.107C400.411 299.465 406.923 273.107 409.551 262.199L372.76 256.139L351.395 315.22ZM-18.2259 277.854L-29.1909 311.888L-6.11093 318.452L5.08907 275.935L-18.2259 277.854ZM174.752 280.58L223.539 317.139L251.532 282.095L211.999 256.848L174.752 280.58ZM145.047 299.365C148.475 303.202 153.273 308.555 155.787 311.382L184.008 294.517L169.608 283.711L145.047 299.365ZM284.324 294.719L331.969 309.969L339.281 289.669C329.681 285.428 313.002 277.752 295.864 269.069L284.324 294.719ZM93.6341 238.365L113.057 306.534L166.874 272.3L152.02 228.469L93.6341 238.365ZM11.4841 275.43L5.31407 298.658L89.1741 296.436L81.5191 269.572L11.4841 275.43ZM217.258 253.515L273.586 289.57L285.241 263.615C270.959 256.141 257.248 248.163 247.879 240.992C246.282 239.732 244.756 238.384 243.309 236.953L217.258 253.515ZM252.792 230.288C253.733 231.186 254.725 232.029 255.763 232.812C276.901 248.87 322.831 270.28 343.055 279.369L356.537 242.2L301.693 193.219L252.792 230.288ZM-27.1349 196.051L-17.6509 267.051L10.6841 264.627L-0.0559311 192.519L-27.1349 196.051ZM166.416 233.821L177.269 265.735L204.69 248.364L193.374 222.409L166.416 233.821ZM16.7401 264.121L78.5531 258.971L75.5821 248.471L11.4821 228.676L16.7401 264.121ZM-90.7749 170.3L-88.3749 202.416L-30.6749 260.992L-43.5849 165.15L-90.7749 170.3ZM376.531 245.741L411.836 251.599L420.062 207.162L392.299 202.214L376.531 245.741ZM179.326 175.145L209.832 245.031L235.998 228.367C220.115 207.058 207.205 171.711 200.235 150.099L179.326 175.145ZM5.99907 191.708L10.5701 222.708L73.7541 242.2L57.4141 184.937L5.99907 191.708ZM69.1821 152.927L92.0341 233.215L150.191 223.215L124.14 146.966L69.1821 152.927ZM310.948 186.153L360.763 230.691L382.244 171.206L349.91 156.563L310.948 186.153ZM155.903 203.12L164.587 228.569L191.208 217.259L174.985 180.195L155.903 203.12ZM226.285 185.951C231.885 199.181 238.397 212.209 245.485 221.804L264.566 207.261L247.656 178.68L226.285 185.951ZM253.364 176.56L269.359 203.626L292.896 185.649L272.216 170.095L253.364 176.56ZM136.364 145.76L153.731 196.76L198.174 143.434C197.717 141.918 197.26 140.505 196.917 139.192L136.364 145.76ZM-31.4759 163.833L-27.8199 190.7L55.9291 179.794L48.8451 155.151L-31.4759 163.833ZM287.983 129.294L276.214 166.055L297.58 182.113L365.106 130.913C363.176 127.977 361.676 124.78 360.65 121.42L287.983 129.294ZM209.147 137.878C212.118 147.778 217.488 164.136 224.229 180.8L270.388 165.046L281.585 130L209.147 137.878ZM354.824 152.825L384.073 166.055L390.358 148.886C383.795 147.06 377.711 143.82 372.533 139.393L354.824 152.825ZM-97.1759 129.395L-93.0629 152.422L-47.0169 147.474L-53.4169 123.438C-62.4389 124.648 -80.8339 127.174 -97.1739 129.395H-97.1759ZM-35.0179 146.16L47.8181 137.171L44.6181 126.471L-41.1879 122.936L-35.0179 146.16ZM67.2401 135.05L117.974 129.6L87.3541 86.174L67.2401 135.05ZM379.502 111.418C379.502 123.235 390.357 132.728 403.609 132.728C416.861 132.728 427.718 123.235 427.718 111.418C427.718 99.601 416.863 90.11 403.609 90.11C390.242 90.11 379.502 99.7 379.502 111.418ZM91.3491 81.727L124.597 128.891L144.136 126.769L144.25 74.456L91.3491 81.727ZM57.5291 127.275L88.3741 52.54L30.3321 34.463L57.5291 127.275ZM150.419 73.649L150.304 126.164L215.088 119.195L208.233 65.67L150.419 73.649ZM-102.315 101.016L-98.2019 124.043L-54.7849 118.185L-60.6119 96.068L-102.315 101.016ZM-16.6259 56.378L-4.05893 119.095L43.1291 121.014L23.2481 53.047L-16.6259 56.378ZM-57.7559 59.812L-42.5559 117.477L-10.3349 118.79L-22.7919 56.883L-57.7559 59.812ZM218.174 96.169L221.031 118.488L257.474 114.55L253.589 92.331L218.174 96.169ZM259.993 58.599L269.593 113.236L310.955 108.792L301.242 52.944L259.993 58.599ZM307.293 52.136L317.119 108.086L360.307 103.44C362.362 95.1724 367.104 87.8212 373.789 82.54L353.452 45.778L307.293 52.136ZM-109.056 64.155L-103.344 95.664L-62.0969 90.816L-69.9809 60.822L-109.056 64.155ZM214.174 64.963L217.487 90.816L252.677 87.08L247.994 60.316L214.174 64.963ZM333.686 -30.475L391.613 73.749C391.927 73.7311 392.236 73.6636 392.528 73.549L376.988 -36.939L333.686 -30.475ZM388.986 -38.755L404.524 72.335C406.009 72.435 407.38 72.535 408.865 72.635L433.431 -45.321L388.986 -38.755ZM93.7481 70.618L145.735 63.447L167.443 -5.228L130.195 -17.649L93.7481 70.618ZM152.362 62.538L184.011 58.195L198.75 5.275L173.156 -3.309L152.362 62.538ZM190.41 57.388L237.94 50.823L233.027 16.89L204.348 7.3L190.41 57.388ZM-66.8899 25.778L-63.1199 49.511L20.0591 42.442L11.0331 12.042L-66.8899 25.778ZM246.965 27.7L250.049 49.11L347.738 35.678L335.174 12.952L246.965 27.7ZM60.6131 38.2L90.4351 47.491L103.117 16.691L71.1251 4.974L60.6131 38.2ZM28.5071 28.1L54.9011 36.382L65.5261 2.853L15.7121 -15.529L28.5071 28.1ZM235.539 -51.784L246.165 22.344L286.155 15.678C281.474 3.661 264.104 -42.189 258.274 -57.339L235.539 -51.784ZM-18.4509 -16.538C-32.2769 -8.66 -50.2139 -2.8 -70.6659 1.54L-67.6949 20.526L9.54207 6.892L-0.857925 -28.657C-6.38484 -24.1482 -12.2685 -20.0952 -18.4509 -16.538ZM264.217 -58.753L292.21 14.77L332.428 8L291.638 -65.523L264.217 -58.753ZM72.8391 -0.278L105.174 11.639L125.625 -38.05L88.3741 -49.461L72.8391 -0.278ZM175.098 -8.358L232.226 10.831L227.542 -21.89L188.58 -34.413L175.098 -8.358ZM9.08508 -37.443L13.6551 -21.89L67.1271 -2.3L82.6651 -51.18L34.1061 -66.023C26.6277 -55.7748 18.2546 -46.2106 9.08508 -37.443ZM132.252 -22.9L169.499 -10.376L184.123 -38.856L191.435 -60.468L152.245 -71.174L132.252 -22.9ZM190.752 -39.462L226.742 -27.949L223.314 -51.684L197.264 -58.854L190.752 -39.462ZM-33.9899 -55.117L-17.4259 -30.374C-11.4588 -34.5298 -5.80678 -39.1206 -0.51593 -44.109L-5.42593 -70.164L-33.9899 -55.117ZM92.2631 -59.662L129.854 -48.149L137.623 -67.035L101.403 -80.365L92.2631 -59.662Z" fill="white"/>
<path opacity="0.1" d="M187.5 812.5C336.065 812.5 456.5 692.065 456.5 543.5C456.5 394.935 336.065 274.5 187.5 274.5C38.9354 274.5 -81.5 394.935 -81.5 543.5C-81.5 692.065 38.9354 812.5 187.5 812.5Z" fill="#FF3B30"/>
<path opacity="0.1" d="M188 650.5C247.371 650.5 295.5 602.371 295.5 543C295.5 483.629 247.371 435.5 188 435.5C128.629 435.5 80.5 483.629 80.5 543C80.5 602.371 128.629 650.5 188 650.5Z" fill="#F82E4B"/>
<path opacity="0.2" d="M187.5 590.5C214.01 590.5 235.5 569.01 235.5 542.5C235.5 515.99 214.01 494.5 187.5 494.5C160.99 494.5 139.5 515.99 139.5 542.5C139.5 569.01 160.99 590.5 187.5 590.5Z" fill="#E90021" stroke="#FF0000"/>
<path opacity="0.34" d="M187.5 542.5L235.5 446.5H139.5L187.5 542.5Z" fill="url(#paint0_linear_3_174)"/>
<g filter="url(#filter0_d_3_174)">
<path d="M187.5 554.5C194.127 554.5 199.5 549.127 199.5 542.5C199.5 535.873 194.127 530.5 187.5 530.5C180.873 530.5 175.5 535.873 175.5 542.5C175.5 549.127 180.873 554.5 187.5 554.5Z" fill="#F82E4B"/>
</g>
<path d="M44.5 114.5C59.964 114.5 72.5 101.964 72.5 86.5C72.5 71.036 59.964 58.5 44.5 58.5C29.036 58.5 16.5 71.036 16.5 86.5C16.5 101.964 29.036 114.5 44.5 114.5Z" fill="white"/>
<path d="M33.928 96.5C33.5491 96.5 33.1858 96.3495 32.9179 96.0816C32.65 95.8137 32.4995 95.4504 32.4995 95.0715C32.4995 94.6926 32.65 94.3293 32.9179 94.0614C33.1858 93.7935 33.5491 93.643 33.928 93.643H55.071C55.4499 93.643 55.8132 93.7935 56.0811 94.0614C56.349 94.3293 56.4995 94.6926 56.4995 95.0715C56.4995 95.4504 56.349 95.8137 56.0811 96.0816C55.8132 96.3495 55.4499 96.5 55.071 96.5H33.928ZM33.928 87.928C33.5491 87.928 33.1858 87.7775 32.9179 87.5096C32.65 87.2417 32.4995 86.8784 32.4995 86.4995C32.4995 86.1206 32.65 85.7573 32.9179 85.4894C33.1858 85.2215 33.5491 85.071 33.928 85.071H55.071C55.4499 85.071 55.8132 85.2215 56.0811 85.4894C56.349 85.7573 56.4995 86.1206 56.4995 86.4995C56.4995 86.8784 56.349 87.2417 56.0811 87.5096C55.8132 87.7775 55.4499 87.928 55.071 87.928H33.928ZM33.928 79.357C33.5557 79.3471 33.2019 79.1923 32.9421 78.9255C32.6822 78.6587 32.5368 78.3009 32.5368 77.9285C32.5368 77.5561 32.6822 77.1983 32.9421 76.9315C33.2019 76.6647 33.5557 76.5099 33.928 76.5H55.071C55.45 76.5 55.8135 76.6506 56.0815 76.9185C56.3495 77.1865 56.5 77.55 56.5 77.929C56.5 78.308 56.3495 78.6715 56.0815 78.9395C55.8135 79.2074 55.45 79.358 55.071 79.358L33.928 79.357Z" fill="#F82E4B"/>
<g filter="url(#filter1_d_3_174)">
<path d="M323.5 114.5C338.964 114.5 351.5 101.964 351.5 86.5C351.5 71.036 338.964 58.5 323.5 58.5C308.036 58.5 295.5 71.036 295.5 86.5C295.5 101.964 308.036 114.5 323.5 114.5Z" fill="#F82E4B"/>
</g>
<path d="M333.953 95.5H313.047C312.635 95.4974 312.241 95.3315 311.951 95.0387C311.661 94.7459 311.499 94.3501 311.5 93.938V82.586C311.499 82.1739 311.661 81.7781 311.951 81.4853C312.241 81.1925 312.635 81.0266 313.047 81.024H316.727C316.868 81.0239 317.007 80.9892 317.132 80.9229C317.257 80.8567 317.364 80.7609 317.443 80.644L319.154 78.118C319.31 77.9367 319.5 77.7885 319.714 77.6823C319.928 77.5762 320.161 77.5142 320.4 77.5H326.6C326.838 77.514 327.072 77.5759 327.286 77.6821C327.499 77.7883 327.69 77.9365 327.845 78.118L329.545 80.63C329.627 80.7508 329.737 80.8497 329.865 80.9182C329.994 80.9867 330.137 81.0227 330.283 81.023H333.948C334.153 81.0237 334.355 81.0646 334.544 81.1435C334.732 81.2224 334.904 81.3378 335.048 81.4829C335.192 81.6281 335.306 81.8002 335.384 81.9895C335.461 82.1787 335.501 82.3814 335.5 82.586V93.938C335.501 94.3501 335.339 94.7459 335.049 95.0387C334.759 95.3315 334.365 95.4974 333.953 95.5ZM323.5 82.589C322.414 82.5773 321.349 82.8886 320.441 83.4835C319.532 84.0783 318.821 84.9297 318.397 85.9297C317.973 86.9296 317.857 88.0329 318.061 89.0994C318.266 90.166 318.783 91.1476 319.547 91.9195C320.311 92.6915 321.287 93.2191 322.351 93.4351C323.415 93.6512 324.52 93.5461 325.524 93.1331C326.529 92.7201 327.388 92.0179 327.992 91.1157C328.596 90.2135 328.919 89.152 328.919 88.066C328.925 86.6217 328.358 85.2339 327.342 84.2072C326.326 83.1805 324.944 82.5985 323.5 82.589ZM330.081 82.2C329.926 82.1982 329.774 82.2426 329.644 82.3275C329.514 82.4124 329.412 82.534 329.351 82.6768C329.291 82.8197 329.274 82.9773 329.303 83.1298C329.332 83.2822 329.406 83.4226 329.515 83.533C329.624 83.6435 329.763 83.719 329.915 83.7501C330.067 83.7812 330.225 83.7663 330.369 83.7075C330.512 83.6487 330.635 83.5485 330.722 83.4197C330.808 83.2908 330.855 83.1392 330.855 82.984C330.856 82.7775 330.775 82.579 330.63 82.432C330.485 82.285 330.288 82.2016 330.081 82.2ZM323.5 92.371C322.648 92.3793 321.812 92.1342 321.1 91.6668C320.387 91.1994 319.829 90.5308 319.498 89.7458C319.166 88.9609 319.074 88.095 319.236 87.2582C319.397 86.4213 319.803 85.6512 320.403 85.0456C321.002 84.44 321.768 84.0263 322.604 83.857C323.439 83.6876 324.306 83.7703 325.094 84.0945C325.882 84.4186 326.556 84.9697 327.03 85.6777C327.505 86.3858 327.758 87.2188 327.758 88.071C327.762 89.2053 327.316 90.2948 326.518 91.1008C325.719 91.9068 324.634 92.3636 323.5 92.371ZM316.145 79.848H313.045V79.066C313.044 78.9635 313.064 78.862 313.103 78.7671C313.142 78.6723 313.199 78.586 313.271 78.5133C313.343 78.4405 313.429 78.3828 313.524 78.3433C313.618 78.3037 313.72 78.2833 313.822 78.283H315.372C315.578 78.2846 315.775 78.3679 315.92 78.5147C316.065 78.6615 316.146 78.8597 316.145 79.066V79.847V79.848Z" fill="white"/>
<g filter="url(#filter2_d_3_174)">
<path d="M325 704H50C42.8203 704 37 709.82 37 717V743C37 750.18 42.8203 756 50 756H325C332.18 756 338 750.18 338 743V717C338 709.82 332.18 704 325 704Z" fill="#F82E4B"/>
</g>
<path d="M145.203 737L143.87 733.594H139.578L138.26 737H137L141.233 726.248H142.281L146.492 737H145.203ZM143.482 732.474L142.237 729.156C142.076 728.736 141.91 728.221 141.739 727.61C141.631 728.079 141.478 728.594 141.277 729.156L140.018 732.474H143.482ZM148.997 737H147.781V725.604H148.997V737ZM152.791 737H151.575V725.604H152.791V737ZM162.298 732.979C162.298 734.288 161.968 735.311 161.309 736.048C160.65 736.78 159.739 737.146 158.577 737.146C157.859 737.146 157.222 736.978 156.666 736.641C156.109 736.304 155.679 735.821 155.376 735.191C155.074 734.561 154.922 733.824 154.922 732.979C154.922 731.67 155.25 730.652 155.904 729.925C156.558 729.192 157.466 728.826 158.628 728.826C159.751 728.826 160.643 729.2 161.302 729.947C161.966 730.694 162.298 731.705 162.298 732.979ZM156.182 732.979C156.182 734.004 156.387 734.786 156.797 735.323C157.208 735.86 157.811 736.128 158.606 736.128C159.402 736.128 160.005 735.862 160.416 735.33C160.831 734.793 161.038 734.009 161.038 732.979C161.038 731.958 160.831 731.185 160.416 730.657C160.005 730.125 159.397 729.859 158.592 729.859C157.796 729.859 157.195 730.12 156.79 730.643C156.385 731.165 156.182 731.944 156.182 732.979ZM170.992 737L169.52 732.291C169.427 732.002 169.253 731.348 169 730.328H168.941C168.746 731.182 168.575 731.841 168.428 732.305L166.912 737H165.506L163.316 728.973H164.59C165.108 730.989 165.501 732.525 165.77 733.58C166.043 734.634 166.199 735.345 166.238 735.711H166.297C166.351 735.433 166.436 735.074 166.553 734.634C166.675 734.19 166.78 733.838 166.868 733.58L168.34 728.973H169.659L171.094 733.58C171.368 734.419 171.553 735.125 171.651 735.696H171.709C171.729 735.521 171.78 735.25 171.863 734.883C171.951 734.517 172.461 732.547 173.394 728.973H174.654L172.435 737H170.992ZM180.191 737V726.292H181.436V735.872H186.16V737H180.191ZM194.729 732.979C194.729 734.288 194.4 735.311 193.741 736.048C193.082 736.78 192.171 737.146 191.009 737.146C190.291 737.146 189.654 736.978 189.097 736.641C188.541 736.304 188.111 735.821 187.808 735.191C187.505 734.561 187.354 733.824 187.354 732.979C187.354 731.67 187.681 730.652 188.335 729.925C188.99 729.192 189.898 728.826 191.06 728.826C192.183 728.826 193.074 729.2 193.733 729.947C194.397 730.694 194.729 731.705 194.729 732.979ZM188.614 732.979C188.614 734.004 188.819 734.786 189.229 735.323C189.639 735.86 190.242 736.128 191.038 736.128C191.834 736.128 192.437 735.862 192.847 735.33C193.262 734.793 193.47 734.009 193.47 732.979C193.47 731.958 193.262 731.185 192.847 730.657C192.437 730.125 191.829 729.859 191.023 729.859C190.228 729.859 189.627 730.12 189.222 730.643C188.816 731.165 188.614 731.944 188.614 732.979ZM200.076 737.146C198.914 737.146 198.013 736.79 197.374 736.077C196.739 735.359 196.421 734.346 196.421 733.038C196.421 731.695 196.744 730.657 197.388 729.925C198.038 729.192 198.96 728.826 200.157 728.826C200.542 728.826 200.928 728.868 201.314 728.951C201.7 729.034 202.002 729.131 202.222 729.244L201.849 730.276C201.58 730.169 201.287 730.081 200.97 730.013C200.652 729.939 200.372 729.903 200.127 729.903C198.497 729.903 197.681 730.943 197.681 733.023C197.681 734.009 197.879 734.766 198.274 735.293C198.675 735.821 199.266 736.084 200.047 736.084C200.716 736.084 201.402 735.94 202.105 735.652V736.729C201.568 737.007 200.892 737.146 200.076 737.146ZM208.953 737L208.711 735.857H208.653C208.252 736.36 207.852 736.702 207.452 736.883C207.056 737.059 206.561 737.146 205.965 737.146C205.169 737.146 204.544 736.941 204.09 736.531C203.641 736.121 203.416 735.538 203.416 734.781C203.416 733.16 204.712 732.31 207.305 732.232L208.667 732.188V731.69C208.667 731.06 208.531 730.596 208.257 730.298C207.989 729.996 207.557 729.844 206.961 729.844C206.292 729.844 205.535 730.049 204.69 730.459L204.317 729.529C204.712 729.314 205.145 729.146 205.613 729.024C206.087 728.902 206.561 728.841 207.034 728.841C207.991 728.841 208.699 729.053 209.158 729.478C209.622 729.903 209.854 730.584 209.854 731.521V737H208.953ZM206.207 736.143C206.963 736.143 207.557 735.936 207.986 735.521C208.421 735.105 208.638 734.524 208.638 733.777V733.052L207.422 733.104C206.456 733.138 205.757 733.289 205.328 733.558C204.903 733.821 204.69 734.234 204.69 734.795C204.69 735.235 204.822 735.569 205.086 735.799C205.354 736.028 205.728 736.143 206.207 736.143ZM214.959 736.143C215.174 736.143 215.381 736.128 215.582 736.099C215.782 736.065 215.94 736.031 216.058 735.997V736.927C215.926 736.99 215.73 737.042 215.472 737.081C215.218 737.125 214.988 737.146 214.783 737.146C213.23 737.146 212.454 736.329 212.454 734.693V729.917H211.304V729.332L212.454 728.826L212.967 727.112H213.67V728.973H215.999V729.917H213.67V734.642C213.67 735.125 213.785 735.496 214.014 735.755C214.244 736.014 214.559 736.143 214.959 736.143ZM218.885 737H217.669V728.973H218.885V737ZM217.566 726.797C217.566 726.519 217.635 726.316 217.771 726.189C217.908 726.058 218.079 725.992 218.284 725.992C218.479 725.992 218.648 726.058 218.79 726.189C218.931 726.321 219.002 726.524 219.002 726.797C219.002 727.071 218.931 727.276 218.79 727.413C218.648 727.544 218.479 727.61 218.284 727.61C218.079 727.61 217.908 727.544 217.771 727.413C217.635 727.276 217.566 727.071 217.566 726.797ZM228.392 732.979C228.392 734.288 228.062 735.311 227.403 736.048C226.744 736.78 225.833 737.146 224.671 737.146C223.953 737.146 223.316 736.978 222.759 736.641C222.203 736.304 221.773 735.821 221.47 735.191C221.167 734.561 221.016 733.824 221.016 732.979C221.016 731.67 221.343 730.652 221.998 729.925C222.652 729.192 223.56 728.826 224.722 728.826C225.845 728.826 226.736 729.2 227.396 729.947C228.06 730.694 228.392 731.705 228.392 732.979ZM222.276 732.979C222.276 734.004 222.481 734.786 222.891 735.323C223.301 735.86 223.904 736.128 224.7 736.128C225.496 736.128 226.099 735.862 226.509 735.33C226.924 734.793 227.132 734.009 227.132 732.979C227.132 731.958 226.924 731.185 226.509 730.657C226.099 730.125 225.491 729.859 224.686 729.859C223.89 729.859 223.289 730.12 222.884 730.643C222.479 731.165 222.276 731.944 222.276 732.979ZM236.023 737V731.807C236.023 731.153 235.875 730.665 235.577 730.342C235.279 730.02 234.812 729.859 234.178 729.859C233.338 729.859 232.723 730.086 232.332 730.54C231.941 730.994 231.746 731.744 231.746 732.789V737H230.53V728.973H231.519L231.717 730.071H231.775C232.024 729.676 232.374 729.371 232.823 729.156C233.272 728.936 233.772 728.826 234.324 728.826C235.291 728.826 236.019 729.061 236.507 729.529C236.995 729.993 237.239 730.738 237.239 731.763V737H236.023Z" fill="white"/>
</g>
<defs>
<filter id="filter0_d_3_174" x="167.5" y="526.5" width="40" height="40" filterUnits="userSpaceOnUse" color-interpolation-filters="sRGB">
<feFlood flood-opacity="0" result="BackgroundImageFix"/>
<feColorMatrix in="SourceAlpha" type="matrix" values="0 0 0 0 0 0 0 0 0 0 0 0 0 0 0 0 0 0 127 0" result="hardAlpha"/>
<feOffset dy="4"/>
<feGaussianBlur stdDeviation="4"/>
<feColorMatrix type="matrix" values="0 0 0 0 0 0 0 0 0 0 0 0 0 0 0 0 0 0 0.2 0"/>
<feBlend mode="normal" in2="BackgroundImageFix" result="effect1_dropShadow_3_174"/>
<feBlend mode="normal" in="SourceGraphic" in2="effect1_dropShadow_3_174" result="shape"/>
</filter>
<filter id="filter1_d_3_174" x="287.5" y="54.5" width="72" height="72" filterUnits="userSpaceOnUse" color-interpolation-filters="sRGB">
<feFlood flood-opacity="0" result="BackgroundImageFix"/>
<feColorMatrix in="SourceAlpha" type="matrix" values="0 0 0 0 0 0 0 0 0 0 0 0 0 0 0 0 0 0 127 0" result="hardAlpha"/>
<feOffset dy="4"/>
<feGaussianBlur stdDeviation="4"/>
<feColorMatrix type="matrix" values="0 0 0 0 0 0 0 0 0 0 0 0 0 0 0 0 0 0 0.2 0"/>
<feBlend mode="normal" in2="BackgroundImageFix" result="effect1_dropShadow_3_174"/>
<feBlend mode="normal" in="SourceGraphic" in2="effect1_dropShadow_3_174" result="shape"/>
</filter>
<filter id="filter2_d_3_174" x="31" y="701" width="313" height="64" filterUnits="userSpaceOnUse" color-interpolation-filters="sRGB">
<feFlood flood-opacity="0" result="BackgroundImageFix"/>
<feColorMatrix in="SourceAlpha" type="matrix" values="0 0 0 0 0 0 0 0 0 0 0 0 0 0 0 0 0 0 127 0" result="hardAlpha"/>
<feOffset dy="3"/>
<feGaussianBlur stdDeviation="3"/>
<feColorMatrix type="matrix" values="0 0 0 0 0 0 0 0 0 0 0 0 0 0 0 0 0 0 0.161 0"/>
<feBlend mode="normal" in2="BackgroundImageFix" result="effect1_dropShadow_3_174"/>
<feBlend mode="normal" in="SourceGraphic" in2="effect1_dropShadow_3_174" result="shape"/>
</filter>
<linearGradient id="paint0_linear_3_174" x1="187.5" y1="539.812" x2="187.5" y2="450.916" gradientUnits="userSpaceOnUse">
<stop stop-color="#F82E4B"/>
<stop offset="1" stop-color="#4B00FF" stop-opacity="0.18"/>
</linearGradient>
<clipPath id="clip0_3_174">
<rect width="375" height="812" fill="white"/>
</clipPath>
</defs>
</svg>
