<svg width="375" height="812" viewBox="0 0 375 812" fill="none" xmlns="http://www.w3.org/2000/svg">
<g clip-path="url(#clip0_2_80)">
<rect width="375" height="812" fill="#F82E4B"/>
<path d="M375 0H0V812H375V0Z" fill="#F82E4B"/>
<path d="M90.622 499H95.942V481.748L103.086 499H107.114L114.22 481.748V499H119.54V472.476H113.536L105.1 492.198L96.664 472.476H90.622V499ZM123.432 488.398C123.432 494.972 127.688 499.342 133.008 499.342C136.352 499.342 138.746 497.746 140 495.922V499H145.358V477.948H140V480.95C138.746 479.202 136.428 477.606 133.046 477.606C127.688 477.606 123.432 481.824 123.432 488.398ZM140 488.474C140 492.464 137.34 494.668 134.414 494.668C131.564 494.668 128.866 492.388 128.866 488.398C128.866 484.408 131.564 482.28 134.414 482.28C137.34 482.28 140 484.484 140 488.474ZM149.186 488.398C149.186 494.972 153.442 499.342 158.8 499.342C162.106 499.342 164.5 497.708 165.754 495.884V499.152C165.754 503.066 163.474 504.738 160.548 504.738C157.888 504.738 155.912 503.484 155.38 501.584H150.098C150.63 506.41 154.772 509.374 160.7 509.374C167.616 509.374 171.112 504.852 171.112 499.152V477.948H165.754V480.95C164.5 479.126 162.106 477.606 158.8 477.606C153.442 477.606 149.186 481.824 149.186 488.398ZM165.754 488.474C165.754 492.464 163.094 494.668 160.168 494.668C157.318 494.668 154.62 492.388 154.62 488.398C154.62 484.408 157.318 482.28 160.168 482.28C163.094 482.28 165.754 484.484 165.754 488.474ZM191.052 499H196.372V486.65C196.372 480.836 192.876 477.644 187.974 477.644C185.276 477.644 182.996 478.784 181.628 480.57V477.948H176.308V499H181.628V487.372C181.628 483.99 183.49 482.166 186.378 482.166C189.19 482.166 191.052 483.99 191.052 487.372V499ZM201.431 499H206.751V477.948H201.431V499ZM204.129 475.44C205.991 475.44 207.397 474.072 207.397 472.324C207.397 470.576 205.991 469.208 204.129 469.208C202.229 469.208 200.861 470.576 200.861 472.324C200.861 474.072 202.229 475.44 204.129 475.44ZM212.843 492.464C212.843 497.29 215.541 499 219.569 499H222.913V494.516H220.443C218.771 494.516 218.201 493.908 218.201 492.502V482.318H222.913V477.948H218.201V472.742H212.843V477.948H210.335V482.318H212.843V492.464ZM246.613 477.948H241.255V489.538C241.255 492.92 239.431 494.744 236.543 494.744C233.731 494.744 231.869 492.92 231.869 489.538V477.948H226.549V490.298C226.549 496.074 230.083 499.266 234.985 499.266C237.607 499.266 239.925 498.126 241.255 496.34V499H246.613V477.948ZM250.494 488.398C250.494 494.972 254.75 499.342 260.108 499.342C263.414 499.342 265.77 497.822 267.024 495.884V499H272.42V470.88H267.024V480.874C265.58 478.898 262.92 477.606 260.146 477.606C254.75 477.606 250.494 481.824 250.494 488.398ZM267.062 488.474C267.062 492.464 264.402 494.668 261.476 494.668C258.626 494.668 255.928 492.388 255.928 488.398C255.928 484.408 258.626 482.28 261.476 482.28C264.402 482.28 267.062 484.484 267.062 488.474ZM286.66 481.976C289.396 481.976 291.6 483.724 291.676 486.498H281.682C282.1 483.61 284.114 481.976 286.66 481.976ZM296.654 492.388H290.916C290.232 493.794 288.978 494.934 286.698 494.934C284.038 494.934 281.91 493.186 281.644 490.07H297.034C297.148 489.386 297.186 488.702 297.186 488.018C297.186 481.748 292.892 477.606 286.812 477.606C280.58 477.606 276.248 481.824 276.248 488.474C276.248 495.086 280.694 499.342 286.812 499.342C292.018 499.342 295.514 496.264 296.654 492.388Z" fill="white"/>
<g filter="url(#filter0_d_2_80)">
<path d="M211 326H157C144.297 326 134 336.297 134 349V403C134 415.703 144.297 426 157 426H211C223.703 426 234 415.703 234 403V349C234 336.297 223.703 326 211 326Z" fill="#F82E4B"/>
</g>
<g filter="url(#filter1_d_2_80)">
<path d="M196 326H157C144.297 326 134 336.297 134 349V388C134 400.703 144.297 411 157 411H196C208.703 411 219 400.703 219 388V349C219 336.297 208.703 326 196 326Z" fill="#FB546C"/>
</g>
<g filter="url(#filter2_d_2_80)">
<path d="M181 326H157C144.297 326 134 336.297 134 349V373C134 385.703 144.297 396 157 396H181C193.703 396 204 385.703 204 373V349C204 336.297 193.703 326 181 326Z" fill="#FC7084"/>
</g>
<g filter="url(#filter3_d_2_80)">
<path d="M166 326H157C144.297 326 134 336.297 134 349V358C134 370.703 144.297 381 157 381H166C178.703 381 189 370.703 189 358V349C189 336.297 178.703 326 166 326Z" fill="#F28E9C"/>
</g>
<g filter="url(#filter4_d_2_80)">
<path d="M325 650H50C42.8203 650 37 655.82 37 663V689C37 696.18 42.8203 702 50 702H325C332.18 702 338 696.18 338 689V663C338 655.82 332.18 650 325 650Z" fill="white"/>
</g>
<path d="M154.182 677.39H157.822V682.597C157.255 682.778 156.679 682.915 156.093 683.007C155.507 683.1 154.829 683.146 154.057 683.146C152.436 683.146 151.174 682.666 150.271 681.704C149.367 680.737 148.916 679.384 148.916 677.646C148.916 676.533 149.138 675.559 149.582 674.724C150.031 673.884 150.676 673.244 151.516 672.805C152.355 672.36 153.339 672.138 154.467 672.138C155.61 672.138 156.674 672.348 157.661 672.768L157.177 673.867C156.21 673.457 155.28 673.251 154.387 673.251C153.083 673.251 152.065 673.64 151.333 674.416C150.6 675.192 150.234 676.269 150.234 677.646C150.234 679.091 150.585 680.188 151.289 680.935C151.997 681.682 153.034 682.055 154.401 682.055C155.144 682.055 155.869 681.97 156.577 681.799V678.503H154.182V677.39ZM163.608 683.146C162.421 683.146 161.484 682.785 160.795 682.062C160.112 681.34 159.77 680.336 159.77 679.052C159.77 677.758 160.087 676.73 160.722 675.969C161.362 675.207 162.219 674.826 163.293 674.826C164.299 674.826 165.095 675.158 165.681 675.822C166.267 676.481 166.56 677.353 166.56 678.437V679.206H161.03C161.054 680.148 161.291 680.864 161.74 681.352C162.194 681.84 162.832 682.084 163.652 682.084C164.516 682.084 165.371 681.904 166.215 681.542V682.626C165.786 682.812 165.378 682.944 164.992 683.022C164.611 683.105 164.15 683.146 163.608 683.146ZM163.278 675.844C162.634 675.844 162.119 676.054 161.733 676.474C161.352 676.894 161.127 677.475 161.059 678.217H165.256C165.256 677.451 165.085 676.865 164.743 676.459C164.401 676.049 163.913 675.844 163.278 675.844ZM171.232 682.143C171.447 682.143 171.655 682.128 171.855 682.099C172.055 682.065 172.214 682.031 172.331 681.997V682.927C172.199 682.99 172.004 683.042 171.745 683.081C171.491 683.125 171.262 683.146 171.057 683.146C169.504 683.146 168.728 682.329 168.728 680.693V675.917H167.578V675.332L168.728 674.826L169.24 673.112H169.943V674.973H172.272V675.917H169.943V680.642C169.943 681.125 170.058 681.496 170.288 681.755C170.517 682.014 170.832 682.143 171.232 682.143ZM184.064 680.151C184.064 681.093 183.723 681.828 183.039 682.355C182.355 682.883 181.428 683.146 180.256 683.146C178.986 683.146 178.01 682.983 177.326 682.656V681.455C177.766 681.64 178.244 681.787 178.762 681.894C179.279 682.001 179.792 682.055 180.3 682.055C181.13 682.055 181.755 681.899 182.175 681.586C182.595 681.269 182.805 680.83 182.805 680.268C182.805 679.897 182.729 679.594 182.578 679.36C182.431 679.121 182.182 678.901 181.831 678.701C181.484 678.5 180.954 678.273 180.241 678.02C179.245 677.663 178.532 677.241 178.103 676.752C177.678 676.264 177.465 675.627 177.465 674.841C177.465 674.016 177.775 673.359 178.396 672.871C179.016 672.382 179.836 672.138 180.856 672.138C181.921 672.138 182.9 672.333 183.793 672.724L183.405 673.808C182.521 673.437 181.662 673.251 180.827 673.251C180.168 673.251 179.653 673.393 179.282 673.676C178.911 673.959 178.725 674.353 178.725 674.855C178.725 675.227 178.793 675.532 178.93 675.771C179.067 676.005 179.296 676.223 179.619 676.423C179.946 676.618 180.444 676.835 181.113 677.075C182.236 677.475 183.007 677.905 183.427 678.364C183.852 678.823 184.064 679.418 184.064 680.151ZM188.664 682.143C188.879 682.143 189.086 682.128 189.287 682.099C189.487 682.065 189.646 682.031 189.763 681.997V682.927C189.631 682.99 189.436 683.042 189.177 683.081C188.923 683.125 188.693 683.146 188.488 683.146C186.936 683.146 186.159 682.329 186.159 680.693V675.917H185.009V675.332L186.159 674.826L186.672 673.112H187.375V674.973H189.704V675.917H187.375V680.642C187.375 681.125 187.49 681.496 187.719 681.755C187.949 682.014 188.264 682.143 188.664 682.143ZM196.311 683L196.069 681.857H196.01C195.61 682.36 195.209 682.702 194.809 682.883C194.414 683.059 193.918 683.146 193.322 683.146C192.526 683.146 191.901 682.941 191.447 682.531C190.998 682.121 190.773 681.538 190.773 680.781C190.773 679.16 192.07 678.31 194.663 678.232L196.025 678.188V677.69C196.025 677.06 195.888 676.596 195.615 676.298C195.346 675.996 194.914 675.844 194.318 675.844C193.649 675.844 192.893 676.049 192.048 676.459L191.674 675.529C192.07 675.314 192.502 675.146 192.971 675.024C193.444 674.902 193.918 674.841 194.392 674.841C195.349 674.841 196.057 675.053 196.516 675.478C196.979 675.903 197.211 676.584 197.211 677.521V683H196.311ZM193.564 682.143C194.321 682.143 194.914 681.936 195.344 681.521C195.778 681.105 195.996 680.524 195.996 679.777V679.052L194.78 679.104C193.813 679.138 193.115 679.289 192.685 679.558C192.26 679.821 192.048 680.234 192.048 680.795C192.048 681.235 192.18 681.569 192.443 681.799C192.712 682.028 193.085 682.143 193.564 682.143ZM203.386 674.826C203.742 674.826 204.062 674.855 204.345 674.914L204.177 676.042C203.845 675.969 203.552 675.932 203.298 675.932C202.648 675.932 202.092 676.196 201.628 676.723C201.169 677.25 200.939 677.907 200.939 678.693V683H199.724V674.973H200.727L200.866 676.459H200.925C201.223 675.937 201.582 675.534 202.001 675.251C202.421 674.968 202.883 674.826 203.386 674.826ZM208.439 682.143C208.654 682.143 208.862 682.128 209.062 682.099C209.262 682.065 209.421 682.031 209.538 681.997V682.927C209.406 682.99 209.211 683.042 208.952 683.081C208.698 683.125 208.469 683.146 208.264 683.146C206.711 683.146 205.935 682.329 205.935 680.693V675.917H204.785V675.332L205.935 674.826L206.447 673.112H207.15V674.973H209.479V675.917H207.15V680.642C207.15 681.125 207.265 681.496 207.495 681.755C207.724 682.014 208.039 682.143 208.439 682.143ZM214.541 683.146C213.354 683.146 212.417 682.785 211.728 682.062C211.044 681.34 210.703 680.336 210.703 679.052C210.703 677.758 211.02 676.73 211.655 675.969C212.294 675.207 213.151 674.826 214.226 674.826C215.231 674.826 216.027 675.158 216.613 675.822C217.199 676.481 217.492 677.353 217.492 678.437V679.206H211.962C211.987 680.148 212.224 680.864 212.673 681.352C213.127 681.84 213.764 682.084 214.584 682.084C215.449 682.084 216.303 681.904 217.148 681.542V682.626C216.718 682.812 216.311 682.944 215.925 683.022C215.544 683.105 215.083 683.146 214.541 683.146ZM214.211 675.844C213.566 675.844 213.051 676.054 212.666 676.474C212.285 676.894 212.06 677.475 211.992 678.217H216.188C216.188 677.451 216.018 676.865 215.676 676.459C215.334 676.049 214.846 675.844 214.211 675.844ZM225.036 681.923H224.97C224.409 682.739 223.569 683.146 222.451 683.146C221.401 683.146 220.583 682.788 219.997 682.07C219.416 681.352 219.125 680.332 219.125 679.008C219.125 677.685 219.418 676.657 220.004 675.925C220.59 675.192 221.406 674.826 222.451 674.826C223.54 674.826 224.375 675.222 224.956 676.013H225.051L225 675.434L224.97 674.87V671.604H226.186V683H225.197L225.036 681.923ZM222.604 682.128C223.435 682.128 224.035 681.904 224.406 681.455C224.782 681 224.97 680.271 224.97 679.265V679.008C224.97 677.871 224.78 677.06 224.399 676.577C224.023 676.088 223.42 675.844 222.59 675.844C221.877 675.844 221.33 676.123 220.949 676.679C220.573 677.231 220.385 678.012 220.385 679.023C220.385 680.048 220.573 680.822 220.949 681.345C221.325 681.867 221.877 682.128 222.604 682.128Z" fill="#F82E4B"/>
</g>
<defs>
<filter id="filter0_d_2_80" x="128" y="323" width="112" height="112" filterUnits="userSpaceOnUse" color-interpolation-filters="sRGB">
<feFlood flood-opacity="0" result="BackgroundImageFix"/>
<feColorMatrix in="SourceAlpha" type="matrix" values="0 0 0 0 0 0 0 0 0 0 0 0 0 0 0 0 0 0 127 0" result="hardAlpha"/>
<feOffset dy="3"/>
<feGaussianBlur stdDeviation="3"/>
<feColorMatrix type="matrix" values="0 0 0 0 0 0 0 0 0 0 0 0 0 0 0 0 0 0 0.161 0"/>
<feBlend mode="normal" in2="BackgroundImageFix" result="effect1_dropShadow_2_80"/>
<feBlend mode="normal" in="SourceGraphic" in2="effect1_dropShadow_2_80" result="shape"/>
</filter>
<filter id="filter1_d_2_80" x="128" y="323" width="97" height="97" filterUnits="userSpaceOnUse" color-interpolation-filters="sRGB">
<feFlood flood-opacity="0" result="BackgroundImageFix"/>
<feColorMatrix in="SourceAlpha" type="matrix" values="0 0 0 0 0 0 0 0 0 0 0 0 0 0 0 0 0 0 127 0" result="hardAlpha"/>
<feOffset dy="3"/>
<feGaussianBlur stdDeviation="3"/>
<feColorMatrix type="matrix" values="0 0 0 0 0 0 0 0 0 0 0 0 0 0 0 0 0 0 0.161 0"/>
<feBlend mode="normal" in2="BackgroundImageFix" result="effect1_dropShadow_2_80"/>
<feBlend mode="normal" in="SourceGraphic" in2="effect1_dropShadow_2_80" result="shape"/>
</filter>
<filter id="filter2_d_2_80" x="128" y="323" width="82" height="82" filterUnits="userSpaceOnUse" color-interpolation-filters="sRGB">
<feFlood flood-opacity="0" result="BackgroundImageFix"/>
<feColorMatrix in="SourceAlpha" type="matrix" values="0 0 0 0 0 0 0 0 0 0 0 0 0 0 0 0 0 0 127 0" result="hardAlpha"/>
<feOffset dy="3"/>
<feGaussianBlur stdDeviation="3"/>
<feColorMatrix type="matrix" values="0 0 0 0 0 0 0 0 0 0 0 0 0 0 0 0 0 0 0.161 0"/>
<feBlend mode="normal" in2="BackgroundImageFix" result="effect1_dropShadow_2_80"/>
<feBlend mode="normal" in="SourceGraphic" in2="effect1_dropShadow_2_80" result="shape"/>
</filter>
<filter id="filter3_d_2_80" x="128" y="323" width="67" height="67" filterUnits="userSpaceOnUse" color-interpolation-filters="sRGB">
<feFlood flood-opacity="0" result="BackgroundImageFix"/>
<feColorMatrix in="SourceAlpha" type="matrix" values="0 0 0 0 0 0 0 0 0 0 0 0 0 0 0 0 0 0 127 0" result="hardAlpha"/>
<feOffset dy="3"/>
<feGaussianBlur stdDeviation="3"/>
<feColorMatrix type="matrix" values="0 0 0 0 0 0 0 0 0 0 0 0 0 0 0 0 0 0 0.161 0"/>
<feBlend mode="normal" in2="BackgroundImageFix" result="effect1_dropShadow_2_80"/>
<feBlend mode="normal" in="SourceGraphic" in2="effect1_dropShadow_2_80" result="shape"/>
</filter>
<filter id="filter4_d_2_80" x="31" y="647" width="313" height="64" filterUnits="userSpaceOnUse" color-interpolation-filters="sRGB">
<feFlood flood-opacity="0" result="BackgroundImageFix"/>
<feColorMatrix in="SourceAlpha" type="matrix" values="0 0 0 0 0 0 0 0 0 0 0 0 0 0 0 0 0 0 127 0" result="hardAlpha"/>
<feOffset dy="3"/>
<feGaussianBlur stdDeviation="3"/>
<feColorMatrix type="matrix" values="0 0 0 0 0 0 0 0 0 0 0 0 0 0 0 0 0 0 0.161 0"/>
<feBlend mode="normal" in2="BackgroundImageFix" result="effect1_dropShadow_2_80"/>
<feBlend mode="normal" in="SourceGraphic" in2="effect1_dropShadow_2_80" result="shape"/>
</filter>
<clipPath id="clip0_2_80">
<rect width="375" height="812" fill="white"/>
</clipPath>
</defs>
</svg>
