<?xml version="1.0" encoding="UTF-8"?><svg id="Layer_2" xmlns="http://www.w3.org/2000/svg" viewBox="0 0 146.29 89.58"><defs><style>.cls-1{fill:none;stroke-width:5px;}.cls-1,.cls-2{stroke:#231f20;stroke-miterlimit:10;}.cls-2{fill:#231f20;stroke-width:.75px;}</style></defs><g id="Layer_1-2"><g><g><path class="cls-2" d="M32.41,18.65l2.18-1.41,14.64,11.66-2.04,1.32-7.93-6.66c-1.59-1.32-3.15-2.63-4.72-4.07l-.09,.06c.64,2.04,1.22,3.98,1.76,5.97l2.75,10-1.95,1.26-4.6-18.15Zm3.34,10.36l6.84-4.41,1,1.54-6.84,4.41-1-1.54Z"/><path class="cls-2" d="M50.47,27l4.96-12.6-7.49,2.73-.62-1.7,10.52-3.83,.41,1.12-4.97,12.58,8.66-3.16,.63,1.73-11.69,4.26-.41-1.12Z"/><path class="cls-2" d="M64.93,18.29l-.5-8.15,2.24-.14,.48,7.86c.15,2.46,1.09,3.59,3.25,3.46,1.51-.09,2.58-.86,3.93-2.65l-.56-9.1,2.24-.14,.81,13.12-1.86,.12-.33-2.28h-.11c-1.23,1.63-2.7,2.8-4.72,2.93-3.1,.19-4.65-1.56-4.86-5.01Z"/><path class="cls-2" d="M83.8,10.18l1.78,.45-.36,2.2,.1,.03c1.69-1.05,3.43-1.75,5.42-1.25,3.01,.76,3.95,2.9,3.1,6.25l-2,7.92-2.18-.55,1.93-7.63c.61-2.41,.06-3.75-2.01-4.28-1.52-.38-2.74,.12-4.59,1.26l-2.25,8.89-2.18-.55,3.23-12.74Z"/><path class="cls-2" d="M96.42,24.07c1.45-2.57,4.55-2.46,10.73,.4,.81-1.59,.79-3.34-1.42-4.59-1.48-.84-3.34-.95-4.77-.89l-.03-1.76c1.6-.09,4.04,.1,6.04,1.23,3.13,1.77,3.62,4.49,2.01,7.34l-3.96,7.02-1.63-.92,.71-1.65-.07-.04c-1.81,.29-3.93,.21-5.54-.7-2.14-1.21-3.23-3.41-2.08-5.46Zm8.33,4.66l1.67-2.97c-5.11-2.38-7.14-2.25-7.99-.75-.73,1.3,.16,2.48,1.47,3.22,1.3,.73,2.91,.83,4.84,.49Z"/></g><path class="cls-1" d="M31.07,52.56s37.56,77.66,87.05,0"/></g></g></svg>