<svg width="428" height="926" viewBox="0 0 428 926" fill="none" xmlns="http://www.w3.org/2000/svg">
<rect width="428" height="926" fill="#D3D3D3"/>
<rect x="20" y="778" width="388" height="70" rx="5" fill="#F5F5F5"/>
<path d="M175.356 812.738C175.356 816.918 178.416 819.838 182.316 819.838C185.336 819.838 187.736 818.338 188.776 815.658H186.596C185.836 817.318 184.356 818.258 182.316 818.258C179.396 818.258 177.216 816.138 177.216 812.738C177.216 809.318 179.396 807.198 182.316 807.198C184.356 807.198 185.836 808.138 186.596 809.818H188.776C187.736 807.118 185.336 805.598 182.316 805.598C178.416 805.598 175.356 808.558 175.356 812.738ZM201.885 814.218C201.885 810.758 199.465 808.578 196.345 808.578C193.245 808.578 190.805 810.758 190.805 814.218C190.805 817.698 193.165 819.898 196.265 819.898C199.385 819.898 201.885 817.698 201.885 814.218ZM192.665 814.218C192.665 811.458 194.405 810.158 196.325 810.158C198.205 810.158 200.025 811.458 200.025 814.218C200.025 816.998 198.165 818.298 196.265 818.298C194.365 818.298 192.665 816.998 192.665 814.218ZM212.298 819.718H214.098V813.258C214.098 810.118 212.158 808.558 209.618 808.558C208.138 808.558 206.818 809.178 206.098 810.318V808.758H204.278V819.718H206.098V813.658C206.098 811.298 207.378 810.138 209.238 810.138C211.078 810.138 212.298 811.278 212.298 813.518V819.718ZM217.411 819.718H219.231V810.258H221.531V808.758H219.231V807.978C219.231 806.558 219.771 805.958 221.411 805.958V804.438C218.611 804.438 217.411 805.538 217.411 807.978V808.758H215.991V810.258H217.411V819.718ZM223.653 819.718H225.473V808.758H223.653V819.718ZM224.593 806.978C225.253 806.978 225.793 806.438 225.793 805.738C225.793 805.038 225.253 804.498 224.593 804.498C223.893 804.498 223.353 805.038 223.353 805.738C223.353 806.438 223.893 806.978 224.593 806.978ZM230.395 813.758C230.395 811.218 231.715 810.438 233.455 810.438H233.935V808.558C232.195 808.558 231.015 809.318 230.395 810.538V808.758H228.575V819.718H230.395V813.758ZM251.856 819.718H253.656V813.258C253.656 810.118 251.716 808.558 249.216 808.558C247.536 808.558 245.976 809.418 245.336 810.998C244.616 809.358 243.116 808.558 241.316 808.558C239.876 808.558 238.576 809.178 237.856 810.338V808.758H236.036V819.718H237.856V813.678C237.856 811.318 239.116 810.138 240.956 810.138C242.756 810.138 243.956 811.278 243.956 813.518V819.718H245.756V813.678C245.756 811.318 247.016 810.138 248.856 810.138C250.656 810.138 251.856 811.278 251.856 813.518V819.718Z" fill="#D3D3D3"/>
<path d="M166.721 101.248V118H163.361V107.104L158.873 118H156.329L151.817 107.104V118H148.457V101.248H152.273L157.601 113.704L162.929 101.248H166.721ZM182.763 104.704L174.531 124.288H170.955L173.835 117.664L168.507 104.704H172.275L175.707 113.992L179.187 104.704H182.763ZM193.653 101.248V118H190.293V101.248H193.653ZM204.34 104.512C205.924 104.512 207.204 105.016 208.18 106.024C209.156 107.016 209.644 108.408 209.644 110.2V118H206.284V110.656C206.284 109.6 206.02 108.792 205.492 108.232C204.964 107.656 204.244 107.368 203.332 107.368C202.404 107.368 201.668 107.656 201.124 108.232C200.596 108.792 200.332 109.6 200.332 110.656V118H196.972V104.704H200.332V106.36C200.78 105.784 201.348 105.336 202.036 105.016C202.74 104.68 203.508 104.512 204.34 104.512ZM216.752 107.464V113.896C216.752 114.344 216.856 114.672 217.064 114.88C217.288 115.072 217.656 115.168 218.168 115.168H219.728V118H217.616C214.784 118 213.368 116.624 213.368 113.872V107.464H211.784V104.704H213.368V101.416H216.752V104.704H219.728V107.464H216.752ZM234.504 111.064C234.504 111.544 234.472 111.976 234.408 112.36H224.688C224.768 113.32 225.104 114.072 225.696 114.616C226.288 115.16 227.016 115.432 227.88 115.432C229.128 115.432 230.016 114.896 230.544 113.824H234.168C233.784 115.104 233.048 116.16 231.96 116.992C230.872 117.808 229.536 118.216 227.952 118.216C226.672 118.216 225.52 117.936 224.496 117.376C223.488 116.8 222.696 115.992 222.12 114.952C221.56 113.912 221.28 112.712 221.28 111.352C221.28 109.976 221.56 108.768 222.12 107.728C222.68 106.688 223.464 105.888 224.472 105.328C225.48 104.768 226.64 104.488 227.952 104.488C229.216 104.488 230.344 104.76 231.336 105.304C232.344 105.848 233.12 106.624 233.664 107.632C234.224 108.624 234.504 109.768 234.504 111.064ZM231.024 110.104C231.008 109.24 230.696 108.552 230.088 108.04C229.48 107.512 228.736 107.248 227.856 107.248C227.024 107.248 226.32 107.504 225.744 108.016C225.184 108.512 224.84 109.208 224.712 110.104H231.024ZM240.317 106.768C240.749 106.064 241.309 105.512 241.997 105.112C242.701 104.712 243.501 104.512 244.397 104.512V108.04H243.509C242.453 108.04 241.653 108.288 241.109 108.784C240.581 109.28 240.317 110.144 240.317 111.376V118H236.957V104.704H240.317V106.768ZM259.02 111.064C259.02 111.544 258.988 111.976 258.924 112.36H249.204C249.284 113.32 249.62 114.072 250.212 114.616C250.804 115.16 251.532 115.432 252.396 115.432C253.644 115.432 254.532 114.896 255.06 113.824H258.684C258.3 115.104 257.564 116.16 256.476 116.992C255.388 117.808 254.052 118.216 252.468 118.216C251.188 118.216 250.036 117.936 249.012 117.376C248.004 116.8 247.212 115.992 246.636 114.952C246.076 113.912 245.796 112.712 245.796 111.352C245.796 109.976 246.076 108.768 246.636 107.728C247.196 106.688 247.98 105.888 248.988 105.328C249.996 104.768 251.156 104.488 252.468 104.488C253.732 104.488 254.86 104.76 255.852 105.304C256.86 105.848 257.636 106.624 258.18 107.632C258.74 108.624 259.02 109.768 259.02 111.064ZM255.54 110.104C255.524 109.24 255.212 108.552 254.604 108.04C253.996 107.512 253.252 107.248 252.372 107.248C251.54 107.248 250.836 107.504 250.26 108.016C249.7 108.512 249.356 109.208 249.228 110.104H255.54ZM266.56 118.216C265.472 118.216 264.496 118.024 263.632 117.64C262.768 117.24 262.08 116.704 261.568 116.032C261.072 115.36 260.8 114.616 260.752 113.8H264.136C264.2 114.312 264.448 114.736 264.88 115.072C265.328 115.408 265.88 115.576 266.536 115.576C267.176 115.576 267.672 115.448 268.024 115.192C268.392 114.936 268.576 114.608 268.576 114.208C268.576 113.776 268.352 113.456 267.904 113.248C267.472 113.024 266.776 112.784 265.816 112.528C264.824 112.288 264.008 112.04 263.368 111.784C262.744 111.528 262.2 111.136 261.736 110.608C261.288 110.08 261.064 109.368 261.064 108.472C261.064 107.736 261.272 107.064 261.688 106.456C262.12 105.848 262.728 105.368 263.512 105.016C264.312 104.664 265.248 104.488 266.32 104.488C267.904 104.488 269.168 104.888 270.112 105.688C271.056 106.472 271.576 107.536 271.672 108.88H268.456C268.408 108.352 268.184 107.936 267.784 107.632C267.4 107.312 266.88 107.152 266.224 107.152C265.616 107.152 265.144 107.264 264.808 107.488C264.488 107.712 264.328 108.024 264.328 108.424C264.328 108.872 264.552 109.216 265 109.456C265.448 109.68 266.144 109.912 267.088 110.152C268.048 110.392 268.84 110.64 269.464 110.896C270.088 111.152 270.624 111.552 271.072 112.096C271.536 112.624 271.776 113.328 271.792 114.208C271.792 114.976 271.576 115.664 271.144 116.272C270.728 116.88 270.12 117.36 269.32 117.712C268.536 118.048 267.616 118.216 266.56 118.216ZM278.463 107.464V113.896C278.463 114.344 278.567 114.672 278.775 114.88C278.999 115.072 279.367 115.168 279.879 115.168H281.439V118H279.327C276.495 118 275.079 116.624 275.079 113.872V107.464H273.495V104.704H275.079V101.416H278.463V104.704H281.439V107.464H278.463Z" fill="white"/>
<circle cx="45.5" cy="106.5" r="22" stroke="#8C20BF" stroke-width="3"/>
<path d="M55.414 104.707H40.828L46.121 99.414L44.707 98L37 105.707L44.707 113.414L46.121 112L40.828 106.707H55.414V104.707Z" fill="white"/>
<circle cx="45.5" cy="106.5" r="22" stroke="#F5F5F5" stroke-width="3"/>
<path d="M55.414 104.707H40.828L46.121 99.414L44.707 98L37 105.707L44.707 113.414L46.121 112L40.828 106.707H55.414V104.707Z" fill="white"/>
<path d="M37 333.16C37 334.72 36.1 335.84 34.04 335.84H31.36V330.56H34.04C36.12 330.56 37 331.58 37 333.16ZM29.54 329.06V343H31.36V337.3H33.56L36.88 343H39.06L35.56 337.16C37.9 336.64 38.88 334.94 38.88 333.16C38.88 330.88 37.32 329.06 34.04 329.06H29.54ZM52.108 337.5C52.108 334.04 49.688 331.86 46.568 331.86C43.468 331.86 41.028 334.04 41.028 337.5C41.028 340.98 43.388 343.18 46.488 343.18C49.608 343.18 52.108 340.98 52.108 337.5ZM42.888 337.5C42.888 334.74 44.628 333.44 46.548 333.44C48.428 333.44 50.248 334.74 50.248 337.5C50.248 340.28 48.388 341.58 46.488 341.58C44.588 341.58 42.888 340.28 42.888 337.5ZM70.3209 343H72.1209V336.54C72.1209 333.4 70.1809 331.84 67.6809 331.84C66.0009 331.84 64.4409 332.7 63.8009 334.28C63.0809 332.64 61.5809 331.84 59.7809 331.84C58.3409 331.84 57.0409 332.46 56.3209 333.62V332.04H54.5009V343H56.3209V336.96C56.3209 334.6 57.5809 333.42 59.4209 333.42C61.2209 333.42 62.4209 334.56 62.4209 336.8V343H64.2209V336.96C64.2209 334.6 65.4809 333.42 67.3209 333.42C69.1209 333.42 70.3209 334.56 70.3209 336.8V343ZM74.4264 337.48C74.4264 340.88 76.6864 343.18 79.6064 343.18C81.6264 343.18 83.0464 342.14 83.7064 340.96V343H85.5464V332.04H83.7064V334.04C83.0664 332.9 81.6664 331.86 79.6264 331.86C76.6864 331.86 74.4264 334.06 74.4264 337.48ZM83.7064 337.5C83.7064 340.08 81.9864 341.58 79.9864 341.58C77.9864 341.58 76.2864 340.06 76.2864 337.48C76.2864 334.9 77.9864 333.44 79.9864 333.44C81.9864 333.44 83.7064 334.96 83.7064 337.5ZM96.642 343H98.442V336.54C98.442 333.4 96.502 331.84 93.962 331.84C92.482 331.84 91.162 332.46 90.442 333.6V332.04H88.622V343H90.442V336.94C90.442 334.58 91.722 333.42 93.582 333.42C95.422 333.42 96.642 334.56 96.642 336.8V343ZM100.735 337.5C100.735 340.98 102.955 343.18 106.075 343.18C108.795 343.18 110.575 341.66 111.135 339.48H109.175C108.775 340.86 107.695 341.64 106.075 341.64C104.075 341.64 102.595 340.22 102.595 337.5C102.595 334.82 104.075 333.4 106.075 333.4C107.695 333.4 108.795 334.24 109.175 335.56H111.135C110.575 333.26 108.795 331.86 106.075 331.86C102.955 331.86 100.735 334.06 100.735 337.5ZM118.223 333.4C120.103 333.4 121.703 334.58 121.683 336.72H114.763C114.963 334.58 116.443 333.4 118.223 333.4ZM123.343 339.62H121.383C120.983 340.8 119.943 341.64 118.303 341.64C116.443 341.64 114.883 340.42 114.743 338.2H123.503C123.543 337.82 123.563 337.5 123.563 337.1C123.563 334.1 121.483 331.86 118.303 331.86C115.103 331.86 112.883 334.04 112.883 337.5C112.883 340.98 115.183 343.18 118.303 343.18C121.023 343.18 122.783 341.62 123.343 339.62Z" fill="#F5F5F5"/>
<path d="M170.86 338.02C170.86 342.2 173.92 345.12 177.82 345.12C180.84 345.12 183.24 343.62 184.28 340.94H182.1C181.34 342.6 179.86 343.54 177.82 343.54C174.9 343.54 172.72 341.42 172.72 338.02C172.72 334.6 174.9 332.48 177.82 332.48C179.86 332.48 181.34 333.42 182.1 335.1H184.28C183.24 332.4 180.84 330.88 177.82 330.88C173.92 330.88 170.86 333.84 170.86 338.02ZM197.389 339.5C197.389 336.04 194.969 333.86 191.849 333.86C188.749 333.86 186.309 336.04 186.309 339.5C186.309 342.98 188.669 345.18 191.769 345.18C194.889 345.18 197.389 342.98 197.389 339.5ZM188.169 339.5C188.169 336.74 189.909 335.44 191.829 335.44C193.709 335.44 195.529 336.74 195.529 339.5C195.529 342.28 193.669 343.58 191.769 343.58C189.869 343.58 188.169 342.28 188.169 339.5ZM215.602 345H217.402V338.54C217.402 335.4 215.462 333.84 212.962 333.84C211.282 333.84 209.722 334.7 209.082 336.28C208.362 334.64 206.862 333.84 205.062 333.84C203.622 333.84 202.322 334.46 201.602 335.62V334.04H199.782V345H201.602V338.96C201.602 336.6 202.862 335.42 204.702 335.42C206.502 335.42 207.702 336.56 207.702 338.8V345H209.502V338.96C209.502 336.6 210.762 335.42 212.602 335.42C214.402 335.42 215.602 336.56 215.602 338.8V345ZM225.048 335.4C226.928 335.4 228.528 336.58 228.508 338.72H221.588C221.788 336.58 223.268 335.4 225.048 335.4ZM230.168 341.62H228.208C227.808 342.8 226.768 343.64 225.128 343.64C223.268 343.64 221.708 342.42 221.568 340.2H230.328C230.368 339.82 230.388 339.5 230.388 339.1C230.388 336.1 228.308 333.86 225.128 333.86C221.928 333.86 219.708 336.04 219.708 339.5C219.708 342.98 222.008 345.18 225.128 345.18C227.848 345.18 229.608 343.62 230.168 341.62ZM232.11 339.48C232.11 342.88 234.37 345.18 237.31 345.18C239.31 345.18 240.73 344.16 241.39 342.94V345H243.23V330.2H241.39V336C240.63 334.74 239.05 333.86 237.33 333.86C234.37 333.86 232.11 336.06 232.11 339.48ZM241.39 339.5C241.39 342.08 239.67 343.58 237.67 343.58C235.67 343.58 233.97 342.06 233.97 339.48C233.97 336.9 235.67 335.44 237.67 335.44C239.67 335.44 241.39 336.96 241.39 339.5ZM250.466 342.92L247.026 334.04H245.006L249.426 344.88L247.266 350.16H249.146L255.746 334.04H253.866L250.466 342.92Z" fill="#F5F5F5"/>
<path d="M328.9 345H330.82L325.8 331.14H323.7L318.66 345H320.58L321.7 341.9H327.78L328.9 345ZM327.26 340.42H322.22L324.74 333.38L327.26 340.42ZM332.337 339.5C332.337 342.98 334.557 345.18 337.677 345.18C340.397 345.18 342.177 343.66 342.737 341.48H340.777C340.377 342.86 339.297 343.64 337.677 343.64C335.677 343.64 334.197 342.22 334.197 339.5C334.197 336.82 335.677 335.4 337.677 335.4C339.297 335.4 340.397 336.24 340.777 337.56H342.737C342.177 335.26 340.397 333.86 337.677 333.86C334.557 333.86 332.337 336.06 332.337 339.5ZM345.565 342C345.565 344.2 346.665 345 348.605 345H350.245V343.46H348.905C347.785 343.46 347.385 343.08 347.385 342V335.54H350.245V334.04H347.385V331.28H345.565V334.04H344.145V335.54H345.565V342ZM352.45 345H354.27V334.04H352.45V345ZM353.39 332.26C354.05 332.26 354.59 331.72 354.59 331.02C354.59 330.32 354.05 329.78 353.39 329.78C352.69 329.78 352.15 330.32 352.15 331.02C352.15 331.72 352.69 332.26 353.39 332.26ZM367.772 339.5C367.772 336.04 365.352 333.86 362.232 333.86C359.132 333.86 356.692 336.04 356.692 339.5C356.692 342.98 359.052 345.18 362.152 345.18C365.272 345.18 367.772 342.98 367.772 339.5ZM358.552 339.5C358.552 336.74 360.292 335.44 362.212 335.44C364.092 335.44 365.912 336.74 365.912 339.5C365.912 342.28 364.052 343.58 362.152 343.58C360.252 343.58 358.552 342.28 358.552 339.5ZM378.185 345H379.985V338.54C379.985 335.4 378.045 333.84 375.505 333.84C374.025 333.84 372.705 334.46 371.985 335.6V334.04H370.165V345H371.985V338.94C371.985 336.58 373.265 335.42 375.125 335.42C376.965 335.42 378.185 336.56 378.185 338.8V345Z" fill="#F5F5F5"/>
<path d="M46.88 517.06H42.54V531H46.88C51.46 531 54.28 528.38 54.28 524.06C54.28 519.74 51.46 517.06 46.88 517.06ZM44.36 529.5V518.54H46.88C50.52 518.54 52.42 520.66 52.42 524.06C52.42 527.46 50.52 529.5 46.88 529.5H44.36ZM58.5006 525.04C58.5006 522.5 59.8206 521.72 61.5606 521.72H62.0406V519.84C60.3006 519.84 59.1206 520.6 58.5006 521.82V520.04H56.6806V531H58.5006V525.04ZM63.4616 525.48C63.4616 528.88 65.7216 531.18 68.6416 531.18C70.6616 531.18 72.0816 530.14 72.7416 528.96V531H74.5816V520.04H72.7416V522.04C72.1016 520.9 70.7016 519.86 68.6616 519.86C65.7216 519.86 63.4616 522.06 63.4616 525.48ZM72.7416 525.5C72.7416 528.08 71.0216 529.58 69.0216 529.58C67.0216 529.58 65.3216 528.06 65.3216 525.48C65.3216 522.9 67.0216 521.44 69.0216 521.44C71.0216 521.44 72.7416 522.96 72.7416 525.5ZM93.4772 531H95.2772V524.54C95.2772 521.4 93.3372 519.84 90.8372 519.84C89.1572 519.84 87.5972 520.7 86.9572 522.28C86.2372 520.64 84.7372 519.84 82.9372 519.84C81.4972 519.84 80.1972 520.46 79.4772 521.62V520.04H77.6572V531H79.4772V524.96C79.4772 522.6 80.7372 521.42 82.5772 521.42C84.3772 521.42 85.5772 522.56 85.5772 524.8V531H87.3772V524.96C87.3772 522.6 88.6372 521.42 90.4772 521.42C92.2772 521.42 93.4772 522.56 93.4772 524.8V531ZM97.5827 525.48C97.5827 528.88 99.8427 531.18 102.763 531.18C104.783 531.18 106.203 530.14 106.863 528.96V531H108.703V520.04H106.863V522.04C106.223 520.9 104.823 519.86 102.783 519.86C99.8427 519.86 97.5827 522.06 97.5827 525.48ZM106.863 525.5C106.863 528.08 105.143 529.58 103.143 529.58C101.143 529.58 99.4427 528.06 99.4427 525.48C99.4427 522.9 101.143 521.44 103.143 521.44C105.143 521.44 106.863 522.96 106.863 525.5Z" fill="#F5F5F5"/>
<path d="M180.68 520.54H184.5V533H186.32V520.54H190.12V519.06H180.68V520.54ZM192.36 533H194.18V526.94C194.18 524.58 195.46 523.42 197.32 523.42C199.16 523.42 200.38 524.56 200.38 526.8V533H202.18V526.54C202.18 523.4 200.24 521.84 197.8 521.84C196.26 521.84 194.9 522.46 194.18 523.62V518.2H192.36V533ZM206.973 527.04C206.973 524.5 208.293 523.72 210.033 523.72H210.513V521.84C208.773 521.84 207.593 522.6 206.973 523.82V522.04H205.153V533H206.973V527.04ZM212.614 533H214.434V522.04H212.614V533ZM213.554 520.26C214.214 520.26 214.754 519.72 214.754 519.02C214.754 518.32 214.214 517.78 213.554 517.78C212.854 517.78 212.314 518.32 212.314 519.02C212.314 519.72 212.854 520.26 213.554 520.26ZM217.536 533H219.356V518.2H217.536V533ZM222.458 533H224.278V518.2H222.458V533ZM232.04 523.4C233.92 523.4 235.52 524.58 235.5 526.72H228.58C228.78 524.58 230.26 523.4 232.04 523.4ZM237.16 529.62H235.2C234.8 530.8 233.76 531.64 232.12 531.64C230.26 531.64 228.7 530.42 228.56 528.2H237.32C237.36 527.82 237.38 527.5 237.38 527.1C237.38 524.1 235.3 521.86 232.12 521.86C228.92 521.86 226.7 524.04 226.7 527.5C226.7 530.98 229 533.18 232.12 533.18C234.84 533.18 236.6 531.62 237.16 529.62ZM241.602 527.04C241.602 524.5 242.922 523.72 244.662 523.72H245.142V521.84C243.402 521.84 242.222 522.6 241.602 523.82V522.04H239.782V533H241.602V527.04Z" fill="#F5F5F5"/>
<path d="M331.6 529.2C331.6 524.04 324.08 526.28 324.08 522.68C324.08 521.18 325.26 520.4 326.76 520.44C328.46 520.46 329.34 521.52 329.46 522.46H331.46C331.24 520.34 329.5 518.88 326.84 518.88C324.08 518.88 322.22 520.44 322.22 522.74C322.22 527.92 329.76 525.52 329.76 529.28C329.76 530.6 328.72 531.6 326.96 531.6C325.02 531.6 324.2 530.44 324.08 529.28H322.14C322.18 531.58 324.16 533.14 326.96 533.14C329.98 533.14 331.6 531.18 331.6 529.2ZM333.598 527.5C333.598 530.98 335.818 533.18 338.938 533.18C341.658 533.18 343.438 531.66 343.998 529.48H342.038C341.638 530.86 340.558 531.64 338.938 531.64C336.938 531.64 335.458 530.22 335.458 527.5C335.458 524.82 336.938 523.4 338.938 523.4C340.558 523.4 341.658 524.24 342.038 525.56H343.998C343.438 523.26 341.658 521.86 338.938 521.86C335.818 521.86 333.598 524.06 333.598 527.5ZM346.427 533H348.247V522.04H346.427V533ZM347.367 520.26C348.027 520.26 348.567 519.72 348.567 519.02C348.567 518.32 348.027 517.78 347.367 517.78C346.667 517.78 346.127 518.32 346.127 519.02C346.127 519.72 346.667 520.26 347.367 520.26ZM350.969 526.44H358.949V524.9H350.969V526.44ZM362.364 533H364.184V526.72H369.104V525.24H364.184V520.54H370.244V519.06H362.364V533ZM372.442 533H374.262V522.04H372.442V533ZM373.382 520.26C374.042 520.26 374.582 519.72 374.582 519.02C374.582 518.32 374.042 517.78 373.382 517.78C372.682 517.78 372.142 518.32 372.142 519.02C372.142 519.72 372.682 520.26 373.382 520.26Z" fill="#F5F5F5"/>
<path d="M35.9 719H37.82L32.8 705.14H30.7L25.66 719H27.58L28.7 715.9H34.78L35.9 719ZM34.26 714.42H29.22L31.74 707.38L34.26 714.42ZM39.3366 713.48C39.3366 716.88 41.5966 719.18 44.5366 719.18C46.5366 719.18 47.9566 718.16 48.6166 716.94V719H50.4566V704.2H48.6166V710C47.8566 708.74 46.2766 707.86 44.5566 707.86C41.5966 707.86 39.3366 710.06 39.3366 713.48ZM48.6166 713.5C48.6166 716.08 46.8966 717.58 44.8966 717.58C42.8966 717.58 41.1966 716.06 41.1966 713.48C41.1966 710.9 42.8966 709.44 44.8966 709.44C46.8966 709.44 48.6166 710.96 48.6166 713.5ZM52.2322 708.04L56.5322 719H58.6522L62.9522 708.04H61.0122L57.6122 717.32L54.1922 708.04H52.2322ZM69.4031 709.4C71.2831 709.4 72.8831 710.58 72.8631 712.72H65.9431C66.1431 710.58 67.6231 709.4 69.4031 709.4ZM74.5231 715.62H72.5631C72.1631 716.8 71.1231 717.64 69.4831 717.64C67.6231 717.64 66.0631 716.42 65.9231 714.2H74.6831C74.7231 713.82 74.7431 713.5 74.7431 713.1C74.7431 710.1 72.6631 707.86 69.4831 707.86C66.2831 707.86 64.0631 710.04 64.0631 713.5C64.0631 716.98 66.3631 719.18 69.4831 719.18C72.2031 719.18 73.9631 717.62 74.5231 715.62ZM85.1655 719H86.9655V712.54C86.9655 709.4 85.0255 707.84 82.4855 707.84C81.0055 707.84 79.6855 708.46 78.9655 709.6V708.04H77.1455V719H78.9655V712.94C78.9655 710.58 80.2455 709.42 82.1055 709.42C83.9455 709.42 85.1655 710.56 85.1655 712.8V719ZM90.3384 716C90.3384 718.2 91.4384 719 93.3784 719H95.0184V717.46H93.6784C92.5584 717.46 92.1584 717.08 92.1584 716V709.54H95.0184V708.04H92.1584V705.28H90.3384V708.04H88.9184V709.54H90.3384V716ZM106.944 708.04H105.124V714.06C105.124 716.42 103.864 717.58 101.984 717.58C100.144 717.58 98.9236 716.44 98.9236 714.22V708.04H97.1236V714.46C97.1236 717.6 99.1036 719.16 101.624 719.16C103.084 719.16 104.424 718.52 105.124 717.38V719H106.944V708.04ZM111.837 713.04C111.837 710.5 113.157 709.72 114.897 709.72H115.377V707.84C113.637 707.84 112.457 708.6 111.837 709.82V708.04H110.017V719H111.837V713.04ZM122.138 709.4C124.018 709.4 125.618 710.58 125.598 712.72H118.678C118.877 710.58 120.358 709.4 122.138 709.4ZM127.258 715.62H125.298C124.898 716.8 123.858 717.64 122.218 717.64C120.358 717.64 118.798 716.42 118.658 714.2H127.418C127.458 713.82 127.478 713.5 127.478 713.1C127.478 710.1 125.398 707.86 122.218 707.86C119.018 707.86 116.798 710.04 116.798 713.5C116.798 716.98 119.098 719.18 122.218 719.18C124.938 719.18 126.698 717.62 127.258 715.62Z" fill="#F5F5F5"/>
<path d="M188.46 721H190.28V707.06H188.46V713.18H181.36V707.06H179.54V721H181.36V714.68H188.46V721ZM193.368 721H195.188V710.04H193.368V721ZM194.308 708.26C194.968 708.26 195.508 707.72 195.508 707.02C195.508 706.32 194.968 705.78 194.308 705.78C193.608 705.78 193.068 706.32 193.068 707.02C193.068 707.72 193.608 708.26 194.308 708.26ZM206.17 718.02C206.09 714.1 199.73 715.52 199.73 712.92C199.73 712.04 200.53 711.4 201.87 711.4C203.33 711.4 204.17 712.2 204.25 713.3H206.07C205.95 711.16 204.35 709.86 201.93 709.86C199.49 709.86 197.91 711.24 197.91 712.92C197.91 717 204.39 715.58 204.39 718.02C204.39 718.92 203.59 719.64 202.15 719.64C200.61 719.64 199.67 718.84 199.57 717.78H197.69C197.81 719.78 199.61 721.18 202.17 721.18C204.59 721.18 206.17 719.82 206.17 718.02ZM209.139 718C209.139 720.2 210.239 721 212.179 721H213.819V719.46H212.479C211.359 719.46 210.959 719.08 210.959 718V711.54H213.819V710.04H210.959V707.28H209.139V710.04H207.719V711.54H209.139V718ZM226.424 715.5C226.424 712.04 224.004 709.86 220.884 709.86C217.784 709.86 215.344 712.04 215.344 715.5C215.344 718.98 217.704 721.18 220.804 721.18C223.924 721.18 226.424 718.98 226.424 715.5ZM217.204 715.5C217.204 712.74 218.944 711.44 220.864 711.44C222.744 711.44 224.564 712.74 224.564 715.5C224.564 718.28 222.704 719.58 220.804 719.58C218.904 719.58 217.204 718.28 217.204 715.5ZM230.637 715.04C230.637 712.5 231.957 711.72 233.697 711.72H234.177V709.84C232.437 709.84 231.257 710.6 230.637 711.82V710.04H228.817V721H230.637V715.04ZM240.438 718.92L236.998 710.04H234.978L239.398 720.88L237.238 726.16H239.118L245.718 710.04H243.838L240.438 718.92Z" fill="#F5F5F5"/>
<path d="M310.54 721H312.36V714.72H317.28V713.24H312.36V708.54H318.42V707.06H310.54V721ZM319.938 715.48C319.938 718.88 322.198 721.18 325.118 721.18C327.138 721.18 328.558 720.14 329.218 718.96V721H331.058V710.04H329.218V712.04C328.578 710.9 327.178 709.86 325.138 709.86C322.198 709.86 319.938 712.06 319.938 715.48ZM329.218 715.5C329.218 718.08 327.498 719.58 325.498 719.58C323.498 719.58 321.798 718.06 321.798 715.48C321.798 712.9 323.498 711.44 325.498 711.44C327.498 711.44 329.218 712.96 329.218 715.5ZM342.154 721H343.954V714.54C343.954 711.4 342.014 709.84 339.474 709.84C337.994 709.84 336.674 710.46 335.954 711.6V710.04H334.134V721H335.954V714.94C335.954 712.58 337.234 711.42 339.094 711.42C340.934 711.42 342.154 712.56 342.154 714.8V721ZM347.327 718C347.327 720.2 348.427 721 350.367 721H352.007V719.46H350.667C349.547 719.46 349.147 719.08 349.147 718V711.54H352.007V710.04H349.147V707.28H347.327V710.04H345.907V711.54H347.327V718ZM353.532 715.48C353.532 718.88 355.792 721.18 358.712 721.18C360.732 721.18 362.152 720.14 362.812 718.96V721H364.652V710.04H362.812V712.04C362.172 710.9 360.772 709.86 358.732 709.86C355.792 709.86 353.532 712.06 353.532 715.48ZM362.812 715.5C362.812 718.08 361.092 719.58 359.092 719.58C357.092 719.58 355.392 718.06 355.392 715.48C355.392 712.9 357.092 711.44 359.092 711.44C361.092 711.44 362.812 712.96 362.812 715.5ZM375.608 718.02C375.528 714.1 369.168 715.52 369.168 712.92C369.168 712.04 369.968 711.4 371.308 711.4C372.768 711.4 373.608 712.2 373.688 713.3H375.508C375.388 711.16 373.788 709.86 371.368 709.86C368.928 709.86 367.348 711.24 367.348 712.92C367.348 717 373.828 715.58 373.828 718.02C373.828 718.92 373.028 719.64 371.588 719.64C370.048 719.64 369.108 718.84 369.008 717.78H367.128C367.248 719.78 369.048 721.18 371.608 721.18C374.028 721.18 375.608 719.82 375.608 718.02ZM382.337 718.92L378.897 710.04H376.877L381.297 720.88L379.137 726.16H381.017L387.617 710.04H385.737L382.337 718.92Z" fill="#F5F5F5"/>
<rect x="22" y="168" width="121.21" height="116" rx="5" fill="#F5F5F5"/>
<rect x="22" y="378" width="121.21" height="116" rx="5" fill="#F5F5F5"/>
<rect x="22" y="555" width="121.21" height="116" rx="5" fill="#F5F5F5"/>
<rect x="159" y="170" width="121.21" height="116" rx="5" fill="#F5F5F5"/>
<rect x="159" y="380" width="121.21" height="116" rx="5" fill="#F5F5F5"/>
<rect x="159" y="557" width="121.21" height="116" rx="5" fill="#F5F5F5"/>
<rect x="296" y="168" width="121.21" height="116" rx="5" fill="#F5F5F5"/>
<rect x="296" y="378" width="121.21" height="116" rx="5" fill="#F5F5F5"/>
<rect x="296" y="555" width="121.21" height="116" rx="5" fill="#F5F5F5"/>
<circle cx="389" cy="111" r="25" fill="#F5F5F5"/>
</svg>
