<svg width="428" height="926" viewBox="0 0 428 926" fill="none" xmlns="http://www.w3.org/2000/svg">
<rect width="428" height="926" fill="#D3D3D3"/>
<path d="M199.627 86.248V103H196.267V92.104L191.779 103H189.235L184.723 92.104V103H181.363V86.248H185.179L190.507 98.704L195.835 86.248H199.627ZM215.501 89.704V103H212.117V101.32C211.685 101.896 211.117 102.352 210.413 102.688C209.725 103.008 208.973 103.168 208.157 103.168C207.117 103.168 206.197 102.952 205.397 102.52C204.597 102.072 203.965 101.424 203.501 100.576C203.053 99.712 202.829 98.688 202.829 97.504V89.704H206.189V97.024C206.189 98.08 206.453 98.896 206.981 99.472C207.509 100.032 208.229 100.312 209.141 100.312C210.069 100.312 210.797 100.032 211.325 99.472C211.853 98.896 212.117 98.08 212.117 97.024V89.704H215.501ZM226.184 89.512C227.768 89.512 229.048 90.016 230.024 91.024C231 92.016 231.488 93.408 231.488 95.2V103H228.128V95.656C228.128 94.6 227.864 93.792 227.336 93.232C226.808 92.656 226.088 92.368 225.176 92.368C224.248 92.368 223.512 92.656 222.968 93.232C222.44 93.792 222.176 94.6 222.176 95.656V103H218.816V89.704H222.176V91.36C222.624 90.784 223.192 90.336 223.88 90.016C224.584 89.68 225.352 89.512 226.184 89.512ZM233.819 96.304C233.819 94.96 234.083 93.768 234.611 92.728C235.155 91.688 235.883 90.888 236.795 90.328C237.723 89.768 238.755 89.488 239.891 89.488C240.883 89.488 241.747 89.688 242.483 90.088C243.235 90.488 243.835 90.992 244.283 91.6V89.704H247.667V103H244.283V101.056C243.851 101.68 243.251 102.2 242.483 102.616C241.731 103.016 240.859 103.216 239.867 103.216C238.747 103.216 237.723 102.928 236.795 102.352C235.883 101.776 235.155 100.968 234.611 99.928C234.083 98.872 233.819 97.664 233.819 96.304ZM244.283 96.352C244.283 95.536 244.123 94.84 243.803 94.264C243.483 93.672 243.051 93.224 242.507 92.92C241.963 92.6 241.379 92.44 240.755 92.44C240.131 92.44 239.555 92.592 239.027 92.896C238.499 93.2 238.067 93.648 237.731 94.24C237.411 94.816 237.251 95.504 237.251 96.304C237.251 97.104 237.411 97.808 237.731 98.416C238.067 99.008 238.499 99.464 239.027 99.784C239.571 100.104 240.147 100.264 240.755 100.264C241.379 100.264 241.963 100.112 242.507 99.808C243.051 99.488 243.483 99.04 243.803 98.464C244.123 97.872 244.283 97.168 244.283 96.352Z" fill="white"/>
<path d="M33.9229 357.768V369H31.1869V362.264L28.6749 369H26.4669L23.9389 362.248V369H21.2029V357.768H24.4349L27.5869 365.544L30.7069 357.768H33.9229ZM45.0104 360.072L39.4104 373.24H36.4664L38.5144 368.696L34.8824 360.072H37.9384L40.0024 365.656L42.0504 360.072H45.0104ZM62.1104 357.768V369H59.3744V362.264L56.8624 369H54.6544L52.1264 362.248V369H49.3904V357.768H52.6224L55.7744 365.544L58.8944 357.768H62.1104ZM68.1419 369.128C67.2673 369.128 66.4779 368.941 65.7739 368.568C65.0806 368.195 64.5313 367.661 64.1259 366.968C63.7313 366.275 63.5339 365.464 63.5339 364.536C63.5339 363.619 63.7366 362.813 64.1419 362.12C64.5473 361.416 65.1019 360.877 65.8059 360.504C66.5099 360.131 67.2993 359.944 68.1739 359.944C69.0486 359.944 69.8379 360.131 70.5419 360.504C71.2459 360.877 71.8006 361.416 72.2059 362.12C72.6113 362.813 72.8139 363.619 72.8139 364.536C72.8139 365.453 72.6059 366.264 72.1899 366.968C71.7846 367.661 71.2246 368.195 70.5099 368.568C69.8059 368.941 69.0166 369.128 68.1419 369.128ZM68.1419 366.76C68.6646 366.76 69.1073 366.568 69.4699 366.184C69.8433 365.8 70.0299 365.251 70.0299 364.536C70.0299 363.821 69.8486 363.272 69.4859 362.888C69.1339 362.504 68.6966 362.312 68.1739 362.312C67.6406 362.312 67.1979 362.504 66.8459 362.888C66.4939 363.261 66.3179 363.811 66.3179 364.536C66.3179 365.251 66.4886 365.8 66.8299 366.184C67.1819 366.568 67.6193 366.76 68.1419 366.76ZM78.2814 366.44L80.2174 360.072H83.1294L79.9614 369H76.5854L73.4174 360.072H76.3454L78.2814 366.44ZM85.6571 359.144C85.1771 359.144 84.7824 359.005 84.4731 358.728C84.1744 358.44 84.0251 358.088 84.0251 357.672C84.0251 357.245 84.1744 356.893 84.4731 356.616C84.7824 356.328 85.1771 356.184 85.6571 356.184C86.1264 356.184 86.5104 356.328 86.8091 356.616C87.1184 356.893 87.2731 357.245 87.2731 357.672C87.2731 358.088 87.1184 358.44 86.8091 358.728C86.5104 359.005 86.1264 359.144 85.6571 359.144ZM87.0171 360.072V369H84.2811V360.072H87.0171ZM97.4158 364.392C97.4158 364.648 97.3998 364.915 97.3678 365.192H91.1758C91.2185 365.747 91.3945 366.173 91.7038 366.472C92.0238 366.76 92.4131 366.904 92.8718 366.904C93.5545 366.904 94.0291 366.616 94.2958 366.04H97.2078C97.0585 366.627 96.7865 367.155 96.3918 367.624C96.0078 368.093 95.5225 368.461 94.9358 368.728C94.3491 368.995 93.6931 369.128 92.9678 369.128C92.0931 369.128 91.3145 368.941 90.6318 368.568C89.9491 368.195 89.4158 367.661 89.0318 366.968C88.6478 366.275 88.4558 365.464 88.4558 364.536C88.4558 363.608 88.6425 362.797 89.0158 362.104C89.3998 361.411 89.9331 360.877 90.6158 360.504C91.2985 360.131 92.0825 359.944 92.9678 359.944C93.8318 359.944 94.5998 360.125 95.2718 360.488C95.9438 360.851 96.4665 361.368 96.8398 362.04C97.2238 362.712 97.4158 363.496 97.4158 364.392ZM94.6158 363.672C94.6158 363.203 94.4558 362.829 94.1358 362.552C93.8158 362.275 93.4158 362.136 92.9358 362.136C92.4771 362.136 92.0878 362.269 91.7678 362.536C91.4585 362.803 91.2665 363.181 91.1918 363.672H94.6158ZM102.491 369.128C101.713 369.128 101.019 368.995 100.411 368.728C99.8032 368.461 99.3232 368.099 98.9712 367.64C98.6192 367.171 98.4219 366.648 98.3792 366.072H101.083C101.115 366.381 101.259 366.632 101.515 366.824C101.771 367.016 102.086 367.112 102.459 367.112C102.801 367.112 103.062 367.048 103.243 366.92C103.435 366.781 103.531 366.605 103.531 366.392C103.531 366.136 103.398 365.949 103.131 365.832C102.865 365.704 102.433 365.565 101.835 365.416C101.195 365.267 100.662 365.112 100.235 364.952C99.8085 364.781 99.4405 364.52 99.1312 364.168C98.8219 363.805 98.6672 363.32 98.6672 362.712C98.6672 362.2 98.8059 361.736 99.0832 361.32C99.3712 360.893 99.7872 360.557 100.331 360.312C100.886 360.067 101.542 359.944 102.299 359.944C103.419 359.944 104.299 360.221 104.939 360.776C105.59 361.331 105.963 362.067 106.059 362.984H103.531C103.489 362.675 103.35 362.429 103.115 362.248C102.891 362.067 102.593 361.976 102.219 361.976C101.899 361.976 101.654 362.04 101.483 362.168C101.313 362.285 101.227 362.451 101.227 362.664C101.227 362.92 101.361 363.112 101.627 363.24C101.905 363.368 102.331 363.496 102.907 363.624C103.569 363.795 104.107 363.965 104.523 364.136C104.939 364.296 105.302 364.563 105.611 364.936C105.931 365.299 106.097 365.789 106.107 366.408C106.107 366.931 105.958 367.4 105.659 367.816C105.371 368.221 104.95 368.541 104.395 368.776C103.851 369.011 103.217 369.128 102.491 369.128Z" fill="white"/>
<path d="M28.345 626L26.009 621.76H25.353V626H22.617V614.768H27.209C28.0943 614.768 28.8463 614.923 29.465 615.232C30.0943 615.541 30.5637 615.968 30.873 616.512C31.1823 617.045 31.337 617.643 31.337 618.304C31.337 619.051 31.1237 619.717 30.697 620.304C30.281 620.891 29.6623 621.307 28.841 621.552L31.433 626H28.345ZM25.353 619.824H27.049C27.5503 619.824 27.9237 619.701 28.169 619.456C28.425 619.211 28.553 618.864 28.553 618.416C28.553 617.989 28.425 617.653 28.169 617.408C27.9237 617.163 27.5503 617.04 27.049 617.04H25.353V619.824ZM41.4705 621.392C41.4705 621.648 41.4545 621.915 41.4225 622.192H35.2305C35.2732 622.747 35.4492 623.173 35.7585 623.472C36.0785 623.76 36.4678 623.904 36.9265 623.904C37.6092 623.904 38.0838 623.616 38.3505 623.04H41.2625C41.1132 623.627 40.8412 624.155 40.4465 624.624C40.0625 625.093 39.5772 625.461 38.9905 625.728C38.4038 625.995 37.7478 626.128 37.0225 626.128C36.1478 626.128 35.3692 625.941 34.6865 625.568C34.0038 625.195 33.4705 624.661 33.0865 623.968C32.7025 623.275 32.5105 622.464 32.5105 621.536C32.5105 620.608 32.6972 619.797 33.0705 619.104C33.4545 618.411 33.9878 617.877 34.6705 617.504C35.3532 617.131 36.1372 616.944 37.0225 616.944C37.8865 616.944 38.6545 617.125 39.3265 617.488C39.9985 617.851 40.5212 618.368 40.8945 619.04C41.2785 619.712 41.4705 620.496 41.4705 621.392ZM38.6705 620.672C38.6705 620.203 38.5105 619.829 38.1905 619.552C37.8705 619.275 37.4705 619.136 36.9905 619.136C36.5318 619.136 36.1425 619.269 35.8225 619.536C35.5132 619.803 35.3212 620.181 35.2465 620.672H38.6705ZM42.3699 621.536C42.3699 620.608 42.5565 619.797 42.9299 619.104C43.3139 618.411 43.8419 617.877 44.5139 617.504C45.1965 617.131 45.9752 616.944 46.8499 616.944C47.9699 616.944 48.9032 617.237 49.6499 617.824C50.4072 618.411 50.9032 619.237 51.1379 620.304H48.2259C47.9805 619.621 47.5059 619.28 46.8019 619.28C46.3005 619.28 45.9005 619.477 45.6019 619.872C45.3032 620.256 45.1539 620.811 45.1539 621.536C45.1539 622.261 45.3032 622.821 45.6019 623.216C45.9005 623.6 46.3005 623.792 46.8019 623.792C47.5059 623.792 47.9805 623.451 48.2259 622.768H51.1379C50.9032 623.813 50.4072 624.635 49.6499 625.232C48.8925 625.829 47.9592 626.128 46.8499 626.128C45.9752 626.128 45.1965 625.941 44.5139 625.568C43.8419 625.195 43.3139 624.661 42.9299 623.968C42.5565 623.275 42.3699 622.464 42.3699 621.536ZM56.6654 626.128C55.7907 626.128 55.0014 625.941 54.2974 625.568C53.604 625.195 53.0547 624.661 52.6494 623.968C52.2547 623.275 52.0574 622.464 52.0574 621.536C52.0574 620.619 52.26 619.813 52.6654 619.12C53.0707 618.416 53.6254 617.877 54.3294 617.504C55.0334 617.131 55.8227 616.944 56.6974 616.944C57.572 616.944 58.3614 617.131 59.0654 617.504C59.7694 617.877 60.324 618.416 60.7294 619.12C61.1347 619.813 61.3374 620.619 61.3374 621.536C61.3374 622.453 61.1294 623.264 60.7134 623.968C60.308 624.661 59.748 625.195 59.0334 625.568C58.3294 625.941 57.54 626.128 56.6654 626.128ZM56.6654 623.76C57.188 623.76 57.6307 623.568 57.9934 623.184C58.3667 622.8 58.5534 622.251 58.5534 621.536C58.5534 620.821 58.372 620.272 58.0094 619.888C57.6574 619.504 57.22 619.312 56.6974 619.312C56.164 619.312 55.7214 619.504 55.3694 619.888C55.0174 620.261 54.8414 620.811 54.8414 621.536C54.8414 622.251 55.012 622.8 55.3534 623.184C55.7054 623.568 56.1427 623.76 56.6654 623.76ZM74.1809 616.976C75.2902 616.976 76.1702 617.312 76.8209 617.984C77.4822 618.656 77.8129 619.589 77.8129 620.784V626H75.0929V621.152C75.0929 620.576 74.9382 620.133 74.6289 619.824C74.3302 619.504 73.9142 619.344 73.3809 619.344C72.8475 619.344 72.4262 619.504 72.1169 619.824C71.8182 620.133 71.6689 620.576 71.6689 621.152V626H68.9489V621.152C68.9489 620.576 68.7942 620.133 68.4849 619.824C68.1862 619.504 67.7702 619.344 67.2369 619.344C66.7035 619.344 66.2822 619.504 65.9729 619.824C65.6742 620.133 65.5249 620.576 65.5249 621.152V626H62.7889V617.072H65.5249V618.192C65.8022 617.819 66.1649 617.525 66.6129 617.312C67.0609 617.088 67.5675 616.976 68.1329 616.976C68.8049 616.976 69.4022 617.12 69.9249 617.408C70.4582 617.696 70.8742 618.107 71.1729 618.64C71.4822 618.149 71.9035 617.749 72.4369 617.44C72.9702 617.131 73.5515 616.976 74.1809 616.976ZM91.1184 616.976C92.2277 616.976 93.1077 617.312 93.7584 617.984C94.4197 618.656 94.7504 619.589 94.7504 620.784V626H92.0304V621.152C92.0304 620.576 91.8757 620.133 91.5664 619.824C91.2677 619.504 90.8517 619.344 90.3184 619.344C89.785 619.344 89.3637 619.504 89.0544 619.824C88.7557 620.133 88.6064 620.576 88.6064 621.152V626H85.8864V621.152C85.8864 620.576 85.7317 620.133 85.4224 619.824C85.1237 619.504 84.7077 619.344 84.1744 619.344C83.641 619.344 83.2197 619.504 82.9104 619.824C82.6117 620.133 82.4624 620.576 82.4624 621.152V626H79.7264V617.072H82.4624V618.192C82.7397 617.819 83.1024 617.525 83.5504 617.312C83.9984 617.088 84.505 616.976 85.0704 616.976C85.7424 616.976 86.3397 617.12 86.8624 617.408C87.3957 617.696 87.8117 618.107 88.1104 618.64C88.4197 618.149 88.841 617.749 89.3744 617.44C89.9077 617.131 90.489 616.976 91.1184 616.976ZM105.08 621.392C105.08 621.648 105.064 621.915 105.032 622.192H98.8399C98.8825 622.747 99.0585 623.173 99.3679 623.472C99.6879 623.76 100.077 623.904 100.536 623.904C101.219 623.904 101.693 623.616 101.96 623.04H104.872C104.723 623.627 104.451 624.155 104.056 624.624C103.672 625.093 103.187 625.461 102.6 625.728C102.013 625.995 101.357 626.128 100.632 626.128C99.7572 626.128 98.9785 625.941 98.2959 625.568C97.6132 625.195 97.0799 624.661 96.6959 623.968C96.3119 623.275 96.1199 622.464 96.1199 621.536C96.1199 620.608 96.3065 619.797 96.6799 619.104C97.0639 618.411 97.5972 617.877 98.2799 617.504C98.9625 617.131 99.7465 616.944 100.632 616.944C101.496 616.944 102.264 617.125 102.936 617.488C103.608 617.851 104.131 618.368 104.504 619.04C104.888 619.712 105.08 620.496 105.08 621.392ZM102.28 620.672C102.28 620.203 102.12 619.829 101.8 619.552C101.48 619.275 101.08 619.136 100.6 619.136C100.141 619.136 99.7519 619.269 99.4319 619.536C99.1225 619.803 98.9305 620.181 98.8559 620.672H102.28ZM111.963 616.976C113.009 616.976 113.841 617.317 114.459 618C115.089 618.672 115.403 619.6 115.403 620.784V626H112.683V621.152C112.683 620.555 112.529 620.091 112.219 619.76C111.91 619.429 111.494 619.264 110.971 619.264C110.449 619.264 110.033 619.429 109.723 619.76C109.414 620.091 109.259 620.555 109.259 621.152V626H106.523V617.072H109.259V618.256C109.537 617.861 109.91 617.552 110.379 617.328C110.849 617.093 111.377 616.976 111.963 616.976ZM116.761 621.52C116.761 620.603 116.931 619.797 117.273 619.104C117.625 618.411 118.099 617.877 118.697 617.504C119.294 617.131 119.961 616.944 120.697 616.944C121.283 616.944 121.817 617.067 122.297 617.312C122.787 617.557 123.171 617.888 123.449 618.304V614.16H126.185V626H123.449V624.72C123.193 625.147 122.825 625.488 122.345 625.744C121.875 626 121.326 626.128 120.697 626.128C119.961 626.128 119.294 625.941 118.697 625.568C118.099 625.184 117.625 624.645 117.273 623.952C116.931 623.248 116.761 622.437 116.761 621.52ZM123.449 621.536C123.449 620.853 123.257 620.315 122.873 619.92C122.499 619.525 122.041 619.328 121.497 619.328C120.953 619.328 120.489 619.525 120.105 619.92C119.731 620.304 119.545 620.837 119.545 621.52C119.545 622.203 119.731 622.747 120.105 623.152C120.489 623.547 120.953 623.744 121.497 623.744C122.041 623.744 122.499 623.547 122.873 623.152C123.257 622.757 123.449 622.219 123.449 621.536ZM136.58 621.392C136.58 621.648 136.564 621.915 136.532 622.192H130.34C130.383 622.747 130.559 623.173 130.868 623.472C131.188 623.76 131.577 623.904 132.036 623.904C132.719 623.904 133.193 623.616 133.46 623.04H136.372C136.223 623.627 135.951 624.155 135.556 624.624C135.172 625.093 134.687 625.461 134.1 625.728C133.513 625.995 132.857 626.128 132.132 626.128C131.257 626.128 130.479 625.941 129.796 625.568C129.113 625.195 128.58 624.661 128.196 623.968C127.812 623.275 127.62 622.464 127.62 621.536C127.62 620.608 127.807 619.797 128.18 619.104C128.564 618.411 129.097 617.877 129.78 617.504C130.463 617.131 131.247 616.944 132.132 616.944C132.996 616.944 133.764 617.125 134.436 617.488C135.108 617.851 135.631 618.368 136.004 619.04C136.388 619.712 136.58 620.496 136.58 621.392ZM133.78 620.672C133.78 620.203 133.62 619.829 133.3 619.552C132.98 619.275 132.58 619.136 132.1 619.136C131.641 619.136 131.252 619.269 130.932 619.536C130.623 619.803 130.431 620.181 130.356 620.672H133.78ZM137.479 621.52C137.479 620.603 137.65 619.797 137.991 619.104C138.343 618.411 138.818 617.877 139.415 617.504C140.013 617.131 140.679 616.944 141.415 616.944C142.002 616.944 142.535 617.067 143.015 617.312C143.506 617.557 143.89 617.888 144.167 618.304V614.16H146.903V626H144.167V624.72C143.911 625.147 143.543 625.488 143.063 625.744C142.594 626 142.045 626.128 141.415 626.128C140.679 626.128 140.013 625.941 139.415 625.568C138.818 625.184 138.343 624.645 137.991 623.952C137.65 623.248 137.479 622.437 137.479 621.52ZM144.167 621.536C144.167 620.853 143.975 620.315 143.591 619.92C143.218 619.525 142.759 619.328 142.215 619.328C141.671 619.328 141.207 619.525 140.823 619.92C140.45 620.304 140.263 620.837 140.263 621.52C140.263 622.203 140.45 622.747 140.823 623.152C141.207 623.547 141.671 623.744 142.215 623.744C142.759 623.744 143.218 623.547 143.591 623.152C143.975 622.757 144.167 622.219 144.167 621.536ZM155.009 618.336C155.265 617.92 155.633 617.584 156.113 617.328C156.593 617.072 157.143 616.944 157.761 616.944C158.497 616.944 159.164 617.131 159.761 617.504C160.359 617.877 160.828 618.411 161.169 619.104C161.521 619.797 161.697 620.603 161.697 621.52C161.697 622.437 161.521 623.248 161.169 623.952C160.828 624.645 160.359 625.184 159.761 625.568C159.164 625.941 158.497 626.128 157.761 626.128C157.132 626.128 156.583 626.005 156.113 625.76C155.644 625.504 155.276 625.168 155.009 624.752V626H152.273V614.16H155.009V618.336ZM158.913 621.52C158.913 620.837 158.721 620.304 158.337 619.92C157.964 619.525 157.5 619.328 156.945 619.328C156.401 619.328 155.937 619.525 155.553 619.92C155.18 620.315 154.993 620.853 154.993 621.536C154.993 622.219 155.18 622.757 155.553 623.152C155.937 623.547 156.401 623.744 156.945 623.744C157.489 623.744 157.953 623.547 158.337 623.152C158.721 622.747 158.913 622.203 158.913 621.52ZM172.253 617.072L166.653 630.24H163.709L165.757 625.696L162.125 617.072H165.181L167.245 622.656L169.293 617.072H172.253ZM183.945 614.768V616.96H179.369V619.328H182.793V621.456H179.369V626H176.633V614.768H183.945ZM188.119 618.56C188.439 618.069 188.839 617.685 189.319 617.408C189.799 617.12 190.332 616.976 190.919 616.976V619.872H190.167C189.484 619.872 188.972 620.021 188.631 620.32C188.289 620.608 188.119 621.12 188.119 621.856V626H185.383V617.072H188.119V618.56ZM193.602 616.144C193.122 616.144 192.728 616.005 192.418 615.728C192.12 615.44 191.97 615.088 191.97 614.672C191.97 614.245 192.12 613.893 192.418 613.616C192.728 613.328 193.122 613.184 193.602 613.184C194.072 613.184 194.456 613.328 194.754 613.616C195.064 613.893 195.218 614.245 195.218 614.672C195.218 615.088 195.064 615.44 194.754 615.728C194.456 616.005 194.072 616.144 193.602 616.144ZM194.962 617.072V626H192.226V617.072H194.962ZM205.361 621.392C205.361 621.648 205.345 621.915 205.313 622.192H199.121C199.164 622.747 199.34 623.173 199.649 623.472C199.969 623.76 200.358 623.904 200.817 623.904C201.5 623.904 201.974 623.616 202.241 623.04H205.153C205.004 623.627 204.732 624.155 204.337 624.624C203.953 625.093 203.468 625.461 202.881 625.728C202.294 625.995 201.638 626.128 200.913 626.128C200.038 626.128 199.26 625.941 198.577 625.568C197.894 625.195 197.361 624.661 196.977 623.968C196.593 623.275 196.401 622.464 196.401 621.536C196.401 620.608 196.588 619.797 196.961 619.104C197.345 618.411 197.878 617.877 198.561 617.504C199.244 617.131 200.028 616.944 200.913 616.944C201.777 616.944 202.545 617.125 203.217 617.488C203.889 617.851 204.412 618.368 204.785 619.04C205.169 619.712 205.361 620.496 205.361 621.392ZM202.561 620.672C202.561 620.203 202.401 619.829 202.081 619.552C201.761 619.275 201.361 619.136 200.881 619.136C200.422 619.136 200.033 619.269 199.713 619.536C199.404 619.803 199.212 620.181 199.137 620.672H202.561ZM212.245 616.976C213.29 616.976 214.122 617.317 214.741 618C215.37 618.672 215.685 619.6 215.685 620.784V626H212.965V621.152C212.965 620.555 212.81 620.091 212.501 619.76C212.191 619.429 211.775 619.264 211.253 619.264C210.73 619.264 210.314 619.429 210.005 619.76C209.695 620.091 209.541 620.555 209.541 621.152V626H206.805V617.072H209.541V618.256C209.818 617.861 210.191 617.552 210.661 617.328C211.13 617.093 211.658 616.976 212.245 616.976ZM217.042 621.52C217.042 620.603 217.212 619.797 217.554 619.104C217.906 618.411 218.38 617.877 218.978 617.504C219.575 617.131 220.242 616.944 220.978 616.944C221.564 616.944 222.098 617.067 222.578 617.312C223.068 617.557 223.452 617.888 223.73 618.304V614.16H226.466V626H223.73V624.72C223.474 625.147 223.106 625.488 222.626 625.744C222.156 626 221.607 626.128 220.978 626.128C220.242 626.128 219.575 625.941 218.978 625.568C218.38 625.184 217.906 624.645 217.554 623.952C217.212 623.248 217.042 622.437 217.042 621.52ZM223.73 621.536C223.73 620.853 223.538 620.315 223.154 619.92C222.78 619.525 222.322 619.328 221.778 619.328C221.234 619.328 220.77 619.525 220.386 619.92C220.012 620.304 219.826 620.837 219.826 621.52C219.826 622.203 220.012 622.747 220.386 623.152C220.77 623.547 221.234 623.744 221.778 623.744C222.322 623.744 222.78 623.547 223.154 623.152C223.538 622.757 223.73 622.219 223.73 621.536ZM232.077 626.128C231.298 626.128 230.605 625.995 229.997 625.728C229.389 625.461 228.909 625.099 228.557 624.64C228.205 624.171 228.008 623.648 227.965 623.072H230.669C230.701 623.381 230.845 623.632 231.101 623.824C231.357 624.016 231.672 624.112 232.045 624.112C232.386 624.112 232.648 624.048 232.829 623.92C233.021 623.781 233.117 623.605 233.117 623.392C233.117 623.136 232.984 622.949 232.717 622.832C232.45 622.704 232.018 622.565 231.421 622.416C230.781 622.267 230.248 622.112 229.821 621.952C229.394 621.781 229.026 621.52 228.717 621.168C228.408 620.805 228.253 620.32 228.253 619.712C228.253 619.2 228.392 618.736 228.669 618.32C228.957 617.893 229.373 617.557 229.917 617.312C230.472 617.067 231.128 616.944 231.885 616.944C233.005 616.944 233.885 617.221 234.525 617.776C235.176 618.331 235.549 619.067 235.645 619.984H233.117C233.074 619.675 232.936 619.429 232.701 619.248C232.477 619.067 232.178 618.976 231.805 618.976C231.485 618.976 231.24 619.04 231.069 619.168C230.898 619.285 230.813 619.451 230.813 619.664C230.813 619.92 230.946 620.112 231.213 620.24C231.49 620.368 231.917 620.496 232.493 620.624C233.154 620.795 233.693 620.965 234.109 621.136C234.525 621.296 234.888 621.563 235.197 621.936C235.517 622.299 235.682 622.789 235.693 623.408C235.693 623.931 235.544 624.4 235.245 624.816C234.957 625.221 234.536 625.541 233.981 625.776C233.437 626.011 232.802 626.128 232.077 626.128Z" fill="white"/>
<path d="M0 845H428V926H0V845Z" fill="#D3D3D3"/>
<path d="M63.5419 876.696L53.731 866.89L53.0733 866.232C52.9235 866.084 52.7209 866 52.5097 866C52.2985 866 52.0958 866.084 51.946 866.232L41.4774 876.696C41.3239 876.849 41.2026 877.031 41.1206 877.232C41.0386 877.432 40.9976 877.647 41.0001 877.864C41.0103 878.758 41.7542 879.471 42.648 879.471H43.7271V887.741H61.2923V879.471H62.3942C62.8284 879.471 63.2372 879.301 63.5444 878.994C63.6957 878.843 63.8156 878.664 63.8971 878.466C63.9786 878.269 64.0201 878.057 64.0192 877.844C64.0192 877.412 63.8491 877.003 63.5419 876.696V876.696ZM53.9316 885.913H51.0878V880.733H53.9316V885.913ZM59.4642 877.643V885.913H55.5566V880.124C55.5566 879.562 55.1021 879.108 54.5409 879.108H50.4784C49.9173 879.108 49.4628 879.562 49.4628 880.124V885.913H45.5552V877.643H43.1177L52.5122 868.256L53.0987 868.843L61.9042 877.643H59.4642Z" fill="#F5F5F5"/>
<path d="M44.7 897.98V905H42.99V902.11H40.33V905H38.62V897.98H40.33V900.73H42.99V897.98H44.7ZM48.4745 905.08C47.9278 905.08 47.4345 904.963 46.9945 904.73C46.5611 904.497 46.2178 904.163 45.9645 903.73C45.7178 903.297 45.5945 902.79 45.5945 902.21C45.5945 901.637 45.7211 901.133 45.9745 900.7C46.2278 900.26 46.5745 899.923 47.0145 899.69C47.4545 899.457 47.9478 899.34 48.4945 899.34C49.0411 899.34 49.5345 899.457 49.9745 899.69C50.4145 899.923 50.7611 900.26 51.0145 900.7C51.2678 901.133 51.3945 901.637 51.3945 902.21C51.3945 902.783 51.2645 903.29 51.0045 903.73C50.7511 904.163 50.4011 904.497 49.9545 904.73C49.5145 904.963 49.0211 905.08 48.4745 905.08ZM48.4745 903.6C48.8011 903.6 49.0778 903.48 49.3045 903.24C49.5378 903 49.6545 902.657 49.6545 902.21C49.6545 901.763 49.5411 901.42 49.3145 901.18C49.0945 900.94 48.8211 900.82 48.4945 900.82C48.1611 900.82 47.8845 900.94 47.6645 901.18C47.4445 901.413 47.3345 901.757 47.3345 902.21C47.3345 902.657 47.4411 903 47.6545 903.24C47.8745 903.48 48.1478 903.6 48.4745 903.6ZM59.4216 899.36C60.115 899.36 60.665 899.57 61.0716 899.99C61.485 900.41 61.6916 900.993 61.6916 901.74V905H59.9916V901.97C59.9916 901.61 59.895 901.333 59.7016 901.14C59.515 900.94 59.255 900.84 58.9216 900.84C58.5883 900.84 58.325 900.94 58.1316 901.14C57.945 901.333 57.8516 901.61 57.8516 901.97V905H56.1516V901.97C56.1516 901.61 56.055 901.333 55.8616 901.14C55.675 900.94 55.415 900.84 55.0816 900.84C54.7483 900.84 54.485 900.94 54.2916 901.14C54.105 901.333 54.0116 901.61 54.0116 901.97V905H52.3016V899.42H54.0116V900.12C54.185 899.887 54.4116 899.703 54.6916 899.57C54.9716 899.43 55.2883 899.36 55.6416 899.36C56.0616 899.36 56.435 899.45 56.7616 899.63C57.095 899.81 57.355 900.067 57.5416 900.4C57.735 900.093 57.9983 899.843 58.3316 899.65C58.665 899.457 59.0283 899.36 59.4216 899.36ZM68.1476 902.12C68.1476 902.28 68.1376 902.447 68.1176 902.62H64.2476C64.2742 902.967 64.3842 903.233 64.5776 903.42C64.7776 903.6 65.0209 903.69 65.3076 903.69C65.7342 903.69 66.0309 903.51 66.1976 903.15H68.0176C67.9242 903.517 67.7542 903.847 67.5076 904.14C67.2676 904.433 66.9642 904.663 66.5976 904.83C66.2309 904.997 65.8209 905.08 65.3676 905.08C64.8209 905.08 64.3342 904.963 63.9076 904.73C63.4809 904.497 63.1476 904.163 62.9076 903.73C62.6676 903.297 62.5476 902.79 62.5476 902.21C62.5476 901.63 62.6642 901.123 62.8976 900.69C63.1376 900.257 63.4709 899.923 63.8976 899.69C64.3242 899.457 64.8142 899.34 65.3676 899.34C65.9076 899.34 66.3876 899.453 66.8076 899.68C67.2276 899.907 67.5542 900.23 67.7876 900.65C68.0276 901.07 68.1476 901.56 68.1476 902.12ZM66.3976 901.67C66.3976 901.377 66.2976 901.143 66.0976 900.97C65.8976 900.797 65.6476 900.71 65.3476 900.71C65.0609 900.71 64.8176 900.793 64.6176 900.96C64.4242 901.127 64.3042 901.363 64.2576 901.67H66.3976Z" fill="#F5F5F5"/>
<g clip-path="url(#clip0_428_2)">
<path d="M151.559 877.943L147.517 876.083V870.751C147.515 870.639 147.481 870.53 147.419 870.437C147.357 870.344 147.269 870.271 147.167 870.226L142.792 868.213C142.715 868.178 142.631 868.159 142.547 868.159C142.462 868.159 142.379 868.178 142.302 868.213L137.927 870.226C137.826 870.273 137.74 870.348 137.68 870.442C137.62 870.536 137.588 870.645 137.588 870.757V876.088L133.563 877.943C133.462 877.99 133.376 878.065 133.317 878.159C133.257 878.253 133.225 878.363 133.225 878.474V884.179C133.225 884.291 133.257 884.4 133.317 884.494C133.376 884.588 133.462 884.663 133.563 884.71L137.938 886.723C138.015 886.758 138.099 886.776 138.183 886.776C138.268 886.776 138.352 886.758 138.428 886.723L142.558 884.821L146.688 886.723C146.765 886.758 146.849 886.776 146.933 886.776C147.018 886.776 147.102 886.758 147.178 886.723L151.553 884.71C151.655 884.663 151.74 884.588 151.8 884.494C151.86 884.4 151.892 884.291 151.892 884.179V878.474C151.893 878.363 151.862 878.254 151.803 878.16C151.744 878.066 151.659 877.991 151.559 877.943V877.943ZM146.939 879.833L143.958 878.474L146.939 877.103L149.92 878.474L146.939 879.833ZM146.356 876.077L142.599 877.827V873.341C142.67 873.338 142.739 873.322 142.803 873.294L146.35 871.667V876.088L146.356 876.077ZM142.558 869.38L145.539 870.751L142.558 872.122L139.583 870.751L142.558 869.38ZM138.183 877.098L141.164 878.468L138.183 879.833L135.203 878.474L138.183 877.098ZM141.975 883.8L138.183 885.55V881.064C138.265 881.059 138.344 881.037 138.417 881L141.963 879.367L141.975 883.8ZM150.725 883.8L146.957 885.55V881.064C147.03 881.056 147.101 881.035 147.167 881L150.713 879.367L150.725 883.8Z" fill="#F5F5F5"/>
</g>
<path d="M112.33 901.48C112.33 900.787 112.48 900.17 112.78 899.63C113.08 899.083 113.497 898.66 114.03 898.36C114.57 898.053 115.18 897.9 115.86 897.9C116.693 897.9 117.407 898.12 118 898.56C118.593 899 118.99 899.6 119.19 900.36H117.31C117.17 900.067 116.97 899.843 116.71 899.69C116.457 899.537 116.167 899.46 115.84 899.46C115.313 899.46 114.887 899.643 114.56 900.01C114.233 900.377 114.07 900.867 114.07 901.48C114.07 902.093 114.233 902.583 114.56 902.95C114.887 903.317 115.313 903.5 115.84 903.5C116.167 903.5 116.457 903.423 116.71 903.27C116.97 903.117 117.17 902.893 117.31 902.6H119.19C118.99 903.36 118.593 903.96 118 904.4C117.407 904.833 116.693 905.05 115.86 905.05C115.18 905.05 114.57 904.9 114.03 904.6C113.497 904.293 113.08 903.87 112.78 903.33C112.48 902.79 112.33 902.173 112.33 901.48ZM122.777 905.08C122.231 905.08 121.737 904.963 121.297 904.73C120.864 904.497 120.521 904.163 120.267 903.73C120.021 903.297 119.897 902.79 119.897 902.21C119.897 901.637 120.024 901.133 120.277 900.7C120.531 900.26 120.877 899.923 121.317 899.69C121.757 899.457 122.251 899.34 122.797 899.34C123.344 899.34 123.837 899.457 124.277 899.69C124.717 899.923 125.064 900.26 125.317 900.7C125.571 901.133 125.697 901.637 125.697 902.21C125.697 902.783 125.567 903.29 125.307 903.73C125.054 904.163 124.704 904.497 124.257 904.73C123.817 904.963 123.324 905.08 122.777 905.08ZM122.777 903.6C123.104 903.6 123.381 903.48 123.607 903.24C123.841 903 123.957 902.657 123.957 902.21C123.957 901.763 123.844 901.42 123.617 901.18C123.397 900.94 123.124 900.82 122.797 900.82C122.464 900.82 122.187 900.94 121.967 901.18C121.747 901.413 121.637 901.757 121.637 902.21C121.637 902.657 121.744 903 121.957 903.24C122.177 903.48 122.451 903.6 122.777 903.6ZM133.724 899.36C134.418 899.36 134.968 899.57 135.374 899.99C135.788 900.41 135.994 900.993 135.994 901.74V905H134.294V901.97C134.294 901.61 134.198 901.333 134.004 901.14C133.818 900.94 133.558 900.84 133.224 900.84C132.891 900.84 132.628 900.94 132.434 901.14C132.248 901.333 132.154 901.61 132.154 901.97V905H130.454V901.97C130.454 901.61 130.358 901.333 130.164 901.14C129.978 900.94 129.718 900.84 129.384 900.84C129.051 900.84 128.788 900.94 128.594 901.14C128.408 901.333 128.314 901.61 128.314 901.97V905H126.604V899.42H128.314V900.12C128.488 899.887 128.714 899.703 128.994 899.57C129.274 899.43 129.591 899.36 129.944 899.36C130.364 899.36 130.738 899.45 131.064 899.63C131.398 899.81 131.658 900.067 131.844 900.4C132.038 900.093 132.301 899.843 132.634 899.65C132.968 899.457 133.331 899.36 133.724 899.36ZM144.31 899.36C145.004 899.36 145.554 899.57 145.96 899.99C146.374 900.41 146.58 900.993 146.58 901.74V905H144.88V901.97C144.88 901.61 144.784 901.333 144.59 901.14C144.404 900.94 144.144 900.84 143.81 900.84C143.477 900.84 143.214 900.94 143.02 901.14C142.834 901.333 142.74 901.61 142.74 901.97V905H141.04V901.97C141.04 901.61 140.944 901.333 140.75 901.14C140.564 900.94 140.304 900.84 139.97 900.84C139.637 900.84 139.374 900.94 139.18 901.14C138.994 901.333 138.9 901.61 138.9 901.97V905H137.19V899.42H138.9V900.12C139.074 899.887 139.3 899.703 139.58 899.57C139.86 899.43 140.177 899.36 140.53 899.36C140.95 899.36 141.324 899.45 141.65 899.63C141.984 899.81 142.244 900.067 142.43 900.4C142.624 900.093 142.887 899.843 143.22 899.65C143.554 899.457 143.917 899.36 144.31 899.36ZM153.286 899.42V905H151.576V904.24C151.403 904.487 151.166 904.687 150.866 904.84C150.573 904.987 150.246 905.06 149.886 905.06C149.46 905.06 149.083 904.967 148.756 904.78C148.43 904.587 148.176 904.31 147.996 903.95C147.816 903.59 147.726 903.167 147.726 902.68V899.42H149.426V902.45C149.426 902.823 149.523 903.113 149.716 903.32C149.91 903.527 150.17 903.63 150.496 903.63C150.83 903.63 151.093 903.527 151.286 903.32C151.48 903.113 151.576 902.823 151.576 902.45V899.42H153.286ZM157.915 899.36C158.568 899.36 159.088 899.573 159.475 900C159.868 900.42 160.065 901 160.065 901.74V905H158.365V901.97C158.365 901.597 158.268 901.307 158.075 901.1C157.881 900.893 157.621 900.79 157.295 900.79C156.968 900.79 156.708 900.893 156.515 901.1C156.321 901.307 156.225 901.597 156.225 901.97V905H154.515V899.42H156.225V900.16C156.398 899.913 156.631 899.72 156.925 899.58C157.218 899.433 157.548 899.36 157.915 899.36ZM162.113 898.84C161.813 898.84 161.566 898.753 161.373 898.58C161.186 898.4 161.093 898.18 161.093 897.92C161.093 897.653 161.186 897.433 161.373 897.26C161.566 897.08 161.813 896.99 162.113 896.99C162.406 896.99 162.646 897.08 162.833 897.26C163.026 897.433 163.123 897.653 163.123 897.92C163.123 898.18 163.026 898.4 162.833 898.58C162.646 898.753 162.406 898.84 162.113 898.84ZM162.963 899.42V905H161.253V899.42H162.963ZM167.312 903.55V905H166.442C165.822 905 165.339 904.85 164.992 904.55C164.645 904.243 164.472 903.747 164.472 903.06V900.84H163.792V899.42H164.472V898.06H166.182V899.42H167.302V900.84H166.182V903.08C166.182 903.247 166.222 903.367 166.302 903.44C166.382 903.513 166.515 903.55 166.702 903.55H167.312ZM173.965 899.42L170.465 907.65H168.625L169.905 904.81L167.635 899.42H169.545L170.835 902.91L172.115 899.42H173.965Z" fill="#F5F5F5"/>
<path d="M223.16 866L221.75 867.41L224.34 870H219C217.89 870 217 870.89 217 872V882C217 883.11 217.89 884 219 884H235C236.11 884 237 883.11 237 882V872C237 870.89 236.11 870 235 870H229.66L232.25 867.41L230.84 866L227 869.84L223.16 866ZM219 872H232V882H219V872ZM234.5 872C234.765 872 235.02 872.105 235.207 872.293C235.395 872.48 235.5 872.735 235.5 873C235.5 873.265 235.395 873.52 235.207 873.707C235.02 873.895 234.765 874 234.5 874C234.235 874 233.98 873.895 233.793 873.707C233.605 873.52 233.5 873.265 233.5 873C233.5 872.735 233.605 872.48 233.793 872.293C233.98 872.105 234.235 872 234.5 872ZM234.5 875C234.765 875 235.02 875.105 235.207 875.293C235.395 875.48 235.5 875.735 235.5 876C235.5 876.265 235.395 876.52 235.207 876.707C235.02 876.895 234.765 877 234.5 877C234.235 877 233.98 876.895 233.793 876.707C233.605 876.52 233.5 876.265 233.5 876C233.5 875.735 233.605 875.48 233.793 875.293C233.98 875.105 234.235 875 234.5 875Z" fill="#F5F5F5"/>
<path d="M225.67 897.98V899.35H223.81V905H222.1V899.35H220.24V897.98H225.67ZM233.118 897.98L230.628 905H228.488L225.998 897.98H227.818L229.558 903.28L231.308 897.98H233.118Z" fill="#F5F5F5"/>
<path fill-rule="evenodd" clip-rule="evenodd" d="M301 874C301 875.061 300.579 876.078 299.828 876.828C299.078 877.579 298.061 878 297 878C295.939 878 294.922 877.579 294.172 876.828C293.421 876.078 293 875.061 293 874C293 872.939 293.421 871.922 294.172 871.172C294.922 870.421 295.939 870 297 870C298.061 870 299.078 870.421 299.828 871.172C300.579 871.922 301 872.939 301 874V874ZM299 874C299 874.53 298.789 875.039 298.414 875.414C298.039 875.789 297.53 876 297 876C296.47 876 295.961 875.789 295.586 875.414C295.211 875.039 295 874.53 295 874C295 873.47 295.211 872.961 295.586 872.586C295.961 872.211 296.47 872 297 872C297.53 872 298.039 872.211 298.414 872.586C298.789 872.961 299 873.47 299 874V874Z" fill="#F5F5F5"/>
<path fill-rule="evenodd" clip-rule="evenodd" d="M297 866C290.925 866 286 870.925 286 877C286 883.075 290.925 888 297 888C303.075 888 308 883.075 308 877C308 870.925 303.075 866 297 866ZM288 877C288 879.09 288.713 881.014 289.908 882.542C290.747 881.44 291.83 880.547 293.071 879.932C294.313 879.318 295.68 878.999 297.065 879C298.432 878.999 299.782 879.31 301.011 879.909C302.24 880.508 303.316 881.38 304.157 882.458C305.023 881.322 305.607 879.995 305.859 878.589C306.111 877.182 306.024 875.736 305.606 874.369C305.189 873.002 304.451 871.755 303.455 870.73C302.46 869.705 301.234 868.932 299.88 868.475C298.527 868.017 297.083 867.889 295.67 868.1C294.257 868.311 292.914 868.856 291.753 869.689C290.592 870.522 289.646 871.62 288.993 872.891C288.341 874.163 288 875.571 288 877V877ZM297 886C294.934 886.003 292.93 885.292 291.328 883.988C291.973 883.065 292.831 882.311 293.83 881.791C294.829 881.27 295.939 880.999 297.065 881C298.177 880.999 299.273 881.264 300.263 881.771C301.252 882.279 302.106 883.016 302.754 883.92C301.139 885.267 299.103 886.003 297 886V886Z" fill="#F5F5F5"/>
<path d="M285.97 900.24C285.97 900.647 285.877 901.02 285.69 901.36C285.503 901.693 285.217 901.963 284.83 902.17C284.443 902.377 283.963 902.48 283.39 902.48H282.33V905H280.62V897.98H283.39C283.95 897.98 284.423 898.077 284.81 898.27C285.197 898.463 285.487 898.73 285.68 899.07C285.873 899.41 285.97 899.8 285.97 900.24ZM283.26 901.12C283.587 901.12 283.83 901.043 283.99 900.89C284.15 900.737 284.23 900.52 284.23 900.24C284.23 899.96 284.15 899.743 283.99 899.59C283.83 899.437 283.587 899.36 283.26 899.36H282.33V901.12H283.26ZM288.57 900.35C288.77 900.043 289.02 899.803 289.32 899.63C289.62 899.45 289.954 899.36 290.32 899.36V901.17H289.85C289.424 901.17 289.104 901.263 288.89 901.45C288.677 901.63 288.57 901.95 288.57 902.41V905H286.86V899.42H288.57V900.35ZM293.678 905.08C293.131 905.08 292.638 904.963 292.198 904.73C291.764 904.497 291.421 904.163 291.168 903.73C290.921 903.297 290.798 902.79 290.798 902.21C290.798 901.637 290.924 901.133 291.178 900.7C291.431 900.26 291.778 899.923 292.218 899.69C292.658 899.457 293.151 899.34 293.698 899.34C294.244 899.34 294.738 899.457 295.178 899.69C295.618 899.923 295.964 900.26 296.218 900.7C296.471 901.133 296.598 901.637 296.598 902.21C296.598 902.783 296.468 903.29 296.208 903.73C295.954 904.163 295.604 904.497 295.158 904.73C294.718 904.963 294.224 905.08 293.678 905.08ZM293.678 903.6C294.004 903.6 294.281 903.48 294.508 903.24C294.741 903 294.858 902.657 294.858 902.21C294.858 901.763 294.744 901.42 294.518 901.18C294.298 900.94 294.024 900.82 293.698 900.82C293.364 900.82 293.088 900.94 292.868 901.18C292.648 901.413 292.538 901.757 292.538 902.21C292.538 902.657 292.644 903 292.858 903.24C293.078 903.48 293.351 903.6 293.678 903.6ZM300.305 900.84H299.385V905H297.675V900.84H297.055V899.42H297.675V899.26C297.675 898.573 297.871 898.053 298.265 897.7C298.658 897.34 299.235 897.16 299.995 897.16C300.121 897.16 300.215 897.163 300.275 897.17V898.62C299.948 898.6 299.718 898.647 299.585 898.76C299.451 898.873 299.385 899.077 299.385 899.37V899.42H300.305V900.84ZM301.968 898.84C301.668 898.84 301.422 898.753 301.228 898.58C301.042 898.4 300.948 898.18 300.948 897.92C300.948 897.653 301.042 897.433 301.228 897.26C301.422 897.08 301.668 896.99 301.968 896.99C302.262 896.99 302.502 897.08 302.688 897.26C302.882 897.433 302.978 897.653 302.978 897.92C302.978 898.18 302.882 898.4 302.688 898.58C302.502 898.753 302.262 898.84 301.968 898.84ZM302.818 899.42V905H301.108V899.42H302.818ZM305.768 897.6V905H304.058V897.6H305.768ZM312.267 902.12C312.267 902.28 312.257 902.447 312.237 902.62H308.367C308.393 902.967 308.503 903.233 308.697 903.42C308.897 903.6 309.14 903.69 309.427 903.69C309.853 903.69 310.15 903.51 310.317 903.15H312.137C312.043 903.517 311.873 903.847 311.627 904.14C311.387 904.433 311.083 904.663 310.717 904.83C310.35 904.997 309.94 905.08 309.487 905.08C308.94 905.08 308.453 904.963 308.027 904.73C307.6 904.497 307.267 904.163 307.027 903.73C306.787 903.297 306.667 902.79 306.667 902.21C306.667 901.63 306.783 901.123 307.017 900.69C307.257 900.257 307.59 899.923 308.017 899.69C308.443 899.457 308.933 899.34 309.487 899.34C310.027 899.34 310.507 899.453 310.927 899.68C311.347 899.907 311.673 900.23 311.907 900.65C312.147 901.07 312.267 901.56 312.267 902.12ZM310.517 901.67C310.517 901.377 310.417 901.143 310.217 900.97C310.017 900.797 309.767 900.71 309.467 900.71C309.18 900.71 308.937 900.793 308.737 900.96C308.543 901.127 308.423 901.363 308.377 901.67H310.517Z" fill="#F5F5F5"/>
<path d="M380.563 877.523V876.471L381.883 875.316C382.126 875.101 382.286 874.808 382.333 874.487C382.381 874.166 382.314 873.839 382.144 873.563L380.521 870.813C380.401 870.604 380.227 870.43 380.019 870.31C379.81 870.189 379.573 870.125 379.332 870.125C379.183 870.124 379.034 870.147 378.892 870.194L377.221 870.758C376.933 870.566 376.632 870.394 376.321 870.242L375.97 868.509C375.907 868.193 375.735 867.909 375.484 867.706C375.232 867.504 374.918 867.396 374.595 867.403H371.378C371.055 867.396 370.74 867.504 370.489 867.706C370.238 867.909 370.065 868.193 370.003 868.509L369.652 870.242C369.338 870.394 369.035 870.566 368.744 870.758L367.108 870.166C366.965 870.129 366.816 870.115 366.668 870.125C366.427 870.125 366.19 870.189 365.982 870.31C365.773 870.43 365.599 870.604 365.479 870.813L363.856 873.563C363.696 873.838 363.636 874.161 363.688 874.476C363.739 874.791 363.898 875.078 364.138 875.288L365.438 876.478V877.529L364.138 878.684C363.892 878.896 363.728 879.188 363.676 879.509C363.625 879.83 363.689 880.159 363.856 880.438L365.479 883.188C365.599 883.396 365.773 883.57 365.982 883.691C366.19 883.811 366.427 883.875 366.668 883.875C366.818 883.876 366.966 883.853 367.108 883.806L368.779 883.243C369.067 883.434 369.368 883.607 369.679 883.758L370.03 885.491C370.093 885.807 370.265 886.092 370.517 886.294C370.768 886.496 371.082 886.604 371.405 886.598H374.65C374.973 886.604 375.287 886.496 375.539 886.294C375.79 886.092 375.962 885.807 376.025 885.491L376.376 883.758C376.689 883.607 376.992 883.434 377.283 883.243L378.947 883.806C379.089 883.853 379.238 883.876 379.387 883.875C379.628 883.875 379.865 883.811 380.074 883.691C380.282 883.57 380.456 883.396 380.576 883.188L382.144 880.438C382.304 880.162 382.364 879.839 382.313 879.524C382.261 879.209 382.102 878.922 381.862 878.712L380.563 877.523ZM379.332 882.5L376.974 881.703C376.422 882.17 375.791 882.536 375.111 882.782L374.623 885.25H371.378L370.889 882.809C370.215 882.556 369.587 882.191 369.033 881.73L366.668 882.5L365.046 879.75L366.916 878.1C366.789 877.388 366.789 876.66 366.916 875.948L365.046 874.25L366.668 871.5L369.026 872.298C369.578 871.83 370.209 871.465 370.889 871.218L371.378 868.75H374.623L375.111 871.191C375.786 871.444 376.413 871.809 376.967 872.27L379.332 871.5L380.954 874.25L379.084 875.9C379.212 876.612 379.212 877.34 379.084 878.052L380.954 879.75L379.332 882.5Z" fill="#F5F5F5"/>
<path d="M373 881.125C372.184 881.125 371.387 880.883 370.708 880.43C370.03 879.977 369.501 879.332 369.189 878.579C368.877 877.825 368.795 876.995 368.954 876.195C369.113 875.395 369.506 874.66 370.083 874.083C370.66 873.506 371.395 873.113 372.195 872.954C372.995 872.795 373.825 872.877 374.579 873.189C375.332 873.501 375.977 874.03 376.43 874.708C376.883 875.387 377.125 876.184 377.125 877C377.131 877.543 377.028 878.082 376.822 878.585C376.617 879.088 376.313 879.545 375.929 879.929C375.545 880.313 375.088 880.617 374.585 880.822C374.082 881.028 373.543 881.131 373 881.125V881.125ZM373 874.25C372.637 874.242 372.275 874.307 371.938 874.442C371.6 874.577 371.294 874.78 371.037 875.037C370.78 875.294 370.577 875.6 370.442 875.938C370.307 876.275 370.242 876.637 370.25 877C370.242 877.363 370.307 877.725 370.442 878.062C370.577 878.4 370.78 878.706 371.037 878.963C371.294 879.22 371.6 879.423 371.938 879.558C372.275 879.693 372.637 879.758 373 879.75C373.363 879.758 373.725 879.693 374.062 879.558C374.4 879.423 374.706 879.22 374.963 878.963C375.22 878.706 375.423 878.4 375.558 878.062C375.693 877.725 375.758 877.363 375.75 877C375.758 876.637 375.693 876.275 375.558 875.938C375.423 875.6 375.22 875.294 374.963 875.037C374.706 874.78 374.4 874.577 374.062 874.442C373.725 874.307 373.363 874.242 373 874.25Z" fill="#F5F5F5"/>
<path d="M361.97 900.24C361.97 900.647 361.877 901.02 361.69 901.36C361.503 901.693 361.217 901.963 360.83 902.17C360.443 902.377 359.963 902.48 359.39 902.48H358.33V905H356.62V897.98H359.39C359.95 897.98 360.423 898.077 360.81 898.27C361.197 898.463 361.487 898.73 361.68 899.07C361.873 899.41 361.97 899.8 361.97 900.24ZM359.26 901.12C359.587 901.12 359.83 901.043 359.99 900.89C360.15 900.737 360.23 900.52 360.23 900.24C360.23 899.96 360.15 899.743 359.99 899.59C359.83 899.437 359.587 899.36 359.26 899.36H358.33V901.12H359.26ZM364.57 900.35C364.77 900.043 365.02 899.803 365.32 899.63C365.62 899.45 365.954 899.36 366.32 899.36V901.17H365.85C365.424 901.17 365.104 901.263 364.89 901.45C364.677 901.63 364.57 901.95 364.57 902.41V905H362.86V899.42H364.57V900.35ZM369.678 905.08C369.131 905.08 368.638 904.963 368.198 904.73C367.764 904.497 367.421 904.163 367.168 903.73C366.921 903.297 366.798 902.79 366.798 902.21C366.798 901.637 366.924 901.133 367.178 900.7C367.431 900.26 367.778 899.923 368.218 899.69C368.658 899.457 369.151 899.34 369.698 899.34C370.244 899.34 370.738 899.457 371.178 899.69C371.618 899.923 371.964 900.26 372.218 900.7C372.471 901.133 372.598 901.637 372.598 902.21C372.598 902.783 372.468 903.29 372.208 903.73C371.954 904.163 371.604 904.497 371.158 904.73C370.718 904.963 370.224 905.08 369.678 905.08ZM369.678 903.6C370.004 903.6 370.281 903.48 370.508 903.24C370.741 903 370.858 902.657 370.858 902.21C370.858 901.763 370.744 901.42 370.518 901.18C370.298 900.94 370.024 900.82 369.698 900.82C369.364 900.82 369.088 900.94 368.868 901.18C368.648 901.413 368.538 901.757 368.538 902.21C368.538 902.657 368.644 903 368.858 903.24C369.078 903.48 369.351 903.6 369.678 903.6ZM376.305 900.84H375.385V905H373.675V900.84H373.055V899.42H373.675V899.26C373.675 898.573 373.871 898.053 374.265 897.7C374.658 897.34 375.235 897.16 375.995 897.16C376.121 897.16 376.215 897.163 376.275 897.17V898.62C375.948 898.6 375.718 898.647 375.585 898.76C375.451 898.873 375.385 899.077 375.385 899.37V899.42H376.305V900.84ZM377.968 898.84C377.668 898.84 377.422 898.753 377.228 898.58C377.042 898.4 376.948 898.18 376.948 897.92C376.948 897.653 377.042 897.433 377.228 897.26C377.422 897.08 377.668 896.99 377.968 896.99C378.262 896.99 378.502 897.08 378.688 897.26C378.882 897.433 378.978 897.653 378.978 897.92C378.978 898.18 378.882 898.4 378.688 898.58C378.502 898.753 378.262 898.84 377.968 898.84ZM378.818 899.42V905H377.108V899.42H378.818ZM381.768 897.6V905H380.058V897.6H381.768ZM388.267 902.12C388.267 902.28 388.257 902.447 388.237 902.62H384.367C384.393 902.967 384.503 903.233 384.697 903.42C384.897 903.6 385.14 903.69 385.427 903.69C385.853 903.69 386.15 903.51 386.317 903.15H388.137C388.043 903.517 387.873 903.847 387.627 904.14C387.387 904.433 387.083 904.663 386.717 904.83C386.35 904.997 385.94 905.08 385.487 905.08C384.94 905.08 384.453 904.963 384.027 904.73C383.6 904.497 383.267 904.163 383.027 903.73C382.787 903.297 382.667 902.79 382.667 902.21C382.667 901.63 382.783 901.123 383.017 900.69C383.257 900.257 383.59 899.923 384.017 899.69C384.443 899.457 384.933 899.34 385.487 899.34C386.027 899.34 386.507 899.453 386.927 899.68C387.347 899.907 387.673 900.23 387.907 900.65C388.147 901.07 388.267 901.56 388.267 902.12ZM386.517 901.67C386.517 901.377 386.417 901.143 386.217 900.97C386.017 900.797 385.767 900.71 385.467 900.71C385.18 900.71 384.937 900.793 384.737 900.96C384.543 901.127 384.423 901.363 384.377 901.67H386.517Z" fill="#F5F5F5"/>
<path d="M396 100L391.514 95.506M394 89.5C394 91.7543 393.104 93.9163 391.51 95.5104C389.916 97.1045 387.754 98 385.5 98C383.246 98 381.084 97.1045 379.49 95.5104C377.896 93.9163 377 91.7543 377 89.5C377 87.2457 377.896 85.0837 379.49 83.4896C381.084 81.8955 383.246 81 385.5 81C387.754 81 389.916 81.8955 391.51 83.4896C393.104 85.0837 394 87.2457 394 89.5V89.5Z" stroke="#F5F5F5" stroke-width="2" stroke-linecap="round"/>
<rect x="13" y="136" width="299.76" height="195" rx="5" fill="#D9D9D9"/>
<rect x="29" y="393" width="119.11" height="195" rx="5" fill="#D9D9D9"/>
<rect x="29" y="650" width="119.11" height="195" rx="5" fill="#D9D9D9"/>
<rect x="167" y="650" width="119.11" height="195" rx="5" fill="#D9D9D9"/>
<rect x="301" y="650" width="119.11" height="195" rx="5" fill="#D9D9D9"/>
<rect x="163" y="393" width="119.11" height="195" rx="5" fill="#D9D9D9"/>
<rect x="297" y="393" width="119.11" height="195" rx="5" fill="#D9D9D9"/>
<rect x="355" y="137" width="73" height="195" rx="5" fill="#D9D9D9"/>
<defs>
<clipPath id="clip0_428_2">
<rect width="21" height="21" fill="white" transform="translate(132 867)"/>
</clipPath>
</defs>
</svg>
