<svg width="428" height="926" viewBox="0 0 428 926" fill="none" xmlns="http://www.w3.org/2000/svg">
<g clip-path="url(#clip0_293_147)">
<rect width="428" height="926" fill="#D3D3D3"/>
<path d="M138.435 231.52H133.195L132.355 234H128.775L133.855 219.96H137.815L142.895 234H139.275L138.435 231.52ZM137.555 228.88L135.815 223.74L134.095 228.88H137.555ZM147.641 231.18H152.481V234H143.821V231.28L148.461 225.66H143.861V222.84H152.381V225.56L147.641 231.18ZM165.383 222.84V234H161.963V232.48C161.616 232.973 161.143 233.373 160.543 233.68C159.956 233.973 159.303 234.12 158.583 234.12C157.73 234.12 156.976 233.933 156.323 233.56C155.67 233.173 155.163 232.62 154.803 231.9C154.443 231.18 154.263 230.333 154.263 229.36V222.84H157.663V228.9C157.663 229.647 157.856 230.227 158.243 230.64C158.63 231.053 159.15 231.26 159.803 231.26C160.47 231.26 160.996 231.053 161.383 230.64C161.77 230.227 161.963 229.647 161.963 228.9V222.84H165.383ZM174.64 222.72C175.946 222.72 176.986 223.147 177.76 224C178.546 224.84 178.94 226 178.94 227.48V234H175.54V227.94C175.54 227.193 175.346 226.613 174.96 226.2C174.573 225.787 174.053 225.58 173.4 225.58C172.746 225.58 172.226 225.787 171.84 226.2C171.453 226.613 171.26 227.193 171.26 227.94V234H167.84V222.84H171.26V224.32C171.606 223.827 172.073 223.44 172.66 223.16C173.246 222.867 173.906 222.72 174.64 222.72ZM180.636 228.4C180.636 227.253 180.85 226.247 181.276 225.38C181.716 224.513 182.31 223.847 183.056 223.38C183.803 222.913 184.636 222.68 185.556 222.68C186.343 222.68 187.03 222.84 187.616 223.16C188.216 223.48 188.676 223.9 188.996 224.42V222.84H192.416V234H188.996V232.42C188.663 232.94 188.196 233.36 187.596 233.68C187.01 234 186.323 234.16 185.536 234.16C184.63 234.16 183.803 233.927 183.056 233.46C182.31 232.98 181.716 232.307 181.276 231.44C180.85 230.56 180.636 229.547 180.636 228.4ZM188.996 228.42C188.996 227.567 188.756 226.893 188.276 226.4C187.81 225.907 187.236 225.66 186.556 225.66C185.876 225.66 185.296 225.907 184.816 226.4C184.35 226.88 184.116 227.547 184.116 228.4C184.116 229.253 184.35 229.933 184.816 230.44C185.296 230.933 185.876 231.18 186.556 231.18C187.236 231.18 187.81 230.933 188.276 230.44C188.756 229.947 188.996 229.273 188.996 228.42ZM202.549 222.7V225.54H207.129V228.18H202.549V231.26H207.729V234H199.129V219.96H207.729V222.7H202.549ZM216.769 234L213.369 229.32V234H209.949V219.2H213.369V227.38L216.749 222.84H220.969L216.329 228.44L221.009 234H216.769ZM233.332 222.84V234H229.912V232.48C229.566 232.973 229.092 233.373 228.492 233.68C227.906 233.973 227.252 234.12 226.532 234.12C225.679 234.12 224.926 233.933 224.272 233.56C223.619 233.173 223.112 232.62 222.752 231.9C222.392 231.18 222.212 230.333 222.212 229.36V222.84H225.612V228.9C225.612 229.647 225.806 230.227 226.192 230.64C226.579 231.053 227.099 231.26 227.752 231.26C228.419 231.26 228.946 231.053 229.332 230.64C229.719 230.227 229.912 229.647 229.912 228.9V222.84H233.332ZM242.589 222.72C243.895 222.72 244.935 223.147 245.709 224C246.495 224.84 246.889 226 246.889 227.48V234H243.489V227.94C243.489 227.193 243.295 226.613 242.909 226.2C242.522 225.787 242.002 225.58 241.349 225.58C240.695 225.58 240.175 225.787 239.789 226.2C239.402 226.613 239.209 227.193 239.209 227.94V234H235.789V222.84H239.209V224.32C239.555 223.827 240.022 223.44 240.609 223.16C241.195 222.867 241.855 222.72 242.589 222.72ZM248.585 228.4C248.585 227.253 248.799 226.247 249.225 225.38C249.665 224.513 250.259 223.847 251.005 223.38C251.752 222.913 252.585 222.68 253.505 222.68C254.239 222.68 254.905 222.833 255.505 223.14C256.119 223.447 256.599 223.86 256.945 224.38V219.2H260.365V234H256.945V232.4C256.625 232.933 256.165 233.36 255.565 233.68C254.979 234 254.292 234.16 253.505 234.16C252.585 234.16 251.752 233.927 251.005 233.46C250.259 232.98 249.665 232.307 249.225 231.44C248.799 230.56 248.585 229.547 248.585 228.4ZM256.945 228.42C256.945 227.567 256.705 226.893 256.225 226.4C255.759 225.907 255.185 225.66 254.505 225.66C253.825 225.66 253.245 225.907 252.765 226.4C252.299 226.88 252.065 227.547 252.065 228.4C252.065 229.253 252.299 229.933 252.765 230.44C253.245 230.933 253.825 231.18 254.505 231.18C255.185 231.18 255.759 230.933 256.225 230.44C256.705 229.947 256.945 229.273 256.945 228.42ZM262.16 228.4C262.16 227.253 262.373 226.247 262.8 225.38C263.24 224.513 263.833 223.847 264.58 223.38C265.326 222.913 266.16 222.68 267.08 222.68C267.866 222.68 268.553 222.84 269.14 223.16C269.74 223.48 270.2 223.9 270.52 224.42V222.84H273.94V234H270.52V232.42C270.186 232.94 269.72 233.36 269.12 233.68C268.533 234 267.846 234.16 267.06 234.16C266.153 234.16 265.326 233.927 264.58 233.46C263.833 232.98 263.24 232.307 262.8 231.44C262.373 230.56 262.16 229.547 262.16 228.4ZM270.52 228.42C270.52 227.567 270.28 226.893 269.8 226.4C269.333 225.907 268.76 225.66 268.08 225.66C267.4 225.66 266.82 225.907 266.34 226.4C265.873 226.88 265.64 227.547 265.64 228.4C265.64 229.253 265.873 229.933 266.34 230.44C266.82 230.933 267.4 231.18 268.08 231.18C268.76 231.18 269.333 230.933 269.8 230.44C270.28 229.947 270.52 229.273 270.52 228.42ZM287.814 222.84L280.814 239.3H277.134L279.694 233.62L275.154 222.84H278.974L281.554 229.82L284.114 222.84H287.814ZM294.131 234.16C293.037 234.16 292.051 233.927 291.171 233.46C290.304 232.993 289.617 232.327 289.111 231.46C288.617 230.593 288.371 229.58 288.371 228.42C288.371 227.273 288.624 226.267 289.131 225.4C289.637 224.52 290.331 223.847 291.211 223.38C292.091 222.913 293.077 222.68 294.171 222.68C295.264 222.68 296.251 222.913 297.131 223.38C298.011 223.847 298.704 224.52 299.211 225.4C299.717 226.267 299.971 227.273 299.971 228.42C299.971 229.567 299.711 230.58 299.191 231.46C298.684 232.327 297.984 232.993 297.091 233.46C296.211 233.927 295.224 234.16 294.131 234.16ZM294.131 231.2C294.784 231.2 295.337 230.96 295.791 230.48C296.257 230 296.491 229.313 296.491 228.42C296.491 227.527 296.264 226.84 295.811 226.36C295.371 225.88 294.824 225.64 294.171 225.64C293.504 225.64 292.951 225.88 292.511 226.36C292.071 226.827 291.851 227.513 291.851 228.42C291.851 229.313 292.064 230 292.491 230.48C292.931 230.96 293.477 231.2 294.131 231.2Z" fill="white"/>
<path d="M57.82 305H61.44L56.36 290.96H52.4L47.32 305H50.9L51.74 302.52H56.98L57.82 305ZM56.1 299.88H52.64L54.36 294.74L56.1 299.88ZM66.4061 295.42V290.2H62.9861V305H66.4061V303.44C67.0261 304.42 68.2061 305.16 69.8461 305.16C72.5861 305.16 74.7661 302.92 74.7661 299.4C74.7661 295.88 72.6061 293.68 69.8461 293.68C68.2461 293.68 67.0261 294.42 66.4061 295.42ZM71.2861 299.4C71.2861 301.18 70.1261 302.18 68.8261 302.18C67.5461 302.18 66.3861 301.2 66.3861 299.42C66.3861 297.64 67.5461 296.66 68.8261 296.66C70.1261 296.66 71.2861 297.62 71.2861 299.4ZM87.4803 299.42C87.4803 295.88 84.9603 293.68 81.6803 293.68C78.4203 293.68 75.8803 295.88 75.8803 299.42C75.8803 302.96 78.3603 305.16 81.6403 305.16C84.9203 305.16 87.4803 302.96 87.4803 299.42ZM79.3603 299.42C79.3603 297.52 80.4403 296.64 81.6803 296.64C82.8803 296.64 84.0003 297.52 84.0003 299.42C84.0003 301.3 82.8603 302.2 81.6403 302.2C80.4003 302.2 79.3603 301.3 79.3603 299.42ZM100.315 293.84H96.8947V299.9C96.8947 301.42 96.0547 302.26 94.7347 302.26C93.4547 302.26 92.5947 301.42 92.5947 299.9V293.84H89.1947V300.36C89.1947 303.34 90.9347 305.12 93.5147 305.12C95.0147 305.12 96.2147 304.44 96.8947 303.48V305H100.315V293.84ZM103.311 301.12C103.311 304.02 104.931 305 107.251 305H108.991V302.1H107.771C107.011 302.1 106.731 301.82 106.731 301.16V296.68H108.971V293.84H106.731V291.12H103.311V293.84H101.951V296.68H103.311V301.12ZM130.515 305H133.915V298.48C133.915 295.48 132.135 293.72 129.375 293.72C127.755 293.72 126.355 294.62 125.615 295.8C124.855 294.46 123.495 293.72 121.815 293.72C120.355 293.72 119.215 294.34 118.555 295.24V293.84H115.135V305H118.555V298.94C118.555 297.48 119.395 296.68 120.695 296.68C121.995 296.68 122.835 297.48 122.835 298.94V305H126.235V298.94C126.235 297.48 127.075 296.68 128.375 296.68C129.675 296.68 130.515 297.48 130.515 298.94V305ZM141.226 296.42C142.366 296.42 143.326 297.12 143.326 298.34H139.046C139.246 297.1 140.106 296.42 141.226 296.42ZM146.566 301.3H142.926C142.646 301.9 142.106 302.38 141.146 302.38C140.046 302.38 139.146 301.7 139.026 300.24H146.766C146.806 299.9 146.826 299.56 146.826 299.24C146.826 295.84 144.526 293.68 141.266 293.68C137.946 293.68 135.626 295.88 135.626 299.42C135.626 302.96 137.986 305.16 141.266 305.16C144.046 305.16 146.026 303.48 146.566 301.3Z" fill="white"/>
<rect x="35" y="320" width="360" height="127" fill="#A9A9A9" fill-opacity="0.81"/>
<path d="M57.94 475.48C57.94 476.293 57.7533 477.04 57.38 477.72C57.0067 478.387 56.4333 478.927 55.66 479.34C54.8867 479.753 53.9267 479.96 52.78 479.96H50.66V485H47.24V470.96H52.78C53.9 470.96 54.8467 471.153 55.62 471.54C56.3933 471.927 56.9733 472.46 57.36 473.14C57.7467 473.82 57.94 474.6 57.94 475.48ZM52.52 477.24C53.1733 477.24 53.66 477.087 53.98 476.78C54.3 476.473 54.46 476.04 54.46 475.48C54.46 474.92 54.3 474.487 53.98 474.18C53.66 473.873 53.1733 473.72 52.52 473.72H50.66V477.24H52.52ZM63.1405 475.7C63.5405 475.087 64.0405 474.607 64.6405 474.26C65.2405 473.9 65.9071 473.72 66.6405 473.72V477.34H65.7005C64.8471 477.34 64.2071 477.527 63.7805 477.9C63.3538 478.26 63.1405 478.9 63.1405 479.82V485H59.7205V473.84H63.1405V475.7ZM73.3552 485.16C72.2618 485.16 71.2752 484.927 70.3952 484.46C69.5285 483.993 68.8418 483.327 68.3352 482.46C67.8418 481.593 67.5952 480.58 67.5952 479.42C67.5952 478.273 67.8485 477.267 68.3552 476.4C68.8618 475.52 69.5552 474.847 70.4352 474.38C71.3152 473.913 72.3018 473.68 73.3952 473.68C74.4885 473.68 75.4752 473.913 76.3552 474.38C77.2352 474.847 77.9285 475.52 78.4352 476.4C78.9418 477.267 79.1952 478.273 79.1952 479.42C79.1952 480.567 78.9352 481.58 78.4152 482.46C77.9085 483.327 77.2085 483.993 76.3152 484.46C75.4352 484.927 74.4485 485.16 73.3552 485.16ZM73.3552 482.2C74.0085 482.2 74.5618 481.96 75.0152 481.48C75.4818 481 75.7152 480.313 75.7152 479.42C75.7152 478.527 75.4885 477.84 75.0352 477.36C74.5952 476.88 74.0485 476.64 73.3952 476.64C72.7285 476.64 72.1752 476.88 71.7352 477.36C71.2952 477.827 71.0752 478.513 71.0752 479.42C71.0752 480.313 71.2885 481 71.7152 481.48C72.1552 481.96 72.7018 482.2 73.3552 482.2ZM86.6095 476.68H84.7695V485H81.3495V476.68H80.1095V473.84H81.3495V473.52C81.3495 472.147 81.7429 471.107 82.5295 470.4C83.3162 469.68 84.4695 469.32 85.9895 469.32C86.2429 469.32 86.4295 469.327 86.5495 469.34V472.24C85.8962 472.2 85.4362 472.293 85.1695 472.52C84.9029 472.747 84.7695 473.153 84.7695 473.74V473.84H86.6095V476.68ZM98.7366 479.24C98.7366 479.56 98.7166 479.893 98.6766 480.24H90.9366C90.9899 480.933 91.2099 481.467 91.5966 481.84C91.9966 482.2 92.4832 482.38 93.0566 482.38C93.9099 482.38 94.5032 482.02 94.8366 481.3H98.4766C98.2899 482.033 97.9499 482.693 97.4566 483.28C96.9766 483.867 96.3699 484.327 95.6366 484.66C94.9032 484.993 94.0832 485.16 93.1766 485.16C92.0832 485.16 91.1099 484.927 90.2566 484.46C89.4032 483.993 88.7366 483.327 88.2566 482.46C87.7766 481.593 87.5366 480.58 87.5366 479.42C87.5366 478.26 87.7699 477.247 88.2366 476.38C88.7166 475.513 89.3832 474.847 90.2366 474.38C91.0899 473.913 92.0699 473.68 93.1766 473.68C94.2566 473.68 95.2166 473.907 96.0566 474.36C96.8966 474.813 97.5499 475.46 98.0166 476.3C98.4966 477.14 98.7366 478.12 98.7366 479.24ZM95.2366 478.34C95.2366 477.753 95.0366 477.287 94.6366 476.94C94.2366 476.593 93.7366 476.42 93.1366 476.42C92.5632 476.42 92.0766 476.587 91.6766 476.92C91.2899 477.253 91.0499 477.727 90.9566 478.34H95.2366ZM105.081 485.16C104.107 485.16 103.241 484.993 102.481 484.66C101.721 484.327 101.121 483.873 100.681 483.3C100.241 482.713 99.9941 482.06 99.9408 481.34H103.321C103.361 481.727 103.541 482.04 103.861 482.28C104.181 482.52 104.574 482.64 105.041 482.64C105.467 482.64 105.794 482.56 106.021 482.4C106.261 482.227 106.381 482.007 106.381 481.74C106.381 481.42 106.214 481.187 105.881 481.04C105.547 480.88 105.007 480.707 104.261 480.52C103.461 480.333 102.794 480.14 102.261 479.94C101.727 479.727 101.267 479.4 100.881 478.96C100.494 478.507 100.301 477.9 100.301 477.14C100.301 476.5 100.474 475.92 100.821 475.4C101.181 474.867 101.701 474.447 102.381 474.14C103.074 473.833 103.894 473.68 104.841 473.68C106.241 473.68 107.341 474.027 108.141 474.72C108.954 475.413 109.421 476.333 109.541 477.48H106.381C106.327 477.093 106.154 476.787 105.861 476.56C105.581 476.333 105.207 476.22 104.741 476.22C104.341 476.22 104.034 476.3 103.821 476.46C103.607 476.607 103.501 476.813 103.501 477.08C103.501 477.4 103.667 477.64 104.001 477.8C104.347 477.96 104.881 478.12 105.601 478.28C106.427 478.493 107.101 478.707 107.621 478.92C108.141 479.12 108.594 479.453 108.981 479.92C109.381 480.373 109.587 480.987 109.601 481.76C109.601 482.413 109.414 483 109.041 483.52C108.681 484.027 108.154 484.427 107.461 484.72C106.781 485.013 105.987 485.16 105.081 485.16ZM116.233 485.16C115.26 485.16 114.393 484.993 113.633 484.66C112.873 484.327 112.273 483.873 111.833 483.3C111.393 482.713 111.146 482.06 111.093 481.34H114.473C114.513 481.727 114.693 482.04 115.013 482.28C115.333 482.52 115.726 482.64 116.193 482.64C116.62 482.64 116.946 482.56 117.173 482.4C117.413 482.227 117.533 482.007 117.533 481.74C117.533 481.42 117.366 481.187 117.033 481.04C116.7 480.88 116.16 480.707 115.413 480.52C114.613 480.333 113.946 480.14 113.413 479.94C112.88 479.727 112.42 479.4 112.033 478.96C111.646 478.507 111.453 477.9 111.453 477.14C111.453 476.5 111.626 475.92 111.973 475.4C112.333 474.867 112.853 474.447 113.533 474.14C114.226 473.833 115.046 473.68 115.993 473.68C117.393 473.68 118.493 474.027 119.293 474.72C120.106 475.413 120.573 476.333 120.693 477.48H117.533C117.48 477.093 117.306 476.787 117.013 476.56C116.733 476.333 116.36 476.22 115.893 476.22C115.493 476.22 115.186 476.3 114.973 476.46C114.76 476.607 114.653 476.813 114.653 477.08C114.653 477.4 114.82 477.64 115.153 477.8C115.5 477.96 116.033 478.12 116.753 478.28C117.58 478.493 118.253 478.707 118.773 478.92C119.293 479.12 119.746 479.453 120.133 479.92C120.533 480.373 120.74 480.987 120.753 481.76C120.753 482.413 120.566 483 120.193 483.52C119.833 484.027 119.306 484.427 118.613 484.72C117.933 485.013 117.14 485.16 116.233 485.16ZM124.565 472.68C123.965 472.68 123.472 472.507 123.085 472.16C122.712 471.8 122.525 471.36 122.525 470.84C122.525 470.307 122.712 469.867 123.085 469.52C123.472 469.16 123.965 468.98 124.565 468.98C125.152 468.98 125.632 469.16 126.005 469.52C126.392 469.867 126.585 470.307 126.585 470.84C126.585 471.36 126.392 471.8 126.005 472.16C125.632 472.507 125.152 472.68 124.565 472.68ZM126.265 473.84V485H122.845V473.84H126.265ZM133.824 485.16C132.731 485.16 131.744 484.927 130.864 484.46C129.997 483.993 129.311 483.327 128.804 482.46C128.311 481.593 128.064 480.58 128.064 479.42C128.064 478.273 128.317 477.267 128.824 476.4C129.331 475.52 130.024 474.847 130.904 474.38C131.784 473.913 132.771 473.68 133.864 473.68C134.957 473.68 135.944 473.913 136.824 474.38C137.704 474.847 138.397 475.52 138.904 476.4C139.411 477.267 139.664 478.273 139.664 479.42C139.664 480.567 139.404 481.58 138.884 482.46C138.377 483.327 137.677 483.993 136.784 484.46C135.904 484.927 134.917 485.16 133.824 485.16ZM133.824 482.2C134.477 482.2 135.031 481.96 135.484 481.48C135.951 481 136.184 480.313 136.184 479.42C136.184 478.527 135.957 477.84 135.504 477.36C135.064 476.88 134.517 476.64 133.864 476.64C133.197 476.64 132.644 476.88 132.204 477.36C131.764 477.827 131.544 478.513 131.544 479.42C131.544 480.313 131.757 481 132.184 481.48C132.624 481.96 133.171 482.2 133.824 482.2ZM148.278 473.72C149.585 473.72 150.625 474.147 151.398 475C152.185 475.84 152.578 477 152.578 478.48V485H149.178V478.94C149.178 478.193 148.985 477.613 148.598 477.2C148.212 476.787 147.692 476.58 147.038 476.58C146.385 476.58 145.865 476.787 145.478 477.2C145.092 477.613 144.898 478.193 144.898 478.94V485H141.478V473.84H144.898V475.32C145.245 474.827 145.712 474.44 146.298 474.16C146.885 473.867 147.545 473.72 148.278 473.72Z" fill="white"/>
<rect x="34" y="500" width="360" height="67" fill="#A9A9A9" fill-opacity="0.81"/>
<path d="M54.98 600.72C54.98 601.72 54.32 602.24 53.18 602.24H50.66V599.14H53.14C54.28 599.14 54.98 599.72 54.98 600.72ZM54.64 595.18C54.64 596.14 54.02 596.64 52.9 596.64H50.66V593.7H52.9C54.02 593.7 54.64 594.22 54.64 595.18ZM58.44 601.18C58.44 599.58 57.38 598.14 55.74 597.8C57.1 597.4 58.12 596.3 58.12 594.6C58.12 592.38 56.42 590.96 53.56 590.96H47.24V605H53.78C56.74 605 58.44 603.5 58.44 601.18ZM60.4236 605H63.8436V593.84H60.4236V605ZM62.1436 592.68C63.3436 592.68 64.1636 591.86 64.1636 590.84C64.1636 589.8 63.3436 588.98 62.1436 588.98C60.9236 588.98 60.1036 589.8 60.1036 590.84C60.1036 591.86 60.9236 592.68 62.1436 592.68ZM69.742 599.82C69.742 597.9 70.682 597.34 72.302 597.34H73.242V593.72C71.742 593.72 70.522 594.52 69.742 595.7V593.84H66.322V605H69.742V599.82ZM75.4167 601.12C75.4167 604.02 77.0367 605 79.3567 605H81.0967V602.1H79.8767C79.1167 602.1 78.8367 601.82 78.8367 601.16V596.68H81.0767V593.84H78.8367V591.12H75.4167V593.84H74.0567V596.68H75.4167V601.12ZM83.0017 605H86.4217V598.94C86.4217 597.42 87.2617 596.58 88.5617 596.58C89.8617 596.58 90.7017 597.42 90.7017 598.94V605H94.1017V598.48C94.1017 595.48 92.4017 593.72 89.8617 593.72C88.3217 593.72 87.1017 594.38 86.4217 595.34V590.2H83.0017V605ZM95.7983 599.4C95.7983 602.92 97.9783 605.16 100.718 605.16C102.358 605.16 103.538 604.42 104.158 603.4V605H107.578V590.2H104.158V595.38C103.478 594.36 102.198 593.68 100.718 593.68C97.9783 593.68 95.7983 595.88 95.7983 599.4ZM104.158 599.42C104.158 601.2 103.018 602.18 101.718 602.18C100.438 602.18 99.2783 601.18 99.2783 599.4C99.2783 597.62 100.438 596.66 101.718 596.66C103.018 596.66 104.158 597.64 104.158 599.42ZM109.373 599.4C109.373 602.92 111.553 605.16 114.273 605.16C115.933 605.16 117.113 604.4 117.733 603.42V605H121.153V593.84H117.733V595.42C117.133 594.44 115.953 593.68 114.293 593.68C111.553 593.68 109.373 595.88 109.373 599.4ZM117.733 599.42C117.733 601.2 116.593 602.18 115.293 602.18C114.013 602.18 112.853 601.18 112.853 599.4C112.853 597.62 114.013 596.66 115.293 596.66C116.593 596.66 117.733 597.64 117.733 599.42ZM128.767 600.82L126.187 593.84H122.367L126.907 604.62L124.347 610.3H128.027L135.027 593.84H131.327L128.767 600.82Z" fill="white"/>
<rect x="34" y="620" width="360" height="67" fill="#A9A9A9" fill-opacity="0.81"/>
<path d="M53.8 710.8C49.6 710.8 46.66 713.76 46.66 717.96C46.66 722.16 49.62 725.1 53.82 725.1C57.52 725.1 59.86 722.68 60.58 720.26V717.08H53.14V719.6H57.48C56.96 721.18 55.78 722.08 54.08 722.08C51.62 722.08 50.14 720.56 50.14 717.96C50.14 715.52 51.6 713.96 53.8 713.96C55.08 713.96 56.04 714.46 56.56 715.4H60.34C59.6 712.52 57.16 710.8 53.8 710.8ZM67.3944 716.42C68.5344 716.42 69.4944 717.12 69.4944 718.34H65.2144C65.4144 717.1 66.2744 716.42 67.3944 716.42ZM72.7344 721.3H69.0944C68.8144 721.9 68.2744 722.38 67.3144 722.38C66.2144 722.38 65.3144 721.7 65.1944 720.24H72.9344C72.9744 719.9 72.9944 719.56 72.9944 719.24C72.9944 715.84 70.6944 713.68 67.4344 713.68C64.1144 713.68 61.7944 715.88 61.7944 719.42C61.7944 722.96 64.1544 725.16 67.4344 725.16C70.2144 725.16 72.1944 723.48 72.7344 721.3ZM82.4986 725H85.8986V718.48C85.8986 715.48 84.1786 713.72 81.5986 713.72C80.0986 713.72 78.8986 714.38 78.2186 715.32V713.84H74.7986V725H78.2186V718.94C78.2186 717.42 79.0586 716.58 80.3586 716.58C81.6586 716.58 82.4986 717.42 82.4986 718.94V725ZM87.5952 719.4C87.5952 722.92 89.7752 725.16 92.5152 725.16C94.1552 725.16 95.3352 724.42 95.9552 723.4V725H99.3752V710.2H95.9552V715.38C95.2752 714.36 93.9952 713.68 92.5152 713.68C89.7752 713.68 87.5952 715.88 87.5952 719.4ZM95.9552 719.42C95.9552 721.2 94.8152 722.18 93.5152 722.18C92.2352 722.18 91.0752 721.18 91.0752 719.4C91.0752 717.62 92.2352 716.66 93.5152 716.66C94.8152 716.66 95.9552 717.64 95.9552 719.42ZM106.769 716.42C107.909 716.42 108.869 717.12 108.869 718.34H104.589C104.789 717.1 105.649 716.42 106.769 716.42ZM112.109 721.3H108.469C108.189 721.9 107.649 722.38 106.689 722.38C105.589 722.38 104.689 721.7 104.569 720.24H112.309C112.349 719.9 112.369 719.56 112.369 719.24C112.369 715.84 110.069 713.68 106.809 713.68C103.489 713.68 101.169 715.88 101.169 719.42C101.169 722.96 103.529 725.16 106.809 725.16C109.589 725.16 111.569 723.48 112.109 721.3ZM117.594 719.82C117.594 717.9 118.534 717.34 120.154 717.34H121.094V713.72C119.594 713.72 118.374 714.52 117.594 715.7V713.84H114.174V725H117.594V719.82Z" fill="white"/>
<rect x="34" y="740" width="360" height="67" fill="#A9A9A9" fill-opacity="0.81"/>
<path d="M2 845H430V926H2V845Z" fill="#D3D3D3"/>
<path d="M65.5419 876.696L55.731 866.89L55.0733 866.232C54.9235 866.084 54.7209 866 54.5097 866C54.2985 866 54.0958 866.084 53.946 866.232L43.4774 876.696C43.3239 876.849 43.2026 877.031 43.1206 877.232C43.0386 877.432 42.9976 877.647 43.0001 877.864C43.0103 878.758 43.7542 879.471 44.648 879.471H45.7271V887.741H63.2923V879.471H64.3942C64.8284 879.471 65.2372 879.301 65.5444 878.994C65.6957 878.843 65.8156 878.664 65.8971 878.466C65.9786 878.269 66.0201 878.057 66.0192 877.844C66.0192 877.412 65.8491 877.003 65.5419 876.696ZM55.9316 885.913H53.0878V880.733H55.9316V885.913ZM61.4642 877.643V885.913H57.5566V880.124C57.5566 879.562 57.1021 879.108 56.5409 879.108H52.4784C51.9173 879.108 51.4628 879.562 51.4628 880.124V885.913H47.5552V877.643H45.1177L54.5122 868.256L55.0987 868.843L63.9042 877.643H61.4642Z" fill="#F5F5F5"/>
<path d="M46.7 897.98V905H44.99V902.11H42.33V905H40.62V897.98H42.33V900.73H44.99V897.98H46.7ZM50.4745 905.08C49.9278 905.08 49.4345 904.963 48.9945 904.73C48.5611 904.497 48.2178 904.163 47.9645 903.73C47.7178 903.297 47.5945 902.79 47.5945 902.21C47.5945 901.637 47.7211 901.133 47.9745 900.7C48.2278 900.26 48.5745 899.923 49.0145 899.69C49.4545 899.457 49.9478 899.34 50.4945 899.34C51.0411 899.34 51.5345 899.457 51.9745 899.69C52.4145 899.923 52.7611 900.26 53.0145 900.7C53.2678 901.133 53.3945 901.637 53.3945 902.21C53.3945 902.783 53.2645 903.29 53.0045 903.73C52.7511 904.163 52.4011 904.497 51.9545 904.73C51.5145 904.963 51.0211 905.08 50.4745 905.08ZM50.4745 903.6C50.8011 903.6 51.0778 903.48 51.3045 903.24C51.5378 903 51.6545 902.657 51.6545 902.21C51.6545 901.763 51.5411 901.42 51.3145 901.18C51.0945 900.94 50.8211 900.82 50.4945 900.82C50.1611 900.82 49.8845 900.94 49.6645 901.18C49.4445 901.413 49.3345 901.757 49.3345 902.21C49.3345 902.657 49.4411 903 49.6545 903.24C49.8745 903.48 50.1478 903.6 50.4745 903.6ZM61.4216 899.36C62.115 899.36 62.665 899.57 63.0716 899.99C63.485 900.41 63.6916 900.993 63.6916 901.74V905H61.9916V901.97C61.9916 901.61 61.895 901.333 61.7016 901.14C61.515 900.94 61.255 900.84 60.9216 900.84C60.5883 900.84 60.325 900.94 60.1316 901.14C59.945 901.333 59.8516 901.61 59.8516 901.97V905H58.1516V901.97C58.1516 901.61 58.055 901.333 57.8616 901.14C57.675 900.94 57.415 900.84 57.0816 900.84C56.7483 900.84 56.485 900.94 56.2916 901.14C56.105 901.333 56.0116 901.61 56.0116 901.97V905H54.3016V899.42H56.0116V900.12C56.185 899.887 56.4116 899.703 56.6916 899.57C56.9716 899.43 57.2883 899.36 57.6416 899.36C58.0616 899.36 58.435 899.45 58.7616 899.63C59.095 899.81 59.355 900.067 59.5416 900.4C59.735 900.093 59.9983 899.843 60.3316 899.65C60.665 899.457 61.0283 899.36 61.4216 899.36ZM70.1476 902.12C70.1476 902.28 70.1376 902.447 70.1176 902.62H66.2476C66.2742 902.967 66.3842 903.233 66.5776 903.42C66.7776 903.6 67.0209 903.69 67.3076 903.69C67.7342 903.69 68.0309 903.51 68.1976 903.15H70.0176C69.9242 903.517 69.7542 903.847 69.5076 904.14C69.2676 904.433 68.9642 904.663 68.5976 904.83C68.2309 904.997 67.8209 905.08 67.3676 905.08C66.8209 905.08 66.3342 904.963 65.9076 904.73C65.4809 904.497 65.1476 904.163 64.9076 903.73C64.6676 903.297 64.5476 902.79 64.5476 902.21C64.5476 901.63 64.6642 901.123 64.8976 900.69C65.1376 900.257 65.4709 899.923 65.8976 899.69C66.3242 899.457 66.8142 899.34 67.3676 899.34C67.9076 899.34 68.3876 899.453 68.8076 899.68C69.2276 899.907 69.5542 900.23 69.7876 900.65C70.0276 901.07 70.1476 901.56 70.1476 902.12ZM68.3976 901.67C68.3976 901.377 68.2976 901.143 68.0976 900.97C67.8976 900.797 67.6476 900.71 67.3476 900.71C67.0609 900.71 66.8176 900.793 66.6176 900.96C66.4242 901.127 66.3042 901.363 66.2576 901.67H68.3976Z" fill="#F5F5F5"/>
<g clip-path="url(#clip1_293_147)">
<path d="M153.559 877.943L149.517 876.083V870.751C149.515 870.639 149.481 870.53 149.419 870.437C149.357 870.344 149.269 870.271 149.167 870.226L144.792 868.213C144.715 868.178 144.631 868.159 144.547 868.159C144.462 868.159 144.379 868.178 144.302 868.213L139.927 870.226C139.826 870.273 139.74 870.348 139.68 870.442C139.62 870.536 139.588 870.645 139.588 870.757V876.088L135.563 877.943C135.462 877.99 135.376 878.065 135.317 878.159C135.257 878.253 135.225 878.363 135.225 878.474V884.179C135.225 884.291 135.257 884.4 135.317 884.494C135.376 884.588 135.462 884.663 135.563 884.71L139.938 886.723C140.015 886.758 140.099 886.776 140.183 886.776C140.268 886.776 140.352 886.758 140.428 886.723L144.558 884.821L148.688 886.723C148.765 886.758 148.849 886.776 148.933 886.776C149.018 886.776 149.102 886.758 149.178 886.723L153.553 884.71C153.655 884.663 153.74 884.588 153.8 884.494C153.86 884.4 153.892 884.291 153.892 884.179V878.474C153.893 878.363 153.862 878.254 153.803 878.16C153.744 878.066 153.659 877.991 153.559 877.943ZM148.939 879.833L145.958 878.474L148.939 877.103L151.92 878.474L148.939 879.833ZM148.356 876.077L144.599 877.827V873.341C144.67 873.338 144.739 873.322 144.803 873.294L148.35 871.667V876.088L148.356 876.077ZM144.558 869.38L147.539 870.751L144.558 872.122L141.583 870.751L144.558 869.38ZM140.183 877.098L143.164 878.468L140.183 879.833L137.203 878.474L140.183 877.098ZM143.975 883.8L140.183 885.55V881.064C140.265 881.059 140.344 881.037 140.417 881L143.963 879.367L143.975 883.8ZM152.725 883.8L148.957 885.55V881.064C149.03 881.056 149.101 881.035 149.167 881L152.713 879.367L152.725 883.8Z" fill="#F5F5F5"/>
</g>
<path d="M114.33 901.48C114.33 900.787 114.48 900.17 114.78 899.63C115.08 899.083 115.497 898.66 116.03 898.36C116.57 898.053 117.18 897.9 117.86 897.9C118.693 897.9 119.407 898.12 120 898.56C120.593 899 120.99 899.6 121.19 900.36H119.31C119.17 900.067 118.97 899.843 118.71 899.69C118.457 899.537 118.167 899.46 117.84 899.46C117.313 899.46 116.887 899.643 116.56 900.01C116.233 900.377 116.07 900.867 116.07 901.48C116.07 902.093 116.233 902.583 116.56 902.95C116.887 903.317 117.313 903.5 117.84 903.5C118.167 903.5 118.457 903.423 118.71 903.27C118.97 903.117 119.17 902.893 119.31 902.6H121.19C120.99 903.36 120.593 903.96 120 904.4C119.407 904.833 118.693 905.05 117.86 905.05C117.18 905.05 116.57 904.9 116.03 904.6C115.497 904.293 115.08 903.87 114.78 903.33C114.48 902.79 114.33 902.173 114.33 901.48ZM124.777 905.08C124.231 905.08 123.737 904.963 123.297 904.73C122.864 904.497 122.521 904.163 122.267 903.73C122.021 903.297 121.897 902.79 121.897 902.21C121.897 901.637 122.024 901.133 122.277 900.7C122.531 900.26 122.877 899.923 123.317 899.69C123.757 899.457 124.251 899.34 124.797 899.34C125.344 899.34 125.837 899.457 126.277 899.69C126.717 899.923 127.064 900.26 127.317 900.7C127.571 901.133 127.697 901.637 127.697 902.21C127.697 902.783 127.567 903.29 127.307 903.73C127.054 904.163 126.704 904.497 126.257 904.73C125.817 904.963 125.324 905.08 124.777 905.08ZM124.777 903.6C125.104 903.6 125.381 903.48 125.607 903.24C125.841 903 125.957 902.657 125.957 902.21C125.957 901.763 125.844 901.42 125.617 901.18C125.397 900.94 125.124 900.82 124.797 900.82C124.464 900.82 124.187 900.94 123.967 901.18C123.747 901.413 123.637 901.757 123.637 902.21C123.637 902.657 123.744 903 123.957 903.24C124.177 903.48 124.451 903.6 124.777 903.6ZM135.724 899.36C136.418 899.36 136.968 899.57 137.374 899.99C137.788 900.41 137.994 900.993 137.994 901.74V905H136.294V901.97C136.294 901.61 136.198 901.333 136.004 901.14C135.818 900.94 135.558 900.84 135.224 900.84C134.891 900.84 134.628 900.94 134.434 901.14C134.248 901.333 134.154 901.61 134.154 901.97V905H132.454V901.97C132.454 901.61 132.358 901.333 132.164 901.14C131.978 900.94 131.718 900.84 131.384 900.84C131.051 900.84 130.788 900.94 130.594 901.14C130.408 901.333 130.314 901.61 130.314 901.97V905H128.604V899.42H130.314V900.12C130.488 899.887 130.714 899.703 130.994 899.57C131.274 899.43 131.591 899.36 131.944 899.36C132.364 899.36 132.738 899.45 133.064 899.63C133.398 899.81 133.658 900.067 133.844 900.4C134.038 900.093 134.301 899.843 134.634 899.65C134.968 899.457 135.331 899.36 135.724 899.36ZM146.31 899.36C147.004 899.36 147.554 899.57 147.96 899.99C148.374 900.41 148.58 900.993 148.58 901.74V905H146.88V901.97C146.88 901.61 146.784 901.333 146.59 901.14C146.404 900.94 146.144 900.84 145.81 900.84C145.477 900.84 145.214 900.94 145.02 901.14C144.834 901.333 144.74 901.61 144.74 901.97V905H143.04V901.97C143.04 901.61 142.944 901.333 142.75 901.14C142.564 900.94 142.304 900.84 141.97 900.84C141.637 900.84 141.374 900.94 141.18 901.14C140.994 901.333 140.9 901.61 140.9 901.97V905H139.19V899.42H140.9V900.12C141.074 899.887 141.3 899.703 141.58 899.57C141.86 899.43 142.177 899.36 142.53 899.36C142.95 899.36 143.324 899.45 143.65 899.63C143.984 899.81 144.244 900.067 144.43 900.4C144.624 900.093 144.887 899.843 145.22 899.65C145.554 899.457 145.917 899.36 146.31 899.36ZM155.286 899.42V905H153.576V904.24C153.403 904.487 153.166 904.687 152.866 904.84C152.573 904.987 152.246 905.06 151.886 905.06C151.46 905.06 151.083 904.967 150.756 904.78C150.43 904.587 150.176 904.31 149.996 903.95C149.816 903.59 149.726 903.167 149.726 902.68V899.42H151.426V902.45C151.426 902.823 151.523 903.113 151.716 903.32C151.91 903.527 152.17 903.63 152.496 903.63C152.83 903.63 153.093 903.527 153.286 903.32C153.48 903.113 153.576 902.823 153.576 902.45V899.42H155.286ZM159.915 899.36C160.568 899.36 161.088 899.573 161.475 900C161.868 900.42 162.065 901 162.065 901.74V905H160.365V901.97C160.365 901.597 160.268 901.307 160.075 901.1C159.881 900.893 159.621 900.79 159.295 900.79C158.968 900.79 158.708 900.893 158.515 901.1C158.321 901.307 158.225 901.597 158.225 901.97V905H156.515V899.42H158.225V900.16C158.398 899.913 158.631 899.72 158.925 899.58C159.218 899.433 159.548 899.36 159.915 899.36ZM164.113 898.84C163.813 898.84 163.566 898.753 163.373 898.58C163.186 898.4 163.093 898.18 163.093 897.92C163.093 897.653 163.186 897.433 163.373 897.26C163.566 897.08 163.813 896.99 164.113 896.99C164.406 896.99 164.646 897.08 164.833 897.26C165.026 897.433 165.123 897.653 165.123 897.92C165.123 898.18 165.026 898.4 164.833 898.58C164.646 898.753 164.406 898.84 164.113 898.84ZM164.963 899.42V905H163.253V899.42H164.963ZM169.312 903.55V905H168.442C167.822 905 167.339 904.85 166.992 904.55C166.645 904.243 166.472 903.747 166.472 903.06V900.84H165.792V899.42H166.472V898.06H168.182V899.42H169.302V900.84H168.182V903.08C168.182 903.247 168.222 903.367 168.302 903.44C168.382 903.513 168.515 903.55 168.702 903.55H169.312ZM175.965 899.42L172.465 907.65H170.625L171.905 904.81L169.635 899.42H171.545L172.835 902.91L174.115 899.42H175.965Z" fill="#F5F5F5"/>
<path d="M225.16 866L223.75 867.41L226.34 870H221C219.89 870 219 870.89 219 872V882C219 883.11 219.89 884 221 884H237C238.11 884 239 883.11 239 882V872C239 870.89 238.11 870 237 870H231.66L234.25 867.41L232.84 866L229 869.84L225.16 866ZM221 872H234V882H221V872ZM236.5 872C236.765 872 237.02 872.105 237.207 872.293C237.395 872.48 237.5 872.735 237.5 873C237.5 873.265 237.395 873.52 237.207 873.707C237.02 873.895 236.765 874 236.5 874C236.235 874 235.98 873.895 235.793 873.707C235.605 873.52 235.5 873.265 235.5 873C235.5 872.735 235.605 872.48 235.793 872.293C235.98 872.105 236.235 872 236.5 872ZM236.5 875C236.765 875 237.02 875.105 237.207 875.293C237.395 875.48 237.5 875.735 237.5 876C237.5 876.265 237.395 876.52 237.207 876.707C237.02 876.895 236.765 877 236.5 877C236.235 877 235.98 876.895 235.793 876.707C235.605 876.52 235.5 876.265 235.5 876C235.5 875.735 235.605 875.48 235.793 875.293C235.98 875.105 236.235 875 236.5 875Z" fill="#F5F5F5"/>
<path d="M227.67 897.98V899.35H225.81V905H224.1V899.35H222.24V897.98H227.67ZM235.118 897.98L232.628 905H230.488L227.998 897.98H229.818L231.558 903.28L233.308 897.98H235.118Z" fill="#F5F5F5"/>
<path fill-rule="evenodd" clip-rule="evenodd" d="M303 874C303 875.061 302.579 876.078 301.828 876.828C301.078 877.579 300.061 878 299 878C297.939 878 296.922 877.579 296.172 876.828C295.421 876.078 295 875.061 295 874C295 872.939 295.421 871.922 296.172 871.172C296.922 870.421 297.939 870 299 870C300.061 870 301.078 870.421 301.828 871.172C302.579 871.922 303 872.939 303 874ZM301 874C301 874.53 300.789 875.039 300.414 875.414C300.039 875.789 299.53 876 299 876C298.47 876 297.961 875.789 297.586 875.414C297.211 875.039 297 874.53 297 874C297 873.47 297.211 872.961 297.586 872.586C297.961 872.211 298.47 872 299 872C299.53 872 300.039 872.211 300.414 872.586C300.789 872.961 301 873.47 301 874Z" fill="white"/>
<path fill-rule="evenodd" clip-rule="evenodd" d="M299 866C292.925 866 288 870.925 288 877C288 883.075 292.925 888 299 888C305.075 888 310 883.075 310 877C310 870.925 305.075 866 299 866ZM290 877C290 879.09 290.713 881.014 291.908 882.542C292.747 881.44 293.83 880.547 295.071 879.932C296.313 879.318 297.68 878.999 299.065 879C300.432 878.999 301.782 879.31 303.011 879.909C304.24 880.508 305.316 881.38 306.157 882.458C307.023 881.322 307.607 879.995 307.859 878.589C308.111 877.182 308.024 875.736 307.606 874.369C307.189 873.002 306.451 871.755 305.455 870.73C304.46 869.705 303.234 868.932 301.88 868.475C300.527 868.017 299.083 867.889 297.67 868.1C296.257 868.311 294.914 868.856 293.753 869.689C292.592 870.522 291.646 871.62 290.993 872.891C290.341 874.163 290 875.571 290 877ZM299 886C296.934 886.003 294.93 885.292 293.328 883.988C293.973 883.065 294.831 882.311 295.83 881.791C296.829 881.27 297.939 880.999 299.065 881C300.177 880.999 301.273 881.264 302.263 881.771C303.252 882.279 304.106 883.016 304.754 883.92C303.139 885.267 301.103 886.003 299 886Z" fill="white"/>
<path d="M284.33 901.12V899.36H285.26C285.94 899.36 286.23 899.7 286.23 900.24C286.23 900.78 285.94 901.12 285.26 901.12H284.33ZM287.97 900.24C287.97 898.95 287.11 897.98 285.39 897.98H282.62V905H284.33V902.48H285.39C287.18 902.48 287.97 901.4 287.97 900.24ZM290.57 902.41C290.57 901.45 291.04 901.17 291.85 901.17H292.32V899.36C291.57 899.36 290.96 899.76 290.57 900.35V899.42H288.86V905H290.57V902.41ZM298.598 902.21C298.598 900.44 297.338 899.34 295.698 899.34C294.068 899.34 292.798 900.44 292.798 902.21C292.798 903.98 294.038 905.08 295.678 905.08C297.318 905.08 298.598 903.98 298.598 902.21ZM294.538 902.21C294.538 901.26 295.078 900.82 295.698 900.82C296.298 900.82 296.858 901.26 296.858 902.21C296.858 903.15 296.288 903.6 295.678 903.6C295.058 903.6 294.538 903.15 294.538 902.21ZM299.675 905H301.385V900.84H302.305V899.42H301.385V899.37C301.385 898.78 301.615 898.58 302.275 898.62V897.17C300.575 897.08 299.675 897.8 299.675 899.26V899.42H299.055V900.84H299.675V905ZM303.108 905H304.818V899.42H303.108V905ZM303.968 898.84C304.568 898.84 304.978 898.43 304.978 897.92C304.978 897.4 304.568 896.99 303.968 896.99C303.358 896.99 302.948 897.4 302.948 897.92C302.948 898.43 303.358 898.84 303.968 898.84ZM306.058 905H307.768V897.6H306.058V905ZM311.467 900.71C312.037 900.71 312.517 901.06 312.517 901.67H310.377C310.477 901.05 310.907 900.71 311.467 900.71ZM314.137 903.15H312.317C312.177 903.45 311.907 903.69 311.427 903.69C310.877 903.69 310.427 903.35 310.367 902.62H314.237C314.257 902.45 314.267 902.28 314.267 902.12C314.267 900.42 313.117 899.34 311.487 899.34C309.827 899.34 308.667 900.44 308.667 902.21C308.667 903.98 309.847 905.08 311.487 905.08C312.877 905.08 313.867 904.24 314.137 903.15Z" fill="white"/>
<path d="M382.563 877.523V876.471L383.883 875.316C384.126 875.101 384.286 874.808 384.333 874.487C384.381 874.166 384.314 873.839 384.144 873.563L382.521 870.813C382.401 870.604 382.227 870.43 382.019 870.31C381.81 870.189 381.573 870.125 381.332 870.125C381.183 870.124 381.034 870.147 380.892 870.194L379.221 870.758C378.933 870.566 378.632 870.394 378.321 870.242L377.97 868.509C377.907 868.193 377.735 867.909 377.484 867.706C377.232 867.504 376.918 867.396 376.595 867.403H373.378C373.055 867.396 372.74 867.504 372.489 867.706C372.238 867.909 372.065 868.193 372.003 868.509L371.652 870.242C371.338 870.394 371.035 870.566 370.744 870.758L369.108 870.166C368.965 870.129 368.816 870.115 368.668 870.125C368.427 870.125 368.19 870.189 367.982 870.31C367.773 870.43 367.599 870.604 367.479 870.813L365.856 873.563C365.696 873.838 365.636 874.161 365.688 874.476C365.739 874.791 365.898 875.078 366.138 875.288L367.438 876.478V877.529L366.138 878.684C365.892 878.896 365.728 879.188 365.676 879.509C365.625 879.83 365.689 880.159 365.856 880.438L367.479 883.188C367.599 883.396 367.773 883.57 367.982 883.691C368.19 883.811 368.427 883.875 368.668 883.875C368.818 883.876 368.966 883.853 369.108 883.806L370.779 883.243C371.067 883.434 371.368 883.607 371.679 883.758L372.03 885.491C372.093 885.807 372.265 886.092 372.517 886.294C372.768 886.496 373.082 886.604 373.405 886.598H376.65C376.973 886.604 377.287 886.496 377.539 886.294C377.79 886.092 377.962 885.807 378.025 885.491L378.376 883.758C378.689 883.607 378.992 883.434 379.283 883.243L380.947 883.806C381.089 883.853 381.238 883.876 381.387 883.875C381.628 883.875 381.865 883.811 382.074 883.691C382.282 883.57 382.456 883.396 382.576 883.188L384.144 880.438C384.304 880.162 384.364 879.839 384.313 879.524C384.261 879.209 384.102 878.922 383.862 878.712L382.563 877.523ZM381.332 882.5L378.974 881.703C378.422 882.17 377.791 882.536 377.111 882.782L376.623 885.25H373.378L372.889 882.809C372.215 882.556 371.587 882.191 371.033 881.73L368.668 882.5L367.046 879.75L368.916 878.1C368.789 877.388 368.789 876.66 368.916 875.948L367.046 874.25L368.668 871.5L371.026 872.298C371.578 871.83 372.209 871.465 372.889 871.218L373.378 868.75H376.623L377.111 871.191C377.786 871.444 378.413 871.809 378.967 872.27L381.332 871.5L382.954 874.25L381.084 875.9C381.212 876.612 381.212 877.34 381.084 878.052L382.954 879.75L381.332 882.5Z" fill="#F5F5F5"/>
<path d="M375 881.125C374.184 881.125 373.387 880.883 372.708 880.43C372.03 879.977 371.501 879.332 371.189 878.579C370.877 877.825 370.795 876.995 370.954 876.195C371.113 875.395 371.506 874.66 372.083 874.083C372.66 873.506 373.395 873.113 374.195 872.954C374.995 872.795 375.825 872.877 376.579 873.189C377.332 873.501 377.977 874.03 378.43 874.708C378.883 875.387 379.125 876.184 379.125 877C379.131 877.543 379.028 878.082 378.822 878.585C378.617 879.088 378.313 879.545 377.929 879.929C377.545 880.313 377.088 880.617 376.585 880.822C376.082 881.028 375.543 881.131 375 881.125ZM375 874.25C374.637 874.242 374.275 874.307 373.938 874.442C373.6 874.577 373.294 874.78 373.037 875.037C372.78 875.294 372.577 875.6 372.442 875.938C372.307 876.275 372.242 876.637 372.25 877C372.242 877.363 372.307 877.725 372.442 878.062C372.577 878.4 372.78 878.706 373.037 878.963C373.294 879.22 373.6 879.423 373.938 879.558C374.275 879.693 374.637 879.758 375 879.75C375.363 879.758 375.725 879.693 376.062 879.558C376.4 879.423 376.706 879.22 376.963 878.963C377.22 878.706 377.423 878.4 377.558 878.062C377.693 877.725 377.758 877.363 377.75 877C377.758 876.637 377.693 876.275 377.558 875.938C377.423 875.6 377.22 875.294 376.963 875.037C376.706 874.78 376.4 874.577 376.062 874.442C375.725 874.307 375.363 874.242 375 874.25Z" fill="#F5F5F5"/>
<path d="M363.72 902.91C363.72 900.56 360.25 901.11 360.25 899.89C360.25 899.45 360.56 899.24 360.97 899.25C361.43 899.26 361.75 899.53 361.78 899.98H363.63C363.56 898.64 362.53 897.88 361 897.88C359.53 897.88 358.44 898.62 358.44 899.95C358.42 902.44 361.93 901.74 361.93 903.04C361.93 903.45 361.61 903.7 361.11 903.7C360.63 903.7 360.29 903.44 360.24 902.9H358.42C358.47 904.32 359.65 905.07 361.16 905.07C362.8 905.07 363.72 904.09 363.72 902.91ZM367.232 900.71C367.802 900.71 368.282 901.06 368.282 901.67H366.142C366.242 901.05 366.672 900.71 367.232 900.71ZM369.902 903.15H368.082C367.942 903.45 367.672 903.69 367.192 903.69C366.642 903.69 366.192 903.35 366.132 902.62H370.002C370.022 902.45 370.032 902.28 370.032 902.12C370.032 900.42 368.882 899.34 367.252 899.34C365.592 899.34 364.432 900.44 364.432 902.21C364.432 903.98 365.612 905.08 367.252 905.08C368.642 905.08 369.632 904.24 369.902 903.15ZM371.204 903.06C371.204 904.51 372.014 905 373.174 905H374.044V903.55H373.434C373.054 903.55 372.914 903.41 372.914 903.08V900.84H374.034V899.42H372.914V898.06H371.204V899.42H370.524V900.84H371.204V903.06ZM375.267 903.06C375.267 904.51 376.077 905 377.237 905H378.107V903.55H377.497C377.117 903.55 376.977 903.41 376.977 903.08V900.84H378.097V899.42H376.977V898.06H375.267V899.42H374.587V900.84H375.267V903.06ZM379.059 905H380.769V899.42H379.059V905ZM379.919 898.84C380.519 898.84 380.929 898.43 380.929 897.92C380.929 897.4 380.519 896.99 379.919 896.99C379.309 896.99 378.899 897.4 378.899 897.92C378.899 898.43 379.309 898.84 379.919 898.84ZM385.859 905H387.559V901.74C387.559 900.24 386.699 899.36 385.409 899.36C384.659 899.36 384.059 899.69 383.719 900.16V899.42H382.009V905H383.719V901.97C383.719 901.21 384.139 900.79 384.789 900.79C385.439 900.79 385.859 901.21 385.859 901.97V905ZM388.407 902.2C388.407 903.96 389.497 905.08 390.867 905.08C391.687 905.08 392.277 904.69 392.587 904.2V904.99C392.587 905.93 392.077 906.27 391.427 906.27C390.837 906.27 390.417 906 390.307 905.58H388.617C388.767 906.91 389.847 907.75 391.507 907.75C393.437 907.75 394.297 906.48 394.297 904.99V899.42H392.587V900.21C392.287 899.71 391.687 899.34 390.867 899.34C389.497 899.34 388.407 900.44 388.407 902.2ZM392.587 902.21C392.587 903.1 392.017 903.59 391.367 903.59C390.727 903.59 390.147 903.09 390.147 902.2C390.147 901.31 390.727 900.83 391.367 900.83C392.017 900.83 392.587 901.32 392.587 902.21ZM400.064 903.38C400.034 901.3 397.014 901.93 397.014 901.04C397.014 900.77 397.234 900.61 397.634 900.61C398.114 900.61 398.404 900.86 398.454 901.24H400.034C399.924 900.14 399.124 899.34 397.684 899.34C396.224 899.34 395.414 900.12 395.414 901.07C395.414 903.12 398.454 902.47 398.454 903.37C398.454 903.62 398.224 903.82 397.784 903.82C397.314 903.82 396.964 903.56 396.924 903.17H395.234C395.314 904.25 396.314 905.08 397.804 905.08C399.204 905.08 400.064 904.35 400.064 903.38Z" fill="#F5F5F5"/>
<circle cx="216" cy="136" r="50" fill="#D9D9D9"/>
</g>
<defs>
<clipPath id="clip0_293_147">
<rect width="428" height="926" fill="white"/>
</clipPath>
<clipPath id="clip1_293_147">
<rect width="21" height="21" fill="white" transform="translate(134 867)"/>
</clipPath>
</defs>
</svg>
