<svg width="428" height="926" viewBox="0 0 428 926" fill="none" xmlns="http://www.w3.org/2000/svg">
<rect width="428" height="926" fill="#D3D3D3"/>
<rect x="20" y="648" width="388" height="70" rx="5" fill="#F5F5F5"/>
<path d="M175.356 682.738C175.356 686.918 178.416 689.838 182.316 689.838C185.336 689.838 187.736 688.338 188.776 685.658H186.596C185.836 687.318 184.356 688.258 182.316 688.258C179.396 688.258 177.216 686.138 177.216 682.738C177.216 679.318 179.396 677.198 182.316 677.198C184.356 677.198 185.836 678.138 186.596 679.818H188.776C187.736 677.118 185.336 675.598 182.316 675.598C178.416 675.598 175.356 678.558 175.356 682.738ZM201.885 684.218C201.885 680.758 199.465 678.578 196.345 678.578C193.245 678.578 190.805 680.758 190.805 684.218C190.805 687.698 193.165 689.898 196.265 689.898C199.385 689.898 201.885 687.698 201.885 684.218ZM192.665 684.218C192.665 681.458 194.405 680.158 196.325 680.158C198.205 680.158 200.025 681.458 200.025 684.218C200.025 686.998 198.165 688.298 196.265 688.298C194.365 688.298 192.665 686.998 192.665 684.218ZM212.298 689.718H214.098V683.258C214.098 680.118 212.158 678.558 209.618 678.558C208.138 678.558 206.818 679.178 206.098 680.318V678.758H204.278V689.718H206.098V683.658C206.098 681.298 207.378 680.138 209.238 680.138C211.078 680.138 212.298 681.278 212.298 683.518V689.718ZM217.411 689.718H219.231V680.258H221.531V678.758H219.231V677.978C219.231 676.558 219.771 675.958 221.411 675.958V674.438C218.611 674.438 217.411 675.538 217.411 677.978V678.758H215.991V680.258H217.411V689.718ZM223.653 689.718H225.473V678.758H223.653V689.718ZM224.593 676.978C225.253 676.978 225.793 676.438 225.793 675.738C225.793 675.038 225.253 674.498 224.593 674.498C223.893 674.498 223.353 675.038 223.353 675.738C223.353 676.438 223.893 676.978 224.593 676.978ZM230.395 683.758C230.395 681.218 231.715 680.438 233.455 680.438H233.935V678.558C232.195 678.558 231.015 679.318 230.395 680.538V678.758H228.575V689.718H230.395V683.758ZM251.856 689.718H253.656V683.258C253.656 680.118 251.716 678.558 249.216 678.558C247.536 678.558 245.976 679.418 245.336 680.998C244.616 679.358 243.116 678.558 241.316 678.558C239.876 678.558 238.576 679.178 237.856 680.338V678.758H236.036V689.718H237.856V683.678C237.856 681.318 239.116 680.138 240.956 680.138C242.756 680.138 243.956 681.278 243.956 683.518V689.718H245.756V683.678C245.756 681.318 247.016 680.138 248.856 680.138C250.656 680.138 251.856 681.278 251.856 683.518V689.718Z" fill="#D3D3D3"/>
<path d="M29.42 246.06V247.54H23.36V252.24H28.28V253.72H23.36V260H21.54V246.06H29.42ZM32.5581 247.26C32.2115 247.26 31.9181 247.14 31.6781 246.9C31.4381 246.66 31.3181 246.367 31.3181 246.02C31.3181 245.673 31.4381 245.38 31.6781 245.14C31.9181 244.9 32.2115 244.78 32.5581 244.78C32.8915 244.78 33.1715 244.9 33.3981 245.14C33.6381 245.38 33.7581 245.673 33.7581 246.02C33.7581 246.367 33.6381 246.66 33.3981 246.9C33.1715 247.14 32.8915 247.26 32.5581 247.26ZM33.4381 249.04V260H31.6181V249.04H33.4381ZM38.36 250.82C38.68 250.193 39.1333 249.707 39.72 249.36C40.32 249.013 41.0467 248.84 41.9 248.84V250.72H41.42C39.38 250.72 38.36 251.827 38.36 254.04V260H36.54V249.04H38.36V250.82ZM47.8809 260.18C47.0409 260.18 46.2876 260.04 45.6209 259.76C44.9543 259.467 44.4276 259.067 44.0409 258.56C43.6543 258.04 43.4409 257.447 43.4009 256.78H45.2809C45.3343 257.327 45.5876 257.773 46.0409 258.12C46.5076 258.467 47.1143 258.64 47.8609 258.64C48.5543 258.64 49.1009 258.487 49.5009 258.18C49.9009 257.873 50.1009 257.487 50.1009 257.02C50.1009 256.54 49.8876 256.187 49.4609 255.96C49.0343 255.72 48.3743 255.487 47.4809 255.26C46.6676 255.047 46.0009 254.833 45.4809 254.62C44.9743 254.393 44.5343 254.067 44.1609 253.64C43.8009 253.2 43.6209 252.627 43.6209 251.92C43.6209 251.36 43.7876 250.847 44.1209 250.38C44.4543 249.913 44.9276 249.547 45.5409 249.28C46.1543 249 46.8543 248.86 47.6409 248.86C48.8543 248.86 49.8343 249.167 50.5809 249.78C51.3276 250.393 51.7276 251.233 51.7809 252.3H49.9609C49.9209 251.727 49.6876 251.267 49.2609 250.92C48.8476 250.573 48.2876 250.4 47.5809 250.4C46.9276 250.4 46.4076 250.54 46.0209 250.82C45.6343 251.1 45.4409 251.467 45.4409 251.92C45.4409 252.28 45.5543 252.58 45.7809 252.82C46.0209 253.047 46.3143 253.233 46.6609 253.38C47.0209 253.513 47.5143 253.667 48.1409 253.84C48.9276 254.053 49.5676 254.267 50.0609 254.48C50.5543 254.68 50.9743 254.987 51.3209 255.4C51.6809 255.813 51.8676 256.353 51.8809 257.02C51.8809 257.62 51.7143 258.16 51.3809 258.64C51.0476 259.12 50.5743 259.5 49.9609 259.78C49.3609 260.047 48.6676 260.18 47.8809 260.18ZM56.6702 250.54V257C56.6702 257.533 56.7835 257.913 57.0102 258.14C57.2368 258.353 57.6302 258.46 58.1902 258.46H59.5302V260H57.8902C56.8768 260 56.1168 259.767 55.6102 259.3C55.1035 258.833 54.8502 258.067 54.8502 257V250.54H53.4302V249.04H54.8502V246.28H56.6702V249.04H59.5302V250.54H56.6702ZM78.0273 260H76.2073L68.8873 248.9V260H67.0673V246.04H68.8873L76.2073 257.12V246.04H78.0273V260ZM80.4498 254.48C80.4498 253.36 80.6765 252.38 81.1298 251.54C81.5832 250.687 82.2032 250.027 82.9898 249.56C83.7898 249.093 84.6765 248.86 85.6498 248.86C86.6098 248.86 87.4432 249.067 88.1498 249.48C88.8565 249.893 89.3832 250.413 89.7298 251.04V249.04H91.5698V260H89.7298V257.96C89.3698 258.6 88.8298 259.133 88.1098 259.56C87.4032 259.973 86.5765 260.18 85.6298 260.18C84.6565 260.18 83.7765 259.94 82.9898 259.46C82.2032 258.98 81.5832 258.307 81.1298 257.44C80.6765 256.573 80.4498 255.587 80.4498 254.48ZM89.7298 254.5C89.7298 253.673 89.5632 252.953 89.2298 252.34C88.8965 251.727 88.4432 251.26 87.8698 250.94C87.3098 250.607 86.6898 250.44 86.0098 250.44C85.3298 250.44 84.7098 250.6 84.1498 250.92C83.5898 251.24 83.1432 251.707 82.8098 252.32C82.4765 252.933 82.3098 253.653 82.3098 254.48C82.3098 255.32 82.4765 256.053 82.8098 256.68C83.1432 257.293 83.5898 257.767 84.1498 258.1C84.7098 258.42 85.3298 258.58 86.0098 258.58C86.6898 258.58 87.3098 258.42 87.8698 258.1C88.4432 257.767 88.8965 257.293 89.2298 256.68C89.5632 256.053 89.7298 255.327 89.7298 254.5ZM107.825 248.84C108.679 248.84 109.439 249.02 110.105 249.38C110.772 249.727 111.299 250.253 111.685 250.96C112.072 251.667 112.265 252.527 112.265 253.54V260H110.465V253.8C110.465 252.707 110.192 251.873 109.645 251.3C109.112 250.713 108.385 250.42 107.465 250.42C106.519 250.42 105.765 250.727 105.205 251.34C104.645 251.94 104.365 252.813 104.365 253.96V260H102.565V253.8C102.565 252.707 102.292 251.873 101.745 251.3C101.212 250.713 100.485 250.42 99.5655 250.42C98.6188 250.42 97.8655 250.727 97.3055 251.34C96.7455 251.94 96.4655 252.813 96.4655 253.96V260H94.6455V249.04H96.4655V250.62C96.8255 250.047 97.3055 249.607 97.9055 249.3C98.5188 248.993 99.1921 248.84 99.9255 248.84C100.845 248.84 101.659 249.047 102.365 249.46C103.072 249.873 103.599 250.48 103.945 251.28C104.252 250.507 104.759 249.907 105.465 249.48C106.172 249.053 106.959 248.84 107.825 248.84ZM125.251 254.1C125.251 254.447 125.231 254.813 125.191 255.2H116.431C116.498 256.28 116.864 257.127 117.531 257.74C118.211 258.34 119.031 258.64 119.991 258.64C120.778 258.64 121.431 258.46 121.951 258.1C122.484 257.727 122.858 257.233 123.071 256.62H125.031C124.738 257.673 124.151 258.533 123.271 259.2C122.391 259.853 121.298 260.18 119.991 260.18C118.951 260.18 118.018 259.947 117.191 259.48C116.378 259.013 115.738 258.353 115.271 257.5C114.804 256.633 114.571 255.633 114.571 254.5C114.571 253.367 114.798 252.373 115.251 251.52C115.704 250.667 116.338 250.013 117.151 249.56C117.978 249.093 118.924 248.86 119.991 248.86C121.031 248.86 121.951 249.087 122.751 249.54C123.551 249.993 124.164 250.62 124.591 251.42C125.031 252.207 125.251 253.1 125.251 254.1ZM123.371 253.72C123.371 253.027 123.218 252.433 122.911 251.94C122.604 251.433 122.184 251.053 121.651 250.8C121.131 250.533 120.551 250.4 119.911 250.4C118.991 250.4 118.204 250.693 117.551 251.28C116.911 251.867 116.544 252.68 116.451 253.72H123.371Z" fill="white"/>
<rect x="20" y="276" width="388" height="65" rx="5" fill="#A9A9A9" fill-opacity="0.28"/>
<path d="M38.54 315H40.36V308.72H45.28V307.24H40.36V302.54H46.42V301.06H38.54V315ZM48.6181 315H50.4381V304.04H48.6181V315ZM49.5581 302.26C50.2181 302.26 50.7581 301.72 50.7581 301.02C50.7581 300.32 50.2181 299.78 49.5581 299.78C48.8581 299.78 48.3181 300.32 48.3181 301.02C48.3181 301.72 48.8581 302.26 49.5581 302.26ZM55.36 309.04C55.36 306.5 56.68 305.72 58.42 305.72H58.9V303.84C57.16 303.84 55.98 304.6 55.36 305.82V304.04H53.54V315H55.36V309.04ZM68.8809 312.02C68.8009 308.1 62.4409 309.52 62.4409 306.92C62.4409 306.04 63.2409 305.4 64.5809 305.4C66.0409 305.4 66.8809 306.2 66.9609 307.3H68.7809C68.6609 305.16 67.0609 303.86 64.6409 303.86C62.2009 303.86 60.6209 305.24 60.6209 306.92C60.6209 311 67.1009 309.58 67.1009 312.02C67.1009 312.92 66.3009 313.64 64.8609 313.64C63.3209 313.64 62.3809 312.84 62.2809 311.78H60.4009C60.5209 313.78 62.3209 315.18 64.8809 315.18C67.3009 315.18 68.8809 313.82 68.8809 312.02ZM71.8502 312C71.8502 314.2 72.9502 315 74.8902 315H76.5302V313.46H75.1902C74.0702 313.46 73.6702 313.08 73.6702 312V305.54H76.5302V304.04H73.6702V301.28H71.8502V304.04H70.4302V305.54H71.8502V312ZM93.2073 301.04V312.12L85.8873 301.04H84.0673V315H85.8873V303.9L93.2073 315H95.0273V301.04H93.2073ZM97.4498 309.48C97.4498 312.88 99.7098 315.18 102.63 315.18C104.65 315.18 106.07 314.14 106.73 312.96V315H108.57V304.04H106.73V306.04C106.09 304.9 104.69 303.86 102.65 303.86C99.7098 303.86 97.4498 306.06 97.4498 309.48ZM106.73 309.5C106.73 312.08 105.01 313.58 103.01 313.58C101.01 313.58 99.3098 312.06 99.3098 309.48C99.3098 306.9 101.01 305.44 103.01 305.44C105.01 305.44 106.73 306.96 106.73 309.5ZM127.465 315H129.265V308.54C129.265 305.4 127.325 303.84 124.825 303.84C123.145 303.84 121.585 304.7 120.945 306.28C120.225 304.64 118.725 303.84 116.925 303.84C115.485 303.84 114.185 304.46 113.465 305.62V304.04H111.645V315H113.465V308.96C113.465 306.6 114.725 305.42 116.565 305.42C118.365 305.42 119.565 306.56 119.565 308.8V315H121.365V308.96C121.365 306.6 122.625 305.42 124.465 305.42C126.265 305.42 127.465 306.56 127.465 308.8V315ZM136.911 305.4C138.791 305.4 140.391 306.58 140.371 308.72H133.451C133.651 306.58 135.131 305.4 136.911 305.4ZM142.031 311.62H140.071C139.671 312.8 138.631 313.64 136.991 313.64C135.131 313.64 133.571 312.42 133.431 310.2H142.191C142.231 309.82 142.251 309.5 142.251 309.1C142.251 306.1 140.171 303.86 136.991 303.86C133.791 303.86 131.571 306.04 131.571 309.5C131.571 312.98 133.871 315.18 136.991 315.18C139.711 315.18 141.471 313.62 142.031 311.62Z" fill="#F5F5F5"/>
<rect x="21" y="400" width="386" height="63" rx="4" fill="#A9A9A9" fill-opacity="0.28" stroke="#F5F5F5" stroke-width="2"/>
<path d="M38.54 424.06V438H45.24V436.52H40.36V424.06H38.54ZM46.4928 432.48C46.4928 435.88 48.7528 438.18 51.6728 438.18C53.6928 438.18 55.1128 437.14 55.7728 435.96V438H57.6128V427.04H55.7728V429.04C55.1328 427.9 53.7328 426.86 51.6928 426.86C48.7528 426.86 46.4928 429.06 46.4928 432.48ZM55.7728 432.5C55.7728 435.08 54.0528 436.58 52.0528 436.58C50.0528 436.58 48.3528 435.06 48.3528 432.48C48.3528 429.9 50.0528 428.44 52.0528 428.44C54.0528 428.44 55.7728 429.96 55.7728 432.5ZM68.5684 435.02C68.4884 431.1 62.1284 432.52 62.1284 429.92C62.1284 429.04 62.9284 428.4 64.2684 428.4C65.7284 428.4 66.5684 429.2 66.6484 430.3H68.4684C68.3484 428.16 66.7484 426.86 64.3284 426.86C61.8884 426.86 60.3084 428.24 60.3084 429.92C60.3084 434 66.7884 432.58 66.7884 435.02C66.7884 435.92 65.9884 436.64 64.5484 436.64C63.0084 436.64 62.0684 435.84 61.9684 434.78H60.0884C60.2084 436.78 62.0084 438.18 64.5684 438.18C66.9884 438.18 68.5684 436.82 68.5684 435.02ZM71.5377 435C71.5377 437.2 72.6377 438 74.5777 438H76.2177V436.46H74.8777C73.7577 436.46 73.3577 436.08 73.3577 435V428.54H76.2177V427.04H73.3577V424.28H71.5377V427.04H70.1177V428.54H71.5377V435ZM92.8948 424.04V435.12L85.5748 424.04H83.7548V438H85.5748V426.9L92.8948 438H94.7148V424.04H92.8948ZM97.1373 432.48C97.1373 435.88 99.3973 438.18 102.317 438.18C104.337 438.18 105.757 437.14 106.417 435.96V438H108.257V427.04H106.417V429.04C105.777 427.9 104.377 426.86 102.337 426.86C99.3973 426.86 97.1373 429.06 97.1373 432.48ZM106.417 432.5C106.417 435.08 104.697 436.58 102.697 436.58C100.697 436.58 98.9973 435.06 98.9973 432.48C98.9973 429.9 100.697 428.44 102.697 428.44C104.697 428.44 106.417 429.96 106.417 432.5ZM127.153 438H128.953V431.54C128.953 428.4 127.013 426.84 124.513 426.84C122.833 426.84 121.273 427.7 120.633 429.28C119.913 427.64 118.413 426.84 116.613 426.84C115.173 426.84 113.873 427.46 113.153 428.62V427.04H111.333V438H113.153V431.96C113.153 429.6 114.413 428.42 116.253 428.42C118.053 428.42 119.253 429.56 119.253 431.8V438H121.053V431.96C121.053 429.6 122.313 428.42 124.153 428.42C125.953 428.42 127.153 429.56 127.153 431.8V438ZM136.598 428.4C138.478 428.4 140.078 429.58 140.058 431.72H133.138C133.338 429.58 134.818 428.4 136.598 428.4ZM141.718 434.62H139.758C139.358 435.8 138.318 436.64 136.678 436.64C134.818 436.64 133.258 435.42 133.118 433.2H141.878C141.918 432.82 141.938 432.5 141.938 432.1C141.938 429.1 139.858 426.86 136.678 426.86C133.478 426.86 131.258 429.04 131.258 432.5C131.258 435.98 133.558 438.18 136.678 438.18C139.398 438.18 141.158 436.62 141.718 434.62Z" fill="#F5F5F5"/>
<path d="M23.36 381.52H28.24V383H21.54V369.06H23.36V381.52ZM29.4928 377.48C29.4928 376.36 29.7195 375.38 30.1728 374.54C30.6261 373.687 31.2461 373.027 32.0328 372.56C32.8328 372.093 33.7195 371.86 34.6928 371.86C35.6528 371.86 36.4861 372.067 37.1928 372.48C37.8995 372.893 38.4261 373.413 38.7728 374.04V372.04H40.6128V383H38.7728V380.96C38.4128 381.6 37.8728 382.133 37.1528 382.56C36.4461 382.973 35.6195 383.18 34.6728 383.18C33.6995 383.18 32.8195 382.94 32.0328 382.46C31.2461 381.98 30.6261 381.307 30.1728 380.44C29.7195 379.573 29.4928 378.587 29.4928 377.48ZM38.7728 377.5C38.7728 376.673 38.6061 375.953 38.2728 375.34C37.9395 374.727 37.4861 374.26 36.9128 373.94C36.3528 373.607 35.7328 373.44 35.0528 373.44C34.3728 373.44 33.7528 373.6 33.1928 373.92C32.6328 374.24 32.1861 374.707 31.8528 375.32C31.5195 375.933 31.3528 376.653 31.3528 377.48C31.3528 378.32 31.5195 379.053 31.8528 379.68C32.1861 380.293 32.6328 380.767 33.1928 381.1C33.7528 381.42 34.3728 381.58 35.0528 381.58C35.7328 381.58 36.3528 381.42 36.9128 381.1C37.4861 380.767 37.9395 380.293 38.2728 379.68C38.6061 379.053 38.7728 378.327 38.7728 377.5ZM47.5684 383.18C46.7284 383.18 45.9751 383.04 45.3084 382.76C44.6418 382.467 44.1151 382.067 43.7284 381.56C43.3418 381.04 43.1284 380.447 43.0884 379.78H44.9684C45.0218 380.327 45.2751 380.773 45.7284 381.12C46.1951 381.467 46.8018 381.64 47.5484 381.64C48.2418 381.64 48.7884 381.487 49.1884 381.18C49.5884 380.873 49.7884 380.487 49.7884 380.02C49.7884 379.54 49.5751 379.187 49.1484 378.96C48.7218 378.72 48.0618 378.487 47.1684 378.26C46.3551 378.047 45.6884 377.833 45.1684 377.62C44.6618 377.393 44.2218 377.067 43.8484 376.64C43.4884 376.2 43.3084 375.627 43.3084 374.92C43.3084 374.36 43.4751 373.847 43.8084 373.38C44.1418 372.913 44.6151 372.547 45.2284 372.28C45.8418 372 46.5418 371.86 47.3284 371.86C48.5418 371.86 49.5218 372.167 50.2684 372.78C51.0151 373.393 51.4151 374.233 51.4684 375.3H49.6484C49.6084 374.727 49.3751 374.267 48.9484 373.92C48.5351 373.573 47.9751 373.4 47.2684 373.4C46.6151 373.4 46.0951 373.54 45.7084 373.82C45.3218 374.1 45.1284 374.467 45.1284 374.92C45.1284 375.28 45.2418 375.58 45.4684 375.82C45.7084 376.047 46.0018 376.233 46.3484 376.38C46.7084 376.513 47.2018 376.667 47.8284 376.84C48.6151 377.053 49.2551 377.267 49.7484 377.48C50.2418 377.68 50.6618 377.987 51.0084 378.4C51.3684 378.813 51.5551 379.353 51.5684 380.02C51.5684 380.62 51.4018 381.16 51.0684 381.64C50.7351 382.12 50.2618 382.5 49.6484 382.78C49.0484 383.047 48.3551 383.18 47.5684 383.18ZM56.3577 373.54V380C56.3577 380.533 56.471 380.913 56.6977 381.14C56.9243 381.353 57.3177 381.46 57.8777 381.46H59.2177V383H57.5777C56.5643 383 55.8043 382.767 55.2977 382.3C54.791 381.833 54.5377 381.067 54.5377 380V373.54H53.1177V372.04H54.5377V369.28H56.3577V372.04H59.2177V373.54H56.3577ZM77.7148 383H75.8948L68.5748 371.9V383H66.7548V369.04H68.5748L75.8948 380.12V369.04H77.7148V383ZM80.1373 377.48C80.1373 376.36 80.364 375.38 80.8173 374.54C81.2707 373.687 81.8907 373.027 82.6773 372.56C83.4773 372.093 84.364 371.86 85.3373 371.86C86.2973 371.86 87.1307 372.067 87.8373 372.48C88.544 372.893 89.0707 373.413 89.4173 374.04V372.04H91.2573V383H89.4173V380.96C89.0573 381.6 88.5173 382.133 87.7973 382.56C87.0907 382.973 86.264 383.18 85.3173 383.18C84.344 383.18 83.464 382.94 82.6773 382.46C81.8907 381.98 81.2707 381.307 80.8173 380.44C80.364 379.573 80.1373 378.587 80.1373 377.48ZM89.4173 377.5C89.4173 376.673 89.2507 375.953 88.9173 375.34C88.584 374.727 88.1307 374.26 87.5573 373.94C86.9973 373.607 86.3773 373.44 85.6973 373.44C85.0173 373.44 84.3973 373.6 83.8373 373.92C83.2773 374.24 82.8307 374.707 82.4973 375.32C82.164 375.933 81.9973 376.653 81.9973 377.48C81.9973 378.32 82.164 379.053 82.4973 379.68C82.8307 380.293 83.2773 380.767 83.8373 381.1C84.3973 381.42 85.0173 381.58 85.6973 381.58C86.3773 381.58 86.9973 381.42 87.5573 381.1C88.1307 380.767 88.584 380.293 88.9173 379.68C89.2507 379.053 89.4173 378.327 89.4173 377.5ZM107.513 371.84C108.366 371.84 109.126 372.02 109.793 372.38C110.46 372.727 110.986 373.253 111.373 373.96C111.76 374.667 111.953 375.527 111.953 376.54V383H110.153V376.8C110.153 375.707 109.88 374.873 109.333 374.3C108.8 373.713 108.073 373.42 107.153 373.42C106.206 373.42 105.453 373.727 104.893 374.34C104.333 374.94 104.053 375.813 104.053 376.96V383H102.253V376.8C102.253 375.707 101.98 374.873 101.433 374.3C100.9 373.713 100.173 373.42 99.253 373.42C98.3063 373.42 97.553 373.727 96.993 374.34C96.433 374.94 96.153 375.813 96.153 376.96V383H94.333V372.04H96.153V373.62C96.513 373.047 96.993 372.607 97.593 372.3C98.2063 371.993 98.8796 371.84 99.613 371.84C100.533 371.84 101.346 372.047 102.053 372.46C102.76 372.873 103.286 373.48 103.633 374.28C103.94 373.507 104.446 372.907 105.153 372.48C105.86 372.053 106.646 371.84 107.513 371.84ZM124.938 377.1C124.938 377.447 124.918 377.813 124.878 378.2H116.118C116.185 379.28 116.552 380.127 117.218 380.74C117.898 381.34 118.718 381.64 119.678 381.64C120.465 381.64 121.118 381.46 121.638 381.1C122.172 380.727 122.545 380.233 122.758 379.62H124.718C124.425 380.673 123.838 381.533 122.958 382.2C122.078 382.853 120.985 383.18 119.678 383.18C118.638 383.18 117.705 382.947 116.878 382.48C116.065 382.013 115.425 381.353 114.958 380.5C114.492 379.633 114.258 378.633 114.258 377.5C114.258 376.367 114.485 375.373 114.938 374.52C115.392 373.667 116.025 373.013 116.838 372.56C117.665 372.093 118.612 371.86 119.678 371.86C120.718 371.86 121.638 372.087 122.438 372.54C123.238 372.993 123.852 373.62 124.278 374.42C124.718 375.207 124.938 376.1 124.938 377.1ZM123.058 376.72C123.058 376.027 122.905 375.433 122.598 374.94C122.292 374.433 121.872 374.053 121.338 373.8C120.818 373.533 120.238 373.4 119.598 373.4C118.678 373.4 117.892 373.693 117.238 374.28C116.598 374.867 116.232 375.68 116.138 376.72H123.058Z" fill="white"/>
<path d="M150.074 793.52H145.21L144.314 796H142.778L146.81 784.912H148.49L152.506 796H150.97L150.074 793.52ZM149.658 792.336L147.642 786.704L145.626 792.336H149.658ZM155.719 788.848C156.007 788.347 156.434 787.931 156.999 787.6C157.575 787.259 158.242 787.088 158.999 787.088C159.778 787.088 160.482 787.275 161.111 787.648C161.751 788.021 162.253 788.549 162.615 789.232C162.978 789.904 163.159 790.688 163.159 791.584C163.159 792.469 162.978 793.259 162.615 793.952C162.253 794.645 161.751 795.184 161.111 795.568C160.482 795.952 159.778 796.144 158.999 796.144C158.253 796.144 157.591 795.979 157.015 795.648C156.45 795.307 156.018 794.885 155.719 794.384V800.16H154.263V787.232H155.719V788.848ZM161.671 791.584C161.671 790.923 161.538 790.347 161.271 789.856C161.005 789.365 160.642 788.992 160.183 788.736C159.735 788.48 159.239 788.352 158.695 788.352C158.162 788.352 157.666 788.485 157.207 788.752C156.759 789.008 156.397 789.387 156.119 789.888C155.853 790.379 155.719 790.949 155.719 791.6C155.719 792.261 155.853 792.843 156.119 793.344C156.397 793.835 156.759 794.213 157.207 794.48C157.666 794.736 158.162 794.864 158.695 794.864C159.239 794.864 159.735 794.736 160.183 794.48C160.642 794.213 161.005 793.835 161.271 793.344C161.538 792.843 161.671 792.256 161.671 791.584ZM166.532 788.848C166.82 788.347 167.246 787.931 167.812 787.6C168.388 787.259 169.054 787.088 169.812 787.088C170.59 787.088 171.294 787.275 171.924 787.648C172.564 788.021 173.065 788.549 173.428 789.232C173.79 789.904 173.972 790.688 173.972 791.584C173.972 792.469 173.79 793.259 173.428 793.952C173.065 794.645 172.564 795.184 171.924 795.568C171.294 795.952 170.59 796.144 169.812 796.144C169.065 796.144 168.404 795.979 167.828 795.648C167.262 795.307 166.83 794.885 166.532 794.384V800.16H165.076V787.232H166.532V788.848ZM172.484 791.584C172.484 790.923 172.35 790.347 172.084 789.856C171.817 789.365 171.454 788.992 170.996 788.736C170.548 788.48 170.052 788.352 169.508 788.352C168.974 788.352 168.478 788.485 168.02 788.752C167.572 789.008 167.209 789.387 166.932 789.888C166.665 790.379 166.532 790.949 166.532 791.6C166.532 792.261 166.665 792.843 166.932 793.344C167.209 793.835 167.572 794.213 168.02 794.48C168.478 794.736 168.974 794.864 169.508 794.864C170.052 794.864 170.548 794.736 170.996 794.48C171.454 794.213 171.817 793.835 172.084 793.344C172.35 792.843 172.484 792.256 172.484 791.584ZM177.344 788.656C177.6 788.155 177.963 787.765 178.432 787.488C178.912 787.211 179.494 787.072 180.176 787.072V788.576H179.792C178.16 788.576 177.344 789.461 177.344 791.232V796H175.888V787.232H177.344V788.656ZM185.681 796.144C184.86 796.144 184.113 795.957 183.441 795.584C182.78 795.211 182.257 794.683 181.873 794C181.5 793.307 181.313 792.507 181.313 791.6C181.313 790.704 181.505 789.915 181.889 789.232C182.284 788.539 182.817 788.011 183.489 787.648C184.161 787.275 184.913 787.088 185.745 787.088C186.577 787.088 187.329 787.275 188.001 787.648C188.673 788.011 189.201 788.533 189.585 789.216C189.98 789.899 190.177 790.693 190.177 791.6C190.177 792.507 189.974 793.307 189.569 794C189.174 794.683 188.636 795.211 187.953 795.584C187.27 795.957 186.513 796.144 185.681 796.144ZM185.681 794.864C186.204 794.864 186.694 794.741 187.153 794.496C187.612 794.251 187.98 793.883 188.257 793.392C188.545 792.901 188.689 792.304 188.689 791.6C188.689 790.896 188.55 790.299 188.273 789.808C187.996 789.317 187.633 788.955 187.185 788.72C186.737 788.475 186.252 788.352 185.729 788.352C185.196 788.352 184.705 788.475 184.257 788.72C183.82 788.955 183.468 789.317 183.201 789.808C182.934 790.299 182.801 790.896 182.801 791.6C182.801 792.315 182.929 792.917 183.185 793.408C183.452 793.899 183.804 794.267 184.241 794.512C184.678 794.747 185.158 794.864 185.681 794.864ZM195.355 794.656L198.075 787.232H199.627L196.187 796H194.491L191.051 787.232H192.619L195.355 794.656ZM209.06 791.28C209.06 791.557 209.044 791.851 209.012 792.16H202.004C202.057 793.024 202.351 793.701 202.884 794.192C203.428 794.672 204.084 794.912 204.852 794.912C205.481 794.912 206.004 794.768 206.42 794.48C206.847 794.181 207.145 793.787 207.316 793.296H208.884C208.649 794.139 208.18 794.827 207.476 795.36C206.772 795.883 205.897 796.144 204.852 796.144C204.02 796.144 203.273 795.957 202.612 795.584C201.961 795.211 201.449 794.683 201.076 794C200.703 793.307 200.516 792.507 200.516 791.6C200.516 790.693 200.697 789.899 201.06 789.216C201.423 788.533 201.929 788.011 202.58 787.648C203.241 787.275 203.999 787.088 204.852 787.088C205.684 787.088 206.42 787.269 207.06 787.632C207.7 787.995 208.191 788.496 208.532 789.136C208.884 789.765 209.06 790.48 209.06 791.28ZM207.556 790.976C207.556 790.421 207.433 789.947 207.188 789.552C206.943 789.147 206.607 788.843 206.18 788.64C205.764 788.427 205.3 788.32 204.788 788.32C204.052 788.32 203.423 788.555 202.9 789.024C202.388 789.493 202.095 790.144 202.02 790.976H207.556ZM214.704 790.416C214.704 789.328 214.949 788.352 215.44 787.488C215.93 786.613 216.597 785.931 217.44 785.44C218.293 784.949 219.237 784.704 220.272 784.704C221.488 784.704 222.549 784.997 223.456 785.584C224.362 786.171 225.024 787.003 225.44 788.08H223.696C223.386 787.408 222.938 786.891 222.352 786.528C221.776 786.165 221.082 785.984 220.272 785.984C219.493 785.984 218.794 786.165 218.176 786.528C217.557 786.891 217.072 787.408 216.72 788.08C216.368 788.741 216.192 789.52 216.192 790.416C216.192 791.301 216.368 792.08 216.72 792.752C217.072 793.413 217.557 793.925 218.176 794.288C218.794 794.651 219.493 794.832 220.272 794.832C221.082 794.832 221.776 794.656 222.352 794.304C222.938 793.941 223.386 793.424 223.696 792.752H225.44C225.024 793.819 224.362 794.645 223.456 795.232C222.549 795.808 221.488 796.096 220.272 796.096C219.237 796.096 218.293 795.856 217.44 795.376C216.597 794.885 215.93 794.208 215.44 793.344C214.949 792.48 214.704 791.504 214.704 790.416ZM231.959 787.072C232.62 787.072 233.218 787.216 233.751 787.504C234.284 787.781 234.7 788.203 234.999 788.768C235.308 789.333 235.463 790.021 235.463 790.832V796H234.023V791.04C234.023 790.165 233.804 789.499 233.367 789.04C232.93 788.571 232.332 788.336 231.575 788.336C230.807 788.336 230.194 788.576 229.735 789.056C229.287 789.536 229.063 790.235 229.063 791.152V796H227.607V784.16H229.063V788.48C229.351 788.032 229.746 787.685 230.247 787.44C230.759 787.195 231.33 787.072 231.959 787.072ZM237.297 791.584C237.297 790.688 237.479 789.904 237.841 789.232C238.204 788.549 238.7 788.021 239.329 787.648C239.969 787.275 240.679 787.088 241.457 787.088C242.225 787.088 242.892 787.253 243.457 787.584C244.023 787.915 244.444 788.331 244.721 788.832V787.232H246.193V796H244.721V794.368C244.433 794.88 244.001 795.307 243.425 795.648C242.86 795.979 242.199 796.144 241.441 796.144C240.663 796.144 239.959 795.952 239.329 795.568C238.7 795.184 238.204 794.645 237.841 793.952C237.479 793.259 237.297 792.469 237.297 791.584ZM244.721 791.6C244.721 790.939 244.588 790.363 244.321 789.872C244.055 789.381 243.692 789.008 243.233 788.752C242.785 788.485 242.289 788.352 241.745 788.352C241.201 788.352 240.705 788.48 240.257 788.736C239.809 788.992 239.452 789.365 239.185 789.856C238.919 790.347 238.785 790.923 238.785 791.584C238.785 792.256 238.919 792.843 239.185 793.344C239.452 793.835 239.809 794.213 240.257 794.48C240.705 794.736 241.201 794.864 241.745 794.864C242.289 794.864 242.785 794.736 243.233 794.48C243.692 794.213 244.055 793.835 244.321 793.344C244.588 792.843 244.721 792.261 244.721 791.6ZM252.926 787.072C253.993 787.072 254.857 787.397 255.518 788.048C256.179 788.688 256.51 789.616 256.51 790.832V796H255.07V791.04C255.07 790.165 254.851 789.499 254.414 789.04C253.977 788.571 253.379 788.336 252.622 788.336C251.854 788.336 251.241 788.576 250.782 789.056C250.334 789.536 250.11 790.235 250.11 791.152V796H248.654V787.232H250.11V788.48C250.398 788.032 250.787 787.685 251.278 787.44C251.779 787.195 252.329 787.072 252.926 787.072ZM262.504 787.088C263.262 787.088 263.923 787.253 264.488 787.584C265.064 787.915 265.491 788.331 265.768 788.832V787.232H267.24V796.192C267.24 796.992 267.07 797.701 266.728 798.32C266.387 798.949 265.896 799.44 265.256 799.792C264.627 800.144 263.891 800.32 263.048 800.32C261.896 800.32 260.936 800.048 260.168 799.504C259.4 798.96 258.947 798.219 258.808 797.28H260.248C260.408 797.813 260.739 798.24 261.24 798.56C261.742 798.891 262.344 799.056 263.048 799.056C263.848 799.056 264.499 798.805 265 798.304C265.512 797.803 265.768 797.099 265.768 796.192V794.352C265.48 794.864 265.054 795.291 264.488 795.632C263.923 795.973 263.262 796.144 262.504 796.144C261.726 796.144 261.016 795.952 260.376 795.568C259.747 795.184 259.251 794.645 258.888 793.952C258.526 793.259 258.344 792.469 258.344 791.584C258.344 790.688 258.526 789.904 258.888 789.232C259.251 788.549 259.747 788.021 260.376 787.648C261.016 787.275 261.726 787.088 262.504 787.088ZM265.768 791.6C265.768 790.939 265.635 790.363 265.368 789.872C265.102 789.381 264.739 789.008 264.28 788.752C263.832 788.485 263.336 788.352 262.792 788.352C262.248 788.352 261.752 788.48 261.304 788.736C260.856 788.992 260.499 789.365 260.232 789.856C259.966 790.347 259.832 790.923 259.832 791.584C259.832 792.256 259.966 792.843 260.232 793.344C260.499 793.835 260.856 794.213 261.304 794.48C261.752 794.736 262.248 794.864 262.792 794.864C263.336 794.864 263.832 794.736 264.28 794.48C264.739 794.213 265.102 793.835 265.368 793.344C265.635 792.843 265.768 792.261 265.768 791.6ZM277.701 791.28C277.701 791.557 277.685 791.851 277.653 792.16H270.645C270.698 793.024 270.991 793.701 271.525 794.192C272.069 794.672 272.725 794.912 273.493 794.912C274.122 794.912 274.645 794.768 275.061 794.48C275.487 794.181 275.786 793.787 275.957 793.296H277.525C277.29 794.139 276.821 794.827 276.117 795.36C275.413 795.883 274.538 796.144 273.493 796.144C272.661 796.144 271.914 795.957 271.253 795.584C270.602 795.211 270.09 794.683 269.717 794C269.343 793.307 269.157 792.507 269.157 791.6C269.157 790.693 269.338 789.899 269.701 789.216C270.063 788.533 270.57 788.011 271.221 787.648C271.882 787.275 272.639 787.088 273.493 787.088C274.325 787.088 275.061 787.269 275.701 787.632C276.341 787.995 276.831 788.496 277.173 789.136C277.525 789.765 277.701 790.48 277.701 791.28ZM276.197 790.976C276.197 790.421 276.074 789.947 275.829 789.552C275.583 789.147 275.247 788.843 274.821 788.64C274.405 788.427 273.941 788.32 273.429 788.32C272.693 788.32 272.063 788.555 271.541 789.024C271.029 789.493 270.735 790.144 270.661 790.976H276.197ZM282.727 796.144C282.055 796.144 281.452 796.032 280.919 795.808C280.385 795.573 279.964 795.253 279.655 794.848C279.345 794.432 279.175 793.957 279.143 793.424H280.647C280.689 793.861 280.892 794.219 281.255 794.496C281.628 794.773 282.113 794.912 282.711 794.912C283.265 794.912 283.703 794.789 284.023 794.544C284.343 794.299 284.503 793.989 284.503 793.616C284.503 793.232 284.332 792.949 283.991 792.768C283.649 792.576 283.121 792.389 282.407 792.208C281.756 792.037 281.223 791.867 280.807 791.696C280.401 791.515 280.049 791.253 279.751 790.912C279.463 790.56 279.319 790.101 279.319 789.536C279.319 789.088 279.452 788.677 279.719 788.304C279.985 787.931 280.364 787.637 280.855 787.424C281.345 787.2 281.905 787.088 282.535 787.088C283.505 787.088 284.289 787.333 284.887 787.824C285.484 788.315 285.804 788.987 285.847 789.84H284.391C284.359 789.381 284.172 789.013 283.831 788.736C283.5 788.459 283.052 788.32 282.487 788.32C281.964 788.32 281.548 788.432 281.239 788.656C280.929 788.88 280.775 789.173 280.775 789.536C280.775 789.824 280.865 790.064 281.047 790.256C281.239 790.437 281.473 790.587 281.751 790.704C282.039 790.811 282.433 790.933 282.935 791.072C283.564 791.243 284.076 791.413 284.471 791.584C284.865 791.744 285.201 791.989 285.479 792.32C285.767 792.651 285.916 793.083 285.927 793.616C285.927 794.096 285.793 794.528 285.527 794.912C285.26 795.296 284.881 795.6 284.391 795.824C283.911 796.037 283.356 796.144 282.727 796.144Z" fill="white"/>
<path d="M177.24 112.984C177.24 107.344 168.912 108.664 168.912 105.736C168.912 104.68 169.656 104.176 170.64 104.2C171.744 104.224 172.512 104.872 172.584 105.952H177.024C176.856 102.736 174.384 100.912 170.712 100.912C167.184 100.912 164.568 102.688 164.568 105.88C164.52 111.856 172.944 110.176 172.944 113.296C172.944 114.28 172.176 114.88 170.976 114.88C169.824 114.88 169.008 114.256 168.888 112.96H164.52C164.64 116.368 167.472 118.168 171.096 118.168C175.032 118.168 177.24 115.816 177.24 112.984ZM185.669 107.704C187.037 107.704 188.189 108.544 188.189 110.008H183.053C183.293 108.52 184.325 107.704 185.669 107.704ZM192.077 113.56H187.709C187.373 114.28 186.725 114.856 185.573 114.856C184.253 114.856 183.173 114.04 183.029 112.288H192.317C192.365 111.88 192.389 111.472 192.389 111.088C192.389 107.008 189.629 104.416 185.717 104.416C181.733 104.416 178.949 107.056 178.949 111.304C178.949 115.552 181.781 118.192 185.717 118.192C189.053 118.192 191.429 116.176 192.077 113.56ZM195.202 113.344C195.202 116.824 197.146 118 199.93 118H202.018V114.52H200.554C199.642 114.52 199.306 114.184 199.306 113.392V108.016H201.994V104.608H199.306V101.344H195.202V104.608H193.57V108.016H195.202V113.344ZM204.952 113.344C204.952 116.824 206.896 118 209.68 118H211.768V114.52H210.304C209.392 114.52 209.056 114.184 209.056 113.392V108.016H211.744V104.608H209.056V101.344H204.952V104.608H203.32V108.016H204.952V113.344ZM214.054 118H218.158V104.608H214.054V118ZM216.118 103.216C217.558 103.216 218.542 102.232 218.542 101.008C218.542 99.76 217.558 98.776 216.118 98.776C214.654 98.776 213.67 99.76 213.67 101.008C213.67 102.232 214.654 103.216 216.118 103.216ZM230.373 118H234.453V110.176C234.453 106.576 232.389 104.464 229.293 104.464C227.493 104.464 226.053 105.256 225.237 106.384V104.608H221.133V118H225.237V110.728C225.237 108.904 226.245 107.896 227.805 107.896C229.365 107.896 230.373 108.904 230.373 110.728V118ZM236.488 111.28C236.488 115.504 239.104 118.192 242.392 118.192C244.36 118.192 245.776 117.256 246.52 116.08V117.976C246.52 120.232 245.296 121.048 243.736 121.048C242.32 121.048 241.312 120.4 241.048 119.392H236.992C237.352 122.584 239.944 124.6 243.928 124.6C248.56 124.6 250.624 121.552 250.624 117.976V104.608H246.52V106.504C245.8 105.304 244.36 104.416 242.392 104.416C239.104 104.416 236.488 107.056 236.488 111.28ZM246.52 111.304C246.52 113.44 245.152 114.616 243.592 114.616C242.056 114.616 240.664 113.416 240.664 111.28C240.664 109.144 242.056 107.992 243.592 107.992C245.152 107.992 246.52 109.168 246.52 111.304ZM264.465 114.112C264.393 109.12 257.145 110.632 257.145 108.496C257.145 107.848 257.673 107.464 258.633 107.464C259.785 107.464 260.481 108.064 260.601 108.976H264.393C264.129 106.336 262.209 104.416 258.753 104.416C255.249 104.416 253.305 106.288 253.305 108.568C253.305 113.488 260.601 111.928 260.601 114.088C260.601 114.688 260.049 115.168 258.993 115.168C257.865 115.168 257.025 114.544 256.929 113.608H252.873C253.065 116.2 255.465 118.192 259.041 118.192C262.401 118.192 264.465 116.44 264.465 114.112Z" fill="white"/>
<circle cx="45.5" cy="106.5" r="22" stroke="#8C20BF" stroke-width="3"/>
<path d="M55.414 104.707H40.828L46.121 99.414L44.707 98L37 105.707L44.707 113.414L46.121 112L40.828 106.707H55.414V104.707Z" fill="white"/>
<circle cx="45.5" cy="106.5" r="22" stroke="#F5F5F5" stroke-width="3"/>
<path d="M55.414 104.707H40.828L46.121 99.414L44.707 98L37 105.707L44.707 113.414L46.121 112L40.828 106.707H55.414V104.707Z" fill="white"/>
<rect x="21" y="523" width="386" height="63" rx="4" fill="#A9A9A9" fill-opacity="0.28" stroke="#F5F5F5" stroke-width="2"/>
<path d="M38.54 547.06V561H45.24V559.52H40.36V547.06H38.54ZM46.4928 555.48C46.4928 558.88 48.7528 561.18 51.6728 561.18C53.6928 561.18 55.1128 560.14 55.7728 558.96V561H57.6128V550.04H55.7728V552.04C55.1328 550.9 53.7328 549.86 51.6928 549.86C48.7528 549.86 46.4928 552.06 46.4928 555.48ZM55.7728 555.5C55.7728 558.08 54.0528 559.58 52.0528 559.58C50.0528 559.58 48.3528 558.06 48.3528 555.48C48.3528 552.9 50.0528 551.44 52.0528 551.44C54.0528 551.44 55.7728 552.96 55.7728 555.5ZM68.5684 558.02C68.4884 554.1 62.1284 555.52 62.1284 552.92C62.1284 552.04 62.9284 551.4 64.2684 551.4C65.7284 551.4 66.5684 552.2 66.6484 553.3H68.4684C68.3484 551.16 66.7484 549.86 64.3284 549.86C61.8884 549.86 60.3084 551.24 60.3084 552.92C60.3084 557 66.7884 555.58 66.7884 558.02C66.7884 558.92 65.9884 559.64 64.5484 559.64C63.0084 559.64 62.0684 558.84 61.9684 557.78H60.0884C60.2084 559.78 62.0084 561.18 64.5684 561.18C66.9884 561.18 68.5684 559.82 68.5684 558.02ZM71.5377 558C71.5377 560.2 72.6377 561 74.5777 561H76.2177V559.46H74.8777C73.7577 559.46 73.3577 559.08 73.3577 558V551.54H76.2177V550.04H73.3577V547.28H71.5377V550.04H70.1177V551.54H71.5377V558ZM92.8948 547.04V558.12L85.5748 547.04H83.7548V561H85.5748V549.9L92.8948 561H94.7148V547.04H92.8948ZM97.1373 555.48C97.1373 558.88 99.3973 561.18 102.317 561.18C104.337 561.18 105.757 560.14 106.417 558.96V561H108.257V550.04H106.417V552.04C105.777 550.9 104.377 549.86 102.337 549.86C99.3973 549.86 97.1373 552.06 97.1373 555.48ZM106.417 555.5C106.417 558.08 104.697 559.58 102.697 559.58C100.697 559.58 98.9973 558.06 98.9973 555.48C98.9973 552.9 100.697 551.44 102.697 551.44C104.697 551.44 106.417 552.96 106.417 555.5ZM127.153 561H128.953V554.54C128.953 551.4 127.013 549.84 124.513 549.84C122.833 549.84 121.273 550.7 120.633 552.28C119.913 550.64 118.413 549.84 116.613 549.84C115.173 549.84 113.873 550.46 113.153 551.62V550.04H111.333V561H113.153V554.96C113.153 552.6 114.413 551.42 116.253 551.42C118.053 551.42 119.253 552.56 119.253 554.8V561H121.053V554.96C121.053 552.6 122.313 551.42 124.153 551.42C125.953 551.42 127.153 552.56 127.153 554.8V561ZM136.598 551.4C138.478 551.4 140.078 552.58 140.058 554.72H133.138C133.338 552.58 134.818 551.4 136.598 551.4ZM141.718 557.62H139.758C139.358 558.8 138.318 559.64 136.678 559.64C134.818 559.64 133.258 558.42 133.118 556.2H141.878C141.918 555.82 141.938 555.5 141.938 555.1C141.938 552.1 139.858 549.86 136.678 549.86C133.478 549.86 131.258 552.04 131.258 555.5C131.258 558.98 133.558 561.18 136.678 561.18C139.398 561.18 141.158 559.62 141.718 557.62Z" fill="#F5F5F5"/>
<path d="M20.86 499.02C20.86 497.66 21.1667 496.44 21.78 495.36C22.3933 494.267 23.2267 493.413 24.28 492.8C25.3467 492.187 26.5267 491.88 27.82 491.88C29.34 491.88 30.6667 492.247 31.8 492.98C32.9333 493.713 33.76 494.753 34.28 496.1H32.1C31.7133 495.26 31.1533 494.613 30.42 494.16C29.7 493.707 28.8333 493.48 27.82 493.48C26.8467 493.48 25.9733 493.707 25.2 494.16C24.4267 494.613 23.82 495.26 23.38 496.1C22.94 496.927 22.72 497.9 22.72 499.02C22.72 500.127 22.94 501.1 23.38 501.94C23.82 502.767 24.4267 503.407 25.2 503.86C25.9733 504.313 26.8467 504.54 27.82 504.54C28.8333 504.54 29.7 504.32 30.42 503.88C31.1533 503.427 31.7133 502.78 32.1 501.94H34.28C33.76 503.273 32.9333 504.307 31.8 505.04C30.6667 505.76 29.34 506.12 27.82 506.12C26.5267 506.12 25.3467 505.82 24.28 505.22C23.2267 504.607 22.3933 503.76 21.78 502.68C21.1667 501.6 20.86 500.38 20.86 499.02ZM42.4292 494.84C43.2559 494.84 44.0026 495.02 44.6692 495.38C45.3359 495.727 45.8559 496.253 46.2292 496.96C46.6159 497.667 46.8092 498.527 46.8092 499.54V506H45.0092V499.8C45.0092 498.707 44.7359 497.873 44.1892 497.3C43.6426 496.713 42.8959 496.42 41.9492 496.42C40.9892 496.42 40.2226 496.72 39.6492 497.32C39.0892 497.92 38.8092 498.793 38.8092 499.94V506H36.9892V491.2H38.8092V496.6C39.1692 496.04 39.6626 495.607 40.2892 495.3C40.9292 494.993 41.6426 494.84 42.4292 494.84ZM49.1022 500.48C49.1022 499.36 49.3289 498.38 49.7822 497.54C50.2355 496.687 50.8555 496.027 51.6422 495.56C52.4422 495.093 53.3289 494.86 54.3022 494.86C55.2622 494.86 56.0955 495.067 56.8022 495.48C57.5089 495.893 58.0355 496.413 58.3822 497.04V495.04H60.2222V506H58.3822V503.96C58.0222 504.6 57.4822 505.133 56.7622 505.56C56.0555 505.973 55.2289 506.18 54.2822 506.18C53.3089 506.18 52.4289 505.94 51.6422 505.46C50.8555 504.98 50.2355 504.307 49.7822 503.44C49.3289 502.573 49.1022 501.587 49.1022 500.48ZM58.3822 500.5C58.3822 499.673 58.2155 498.953 57.8822 498.34C57.5489 497.727 57.0955 497.26 56.5222 496.94C55.9622 496.607 55.3422 496.44 54.6622 496.44C53.9822 496.44 53.3622 496.6 52.8022 496.92C52.2422 497.24 51.7955 497.707 51.4622 498.32C51.1289 498.933 50.9622 499.653 50.9622 500.48C50.9622 501.32 51.1289 502.053 51.4622 502.68C51.7955 503.293 52.2422 503.767 52.8022 504.1C53.3622 504.42 53.9822 504.58 54.6622 504.58C55.3422 504.58 55.9622 504.42 56.5222 504.1C57.0955 503.767 57.5489 503.293 57.8822 502.68C58.2155 502.053 58.3822 501.327 58.3822 500.5ZM68.6378 494.84C69.9711 494.84 71.0511 495.247 71.8778 496.06C72.7045 496.86 73.1178 498.02 73.1178 499.54V506H71.3178V499.8C71.3178 498.707 71.0445 497.873 70.4978 497.3C69.9511 496.713 69.2045 496.42 68.2578 496.42C67.2978 496.42 66.5311 496.72 65.9578 497.32C65.3978 497.92 65.1178 498.793 65.1178 499.94V506H63.2978V495.04H65.1178V496.6C65.4778 496.04 65.9645 495.607 66.5778 495.3C67.2045 494.993 67.8911 494.84 68.6378 494.84ZM80.6108 494.86C81.5574 494.86 82.3841 495.067 83.0908 495.48C83.8108 495.893 84.3441 496.413 84.6908 497.04V495.04H86.5308V506.24C86.5308 507.24 86.3174 508.127 85.8908 508.9C85.4641 509.687 84.8508 510.3 84.0508 510.74C83.2641 511.18 82.3441 511.4 81.2908 511.4C79.8508 511.4 78.6508 511.06 77.6908 510.38C76.7308 509.7 76.1641 508.773 75.9908 507.6H77.7908C77.9908 508.267 78.4041 508.8 79.0308 509.2C79.6574 509.613 80.4108 509.82 81.2908 509.82C82.2908 509.82 83.1041 509.507 83.7308 508.88C84.3708 508.253 84.6908 507.373 84.6908 506.24V503.94C84.3308 504.58 83.7974 505.113 83.0908 505.54C82.3841 505.967 81.5574 506.18 80.6108 506.18C79.6374 506.18 78.7508 505.94 77.9508 505.46C77.1641 504.98 76.5441 504.307 76.0908 503.44C75.6374 502.573 75.4108 501.587 75.4108 500.48C75.4108 499.36 75.6374 498.38 76.0908 497.54C76.5441 496.687 77.1641 496.027 77.9508 495.56C78.7508 495.093 79.6374 494.86 80.6108 494.86ZM84.6908 500.5C84.6908 499.673 84.5241 498.953 84.1908 498.34C83.8574 497.727 83.4041 497.26 82.8308 496.94C82.2708 496.607 81.6508 496.44 80.9708 496.44C80.2908 496.44 79.6708 496.6 79.1108 496.92C78.5508 497.24 78.1041 497.707 77.7708 498.32C77.4374 498.933 77.2708 499.653 77.2708 500.48C77.2708 501.32 77.4374 502.053 77.7708 502.68C78.1041 503.293 78.5508 503.767 79.1108 504.1C79.6708 504.42 80.2908 504.58 80.9708 504.58C81.6508 504.58 82.2708 504.42 82.8308 504.1C83.4041 503.767 83.8574 503.293 84.1908 502.68C84.5241 502.053 84.6908 501.327 84.6908 500.5ZM99.6064 500.1C99.6064 500.447 99.5864 500.813 99.5464 501.2H90.7864C90.8531 502.28 91.2197 503.127 91.8864 503.74C92.5664 504.34 93.3864 504.64 94.3464 504.64C95.1331 504.64 95.7864 504.46 96.3064 504.1C96.8397 503.727 97.2131 503.233 97.4264 502.62H99.3864C99.0931 503.673 98.5064 504.533 97.6264 505.2C96.7464 505.853 95.6531 506.18 94.3464 506.18C93.3064 506.18 92.3731 505.947 91.5464 505.48C90.7331 505.013 90.0931 504.353 89.6264 503.5C89.1597 502.633 88.9264 501.633 88.9264 500.5C88.9264 499.367 89.1531 498.373 89.6064 497.52C90.0597 496.667 90.6931 496.013 91.5064 495.56C92.3331 495.093 93.2797 494.86 94.3464 494.86C95.3864 494.86 96.3064 495.087 97.1064 495.54C97.9064 495.993 98.5197 496.62 98.9464 497.42C99.3864 498.207 99.6064 499.1 99.6064 500.1ZM97.7264 499.72C97.7264 499.027 97.5731 498.433 97.2664 497.94C96.9597 497.433 96.5397 497.053 96.0064 496.8C95.4864 496.533 94.9064 496.4 94.2664 496.4C93.3464 496.4 92.5597 496.693 91.9064 497.28C91.2664 497.867 90.8997 498.68 90.8064 499.72H97.7264ZM109.161 493.54V498.2H114.241V499.7H109.161V504.5H114.841V506H107.341V492.04H114.841V493.54H109.161ZM130.775 494.84C131.628 494.84 132.388 495.02 133.055 495.38C133.721 495.727 134.248 496.253 134.635 496.96C135.021 497.667 135.215 498.527 135.215 499.54V506H133.415V499.8C133.415 498.707 133.141 497.873 132.595 497.3C132.061 496.713 131.335 496.42 130.415 496.42C129.468 496.42 128.715 496.727 128.155 497.34C127.595 497.94 127.315 498.813 127.315 499.96V506H125.515V499.8C125.515 498.707 125.241 497.873 124.695 497.3C124.161 496.713 123.435 496.42 122.515 496.42C121.568 496.42 120.815 496.727 120.255 497.34C119.695 497.94 119.415 498.813 119.415 499.96V506H117.595V495.04H119.415V496.62C119.775 496.047 120.255 495.607 120.855 495.3C121.468 494.993 122.141 494.84 122.875 494.84C123.795 494.84 124.608 495.047 125.315 495.46C126.021 495.873 126.548 496.48 126.895 497.28C127.201 496.507 127.708 495.907 128.415 495.48C129.121 495.053 129.908 494.84 130.775 494.84ZM137.52 500.48C137.52 499.36 137.747 498.38 138.2 497.54C138.653 496.687 139.273 496.027 140.06 495.56C140.86 495.093 141.747 494.86 142.72 494.86C143.68 494.86 144.513 495.067 145.22 495.48C145.927 495.893 146.453 496.413 146.8 497.04V495.04H148.64V506H146.8V503.96C146.44 504.6 145.9 505.133 145.18 505.56C144.473 505.973 143.647 506.18 142.7 506.18C141.727 506.18 140.847 505.94 140.06 505.46C139.273 504.98 138.653 504.307 138.2 503.44C137.747 502.573 137.52 501.587 137.52 500.48ZM146.8 500.5C146.8 499.673 146.633 498.953 146.3 498.34C145.967 497.727 145.513 497.26 144.94 496.94C144.38 496.607 143.76 496.44 143.08 496.44C142.4 496.44 141.78 496.6 141.22 496.92C140.66 497.24 140.213 497.707 139.88 498.32C139.547 498.933 139.38 499.653 139.38 500.48C139.38 501.32 139.547 502.053 139.88 502.68C140.213 503.293 140.66 503.767 141.22 504.1C141.78 504.42 142.4 504.58 143.08 504.58C143.76 504.58 144.38 504.42 144.94 504.1C145.513 503.767 145.967 503.293 146.3 502.68C146.633 502.053 146.8 501.327 146.8 500.5ZM152.656 493.26C152.309 493.26 152.016 493.14 151.776 492.9C151.536 492.66 151.416 492.367 151.416 492.02C151.416 491.673 151.536 491.38 151.776 491.14C152.016 490.9 152.309 490.78 152.656 490.78C152.989 490.78 153.269 490.9 153.496 491.14C153.736 491.38 153.856 491.673 153.856 492.02C153.856 492.367 153.736 492.66 153.496 492.9C153.269 493.14 152.989 493.26 152.656 493.26ZM153.536 495.04V506H151.716V495.04H153.536ZM158.458 491.2V506H156.638V491.2H158.458ZM166.212 500.48C166.212 499.36 166.438 498.38 166.892 497.54C167.345 496.687 167.965 496.027 168.752 495.56C169.552 495.093 170.438 494.86 171.412 494.86C172.372 494.86 173.205 495.067 173.912 495.48C174.618 495.893 175.145 496.413 175.492 497.04V495.04H177.332V506H175.492V503.96C175.132 504.6 174.592 505.133 173.872 505.56C173.165 505.973 172.338 506.18 171.392 506.18C170.418 506.18 169.538 505.94 168.752 505.46C167.965 504.98 167.345 504.307 166.892 503.44C166.438 502.573 166.212 501.587 166.212 500.48ZM175.492 500.5C175.492 499.673 175.325 498.953 174.992 498.34C174.658 497.727 174.205 497.26 173.632 496.94C173.072 496.607 172.452 496.44 171.772 496.44C171.092 496.44 170.472 496.6 169.912 496.92C169.352 497.24 168.905 497.707 168.572 498.32C168.238 498.933 168.072 499.653 168.072 500.48C168.072 501.32 168.238 502.053 168.572 502.68C168.905 503.293 169.352 503.767 169.912 504.1C170.472 504.42 171.092 504.58 171.772 504.58C172.452 504.58 173.072 504.42 173.632 504.1C174.205 503.767 174.658 503.293 174.992 502.68C175.325 502.053 175.492 501.327 175.492 500.5ZM179.727 500.48C179.727 499.36 179.954 498.38 180.407 497.54C180.861 496.687 181.481 496.027 182.267 495.56C183.067 495.093 183.961 494.86 184.947 494.86C185.801 494.86 186.594 495.06 187.327 495.46C188.061 495.847 188.621 496.36 189.007 497V491.2H190.847V506H189.007V503.94C188.647 504.593 188.114 505.133 187.407 505.56C186.701 505.973 185.874 506.18 184.927 506.18C183.954 506.18 183.067 505.94 182.267 505.46C181.481 504.98 180.861 504.307 180.407 503.44C179.954 502.573 179.727 501.587 179.727 500.48ZM189.007 500.5C189.007 499.673 188.841 498.953 188.507 498.34C188.174 497.727 187.721 497.26 187.147 496.94C186.587 496.607 185.967 496.44 185.287 496.44C184.607 496.44 183.987 496.6 183.427 496.92C182.867 497.24 182.421 497.707 182.087 498.32C181.754 498.933 181.587 499.653 181.587 500.48C181.587 501.32 181.754 502.053 182.087 502.68C182.421 503.293 182.867 503.767 183.427 504.1C183.987 504.42 184.607 504.58 185.287 504.58C185.967 504.58 186.587 504.42 187.147 504.1C187.721 503.767 188.174 503.293 188.507 502.68C188.841 502.053 189.007 501.327 189.007 500.5ZM193.243 500.48C193.243 499.36 193.469 498.38 193.923 497.54C194.376 496.687 194.996 496.027 195.783 495.56C196.583 495.093 197.476 494.86 198.463 494.86C199.316 494.86 200.109 495.06 200.843 495.46C201.576 495.847 202.136 496.36 202.523 497V491.2H204.363V506H202.523V503.94C202.163 504.593 201.629 505.133 200.923 505.56C200.216 505.973 199.389 506.18 198.443 506.18C197.469 506.18 196.583 505.94 195.783 505.46C194.996 504.98 194.376 504.307 193.923 503.44C193.469 502.573 193.243 501.587 193.243 500.48ZM202.523 500.5C202.523 499.673 202.356 498.953 202.023 498.34C201.689 497.727 201.236 497.26 200.663 496.94C200.103 496.607 199.483 496.44 198.803 496.44C198.123 496.44 197.503 496.6 196.943 496.92C196.383 497.24 195.936 497.707 195.603 498.32C195.269 498.933 195.103 499.653 195.103 500.48C195.103 501.32 195.269 502.053 195.603 502.68C195.936 503.293 196.383 503.767 196.943 504.1C197.503 504.42 198.123 504.58 198.803 504.58C199.483 504.58 200.103 504.42 200.663 504.1C201.236 503.767 201.689 503.293 202.023 502.68C202.356 502.053 202.523 501.327 202.523 500.5ZM209.258 496.82C209.578 496.193 210.032 495.707 210.618 495.36C211.218 495.013 211.945 494.84 212.798 494.84V496.72H212.318C210.278 496.72 209.258 497.827 209.258 500.04V506H207.438V495.04H209.258V496.82ZM224.899 500.1C224.899 500.447 224.879 500.813 224.839 501.2H216.079C216.146 502.28 216.513 503.127 217.179 503.74C217.859 504.34 218.679 504.64 219.639 504.64C220.426 504.64 221.079 504.46 221.599 504.1C222.133 503.727 222.506 503.233 222.719 502.62H224.679C224.386 503.673 223.799 504.533 222.919 505.2C222.039 505.853 220.946 506.18 219.639 506.18C218.599 506.18 217.666 505.947 216.839 505.48C216.026 505.013 215.386 504.353 214.919 503.5C214.453 502.633 214.219 501.633 214.219 500.5C214.219 499.367 214.446 498.373 214.899 497.52C215.353 496.667 215.986 496.013 216.799 495.56C217.626 495.093 218.573 494.86 219.639 494.86C220.679 494.86 221.599 495.087 222.399 495.54C223.199 495.993 223.813 496.62 224.239 497.42C224.679 498.207 224.899 499.1 224.899 500.1ZM223.019 499.72C223.019 499.027 222.866 498.433 222.559 497.94C222.253 497.433 221.833 497.053 221.299 496.8C220.779 496.533 220.199 496.4 219.559 496.4C218.639 496.4 217.853 496.693 217.199 497.28C216.559 497.867 216.193 498.68 216.099 499.72H223.019ZM231.182 506.18C230.342 506.18 229.588 506.04 228.922 505.76C228.255 505.467 227.728 505.067 227.342 504.56C226.955 504.04 226.742 503.447 226.702 502.78H228.582C228.635 503.327 228.888 503.773 229.342 504.12C229.808 504.467 230.415 504.64 231.162 504.64C231.855 504.64 232.402 504.487 232.802 504.18C233.202 503.873 233.402 503.487 233.402 503.02C233.402 502.54 233.188 502.187 232.762 501.96C232.335 501.72 231.675 501.487 230.782 501.26C229.968 501.047 229.302 500.833 228.782 500.62C228.275 500.393 227.835 500.067 227.462 499.64C227.102 499.2 226.922 498.627 226.922 497.92C226.922 497.36 227.088 496.847 227.422 496.38C227.755 495.913 228.228 495.547 228.842 495.28C229.455 495 230.155 494.86 230.942 494.86C232.155 494.86 233.135 495.167 233.882 495.78C234.628 496.393 235.028 497.233 235.082 498.3H233.262C233.222 497.727 232.988 497.267 232.562 496.92C232.148 496.573 231.588 496.4 230.882 496.4C230.228 496.4 229.708 496.54 229.322 496.82C228.935 497.1 228.742 497.467 228.742 497.92C228.742 498.28 228.855 498.58 229.082 498.82C229.322 499.047 229.615 499.233 229.962 499.38C230.322 499.513 230.815 499.667 231.442 499.84C232.228 500.053 232.868 500.267 233.362 500.48C233.855 500.68 234.275 500.987 234.622 501.4C234.982 501.813 235.168 502.353 235.182 503.02C235.182 503.62 235.015 504.16 234.682 504.64C234.348 505.12 233.875 505.5 233.262 505.78C232.662 506.047 231.968 506.18 231.182 506.18ZM241.631 506.18C240.791 506.18 240.038 506.04 239.371 505.76C238.704 505.467 238.178 505.067 237.791 504.56C237.404 504.04 237.191 503.447 237.151 502.78H239.031C239.084 503.327 239.338 503.773 239.791 504.12C240.258 504.467 240.864 504.64 241.611 504.64C242.304 504.64 242.851 504.487 243.251 504.18C243.651 503.873 243.851 503.487 243.851 503.02C243.851 502.54 243.638 502.187 243.211 501.96C242.784 501.72 242.124 501.487 241.231 501.26C240.418 501.047 239.751 500.833 239.231 500.62C238.724 500.393 238.284 500.067 237.911 499.64C237.551 499.2 237.371 498.627 237.371 497.92C237.371 497.36 237.538 496.847 237.871 496.38C238.204 495.913 238.678 495.547 239.291 495.28C239.904 495 240.604 494.86 241.391 494.86C242.604 494.86 243.584 495.167 244.331 495.78C245.078 496.393 245.478 497.233 245.531 498.3H243.711C243.671 497.727 243.438 497.267 243.011 496.92C242.598 496.573 242.038 496.4 241.331 496.4C240.678 496.4 240.158 496.54 239.771 496.82C239.384 497.1 239.191 497.467 239.191 497.92C239.191 498.28 239.304 498.58 239.531 498.82C239.771 499.047 240.064 499.233 240.411 499.38C240.771 499.513 241.264 499.667 241.891 499.84C242.678 500.053 243.318 500.267 243.811 500.48C244.304 500.68 244.724 500.987 245.071 501.4C245.431 501.813 245.618 502.353 245.631 503.02C245.631 503.62 245.464 504.16 245.131 504.64C244.798 505.12 244.324 505.5 243.711 505.78C243.111 506.047 242.418 506.18 241.631 506.18Z" fill="white"/>
<path d="M0 845H428V926H0V845Z" fill="#D3D3D3"/>
<path d="M63.5419 876.696L53.731 866.89L53.0733 866.232C52.9235 866.084 52.7209 866 52.5097 866C52.2985 866 52.0958 866.084 51.946 866.232L41.4774 876.696C41.3239 876.849 41.2026 877.031 41.1206 877.232C41.0386 877.432 40.9976 877.647 41.0001 877.864C41.0103 878.758 41.7542 879.471 42.648 879.471H43.7271V887.741H61.2923V879.471H62.3942C62.8284 879.471 63.2372 879.301 63.5444 878.994C63.6957 878.843 63.8156 878.664 63.8971 878.466C63.9786 878.269 64.0201 878.057 64.0192 877.844C64.0192 877.412 63.8491 877.003 63.5419 876.696ZM53.9316 885.913H51.0878V880.733H53.9316V885.913ZM59.4642 877.643V885.913H55.5566V880.124C55.5566 879.562 55.1021 879.108 54.5409 879.108H50.4784C49.9173 879.108 49.4628 879.562 49.4628 880.124V885.913H45.5552V877.643H43.1177L52.5122 868.256L53.0987 868.843L61.9042 877.643H59.4642Z" fill="#F5F5F5"/>
<path d="M44.7 897.98V905H42.99V902.11H40.33V905H38.62V897.98H40.33V900.73H42.99V897.98H44.7ZM48.4745 905.08C47.9278 905.08 47.4345 904.963 46.9945 904.73C46.5611 904.497 46.2178 904.163 45.9645 903.73C45.7178 903.297 45.5945 902.79 45.5945 902.21C45.5945 901.637 45.7211 901.133 45.9745 900.7C46.2278 900.26 46.5745 899.923 47.0145 899.69C47.4545 899.457 47.9478 899.34 48.4945 899.34C49.0411 899.34 49.5345 899.457 49.9745 899.69C50.4145 899.923 50.7611 900.26 51.0145 900.7C51.2678 901.133 51.3945 901.637 51.3945 902.21C51.3945 902.783 51.2645 903.29 51.0045 903.73C50.7511 904.163 50.4011 904.497 49.9545 904.73C49.5145 904.963 49.0211 905.08 48.4745 905.08ZM48.4745 903.6C48.8011 903.6 49.0778 903.48 49.3045 903.24C49.5378 903 49.6545 902.657 49.6545 902.21C49.6545 901.763 49.5411 901.42 49.3145 901.18C49.0945 900.94 48.8211 900.82 48.4945 900.82C48.1611 900.82 47.8845 900.94 47.6645 901.18C47.4445 901.413 47.3345 901.757 47.3345 902.21C47.3345 902.657 47.4411 903 47.6545 903.24C47.8745 903.48 48.1478 903.6 48.4745 903.6ZM59.4216 899.36C60.115 899.36 60.665 899.57 61.0716 899.99C61.485 900.41 61.6916 900.993 61.6916 901.74V905H59.9916V901.97C59.9916 901.61 59.895 901.333 59.7016 901.14C59.515 900.94 59.255 900.84 58.9216 900.84C58.5883 900.84 58.325 900.94 58.1316 901.14C57.945 901.333 57.8516 901.61 57.8516 901.97V905H56.1516V901.97C56.1516 901.61 56.055 901.333 55.8616 901.14C55.675 900.94 55.415 900.84 55.0816 900.84C54.7483 900.84 54.485 900.94 54.2916 901.14C54.105 901.333 54.0116 901.61 54.0116 901.97V905H52.3016V899.42H54.0116V900.12C54.185 899.887 54.4116 899.703 54.6916 899.57C54.9716 899.43 55.2883 899.36 55.6416 899.36C56.0616 899.36 56.435 899.45 56.7616 899.63C57.095 899.81 57.355 900.067 57.5416 900.4C57.735 900.093 57.9983 899.843 58.3316 899.65C58.665 899.457 59.0283 899.36 59.4216 899.36ZM68.1476 902.12C68.1476 902.28 68.1376 902.447 68.1176 902.62H64.2476C64.2742 902.967 64.3842 903.233 64.5776 903.42C64.7776 903.6 65.0209 903.69 65.3076 903.69C65.7342 903.69 66.0309 903.51 66.1976 903.15H68.0176C67.9242 903.517 67.7542 903.847 67.5076 904.14C67.2676 904.433 66.9642 904.663 66.5976 904.83C66.2309 904.997 65.8209 905.08 65.3676 905.08C64.8209 905.08 64.3342 904.963 63.9076 904.73C63.4809 904.497 63.1476 904.163 62.9076 903.73C62.6676 903.297 62.5476 902.79 62.5476 902.21C62.5476 901.63 62.6642 901.123 62.8976 900.69C63.1376 900.257 63.4709 899.923 63.8976 899.69C64.3242 899.457 64.8142 899.34 65.3676 899.34C65.9076 899.34 66.3876 899.453 66.8076 899.68C67.2276 899.907 67.5542 900.23 67.7876 900.65C68.0276 901.07 68.1476 901.56 68.1476 902.12ZM66.3976 901.67C66.3976 901.377 66.2976 901.143 66.0976 900.97C65.8976 900.797 65.6476 900.71 65.3476 900.71C65.0609 900.71 64.8176 900.793 64.6176 900.96C64.4242 901.127 64.3042 901.363 64.2576 901.67H66.3976Z" fill="#F5F5F5"/>
<g clip-path="url(#clip0_293_199)">
<path d="M151.559 877.943L147.517 876.083V870.751C147.515 870.639 147.481 870.53 147.419 870.437C147.357 870.344 147.269 870.271 147.167 870.226L142.792 868.213C142.715 868.178 142.631 868.159 142.547 868.159C142.462 868.159 142.378 868.178 142.302 868.213L137.927 870.226C137.825 870.273 137.74 870.348 137.68 870.442C137.62 870.536 137.588 870.645 137.588 870.757V876.088L133.563 877.943C133.462 877.99 133.376 878.065 133.316 878.159C133.256 878.253 133.225 878.363 133.225 878.474V884.179C133.225 884.291 133.256 884.4 133.316 884.494C133.376 884.588 133.462 884.663 133.563 884.71L137.938 886.723C138.015 886.758 138.099 886.776 138.183 886.776C138.268 886.776 138.352 886.758 138.428 886.723L142.558 884.821L146.688 886.723C146.765 886.758 146.849 886.776 146.933 886.776C147.018 886.776 147.102 886.758 147.178 886.723L151.553 884.71C151.655 884.663 151.74 884.588 151.8 884.494C151.86 884.4 151.892 884.291 151.892 884.179V878.474C151.892 878.363 151.862 878.254 151.803 878.16C151.744 878.066 151.659 877.991 151.559 877.943ZM146.939 879.833L143.958 878.474L146.939 877.103L149.92 878.474L146.939 879.833ZM146.356 876.077L142.599 877.827V873.341C142.669 873.338 142.739 873.322 142.803 873.294L146.35 871.667V876.088L146.356 876.077ZM142.558 869.38L145.539 870.751L142.558 872.122L139.583 870.751L142.558 869.38ZM138.183 877.098L141.164 878.468L138.183 879.833L135.202 878.474L138.183 877.098ZM141.975 883.8L138.183 885.55V881.064C138.265 881.059 138.344 881.037 138.417 881L141.963 879.367L141.975 883.8ZM150.725 883.8L146.957 885.55V881.064C147.03 881.056 147.101 881.035 147.167 881L150.713 879.367L150.725 883.8Z" fill="#F5F5F5"/>
</g>
<path d="M112.33 901.48C112.33 900.787 112.48 900.17 112.78 899.63C113.08 899.083 113.497 898.66 114.03 898.36C114.57 898.053 115.18 897.9 115.86 897.9C116.693 897.9 117.407 898.12 118 898.56C118.593 899 118.99 899.6 119.19 900.36H117.31C117.17 900.067 116.97 899.843 116.71 899.69C116.457 899.537 116.167 899.46 115.84 899.46C115.313 899.46 114.887 899.643 114.56 900.01C114.233 900.377 114.07 900.867 114.07 901.48C114.07 902.093 114.233 902.583 114.56 902.95C114.887 903.317 115.313 903.5 115.84 903.5C116.167 903.5 116.457 903.423 116.71 903.27C116.97 903.117 117.17 902.893 117.31 902.6H119.19C118.99 903.36 118.593 903.96 118 904.4C117.407 904.833 116.693 905.05 115.86 905.05C115.18 905.05 114.57 904.9 114.03 904.6C113.497 904.293 113.08 903.87 112.78 903.33C112.48 902.79 112.33 902.173 112.33 901.48ZM122.777 905.08C122.231 905.08 121.737 904.963 121.297 904.73C120.864 904.497 120.521 904.163 120.267 903.73C120.021 903.297 119.897 902.79 119.897 902.21C119.897 901.637 120.024 901.133 120.277 900.7C120.531 900.26 120.877 899.923 121.317 899.69C121.757 899.457 122.251 899.34 122.797 899.34C123.344 899.34 123.837 899.457 124.277 899.69C124.717 899.923 125.064 900.26 125.317 900.7C125.571 901.133 125.697 901.637 125.697 902.21C125.697 902.783 125.567 903.29 125.307 903.73C125.054 904.163 124.704 904.497 124.257 904.73C123.817 904.963 123.324 905.08 122.777 905.08ZM122.777 903.6C123.104 903.6 123.381 903.48 123.607 903.24C123.841 903 123.957 902.657 123.957 902.21C123.957 901.763 123.844 901.42 123.617 901.18C123.397 900.94 123.124 900.82 122.797 900.82C122.464 900.82 122.187 900.94 121.967 901.18C121.747 901.413 121.637 901.757 121.637 902.21C121.637 902.657 121.744 903 121.957 903.24C122.177 903.48 122.451 903.6 122.777 903.6ZM133.724 899.36C134.418 899.36 134.968 899.57 135.374 899.99C135.788 900.41 135.994 900.993 135.994 901.74V905H134.294V901.97C134.294 901.61 134.198 901.333 134.004 901.14C133.818 900.94 133.558 900.84 133.224 900.84C132.891 900.84 132.628 900.94 132.434 901.14C132.248 901.333 132.154 901.61 132.154 901.97V905H130.454V901.97C130.454 901.61 130.358 901.333 130.164 901.14C129.978 900.94 129.718 900.84 129.384 900.84C129.051 900.84 128.788 900.94 128.594 901.14C128.408 901.333 128.314 901.61 128.314 901.97V905H126.604V899.42H128.314V900.12C128.488 899.887 128.714 899.703 128.994 899.57C129.274 899.43 129.591 899.36 129.944 899.36C130.364 899.36 130.738 899.45 131.064 899.63C131.398 899.81 131.658 900.067 131.844 900.4C132.038 900.093 132.301 899.843 132.634 899.65C132.968 899.457 133.331 899.36 133.724 899.36ZM144.31 899.36C145.004 899.36 145.554 899.57 145.96 899.99C146.374 900.41 146.58 900.993 146.58 901.74V905H144.88V901.97C144.88 901.61 144.784 901.333 144.59 901.14C144.404 900.94 144.144 900.84 143.81 900.84C143.477 900.84 143.214 900.94 143.02 901.14C142.834 901.333 142.74 901.61 142.74 901.97V905H141.04V901.97C141.04 901.61 140.944 901.333 140.75 901.14C140.564 900.94 140.304 900.84 139.97 900.84C139.637 900.84 139.374 900.94 139.18 901.14C138.994 901.333 138.9 901.61 138.9 901.97V905H137.19V899.42H138.9V900.12C139.074 899.887 139.3 899.703 139.58 899.57C139.86 899.43 140.177 899.36 140.53 899.36C140.95 899.36 141.324 899.45 141.65 899.63C141.984 899.81 142.244 900.067 142.43 900.4C142.624 900.093 142.887 899.843 143.22 899.65C143.554 899.457 143.917 899.36 144.31 899.36ZM153.286 899.42V905H151.576V904.24C151.403 904.487 151.166 904.687 150.866 904.84C150.573 904.987 150.246 905.06 149.886 905.06C149.46 905.06 149.083 904.967 148.756 904.78C148.43 904.587 148.176 904.31 147.996 903.95C147.816 903.59 147.726 903.167 147.726 902.68V899.42H149.426V902.45C149.426 902.823 149.523 903.113 149.716 903.32C149.91 903.527 150.17 903.63 150.496 903.63C150.83 903.63 151.093 903.527 151.286 903.32C151.48 903.113 151.576 902.823 151.576 902.45V899.42H153.286ZM157.915 899.36C158.568 899.36 159.088 899.573 159.475 900C159.868 900.42 160.065 901 160.065 901.74V905H158.365V901.97C158.365 901.597 158.268 901.307 158.075 901.1C157.881 900.893 157.621 900.79 157.295 900.79C156.968 900.79 156.708 900.893 156.515 901.1C156.321 901.307 156.225 901.597 156.225 901.97V905H154.515V899.42H156.225V900.16C156.398 899.913 156.631 899.72 156.925 899.58C157.218 899.433 157.548 899.36 157.915 899.36ZM162.113 898.84C161.813 898.84 161.566 898.753 161.373 898.58C161.186 898.4 161.093 898.18 161.093 897.92C161.093 897.653 161.186 897.433 161.373 897.26C161.566 897.08 161.813 896.99 162.113 896.99C162.406 896.99 162.646 897.08 162.833 897.26C163.026 897.433 163.123 897.653 163.123 897.92C163.123 898.18 163.026 898.4 162.833 898.58C162.646 898.753 162.406 898.84 162.113 898.84ZM162.963 899.42V905H161.253V899.42H162.963ZM167.312 903.55V905H166.442C165.822 905 165.339 904.85 164.992 904.55C164.645 904.243 164.472 903.747 164.472 903.06V900.84H163.792V899.42H164.472V898.06H166.182V899.42H167.302V900.84H166.182V903.08C166.182 903.247 166.222 903.367 166.302 903.44C166.382 903.513 166.515 903.55 166.702 903.55H167.312ZM173.965 899.42L170.465 907.65H168.625L169.905 904.81L167.635 899.42H169.545L170.835 902.91L172.115 899.42H173.965Z" fill="#F5F5F5"/>
<path d="M223.16 866L221.75 867.41L224.34 870H219C217.89 870 217 870.89 217 872V882C217 883.11 217.89 884 219 884H235C236.11 884 237 883.11 237 882V872C237 870.89 236.11 870 235 870H229.66L232.25 867.41L230.84 866L227 869.84L223.16 866ZM219 872H232V882H219V872ZM234.5 872C234.765 872 235.02 872.105 235.207 872.293C235.395 872.48 235.5 872.735 235.5 873C235.5 873.265 235.395 873.52 235.207 873.707C235.02 873.895 234.765 874 234.5 874C234.235 874 233.98 873.895 233.793 873.707C233.605 873.52 233.5 873.265 233.5 873C233.5 872.735 233.605 872.48 233.793 872.293C233.98 872.105 234.235 872 234.5 872ZM234.5 875C234.765 875 235.02 875.105 235.207 875.293C235.395 875.48 235.5 875.735 235.5 876C235.5 876.265 235.395 876.52 235.207 876.707C235.02 876.895 234.765 877 234.5 877C234.235 877 233.98 876.895 233.793 876.707C233.605 876.52 233.5 876.265 233.5 876C233.5 875.735 233.605 875.48 233.793 875.293C233.98 875.105 234.235 875 234.5 875Z" fill="#F5F5F5"/>
<path d="M225.67 897.98V899.35H223.81V905H222.1V899.35H220.24V897.98H225.67ZM233.118 897.98L230.628 905H228.488L225.998 897.98H227.818L229.558 903.28L231.308 897.98H233.118Z" fill="#F5F5F5"/>
<path fill-rule="evenodd" clip-rule="evenodd" d="M301 874C301 875.061 300.579 876.078 299.828 876.828C299.078 877.579 298.061 878 297 878C295.939 878 294.922 877.579 294.172 876.828C293.421 876.078 293 875.061 293 874C293 872.939 293.421 871.922 294.172 871.172C294.922 870.421 295.939 870 297 870C298.061 870 299.078 870.421 299.828 871.172C300.579 871.922 301 872.939 301 874ZM299 874C299 874.53 298.789 875.039 298.414 875.414C298.039 875.789 297.53 876 297 876C296.47 876 295.961 875.789 295.586 875.414C295.211 875.039 295 874.53 295 874C295 873.47 295.211 872.961 295.586 872.586C295.961 872.211 296.47 872 297 872C297.53 872 298.039 872.211 298.414 872.586C298.789 872.961 299 873.47 299 874Z" fill="#F5F5F5"/>
<path fill-rule="evenodd" clip-rule="evenodd" d="M297 866C290.925 866 286 870.925 286 877C286 883.075 290.925 888 297 888C303.075 888 308 883.075 308 877C308 870.925 303.075 866 297 866ZM288 877C288 879.09 288.713 881.014 289.908 882.542C290.747 881.44 291.83 880.547 293.071 879.932C294.313 879.318 295.68 878.999 297.065 879C298.432 878.999 299.782 879.31 301.011 879.909C302.24 880.508 303.316 881.38 304.157 882.458C305.023 881.322 305.607 879.995 305.859 878.589C306.111 877.182 306.024 875.736 305.606 874.369C305.189 873.002 304.451 871.755 303.455 870.73C302.46 869.705 301.234 868.932 299.88 868.475C298.527 868.017 297.083 867.889 295.67 868.1C294.257 868.311 292.914 868.856 291.753 869.689C290.592 870.522 289.646 871.62 288.993 872.891C288.341 874.163 288 875.571 288 877ZM297 886C294.934 886.003 292.93 885.292 291.328 883.988C291.973 883.065 292.831 882.311 293.83 881.791C294.829 881.27 295.939 880.999 297.065 881C298.177 880.999 299.273 881.264 300.263 881.771C301.252 882.279 302.106 883.016 302.754 883.92C301.139 885.267 299.103 886.003 297 886Z" fill="#F5F5F5"/>
<path d="M285.97 900.24C285.97 900.647 285.877 901.02 285.69 901.36C285.503 901.693 285.217 901.963 284.83 902.17C284.443 902.377 283.963 902.48 283.39 902.48H282.33V905H280.62V897.98H283.39C283.95 897.98 284.423 898.077 284.81 898.27C285.197 898.463 285.487 898.73 285.68 899.07C285.873 899.41 285.97 899.8 285.97 900.24ZM283.26 901.12C283.587 901.12 283.83 901.043 283.99 900.89C284.15 900.737 284.23 900.52 284.23 900.24C284.23 899.96 284.15 899.743 283.99 899.59C283.83 899.437 283.587 899.36 283.26 899.36H282.33V901.12H283.26ZM288.57 900.35C288.77 900.043 289.02 899.803 289.32 899.63C289.62 899.45 289.954 899.36 290.32 899.36V901.17H289.85C289.424 901.17 289.104 901.263 288.89 901.45C288.677 901.63 288.57 901.95 288.57 902.41V905H286.86V899.42H288.57V900.35ZM293.678 905.08C293.131 905.08 292.638 904.963 292.198 904.73C291.764 904.497 291.421 904.163 291.168 903.73C290.921 903.297 290.798 902.79 290.798 902.21C290.798 901.637 290.924 901.133 291.178 900.7C291.431 900.26 291.778 899.923 292.218 899.69C292.658 899.457 293.151 899.34 293.698 899.34C294.244 899.34 294.738 899.457 295.178 899.69C295.618 899.923 295.964 900.26 296.218 900.7C296.471 901.133 296.598 901.637 296.598 902.21C296.598 902.783 296.468 903.29 296.208 903.73C295.954 904.163 295.604 904.497 295.158 904.73C294.718 904.963 294.224 905.08 293.678 905.08ZM293.678 903.6C294.004 903.6 294.281 903.48 294.508 903.24C294.741 903 294.858 902.657 294.858 902.21C294.858 901.763 294.744 901.42 294.518 901.18C294.298 900.94 294.024 900.82 293.698 900.82C293.364 900.82 293.088 900.94 292.868 901.18C292.648 901.413 292.538 901.757 292.538 902.21C292.538 902.657 292.644 903 292.858 903.24C293.078 903.48 293.351 903.6 293.678 903.6ZM300.305 900.84H299.385V905H297.675V900.84H297.055V899.42H297.675V899.26C297.675 898.573 297.871 898.053 298.265 897.7C298.658 897.34 299.235 897.16 299.995 897.16C300.121 897.16 300.215 897.163 300.275 897.17V898.62C299.948 898.6 299.718 898.647 299.585 898.76C299.451 898.873 299.385 899.077 299.385 899.37V899.42H300.305V900.84ZM301.968 898.84C301.668 898.84 301.422 898.753 301.228 898.58C301.042 898.4 300.948 898.18 300.948 897.92C300.948 897.653 301.042 897.433 301.228 897.26C301.422 897.08 301.668 896.99 301.968 896.99C302.262 896.99 302.502 897.08 302.688 897.26C302.882 897.433 302.978 897.653 302.978 897.92C302.978 898.18 302.882 898.4 302.688 898.58C302.502 898.753 302.262 898.84 301.968 898.84ZM302.818 899.42V905H301.108V899.42H302.818ZM305.768 897.6V905H304.058V897.6H305.768ZM312.267 902.12C312.267 902.28 312.257 902.447 312.237 902.62H308.367C308.393 902.967 308.503 903.233 308.697 903.42C308.897 903.6 309.14 903.69 309.427 903.69C309.853 903.69 310.15 903.51 310.317 903.15H312.137C312.043 903.517 311.873 903.847 311.627 904.14C311.387 904.433 311.083 904.663 310.717 904.83C310.35 904.997 309.94 905.08 309.487 905.08C308.94 905.08 308.453 904.963 308.027 904.73C307.6 904.497 307.267 904.163 307.027 903.73C306.787 903.297 306.667 902.79 306.667 902.21C306.667 901.63 306.783 901.123 307.017 900.69C307.257 900.257 307.59 899.923 308.017 899.69C308.443 899.457 308.933 899.34 309.487 899.34C310.027 899.34 310.507 899.453 310.927 899.68C311.347 899.907 311.673 900.23 311.907 900.65C312.147 901.07 312.267 901.56 312.267 902.12ZM310.517 901.67C310.517 901.377 310.417 901.143 310.217 900.97C310.017 900.797 309.767 900.71 309.467 900.71C309.18 900.71 308.937 900.793 308.737 900.96C308.543 901.127 308.423 901.363 308.377 901.67H310.517Z" fill="#F5F5F5"/>
<path d="M380.562 877.523V876.471L381.882 875.316C382.126 875.101 382.285 874.808 382.333 874.487C382.381 874.166 382.314 873.839 382.144 873.563L380.521 870.813C380.401 870.604 380.227 870.43 380.019 870.31C379.81 870.189 379.573 870.125 379.332 870.125C379.182 870.124 379.034 870.147 378.892 870.194L377.221 870.758C376.933 870.566 376.632 870.394 376.321 870.242L375.97 868.509C375.907 868.193 375.735 867.909 375.484 867.706C375.232 867.504 374.918 867.396 374.595 867.403H371.377C371.055 867.396 370.74 867.504 370.489 867.706C370.238 867.909 370.065 868.193 370.002 868.509L369.652 870.242C369.338 870.394 369.035 870.566 368.744 870.758L367.108 870.166C366.965 870.129 366.816 870.115 366.668 870.125C366.427 870.125 366.19 870.189 365.981 870.31C365.773 870.43 365.599 870.604 365.479 870.813L363.856 873.563C363.696 873.838 363.636 874.161 363.688 874.476C363.739 874.791 363.898 875.078 364.138 875.288L365.437 876.478V877.529L364.138 878.684C363.891 878.896 363.728 879.188 363.676 879.509C363.625 879.83 363.688 880.159 363.856 880.438L365.479 883.188C365.599 883.396 365.773 883.57 365.981 883.691C366.19 883.811 366.427 883.875 366.668 883.875C366.818 883.876 366.966 883.853 367.108 883.806L368.779 883.243C369.067 883.434 369.368 883.607 369.679 883.758L370.03 885.491C370.093 885.807 370.265 886.092 370.516 886.294C370.768 886.496 371.082 886.604 371.405 886.598H374.65C374.973 886.604 375.287 886.496 375.539 886.294C375.79 886.092 375.962 885.807 376.025 885.491L376.376 883.758C376.689 883.607 376.992 883.434 377.283 883.243L378.947 883.806C379.089 883.853 379.237 883.876 379.387 883.875C379.628 883.875 379.865 883.811 380.074 883.691C380.282 883.57 380.456 883.396 380.576 883.188L382.144 880.438C382.304 880.162 382.364 879.839 382.312 879.524C382.261 879.209 382.102 878.922 381.862 878.712L380.562 877.523ZM379.332 882.5L376.974 881.703C376.422 882.17 375.791 882.536 375.111 882.782L374.622 885.25H371.377L370.889 882.809C370.215 882.556 369.587 882.191 369.033 881.73L366.668 882.5L365.046 879.75L366.916 878.1C366.788 877.388 366.788 876.66 366.916 875.948L365.046 874.25L366.668 871.5L369.026 872.298C369.578 871.83 370.209 871.465 370.889 871.218L371.377 868.75H374.622L375.111 871.191C375.785 871.444 376.413 871.809 376.967 872.27L379.332 871.5L380.954 874.25L379.084 875.9C379.211 876.612 379.211 877.34 379.084 878.052L380.954 879.75L379.332 882.5Z" fill="#F5F5F5"/>
<path d="M373 881.125C372.184 881.125 371.387 880.883 370.708 880.43C370.03 879.977 369.501 879.332 369.189 878.579C368.877 877.825 368.795 876.995 368.954 876.195C369.113 875.395 369.506 874.66 370.083 874.083C370.66 873.506 371.395 873.113 372.195 872.954C372.995 872.795 373.825 872.877 374.579 873.189C375.332 873.501 375.977 874.03 376.43 874.708C376.883 875.387 377.125 876.184 377.125 877C377.131 877.543 377.028 878.082 376.822 878.585C376.617 879.088 376.313 879.545 375.929 879.929C375.545 880.313 375.088 880.617 374.585 880.822C374.082 881.028 373.543 881.131 373 881.125ZM373 874.25C372.637 874.242 372.275 874.307 371.938 874.442C371.6 874.577 371.294 874.78 371.037 875.037C370.78 875.294 370.577 875.6 370.442 875.938C370.307 876.275 370.242 876.637 370.25 877C370.242 877.363 370.307 877.725 370.442 878.062C370.577 878.4 370.78 878.706 371.037 878.963C371.294 879.22 371.6 879.423 371.938 879.558C372.275 879.693 372.637 879.758 373 879.75C373.363 879.758 373.725 879.693 374.062 879.558C374.4 879.423 374.706 879.22 374.963 878.963C375.22 878.706 375.423 878.4 375.558 878.062C375.693 877.725 375.758 877.363 375.75 877C375.758 876.637 375.693 876.275 375.558 875.938C375.423 875.6 375.22 875.294 374.963 875.037C374.706 874.78 374.4 874.577 374.062 874.442C373.725 874.307 373.363 874.242 373 874.25Z" fill="#F5F5F5"/>
<path d="M361.72 902.91C361.72 900.56 358.25 901.11 358.25 899.89C358.25 899.45 358.56 899.24 358.97 899.25C359.43 899.26 359.75 899.53 359.78 899.98H361.63C361.56 898.64 360.53 897.88 359 897.88C357.53 897.88 356.44 898.62 356.44 899.95C356.42 902.44 359.93 901.74 359.93 903.04C359.93 903.45 359.61 903.7 359.11 903.7C358.63 903.7 358.29 903.44 358.24 902.9H356.42C356.47 904.32 357.65 905.07 359.16 905.07C360.8 905.07 361.72 904.09 361.72 902.91ZM365.232 900.71C365.802 900.71 366.282 901.06 366.282 901.67H364.142C364.242 901.05 364.672 900.71 365.232 900.71ZM367.902 903.15H366.082C365.942 903.45 365.672 903.69 365.192 903.69C364.642 903.69 364.192 903.35 364.132 902.62H368.002C368.022 902.45 368.032 902.28 368.032 902.12C368.032 900.42 366.882 899.34 365.252 899.34C363.592 899.34 362.432 900.44 362.432 902.21C362.432 903.98 363.612 905.08 365.252 905.08C366.642 905.08 367.632 904.24 367.902 903.15ZM369.204 903.06C369.204 904.51 370.014 905 371.174 905H372.044V903.55H371.434C371.054 903.55 370.914 903.41 370.914 903.08V900.84H372.034V899.42H370.914V898.06H369.204V899.42H368.524V900.84H369.204V903.06ZM373.267 903.06C373.267 904.51 374.077 905 375.237 905H376.107V903.55H375.497C375.117 903.55 374.977 903.41 374.977 903.08V900.84H376.097V899.42H374.977V898.06H373.267V899.42H372.587V900.84H373.267V903.06ZM377.059 905H378.769V899.42H377.059V905ZM377.919 898.84C378.519 898.84 378.929 898.43 378.929 897.92C378.929 897.4 378.519 896.99 377.919 896.99C377.309 896.99 376.899 897.4 376.899 897.92C376.899 898.43 377.309 898.84 377.919 898.84ZM383.859 905H385.559V901.74C385.559 900.24 384.699 899.36 383.409 899.36C382.659 899.36 382.059 899.69 381.719 900.16V899.42H380.009V905H381.719V901.97C381.719 901.21 382.139 900.79 382.789 900.79C383.439 900.79 383.859 901.21 383.859 901.97V905ZM386.407 902.2C386.407 903.96 387.497 905.08 388.867 905.08C389.687 905.08 390.277 904.69 390.587 904.2V904.99C390.587 905.93 390.077 906.27 389.427 906.27C388.837 906.27 388.417 906 388.307 905.58H386.617C386.767 906.91 387.847 907.75 389.507 907.75C391.437 907.75 392.297 906.48 392.297 904.99V899.42H390.587V900.21C390.287 899.71 389.687 899.34 388.867 899.34C387.497 899.34 386.407 900.44 386.407 902.2ZM390.587 902.21C390.587 903.1 390.017 903.59 389.367 903.59C388.727 903.59 388.147 903.09 388.147 902.2C388.147 901.31 388.727 900.83 389.367 900.83C390.017 900.83 390.587 901.32 390.587 902.21ZM398.064 903.38C398.034 901.3 395.014 901.93 395.014 901.04C395.014 900.77 395.234 900.61 395.634 900.61C396.114 900.61 396.404 900.86 396.454 901.24H398.034C397.924 900.14 397.124 899.34 395.684 899.34C394.224 899.34 393.414 900.12 393.414 901.07C393.414 903.12 396.454 902.47 396.454 903.37C396.454 903.62 396.224 903.82 395.784 903.82C395.314 903.82 394.964 903.56 394.924 903.17H393.234C393.314 904.25 394.314 905.08 395.804 905.08C397.204 905.08 398.064 904.35 398.064 903.38Z" fill="#F5F5F5"/>
<circle cx="389" cy="111" r="25" fill="#D9D9D9"/>
<defs>
<clipPath id="clip0_293_199">
<rect width="21" height="21" fill="white" transform="translate(132 867)"/>
</clipPath>
</defs>
</svg>
