<svg width="428" height="926" viewBox="0 0 428 926" fill="none" xmlns="http://www.w3.org/2000/svg">
<rect width="428" height="926" fill="black"/>
<rect x="20" y="524" width="388" height="70" rx="5" fill="#8C20BF"/>
<path d="M187.751 565.858C186.831 565.858 186.004 565.698 185.271 565.378C184.551 565.045 183.984 564.592 183.571 564.018C183.157 563.432 182.944 562.758 182.931 561.998H184.871C184.937 562.652 185.204 563.205 185.671 563.658C186.151 564.098 186.844 564.318 187.751 564.318C188.617 564.318 189.297 564.105 189.791 563.678C190.297 563.238 190.551 562.678 190.551 561.998C190.551 561.465 190.404 561.032 190.111 560.698C189.817 560.365 189.451 560.112 189.011 559.938C188.571 559.765 187.977 559.578 187.231 559.378C186.311 559.138 185.571 558.898 185.011 558.658C184.464 558.418 183.991 558.045 183.591 557.538C183.204 557.018 183.011 556.325 183.011 555.458C183.011 554.698 183.204 554.025 183.591 553.438C183.977 552.852 184.517 552.398 185.211 552.078C185.917 551.758 186.724 551.598 187.631 551.598C188.937 551.598 190.004 551.925 190.831 552.578C191.671 553.232 192.144 554.098 192.251 555.178H190.251C190.184 554.645 189.904 554.178 189.411 553.778C188.917 553.365 188.264 553.158 187.451 553.158C186.691 553.158 186.071 553.358 185.591 553.758C185.111 554.145 184.871 554.692 184.871 555.398C184.871 555.905 185.011 556.318 185.291 556.638C185.584 556.958 185.937 557.205 186.351 557.378C186.777 557.538 187.371 557.725 188.131 557.938C189.051 558.192 189.791 558.445 190.351 558.698C190.911 558.938 191.391 559.318 191.791 559.838C192.191 560.345 192.391 561.038 192.391 561.918C192.391 562.598 192.211 563.238 191.851 563.838C191.491 564.438 190.957 564.925 190.251 565.298C189.544 565.672 188.711 565.858 187.751 565.858ZM196.009 552.978C195.662 552.978 195.369 552.858 195.129 552.618C194.889 552.378 194.769 552.085 194.769 551.738C194.769 551.392 194.889 551.098 195.129 550.858C195.369 550.618 195.662 550.498 196.009 550.498C196.342 550.498 196.622 550.618 196.849 550.858C197.089 551.098 197.209 551.392 197.209 551.738C197.209 552.085 197.089 552.378 196.849 552.618C196.622 552.858 196.342 552.978 196.009 552.978ZM196.889 554.758V565.718H195.069V554.758H196.889ZM204.511 554.578C205.457 554.578 206.284 554.785 206.991 555.198C207.711 555.612 208.244 556.132 208.591 556.758V554.758H210.431V565.958C210.431 566.958 210.217 567.845 209.791 568.618C209.364 569.405 208.751 570.018 207.951 570.458C207.164 570.898 206.244 571.118 205.191 571.118C203.751 571.118 202.551 570.778 201.591 570.098C200.631 569.418 200.064 568.492 199.891 567.318H201.691C201.891 567.985 202.304 568.518 202.931 568.918C203.557 569.332 204.311 569.538 205.191 569.538C206.191 569.538 207.004 569.225 207.631 568.598C208.271 567.972 208.591 567.092 208.591 565.958V563.658C208.231 564.298 207.697 564.832 206.991 565.258C206.284 565.685 205.457 565.898 204.511 565.898C203.537 565.898 202.651 565.658 201.851 565.178C201.064 564.698 200.444 564.025 199.991 563.158C199.537 562.292 199.311 561.305 199.311 560.198C199.311 559.078 199.537 558.098 199.991 557.258C200.444 556.405 201.064 555.745 201.851 555.278C202.651 554.812 203.537 554.578 204.511 554.578ZM208.591 560.218C208.591 559.392 208.424 558.672 208.091 558.058C207.757 557.445 207.304 556.978 206.731 556.658C206.171 556.325 205.551 556.158 204.871 556.158C204.191 556.158 203.571 556.318 203.011 556.638C202.451 556.958 202.004 557.425 201.671 558.038C201.337 558.652 201.171 559.372 201.171 560.198C201.171 561.038 201.337 561.772 201.671 562.398C202.004 563.012 202.451 563.485 203.011 563.818C203.571 564.138 204.191 564.298 204.871 564.298C205.551 564.298 206.171 564.138 206.731 563.818C207.304 563.485 207.757 563.012 208.091 562.398C208.424 561.772 208.591 561.045 208.591 560.218ZM218.846 554.558C220.18 554.558 221.26 554.965 222.086 555.778C222.913 556.578 223.326 557.738 223.326 559.258V565.718H221.526V559.518C221.526 558.425 221.253 557.592 220.706 557.018C220.16 556.432 219.413 556.138 218.466 556.138C217.506 556.138 216.74 556.438 216.166 557.038C215.606 557.638 215.326 558.512 215.326 559.658V565.718H213.506V554.758H215.326V556.318C215.686 555.758 216.173 555.325 216.786 555.018C217.413 554.712 218.1 554.558 218.846 554.558ZM232.571 552.978C232.225 552.978 231.931 552.858 231.691 552.618C231.451 552.378 231.331 552.085 231.331 551.738C231.331 551.392 231.451 551.098 231.691 550.858C231.931 550.618 232.225 550.498 232.571 550.498C232.905 550.498 233.185 550.618 233.411 550.858C233.651 551.098 233.771 551.392 233.771 551.738C233.771 552.085 233.651 552.378 233.411 552.618C233.185 552.858 232.905 552.978 232.571 552.978ZM233.451 554.758V565.718H231.631V554.758H233.451ZM241.893 554.558C243.227 554.558 244.307 554.965 245.133 555.778C245.96 556.578 246.373 557.738 246.373 559.258V565.718H244.573V559.518C244.573 558.425 244.3 557.592 243.753 557.018C243.207 556.432 242.46 556.138 241.513 556.138C240.553 556.138 239.787 556.438 239.213 557.038C238.653 557.638 238.373 558.512 238.373 559.658V565.718H236.553V554.758H238.373V556.318C238.733 555.758 239.22 555.325 239.833 555.018C240.46 554.712 241.147 554.558 241.893 554.558Z" fill="white"/>
<path d="M23.32 246.06V254.88C23.32 256.12 23.62 257.04 24.22 257.64C24.8333 258.24 25.68 258.54 26.76 258.54C27.8267 258.54 28.66 258.24 29.26 257.64C29.8733 257.04 30.18 256.12 30.18 254.88V246.06H32V254.86C32 256.02 31.7667 257 31.3 257.8C30.8333 258.587 30.2 259.173 29.4 259.56C28.6133 259.947 27.7267 260.14 26.74 260.14C25.7533 260.14 24.86 259.947 24.06 259.56C23.2733 259.173 22.6467 258.587 22.18 257.8C21.7267 257 21.5 256.02 21.5 254.86V246.06H23.32ZM38.9161 260.18C38.0761 260.18 37.3228 260.04 36.6561 259.76C35.9894 259.467 35.4628 259.067 35.0761 258.56C34.6894 258.04 34.4761 257.447 34.4361 256.78H36.3161C36.3694 257.327 36.6228 257.773 37.0761 258.12C37.5428 258.467 38.1494 258.64 38.8961 258.64C39.5894 258.64 40.1361 258.487 40.5361 258.18C40.9361 257.873 41.1361 257.487 41.1361 257.02C41.1361 256.54 40.9228 256.187 40.4961 255.96C40.0694 255.72 39.4094 255.487 38.5161 255.26C37.7028 255.047 37.0361 254.833 36.5161 254.62C36.0094 254.393 35.5694 254.067 35.1961 253.64C34.8361 253.2 34.6561 252.627 34.6561 251.92C34.6561 251.36 34.8228 250.847 35.1561 250.38C35.4894 249.913 35.9628 249.547 36.5761 249.28C37.1894 249 37.8894 248.86 38.6761 248.86C39.8894 248.86 40.8694 249.167 41.6161 249.78C42.3628 250.393 42.7628 251.233 42.8161 252.3H40.9961C40.9561 251.727 40.7228 251.267 40.2961 250.92C39.8828 250.573 39.3228 250.4 38.6161 250.4C37.9628 250.4 37.4428 250.54 37.0561 250.82C36.6694 251.1 36.4761 251.467 36.4761 251.92C36.4761 252.28 36.5894 252.58 36.8161 252.82C37.0561 253.047 37.3494 253.233 37.6961 253.38C38.0561 253.513 38.5494 253.667 39.1761 253.84C39.9628 254.053 40.6028 254.267 41.0961 254.48C41.5894 254.68 42.0094 254.987 42.3561 255.4C42.7161 255.813 42.9028 256.353 42.9161 257.02C42.9161 257.62 42.7494 258.16 42.4161 258.64C42.0828 259.12 41.6094 259.5 40.9961 259.78C40.3961 260.047 39.7028 260.18 38.9161 260.18ZM55.4853 254.1C55.4853 254.447 55.4653 254.813 55.4253 255.2H46.6653C46.732 256.28 47.0986 257.127 47.7653 257.74C48.4453 258.34 49.2653 258.64 50.2253 258.64C51.012 258.64 51.6653 258.46 52.1853 258.1C52.7186 257.727 53.092 257.233 53.3053 256.62H55.2653C54.972 257.673 54.3853 258.533 53.5053 259.2C52.6253 259.853 51.532 260.18 50.2253 260.18C49.1853 260.18 48.252 259.947 47.4253 259.48C46.612 259.013 45.972 258.353 45.5053 257.5C45.0386 256.633 44.8053 255.633 44.8053 254.5C44.8053 253.367 45.032 252.373 45.4853 251.52C45.9386 250.667 46.572 250.013 47.3853 249.56C48.212 249.093 49.1586 248.86 50.2253 248.86C51.2653 248.86 52.1853 249.087 52.9853 249.54C53.7853 249.993 54.3986 250.62 54.8253 251.42C55.2653 252.207 55.4853 253.1 55.4853 254.1ZM53.6053 253.72C53.6053 253.027 53.452 252.433 53.1453 251.94C52.8386 251.433 52.4186 251.053 51.8853 250.8C51.3653 250.533 50.7853 250.4 50.1453 250.4C49.2253 250.4 48.4386 250.693 47.7853 251.28C47.1453 251.867 46.7786 252.68 46.6853 253.72H53.6053ZM59.7077 250.82C60.0277 250.193 60.481 249.707 61.0677 249.36C61.6677 249.013 62.3943 248.84 63.2477 248.84V250.72H62.7677C60.7277 250.72 59.7077 251.827 59.7077 254.04V260H57.8877V249.04H59.7077V250.82ZM70.6886 248.84C72.0219 248.84 73.1019 249.247 73.9286 250.06C74.7553 250.86 75.1686 252.02 75.1686 253.54V260H73.3686V253.8C73.3686 252.707 73.0953 251.873 72.5486 251.3C72.0019 250.713 71.2553 250.42 70.3086 250.42C69.3486 250.42 68.5819 250.72 68.0086 251.32C67.4486 251.92 67.1686 252.793 67.1686 253.94V260H65.3486V249.04H67.1686V250.6C67.5286 250.04 68.0153 249.607 68.6286 249.3C69.2553 248.993 69.9419 248.84 70.6886 248.84ZM77.4616 254.48C77.4616 253.36 77.6882 252.38 78.1416 251.54C78.5949 250.687 79.2149 250.027 80.0016 249.56C80.8016 249.093 81.6882 248.86 82.6616 248.86C83.6216 248.86 84.4549 249.067 85.1616 249.48C85.8682 249.893 86.3949 250.413 86.7416 251.04V249.04H88.5816V260H86.7416V257.96C86.3816 258.6 85.8416 259.133 85.1216 259.56C84.4149 259.973 83.5882 260.18 82.6416 260.18C81.6682 260.18 80.7882 259.94 80.0016 259.46C79.2149 258.98 78.5949 258.307 78.1416 257.44C77.6882 256.573 77.4616 255.587 77.4616 254.48ZM86.7416 254.5C86.7416 253.673 86.5749 252.953 86.2416 252.34C85.9082 251.727 85.4549 251.26 84.8816 250.94C84.3216 250.607 83.7016 250.44 83.0216 250.44C82.3416 250.44 81.7216 250.6 81.1616 250.92C80.6016 251.24 80.1549 251.707 79.8216 252.32C79.4882 252.933 79.3216 253.653 79.3216 254.48C79.3216 255.32 79.4882 256.053 79.8216 256.68C80.1549 257.293 80.6016 257.767 81.1616 258.1C81.7216 258.42 82.3416 258.58 83.0216 258.58C83.7016 258.58 84.3216 258.42 84.8816 258.1C85.4549 257.767 85.9082 257.293 86.2416 256.68C86.5749 256.053 86.7416 255.327 86.7416 254.5ZM104.837 248.84C105.691 248.84 106.451 249.02 107.117 249.38C107.784 249.727 108.311 250.253 108.697 250.96C109.084 251.667 109.277 252.527 109.277 253.54V260H107.477V253.8C107.477 252.707 107.204 251.873 106.657 251.3C106.124 250.713 105.397 250.42 104.477 250.42C103.531 250.42 102.777 250.727 102.217 251.34C101.657 251.94 101.377 252.813 101.377 253.96V260H99.5772V253.8C99.5772 252.707 99.3039 251.873 98.7572 251.3C98.2239 250.713 97.4972 250.42 96.5772 250.42C95.6305 250.42 94.8772 250.727 94.3172 251.34C93.7572 251.94 93.4772 252.813 93.4772 253.96V260H91.6572V249.04H93.4772V250.62C93.8372 250.047 94.3172 249.607 94.9172 249.3C95.5305 248.993 96.2039 248.84 96.9372 248.84C97.8572 248.84 98.6705 249.047 99.3772 249.46C100.084 249.873 100.611 250.48 100.957 251.28C101.264 250.507 101.771 249.907 102.477 249.48C103.184 249.053 103.971 248.84 104.837 248.84ZM122.263 254.1C122.263 254.447 122.243 254.813 122.203 255.2H113.443C113.509 256.28 113.876 257.127 114.543 257.74C115.223 258.34 116.043 258.64 117.003 258.64C117.789 258.64 118.443 258.46 118.963 258.1C119.496 257.727 119.869 257.233 120.083 256.62H122.043C121.749 257.673 121.163 258.533 120.283 259.2C119.403 259.853 118.309 260.18 117.003 260.18C115.963 260.18 115.029 259.947 114.203 259.48C113.389 259.013 112.749 258.353 112.283 257.5C111.816 256.633 111.583 255.633 111.583 254.5C111.583 253.367 111.809 252.373 112.263 251.52C112.716 250.667 113.349 250.013 114.163 249.56C114.989 249.093 115.936 248.86 117.003 248.86C118.043 248.86 118.963 249.087 119.763 249.54C120.563 249.993 121.176 250.62 121.603 251.42C122.043 252.207 122.263 253.1 122.263 254.1ZM120.383 253.72C120.383 253.027 120.229 252.433 119.923 251.94C119.616 251.433 119.196 251.053 118.663 250.8C118.143 250.533 117.563 250.4 116.923 250.4C116.003 250.4 115.216 250.693 114.563 251.28C113.923 251.867 113.556 252.68 113.463 253.72H120.383Z" fill="white"/>
<rect x="20" y="276" width="388" height="65" rx="5" fill="#786B7D" fill-opacity="0.28"/>
<path d="M40.32 301.06V309.88C40.32 311.12 40.62 312.04 41.22 312.64C41.8333 313.24 42.68 313.54 43.76 313.54C44.8267 313.54 45.66 313.24 46.26 312.64C46.8733 312.04 47.18 311.12 47.18 309.88V301.06H49V309.86C49 311.02 48.7667 312 48.3 312.8C47.8333 313.587 47.2 314.173 46.4 314.56C45.6133 314.947 44.7267 315.14 43.74 315.14C42.7533 315.14 41.86 314.947 41.06 314.56C40.2733 314.173 39.6467 313.587 39.18 312.8C38.7267 312 38.5 311.02 38.5 309.86V301.06H40.32ZM55.9161 315.18C55.0761 315.18 54.3228 315.04 53.6561 314.76C52.9894 314.467 52.4628 314.067 52.0761 313.56C51.6894 313.04 51.4761 312.447 51.4361 311.78H53.3161C53.3694 312.327 53.6228 312.773 54.0761 313.12C54.5428 313.467 55.1494 313.64 55.8961 313.64C56.5894 313.64 57.1361 313.487 57.5361 313.18C57.9361 312.873 58.1361 312.487 58.1361 312.02C58.1361 311.54 57.9228 311.187 57.4961 310.96C57.0694 310.72 56.4094 310.487 55.5161 310.26C54.7028 310.047 54.0361 309.833 53.5161 309.62C53.0094 309.393 52.5694 309.067 52.1961 308.64C51.8361 308.2 51.6561 307.627 51.6561 306.92C51.6561 306.36 51.8228 305.847 52.1561 305.38C52.4894 304.913 52.9628 304.547 53.5761 304.28C54.1894 304 54.8894 303.86 55.6761 303.86C56.8894 303.86 57.8694 304.167 58.6161 304.78C59.3628 305.393 59.7628 306.233 59.8161 307.3H57.9961C57.9561 306.727 57.7228 306.267 57.2961 305.92C56.8828 305.573 56.3228 305.4 55.6161 305.4C54.9628 305.4 54.4428 305.54 54.0561 305.82C53.6694 306.1 53.4761 306.467 53.4761 306.92C53.4761 307.28 53.5894 307.58 53.8161 307.82C54.0561 308.047 54.3494 308.233 54.6961 308.38C55.0561 308.513 55.5494 308.667 56.1761 308.84C56.9628 309.053 57.6028 309.267 58.0961 309.48C58.5894 309.68 59.0094 309.987 59.3561 310.4C59.7161 310.813 59.9028 311.353 59.9161 312.02C59.9161 312.62 59.7494 313.16 59.4161 313.64C59.0828 314.12 58.6094 314.5 57.9961 314.78C57.3961 315.047 56.7028 315.18 55.9161 315.18ZM72.4853 309.1C72.4853 309.447 72.4653 309.813 72.4253 310.2H63.6653C63.732 311.28 64.0986 312.127 64.7653 312.74C65.4453 313.34 66.2653 313.64 67.2253 313.64C68.012 313.64 68.6653 313.46 69.1853 313.1C69.7186 312.727 70.092 312.233 70.3053 311.62H72.2653C71.972 312.673 71.3853 313.533 70.5053 314.2C69.6253 314.853 68.532 315.18 67.2253 315.18C66.1853 315.18 65.252 314.947 64.4253 314.48C63.612 314.013 62.972 313.353 62.5053 312.5C62.0386 311.633 61.8053 310.633 61.8053 309.5C61.8053 308.367 62.032 307.373 62.4853 306.52C62.9386 305.667 63.572 305.013 64.3853 304.56C65.212 304.093 66.1586 303.86 67.2253 303.86C68.2653 303.86 69.1853 304.087 69.9853 304.54C70.7853 304.993 71.3986 305.62 71.8253 306.42C72.2653 307.207 72.4853 308.1 72.4853 309.1ZM70.6053 308.72C70.6053 308.027 70.452 307.433 70.1453 306.94C69.8386 306.433 69.4186 306.053 68.8853 305.8C68.3653 305.533 67.7853 305.4 67.1453 305.4C66.2253 305.4 65.4386 305.693 64.7853 306.28C64.1453 306.867 63.7786 307.68 63.6853 308.72H70.6053ZM76.7077 305.82C77.0277 305.193 77.481 304.707 78.0677 304.36C78.6677 304.013 79.3943 303.84 80.2477 303.84V305.72H79.7677C77.7277 305.72 76.7077 306.827 76.7077 309.04V315H74.8877V304.04H76.7077V305.82ZM87.6886 303.84C89.0219 303.84 90.1019 304.247 90.9286 305.06C91.7553 305.86 92.1686 307.02 92.1686 308.54V315H90.3686V308.8C90.3686 307.707 90.0953 306.873 89.5486 306.3C89.0019 305.713 88.2553 305.42 87.3086 305.42C86.3486 305.42 85.5819 305.72 85.0086 306.32C84.4486 306.92 84.1686 307.793 84.1686 308.94V315H82.3486V304.04H84.1686V305.6C84.5286 305.04 85.0153 304.607 85.6286 304.3C86.2553 303.993 86.9419 303.84 87.6886 303.84ZM94.4616 309.48C94.4616 308.36 94.6882 307.38 95.1416 306.54C95.5949 305.687 96.2149 305.027 97.0016 304.56C97.8016 304.093 98.6882 303.86 99.6616 303.86C100.622 303.86 101.455 304.067 102.162 304.48C102.868 304.893 103.395 305.413 103.742 306.04V304.04H105.582V315H103.742V312.96C103.382 313.6 102.842 314.133 102.122 314.56C101.415 314.973 100.588 315.18 99.6416 315.18C98.6682 315.18 97.7882 314.94 97.0016 314.46C96.2149 313.98 95.5949 313.307 95.1416 312.44C94.6882 311.573 94.4616 310.587 94.4616 309.48ZM103.742 309.5C103.742 308.673 103.575 307.953 103.242 307.34C102.908 306.727 102.455 306.26 101.882 305.94C101.322 305.607 100.702 305.44 100.022 305.44C99.3416 305.44 98.7216 305.6 98.1616 305.92C97.6016 306.24 97.1549 306.707 96.8216 307.32C96.4882 307.933 96.3216 308.653 96.3216 309.48C96.3216 310.32 96.4882 311.053 96.8216 311.68C97.1549 312.293 97.6016 312.767 98.1616 313.1C98.7216 313.42 99.3416 313.58 100.022 313.58C100.702 313.58 101.322 313.42 101.882 313.1C102.455 312.767 102.908 312.293 103.242 311.68C103.575 311.053 103.742 310.327 103.742 309.5ZM121.837 303.84C122.691 303.84 123.451 304.02 124.117 304.38C124.784 304.727 125.311 305.253 125.697 305.96C126.084 306.667 126.277 307.527 126.277 308.54V315H124.477V308.8C124.477 307.707 124.204 306.873 123.657 306.3C123.124 305.713 122.397 305.42 121.477 305.42C120.531 305.42 119.777 305.727 119.217 306.34C118.657 306.94 118.377 307.813 118.377 308.96V315H116.577V308.8C116.577 307.707 116.304 306.873 115.757 306.3C115.224 305.713 114.497 305.42 113.577 305.42C112.631 305.42 111.877 305.727 111.317 306.34C110.757 306.94 110.477 307.813 110.477 308.96V315H108.657V304.04H110.477V305.62C110.837 305.047 111.317 304.607 111.917 304.3C112.531 303.993 113.204 303.84 113.937 303.84C114.857 303.84 115.671 304.047 116.377 304.46C117.084 304.873 117.611 305.48 117.957 306.28C118.264 305.507 118.771 304.907 119.477 304.48C120.184 304.053 120.971 303.84 121.837 303.84ZM139.263 309.1C139.263 309.447 139.243 309.813 139.203 310.2H130.443C130.509 311.28 130.876 312.127 131.543 312.74C132.223 313.34 133.043 313.64 134.003 313.64C134.789 313.64 135.443 313.46 135.963 313.1C136.496 312.727 136.869 312.233 137.083 311.62H139.043C138.749 312.673 138.163 313.533 137.283 314.2C136.403 314.853 135.309 315.18 134.003 315.18C132.963 315.18 132.029 314.947 131.203 314.48C130.389 314.013 129.749 313.353 129.283 312.5C128.816 311.633 128.583 310.633 128.583 309.5C128.583 308.367 128.809 307.373 129.263 306.52C129.716 305.667 130.349 305.013 131.163 304.56C131.989 304.093 132.936 303.86 134.003 303.86C135.043 303.86 135.963 304.087 136.763 304.54C137.563 304.993 138.176 305.62 138.603 306.42C139.043 307.207 139.263 308.1 139.263 309.1ZM137.383 308.72C137.383 308.027 137.229 307.433 136.923 306.94C136.616 306.433 136.196 306.053 135.663 305.8C135.143 305.533 134.563 305.4 133.923 305.4C133.003 305.4 132.216 305.693 131.563 306.28C130.923 306.867 130.556 307.68 130.463 308.72H137.383Z" fill="#6C6767"/>
<rect x="20" y="399" width="388" height="65" rx="5" fill="#786B7D" fill-opacity="0.28"/>
<path d="M40.36 430.68V425.56H43.04C45.12 425.56 46 426.52 46 428.14C46 429.7 45.12 430.68 43.04 430.68H40.36ZM47.86 428.14C47.86 425.86 46.32 424.06 43.04 424.06H38.54V438H40.36V432.18H43.04C46.5 432.18 47.86 430.26 47.86 428.14ZM49.442 432.48C49.442 435.88 51.702 438.18 54.622 438.18C56.642 438.18 58.062 437.14 58.722 435.96V438H60.562V427.04H58.722V429.04C58.082 427.9 56.682 426.86 54.642 426.86C51.702 426.86 49.442 429.06 49.442 432.48ZM58.722 432.5C58.722 435.08 57.002 436.58 55.002 436.58C53.002 436.58 51.302 435.06 51.302 432.48C51.302 429.9 53.002 428.44 55.002 428.44C57.002 428.44 58.722 429.96 58.722 432.5ZM71.5177 435.02C71.4377 431.1 65.0777 432.52 65.0777 429.92C65.0777 429.04 65.8777 428.4 67.2177 428.4C68.6777 428.4 69.5177 429.2 69.5977 430.3H71.4177C71.2977 428.16 69.6977 426.86 67.2777 426.86C64.8377 426.86 63.2577 428.24 63.2577 429.92C63.2577 434 69.7377 432.58 69.7377 435.02C69.7377 435.92 68.9377 436.64 67.4977 436.64C65.9577 436.64 65.0177 435.84 64.9177 434.78H63.0377C63.1577 436.78 64.9577 438.18 67.5177 438.18C69.9377 438.18 71.5177 436.82 71.5177 435.02ZM81.9669 435.02C81.8869 431.1 75.5269 432.52 75.5269 429.92C75.5269 429.04 76.3269 428.4 77.6669 428.4C79.1269 428.4 79.9669 429.2 80.0469 430.3H81.8669C81.7469 428.16 80.1469 426.86 77.7269 426.86C75.2869 426.86 73.7069 428.24 73.7069 429.92C73.7069 434 80.1869 432.58 80.1869 435.02C80.1869 435.92 79.3869 436.64 77.9469 436.64C76.4069 436.64 75.4669 435.84 75.3669 434.78H73.4869C73.6069 436.78 75.4069 438.18 77.9669 438.18C80.3869 438.18 81.9669 436.82 81.9669 435.02ZM86.6761 438H88.5561L91.1961 429.3L93.8361 438H95.7161L99.1361 427.04H97.3361L94.8561 436.26L92.1961 427.04H90.3361L87.6161 436.24L85.0961 427.04H83.2361L86.6761 438ZM111.342 432.5C111.342 429.04 108.922 426.86 105.802 426.86C102.702 426.86 100.262 429.04 100.262 432.5C100.262 435.98 102.622 438.18 105.722 438.18C108.842 438.18 111.342 435.98 111.342 432.5ZM102.122 432.5C102.122 429.74 103.862 428.44 105.782 428.44C107.662 428.44 109.482 429.74 109.482 432.5C109.482 435.28 107.622 436.58 105.722 436.58C103.822 436.58 102.122 435.28 102.122 432.5ZM115.555 432.04C115.555 429.5 116.875 428.72 118.615 428.72H119.095V426.84C117.355 426.84 116.175 427.6 115.555 428.82V427.04H113.735V438H115.555V432.04ZM120.516 432.48C120.516 435.88 122.776 438.18 125.716 438.18C127.716 438.18 129.136 437.16 129.796 435.94V438H131.636V423.2H129.796V429C129.036 427.74 127.456 426.86 125.736 426.86C122.776 426.86 120.516 429.06 120.516 432.48ZM129.796 432.5C129.796 435.08 128.076 436.58 126.076 436.58C124.076 436.58 122.376 435.06 122.376 432.48C122.376 429.9 124.076 428.44 126.076 428.44C128.076 428.44 129.796 429.96 129.796 432.5Z" fill="#6C6767"/>
<path d="M30.86 373.14C30.86 374.3 30.46 375.267 29.66 376.04C28.8733 376.8 27.6667 377.18 26.04 377.18H23.36V383H21.54V369.06H26.04C27.6133 369.06 28.8067 369.44 29.62 370.2C30.4467 370.96 30.86 371.94 30.86 373.14ZM26.04 375.68C27.0533 375.68 27.8 375.46 28.28 375.02C28.76 374.58 29 373.953 29 373.14C29 371.42 28.0133 370.56 26.04 370.56H23.36V375.68H26.04ZM32.442 377.48C32.442 376.36 32.6687 375.38 33.122 374.54C33.5754 373.687 34.1954 373.027 34.982 372.56C35.782 372.093 36.6687 371.86 37.642 371.86C38.602 371.86 39.4354 372.067 40.142 372.48C40.8487 372.893 41.3754 373.413 41.722 374.04V372.04H43.562V383H41.722V380.96C41.362 381.6 40.822 382.133 40.102 382.56C39.3954 382.973 38.5687 383.18 37.622 383.18C36.6487 383.18 35.7687 382.94 34.982 382.46C34.1954 381.98 33.5754 381.307 33.122 380.44C32.6687 379.573 32.442 378.587 32.442 377.48ZM41.722 377.5C41.722 376.673 41.5554 375.953 41.222 375.34C40.8887 374.727 40.4354 374.26 39.862 373.94C39.302 373.607 38.682 373.44 38.002 373.44C37.322 373.44 36.702 373.6 36.142 373.92C35.582 374.24 35.1354 374.707 34.802 375.32C34.4687 375.933 34.302 376.653 34.302 377.48C34.302 378.32 34.4687 379.053 34.802 379.68C35.1354 380.293 35.582 380.767 36.142 381.1C36.702 381.42 37.322 381.58 38.002 381.58C38.682 381.58 39.302 381.42 39.862 381.1C40.4354 380.767 40.8887 380.293 41.222 379.68C41.5554 379.053 41.722 378.327 41.722 377.5ZM50.5177 383.18C49.6777 383.18 48.9243 383.04 48.2577 382.76C47.591 382.467 47.0643 382.067 46.6777 381.56C46.291 381.04 46.0777 380.447 46.0377 379.78H47.9177C47.971 380.327 48.2243 380.773 48.6777 381.12C49.1443 381.467 49.751 381.64 50.4977 381.64C51.191 381.64 51.7377 381.487 52.1377 381.18C52.5377 380.873 52.7377 380.487 52.7377 380.02C52.7377 379.54 52.5243 379.187 52.0977 378.96C51.671 378.72 51.011 378.487 50.1177 378.26C49.3043 378.047 48.6377 377.833 48.1177 377.62C47.611 377.393 47.171 377.067 46.7977 376.64C46.4377 376.2 46.2577 375.627 46.2577 374.92C46.2577 374.36 46.4243 373.847 46.7577 373.38C47.091 372.913 47.5643 372.547 48.1777 372.28C48.791 372 49.491 371.86 50.2777 371.86C51.491 371.86 52.471 372.167 53.2177 372.78C53.9643 373.393 54.3643 374.233 54.4177 375.3H52.5977C52.5577 374.727 52.3243 374.267 51.8977 373.92C51.4843 373.573 50.9243 373.4 50.2177 373.4C49.5643 373.4 49.0443 373.54 48.6577 373.82C48.271 374.1 48.0777 374.467 48.0777 374.92C48.0777 375.28 48.191 375.58 48.4177 375.82C48.6577 376.047 48.951 376.233 49.2977 376.38C49.6577 376.513 50.151 376.667 50.7777 376.84C51.5643 377.053 52.2043 377.267 52.6977 377.48C53.191 377.68 53.611 377.987 53.9577 378.4C54.3177 378.813 54.5043 379.353 54.5177 380.02C54.5177 380.62 54.351 381.16 54.0177 381.64C53.6843 382.12 53.211 382.5 52.5977 382.78C51.9977 383.047 51.3043 383.18 50.5177 383.18ZM60.9669 383.18C60.1269 383.18 59.3735 383.04 58.7069 382.76C58.0402 382.467 57.5135 382.067 57.1269 381.56C56.7402 381.04 56.5269 380.447 56.4869 379.78H58.3669C58.4202 380.327 58.6735 380.773 59.1269 381.12C59.5935 381.467 60.2002 381.64 60.9469 381.64C61.6402 381.64 62.1869 381.487 62.5869 381.18C62.9869 380.873 63.1869 380.487 63.1869 380.02C63.1869 379.54 62.9735 379.187 62.5469 378.96C62.1202 378.72 61.4602 378.487 60.5669 378.26C59.7535 378.047 59.0869 377.833 58.5669 377.62C58.0602 377.393 57.6202 377.067 57.2469 376.64C56.8869 376.2 56.7069 375.627 56.7069 374.92C56.7069 374.36 56.8735 373.847 57.2069 373.38C57.5402 372.913 58.0135 372.547 58.6269 372.28C59.2402 372 59.9402 371.86 60.7269 371.86C61.9402 371.86 62.9202 372.167 63.6669 372.78C64.4135 373.393 64.8135 374.233 64.8669 375.3H63.0469C63.0069 374.727 62.7735 374.267 62.3469 373.92C61.9335 373.573 61.3735 373.4 60.6669 373.4C60.0135 373.4 59.4935 373.54 59.1069 373.82C58.7202 374.1 58.5269 374.467 58.5269 374.92C58.5269 375.28 58.6402 375.58 58.8669 375.82C59.1069 376.047 59.4002 376.233 59.7469 376.38C60.1069 376.513 60.6002 376.667 61.2269 376.84C62.0135 377.053 62.6535 377.267 63.1469 377.48C63.6402 377.68 64.0602 377.987 64.4069 378.4C64.7669 378.813 64.9535 379.353 64.9669 380.02C64.9669 380.62 64.8002 381.16 64.4669 381.64C64.1335 382.12 63.6602 382.5 63.0469 382.78C62.4469 383.047 61.7535 383.18 60.9669 383.18ZM82.1361 372.04L78.7161 383H76.8361L74.1961 374.3L71.5561 383H69.6761L66.2361 372.04H68.0961L70.6161 381.24L73.3361 372.04H75.1961L77.8561 381.26L80.3361 372.04H82.1361ZM88.7223 383.18C87.6957 383.18 86.7623 382.947 85.9223 382.48C85.0957 382.013 84.4423 381.353 83.9623 380.5C83.4957 379.633 83.2623 378.633 83.2623 377.5C83.2623 376.38 83.5023 375.393 83.9823 374.54C84.4757 373.673 85.1423 373.013 85.9823 372.56C86.8223 372.093 87.7623 371.86 88.8023 371.86C89.8423 371.86 90.7823 372.093 91.6223 372.56C92.4623 373.013 93.1223 373.667 93.6023 374.52C94.0957 375.373 94.3423 376.367 94.3423 377.5C94.3423 378.633 94.089 379.633 93.5823 380.5C93.089 381.353 92.4157 382.013 91.5623 382.48C90.709 382.947 89.7623 383.18 88.7223 383.18ZM88.7223 381.58C89.3757 381.58 89.989 381.427 90.5623 381.12C91.1357 380.813 91.5957 380.353 91.9423 379.74C92.3023 379.127 92.4823 378.38 92.4823 377.5C92.4823 376.62 92.309 375.873 91.9623 375.26C91.6157 374.647 91.1623 374.193 90.6023 373.9C90.0423 373.593 89.4357 373.44 88.7823 373.44C88.1157 373.44 87.5023 373.593 86.9423 373.9C86.3957 374.193 85.9557 374.647 85.6223 375.26C85.289 375.873 85.1223 376.62 85.1223 377.5C85.1223 378.393 85.2823 379.147 85.6023 379.76C85.9357 380.373 86.3757 380.833 86.9223 381.14C87.469 381.433 88.069 381.58 88.7223 381.58ZM98.5553 373.82C98.8753 373.193 99.3286 372.707 99.9153 372.36C100.515 372.013 101.242 371.84 102.095 371.84V373.72H101.615C99.5753 373.72 98.5553 374.827 98.5553 377.04V383H96.7353V372.04H98.5553V373.82ZM103.516 377.48C103.516 376.36 103.743 375.38 104.196 374.54C104.65 373.687 105.27 373.027 106.056 372.56C106.856 372.093 107.75 371.86 108.736 371.86C109.59 371.86 110.383 372.06 111.116 372.46C111.85 372.847 112.41 373.36 112.796 374V368.2H114.636V383H112.796V380.94C112.436 381.593 111.903 382.133 111.196 382.56C110.49 382.973 109.663 383.18 108.716 383.18C107.743 383.18 106.856 382.94 106.056 382.46C105.27 381.98 104.65 381.307 104.196 380.44C103.743 379.573 103.516 378.587 103.516 377.48ZM112.796 377.5C112.796 376.673 112.63 375.953 112.296 375.34C111.963 374.727 111.51 374.26 110.936 373.94C110.376 373.607 109.756 373.44 109.076 373.44C108.396 373.44 107.776 373.6 107.216 373.92C106.656 374.24 106.21 374.707 105.876 375.32C105.543 375.933 105.376 376.653 105.376 377.48C105.376 378.32 105.543 379.053 105.876 379.68C106.21 380.293 106.656 380.767 107.216 381.1C107.776 381.42 108.396 381.58 109.076 381.58C109.756 381.58 110.376 381.42 110.936 381.1C111.51 380.767 111.963 380.293 112.296 379.68C112.63 379.053 112.796 378.327 112.796 377.5Z" fill="white"/>
<path d="M97.1181 660.848C98.3341 660.848 99.3847 661.077 100.27 661.536C101.166 661.984 101.849 662.629 102.318 663.472C102.798 664.315 103.038 665.307 103.038 666.448C103.038 667.589 102.798 668.581 102.318 669.424C101.849 670.256 101.166 670.896 100.27 671.344C99.3847 671.781 98.3341 672 97.1181 672H93.6461V660.848H97.1181ZM97.1181 670.8C98.5581 670.8 99.6567 670.421 100.414 669.664C101.171 668.896 101.55 667.824 101.55 666.448C101.55 665.061 101.166 663.979 100.398 663.2C99.6407 662.421 98.5474 662.032 97.1181 662.032H95.1021V670.8H97.1181ZM108.783 672.144C107.961 672.144 107.215 671.957 106.543 671.584C105.881 671.211 105.359 670.683 104.975 670C104.601 669.307 104.415 668.507 104.415 667.6C104.415 666.704 104.607 665.915 104.991 665.232C105.385 664.539 105.919 664.011 106.591 663.648C107.263 663.275 108.015 663.088 108.847 663.088C109.679 663.088 110.431 663.275 111.103 663.648C111.775 664.011 112.303 664.533 112.687 665.216C113.081 665.899 113.279 666.693 113.279 667.6C113.279 668.507 113.076 669.307 112.671 670C112.276 670.683 111.737 671.211 111.055 671.584C110.372 671.957 109.615 672.144 108.783 672.144ZM108.783 670.864C109.305 670.864 109.796 670.741 110.255 670.496C110.713 670.251 111.081 669.883 111.359 669.392C111.647 668.901 111.791 668.304 111.791 667.6C111.791 666.896 111.652 666.299 111.375 665.808C111.097 665.317 110.735 664.955 110.287 664.72C109.839 664.475 109.353 664.352 108.831 664.352C108.297 664.352 107.807 664.475 107.359 664.72C106.921 664.955 106.569 665.317 106.303 665.808C106.036 666.299 105.903 666.896 105.903 667.6C105.903 668.315 106.031 668.917 106.287 669.408C106.553 669.899 106.905 670.267 107.343 670.512C107.78 670.747 108.26 670.864 108.783 670.864ZM119.465 663.072C120.532 663.072 121.396 663.397 122.057 664.048C122.718 664.688 123.049 665.616 123.049 666.832V672H121.609V667.04C121.609 666.165 121.39 665.499 120.953 665.04C120.516 664.571 119.918 664.336 119.161 664.336C118.393 664.336 117.78 664.576 117.321 665.056C116.873 665.536 116.649 666.235 116.649 667.152V672H115.193V663.232H116.649V664.48C116.937 664.032 117.326 663.685 117.817 663.44C118.318 663.195 118.868 663.072 119.465 663.072ZM127.203 664.432V669.6C127.203 670.027 127.294 670.331 127.475 670.512C127.657 670.683 127.971 670.768 128.419 670.768H129.491V672H128.179C127.369 672 126.761 671.813 126.355 671.44C125.95 671.067 125.747 670.453 125.747 669.6V664.432H124.611V663.232H125.747V661.024H127.203V663.232H129.491V664.432H127.203ZM139.873 663.072C140.534 663.072 141.132 663.216 141.665 663.504C142.198 663.781 142.614 664.203 142.913 664.768C143.222 665.333 143.377 666.021 143.377 666.832V672H141.937V667.04C141.937 666.165 141.718 665.499 141.281 665.04C140.844 664.571 140.246 664.336 139.489 664.336C138.721 664.336 138.108 664.576 137.649 665.056C137.201 665.536 136.977 666.235 136.977 667.152V672H135.521V660.16H136.977V664.48C137.265 664.032 137.66 663.685 138.161 663.44C138.673 663.195 139.244 663.072 139.873 663.072ZM145.211 667.584C145.211 666.688 145.393 665.904 145.755 665.232C146.118 664.549 146.614 664.021 147.243 663.648C147.883 663.275 148.593 663.088 149.371 663.088C150.139 663.088 150.806 663.253 151.371 663.584C151.937 663.915 152.358 664.331 152.635 664.832V663.232H154.107V672H152.635V670.368C152.347 670.88 151.915 671.307 151.339 671.648C150.774 671.979 150.113 672.144 149.355 672.144C148.577 672.144 147.873 671.952 147.243 671.568C146.614 671.184 146.118 670.645 145.755 669.952C145.393 669.259 145.211 668.469 145.211 667.584ZM152.635 667.6C152.635 666.939 152.502 666.363 152.235 665.872C151.969 665.381 151.606 665.008 151.147 664.752C150.699 664.485 150.203 664.352 149.659 664.352C149.115 664.352 148.619 664.48 148.171 664.736C147.723 664.992 147.366 665.365 147.099 665.856C146.833 666.347 146.699 666.923 146.699 667.584C146.699 668.256 146.833 668.843 147.099 669.344C147.366 669.835 147.723 670.213 148.171 670.48C148.619 670.736 149.115 670.864 149.659 670.864C150.203 670.864 150.699 670.736 151.147 670.48C151.606 670.213 151.969 669.835 152.235 669.344C152.502 668.843 152.635 668.261 152.635 667.6ZM159.832 670.656L162.552 663.232H164.104L160.664 672H158.968L155.528 663.232H157.096L159.832 670.656ZM173.537 667.28C173.537 667.557 173.521 667.851 173.489 668.16H166.481C166.534 669.024 166.827 669.701 167.361 670.192C167.905 670.672 168.561 670.912 169.329 670.912C169.958 670.912 170.481 670.768 170.897 670.48C171.323 670.181 171.622 669.787 171.793 669.296H173.361C173.126 670.139 172.657 670.827 171.953 671.36C171.249 671.883 170.374 672.144 169.329 672.144C168.497 672.144 167.75 671.957 167.089 671.584C166.438 671.211 165.926 670.683 165.553 670C165.179 669.307 164.993 668.507 164.993 667.6C164.993 666.693 165.174 665.899 165.537 665.216C165.899 664.533 166.406 664.011 167.057 663.648C167.718 663.275 168.475 663.088 169.329 663.088C170.161 663.088 170.897 663.269 171.537 663.632C172.177 663.995 172.667 664.496 173.009 665.136C173.361 665.765 173.537 666.48 173.537 667.28ZM172.033 666.976C172.033 666.421 171.91 665.947 171.665 665.552C171.419 665.147 171.083 664.843 170.657 664.64C170.241 664.427 169.777 664.32 169.265 664.32C168.529 664.32 167.899 664.555 167.377 665.024C166.865 665.493 166.571 666.144 166.497 666.976H172.033ZM179.18 667.584C179.18 666.688 179.362 665.904 179.724 665.232C180.087 664.549 180.583 664.021 181.212 663.648C181.852 663.275 182.562 663.088 183.34 663.088C184.108 663.088 184.775 663.253 185.34 663.584C185.906 663.915 186.327 664.331 186.604 664.832V663.232H188.076V672H186.604V670.368C186.316 670.88 185.884 671.307 185.308 671.648C184.743 671.979 184.082 672.144 183.324 672.144C182.546 672.144 181.842 671.952 181.212 671.568C180.583 671.184 180.087 670.645 179.724 669.952C179.362 669.259 179.18 668.469 179.18 667.584ZM186.604 667.6C186.604 666.939 186.471 666.363 186.204 665.872C185.938 665.381 185.575 665.008 185.116 664.752C184.668 664.485 184.172 664.352 183.628 664.352C183.084 664.352 182.588 664.48 182.14 664.736C181.692 664.992 181.335 665.365 181.068 665.856C180.802 666.347 180.668 666.923 180.668 667.584C180.668 668.256 180.802 668.843 181.068 669.344C181.335 669.835 181.692 670.213 182.14 670.48C182.588 670.736 183.084 670.864 183.628 670.864C184.172 670.864 184.668 670.736 185.116 670.48C185.575 670.213 185.938 669.835 186.204 669.344C186.471 668.843 186.604 668.261 186.604 667.6ZM194.809 663.072C195.875 663.072 196.739 663.397 197.401 664.048C198.062 664.688 198.393 665.616 198.393 666.832V672H196.953V667.04C196.953 666.165 196.734 665.499 196.297 665.04C195.859 664.571 195.262 664.336 194.505 664.336C193.737 664.336 193.123 664.576 192.665 665.056C192.217 665.536 191.993 666.235 191.993 667.152V672H190.537V663.232H191.993V664.48C192.281 664.032 192.67 663.685 193.161 663.44C193.662 663.195 194.211 663.072 194.809 663.072ZM204.493 667.584C204.493 666.688 204.674 665.904 205.037 665.232C205.399 664.549 205.895 664.021 206.525 663.648C207.165 663.275 207.874 663.088 208.653 663.088C209.421 663.088 210.087 663.253 210.653 663.584C211.218 663.915 211.639 664.331 211.917 664.832V663.232H213.389V672H211.917V670.368C211.629 670.88 211.197 671.307 210.621 671.648C210.055 671.979 209.394 672.144 208.637 672.144C207.858 672.144 207.154 671.952 206.525 671.568C205.895 671.184 205.399 670.645 205.037 669.952C204.674 669.259 204.493 668.469 204.493 667.584ZM211.917 667.6C211.917 666.939 211.783 666.363 211.517 665.872C211.25 665.381 210.887 665.008 210.429 664.752C209.981 664.485 209.485 664.352 208.941 664.352C208.397 664.352 207.901 664.48 207.453 664.736C207.005 664.992 206.647 665.365 206.381 665.856C206.114 666.347 205.981 666.923 205.981 667.584C205.981 668.256 206.114 668.843 206.381 669.344C206.647 669.835 207.005 670.213 207.453 670.48C207.901 670.736 208.397 670.864 208.941 670.864C209.485 670.864 209.981 670.736 210.429 670.48C210.887 670.213 211.25 669.835 211.517 669.344C211.783 668.843 211.917 668.261 211.917 667.6ZM215.305 667.6C215.305 666.693 215.487 665.904 215.849 665.232C216.212 664.549 216.713 664.021 217.353 663.648C218.004 663.275 218.745 663.088 219.577 663.088C220.655 663.088 221.54 663.349 222.233 663.872C222.937 664.395 223.401 665.12 223.625 666.048H222.057C221.908 665.515 221.615 665.093 221.177 664.784C220.751 664.475 220.217 664.32 219.577 664.32C218.745 664.32 218.073 664.608 217.561 665.184C217.049 665.749 216.793 666.555 216.793 667.6C216.793 668.656 217.049 669.472 217.561 670.048C218.073 670.624 218.745 670.912 219.577 670.912C220.217 670.912 220.751 670.763 221.177 670.464C221.604 670.165 221.897 669.739 222.057 669.184H223.625C223.391 670.08 222.921 670.8 222.217 671.344C221.513 671.877 220.633 672.144 219.577 672.144C218.745 672.144 218.004 671.957 217.353 671.584C216.713 671.211 216.212 670.683 215.849 670C215.487 669.317 215.305 668.517 215.305 667.6ZM225.024 667.6C225.024 666.693 225.205 665.904 225.568 665.232C225.931 664.549 226.432 664.021 227.072 663.648C227.723 663.275 228.464 663.088 229.296 663.088C230.373 663.088 231.259 663.349 231.952 663.872C232.656 664.395 233.12 665.12 233.344 666.048H231.776C231.627 665.515 231.333 665.093 230.896 664.784C230.469 664.475 229.936 664.32 229.296 664.32C228.464 664.32 227.792 664.608 227.28 665.184C226.768 665.749 226.512 666.555 226.512 667.6C226.512 668.656 226.768 669.472 227.28 670.048C227.792 670.624 228.464 670.912 229.296 670.912C229.936 670.912 230.469 670.763 230.896 670.464C231.323 670.165 231.616 669.739 231.776 669.184H233.344C233.109 670.08 232.64 670.8 231.936 671.344C231.232 671.877 230.352 672.144 229.296 672.144C228.464 672.144 227.723 671.957 227.072 671.584C226.432 671.211 225.931 670.683 225.568 670C225.205 669.317 225.024 668.517 225.024 667.6ZM239.111 672.144C238.289 672.144 237.543 671.957 236.871 671.584C236.209 671.211 235.687 670.683 235.303 670C234.929 669.307 234.743 668.507 234.743 667.6C234.743 666.704 234.935 665.915 235.319 665.232C235.713 664.539 236.247 664.011 236.919 663.648C237.591 663.275 238.343 663.088 239.175 663.088C240.007 663.088 240.759 663.275 241.431 663.648C242.103 664.011 242.631 664.533 243.015 665.216C243.409 665.899 243.607 666.693 243.607 667.6C243.607 668.507 243.404 669.307 242.999 670C242.604 670.683 242.065 671.211 241.383 671.584C240.7 671.957 239.943 672.144 239.111 672.144ZM239.111 670.864C239.633 670.864 240.124 670.741 240.583 670.496C241.041 670.251 241.409 669.883 241.687 669.392C241.975 668.901 242.119 668.304 242.119 667.6C242.119 666.896 241.98 666.299 241.703 665.808C241.425 665.317 241.063 664.955 240.615 664.72C240.167 664.475 239.681 664.352 239.159 664.352C238.625 664.352 238.135 664.475 237.687 664.72C237.249 664.955 236.897 665.317 236.631 665.808C236.364 666.299 236.231 666.896 236.231 667.6C236.231 668.315 236.359 668.917 236.615 669.408C236.881 669.899 237.233 670.267 237.671 670.512C238.108 670.747 238.588 670.864 239.111 670.864ZM253.297 663.232V672H251.841V670.704C251.564 671.152 251.174 671.504 250.673 671.76C250.182 672.005 249.638 672.128 249.041 672.128C248.358 672.128 247.745 671.989 247.201 671.712C246.657 671.424 246.225 670.997 245.905 670.432C245.596 669.867 245.441 669.179 245.441 668.368V663.232H246.881V668.176C246.881 669.04 247.1 669.707 247.537 670.176C247.974 670.635 248.572 670.864 249.329 670.864C250.108 670.864 250.721 670.624 251.169 670.144C251.617 669.664 251.841 668.965 251.841 668.048V663.232H253.297ZM260.027 663.072C261.094 663.072 261.958 663.397 262.619 664.048C263.281 664.688 263.611 665.616 263.611 666.832V672H262.171V667.04C262.171 666.165 261.953 665.499 261.515 665.04C261.078 664.571 260.481 664.336 259.723 664.336C258.955 664.336 258.342 664.576 257.883 665.056C257.435 665.536 257.211 666.235 257.211 667.152V672H255.755V663.232H257.211V664.48C257.499 664.032 257.889 663.685 258.379 663.44C258.881 663.195 259.43 663.072 260.027 663.072ZM267.766 664.432V669.6C267.766 670.027 267.856 670.331 268.038 670.512C268.219 670.683 268.534 670.768 268.982 670.768H270.054V672H268.742C267.931 672 267.323 671.813 266.918 671.44C266.512 671.067 266.31 670.453 266.31 669.6V664.432H265.174V663.232H266.31V661.024H267.766V663.232H270.054V664.432H267.766Z" fill="white"/>
<path d="M279.908 672.112C279.086 672.112 278.35 671.979 277.7 671.712C277.049 671.445 276.526 671.051 276.132 670.528C275.748 670.005 275.545 669.376 275.524 668.64H278.436C278.478 669.056 278.622 669.376 278.868 669.6C279.113 669.813 279.433 669.92 279.828 669.92C280.233 669.92 280.553 669.829 280.788 669.648C281.022 669.456 281.14 669.195 281.14 668.864C281.14 668.587 281.044 668.357 280.852 668.176C280.67 667.995 280.441 667.845 280.164 667.728C279.897 667.611 279.513 667.477 279.012 667.328C278.286 667.104 277.694 666.88 277.236 666.656C276.777 666.432 276.382 666.101 276.052 665.664C275.721 665.227 275.556 664.656 275.556 663.952C275.556 662.907 275.934 662.091 276.692 661.504C277.449 660.907 278.436 660.608 279.652 660.608C280.889 660.608 281.886 660.907 282.644 661.504C283.401 662.091 283.806 662.912 283.86 663.968H280.9C280.878 663.605 280.745 663.323 280.5 663.12C280.254 662.907 279.94 662.8 279.556 662.8C279.225 662.8 278.958 662.891 278.756 663.072C278.553 663.243 278.452 663.493 278.452 663.824C278.452 664.187 278.622 664.469 278.964 664.672C279.305 664.875 279.838 665.093 280.564 665.328C281.289 665.573 281.876 665.808 282.324 666.032C282.782 666.256 283.177 666.581 283.508 667.008C283.838 667.435 284.004 667.984 284.004 668.656C284.004 669.296 283.838 669.877 283.508 670.4C283.188 670.923 282.718 671.339 282.1 671.648C281.481 671.957 280.75 672.112 279.908 672.112ZM287.063 662.144C286.583 662.144 286.189 662.005 285.879 661.728C285.581 661.44 285.431 661.088 285.431 660.672C285.431 660.245 285.581 659.893 285.879 659.616C286.189 659.328 286.583 659.184 287.063 659.184C287.533 659.184 287.917 659.328 288.215 659.616C288.525 659.893 288.679 660.245 288.679 660.672C288.679 661.088 288.525 661.44 288.215 661.728C287.917 662.005 287.533 662.144 287.063 662.144ZM288.423 663.072V672H285.687V663.072H288.423ZM293.798 662.944C294.427 662.944 294.977 663.072 295.446 663.328C295.926 663.584 296.294 663.92 296.55 664.336V663.072H299.286V671.984C299.286 672.805 299.121 673.547 298.79 674.208C298.47 674.88 297.974 675.413 297.302 675.808C296.641 676.203 295.814 676.4 294.822 676.4C293.499 676.4 292.427 676.085 291.606 675.456C290.785 674.837 290.315 673.995 290.198 672.928H292.902C292.987 673.269 293.19 673.536 293.51 673.728C293.83 673.931 294.225 674.032 294.694 674.032C295.259 674.032 295.707 673.867 296.038 673.536C296.379 673.216 296.55 672.699 296.55 671.984V670.72C296.283 671.136 295.915 671.477 295.446 671.744C294.977 672 294.427 672.128 293.798 672.128C293.062 672.128 292.395 671.941 291.798 671.568C291.201 671.184 290.726 670.645 290.374 669.952C290.033 669.248 289.862 668.437 289.862 667.52C289.862 666.603 290.033 665.797 290.374 665.104C290.726 664.411 291.201 663.877 291.798 663.504C292.395 663.131 293.062 662.944 293.798 662.944ZM296.55 667.536C296.55 666.853 296.358 666.315 295.974 665.92C295.601 665.525 295.142 665.328 294.598 665.328C294.054 665.328 293.59 665.525 293.206 665.92C292.833 666.304 292.646 666.837 292.646 667.52C292.646 668.203 292.833 668.747 293.206 669.152C293.59 669.547 294.054 669.744 294.598 669.744C295.142 669.744 295.601 669.547 295.974 669.152C296.358 668.757 296.55 668.219 296.55 667.536ZM306.705 662.976C307.751 662.976 308.583 663.317 309.201 664C309.831 664.672 310.145 665.6 310.145 666.784V672H307.425V667.152C307.425 666.555 307.271 666.091 306.961 665.76C306.652 665.429 306.236 665.264 305.713 665.264C305.191 665.264 304.775 665.429 304.465 665.76C304.156 666.091 304.001 666.555 304.001 667.152V672H301.265V663.072H304.001V664.256C304.279 663.861 304.652 663.552 305.121 663.328C305.591 663.093 306.119 662.976 306.705 662.976ZM318.125 660.768V667.488C318.125 668.16 318.291 668.677 318.621 669.04C318.952 669.403 319.437 669.584 320.077 669.584C320.717 669.584 321.208 669.403 321.549 669.04C321.891 668.677 322.061 668.16 322.061 667.488V660.768H324.797V667.472C324.797 668.475 324.584 669.323 324.157 670.016C323.731 670.709 323.155 671.232 322.429 671.584C321.715 671.936 320.915 672.112 320.029 672.112C319.144 672.112 318.349 671.941 317.645 671.6C316.952 671.248 316.403 670.725 315.997 670.032C315.592 669.328 315.389 668.475 315.389 667.472V660.768H318.125ZM329.455 664.336C329.721 663.92 330.089 663.584 330.559 663.328C331.028 663.072 331.577 662.944 332.207 662.944C332.943 662.944 333.609 663.131 334.207 663.504C334.804 663.877 335.273 664.411 335.615 665.104C335.967 665.797 336.143 666.603 336.143 667.52C336.143 668.437 335.967 669.248 335.615 669.952C335.273 670.645 334.804 671.184 334.207 671.568C333.609 671.941 332.943 672.128 332.207 672.128C331.588 672.128 331.039 672 330.559 671.744C330.089 671.488 329.721 671.157 329.455 670.752V676.256H326.719V663.072H329.455V664.336ZM333.359 667.52C333.359 666.837 333.167 666.304 332.783 665.92C332.409 665.525 331.945 665.328 331.391 665.328C330.847 665.328 330.383 665.525 329.999 665.92C329.625 666.315 329.439 666.853 329.439 667.536C329.439 668.219 329.625 668.757 329.999 669.152C330.383 669.547 330.847 669.744 331.391 669.744C331.935 669.744 332.399 669.547 332.783 669.152C333.167 668.747 333.359 668.203 333.359 667.52Z" fill="#8C20BF"/>
<path d="M186.908 112.984C186.908 107.344 178.58 108.664 178.58 105.736C178.58 104.68 179.324 104.176 180.308 104.2C181.412 104.224 182.18 104.872 182.252 105.952H186.692C186.524 102.736 184.052 100.912 180.38 100.912C176.852 100.912 174.236 102.688 174.236 105.88C174.188 111.856 182.612 110.176 182.612 113.296C182.612 114.28 181.844 114.88 180.644 114.88C179.492 114.88 178.676 114.256 178.556 112.96H174.188C174.308 116.368 177.14 118.168 180.764 118.168C184.7 118.168 186.908 115.816 186.908 112.984ZM189.433 118H193.537V104.608H189.433V118ZM191.497 103.216C192.937 103.216 193.921 102.232 193.921 101.008C193.921 99.76 192.937 98.776 191.497 98.776C190.033 98.776 189.049 99.76 189.049 101.008C189.049 102.232 190.033 103.216 191.497 103.216ZM195.695 111.28C195.695 115.504 198.311 118.192 201.599 118.192C203.567 118.192 204.983 117.256 205.727 116.08V117.976C205.727 120.232 204.503 121.048 202.943 121.048C201.527 121.048 200.519 120.4 200.255 119.392H196.199C196.559 122.584 199.151 124.6 203.135 124.6C207.767 124.6 209.831 121.552 209.831 117.976V104.608H205.727V106.504C205.007 105.304 203.567 104.416 201.599 104.416C198.311 104.416 195.695 107.056 195.695 111.28ZM205.727 111.304C205.727 113.44 204.359 114.616 202.799 114.616C201.263 114.616 199.871 113.416 199.871 111.28C199.871 109.144 201.263 107.992 202.799 107.992C204.359 107.992 205.727 109.168 205.727 111.304ZM222.041 118H226.121V110.176C226.121 106.576 224.057 104.464 220.961 104.464C219.161 104.464 217.721 105.256 216.905 106.384V104.608H212.801V118H216.905V110.728C216.905 108.904 217.913 107.896 219.473 107.896C221.033 107.896 222.041 108.904 222.041 110.728V118ZM234.058 118H238.162V101.152H234.058V118ZM250.376 118H254.456V110.176C254.456 106.576 252.392 104.464 249.296 104.464C247.496 104.464 246.056 105.256 245.24 106.384V104.608H241.136V118H245.24V110.728C245.24 108.904 246.248 107.896 247.808 107.896C249.368 107.896 250.376 108.904 250.376 110.728V118Z" fill="white"/>
<circle cx="45.5" cy="106.5" r="22" stroke="#8C20BF" stroke-width="3"/>
<path d="M55.414 104.707H40.828L46.121 99.414L44.707 98L37 105.707L44.707 113.414L46.121 112L40.828 106.707H55.414V104.707Z" fill="white"/>
</svg>
