<svg width="428" height="926" viewBox="0 0 428 926" fill="none" xmlns="http://www.w3.org/2000/svg">
<rect width="428" height="926" fill="#D3D3D3"/>
<rect x="20" y="524" width="388" height="70" rx="5" fill="#F5F5F5"/>
<path d="M192.39 561.918C192.39 556.758 184.87 558.998 184.87 555.398C184.87 553.898 186.05 553.118 187.55 553.158C189.25 553.178 190.13 554.238 190.25 555.178H192.25C192.03 553.058 190.29 551.598 187.63 551.598C184.87 551.598 183.01 553.158 183.01 555.458C183.01 560.638 190.55 558.238 190.55 561.998C190.55 563.318 189.51 564.318 187.75 564.318C185.81 564.318 184.99 563.158 184.87 561.998H182.93C182.97 564.298 184.95 565.858 187.75 565.858C190.77 565.858 192.39 563.898 192.39 561.918ZM195.069 565.718H196.889V554.758H195.069V565.718ZM196.009 552.978C196.669 552.978 197.209 552.438 197.209 551.738C197.209 551.038 196.669 550.498 196.009 550.498C195.309 550.498 194.769 551.038 194.769 551.738C194.769 552.438 195.309 552.978 196.009 552.978ZM199.311 560.198C199.311 563.598 201.571 565.898 204.511 565.898C206.511 565.898 207.931 564.838 208.591 563.658V565.958C208.591 568.298 207.131 569.538 205.191 569.538C203.391 569.538 202.091 568.638 201.691 567.318H199.891C200.251 569.658 202.311 571.118 205.191 571.118C208.411 571.118 210.431 568.978 210.431 565.958V554.758H208.591V556.758C207.951 555.578 206.511 554.578 204.511 554.578C201.571 554.578 199.311 556.778 199.311 560.198ZM208.591 560.218C208.591 562.798 206.871 564.298 204.871 564.298C202.871 564.298 201.171 562.778 201.171 560.198C201.171 557.618 202.871 556.158 204.871 556.158C206.871 556.158 208.591 557.678 208.591 560.218ZM221.526 565.718H223.326V559.258C223.326 556.118 221.386 554.558 218.846 554.558C217.366 554.558 216.046 555.178 215.326 556.318V554.758H213.506V565.718H215.326V559.658C215.326 557.298 216.606 556.138 218.466 556.138C220.306 556.138 221.526 557.278 221.526 559.518V565.718ZM231.631 565.718H233.451V554.758H231.631V565.718ZM232.571 552.978C233.231 552.978 233.771 552.438 233.771 551.738C233.771 551.038 233.231 550.498 232.571 550.498C231.871 550.498 231.331 551.038 231.331 551.738C231.331 552.438 231.871 552.978 232.571 552.978ZM244.573 565.718H246.373V559.258C246.373 556.118 244.433 554.558 241.893 554.558C240.413 554.558 239.093 555.178 238.373 556.318V554.758H236.553V565.718H238.373V559.658C238.373 557.298 239.653 556.138 241.513 556.138C243.353 556.138 244.573 557.278 244.573 559.518V565.718Z" fill="#D3D3D3"/>
<path d="M23.32 246.06V254.88C23.32 256.12 23.62 257.04 24.22 257.64C24.8333 258.24 25.68 258.54 26.76 258.54C27.8267 258.54 28.66 258.24 29.26 257.64C29.8733 257.04 30.18 256.12 30.18 254.88V246.06H32V254.86C32 256.02 31.7667 257 31.3 257.8C30.8333 258.587 30.2 259.173 29.4 259.56C28.6133 259.947 27.7267 260.14 26.74 260.14C25.7533 260.14 24.86 259.947 24.06 259.56C23.2733 259.173 22.6467 258.587 22.18 257.8C21.7267 257 21.5 256.02 21.5 254.86V246.06H23.32ZM38.9161 260.18C38.0761 260.18 37.3228 260.04 36.6561 259.76C35.9894 259.467 35.4628 259.067 35.0761 258.56C34.6894 258.04 34.4761 257.447 34.4361 256.78H36.3161C36.3694 257.327 36.6228 257.773 37.0761 258.12C37.5428 258.467 38.1494 258.64 38.8961 258.64C39.5894 258.64 40.1361 258.487 40.5361 258.18C40.9361 257.873 41.1361 257.487 41.1361 257.02C41.1361 256.54 40.9228 256.187 40.4961 255.96C40.0694 255.72 39.4094 255.487 38.5161 255.26C37.7028 255.047 37.0361 254.833 36.5161 254.62C36.0094 254.393 35.5694 254.067 35.1961 253.64C34.8361 253.2 34.6561 252.627 34.6561 251.92C34.6561 251.36 34.8228 250.847 35.1561 250.38C35.4894 249.913 35.9628 249.547 36.5761 249.28C37.1894 249 37.8894 248.86 38.6761 248.86C39.8894 248.86 40.8694 249.167 41.6161 249.78C42.3628 250.393 42.7628 251.233 42.8161 252.3H40.9961C40.9561 251.727 40.7228 251.267 40.2961 250.92C39.8828 250.573 39.3228 250.4 38.6161 250.4C37.9628 250.4 37.4428 250.54 37.0561 250.82C36.6694 251.1 36.4761 251.467 36.4761 251.92C36.4761 252.28 36.5894 252.58 36.8161 252.82C37.0561 253.047 37.3494 253.233 37.6961 253.38C38.0561 253.513 38.5494 253.667 39.1761 253.84C39.9628 254.053 40.6028 254.267 41.0961 254.48C41.5894 254.68 42.0094 254.987 42.3561 255.4C42.7161 255.813 42.9028 256.353 42.9161 257.02C42.9161 257.62 42.7494 258.16 42.4161 258.64C42.0828 259.12 41.6094 259.5 40.9961 259.78C40.3961 260.047 39.7028 260.18 38.9161 260.18ZM55.4853 254.1C55.4853 254.447 55.4653 254.813 55.4253 255.2H46.6653C46.732 256.28 47.0986 257.127 47.7653 257.74C48.4453 258.34 49.2653 258.64 50.2253 258.64C51.012 258.64 51.6653 258.46 52.1853 258.1C52.7186 257.727 53.092 257.233 53.3053 256.62H55.2653C54.972 257.673 54.3853 258.533 53.5053 259.2C52.6253 259.853 51.532 260.18 50.2253 260.18C49.1853 260.18 48.252 259.947 47.4253 259.48C46.612 259.013 45.972 258.353 45.5053 257.5C45.0386 256.633 44.8053 255.633 44.8053 254.5C44.8053 253.367 45.032 252.373 45.4853 251.52C45.9386 250.667 46.572 250.013 47.3853 249.56C48.212 249.093 49.1586 248.86 50.2253 248.86C51.2653 248.86 52.1853 249.087 52.9853 249.54C53.7853 249.993 54.3986 250.62 54.8253 251.42C55.2653 252.207 55.4853 253.1 55.4853 254.1ZM53.6053 253.72C53.6053 253.027 53.452 252.433 53.1453 251.94C52.8386 251.433 52.4186 251.053 51.8853 250.8C51.3653 250.533 50.7853 250.4 50.1453 250.4C49.2253 250.4 48.4386 250.693 47.7853 251.28C47.1453 251.867 46.7786 252.68 46.6853 253.72H53.6053ZM59.7077 250.82C60.0277 250.193 60.481 249.707 61.0677 249.36C61.6677 249.013 62.3943 248.84 63.2477 248.84V250.72H62.7677C60.7277 250.72 59.7077 251.827 59.7077 254.04V260H57.8877V249.04H59.7077V250.82ZM70.6886 248.84C72.0219 248.84 73.1019 249.247 73.9286 250.06C74.7553 250.86 75.1686 252.02 75.1686 253.54V260H73.3686V253.8C73.3686 252.707 73.0953 251.873 72.5486 251.3C72.0019 250.713 71.2553 250.42 70.3086 250.42C69.3486 250.42 68.5819 250.72 68.0086 251.32C67.4486 251.92 67.1686 252.793 67.1686 253.94V260H65.3486V249.04H67.1686V250.6C67.5286 250.04 68.0153 249.607 68.6286 249.3C69.2553 248.993 69.9419 248.84 70.6886 248.84ZM77.4616 254.48C77.4616 253.36 77.6882 252.38 78.1416 251.54C78.5949 250.687 79.2149 250.027 80.0016 249.56C80.8016 249.093 81.6882 248.86 82.6616 248.86C83.6216 248.86 84.4549 249.067 85.1616 249.48C85.8682 249.893 86.3949 250.413 86.7416 251.04V249.04H88.5816V260H86.7416V257.96C86.3816 258.6 85.8416 259.133 85.1216 259.56C84.4149 259.973 83.5882 260.18 82.6416 260.18C81.6682 260.18 80.7882 259.94 80.0016 259.46C79.2149 258.98 78.5949 258.307 78.1416 257.44C77.6882 256.573 77.4616 255.587 77.4616 254.48ZM86.7416 254.5C86.7416 253.673 86.5749 252.953 86.2416 252.34C85.9082 251.727 85.4549 251.26 84.8816 250.94C84.3216 250.607 83.7016 250.44 83.0216 250.44C82.3416 250.44 81.7216 250.6 81.1616 250.92C80.6016 251.24 80.1549 251.707 79.8216 252.32C79.4882 252.933 79.3216 253.653 79.3216 254.48C79.3216 255.32 79.4882 256.053 79.8216 256.68C80.1549 257.293 80.6016 257.767 81.1616 258.1C81.7216 258.42 82.3416 258.58 83.0216 258.58C83.7016 258.58 84.3216 258.42 84.8816 258.1C85.4549 257.767 85.9082 257.293 86.2416 256.68C86.5749 256.053 86.7416 255.327 86.7416 254.5ZM104.837 248.84C105.691 248.84 106.451 249.02 107.117 249.38C107.784 249.727 108.311 250.253 108.697 250.96C109.084 251.667 109.277 252.527 109.277 253.54V260H107.477V253.8C107.477 252.707 107.204 251.873 106.657 251.3C106.124 250.713 105.397 250.42 104.477 250.42C103.531 250.42 102.777 250.727 102.217 251.34C101.657 251.94 101.377 252.813 101.377 253.96V260H99.5772V253.8C99.5772 252.707 99.3039 251.873 98.7572 251.3C98.2239 250.713 97.4972 250.42 96.5772 250.42C95.6305 250.42 94.8772 250.727 94.3172 251.34C93.7572 251.94 93.4772 252.813 93.4772 253.96V260H91.6572V249.04H93.4772V250.62C93.8372 250.047 94.3172 249.607 94.9172 249.3C95.5305 248.993 96.2039 248.84 96.9372 248.84C97.8572 248.84 98.6705 249.047 99.3772 249.46C100.084 249.873 100.611 250.48 100.957 251.28C101.264 250.507 101.771 249.907 102.477 249.48C103.184 249.053 103.971 248.84 104.837 248.84ZM122.263 254.1C122.263 254.447 122.243 254.813 122.203 255.2H113.443C113.509 256.28 113.876 257.127 114.543 257.74C115.223 258.34 116.043 258.64 117.003 258.64C117.789 258.64 118.443 258.46 118.963 258.1C119.496 257.727 119.869 257.233 120.083 256.62H122.043C121.749 257.673 121.163 258.533 120.283 259.2C119.403 259.853 118.309 260.18 117.003 260.18C115.963 260.18 115.029 259.947 114.203 259.48C113.389 259.013 112.749 258.353 112.283 257.5C111.816 256.633 111.583 255.633 111.583 254.5C111.583 253.367 111.809 252.373 112.263 251.52C112.716 250.667 113.349 250.013 114.163 249.56C114.989 249.093 115.936 248.86 117.003 248.86C118.043 248.86 118.963 249.087 119.763 249.54C120.563 249.993 121.176 250.62 121.603 251.42C122.043 252.207 122.263 253.1 122.263 254.1ZM120.383 253.72C120.383 253.027 120.229 252.433 119.923 251.94C119.616 251.433 119.196 251.053 118.663 250.8C118.143 250.533 117.563 250.4 116.923 250.4C116.003 250.4 115.216 250.693 114.563 251.28C113.923 251.867 113.556 252.68 113.463 253.72H120.383Z" fill="white"/>
<rect x="20" y="276" width="388" height="65" rx="5" fill="#A9A9A9" fill-opacity="0.28"/>
<path d="M38.5 309.86C38.5 313.48 40.86 315.14 43.74 315.14C46.62 315.14 49 313.48 49 309.86V301.06H47.18V309.88C47.18 312.44 45.82 313.54 43.76 313.54C41.7 313.54 40.32 312.44 40.32 309.88V301.06H38.5V309.86ZM59.9161 312.02C59.8361 308.1 53.4761 309.52 53.4761 306.92C53.4761 306.04 54.2761 305.4 55.6161 305.4C57.0761 305.4 57.9161 306.2 57.9961 307.3H59.8161C59.6961 305.16 58.0961 303.86 55.6761 303.86C53.2361 303.86 51.6561 305.24 51.6561 306.92C51.6561 311 58.1361 309.58 58.1361 312.02C58.1361 312.92 57.3361 313.64 55.8961 313.64C54.3561 313.64 53.4161 312.84 53.3161 311.78H51.4361C51.5561 313.78 53.3561 315.18 55.9161 315.18C58.3361 315.18 59.9161 313.82 59.9161 312.02ZM67.1453 305.4C69.0253 305.4 70.6253 306.58 70.6053 308.72H63.6853C63.8853 306.58 65.3653 305.4 67.1453 305.4ZM72.2653 311.62H70.3053C69.9053 312.8 68.8653 313.64 67.2253 313.64C65.3653 313.64 63.8053 312.42 63.6653 310.2H72.4253C72.4653 309.82 72.4853 309.5 72.4853 309.1C72.4853 306.1 70.4053 303.86 67.2253 303.86C64.0253 303.86 61.8053 306.04 61.8053 309.5C61.8053 312.98 64.1053 315.18 67.2253 315.18C69.9453 315.18 71.7053 313.62 72.2653 311.62ZM76.7077 309.04C76.7077 306.5 78.0277 305.72 79.7677 305.72H80.2477V303.84C78.5077 303.84 77.3277 304.6 76.7077 305.82V304.04H74.8877V315H76.7077V309.04ZM90.3686 315H92.1686V308.54C92.1686 305.4 90.2286 303.84 87.6886 303.84C86.2086 303.84 84.8886 304.46 84.1686 305.6V304.04H82.3486V315H84.1686V308.94C84.1686 306.58 85.4486 305.42 87.3086 305.42C89.1486 305.42 90.3686 306.56 90.3686 308.8V315ZM94.4616 309.48C94.4616 312.88 96.7216 315.18 99.6416 315.18C101.662 315.18 103.082 314.14 103.742 312.96V315H105.582V304.04H103.742V306.04C103.102 304.9 101.702 303.86 99.6616 303.86C96.7216 303.86 94.4616 306.06 94.4616 309.48ZM103.742 309.5C103.742 312.08 102.022 313.58 100.022 313.58C98.0216 313.58 96.3216 312.06 96.3216 309.48C96.3216 306.9 98.0216 305.44 100.022 305.44C102.022 305.44 103.742 306.96 103.742 309.5ZM124.477 315H126.277V308.54C126.277 305.4 124.337 303.84 121.837 303.84C120.157 303.84 118.597 304.7 117.957 306.28C117.237 304.64 115.737 303.84 113.937 303.84C112.497 303.84 111.197 304.46 110.477 305.62V304.04H108.657V315H110.477V308.96C110.477 306.6 111.737 305.42 113.577 305.42C115.377 305.42 116.577 306.56 116.577 308.8V315H118.377V308.96C118.377 306.6 119.637 305.42 121.477 305.42C123.277 305.42 124.477 306.56 124.477 308.8V315ZM133.923 305.4C135.803 305.4 137.403 306.58 137.383 308.72H130.463C130.663 306.58 132.143 305.4 133.923 305.4ZM139.043 311.62H137.083C136.683 312.8 135.643 313.64 134.003 313.64C132.143 313.64 130.583 312.42 130.443 310.2H139.203C139.243 309.82 139.263 309.5 139.263 309.1C139.263 306.1 137.183 303.86 134.003 303.86C130.803 303.86 128.583 306.04 128.583 309.5C128.583 312.98 130.883 315.18 134.003 315.18C136.723 315.18 138.483 313.62 139.043 311.62Z" fill="#F5F5F5"/>
<rect x="20" y="399" width="388" height="65" rx="5" fill="#A9A9A9" fill-opacity="0.28"/>
<path d="M40.36 430.68V425.56H43.04C45.12 425.56 46 426.52 46 428.14C46 429.7 45.12 430.68 43.04 430.68H40.36ZM47.86 428.14C47.86 425.86 46.32 424.06 43.04 424.06H38.54V438H40.36V432.18H43.04C46.5 432.18 47.86 430.26 47.86 428.14ZM49.442 432.48C49.442 435.88 51.702 438.18 54.622 438.18C56.642 438.18 58.062 437.14 58.722 435.96V438H60.562V427.04H58.722V429.04C58.082 427.9 56.682 426.86 54.642 426.86C51.702 426.86 49.442 429.06 49.442 432.48ZM58.722 432.5C58.722 435.08 57.002 436.58 55.002 436.58C53.002 436.58 51.302 435.06 51.302 432.48C51.302 429.9 53.002 428.44 55.002 428.44C57.002 428.44 58.722 429.96 58.722 432.5ZM71.5177 435.02C71.4377 431.1 65.0777 432.52 65.0777 429.92C65.0777 429.04 65.8777 428.4 67.2177 428.4C68.6777 428.4 69.5177 429.2 69.5977 430.3H71.4177C71.2977 428.16 69.6977 426.86 67.2777 426.86C64.8377 426.86 63.2577 428.24 63.2577 429.92C63.2577 434 69.7377 432.58 69.7377 435.02C69.7377 435.92 68.9377 436.64 67.4977 436.64C65.9577 436.64 65.0177 435.84 64.9177 434.78H63.0377C63.1577 436.78 64.9577 438.18 67.5177 438.18C69.9377 438.18 71.5177 436.82 71.5177 435.02ZM81.9669 435.02C81.8869 431.1 75.5269 432.52 75.5269 429.92C75.5269 429.04 76.3269 428.4 77.6669 428.4C79.1269 428.4 79.9669 429.2 80.0469 430.3H81.8669C81.7469 428.16 80.1469 426.86 77.7269 426.86C75.2869 426.86 73.7069 428.24 73.7069 429.92C73.7069 434 80.1869 432.58 80.1869 435.02C80.1869 435.92 79.3869 436.64 77.9469 436.64C76.4069 436.64 75.4669 435.84 75.3669 434.78H73.4869C73.6069 436.78 75.4069 438.18 77.9669 438.18C80.3869 438.18 81.9669 436.82 81.9669 435.02ZM86.6761 438H88.5561L91.1961 429.3L93.8361 438H95.7161L99.1361 427.04H97.3361L94.8561 436.26L92.1961 427.04H90.3361L87.6161 436.24L85.0961 427.04H83.2361L86.6761 438ZM111.342 432.5C111.342 429.04 108.922 426.86 105.802 426.86C102.702 426.86 100.262 429.04 100.262 432.5C100.262 435.98 102.622 438.18 105.722 438.18C108.842 438.18 111.342 435.98 111.342 432.5ZM102.122 432.5C102.122 429.74 103.862 428.44 105.782 428.44C107.662 428.44 109.482 429.74 109.482 432.5C109.482 435.28 107.622 436.58 105.722 436.58C103.822 436.58 102.122 435.28 102.122 432.5ZM115.555 432.04C115.555 429.5 116.875 428.72 118.615 428.72H119.095V426.84C117.355 426.84 116.175 427.6 115.555 428.82V427.04H113.735V438H115.555V432.04ZM120.516 432.48C120.516 435.88 122.776 438.18 125.716 438.18C127.716 438.18 129.136 437.16 129.796 435.94V438H131.636V423.2H129.796V429C129.036 427.74 127.456 426.86 125.736 426.86C122.776 426.86 120.516 429.06 120.516 432.48ZM129.796 432.5C129.796 435.08 128.076 436.58 126.076 436.58C124.076 436.58 122.376 435.06 122.376 432.48C122.376 429.9 124.076 428.44 126.076 428.44C128.076 428.44 129.796 429.96 129.796 432.5Z" fill="#F5F5F5"/>
<path d="M30.86 373.14C30.86 374.3 30.46 375.267 29.66 376.04C28.8733 376.8 27.6667 377.18 26.04 377.18H23.36V383H21.54V369.06H26.04C27.6133 369.06 28.8067 369.44 29.62 370.2C30.4467 370.96 30.86 371.94 30.86 373.14ZM26.04 375.68C27.0533 375.68 27.8 375.46 28.28 375.02C28.76 374.58 29 373.953 29 373.14C29 371.42 28.0133 370.56 26.04 370.56H23.36V375.68H26.04ZM32.442 377.48C32.442 376.36 32.6687 375.38 33.122 374.54C33.5754 373.687 34.1954 373.027 34.982 372.56C35.782 372.093 36.6687 371.86 37.642 371.86C38.602 371.86 39.4354 372.067 40.142 372.48C40.8487 372.893 41.3754 373.413 41.722 374.04V372.04H43.562V383H41.722V380.96C41.362 381.6 40.822 382.133 40.102 382.56C39.3954 382.973 38.5687 383.18 37.622 383.18C36.6487 383.18 35.7687 382.94 34.982 382.46C34.1954 381.98 33.5754 381.307 33.122 380.44C32.6687 379.573 32.442 378.587 32.442 377.48ZM41.722 377.5C41.722 376.673 41.5554 375.953 41.222 375.34C40.8887 374.727 40.4354 374.26 39.862 373.94C39.302 373.607 38.682 373.44 38.002 373.44C37.322 373.44 36.702 373.6 36.142 373.92C35.582 374.24 35.1354 374.707 34.802 375.32C34.4687 375.933 34.302 376.653 34.302 377.48C34.302 378.32 34.4687 379.053 34.802 379.68C35.1354 380.293 35.582 380.767 36.142 381.1C36.702 381.42 37.322 381.58 38.002 381.58C38.682 381.58 39.302 381.42 39.862 381.1C40.4354 380.767 40.8887 380.293 41.222 379.68C41.5554 379.053 41.722 378.327 41.722 377.5ZM50.5177 383.18C49.6777 383.18 48.9243 383.04 48.2577 382.76C47.591 382.467 47.0643 382.067 46.6777 381.56C46.291 381.04 46.0777 380.447 46.0377 379.78H47.9177C47.971 380.327 48.2243 380.773 48.6777 381.12C49.1443 381.467 49.751 381.64 50.4977 381.64C51.191 381.64 51.7377 381.487 52.1377 381.18C52.5377 380.873 52.7377 380.487 52.7377 380.02C52.7377 379.54 52.5243 379.187 52.0977 378.96C51.671 378.72 51.011 378.487 50.1177 378.26C49.3043 378.047 48.6377 377.833 48.1177 377.62C47.611 377.393 47.171 377.067 46.7977 376.64C46.4377 376.2 46.2577 375.627 46.2577 374.92C46.2577 374.36 46.4243 373.847 46.7577 373.38C47.091 372.913 47.5643 372.547 48.1777 372.28C48.791 372 49.491 371.86 50.2777 371.86C51.491 371.86 52.471 372.167 53.2177 372.78C53.9643 373.393 54.3643 374.233 54.4177 375.3H52.5977C52.5577 374.727 52.3243 374.267 51.8977 373.92C51.4843 373.573 50.9243 373.4 50.2177 373.4C49.5643 373.4 49.0443 373.54 48.6577 373.82C48.271 374.1 48.0777 374.467 48.0777 374.92C48.0777 375.28 48.191 375.58 48.4177 375.82C48.6577 376.047 48.951 376.233 49.2977 376.38C49.6577 376.513 50.151 376.667 50.7777 376.84C51.5643 377.053 52.2043 377.267 52.6977 377.48C53.191 377.68 53.611 377.987 53.9577 378.4C54.3177 378.813 54.5043 379.353 54.5177 380.02C54.5177 380.62 54.351 381.16 54.0177 381.64C53.6843 382.12 53.211 382.5 52.5977 382.78C51.9977 383.047 51.3043 383.18 50.5177 383.18ZM60.9669 383.18C60.1269 383.18 59.3735 383.04 58.7069 382.76C58.0402 382.467 57.5135 382.067 57.1269 381.56C56.7402 381.04 56.5269 380.447 56.4869 379.78H58.3669C58.4202 380.327 58.6735 380.773 59.1269 381.12C59.5935 381.467 60.2002 381.64 60.9469 381.64C61.6402 381.64 62.1869 381.487 62.5869 381.18C62.9869 380.873 63.1869 380.487 63.1869 380.02C63.1869 379.54 62.9735 379.187 62.5469 378.96C62.1202 378.72 61.4602 378.487 60.5669 378.26C59.7535 378.047 59.0869 377.833 58.5669 377.62C58.0602 377.393 57.6202 377.067 57.2469 376.64C56.8869 376.2 56.7069 375.627 56.7069 374.92C56.7069 374.36 56.8735 373.847 57.2069 373.38C57.5402 372.913 58.0135 372.547 58.6269 372.28C59.2402 372 59.9402 371.86 60.7269 371.86C61.9402 371.86 62.9202 372.167 63.6669 372.78C64.4135 373.393 64.8135 374.233 64.8669 375.3H63.0469C63.0069 374.727 62.7735 374.267 62.3469 373.92C61.9335 373.573 61.3735 373.4 60.6669 373.4C60.0135 373.4 59.4935 373.54 59.1069 373.82C58.7202 374.1 58.5269 374.467 58.5269 374.92C58.5269 375.28 58.6402 375.58 58.8669 375.82C59.1069 376.047 59.4002 376.233 59.7469 376.38C60.1069 376.513 60.6002 376.667 61.2269 376.84C62.0135 377.053 62.6535 377.267 63.1469 377.48C63.6402 377.68 64.0602 377.987 64.4069 378.4C64.7669 378.813 64.9535 379.353 64.9669 380.02C64.9669 380.62 64.8002 381.16 64.4669 381.64C64.1335 382.12 63.6602 382.5 63.0469 382.78C62.4469 383.047 61.7535 383.18 60.9669 383.18ZM82.1361 372.04L78.7161 383H76.8361L74.1961 374.3L71.5561 383H69.6761L66.2361 372.04H68.0961L70.6161 381.24L73.3361 372.04H75.1961L77.8561 381.26L80.3361 372.04H82.1361ZM88.7223 383.18C87.6957 383.18 86.7623 382.947 85.9223 382.48C85.0957 382.013 84.4423 381.353 83.9623 380.5C83.4957 379.633 83.2623 378.633 83.2623 377.5C83.2623 376.38 83.5023 375.393 83.9823 374.54C84.4757 373.673 85.1423 373.013 85.9823 372.56C86.8223 372.093 87.7623 371.86 88.8023 371.86C89.8423 371.86 90.7823 372.093 91.6223 372.56C92.4623 373.013 93.1223 373.667 93.6023 374.52C94.0957 375.373 94.3423 376.367 94.3423 377.5C94.3423 378.633 94.089 379.633 93.5823 380.5C93.089 381.353 92.4157 382.013 91.5623 382.48C90.709 382.947 89.7623 383.18 88.7223 383.18ZM88.7223 381.58C89.3757 381.58 89.989 381.427 90.5623 381.12C91.1357 380.813 91.5957 380.353 91.9423 379.74C92.3023 379.127 92.4823 378.38 92.4823 377.5C92.4823 376.62 92.309 375.873 91.9623 375.26C91.6157 374.647 91.1623 374.193 90.6023 373.9C90.0423 373.593 89.4357 373.44 88.7823 373.44C88.1157 373.44 87.5023 373.593 86.9423 373.9C86.3957 374.193 85.9557 374.647 85.6223 375.26C85.289 375.873 85.1223 376.62 85.1223 377.5C85.1223 378.393 85.2823 379.147 85.6023 379.76C85.9357 380.373 86.3757 380.833 86.9223 381.14C87.469 381.433 88.069 381.58 88.7223 381.58ZM98.5553 373.82C98.8753 373.193 99.3286 372.707 99.9153 372.36C100.515 372.013 101.242 371.84 102.095 371.84V373.72H101.615C99.5753 373.72 98.5553 374.827 98.5553 377.04V383H96.7353V372.04H98.5553V373.82ZM103.516 377.48C103.516 376.36 103.743 375.38 104.196 374.54C104.65 373.687 105.27 373.027 106.056 372.56C106.856 372.093 107.75 371.86 108.736 371.86C109.59 371.86 110.383 372.06 111.116 372.46C111.85 372.847 112.41 373.36 112.796 374V368.2H114.636V383H112.796V380.94C112.436 381.593 111.903 382.133 111.196 382.56C110.49 382.973 109.663 383.18 108.716 383.18C107.743 383.18 106.856 382.94 106.056 382.46C105.27 381.98 104.65 381.307 104.196 380.44C103.743 379.573 103.516 378.587 103.516 377.48ZM112.796 377.5C112.796 376.673 112.63 375.953 112.296 375.34C111.963 374.727 111.51 374.26 110.936 373.94C110.376 373.607 109.756 373.44 109.076 373.44C108.396 373.44 107.776 373.6 107.216 373.92C106.656 374.24 106.21 374.707 105.876 375.32C105.543 375.933 105.376 376.653 105.376 377.48C105.376 378.32 105.543 379.053 105.876 379.68C106.21 380.293 106.656 380.767 107.216 381.1C107.776 381.42 108.396 381.58 109.076 381.58C109.756 381.58 110.376 381.42 110.936 381.1C111.51 380.767 111.963 380.293 112.296 379.68C112.63 379.053 112.796 378.327 112.796 377.5Z" fill="white"/>
<path d="M97.1181 660.848H93.6461V672H97.1181C100.782 672 103.038 669.904 103.038 666.448C103.038 662.992 100.782 660.848 97.1181 660.848ZM95.1021 670.8V662.032H97.1181C100.03 662.032 101.55 663.728 101.55 666.448C101.55 669.168 100.03 670.8 97.1181 670.8H95.1021ZM113.279 667.6C113.279 664.832 111.343 663.088 108.847 663.088C106.367 663.088 104.415 664.832 104.415 667.6C104.415 670.384 106.303 672.144 108.783 672.144C111.279 672.144 113.279 670.384 113.279 667.6ZM105.903 667.6C105.903 665.392 107.295 664.352 108.831 664.352C110.335 664.352 111.791 665.392 111.791 667.6C111.791 669.824 110.303 670.864 108.783 670.864C107.263 670.864 105.903 669.824 105.903 667.6ZM121.609 672H123.049V666.832C123.049 664.32 121.497 663.072 119.465 663.072C118.281 663.072 117.225 663.568 116.649 664.48V663.232H115.193V672H116.649V667.152C116.649 665.264 117.673 664.336 119.161 664.336C120.633 664.336 121.609 665.248 121.609 667.04V672ZM125.747 669.6C125.747 671.36 126.627 672 128.179 672H129.491V670.768H128.419C127.523 670.768 127.203 670.464 127.203 669.6V664.432H129.491V663.232H127.203V661.024H125.747V663.232H124.611V664.432H125.747V669.6ZM135.521 672H136.977V667.152C136.977 665.264 138.001 664.336 139.489 664.336C140.961 664.336 141.937 665.248 141.937 667.04V672H143.377V666.832C143.377 664.32 141.825 663.072 139.873 663.072C138.641 663.072 137.553 663.568 136.977 664.496V660.16H135.521V672ZM145.211 667.584C145.211 670.304 147.019 672.144 149.355 672.144C150.971 672.144 152.107 671.312 152.635 670.368V672H154.107V663.232H152.635V664.832C152.123 663.92 151.003 663.088 149.371 663.088C147.019 663.088 145.211 664.848 145.211 667.584ZM152.635 667.6C152.635 669.664 151.259 670.864 149.659 670.864C148.059 670.864 146.699 669.648 146.699 667.584C146.699 665.52 148.059 664.352 149.659 664.352C151.259 664.352 152.635 665.568 152.635 667.6ZM155.528 663.232L158.968 672H160.664L164.104 663.232H162.552L159.832 670.656L157.096 663.232H155.528ZM169.265 664.32C170.769 664.32 172.049 665.264 172.033 666.976H166.497C166.657 665.264 167.841 664.32 169.265 664.32ZM173.361 669.296H171.793C171.473 670.24 170.641 670.912 169.329 670.912C167.841 670.912 166.593 669.936 166.481 668.16H173.489C173.521 667.856 173.537 667.6 173.537 667.28C173.537 664.88 171.873 663.088 169.329 663.088C166.769 663.088 164.993 664.832 164.993 667.6C164.993 670.384 166.833 672.144 169.329 672.144C171.505 672.144 172.913 670.896 173.361 669.296ZM179.18 667.584C179.18 670.304 180.988 672.144 183.324 672.144C184.94 672.144 186.076 671.312 186.604 670.368V672H188.076V663.232H186.604V664.832C186.092 663.92 184.972 663.088 183.34 663.088C180.988 663.088 179.18 664.848 179.18 667.584ZM186.604 667.6C186.604 669.664 185.228 670.864 183.628 670.864C182.028 670.864 180.668 669.648 180.668 667.584C180.668 665.52 182.028 664.352 183.628 664.352C185.228 664.352 186.604 665.568 186.604 667.6ZM196.953 672H198.393V666.832C198.393 664.32 196.841 663.072 194.809 663.072C193.625 663.072 192.569 663.568 191.993 664.48V663.232H190.537V672H191.993V667.152C191.993 665.264 193.017 664.336 194.505 664.336C195.977 664.336 196.953 665.248 196.953 667.04V672ZM204.493 667.584C204.493 670.304 206.301 672.144 208.637 672.144C210.253 672.144 211.389 671.312 211.917 670.368V672H213.389V663.232H211.917V664.832C211.405 663.92 210.285 663.088 208.653 663.088C206.301 663.088 204.493 664.848 204.493 667.584ZM211.917 667.6C211.917 669.664 210.541 670.864 208.941 670.864C207.341 670.864 205.981 669.648 205.981 667.584C205.981 665.52 207.341 664.352 208.941 664.352C210.541 664.352 211.917 665.568 211.917 667.6ZM215.305 667.6C215.305 670.384 217.081 672.144 219.577 672.144C221.753 672.144 223.177 670.928 223.625 669.184H222.057C221.737 670.288 220.873 670.912 219.577 670.912C217.977 670.912 216.793 669.776 216.793 667.6C216.793 665.456 217.977 664.32 219.577 664.32C220.873 664.32 221.753 664.992 222.057 666.048H223.625C223.177 664.208 221.753 663.088 219.577 663.088C217.081 663.088 215.305 664.848 215.305 667.6ZM225.024 667.6C225.024 670.384 226.8 672.144 229.296 672.144C231.472 672.144 232.896 670.928 233.344 669.184H231.776C231.456 670.288 230.592 670.912 229.296 670.912C227.696 670.912 226.512 669.776 226.512 667.6C226.512 665.456 227.696 664.32 229.296 664.32C230.592 664.32 231.472 664.992 231.776 666.048H233.344C232.896 664.208 231.472 663.088 229.296 663.088C226.8 663.088 225.024 664.848 225.024 667.6ZM243.607 667.6C243.607 664.832 241.671 663.088 239.175 663.088C236.695 663.088 234.743 664.832 234.743 667.6C234.743 670.384 236.631 672.144 239.111 672.144C241.607 672.144 243.607 670.384 243.607 667.6ZM236.231 667.6C236.231 665.392 237.623 664.352 239.159 664.352C240.663 664.352 242.119 665.392 242.119 667.6C242.119 669.824 240.631 670.864 239.111 670.864C237.591 670.864 236.231 669.824 236.231 667.6ZM253.297 663.232H251.841V668.048C251.841 669.936 250.833 670.864 249.329 670.864C247.857 670.864 246.881 669.952 246.881 668.176V663.232H245.441V668.368C245.441 670.88 247.025 672.128 249.041 672.128C250.209 672.128 251.281 671.616 251.841 670.704V672H253.297V663.232ZM262.171 672H263.611V666.832C263.611 664.32 262.059 663.072 260.027 663.072C258.843 663.072 257.787 663.568 257.211 664.48V663.232H255.755V672H257.211V667.152C257.211 665.264 258.235 664.336 259.723 664.336C261.195 664.336 262.171 665.248 262.171 667.04V672ZM266.31 669.6C266.31 671.36 267.19 672 268.742 672H270.054V670.768H268.982C268.086 670.768 267.766 670.464 267.766 669.6V664.432H270.054V663.232H267.766V661.024H266.31V663.232H265.174V664.432H266.31V669.6Z" fill="white"/>
<path d="M284.004 668.656C284.004 664.896 278.452 665.776 278.452 663.824C278.452 663.12 278.948 662.784 279.604 662.8C280.34 662.816 280.852 663.248 280.9 663.968H283.86C283.748 661.824 282.1 660.608 279.652 660.608C277.3 660.608 275.556 661.792 275.556 663.92C275.524 667.904 281.14 666.784 281.14 668.864C281.14 669.52 280.628 669.92 279.828 669.92C279.06 669.92 278.516 669.504 278.436 668.64H275.524C275.604 670.912 277.492 672.112 279.908 672.112C282.532 672.112 284.004 670.544 284.004 668.656ZM285.687 672H288.423V663.072H285.687V672ZM287.063 662.144C288.023 662.144 288.679 661.488 288.679 660.672C288.679 659.84 288.023 659.184 287.063 659.184C286.087 659.184 285.431 659.84 285.431 660.672C285.431 661.488 286.087 662.144 287.063 662.144ZM289.862 667.52C289.862 670.336 291.606 672.128 293.798 672.128C295.11 672.128 296.054 671.504 296.55 670.72V671.984C296.55 673.488 295.734 674.032 294.694 674.032C293.75 674.032 293.078 673.6 292.902 672.928H290.198C290.438 675.056 292.166 676.4 294.822 676.4C297.91 676.4 299.286 674.368 299.286 671.984V663.072H296.55V664.336C296.07 663.536 295.11 662.944 293.798 662.944C291.606 662.944 289.862 664.704 289.862 667.52ZM296.55 667.536C296.55 668.96 295.638 669.744 294.598 669.744C293.574 669.744 292.646 668.944 292.646 667.52C292.646 666.096 293.574 665.328 294.598 665.328C295.638 665.328 296.55 666.112 296.55 667.536ZM307.425 672H310.145V666.784C310.145 664.384 308.769 662.976 306.705 662.976C305.505 662.976 304.545 663.504 304.001 664.256V663.072H301.265V672H304.001V667.152C304.001 665.936 304.673 665.264 305.713 665.264C306.753 665.264 307.425 665.936 307.425 667.152V672ZM315.389 667.472C315.389 670.576 317.421 672.112 320.029 672.112C322.621 672.112 324.797 670.576 324.797 667.472V660.768H322.061V667.488C322.061 668.816 321.373 669.584 320.077 669.584C318.781 669.584 318.125 668.816 318.125 667.488V660.768H315.389V667.472ZM329.455 664.336V663.072H326.719V676.256H329.455V670.752C329.951 671.504 330.895 672.128 332.207 672.128C334.399 672.128 336.143 670.336 336.143 667.52C336.143 664.704 334.399 662.944 332.207 662.944C330.895 662.944 329.951 663.552 329.455 664.336ZM333.359 667.52C333.359 668.944 332.431 669.744 331.391 669.744C330.367 669.744 329.439 668.96 329.439 667.536C329.439 666.112 330.367 665.328 331.391 665.328C332.431 665.328 333.359 666.096 333.359 667.52Z" fill="#D3D3D3"/>
<path d="M186.908 112.984C186.908 107.344 178.58 108.664 178.58 105.736C178.58 104.68 179.324 104.176 180.308 104.2C181.412 104.224 182.18 104.872 182.252 105.952H186.692C186.524 102.736 184.052 100.912 180.38 100.912C176.852 100.912 174.236 102.688 174.236 105.88C174.188 111.856 182.612 110.176 182.612 113.296C182.612 114.28 181.844 114.88 180.644 114.88C179.492 114.88 178.676 114.256 178.556 112.96H174.188C174.308 116.368 177.14 118.168 180.764 118.168C184.7 118.168 186.908 115.816 186.908 112.984ZM189.433 118H193.537V104.608H189.433V118ZM191.497 103.216C192.937 103.216 193.921 102.232 193.921 101.008C193.921 99.76 192.937 98.776 191.497 98.776C190.033 98.776 189.049 99.76 189.049 101.008C189.049 102.232 190.033 103.216 191.497 103.216ZM195.695 111.28C195.695 115.504 198.311 118.192 201.599 118.192C203.567 118.192 204.983 117.256 205.727 116.08V117.976C205.727 120.232 204.503 121.048 202.943 121.048C201.527 121.048 200.519 120.4 200.255 119.392H196.199C196.559 122.584 199.151 124.6 203.135 124.6C207.767 124.6 209.831 121.552 209.831 117.976V104.608H205.727V106.504C205.007 105.304 203.567 104.416 201.599 104.416C198.311 104.416 195.695 107.056 195.695 111.28ZM205.727 111.304C205.727 113.44 204.359 114.616 202.799 114.616C201.263 114.616 199.871 113.416 199.871 111.28C199.871 109.144 201.263 107.992 202.799 107.992C204.359 107.992 205.727 109.168 205.727 111.304ZM222.041 118H226.121V110.176C226.121 106.576 224.057 104.464 220.961 104.464C219.161 104.464 217.721 105.256 216.905 106.384V104.608H212.801V118H216.905V110.728C216.905 108.904 217.913 107.896 219.473 107.896C221.033 107.896 222.041 108.904 222.041 110.728V118ZM234.058 118H238.162V101.152H234.058V118ZM250.376 118H254.456V110.176C254.456 106.576 252.392 104.464 249.296 104.464C247.496 104.464 246.056 105.256 245.24 106.384V104.608H241.136V118H245.24V110.728C245.24 108.904 246.248 107.896 247.808 107.896C249.368 107.896 250.376 108.904 250.376 110.728V118Z" fill="white"/>
<circle cx="45.5" cy="106.5" r="22" stroke="#F5F5F5" stroke-width="3"/>
<path d="M55.414 104.707H40.828L46.121 99.414L44.707 98L37 105.707L44.707 113.414L46.121 112L40.828 106.707H55.414V104.707Z" fill="white"/>
</svg>
