<svg width="436" height="934" viewBox="0 0 436 934" fill="none" xmlns="http://www.w3.org/2000/svg">
<g filter="url(#filter0_d_292_24)">
<rect width="428" height="926" transform="translate(4)" fill="#F5F5F5"/>
<path d="M103.118 837.848H99.6461V849H103.118C106.782 849 109.038 846.904 109.038 843.448C109.038 839.992 106.782 837.848 103.118 837.848ZM101.102 847.8V839.032H103.118C106.03 839.032 107.55 840.728 107.55 843.448C107.55 846.168 106.03 847.8 103.118 847.8H101.102ZM119.279 844.6C119.279 841.832 117.343 840.088 114.847 840.088C112.367 840.088 110.415 841.832 110.415 844.6C110.415 847.384 112.303 849.144 114.783 849.144C117.279 849.144 119.279 847.384 119.279 844.6ZM111.903 844.6C111.903 842.392 113.295 841.352 114.831 841.352C116.335 841.352 117.791 842.392 117.791 844.6C117.791 846.824 116.303 847.864 114.783 847.864C113.263 847.864 111.903 846.824 111.903 844.6ZM127.609 849H129.049V843.832C129.049 841.32 127.497 840.072 125.465 840.072C124.281 840.072 123.225 840.568 122.649 841.48V840.232H121.193V849H122.649V844.152C122.649 842.264 123.673 841.336 125.161 841.336C126.633 841.336 127.609 842.248 127.609 844.04V849ZM131.747 846.6C131.747 848.36 132.627 849 134.179 849H135.491V847.768H134.419C133.523 847.768 133.203 847.464 133.203 846.6V841.432H135.491V840.232H133.203V838.024H131.747V840.232H130.611V841.432H131.747V846.6ZM141.521 849H142.977V844.152C142.977 842.264 144.001 841.336 145.489 841.336C146.961 841.336 147.937 842.248 147.937 844.04V849H149.377V843.832C149.377 841.32 147.825 840.072 145.873 840.072C144.641 840.072 143.553 840.568 142.977 841.496V837.16H141.521V849ZM151.211 844.584C151.211 847.304 153.019 849.144 155.355 849.144C156.971 849.144 158.107 848.312 158.635 847.368V849H160.107V840.232H158.635V841.832C158.123 840.92 157.003 840.088 155.371 840.088C153.019 840.088 151.211 841.848 151.211 844.584ZM158.635 844.6C158.635 846.664 157.259 847.864 155.659 847.864C154.059 847.864 152.699 846.648 152.699 844.584C152.699 842.52 154.059 841.352 155.659 841.352C157.259 841.352 158.635 842.568 158.635 844.6ZM161.528 840.232L164.968 849H166.664L170.104 840.232H168.552L165.832 847.656L163.096 840.232H161.528ZM175.265 841.32C176.769 841.32 178.049 842.264 178.033 843.976H172.497C172.657 842.264 173.841 841.32 175.265 841.32ZM179.361 846.296H177.793C177.473 847.24 176.641 847.912 175.329 847.912C173.841 847.912 172.593 846.936 172.481 845.16H179.489C179.521 844.856 179.537 844.6 179.537 844.28C179.537 841.88 177.873 840.088 175.329 840.088C172.769 840.088 170.993 841.832 170.993 844.6C170.993 847.384 172.833 849.144 175.329 849.144C177.505 849.144 178.913 847.896 179.361 846.296ZM185.18 844.584C185.18 847.304 186.988 849.144 189.324 849.144C190.94 849.144 192.076 848.312 192.604 847.368V849H194.076V840.232H192.604V841.832C192.092 840.92 190.972 840.088 189.34 840.088C186.988 840.088 185.18 841.848 185.18 844.584ZM192.604 844.6C192.604 846.664 191.228 847.864 189.628 847.864C188.028 847.864 186.668 846.648 186.668 844.584C186.668 842.52 188.028 841.352 189.628 841.352C191.228 841.352 192.604 842.568 192.604 844.6ZM202.953 849H204.393V843.832C204.393 841.32 202.841 840.072 200.809 840.072C199.625 840.072 198.569 840.568 197.993 841.48V840.232H196.537V849H197.993V844.152C197.993 842.264 199.017 841.336 200.505 841.336C201.977 841.336 202.953 842.248 202.953 844.04V849ZM210.493 844.584C210.493 847.304 212.301 849.144 214.637 849.144C216.253 849.144 217.389 848.312 217.917 847.368V849H219.389V840.232H217.917V841.832C217.405 840.92 216.285 840.088 214.653 840.088C212.301 840.088 210.493 841.848 210.493 844.584ZM217.917 844.6C217.917 846.664 216.541 847.864 214.941 847.864C213.341 847.864 211.981 846.648 211.981 844.584C211.981 842.52 213.341 841.352 214.941 841.352C216.541 841.352 217.917 842.568 217.917 844.6ZM221.305 844.6C221.305 847.384 223.081 849.144 225.577 849.144C227.753 849.144 229.177 847.928 229.625 846.184H228.057C227.737 847.288 226.873 847.912 225.577 847.912C223.977 847.912 222.793 846.776 222.793 844.6C222.793 842.456 223.977 841.32 225.577 841.32C226.873 841.32 227.753 841.992 228.057 843.048H229.625C229.177 841.208 227.753 840.088 225.577 840.088C223.081 840.088 221.305 841.848 221.305 844.6ZM231.024 844.6C231.024 847.384 232.8 849.144 235.296 849.144C237.472 849.144 238.896 847.928 239.344 846.184H237.776C237.456 847.288 236.592 847.912 235.296 847.912C233.696 847.912 232.512 846.776 232.512 844.6C232.512 842.456 233.696 841.32 235.296 841.32C236.592 841.32 237.472 841.992 237.776 843.048H239.344C238.896 841.208 237.472 840.088 235.296 840.088C232.8 840.088 231.024 841.848 231.024 844.6ZM249.607 844.6C249.607 841.832 247.671 840.088 245.175 840.088C242.695 840.088 240.743 841.832 240.743 844.6C240.743 847.384 242.631 849.144 245.111 849.144C247.607 849.144 249.607 847.384 249.607 844.6ZM242.231 844.6C242.231 842.392 243.623 841.352 245.159 841.352C246.663 841.352 248.119 842.392 248.119 844.6C248.119 846.824 246.631 847.864 245.111 847.864C243.591 847.864 242.231 846.824 242.231 844.6ZM259.297 840.232H257.841V845.048C257.841 846.936 256.833 847.864 255.329 847.864C253.857 847.864 252.881 846.952 252.881 845.176V840.232H251.441V845.368C251.441 847.88 253.025 849.128 255.041 849.128C256.209 849.128 257.281 848.616 257.841 847.704V849H259.297V840.232ZM268.171 849H269.611V843.832C269.611 841.32 268.059 840.072 266.027 840.072C264.843 840.072 263.787 840.568 263.211 841.48V840.232H261.755V849H263.211V844.152C263.211 842.264 264.235 841.336 265.723 841.336C267.195 841.336 268.171 842.248 268.171 844.04V849ZM272.31 846.6C272.31 848.36 273.19 849 274.742 849H276.054V847.768H274.982C274.086 847.768 273.766 847.464 273.766 846.6V841.432H276.054V840.232H273.766V838.024H272.31V840.232H271.174V841.432H272.31V846.6ZM290.004 845.656C290.004 841.896 284.452 842.776 284.452 840.824C284.452 840.12 284.948 839.784 285.604 839.8C286.34 839.816 286.852 840.248 286.9 840.968H289.86C289.748 838.824 288.1 837.608 285.652 837.608C283.3 837.608 281.556 838.792 281.556 840.92C281.524 844.904 287.14 843.784 287.14 845.864C287.14 846.52 286.628 846.92 285.828 846.92C285.06 846.92 284.516 846.504 284.436 845.64H281.524C281.604 847.912 283.492 849.112 285.908 849.112C288.532 849.112 290.004 847.544 290.004 845.656ZM291.687 849H294.423V840.072H291.687V849ZM293.063 839.144C294.023 839.144 294.679 838.488 294.679 837.672C294.679 836.84 294.023 836.184 293.063 836.184C292.087 836.184 291.431 836.84 291.431 837.672C291.431 838.488 292.087 839.144 293.063 839.144ZM295.862 844.52C295.862 847.336 297.606 849.128 299.798 849.128C301.11 849.128 302.054 848.504 302.55 847.72V848.984C302.55 850.488 301.734 851.032 300.694 851.032C299.75 851.032 299.078 850.6 298.902 849.928H296.198C296.438 852.056 298.166 853.4 300.822 853.4C303.91 853.4 305.286 851.368 305.286 848.984V840.072H302.55V841.336C302.07 840.536 301.11 839.944 299.798 839.944C297.606 839.944 295.862 841.704 295.862 844.52ZM302.55 844.536C302.55 845.96 301.638 846.744 300.598 846.744C299.574 846.744 298.646 845.944 298.646 844.52C298.646 843.096 299.574 842.328 300.598 842.328C301.638 842.328 302.55 843.112 302.55 844.536ZM313.425 849H316.145V843.784C316.145 841.384 314.769 839.976 312.705 839.976C311.505 839.976 310.545 840.504 310.001 841.256V840.072H307.265V849H310.001V844.152C310.001 842.936 310.673 842.264 311.713 842.264C312.753 842.264 313.425 842.936 313.425 844.152V849ZM321.389 844.472C321.389 847.576 323.421 849.112 326.029 849.112C328.621 849.112 330.797 847.576 330.797 844.472V837.768H328.061V844.488C328.061 845.816 327.373 846.584 326.077 846.584C324.781 846.584 324.125 845.816 324.125 844.488V837.768H321.389V844.472ZM335.455 841.336V840.072H332.719V853.256H335.455V847.752C335.951 848.504 336.895 849.128 338.207 849.128C340.399 849.128 342.143 847.336 342.143 844.52C342.143 841.704 340.399 839.944 338.207 839.944C336.895 839.944 335.951 840.552 335.455 841.336ZM339.359 844.52C339.359 845.944 338.431 846.744 337.391 846.744C336.367 846.744 335.439 845.96 335.439 844.536C335.439 843.112 336.367 842.328 337.391 842.328C338.431 842.328 339.359 843.096 339.359 844.52Z" fill="#D3D3D3"/>
<path d="M102.74 607.536L96.8838 630H90.2598L86.6758 615.216L82.9638 630H76.3398L70.6438 607.536H76.4998L79.7318 623.888L83.7318 607.536H89.7478L93.5878 623.888L96.8518 607.536H102.74ZM122.316 620.784C122.316 621.296 122.284 621.829 122.22 622.384H109.836C109.921 623.493 110.273 624.347 110.892 624.944C111.532 625.52 112.311 625.808 113.228 625.808C114.593 625.808 115.543 625.232 116.076 624.08H121.9C121.601 625.253 121.057 626.309 120.268 627.248C119.5 628.187 118.529 628.923 117.356 629.456C116.183 629.989 114.871 630.256 113.42 630.256C111.671 630.256 110.113 629.883 108.748 629.136C107.383 628.389 106.316 627.323 105.548 625.936C104.78 624.549 104.396 622.928 104.396 621.072C104.396 619.216 104.769 617.595 105.516 616.208C106.284 614.821 107.351 613.755 108.716 613.008C110.081 612.261 111.649 611.888 113.42 611.888C115.148 611.888 116.684 612.251 118.028 612.976C119.372 613.701 120.417 614.736 121.164 616.08C121.932 617.424 122.316 618.992 122.316 620.784ZM116.716 619.344C116.716 618.405 116.396 617.659 115.756 617.104C115.116 616.549 114.316 616.272 113.356 616.272C112.439 616.272 111.66 616.539 111.02 617.072C110.401 617.605 110.017 618.363 109.868 619.344H116.716ZM130.675 606.32V630H125.203V606.32H130.675ZM133.552 621.072C133.552 619.216 133.926 617.595 134.672 616.208C135.44 614.821 136.496 613.755 137.84 613.008C139.206 612.261 140.763 611.888 142.512 611.888C144.752 611.888 146.619 612.475 148.112 613.648C149.627 614.821 150.619 616.475 151.088 618.608H145.264C144.774 617.243 143.824 616.56 142.416 616.56C141.414 616.56 140.614 616.955 140.016 617.744C139.419 618.512 139.12 619.621 139.12 621.072C139.12 622.523 139.419 623.643 140.016 624.432C140.614 625.2 141.414 625.584 142.416 625.584C143.824 625.584 144.774 624.901 145.264 623.536H151.088C150.619 625.627 149.627 627.269 148.112 628.464C146.598 629.659 144.731 630.256 142.512 630.256C140.763 630.256 139.206 629.883 137.84 629.136C136.496 628.389 135.44 627.323 134.672 625.936C133.926 624.549 133.552 622.928 133.552 621.072ZM162.143 630.256C160.394 630.256 158.815 629.883 157.407 629.136C156.021 628.389 154.922 627.323 154.111 625.936C153.322 624.549 152.927 622.928 152.927 621.072C152.927 619.237 153.333 617.627 154.143 616.24C154.954 614.832 156.063 613.755 157.471 613.008C158.879 612.261 160.458 611.888 162.207 611.888C163.957 611.888 165.535 612.261 166.943 613.008C168.351 613.755 169.461 614.832 170.271 616.24C171.082 617.627 171.487 619.237 171.487 621.072C171.487 622.907 171.071 624.528 170.239 625.936C169.429 627.323 168.309 628.389 166.879 629.136C165.471 629.883 163.893 630.256 162.143 630.256ZM162.143 625.52C163.189 625.52 164.074 625.136 164.799 624.368C165.546 623.6 165.919 622.501 165.919 621.072C165.919 619.643 165.557 618.544 164.831 617.776C164.127 617.008 163.253 616.624 162.207 616.624C161.141 616.624 160.255 617.008 159.551 617.776C158.847 618.523 158.495 619.621 158.495 621.072C158.495 622.501 158.837 623.6 159.519 624.368C160.223 625.136 161.098 625.52 162.143 625.52ZM197.174 611.952C199.393 611.952 201.153 612.624 202.454 613.968C203.777 615.312 204.438 617.179 204.438 619.568V630H198.998V620.304C198.998 619.152 198.689 618.267 198.07 617.648C197.473 617.008 196.641 616.688 195.574 616.688C194.508 616.688 193.665 617.008 193.046 617.648C192.449 618.267 192.15 619.152 192.15 620.304V630H186.71V620.304C186.71 619.152 186.401 618.267 185.782 617.648C185.185 617.008 184.353 616.688 183.286 616.688C182.22 616.688 181.377 617.008 180.758 617.648C180.161 618.267 179.862 619.152 179.862 620.304V630H174.39V612.144H179.862V614.384C180.417 613.637 181.142 613.051 182.038 612.624C182.934 612.176 183.948 611.952 185.078 611.952C186.422 611.952 187.617 612.24 188.662 612.816C189.729 613.392 190.561 614.213 191.158 615.28C191.777 614.299 192.62 613.499 193.686 612.88C194.753 612.261 195.916 611.952 197.174 611.952ZM225.097 620.784C225.097 621.296 225.065 621.829 225.001 622.384H212.617C212.703 623.493 213.055 624.347 213.673 624.944C214.313 625.52 215.092 625.808 216.009 625.808C217.375 625.808 218.324 625.232 218.857 624.08H224.681C224.383 625.253 223.839 626.309 223.049 627.248C222.281 628.187 221.311 628.923 220.137 629.456C218.964 629.989 217.652 630.256 216.201 630.256C214.452 630.256 212.895 629.883 211.529 629.136C210.164 628.389 209.097 627.323 208.329 625.936C207.561 624.549 207.177 622.928 207.177 621.072C207.177 619.216 207.551 617.595 208.297 616.208C209.065 614.821 210.132 613.755 211.497 613.008C212.863 612.261 214.431 611.888 216.201 611.888C217.929 611.888 219.465 612.251 220.809 612.976C222.153 613.701 223.199 614.736 223.945 616.08C224.713 617.424 225.097 618.992 225.097 620.784ZM219.497 619.344C219.497 618.405 219.177 617.659 218.537 617.104C217.897 616.549 217.097 616.272 216.137 616.272C215.22 616.272 214.441 616.539 213.801 617.072C213.183 617.605 212.799 618.363 212.649 619.344H219.497ZM244.717 625.36V630H241.933C239.949 630 238.403 629.52 237.293 628.56C236.184 627.579 235.629 625.989 235.629 623.792V616.688H233.453V612.144H235.629V607.792H241.101V612.144H244.685V616.688H241.101V623.856C241.101 624.389 241.229 624.773 241.485 625.008C241.741 625.243 242.168 625.36 242.765 625.36H244.717ZM255.893 630.256C254.144 630.256 252.565 629.883 251.157 629.136C249.771 628.389 248.672 627.323 247.861 625.936C247.072 624.549 246.677 622.928 246.677 621.072C246.677 619.237 247.083 617.627 247.893 616.24C248.704 614.832 249.813 613.755 251.221 613.008C252.629 612.261 254.208 611.888 255.957 611.888C257.707 611.888 259.285 612.261 260.693 613.008C262.101 613.755 263.211 614.832 264.021 616.24C264.832 617.627 265.237 619.237 265.237 621.072C265.237 622.907 264.821 624.528 263.989 625.936C263.179 627.323 262.059 628.389 260.629 629.136C259.221 629.883 257.643 630.256 255.893 630.256ZM255.893 625.52C256.939 625.52 257.824 625.136 258.549 624.368C259.296 623.6 259.669 622.501 259.669 621.072C259.669 619.643 259.307 618.544 258.581 617.776C257.877 617.008 257.003 616.624 255.957 616.624C254.891 616.624 254.005 617.008 253.301 617.776C252.597 618.523 252.245 619.621 252.245 621.072C252.245 622.501 252.587 623.6 253.269 624.368C253.973 625.136 254.848 625.52 255.893 625.52ZM300.362 607.536V630H294.89V616.528L289.866 630H285.45L280.394 616.496V630H274.922V607.536H281.385L287.69 623.088L293.93 607.536H300.362ZM321.929 612.144V630H316.457V627.568C315.902 628.357 315.145 628.997 314.185 629.488C313.246 629.957 312.201 630.192 311.049 630.192C309.683 630.192 308.478 629.893 307.433 629.296C306.387 628.677 305.577 627.792 305.001 626.64C304.425 625.488 304.137 624.133 304.137 622.576V612.144H309.577V621.84C309.577 623.035 309.886 623.963 310.505 624.624C311.123 625.285 311.955 625.616 313.001 625.616C314.067 625.616 314.91 625.285 315.529 624.624C316.147 623.963 316.457 623.035 316.457 621.84V612.144H321.929ZM336.739 611.952C338.83 611.952 340.494 612.635 341.731 614C342.99 615.344 343.619 617.2 343.619 619.568V630H338.179V620.304C338.179 619.109 337.87 618.181 337.251 617.52C336.632 616.859 335.8 616.528 334.755 616.528C333.71 616.528 332.878 616.859 332.259 617.52C331.64 618.181 331.331 619.109 331.331 620.304V630H325.859V612.144H331.331V614.512C331.886 613.723 332.632 613.104 333.571 612.656C334.51 612.187 335.566 611.952 336.739 611.952ZM346.334 621.04C346.334 619.205 346.675 617.595 347.358 616.208C348.062 614.821 349.011 613.755 350.206 613.008C351.4 612.261 352.734 611.888 354.206 611.888C355.464 611.888 356.563 612.144 357.502 612.656C358.462 613.168 359.198 613.84 359.71 614.672V612.144H365.182V630H359.71V627.472C359.176 628.304 358.43 628.976 357.47 629.488C356.531 630 355.432 630.256 354.174 630.256C352.723 630.256 351.4 629.883 350.206 629.136C349.011 628.368 348.062 627.291 347.358 625.904C346.675 624.496 346.334 622.875 346.334 621.04ZM359.71 621.072C359.71 619.707 359.326 618.629 358.558 617.84C357.811 617.051 356.894 616.656 355.806 616.656C354.718 616.656 353.79 617.051 353.022 617.84C352.275 618.608 351.902 619.675 351.902 621.04C351.902 622.405 352.275 623.493 353.022 624.304C353.79 625.093 354.718 625.488 355.806 625.488C356.894 625.488 357.811 625.093 358.558 624.304C359.326 623.515 359.71 622.437 359.71 621.072Z" fill="#D3D3D3"/>
<path d="M70.0206 665.928V677H68.5646V668.744L64.8846 677H63.8606L60.1646 668.728V677H58.7086V665.928H60.2766L64.3726 675.08L68.4686 665.928H70.0206ZM80.2658 668.232V677H78.8098V675.704C78.5325 676.152 78.1431 676.504 77.6418 676.76C77.1511 677.005 76.6071 677.128 76.0098 677.128C75.3271 677.128 74.7138 676.989 74.1698 676.712C73.6258 676.424 73.1938 675.997 72.8738 675.432C72.5645 674.867 72.4098 674.179 72.4098 673.368V668.232H73.8498V673.176C73.8498 674.04 74.0685 674.707 74.5058 675.176C74.9431 675.635 75.5405 675.864 76.2978 675.864C77.0765 675.864 77.6898 675.624 78.1378 675.144C78.5858 674.664 78.8098 673.965 78.8098 673.048V668.232H80.2658ZM86.9962 668.072C88.0629 668.072 88.9269 668.397 89.5882 669.048C90.2495 669.688 90.5802 670.616 90.5802 671.832V677H89.1402V672.04C89.1402 671.165 88.9215 670.499 88.4842 670.04C88.0469 669.571 87.4495 669.336 86.6922 669.336C85.9242 669.336 85.3109 669.576 84.8522 670.056C84.4042 670.536 84.1802 671.235 84.1802 672.152V677H82.7242V668.232H84.1802V669.48C84.4682 669.032 84.8575 668.685 85.3482 668.44C85.8495 668.195 86.3989 668.072 86.9962 668.072ZM92.4146 672.584C92.4146 671.688 92.5959 670.904 92.9586 670.232C93.3212 669.549 93.8172 669.021 94.4466 668.648C95.0866 668.275 95.7959 668.088 96.5746 668.088C97.3426 668.088 98.0092 668.253 98.5746 668.584C99.1399 668.915 99.5612 669.331 99.8386 669.832V668.232H101.311V677H99.8386V675.368C99.5506 675.88 99.1186 676.307 98.5426 676.648C97.9772 676.979 97.3159 677.144 96.5586 677.144C95.7799 677.144 95.0759 676.952 94.4466 676.568C93.8172 676.184 93.3212 675.645 92.9586 674.952C92.5959 674.259 92.4146 673.469 92.4146 672.584ZM99.8386 672.6C99.8386 671.939 99.7052 671.363 99.4386 670.872C99.1719 670.381 98.8092 670.008 98.3506 669.752C97.9026 669.485 97.4066 669.352 96.8626 669.352C96.3186 669.352 95.8226 669.48 95.3746 669.736C94.9266 669.992 94.5692 670.365 94.3026 670.856C94.0359 671.347 93.9026 671.923 93.9026 672.584C93.9026 673.256 94.0359 673.843 94.3026 674.344C94.5692 674.835 94.9266 675.213 95.3746 675.48C95.8226 675.736 96.3186 675.864 96.8626 675.864C97.4066 675.864 97.9026 675.736 98.3506 675.48C98.8092 675.213 99.1719 674.835 99.4386 674.344C99.7052 673.843 99.8386 673.261 99.8386 672.6ZM108.789 666.808C108.511 666.808 108.277 666.712 108.085 666.52C107.893 666.328 107.797 666.093 107.797 665.816C107.797 665.539 107.893 665.304 108.085 665.112C108.277 664.92 108.511 664.824 108.789 664.824C109.055 664.824 109.279 664.92 109.461 665.112C109.653 665.304 109.749 665.539 109.749 665.816C109.749 666.093 109.653 666.328 109.461 666.52C109.279 666.712 109.055 666.808 108.789 666.808ZM109.493 668.232V677H108.037V668.232H109.493ZM115.078 677.144C114.406 677.144 113.804 677.032 113.27 676.808C112.737 676.573 112.316 676.253 112.006 675.848C111.697 675.432 111.526 674.957 111.494 674.424H112.998C113.041 674.861 113.244 675.219 113.606 675.496C113.98 675.773 114.465 675.912 115.062 675.912C115.617 675.912 116.054 675.789 116.374 675.544C116.694 675.299 116.854 674.989 116.854 674.616C116.854 674.232 116.684 673.949 116.342 673.768C116.001 673.576 115.473 673.389 114.758 673.208C114.108 673.037 113.574 672.867 113.158 672.696C112.753 672.515 112.401 672.253 112.102 671.912C111.814 671.56 111.67 671.101 111.67 670.536C111.67 670.088 111.804 669.677 112.07 669.304C112.337 668.931 112.716 668.637 113.206 668.424C113.697 668.2 114.257 668.088 114.886 668.088C115.857 668.088 116.641 668.333 117.238 668.824C117.836 669.315 118.156 669.987 118.198 670.84H116.742C116.71 670.381 116.524 670.013 116.182 669.736C115.852 669.459 115.404 669.32 114.838 669.32C114.316 669.32 113.9 669.432 113.59 669.656C113.281 669.88 113.126 670.173 113.126 670.536C113.126 670.824 113.217 671.064 113.398 671.256C113.59 671.437 113.825 671.587 114.102 671.704C114.39 671.811 114.785 671.933 115.286 672.072C115.916 672.243 116.428 672.413 116.822 672.584C117.217 672.744 117.553 672.989 117.83 673.32C118.118 673.651 118.268 674.083 118.278 674.616C118.278 675.096 118.145 675.528 117.878 675.912C117.612 676.296 117.233 676.6 116.742 676.824C116.262 677.037 115.708 677.144 115.078 677.144ZM124.055 672.584C124.055 671.688 124.237 670.904 124.599 670.232C124.962 669.549 125.458 669.021 126.087 668.648C126.727 668.275 127.437 668.088 128.215 668.088C128.983 668.088 129.65 668.253 130.215 668.584C130.781 668.915 131.202 669.331 131.479 669.832V668.232H132.951V677H131.479V675.368C131.191 675.88 130.759 676.307 130.183 676.648C129.618 676.979 128.957 677.144 128.199 677.144C127.421 677.144 126.717 676.952 126.087 676.568C125.458 676.184 124.962 675.645 124.599 674.952C124.237 674.259 124.055 673.469 124.055 672.584ZM131.479 672.6C131.479 671.939 131.346 671.363 131.079 670.872C130.813 670.381 130.45 670.008 129.991 669.752C129.543 669.485 129.047 669.352 128.503 669.352C127.959 669.352 127.463 669.48 127.015 669.736C126.567 669.992 126.21 670.365 125.943 670.856C125.677 671.347 125.543 671.923 125.543 672.584C125.543 673.256 125.677 673.843 125.943 674.344C126.21 674.835 126.567 675.213 127.015 675.48C127.463 675.736 127.959 675.864 128.503 675.864C129.047 675.864 129.543 675.736 129.991 675.48C130.45 675.213 130.813 674.835 131.079 674.344C131.346 673.843 131.479 673.261 131.479 672.6ZM142.941 675.656L145.661 668.232H147.213L143.773 677H142.077L138.637 668.232H140.205L142.941 675.656ZM149.398 666.808C149.121 666.808 148.886 666.712 148.694 666.52C148.502 666.328 148.406 666.093 148.406 665.816C148.406 665.539 148.502 665.304 148.694 665.112C148.886 664.92 149.121 664.824 149.398 664.824C149.665 664.824 149.889 664.92 150.07 665.112C150.262 665.304 150.358 665.539 150.358 665.816C150.358 666.093 150.262 666.328 150.07 666.52C149.889 666.712 149.665 666.808 149.398 666.808ZM150.102 668.232V677H148.646V668.232H150.102ZM152.04 672.584C152.04 671.688 152.221 670.904 152.584 670.232C152.946 669.549 153.442 669.021 154.072 668.648C154.712 668.275 155.426 668.088 156.216 668.088C156.898 668.088 157.533 668.248 158.12 668.568C158.706 668.877 159.154 669.288 159.464 669.8V665.16H160.936V677H159.464V675.352C159.176 675.875 158.749 676.307 158.184 676.648C157.618 676.979 156.957 677.144 156.2 677.144C155.421 677.144 154.712 676.952 154.072 676.568C153.442 676.184 152.946 675.645 152.584 674.952C152.221 674.259 152.04 673.469 152.04 672.584ZM159.464 672.6C159.464 671.939 159.33 671.363 159.064 670.872C158.797 670.381 158.434 670.008 157.976 669.752C157.528 669.485 157.032 669.352 156.488 669.352C155.944 669.352 155.448 669.48 155 669.736C154.552 669.992 154.194 670.365 153.928 670.856C153.661 671.347 153.528 671.923 153.528 672.584C153.528 673.256 153.661 673.843 153.928 674.344C154.194 674.835 154.552 675.213 155 675.48C155.448 675.736 155.944 675.864 156.488 675.864C157.032 675.864 157.528 675.736 157.976 675.48C158.434 675.213 158.797 674.835 159.064 674.344C159.33 673.843 159.464 673.261 159.464 672.6ZM171.396 672.28C171.396 672.557 171.38 672.851 171.348 673.16H164.34C164.393 674.024 164.687 674.701 165.22 675.192C165.764 675.672 166.42 675.912 167.188 675.912C167.817 675.912 168.34 675.768 168.756 675.48C169.183 675.181 169.481 674.787 169.652 674.296H171.22C170.985 675.139 170.516 675.827 169.812 676.36C169.108 676.883 168.233 677.144 167.188 677.144C166.356 677.144 165.609 676.957 164.948 676.584C164.297 676.211 163.785 675.683 163.412 675C163.039 674.307 162.852 673.507 162.852 672.6C162.852 671.693 163.033 670.899 163.396 670.216C163.759 669.533 164.265 669.011 164.916 668.648C165.577 668.275 166.335 668.088 167.188 668.088C168.02 668.088 168.756 668.269 169.396 668.632C170.036 668.995 170.527 669.496 170.868 670.136C171.22 670.765 171.396 671.48 171.396 672.28ZM169.892 671.976C169.892 671.421 169.769 670.947 169.524 670.552C169.279 670.147 168.943 669.843 168.516 669.64C168.1 669.427 167.636 669.32 167.124 669.32C166.388 669.32 165.759 669.555 165.236 670.024C164.724 670.493 164.431 671.144 164.356 671.976H169.892ZM177.142 677.144C176.321 677.144 175.574 676.957 174.902 676.584C174.241 676.211 173.718 675.683 173.334 675C172.961 674.307 172.774 673.507 172.774 672.6C172.774 671.704 172.966 670.915 173.35 670.232C173.745 669.539 174.278 669.011 174.95 668.648C175.622 668.275 176.374 668.088 177.206 668.088C178.038 668.088 178.79 668.275 179.462 668.648C180.134 669.011 180.662 669.533 181.046 670.216C181.441 670.899 181.638 671.693 181.638 672.6C181.638 673.507 181.435 674.307 181.03 675C180.635 675.683 180.097 676.211 179.414 676.584C178.731 676.957 177.974 677.144 177.142 677.144ZM177.142 675.864C177.665 675.864 178.155 675.741 178.614 675.496C179.073 675.251 179.441 674.883 179.718 674.392C180.006 673.901 180.15 673.304 180.15 672.6C180.15 671.896 180.011 671.299 179.734 670.808C179.457 670.317 179.094 669.955 178.646 669.72C178.198 669.475 177.713 669.352 177.19 669.352C176.657 669.352 176.166 669.475 175.718 669.72C175.281 669.955 174.929 670.317 174.662 670.808C174.395 671.299 174.262 671.896 174.262 672.6C174.262 673.315 174.39 673.917 174.646 674.408C174.913 674.899 175.265 675.267 175.702 675.512C176.139 675.747 176.619 675.864 177.142 675.864ZM190.922 677.144C190.25 677.144 189.647 677.032 189.114 676.808C188.581 676.573 188.159 676.253 187.85 675.848C187.541 675.432 187.37 674.957 187.338 674.424H188.842C188.885 674.861 189.087 675.219 189.45 675.496C189.823 675.773 190.309 675.912 190.906 675.912C191.461 675.912 191.898 675.789 192.218 675.544C192.538 675.299 192.698 674.989 192.698 674.616C192.698 674.232 192.527 673.949 192.186 673.768C191.845 673.576 191.317 673.389 190.602 673.208C189.951 673.037 189.418 672.867 189.002 672.696C188.597 672.515 188.245 672.253 187.946 671.912C187.658 671.56 187.514 671.101 187.514 670.536C187.514 670.088 187.647 669.677 187.914 669.304C188.181 668.931 188.559 668.637 189.05 668.424C189.541 668.2 190.101 668.088 190.73 668.088C191.701 668.088 192.485 668.333 193.082 668.824C193.679 669.315 193.999 669.987 194.042 670.84H192.586C192.554 670.381 192.367 670.013 192.026 669.736C191.695 669.459 191.247 669.32 190.682 669.32C190.159 669.32 189.743 669.432 189.434 669.656C189.125 669.88 188.97 670.173 188.97 670.536C188.97 670.824 189.061 671.064 189.242 671.256C189.434 671.437 189.669 671.587 189.946 671.704C190.234 671.811 190.629 671.933 191.13 672.072C191.759 672.243 192.271 672.413 192.666 672.584C193.061 672.744 193.397 672.989 193.674 673.32C193.962 673.651 194.111 674.083 194.122 674.616C194.122 675.096 193.989 675.528 193.722 675.912C193.455 676.296 193.077 676.6 192.586 676.824C192.106 677.037 191.551 677.144 190.922 677.144ZM197.953 669.432V674.6C197.953 675.027 198.044 675.331 198.225 675.512C198.407 675.683 198.721 675.768 199.169 675.768H200.241V677H198.929C198.119 677 197.511 676.813 197.105 676.44C196.7 676.067 196.497 675.453 196.497 674.6V669.432H195.361V668.232H196.497V666.024H197.953V668.232H200.241V669.432H197.953ZM203.461 669.656C203.717 669.155 204.08 668.765 204.549 668.488C205.029 668.211 205.611 668.072 206.293 668.072V669.576H205.909C204.277 669.576 203.461 670.461 203.461 672.232V677H202.005V668.232H203.461V669.656ZM215.974 672.28C215.974 672.557 215.958 672.851 215.926 673.16H208.918C208.972 674.024 209.265 674.701 209.798 675.192C210.342 675.672 210.998 675.912 211.766 675.912C212.396 675.912 212.918 675.768 213.334 675.48C213.761 675.181 214.06 674.787 214.23 674.296H215.798C215.564 675.139 215.094 675.827 214.39 676.36C213.686 676.883 212.812 677.144 211.766 677.144C210.934 677.144 210.188 676.957 209.526 676.584C208.876 676.211 208.364 675.683 207.99 675C207.617 674.307 207.43 673.507 207.43 672.6C207.43 671.693 207.612 670.899 207.974 670.216C208.337 669.533 208.844 669.011 209.494 668.648C210.156 668.275 210.913 668.088 211.766 668.088C212.598 668.088 213.334 668.269 213.974 668.632C214.614 668.995 215.105 669.496 215.446 670.136C215.798 670.765 215.974 671.48 215.974 672.28ZM214.47 671.976C214.47 671.421 214.348 670.947 214.102 670.552C213.857 670.147 213.521 669.843 213.094 669.64C212.678 669.427 212.214 669.32 211.702 669.32C210.966 669.32 210.337 669.555 209.814 670.024C209.302 670.493 209.009 671.144 208.934 671.976H214.47ZM217.352 672.584C217.352 671.688 217.533 670.904 217.896 670.232C218.259 669.549 218.755 669.021 219.384 668.648C220.024 668.275 220.733 668.088 221.512 668.088C222.28 668.088 222.947 668.253 223.512 668.584C224.077 668.915 224.499 669.331 224.776 669.832V668.232H226.248V677H224.776V675.368C224.488 675.88 224.056 676.307 223.48 676.648C222.915 676.979 222.253 677.144 221.496 677.144C220.717 677.144 220.013 676.952 219.384 676.568C218.755 676.184 218.259 675.645 217.896 674.952C217.533 674.259 217.352 673.469 217.352 672.584ZM224.776 672.6C224.776 671.939 224.643 671.363 224.376 670.872C224.109 670.381 223.747 670.008 223.288 669.752C222.84 669.485 222.344 669.352 221.8 669.352C221.256 669.352 220.76 669.48 220.312 669.736C219.864 669.992 219.507 670.365 219.24 670.856C218.973 671.347 218.84 671.923 218.84 672.584C218.84 673.256 218.973 673.843 219.24 674.344C219.507 674.835 219.864 675.213 220.312 675.48C220.76 675.736 221.256 675.864 221.8 675.864C222.344 675.864 222.84 675.736 223.288 675.48C223.747 675.213 224.109 674.835 224.376 674.344C224.643 673.843 224.776 673.261 224.776 672.6ZM239.253 668.072C239.935 668.072 240.543 668.216 241.077 668.504C241.61 668.781 242.031 669.203 242.341 669.768C242.65 670.333 242.805 671.021 242.805 671.832V677H241.365V672.04C241.365 671.165 241.146 670.499 240.709 670.04C240.282 669.571 239.701 669.336 238.965 669.336C238.207 669.336 237.605 669.581 237.157 670.072C236.709 670.552 236.485 671.251 236.485 672.168V677H235.045V672.04C235.045 671.165 234.826 670.499 234.389 670.04C233.962 669.571 233.381 669.336 232.645 669.336C231.887 669.336 231.285 669.581 230.837 670.072C230.389 670.552 230.165 671.251 230.165 672.168V677H228.709V668.232H230.165V669.496C230.453 669.037 230.837 668.685 231.317 668.44C231.807 668.195 232.346 668.072 232.933 668.072C233.669 668.072 234.319 668.237 234.885 668.568C235.45 668.899 235.871 669.384 236.149 670.024C236.394 669.405 236.799 668.925 237.365 668.584C237.93 668.243 238.559 668.072 239.253 668.072ZM245.945 666.808C245.668 666.808 245.433 666.712 245.241 666.52C245.049 666.328 244.953 666.093 244.953 665.816C244.953 665.539 245.049 665.304 245.241 665.112C245.433 664.92 245.668 664.824 245.945 664.824C246.212 664.824 246.436 664.92 246.617 665.112C246.809 665.304 246.905 665.539 246.905 665.816C246.905 666.093 246.809 666.328 246.617 666.52C246.436 666.712 246.212 666.808 245.945 666.808ZM246.649 668.232V677H245.193V668.232H246.649ZM253.402 668.072C254.469 668.072 255.333 668.397 255.994 669.048C256.656 669.688 256.986 670.616 256.986 671.832V677H255.546V672.04C255.546 671.165 255.328 670.499 254.89 670.04C254.453 669.571 253.856 669.336 253.098 669.336C252.33 669.336 251.717 669.576 251.258 670.056C250.81 670.536 250.586 671.235 250.586 672.152V677H249.13V668.232H250.586V669.48C250.874 669.032 251.264 668.685 251.754 668.44C252.256 668.195 252.805 668.072 253.402 668.072ZM262.981 668.088C263.738 668.088 264.399 668.253 264.965 668.584C265.541 668.915 265.967 669.331 266.245 669.832V668.232H267.717V677.192C267.717 677.992 267.546 678.701 267.205 679.32C266.863 679.949 266.373 680.44 265.733 680.792C265.103 681.144 264.367 681.32 263.525 681.32C262.373 681.32 261.413 681.048 260.645 680.504C259.877 679.96 259.423 679.219 259.285 678.28H260.725C260.885 678.813 261.215 679.24 261.717 679.56C262.218 679.891 262.821 680.056 263.525 680.056C264.325 680.056 264.975 679.805 265.477 679.304C265.989 678.803 266.245 678.099 266.245 677.192V675.352C265.957 675.864 265.53 676.291 264.965 676.632C264.399 676.973 263.738 677.144 262.981 677.144C262.202 677.144 261.493 676.952 260.853 676.568C260.223 676.184 259.727 675.645 259.365 674.952C259.002 674.259 258.821 673.469 258.821 672.584C258.821 671.688 259.002 670.904 259.365 670.232C259.727 669.549 260.223 669.021 260.853 668.648C261.493 668.275 262.202 668.088 262.981 668.088ZM266.245 672.6C266.245 671.939 266.111 671.363 265.845 670.872C265.578 670.381 265.215 670.008 264.757 669.752C264.309 669.485 263.813 669.352 263.269 669.352C262.725 669.352 262.229 669.48 261.781 669.736C261.333 669.992 260.975 670.365 260.709 670.856C260.442 671.347 260.309 671.923 260.309 672.584C260.309 673.256 260.442 673.843 260.709 674.344C260.975 674.835 261.333 675.213 261.781 675.48C262.229 675.736 262.725 675.864 263.269 675.864C263.813 675.864 264.309 675.736 264.757 675.48C265.215 675.213 265.578 674.835 265.845 674.344C266.111 673.843 266.245 673.261 266.245 672.6ZM275.899 669.848C276.187 669.347 276.614 668.931 277.179 668.6C277.755 668.259 278.422 668.088 279.179 668.088C279.958 668.088 280.662 668.275 281.291 668.648C281.931 669.021 282.432 669.549 282.795 670.232C283.158 670.904 283.339 671.688 283.339 672.584C283.339 673.469 283.158 674.259 282.795 674.952C282.432 675.645 281.931 676.184 281.291 676.568C280.662 676.952 279.958 677.144 279.179 677.144C278.432 677.144 277.771 676.979 277.195 676.648C276.63 676.307 276.198 675.885 275.899 675.384V681.16H274.443V668.232H275.899V669.848ZM281.851 672.584C281.851 671.923 281.718 671.347 281.451 670.856C281.184 670.365 280.822 669.992 280.363 669.736C279.915 669.48 279.419 669.352 278.875 669.352C278.342 669.352 277.846 669.485 277.387 669.752C276.939 670.008 276.576 670.387 276.299 670.888C276.032 671.379 275.899 671.949 275.899 672.6C275.899 673.261 276.032 673.843 276.299 674.344C276.576 674.835 276.939 675.213 277.387 675.48C277.846 675.736 278.342 675.864 278.875 675.864C279.419 675.864 279.915 675.736 280.363 675.48C280.822 675.213 281.184 674.835 281.451 674.344C281.718 673.843 281.851 673.256 281.851 672.584ZM286.711 665.16V677H285.255V665.16H286.711ZM288.649 672.584C288.649 671.688 288.83 670.904 289.193 670.232C289.556 669.549 290.052 669.021 290.681 668.648C291.321 668.275 292.03 668.088 292.809 668.088C293.577 668.088 294.244 668.253 294.809 668.584C295.374 668.915 295.796 669.331 296.073 669.832V668.232H297.545V677H296.073V675.368C295.785 675.88 295.353 676.307 294.777 676.648C294.212 676.979 293.55 677.144 292.793 677.144C292.014 677.144 291.31 676.952 290.681 676.568C290.052 676.184 289.556 675.645 289.193 674.952C288.83 674.259 288.649 673.469 288.649 672.584ZM296.073 672.6C296.073 671.939 295.94 671.363 295.673 670.872C295.406 670.381 295.044 670.008 294.585 669.752C294.137 669.485 293.641 669.352 293.097 669.352C292.553 669.352 292.057 669.48 291.609 669.736C291.161 669.992 290.804 670.365 290.537 670.856C290.27 671.347 290.137 671.923 290.137 672.584C290.137 673.256 290.27 673.843 290.537 674.344C290.804 674.835 291.161 675.213 291.609 675.48C292.057 675.736 292.553 675.864 293.097 675.864C293.641 675.864 294.137 675.736 294.585 675.48C295.044 675.213 295.406 674.835 295.673 674.344C295.94 673.843 296.073 673.261 296.073 672.6ZM301.781 669.432V674.6C301.781 675.027 301.872 675.331 302.053 675.512C302.235 675.683 302.549 675.768 302.997 675.768H304.069V677H302.757C301.947 677 301.339 676.813 300.933 676.44C300.528 676.067 300.325 675.453 300.325 674.6V669.432H299.189V668.232H300.325V666.024H301.781V668.232H304.069V669.432H301.781ZM309.402 669.432H307.562V677H306.106V669.432H304.97V668.232H306.106V667.608C306.106 666.627 306.356 665.912 306.858 665.464C307.37 665.005 308.186 664.776 309.306 664.776V665.992C308.666 665.992 308.212 666.12 307.946 666.376C307.69 666.621 307.562 667.032 307.562 667.608V668.232H309.402V669.432ZM314.923 677.144C314.102 677.144 313.355 676.957 312.683 676.584C312.022 676.211 311.499 675.683 311.115 675C310.742 674.307 310.555 673.507 310.555 672.6C310.555 671.704 310.747 670.915 311.131 670.232C311.526 669.539 312.059 669.011 312.731 668.648C313.403 668.275 314.155 668.088 314.987 668.088C315.819 668.088 316.571 668.275 317.243 668.648C317.915 669.011 318.443 669.533 318.827 670.216C319.222 670.899 319.419 671.693 319.419 672.6C319.419 673.507 319.217 674.307 318.811 675C318.417 675.683 317.878 676.211 317.195 676.584C316.513 676.957 315.755 677.144 314.923 677.144ZM314.923 675.864C315.446 675.864 315.937 675.741 316.395 675.496C316.854 675.251 317.222 674.883 317.499 674.392C317.787 673.901 317.931 673.304 317.931 672.6C317.931 671.896 317.793 671.299 317.515 670.808C317.238 670.317 316.875 669.955 316.427 669.72C315.979 669.475 315.494 669.352 314.971 669.352C314.438 669.352 313.947 669.475 313.499 669.72C313.062 669.955 312.71 670.317 312.443 670.808C312.177 671.299 312.043 671.896 312.043 672.6C312.043 673.315 312.171 673.917 312.427 674.408C312.694 674.899 313.046 675.267 313.483 675.512C313.921 675.747 314.401 675.864 314.923 675.864ZM322.79 669.656C323.046 669.155 323.408 668.765 323.878 668.488C324.358 668.211 324.939 668.072 325.622 668.072V669.576H325.238C323.606 669.576 322.79 670.461 322.79 672.232V677H321.334V668.232H322.79V669.656ZM337.846 668.072C338.529 668.072 339.137 668.216 339.67 668.504C340.204 668.781 340.625 669.203 340.934 669.768C341.244 670.333 341.398 671.021 341.398 671.832V677H339.958V672.04C339.958 671.165 339.74 670.499 339.302 670.04C338.876 669.571 338.294 669.336 337.558 669.336C336.801 669.336 336.198 669.581 335.75 670.072C335.302 670.552 335.078 671.251 335.078 672.168V677H333.638V672.04C333.638 671.165 333.42 670.499 332.982 670.04C332.556 669.571 331.974 669.336 331.238 669.336C330.481 669.336 329.878 669.581 329.43 670.072C328.982 670.552 328.758 671.251 328.758 672.168V677H327.302V668.232H328.758V669.496C329.046 669.037 329.43 668.685 329.91 668.44C330.401 668.195 330.94 668.072 331.526 668.072C332.262 668.072 332.913 668.237 333.478 668.568C334.044 668.899 334.465 669.384 334.742 670.024C334.988 669.405 335.393 668.925 335.958 668.584C336.524 668.243 337.153 668.072 337.846 668.072ZM349.828 669.432V674.6C349.828 675.027 349.919 675.331 350.1 675.512C350.282 675.683 350.596 675.768 351.044 675.768H352.116V677H350.804C349.994 677 349.386 676.813 348.98 676.44C348.575 676.067 348.372 675.453 348.372 674.6V669.432H347.236V668.232H348.372V666.024H349.828V668.232H352.116V669.432H349.828ZM358.232 668.072C358.894 668.072 359.491 668.216 360.024 668.504C360.558 668.781 360.974 669.203 361.272 669.768C361.582 670.333 361.736 671.021 361.736 671.832V677H360.296V672.04C360.296 671.165 360.078 670.499 359.64 670.04C359.203 669.571 358.606 669.336 357.848 669.336C357.08 669.336 356.467 669.576 356.008 670.056C355.56 670.536 355.336 671.235 355.336 672.152V677H353.88V665.16H355.336V669.48C355.624 669.032 356.019 668.685 356.52 668.44C357.032 668.195 357.603 668.072 358.232 668.072ZM363.571 672.584C363.571 671.688 363.752 670.904 364.115 670.232C364.477 669.549 364.973 669.021 365.603 668.648C366.243 668.275 366.952 668.088 367.731 668.088C368.499 668.088 369.165 668.253 369.731 668.584C370.296 668.915 370.717 669.331 370.995 669.832V668.232H372.467V677H370.995V675.368C370.707 675.88 370.275 676.307 369.699 676.648C369.133 676.979 368.472 677.144 367.715 677.144C366.936 677.144 366.232 676.952 365.603 676.568C364.973 676.184 364.477 675.645 364.115 674.952C363.752 674.259 363.571 673.469 363.571 672.584ZM370.995 672.6C370.995 671.939 370.861 671.363 370.595 670.872C370.328 670.381 369.965 670.008 369.507 669.752C369.059 669.485 368.563 669.352 368.019 669.352C367.475 669.352 366.979 669.48 366.531 669.736C366.083 669.992 365.725 670.365 365.459 670.856C365.192 671.347 365.059 671.923 365.059 672.584C365.059 673.256 365.192 673.843 365.459 674.344C365.725 674.835 366.083 675.213 366.531 675.48C366.979 675.736 367.475 675.864 368.019 675.864C368.563 675.864 369.059 675.736 369.507 675.48C369.965 675.213 370.328 674.835 370.595 674.344C370.861 673.843 370.995 673.261 370.995 672.6ZM376.703 669.432V674.6C376.703 675.027 376.794 675.331 376.975 675.512C377.157 675.683 377.471 675.768 377.919 675.768H378.991V677H377.679C376.869 677 376.261 676.813 375.855 676.44C375.45 676.067 375.247 675.453 375.247 674.6V669.432H374.111V668.232H375.247V666.024H376.703V668.232H378.991V669.432H376.703ZM137.258 689.16V701H135.802V689.16H137.258ZM147.74 696.28C147.74 696.557 147.724 696.851 147.692 697.16H140.684C140.737 698.024 141.03 698.701 141.564 699.192C142.108 699.672 142.764 699.912 143.532 699.912C144.161 699.912 144.684 699.768 145.1 699.48C145.526 699.181 145.825 698.787 145.996 698.296H147.564C147.329 699.139 146.86 699.827 146.156 700.36C145.452 700.883 144.577 701.144 143.532 701.144C142.7 701.144 141.953 700.957 141.292 700.584C140.641 700.211 140.129 699.683 139.756 699C139.382 698.307 139.196 697.507 139.196 696.6C139.196 695.693 139.377 694.899 139.74 694.216C140.102 693.533 140.609 693.011 141.26 692.648C141.921 692.275 142.678 692.088 143.532 692.088C144.364 692.088 145.1 692.269 145.74 692.632C146.38 692.995 146.87 693.496 147.212 694.136C147.564 694.765 147.74 695.48 147.74 696.28ZM146.236 695.976C146.236 695.421 146.113 694.947 145.868 694.552C145.622 694.147 145.286 693.843 144.86 693.64C144.444 693.427 143.98 693.32 143.468 693.32C142.732 693.32 142.102 693.555 141.58 694.024C141.068 694.493 140.774 695.144 140.7 695.976H146.236ZM151.438 693.432V698.6C151.438 699.027 151.528 699.331 151.71 699.512C151.891 699.683 152.206 699.768 152.654 699.768H153.726V701H152.414C151.603 701 150.995 700.813 150.59 700.44C150.184 700.067 149.982 699.453 149.982 698.6V693.432H148.846V692.232H149.982V690.024H151.438V692.232H153.726V693.432H151.438ZM158.594 701.144C157.922 701.144 157.319 701.032 156.786 700.808C156.252 700.573 155.831 700.253 155.522 699.848C155.212 699.432 155.042 698.957 155.01 698.424H156.514C156.556 698.861 156.759 699.219 157.122 699.496C157.495 699.773 157.98 699.912 158.578 699.912C159.132 699.912 159.57 699.789 159.89 699.544C160.21 699.299 160.37 698.989 160.37 698.616C160.37 698.232 160.199 697.949 159.858 697.768C159.516 697.576 158.988 697.389 158.274 697.208C157.623 697.037 157.09 696.867 156.674 696.696C156.268 696.515 155.916 696.253 155.618 695.912C155.33 695.56 155.186 695.101 155.186 694.536C155.186 694.088 155.319 693.677 155.586 693.304C155.852 692.931 156.231 692.637 156.722 692.424C157.212 692.2 157.772 692.088 158.402 692.088C159.372 692.088 160.156 692.333 160.754 692.824C161.351 693.315 161.671 693.987 161.714 694.84H160.258C160.226 694.381 160.039 694.013 159.698 693.736C159.367 693.459 158.919 693.32 158.354 693.32C157.831 693.32 157.415 693.432 157.106 693.656C156.796 693.88 156.642 694.173 156.642 694.536C156.642 694.824 156.732 695.064 156.914 695.256C157.106 695.437 157.34 695.587 157.618 695.704C157.906 695.811 158.3 695.933 158.802 696.072C159.431 696.243 159.943 696.413 160.338 696.584C160.732 696.744 161.068 696.989 161.346 697.32C161.634 697.651 161.783 698.083 161.794 698.616C161.794 699.096 161.66 699.528 161.394 699.912C161.127 700.296 160.748 700.6 160.258 700.824C159.778 701.037 159.223 701.144 158.594 701.144ZM175.667 692.232L170.387 705.128H168.883L170.611 700.904L167.075 692.232H168.691L171.443 699.336L174.163 692.232H175.667ZM180.954 701.144C180.133 701.144 179.386 700.957 178.714 700.584C178.053 700.211 177.53 699.683 177.146 699C176.773 698.307 176.586 697.507 176.586 696.6C176.586 695.704 176.778 694.915 177.162 694.232C177.557 693.539 178.09 693.011 178.762 692.648C179.434 692.275 180.186 692.088 181.018 692.088C181.85 692.088 182.602 692.275 183.274 692.648C183.946 693.011 184.474 693.533 184.858 694.216C185.253 694.899 185.45 695.693 185.45 696.6C185.45 697.507 185.248 698.307 184.842 699C184.448 699.683 183.909 700.211 183.226 700.584C182.544 700.957 181.786 701.144 180.954 701.144ZM180.954 699.864C181.477 699.864 181.968 699.741 182.426 699.496C182.885 699.251 183.253 698.883 183.53 698.392C183.818 697.901 183.962 697.304 183.962 696.6C183.962 695.896 183.824 695.299 183.546 694.808C183.269 694.317 182.906 693.955 182.458 693.72C182.01 693.475 181.525 693.352 181.002 693.352C180.469 693.352 179.978 693.475 179.53 693.72C179.093 693.955 178.741 694.317 178.474 694.808C178.208 695.299 178.074 695.896 178.074 696.6C178.074 697.315 178.202 697.917 178.458 698.408C178.725 698.899 179.077 699.267 179.514 699.512C179.952 699.747 180.432 699.864 180.954 699.864ZM195.141 692.232V701H193.685V699.704C193.407 700.152 193.018 700.504 192.517 700.76C192.026 701.005 191.482 701.128 190.885 701.128C190.202 701.128 189.589 700.989 189.045 700.712C188.501 700.424 188.069 699.997 187.749 699.432C187.439 698.867 187.285 698.179 187.285 697.368V692.232H188.725V697.176C188.725 698.04 188.943 698.707 189.381 699.176C189.818 699.635 190.415 699.864 191.173 699.864C191.951 699.864 192.565 699.624 193.013 699.144C193.461 698.664 193.685 697.965 193.685 697.048V692.232H195.141ZM204.969 701.144C204.297 701.144 203.694 701.032 203.161 700.808C202.627 700.573 202.206 700.253 201.897 699.848C201.587 699.432 201.417 698.957 201.385 698.424H202.889C202.931 698.861 203.134 699.219 203.497 699.496C203.87 699.773 204.355 699.912 204.953 699.912C205.507 699.912 205.945 699.789 206.265 699.544C206.585 699.299 206.745 698.989 206.745 698.616C206.745 698.232 206.574 697.949 206.233 697.768C205.891 697.576 205.363 697.389 204.649 697.208C203.998 697.037 203.465 696.867 203.049 696.696C202.643 696.515 202.291 696.253 201.993 695.912C201.705 695.56 201.561 695.101 201.561 694.536C201.561 694.088 201.694 693.677 201.961 693.304C202.227 692.931 202.606 692.637 203.097 692.424C203.587 692.2 204.147 692.088 204.777 692.088C205.747 692.088 206.531 692.333 207.129 692.824C207.726 693.315 208.046 693.987 208.089 694.84H206.633C206.601 694.381 206.414 694.013 206.073 693.736C205.742 693.459 205.294 693.32 204.729 693.32C204.206 693.32 203.79 693.432 203.481 693.656C203.171 693.88 203.017 694.173 203.017 694.536C203.017 694.824 203.107 695.064 203.289 695.256C203.481 695.437 203.715 695.587 203.993 695.704C204.281 695.811 204.675 695.933 205.177 696.072C205.806 696.243 206.318 696.413 206.713 696.584C207.107 696.744 207.443 696.989 207.721 697.32C208.009 697.651 208.158 698.083 208.169 698.616C208.169 699.096 208.035 699.528 207.769 699.912C207.502 700.296 207.123 700.6 206.633 700.824C206.153 701.037 205.598 701.144 204.969 701.144ZM214.576 692.072C215.238 692.072 215.835 692.216 216.368 692.504C216.902 692.781 217.318 693.203 217.616 693.768C217.926 694.333 218.08 695.021 218.08 695.832V701H216.64V696.04C216.64 695.165 216.422 694.499 215.984 694.04C215.547 693.571 214.95 693.336 214.192 693.336C213.424 693.336 212.811 693.576 212.352 694.056C211.904 694.536 211.68 695.235 211.68 696.152V701H210.224V689.16H211.68V693.48C211.968 693.032 212.363 692.685 212.864 692.44C213.376 692.195 213.947 692.072 214.576 692.072ZM219.915 696.584C219.915 695.688 220.096 694.904 220.459 694.232C220.821 693.549 221.317 693.021 221.947 692.648C222.587 692.275 223.296 692.088 224.075 692.088C224.843 692.088 225.509 692.253 226.075 692.584C226.64 692.915 227.061 693.331 227.339 693.832V692.232H228.811V701H227.339V699.368C227.051 699.88 226.619 700.307 226.043 700.648C225.477 700.979 224.816 701.144 224.059 701.144C223.28 701.144 222.576 700.952 221.947 700.568C221.317 700.184 220.821 699.645 220.459 698.952C220.096 698.259 219.915 697.469 219.915 696.584ZM227.339 696.6C227.339 695.939 227.205 695.363 226.939 694.872C226.672 694.381 226.309 694.008 225.851 693.752C225.403 693.485 224.907 693.352 224.363 693.352C223.819 693.352 223.323 693.48 222.875 693.736C222.427 693.992 222.069 694.365 221.803 694.856C221.536 695.347 221.403 695.923 221.403 696.584C221.403 697.256 221.536 697.843 221.803 698.344C222.069 698.835 222.427 699.213 222.875 699.48C223.323 699.736 223.819 699.864 224.363 699.864C224.907 699.864 225.403 699.736 225.851 699.48C226.309 699.213 226.672 698.835 226.939 698.344C227.205 697.843 227.339 697.261 227.339 696.6ZM232.727 693.656C232.983 693.155 233.346 692.765 233.815 692.488C234.295 692.211 234.876 692.072 235.559 692.072V693.576H235.175C233.543 693.576 232.727 694.461 232.727 696.232V701H231.271V692.232H232.727V693.656ZM245.24 696.28C245.24 696.557 245.224 696.851 245.192 697.16H238.184C238.237 698.024 238.53 698.701 239.064 699.192C239.608 699.672 240.264 699.912 241.032 699.912C241.661 699.912 242.184 699.768 242.6 699.48C243.026 699.181 243.325 698.787 243.496 698.296H245.064C244.829 699.139 244.36 699.827 243.656 700.36C242.952 700.883 242.077 701.144 241.032 701.144C240.2 701.144 239.453 700.957 238.792 700.584C238.141 700.211 237.629 699.683 237.256 699C236.882 698.307 236.696 697.507 236.696 696.6C236.696 695.693 236.877 694.899 237.24 694.216C237.602 693.533 238.109 693.011 238.76 692.648C239.421 692.275 240.178 692.088 241.032 692.088C241.864 692.088 242.6 692.269 243.24 692.632C243.88 692.995 244.37 693.496 244.712 694.136C245.064 694.765 245.24 695.48 245.24 696.28ZM243.736 695.976C243.736 695.421 243.613 694.947 243.368 694.552C243.122 694.147 242.786 693.843 242.36 693.64C241.944 693.427 241.48 693.32 240.968 693.32C240.232 693.32 239.602 693.555 239.08 694.024C238.568 694.493 238.274 695.144 238.2 695.976H243.736ZM254.691 699.656L257.411 692.232H258.963L255.523 701H253.827L250.387 692.232H251.955L254.691 699.656ZM261.148 690.808C260.871 690.808 260.636 690.712 260.444 690.52C260.252 690.328 260.156 690.093 260.156 689.816C260.156 689.539 260.252 689.304 260.444 689.112C260.636 688.92 260.871 688.824 261.148 688.824C261.415 688.824 261.639 688.92 261.82 689.112C262.012 689.304 262.108 689.539 262.108 689.816C262.108 690.093 262.012 690.328 261.82 690.52C261.639 690.712 261.415 690.808 261.148 690.808ZM261.852 692.232V701H260.396V692.232H261.852ZM263.79 696.584C263.79 695.688 263.971 694.904 264.334 694.232C264.696 693.549 265.192 693.021 265.822 692.648C266.462 692.275 267.176 692.088 267.966 692.088C268.648 692.088 269.283 692.248 269.87 692.568C270.456 692.877 270.904 693.288 271.214 693.8V689.16H272.686V701H271.214V699.352C270.926 699.875 270.499 700.307 269.934 700.648C269.368 700.979 268.707 701.144 267.95 701.144C267.171 701.144 266.462 700.952 265.822 700.568C265.192 700.184 264.696 699.645 264.334 698.952C263.971 698.259 263.79 697.469 263.79 696.584ZM271.214 696.6C271.214 695.939 271.08 695.363 270.814 694.872C270.547 694.381 270.184 694.008 269.726 693.752C269.278 693.485 268.782 693.352 268.238 693.352C267.694 693.352 267.198 693.48 266.75 693.736C266.302 693.992 265.944 694.365 265.678 694.856C265.411 695.347 265.278 695.923 265.278 696.584C265.278 697.256 265.411 697.843 265.678 698.344C265.944 698.835 266.302 699.213 266.75 699.48C267.198 699.736 267.694 699.864 268.238 699.864C268.782 699.864 269.278 699.736 269.726 699.48C270.184 699.213 270.547 698.835 270.814 698.344C271.08 697.843 271.214 697.261 271.214 696.6ZM283.146 696.28C283.146 696.557 283.13 696.851 283.098 697.16H276.09C276.143 698.024 276.437 698.701 276.97 699.192C277.514 699.672 278.17 699.912 278.938 699.912C279.567 699.912 280.09 699.768 280.506 699.48C280.933 699.181 281.231 698.787 281.402 698.296H282.97C282.735 699.139 282.266 699.827 281.562 700.36C280.858 700.883 279.983 701.144 278.938 701.144C278.106 701.144 277.359 700.957 276.698 700.584C276.047 700.211 275.535 699.683 275.162 699C274.789 698.307 274.602 697.507 274.602 696.6C274.602 695.693 274.783 694.899 275.146 694.216C275.509 693.533 276.015 693.011 276.666 692.648C277.327 692.275 278.085 692.088 278.938 692.088C279.77 692.088 280.506 692.269 281.146 692.632C281.786 692.995 282.277 693.496 282.618 694.136C282.97 694.765 283.146 695.48 283.146 696.28ZM281.642 695.976C281.642 695.421 281.519 694.947 281.274 694.552C281.029 694.147 280.693 693.843 280.266 693.64C279.85 693.427 279.386 693.32 278.874 693.32C278.138 693.32 277.509 693.555 276.986 694.024C276.474 694.493 276.181 695.144 276.106 695.976H281.642ZM288.892 701.144C288.071 701.144 287.324 700.957 286.652 700.584C285.991 700.211 285.468 699.683 285.084 699C284.711 698.307 284.524 697.507 284.524 696.6C284.524 695.704 284.716 694.915 285.1 694.232C285.495 693.539 286.028 693.011 286.7 692.648C287.372 692.275 288.124 692.088 288.956 692.088C289.788 692.088 290.54 692.275 291.212 692.648C291.884 693.011 292.412 693.533 292.796 694.216C293.191 694.899 293.388 695.693 293.388 696.6C293.388 697.507 293.185 698.307 292.78 699C292.385 699.683 291.847 700.211 291.164 700.584C290.481 700.957 289.724 701.144 288.892 701.144ZM288.892 699.864C289.415 699.864 289.905 699.741 290.364 699.496C290.823 699.251 291.191 698.883 291.468 698.392C291.756 697.901 291.9 697.304 291.9 696.6C291.9 695.896 291.761 695.299 291.484 694.808C291.207 694.317 290.844 693.955 290.396 693.72C289.948 693.475 289.463 693.352 288.94 693.352C288.407 693.352 287.916 693.475 287.468 693.72C287.031 693.955 286.679 694.317 286.412 694.808C286.145 695.299 286.012 695.896 286.012 696.6C286.012 697.315 286.14 697.917 286.396 698.408C286.663 698.899 287.015 699.267 287.452 699.512C287.889 699.747 288.369 699.864 288.892 699.864ZM298.406 701.144C297.734 701.144 297.132 701.032 296.598 700.808C296.065 700.573 295.644 700.253 295.334 699.848C295.025 699.432 294.854 698.957 294.822 698.424H296.326C296.369 698.861 296.572 699.219 296.934 699.496C297.308 699.773 297.793 699.912 298.39 699.912C298.945 699.912 299.382 699.789 299.702 699.544C300.022 699.299 300.182 698.989 300.182 698.616C300.182 698.232 300.012 697.949 299.67 697.768C299.329 697.576 298.801 697.389 298.086 697.208C297.436 697.037 296.902 696.867 296.486 696.696C296.081 696.515 295.729 696.253 295.43 695.912C295.142 695.56 294.998 695.101 294.998 694.536C294.998 694.088 295.132 693.677 295.398 693.304C295.665 692.931 296.044 692.637 296.534 692.424C297.025 692.2 297.585 692.088 298.214 692.088C299.185 692.088 299.969 692.333 300.566 692.824C301.164 693.315 301.484 693.987 301.526 694.84H300.07C300.038 694.381 299.852 694.013 299.51 693.736C299.18 693.459 298.732 693.32 298.166 693.32C297.644 693.32 297.228 693.432 296.918 693.656C296.609 693.88 296.454 694.173 296.454 694.536C296.454 694.824 296.545 695.064 296.726 695.256C296.918 695.437 297.153 695.587 297.43 695.704C297.718 695.811 298.113 695.933 298.614 696.072C299.244 696.243 299.756 696.413 300.15 696.584C300.545 696.744 300.881 696.989 301.158 697.32C301.446 697.651 301.596 698.083 301.606 698.616C301.606 699.096 301.473 699.528 301.206 699.912C300.94 700.296 300.561 700.6 300.07 700.824C299.59 701.037 299.036 701.144 298.406 701.144Z" fill="#D3D3D3"/>
<rect x="24" y="723" width="388" height="70" rx="5" fill="#F5F5F5"/>
<path d="M196.39 760.918C196.39 755.758 188.87 757.998 188.87 754.398C188.87 752.898 190.05 752.118 191.55 752.158C193.25 752.178 194.13 753.238 194.25 754.178H196.25C196.03 752.058 194.29 750.598 191.63 750.598C188.87 750.598 187.01 752.158 187.01 754.458C187.01 759.638 194.55 757.238 194.55 760.998C194.55 762.318 193.51 763.318 191.75 763.318C189.81 763.318 188.99 762.158 188.87 760.998H186.93C186.97 763.298 188.95 764.858 191.75 764.858C194.77 764.858 196.39 762.898 196.39 760.918ZM199.069 764.718H200.889V753.758H199.069V764.718ZM200.009 751.978C200.669 751.978 201.209 751.438 201.209 750.738C201.209 750.038 200.669 749.498 200.009 749.498C199.309 749.498 198.769 750.038 198.769 750.738C198.769 751.438 199.309 751.978 200.009 751.978ZM203.311 759.198C203.311 762.598 205.571 764.898 208.511 764.898C210.511 764.898 211.931 763.838 212.591 762.658V764.958C212.591 767.298 211.131 768.538 209.191 768.538C207.391 768.538 206.091 767.638 205.691 766.318H203.891C204.251 768.658 206.311 770.118 209.191 770.118C212.411 770.118 214.431 767.978 214.431 764.958V753.758H212.591V755.758C211.951 754.578 210.511 753.578 208.511 753.578C205.571 753.578 203.311 755.778 203.311 759.198ZM212.591 759.218C212.591 761.798 210.871 763.298 208.871 763.298C206.871 763.298 205.171 761.778 205.171 759.198C205.171 756.618 206.871 755.158 208.871 755.158C210.871 755.158 212.591 756.678 212.591 759.218ZM225.526 764.718H227.326V758.258C227.326 755.118 225.386 753.558 222.846 753.558C221.366 753.558 220.046 754.178 219.326 755.318V753.758H217.506V764.718H219.326V758.658C219.326 756.298 220.606 755.138 222.466 755.138C224.306 755.138 225.526 756.278 225.526 758.518V764.718ZM235.631 764.718H237.451V753.758H235.631V764.718ZM236.571 751.978C237.231 751.978 237.771 751.438 237.771 750.738C237.771 750.038 237.231 749.498 236.571 749.498C235.871 749.498 235.331 750.038 235.331 750.738C235.331 751.438 235.871 751.978 236.571 751.978ZM248.573 764.718H250.373V758.258C250.373 755.118 248.433 753.558 245.893 753.558C244.413 753.558 243.093 754.178 242.373 755.318V753.758H240.553V764.718H242.373V758.658C242.373 756.298 243.653 755.138 245.513 755.138C247.353 755.138 248.573 756.278 248.573 758.518V764.718Z" fill="#D3D3D3"/>
<rect x="4" width="428" height="503" fill="#D9D9D9"/>
</g>
<defs>
<filter id="filter0_d_292_24" x="0" y="0" width="436" height="934" filterUnits="userSpaceOnUse" color-interpolation-filters="sRGB">
<feFlood flood-opacity="0" result="BackgroundImageFix"/>
<feColorMatrix in="SourceAlpha" type="matrix" values="0 0 0 0 0 0 0 0 0 0 0 0 0 0 0 0 0 0 127 0" result="hardAlpha"/>
<feOffset dy="4"/>
<feGaussianBlur stdDeviation="2"/>
<feComposite in2="hardAlpha" operator="out"/>
<feColorMatrix type="matrix" values="0 0 0 0 0 0 0 0 0 0 0 0 0 0 0 0 0 0 0.25 0"/>
<feBlend mode="normal" in2="BackgroundImageFix" result="effect1_dropShadow_292_24"/>
<feBlend mode="normal" in="SourceGraphic" in2="effect1_dropShadow_292_24" result="shape"/>
</filter>
</defs>
</svg>
