<svg width="436" height="934" viewBox="0 0 436 934" fill="none" xmlns="http://www.w3.org/2000/svg">
<g filter="url(#filter0_d_1_29)">
<rect width="428" height="926" transform="translate(4)" fill="black"/>
<path d="M134.045 444.455H146.182L159 475.727H159.545L172.364 444.455H184.5V491H174.955V460.705H174.568L162.523 490.773H156.023L143.977 460.591H143.591V491H134.045V444.455ZM214.812 476.136V456.091H224.494V491H215.199V484.659H214.835C214.047 486.705 212.737 488.348 210.903 489.591C209.085 490.833 206.866 491.455 204.244 491.455C201.911 491.455 199.858 490.924 198.085 489.864C196.313 488.803 194.926 487.295 193.926 485.341C192.941 483.386 192.441 481.045 192.426 478.318V456.091H202.108V476.591C202.123 478.652 202.676 480.28 203.767 481.477C204.858 482.674 206.32 483.273 208.153 483.273C209.32 483.273 210.411 483.008 211.426 482.477C212.441 481.932 213.259 481.129 213.881 480.068C214.517 479.008 214.828 477.697 214.812 476.136ZM241.92 470.818V491H232.239V456.091H241.466V462.25H241.875C242.648 460.22 243.943 458.614 245.761 457.432C247.58 456.235 249.784 455.636 252.375 455.636C254.799 455.636 256.913 456.167 258.716 457.227C260.519 458.288 261.92 459.803 262.92 461.773C263.92 463.727 264.42 466.061 264.42 468.773V491H254.739V470.5C254.754 468.364 254.208 466.697 253.102 465.5C251.996 464.288 250.473 463.682 248.534 463.682C247.231 463.682 246.08 463.962 245.08 464.523C244.095 465.083 243.322 465.902 242.761 466.977C242.216 468.038 241.936 469.318 241.92 470.818ZM282.006 491.659C279.778 491.659 277.794 491.273 276.051 490.5C274.309 489.712 272.93 488.553 271.915 487.023C270.915 485.477 270.415 483.553 270.415 481.25C270.415 479.311 270.771 477.682 271.483 476.364C272.195 475.045 273.165 473.985 274.392 473.182C275.619 472.379 277.013 471.773 278.574 471.364C280.15 470.955 281.801 470.667 283.528 470.5C285.559 470.288 287.195 470.091 288.438 469.909C289.68 469.712 290.581 469.424 291.142 469.045C291.703 468.667 291.983 468.106 291.983 467.364V467.227C291.983 465.788 291.528 464.674 290.619 463.886C289.725 463.098 288.453 462.705 286.801 462.705C285.059 462.705 283.672 463.091 282.642 463.864C281.612 464.621 280.93 465.576 280.597 466.727L271.642 466C272.097 463.879 272.991 462.045 274.324 460.5C275.657 458.939 277.377 457.742 279.483 456.909C281.604 456.061 284.059 455.636 286.847 455.636C288.786 455.636 290.642 455.864 292.415 456.318C294.203 456.773 295.786 457.477 297.165 458.432C298.559 459.386 299.657 460.614 300.46 462.114C301.263 463.598 301.665 465.379 301.665 467.455V491H292.483V486.159H292.21C291.65 487.25 290.9 488.212 289.96 489.045C289.021 489.864 287.892 490.508 286.574 490.977C285.256 491.432 283.733 491.659 282.006 491.659ZM284.778 484.977C286.203 484.977 287.46 484.697 288.551 484.136C289.642 483.561 290.498 482.788 291.119 481.818C291.741 480.848 292.051 479.75 292.051 478.523V474.818C291.748 475.015 291.331 475.197 290.801 475.364C290.286 475.515 289.703 475.659 289.051 475.795C288.4 475.917 287.748 476.03 287.097 476.136C286.445 476.227 285.854 476.311 285.324 476.386C284.188 476.553 283.195 476.818 282.347 477.182C281.498 477.545 280.839 478.038 280.369 478.659C279.9 479.265 279.665 480.023 279.665 480.932C279.665 482.25 280.142 483.258 281.097 483.955C282.066 484.636 283.294 484.977 284.778 484.977Z" fill="url(#paint0_linear_1_29)"/>
</g>
<defs>
<filter id="filter0_d_1_29" x="0" y="0" width="436" height="934" filterUnits="userSpaceOnUse" color-interpolation-filters="sRGB">
<feFlood flood-opacity="0" result="BackgroundImageFix"/>
<feColorMatrix in="SourceAlpha" type="matrix" values="0 0 0 0 0 0 0 0 0 0 0 0 0 0 0 0 0 0 127 0" result="hardAlpha"/>
<feOffset dy="4"/>
<feGaussianBlur stdDeviation="2"/>
<feComposite in2="hardAlpha" operator="out"/>
<feColorMatrix type="matrix" values="0 0 0 0 0 0 0 0 0 0 0 0 0 0 0 0 0 0 0.25 0"/>
<feBlend mode="normal" in2="BackgroundImageFix" result="effect1_dropShadow_1_29"/>
<feBlend mode="normal" in="SourceGraphic" in2="effect1_dropShadow_1_29" result="shape"/>
</filter>
<linearGradient id="paint0_linear_1_29" x1="218.5" y1="429" x2="218.5" y2="498" gradientUnits="userSpaceOnUse">
<stop stop-color="#3700B3"/>
<stop offset="1" stop-color="#8C20BF"/>
</linearGradient>
</defs>
</svg>
