<svg width="375" height="812" viewBox="0 0 375 812" fill="none" xmlns="http://www.w3.org/2000/svg">
<g clip-path="url(#clip0_956_346)">
<rect width="375" height="812" fill="white"/>
<path d="M375 0H0V812H375V0Z" fill="white"/>
<g filter="url(#filter0_d_956_346)">
<path d="M325 677H50C42.8203 677 37 682.82 37 690V716C37 723.18 42.8203 729 50 729H325C332.18 729 338 723.18 338 716V690C338 682.82 332.18 677 325 677Z" fill="#D3D3D3"/>
</g>
<path d="M180.836 709H179.416L173.563 700.013H173.505C173.583 701.068 173.622 702.035 173.622 702.914V709H172.472V698.292H173.878L179.716 707.242H179.774C179.765 707.11 179.743 706.688 179.708 705.975C179.674 705.257 179.662 704.745 179.672 704.437V698.292H180.836V709ZM186.989 709.146C185.802 709.146 184.865 708.785 184.176 708.062C183.493 707.34 183.151 706.336 183.151 705.052C183.151 703.758 183.468 702.73 184.103 701.969C184.743 701.207 185.6 700.826 186.674 700.826C187.68 700.826 188.476 701.158 189.062 701.822C189.647 702.481 189.94 703.353 189.94 704.437V705.206H184.411C184.435 706.148 184.672 706.864 185.121 707.352C185.575 707.84 186.212 708.084 187.033 708.084C187.897 708.084 188.751 707.904 189.596 707.542V708.626C189.167 708.812 188.759 708.944 188.373 709.022C187.992 709.105 187.531 709.146 186.989 709.146ZM186.659 701.844C186.015 701.844 185.5 702.054 185.114 702.474C184.733 702.894 184.508 703.475 184.44 704.217H188.637C188.637 703.451 188.466 702.865 188.124 702.459C187.782 702.049 187.294 701.844 186.659 701.844ZM193.954 704.891L191.164 700.973H192.548L194.665 704.049L196.774 700.973H198.144L195.353 704.891L198.29 709H196.913L194.665 705.748L192.394 709H191.017L193.954 704.891ZM202.479 708.143C202.694 708.143 202.902 708.128 203.102 708.099C203.302 708.065 203.461 708.031 203.578 707.997V708.927C203.446 708.99 203.251 709.042 202.992 709.081C202.738 709.125 202.509 709.146 202.304 709.146C200.751 709.146 199.975 708.329 199.975 706.693V701.917H198.825V701.332L199.975 700.826L200.487 699.112H201.19V700.973H203.52V701.917H201.19V706.642C201.19 707.125 201.305 707.496 201.535 707.755C201.764 708.014 202.079 708.143 202.479 708.143Z" fill="white"/>
<path d="M147.58 56.865C147.58 53.34 142.375 54.165 142.375 52.335C142.375 51.675 142.84 51.36 143.455 51.375C144.145 51.39 144.625 51.795 144.67 52.47H147.445C147.34 50.46 145.795 49.32 143.5 49.32C141.295 49.32 139.66 50.43 139.66 52.425C139.63 56.16 144.895 55.11 144.895 57.06C144.895 57.675 144.415 58.05 143.665 58.05C142.945 58.05 142.435 57.66 142.36 56.85H139.63C139.705 58.98 141.475 60.105 143.74 60.105C146.2 60.105 147.58 58.635 147.58 56.865ZM152.849 53.565C153.704 53.565 154.424 54.09 154.424 55.005H151.214C151.364 54.075 152.009 53.565 152.849 53.565ZM156.854 57.225H154.124C153.914 57.675 153.509 58.035 152.789 58.035C151.964 58.035 151.289 57.525 151.199 56.43H157.004C157.034 56.175 157.049 55.92 157.049 55.68C157.049 53.13 155.324 51.51 152.879 51.51C150.389 51.51 148.649 53.16 148.649 55.815C148.649 58.47 150.419 60.12 152.879 60.12C154.964 60.12 156.449 58.86 156.854 57.225ZM158.807 57.09C158.807 59.265 160.022 60 161.762 60H163.067V57.825H162.152C161.582 57.825 161.372 57.615 161.372 57.12V53.76H163.052V51.63H161.372V49.59H158.807V51.63H157.787V53.76H158.807V57.09ZM172.76 51.63H170.195V56.175C170.195 57.315 169.565 57.945 168.575 57.945C167.615 57.945 166.97 57.315 166.97 56.175V51.63H164.42V56.52C164.42 58.755 165.725 60.09 167.66 60.09C168.785 60.09 169.685 59.58 170.195 58.86V60H172.76V51.63ZM177.168 52.815V51.63H174.603V63.99H177.168V58.83C177.633 59.535 178.518 60.12 179.748 60.12C181.803 60.12 183.438 58.44 183.438 55.8C183.438 53.16 181.803 51.51 179.748 51.51C178.518 51.51 177.633 52.08 177.168 52.815ZM180.828 55.8C180.828 57.135 179.958 57.885 178.983 57.885C178.023 57.885 177.153 57.15 177.153 55.815C177.153 54.48 178.023 53.745 178.983 53.745C179.958 53.745 180.828 54.465 180.828 55.8ZM190.527 54.18V51.54H191.922C192.942 51.54 193.377 52.05 193.377 52.86C193.377 53.67 192.942 54.18 191.922 54.18H190.527ZM195.987 52.86C195.987 50.925 194.697 49.47 192.117 49.47H187.962V60H190.527V56.22H192.117C194.802 56.22 195.987 54.6 195.987 52.86ZM199.888 56.115C199.888 54.675 200.593 54.255 201.808 54.255H202.513V51.54C201.388 51.54 200.473 52.14 199.888 53.025V51.63H197.323V60H199.888V56.115ZM211.929 55.815C211.929 53.16 210.039 51.51 207.579 51.51C205.134 51.51 203.229 53.16 203.229 55.815C203.229 58.47 205.089 60.12 207.549 60.12C210.009 60.12 211.929 58.47 211.929 55.815ZM205.839 55.815C205.839 54.39 206.649 53.73 207.579 53.73C208.479 53.73 209.319 54.39 209.319 55.815C209.319 57.225 208.464 57.9 207.549 57.9C206.619 57.9 205.839 57.225 205.839 55.815ZM213.544 60H216.109V53.76H217.489V51.63H216.109V51.555C216.109 50.67 216.454 50.37 217.444 50.43V48.255C214.894 48.12 213.544 49.2 213.544 51.39V51.63H212.614V53.76H213.544V60ZM218.695 60H221.26V51.63H218.695V60ZM219.985 50.76C220.885 50.76 221.5 50.145 221.5 49.38C221.5 48.6 220.885 47.985 219.985 47.985C219.07 47.985 218.455 48.6 218.455 49.38C218.455 50.145 219.07 50.76 219.985 50.76ZM223.118 60H225.683V48.9H223.118V60ZM231.232 53.565C232.087 53.565 232.807 54.09 232.807 55.005H229.597C229.747 54.075 230.392 53.565 231.232 53.565ZM235.237 57.225H232.507C232.297 57.675 231.892 58.035 231.172 58.035C230.347 58.035 229.672 57.525 229.582 56.43H235.387C235.417 56.175 235.432 55.92 235.432 55.68C235.432 53.13 233.707 51.51 231.262 51.51C228.772 51.51 227.032 53.16 227.032 55.815C227.032 58.47 228.802 60.12 231.262 60.12C233.347 60.12 234.832 58.86 235.237 57.225Z" fill="#D3D3D3"/>
<path d="M18.69 268H20.09V265.05H22.32V263.94H20.09V262.15H23V261.02H18.69V268ZM29.2227 262.46H27.8127V265.51C27.8127 266.4 27.3327 266.88 26.5727 266.88C25.8327 266.88 25.3427 266.4 25.3427 265.51V262.46H23.9427V265.71C23.9427 267.23 24.8727 268.07 26.1627 268.07C26.8527 268.07 27.4627 267.77 27.8127 267.3V268H29.2227V262.46ZM30.6041 268H32.0041V260.6H30.6041V268ZM33.3873 268H34.7873V260.6H33.3873V268ZM43.1233 261.01V265.81L39.9533 261.01H38.5533V268H39.9533V263.21L43.1233 268H44.5233V261.01H43.1233ZM45.5468 265.21C45.5468 266.94 46.6668 268.09 48.0668 268.09C48.9468 268.09 49.5768 267.67 49.9068 267.19V268H51.3168V262.46H49.9068V263.25C49.5768 262.79 48.9668 262.37 48.0768 262.37C46.6668 262.37 45.5468 263.48 45.5468 265.21ZM49.9068 265.23C49.9068 266.28 49.2068 266.86 48.4368 266.86C47.6868 266.86 46.9768 266.26 46.9768 265.21C46.9768 264.16 47.6868 263.6 48.4368 263.6C49.2068 263.6 49.9068 264.18 49.9068 265.23ZM60.4341 268H61.8341V264.75C61.8341 263.22 60.8941 262.38 59.5641 262.38C58.7541 262.38 58.0241 262.81 57.6641 263.44C57.2841 262.75 56.5741 262.38 55.7141 262.38C55.0241 262.38 54.4341 262.67 54.0841 263.13V262.46H52.6841V268H54.0841V264.94C54.0841 264.06 54.5741 263.6 55.3341 263.6C56.0741 263.6 56.5641 264.06 56.5641 264.94V268H57.9641V264.94C57.9641 264.06 58.4541 263.6 59.2041 263.6C59.9441 263.6 60.4341 264.06 60.4341 264.94V268ZM65.5427 263.52C66.2627 263.52 66.8427 263.98 66.8627 264.71H64.2327C64.3427 263.95 64.8727 263.52 65.5427 263.52ZM68.1727 266.26H66.6627C66.4827 266.63 66.1527 266.93 65.5527 266.93C64.8527 266.93 64.2927 266.47 64.2227 265.65H68.2727C68.3027 265.47 68.3127 265.29 68.3127 265.11C68.3127 263.46 67.1827 262.37 65.5827 262.37C63.9427 262.37 62.8027 263.48 62.8027 265.23C62.8027 266.97 63.9727 268.09 65.5827 268.09C66.9527 268.09 67.8727 267.28 68.1727 266.26Z" fill="#D3D3D3"/>
<rect x="18" y="278" width="330" height="33" fill="#F0F0F0"/>
<path d="M23.26 331.01V335.81L20.09 331.01H18.69V338H20.09V333.21L23.26 338H24.66V331.01H23.26ZM26.0435 338H27.4435V332.46H26.0435V338ZM26.7535 331.8C27.2435 331.8 27.6135 331.44 27.6135 330.98C27.6135 330.52 27.2435 330.16 26.7535 330.16C26.2535 330.16 25.8935 330.52 25.8935 330.98C25.8935 331.44 26.2535 331.8 26.7535 331.8ZM28.4667 335.23C28.4667 336.97 29.6067 338.09 31.2067 338.09C32.5867 338.09 33.5167 337.31 33.8167 336.13H32.3067C32.1367 336.63 31.7767 336.89 31.1967 336.89C30.4167 336.89 29.8967 336.31 29.8967 335.23C29.8967 334.15 30.4167 333.56 31.1967 333.56C31.7767 333.56 32.1467 333.86 32.3067 334.33H33.8167C33.5167 333.09 32.5867 332.37 31.2067 332.37C29.6067 332.37 28.4667 333.49 28.4667 335.23ZM34.8423 338H36.2423V335.64L38.1223 338H39.9423L37.4823 335.24L39.9223 332.46H38.1023L36.2423 334.81V330.6H34.8423V338ZM44.5622 338H45.9622V334.75C45.9622 333.22 45.0422 332.38 43.7522 332.38C43.0422 332.38 42.4422 332.68 42.0822 333.15V332.46H40.6822V338H42.0822V334.94C42.0822 334.05 42.5722 333.57 43.3322 333.57C44.0722 333.57 44.5622 334.05 44.5622 334.94V338ZM46.9335 335.21C46.9335 336.94 48.0535 338.09 49.4535 338.09C50.3335 338.09 50.9635 337.67 51.2935 337.19V338H52.7035V332.46H51.2935V333.25C50.9635 332.79 50.3535 332.37 49.4635 332.37C48.0535 332.37 46.9335 333.48 46.9335 335.21ZM51.2935 335.23C51.2935 336.28 50.5935 336.86 49.8235 336.86C49.0735 336.86 48.3635 336.26 48.3635 335.21C48.3635 334.16 49.0735 333.6 49.8235 333.6C50.5935 333.6 51.2935 334.18 51.2935 335.23ZM61.8209 338H63.2209V334.75C63.2209 333.22 62.2809 332.38 60.9509 332.38C60.1409 332.38 59.4109 332.81 59.0509 333.44C58.6709 332.75 57.9609 332.38 57.1009 332.38C56.4109 332.38 55.8209 332.67 55.4709 333.13V332.46H54.0709V338H55.4709V334.94C55.4709 334.06 55.9609 333.6 56.7209 333.6C57.4609 333.6 57.9509 334.06 57.9509 334.94V338H59.3509V334.94C59.3509 334.06 59.8409 333.6 60.5909 333.6C61.3309 333.6 61.8209 334.06 61.8209 334.94V338ZM66.9294 333.52C67.6494 333.52 68.2294 333.98 68.2494 334.71H65.6194C65.7294 333.95 66.2594 333.52 66.9294 333.52ZM69.5594 336.26H68.0494C67.8694 336.63 67.5394 336.93 66.9394 336.93C66.2394 336.93 65.6794 336.47 65.6094 335.65H69.6594C69.6894 335.47 69.6994 335.29 69.6994 335.11C69.6994 333.46 68.5694 332.37 66.9694 332.37C65.3294 332.37 64.1894 333.48 64.1894 335.23C64.1894 336.97 65.3594 338.09 66.9694 338.09C68.3394 338.09 69.2594 337.28 69.5594 336.26Z" fill="#D3D3D3"/>
<rect x="18" y="348" width="330" height="33" fill="#F0F0F0"/>
<path d="M23.43 478H24.91L22.4 471.01H20.77L18.26 478H19.73L20.19 476.67H22.97L23.43 478ZM22.59 475.55H20.57L21.58 472.63L22.59 475.55ZM27.2482 473.27V470.6H25.8482V478H27.2482V477.21C27.5882 477.69 28.2082 478.09 29.0782 478.09C30.4982 478.09 31.6082 476.94 31.6082 475.21C31.6082 473.48 30.4982 472.37 29.0782 472.37C28.2382 472.37 27.5882 472.76 27.2482 473.27ZM30.1782 475.21C30.1782 476.26 29.4682 476.86 28.7082 476.86C27.9582 476.86 27.2482 476.28 27.2482 475.23C27.2482 474.18 27.9582 473.6 28.7082 473.6C29.4682 473.6 30.1782 474.16 30.1782 475.21ZM37.9755 475.23C37.9755 473.48 36.7255 472.37 35.1255 472.37C33.5255 472.37 32.2755 473.48 32.2755 475.23C32.2755 476.97 33.4855 478.09 35.0855 478.09C36.6955 478.09 37.9755 476.97 37.9755 475.23ZM33.6955 475.23C33.6955 474.12 34.3655 473.59 35.1055 473.59C35.8455 473.59 36.5355 474.12 36.5355 475.23C36.5355 476.33 35.8255 476.87 35.0855 476.87C34.3355 476.87 33.6955 476.33 33.6955 475.23ZM44.2325 472.46H42.8225V475.51C42.8225 476.4 42.3425 476.88 41.5825 476.88C40.8425 476.88 40.3525 476.4 40.3525 475.51V472.46H38.9525V475.71C38.9525 477.23 39.8825 478.07 41.1725 478.07C41.8625 478.07 42.4725 477.77 42.8225 477.3V478H44.2325V472.46ZM45.8338 476.28C45.8338 477.55 46.5438 478 47.6038 478H48.4838V476.82H47.8338C47.3938 476.82 47.2438 476.66 47.2438 476.29V473.61H48.4838V472.46H47.2438V471.09H45.8338V472.46H45.1738V473.61H45.8338V476.28ZM54.2336 476.33L52.8036 472.46H51.2336L53.4536 477.86L52.2536 480.62H53.7436L57.1736 472.46H55.6836L54.2336 476.33ZM63.2783 475.23C63.2783 473.48 62.0283 472.37 60.4283 472.37C58.8283 472.37 57.5783 473.48 57.5783 475.23C57.5783 476.97 58.7883 478.09 60.3883 478.09C61.9983 478.09 63.2783 476.97 63.2783 475.23ZM58.9983 475.23C58.9983 474.12 59.6683 473.59 60.4083 473.59C61.1483 473.59 61.8383 474.12 61.8383 475.23C61.8383 476.33 61.1283 476.87 60.3883 476.87C59.6383 476.87 58.9983 476.33 58.9983 475.23ZM69.5352 472.46H68.1252V475.51C68.1252 476.4 67.6452 476.88 66.8852 476.88C66.1452 476.88 65.6552 476.4 65.6552 475.51V472.46H64.2552V475.71C64.2552 477.23 65.1852 478.07 66.4752 478.07C67.1652 478.07 67.7752 477.77 68.1252 477.3V478H69.5352V472.46Z" fill="#D3D3D3"/>
<rect x="18" y="488" width="330" height="129" fill="#F0F0F0"/>
<path d="M25.5 404.49C25.5 402.4 23.92 400.92 21.93 400.92C19.96 400.92 18.35 402.4 18.35 404.49C18.35 406.59 19.96 408.07 21.93 408.07C23.91 408.07 25.5 406.59 25.5 404.49ZM19.79 404.49C19.79 403.07 20.66 402.18 21.93 402.18C23.19 402.18 24.06 403.07 24.06 404.49C24.06 405.91 23.19 406.82 21.93 406.82C20.66 406.82 19.79 405.91 19.79 404.49ZM26.1816 405.23C26.1816 406.97 27.3216 408.09 28.9216 408.09C30.3016 408.09 31.2316 407.31 31.5316 406.13H30.0216C29.8516 406.63 29.4916 406.89 28.9116 406.89C28.1316 406.89 27.6116 406.31 27.6116 405.23C27.6116 404.15 28.1316 403.56 28.9116 403.56C29.4916 403.56 29.8616 403.86 30.0216 404.33H31.5316C31.2316 403.09 30.3016 402.37 28.9216 402.37C27.3216 402.37 26.1816 403.49 26.1816 405.23ZM32.1972 405.23C32.1972 406.97 33.3372 408.09 34.9372 408.09C36.3172 408.09 37.2472 407.31 37.5472 406.13H36.0372C35.8672 406.63 35.5072 406.89 34.9272 406.89C34.1472 406.89 33.6272 406.31 33.6272 405.23C33.6272 404.15 34.1472 403.56 34.9272 403.56C35.5072 403.56 35.8772 403.86 36.0372 404.33H37.5472C37.2472 403.09 36.3172 402.37 34.9372 402.37C33.3372 402.37 32.1972 403.49 32.1972 405.23ZM43.8028 402.46H42.3928V405.51C42.3928 406.4 41.9128 406.88 41.1528 406.88C40.4128 406.88 39.9228 406.4 39.9228 405.51V402.46H38.5228V405.71C38.5228 407.23 39.4528 408.07 40.7428 408.07C41.4328 408.07 42.0428 407.77 42.3928 407.3V408H43.8028V402.46ZM46.5841 403.26V402.46H45.1841V410.64H46.5841V407.21C46.9241 407.66 47.5441 408.09 48.4141 408.09C49.8341 408.09 50.9441 406.94 50.9441 405.21C50.9441 403.48 49.8341 402.37 48.4141 402.37C47.5541 402.37 46.9141 402.79 46.5841 403.26ZM49.5141 405.21C49.5141 406.26 48.8041 406.86 48.0441 406.86C47.2941 406.86 46.5841 406.28 46.5841 405.23C46.5841 404.18 47.2941 403.6 48.0441 403.6C48.8041 403.6 49.5141 404.16 49.5141 405.21ZM51.6015 405.21C51.6015 406.94 52.7215 408.09 54.1215 408.09C55.0015 408.09 55.6315 407.67 55.9615 407.19V408H57.3715V402.46H55.9615V403.25C55.6315 402.79 55.0215 402.37 54.1315 402.37C52.7215 402.37 51.6015 403.48 51.6015 405.21ZM55.9615 405.23C55.9615 406.28 55.2615 406.86 54.4915 406.86C53.7415 406.86 53.0315 406.26 53.0315 405.21C53.0315 404.16 53.7415 403.6 54.4915 403.6C55.2615 403.6 55.9615 404.18 55.9615 405.23ZM58.9588 406.28C58.9588 407.55 59.6688 408 60.7288 408H61.6088V406.82H60.9588C60.5188 406.82 60.3688 406.66 60.3688 406.29V403.61H61.6088V402.46H60.3688V401.09H58.9588V402.46H58.2988V403.61H58.9588V406.28ZM62.6158 408H64.0158V402.46H62.6158V408ZM63.3258 401.8C63.8158 401.8 64.1858 401.44 64.1858 400.98C64.1858 400.52 63.8158 400.16 63.3258 400.16C62.8258 400.16 62.4658 400.52 62.4658 400.98C62.4658 401.44 62.8258 401.8 63.3258 401.8ZM70.749 405.23C70.749 403.48 69.499 402.37 67.899 402.37C66.299 402.37 65.049 403.48 65.049 405.23C65.049 406.97 66.259 408.09 67.859 408.09C69.469 408.09 70.749 406.97 70.749 405.23ZM66.469 405.23C66.469 404.12 67.139 403.59 67.879 403.59C68.619 403.59 69.309 404.12 69.309 405.23C69.309 406.33 68.599 406.87 67.859 406.87C67.109 406.87 66.469 406.33 66.469 405.23ZM75.6559 408H77.0559V404.75C77.0559 403.22 76.1359 402.38 74.8459 402.38C74.1359 402.38 73.5359 402.68 73.1759 403.15V402.46H71.7759V408H73.1759V404.94C73.1759 404.05 73.6659 403.57 74.4259 403.57C75.1659 403.57 75.6559 404.05 75.6559 404.94V408Z" fill="#D3D3D3"/>
<rect x="18" y="418" width="124" height="33" fill="#F0F0F0"/>
<path d="M161.13 401.02H158.69V408H161.13C163.36 408 164.81 406.63 164.81 404.52C164.81 402.4 163.36 401.02 161.13 401.02ZM160.09 406.81V402.2H161.08C162.55 402.2 163.38 403.07 163.38 404.52C163.38 405.97 162.55 406.81 161.08 406.81H160.09ZM167.328 407.25C167.328 406.79 166.968 406.43 166.478 406.43C165.968 406.43 165.608 406.79 165.608 407.25C165.608 407.71 165.968 408.07 166.478 408.07C166.968 408.07 167.328 407.71 167.328 407.25ZM175.266 404.49C175.266 402.4 173.686 400.92 171.696 400.92C169.726 400.92 168.116 402.4 168.116 404.49C168.116 406.59 169.726 408.07 171.696 408.07C173.676 408.07 175.266 406.59 175.266 404.49ZM169.556 404.49C169.556 403.07 170.426 402.18 171.696 402.18C172.956 402.18 173.826 403.07 173.826 404.49C173.826 405.91 172.956 406.82 171.696 406.82C170.426 406.82 169.556 405.91 169.556 404.49ZM177.777 407.25C177.777 406.79 177.417 406.43 176.927 406.43C176.417 406.43 176.057 406.79 176.057 407.25C176.057 407.71 176.417 408.07 176.927 408.07C177.417 408.07 177.777 407.71 177.777 407.25ZM182.795 405.94C182.795 406.53 182.395 406.86 181.715 406.86H180.305V404.98H181.685C182.365 404.98 182.795 405.34 182.795 405.94ZM182.625 403.03C182.625 403.6 182.245 403.9 181.585 403.9H180.305V402.15H181.585C182.245 402.15 182.625 402.47 182.625 403.03ZM184.215 406.11C184.215 405.29 183.655 404.56 182.865 404.42C183.545 404.2 184.055 403.67 184.055 402.82C184.055 401.78 183.245 401.02 181.785 401.02H178.905V408H181.915C183.365 408 184.215 407.22 184.215 406.11Z" fill="#D3D3D3"/>
<rect x="158" y="418" width="190" height="33" fill="#F0F0F0"/>
<path d="M25.8454 56.667L29.4224 60.244C29.5765 60.4007 29.6624 60.6119 29.6615 60.8316C29.6606 61.0513 29.5729 61.2618 29.4176 61.4172C29.2622 61.5726 29.0517 61.6602 28.832 61.6611C28.6122 61.662 28.401 61.5761 28.2444 61.422L23.2444 56.422C23.1669 56.3447 23.1055 56.2529 23.0635 56.1519C23.0216 56.0508 23 55.9424 23 55.833C23 55.7236 23.0216 55.6152 23.0635 55.5142C23.1055 55.4131 23.1669 55.3213 23.2444 55.244L28.2444 50.244C28.401 50.0899 28.6122 50.004 28.832 50.0049C29.0517 50.0058 29.2622 50.0935 29.4176 50.2488C29.5729 50.4042 29.6606 50.6147 29.6615 50.8344C29.6624 51.0542 29.5765 51.2654 29.4224 51.422L25.8454 55H37.1674C37.3884 55 37.6004 55.0878 37.7568 55.2441C37.9131 55.4005 38.0009 55.6124 38.0009 55.8335C38.0009 56.0546 37.9131 56.2665 37.7568 56.4229C37.6004 56.5792 37.3884 56.667 37.1674 56.667H25.8454Z" fill="#A9A9A9"/>
<path d="M338 50.333H340.667" stroke="#A9A9A9" stroke-width="1.2" stroke-linecap="round" stroke-linejoin="round"/>
<path fill-rule="evenodd" clip-rule="evenodd" d="M340.667 51.667H344.667V49H340.667V51.667Z" stroke="#A9A9A9" stroke-width="1.2" stroke-linecap="round" stroke-linejoin="round"/>
<path d="M344.667 50.333H352" stroke="#A9A9A9" stroke-width="1.2" stroke-linecap="round" stroke-linejoin="round"/>
<path d="M352 55.667H349.333" stroke="#A9A9A9" stroke-width="1.2" stroke-linecap="round" stroke-linejoin="round"/>
<path fill-rule="evenodd" clip-rule="evenodd" d="M345.333 57H349.333V54.333H345.333V57Z" stroke="#A9A9A9" stroke-width="1.2" stroke-linecap="round" stroke-linejoin="round"/>
<path d="M345.333 55.667H338" stroke="#A9A9A9" stroke-width="1.2" stroke-linecap="round" stroke-linejoin="round"/>
<path d="M338 61H340.667" stroke="#A9A9A9" stroke-width="1.2" stroke-linecap="round" stroke-linejoin="round"/>
<path fill-rule="evenodd" clip-rule="evenodd" d="M340.667 62.334H344.667V59.667H340.667V62.334Z" stroke="#A9A9A9" stroke-width="1.2" stroke-linecap="round" stroke-linejoin="round"/>
<path d="M344.667 61H352" stroke="#A9A9A9" stroke-width="1.2" stroke-linecap="round" stroke-linejoin="round"/>
<circle cx="185" cy="149" r="65" fill="#C4C4C4"/>
</g>
<defs>
<filter id="filter0_d_956_346" x="31" y="674" width="313" height="64" filterUnits="userSpaceOnUse" color-interpolation-filters="sRGB">
<feFlood flood-opacity="0" result="BackgroundImageFix"/>
<feColorMatrix in="SourceAlpha" type="matrix" values="0 0 0 0 0 0 0 0 0 0 0 0 0 0 0 0 0 0 127 0" result="hardAlpha"/>
<feOffset dy="3"/>
<feGaussianBlur stdDeviation="3"/>
<feColorMatrix type="matrix" values="0 0 0 0 0 0 0 0 0 0 0 0 0 0 0 0 0 0 0.161 0"/>
<feBlend mode="normal" in2="BackgroundImageFix" result="effect1_dropShadow_956_346"/>
<feBlend mode="normal" in="SourceGraphic" in2="effect1_dropShadow_956_346" result="shape"/>
</filter>
<clipPath id="clip0_956_346">
<rect width="375" height="812" fill="white"/>
</clipPath>
</defs>
</svg>
