<svg width="375" height="812" viewBox="0 0 375 812" fill="none" xmlns="http://www.w3.org/2000/svg">
<path d="M375 0H0V812H375V0Z" fill="white"/>
<path d="M129.056 297L122.889 279.114H122.757C122.786 279.515 122.82 280.062 122.859 280.755C122.898 281.448 122.933 282.19 122.962 282.981C122.991 283.772 123.006 284.529 123.006 285.252V297H119.812V275.584H124.749L130.682 292.679H130.77L136.907 275.584H141.829V297H138.475V285.076C138.475 284.422 138.484 283.714 138.504 282.952C138.533 282.19 138.562 281.468 138.592 280.784C138.631 280.101 138.66 279.554 138.68 279.144H138.562L132.161 297H129.056ZM153.475 280.477C155.525 280.477 157.073 280.931 158.118 281.839C159.173 282.747 159.7 284.163 159.7 286.087V297H157.254L156.595 294.7H156.478C156.019 295.286 155.545 295.77 155.057 296.15C154.568 296.531 154.002 296.814 153.357 297C152.723 297.195 151.946 297.293 151.028 297.293C150.062 297.293 149.197 297.117 148.436 296.766C147.674 296.404 147.073 295.857 146.634 295.125C146.194 294.393 145.975 293.465 145.975 292.342C145.975 290.672 146.595 289.417 147.835 288.577C149.085 287.737 150.97 287.273 153.489 287.186L156.302 287.083V286.233C156.302 285.11 156.038 284.31 155.511 283.831C154.993 283.353 154.261 283.113 153.313 283.113C152.503 283.113 151.717 283.23 150.955 283.465C150.193 283.699 149.451 283.987 148.729 284.329L147.615 281.897C148.406 281.478 149.305 281.136 150.311 280.872C151.326 280.608 152.381 280.477 153.475 280.477ZM156.287 289.251L154.192 289.324C152.474 289.383 151.268 289.676 150.574 290.203C149.881 290.73 149.534 291.453 149.534 292.371C149.534 293.172 149.773 293.758 150.252 294.129C150.73 294.49 151.36 294.671 152.142 294.671C153.333 294.671 154.319 294.334 155.101 293.66C155.892 292.977 156.287 291.976 156.287 290.657V289.251ZM169.148 304.207C166.951 304.207 165.267 303.812 164.095 303.021C162.923 302.229 162.337 301.121 162.337 299.695C162.337 298.699 162.649 297.854 163.274 297.161C163.899 296.478 164.793 296.004 165.955 295.74C165.516 295.545 165.135 295.242 164.812 294.832C164.5 294.412 164.344 293.948 164.344 293.44C164.344 292.835 164.515 292.317 164.856 291.888C165.198 291.458 165.711 291.043 166.395 290.643C165.545 290.281 164.861 289.695 164.344 288.885C163.836 288.064 163.582 287.103 163.582 285.999C163.582 284.827 163.831 283.831 164.329 283.011C164.827 282.181 165.555 281.551 166.512 281.121C167.469 280.682 168.626 280.462 169.983 280.462C170.276 280.462 170.594 280.481 170.936 280.521C171.287 280.55 171.609 280.589 171.902 280.638C172.205 280.677 172.435 280.721 172.591 280.77H178.201V282.688L175.447 283.201C175.711 283.572 175.921 283.997 176.077 284.476C176.233 284.944 176.312 285.457 176.312 286.014C176.312 287.693 175.73 289.017 174.568 289.983C173.416 290.94 171.824 291.419 169.793 291.419C169.305 291.399 168.831 291.36 168.372 291.302C168.021 291.517 167.752 291.756 167.566 292.02C167.381 292.273 167.288 292.562 167.288 292.884C167.288 293.147 167.381 293.362 167.566 293.528C167.752 293.685 168.025 293.802 168.387 293.88C168.758 293.958 169.207 293.997 169.734 293.997H172.532C174.31 293.997 175.667 294.373 176.604 295.125C177.542 295.877 178.011 296.98 178.011 298.436C178.011 300.281 177.249 301.702 175.726 302.698C174.202 303.704 172.01 304.207 169.148 304.207ZM169.28 301.79C170.481 301.79 171.492 301.673 172.312 301.438C173.133 301.204 173.753 300.867 174.173 300.428C174.593 299.998 174.803 299.485 174.803 298.89C174.803 298.362 174.671 297.957 174.407 297.674C174.144 297.391 173.748 297.195 173.221 297.088C172.693 296.98 172.039 296.927 171.258 296.927H168.709C168.074 296.927 167.513 297.024 167.024 297.22C166.536 297.425 166.155 297.718 165.882 298.099C165.618 298.479 165.486 298.938 165.486 299.476C165.486 300.218 165.813 300.789 166.468 301.189C167.132 301.59 168.069 301.79 169.28 301.79ZM169.954 289.163C170.96 289.163 171.707 288.89 172.195 288.343C172.684 287.786 172.928 287.005 172.928 285.999C172.928 284.905 172.674 284.085 172.166 283.538C171.668 282.991 170.926 282.718 169.939 282.718C168.973 282.718 168.235 282.996 167.728 283.553C167.229 284.109 166.98 284.935 166.98 286.028C166.98 287.015 167.229 287.786 167.728 288.343C168.235 288.89 168.978 289.163 169.954 289.163ZM189.612 280.477C191.438 280.477 192.859 280.95 193.875 281.897C194.9 282.835 195.413 284.344 195.413 286.424V297H191.971V287.068C191.971 285.809 191.712 284.866 191.194 284.241C190.677 283.606 189.876 283.289 188.792 283.289C187.22 283.289 186.126 283.772 185.511 284.739C184.905 285.706 184.603 287.107 184.603 288.943V297H181.16V280.784H183.841L184.324 282.981H184.515C184.866 282.415 185.301 281.951 185.818 281.59C186.346 281.219 186.932 280.94 187.576 280.755C188.23 280.569 188.909 280.477 189.612 280.477ZM203.675 280.784V297H200.232V280.784H203.675ZM201.976 274.573C202.503 274.573 202.957 274.715 203.338 274.998C203.729 275.281 203.924 275.77 203.924 276.463C203.924 277.146 203.729 277.635 203.338 277.928C202.957 278.211 202.503 278.353 201.976 278.353C201.429 278.353 200.965 278.211 200.584 277.928C200.213 277.635 200.027 277.146 200.027 276.463C200.027 275.77 200.213 275.281 200.584 274.998C200.965 274.715 201.429 274.573 201.976 274.573ZM214.646 294.51C215.096 294.51 215.54 294.471 215.979 294.393C216.419 294.305 216.819 294.202 217.181 294.085V296.692C216.8 296.858 216.307 297 215.701 297.117C215.096 297.234 214.466 297.293 213.812 297.293C212.894 297.293 212.068 297.142 211.336 296.839C210.604 296.526 210.022 295.994 209.593 295.242C209.163 294.49 208.948 293.45 208.948 292.122V283.406H206.736V281.868L209.109 280.652L210.237 277.181H212.405V280.784H217.049V283.406H212.405V292.078C212.405 292.898 212.61 293.509 213.021 293.909C213.431 294.31 213.973 294.51 214.646 294.51ZM234.612 280.784V297H231.902L231.434 294.817H231.243C230.901 295.374 230.467 295.838 229.939 296.209C229.412 296.57 228.826 296.839 228.182 297.015C227.537 297.2 226.858 297.293 226.146 297.293C224.925 297.293 223.88 297.088 223.011 296.678C222.151 296.258 221.492 295.613 221.033 294.744C220.574 293.875 220.345 292.752 220.345 291.375V280.784H223.802V290.73C223.802 291.99 224.056 292.933 224.563 293.558C225.081 294.183 225.882 294.495 226.966 294.495C228.011 294.495 228.841 294.28 229.456 293.851C230.071 293.421 230.506 292.786 230.76 291.946C231.023 291.106 231.155 290.076 231.155 288.855V280.784H234.612ZM244.998 297.293C243.064 297.293 241.512 296.59 240.34 295.184C239.178 293.768 238.597 291.683 238.597 288.929C238.597 286.146 239.188 284.041 240.369 282.615C241.561 281.189 243.128 280.477 245.071 280.477C245.892 280.477 246.609 280.589 247.225 280.813C247.84 281.028 248.367 281.321 248.807 281.692C249.256 282.063 249.637 282.479 249.949 282.938H250.11C250.062 282.635 250.003 282.2 249.935 281.634C249.876 281.058 249.847 280.525 249.847 280.037V274.207H253.304V297H250.608L249.993 294.788H249.847C249.554 295.257 249.183 295.682 248.733 296.062C248.294 296.434 247.767 296.731 247.151 296.956C246.546 297.181 245.828 297.293 244.998 297.293ZM245.965 294.495C247.439 294.495 248.479 294.07 249.085 293.221C249.69 292.371 250.003 291.097 250.022 289.397V288.943C250.022 287.127 249.729 285.735 249.144 284.769C248.558 283.792 247.488 283.304 245.936 283.304C244.695 283.304 243.748 283.807 243.094 284.812C242.449 285.809 242.127 287.2 242.127 288.987C242.127 290.774 242.449 292.142 243.094 293.089C243.748 294.026 244.705 294.495 245.965 294.495ZM264.7 280.477C266.146 280.477 267.386 280.774 268.421 281.37C269.456 281.966 270.252 282.811 270.809 283.904C271.365 284.998 271.644 286.307 271.644 287.83V289.676H260.818C260.857 291.248 261.277 292.459 262.078 293.309C262.889 294.158 264.021 294.583 265.477 294.583C266.512 294.583 267.439 294.485 268.26 294.29C269.09 294.085 269.944 293.787 270.823 293.396V296.194C270.013 296.575 269.188 296.854 268.348 297.029C267.508 297.205 266.502 297.293 265.33 297.293C263.738 297.293 262.337 296.985 261.126 296.37C259.925 295.745 258.982 294.817 258.299 293.587C257.625 292.356 257.288 290.828 257.288 289.002C257.288 287.186 257.596 285.643 258.211 284.373C258.826 283.104 259.69 282.137 260.804 281.473C261.917 280.809 263.216 280.477 264.7 280.477ZM264.7 283.069C263.616 283.069 262.737 283.421 262.063 284.124C261.399 284.827 261.009 285.857 260.892 287.215H268.274C268.265 286.404 268.128 285.687 267.864 285.062C267.61 284.437 267.22 283.948 266.692 283.597C266.175 283.245 265.511 283.069 264.7 283.069Z" fill="black"/>
<g filter="url(#filter0_d_942_233)">
<path d="M211 148H157C144.297 148 134 158.297 134 171V225C134 237.703 144.297 248 157 248H211C223.703 248 234 237.703 234 225V171C234 158.297 223.703 148 211 148Z" fill="#999595"/>
</g>
<g filter="url(#filter1_d_942_233)">
<path d="M196 148H157C144.297 148 134 158.297 134 171V210C134 222.703 144.297 233 157 233H196C208.703 233 219 222.703 219 210V171C219 158.297 208.703 148 196 148Z" fill="#C4C4C4"/>
</g>
<g filter="url(#filter2_d_942_233)">
<path d="M181 148H157C144.297 148 134 158.297 134 171V195C134 207.703 144.297 218 157 218H181C193.703 218 204 207.703 204 195V171C204 158.297 193.703 148 181 148Z" fill="#D3D3D3"/>
</g>
<g filter="url(#filter3_d_942_233)">
<path d="M166 148H157C144.297 148 134 158.297 134 171V180C134 192.703 144.297 203 157 203H166C178.703 203 189 192.703 189 180V171C189 158.297 178.703 148 166 148Z" fill="#F5F5F5"/>
</g>
<path d="M99.7598 365.723L96.0293 380H93.4707L91.0879 371.445C91.0293 371.237 90.9642 370.99 90.8926 370.703C90.821 370.417 90.7493 370.124 90.6777 369.824C90.6126 369.525 90.554 369.251 90.502 369.004C90.4564 368.75 90.4238 368.555 90.4043 368.418C90.3913 368.555 90.362 368.747 90.3164 368.994C90.2708 369.242 90.2155 369.515 90.1504 369.814C90.0918 370.107 90.0267 370.4 89.9551 370.693C89.8835 370.98 89.8184 371.234 89.7598 371.455L87.416 380H84.8672L81.1465 365.723H83.5L85.5605 374.092C85.6257 374.359 85.6908 374.648 85.7559 374.961C85.8275 375.267 85.8926 375.576 85.9512 375.889C86.0163 376.201 86.0749 376.507 86.127 376.807C86.179 377.1 86.2214 377.367 86.2539 377.607C86.2865 377.36 86.3288 377.087 86.3809 376.787C86.4329 376.481 86.4883 376.172 86.5469 375.859C86.612 375.54 86.6771 375.234 86.7422 374.941C86.8138 374.648 86.8854 374.385 86.957 374.15L89.2812 365.723H91.5664L93.9395 374.18C94.0111 374.421 94.0794 374.691 94.1445 374.99C94.2161 375.29 94.2845 375.596 94.3496 375.908C94.4147 376.221 94.4733 376.523 94.5254 376.816C94.5775 377.109 94.6198 377.373 94.6523 377.607C94.6979 377.288 94.7565 376.924 94.8281 376.514C94.8997 376.104 94.9811 375.687 95.0723 375.264C95.1634 374.84 95.2546 374.45 95.3457 374.092L97.3965 365.723H99.7598ZM105.854 368.984C106.817 368.984 107.644 369.183 108.334 369.58C109.024 369.977 109.555 370.54 109.926 371.27C110.297 371.999 110.482 372.871 110.482 373.887V375.117H103.266C103.292 376.165 103.572 376.973 104.105 377.539C104.646 378.105 105.401 378.389 106.371 378.389C107.061 378.389 107.68 378.324 108.227 378.193C108.78 378.057 109.35 377.858 109.936 377.598V379.463C109.395 379.717 108.845 379.902 108.285 380.02C107.725 380.137 107.055 380.195 106.273 380.195C105.212 380.195 104.278 379.99 103.471 379.58C102.67 379.163 102.042 378.545 101.586 377.725C101.137 376.904 100.912 375.885 100.912 374.668C100.912 373.457 101.117 372.428 101.527 371.582C101.938 370.736 102.514 370.091 103.256 369.648C103.998 369.206 104.864 368.984 105.854 368.984ZM105.854 370.713C105.131 370.713 104.545 370.947 104.096 371.416C103.653 371.885 103.393 372.572 103.314 373.477H108.236C108.23 372.936 108.139 372.458 107.963 372.041C107.794 371.624 107.533 371.299 107.182 371.064C106.837 370.83 106.394 370.713 105.854 370.713ZM115.375 380H113.07V364.805H115.375V380ZM123.012 380.195C121.99 380.195 121.104 379.997 120.355 379.6C119.607 379.202 119.031 378.594 118.627 377.773C118.223 376.953 118.021 375.911 118.021 374.648C118.021 373.333 118.243 372.259 118.686 371.426C119.128 370.592 119.74 369.977 120.521 369.58C121.309 369.183 122.211 368.984 123.227 368.984C123.871 368.984 124.454 369.049 124.975 369.18C125.502 369.303 125.948 369.456 126.312 369.639L125.629 371.475C125.232 371.312 124.825 371.175 124.408 371.064C123.992 370.954 123.591 370.898 123.207 370.898C122.576 370.898 122.048 371.038 121.625 371.318C121.208 371.598 120.896 372.015 120.688 372.568C120.486 373.122 120.385 373.809 120.385 374.629C120.385 375.423 120.489 376.094 120.697 376.641C120.906 377.181 121.215 377.591 121.625 377.871C122.035 378.145 122.54 378.281 123.139 378.281C123.731 378.281 124.262 378.21 124.73 378.066C125.199 377.923 125.642 377.738 126.059 377.51V379.502C125.648 379.736 125.209 379.909 124.74 380.02C124.271 380.137 123.695 380.195 123.012 380.195ZM138.168 374.57C138.168 375.469 138.051 376.266 137.816 376.963C137.582 377.66 137.24 378.249 136.791 378.73C136.342 379.206 135.801 379.57 135.17 379.824C134.538 380.072 133.826 380.195 133.031 380.195C132.289 380.195 131.609 380.072 130.99 379.824C130.372 379.57 129.835 379.206 129.379 378.73C128.93 378.249 128.581 377.66 128.334 376.963C128.087 376.266 127.963 375.469 127.963 374.57C127.963 373.379 128.168 372.37 128.578 371.543C128.995 370.71 129.587 370.075 130.355 369.639C131.124 369.202 132.038 368.984 133.1 368.984C134.096 368.984 134.975 369.202 135.736 369.639C136.498 370.075 137.094 370.71 137.523 371.543C137.953 372.376 138.168 373.385 138.168 374.57ZM130.326 374.57C130.326 375.358 130.421 376.032 130.609 376.592C130.805 377.152 131.104 377.581 131.508 377.881C131.911 378.174 132.432 378.32 133.07 378.32C133.708 378.32 134.229 378.174 134.633 377.881C135.036 377.581 135.333 377.152 135.521 376.592C135.71 376.032 135.805 375.358 135.805 374.57C135.805 373.783 135.71 373.115 135.521 372.568C135.333 372.015 135.036 371.595 134.633 371.309C134.229 371.016 133.705 370.869 133.061 370.869C132.11 370.869 131.417 371.188 130.98 371.826C130.544 372.464 130.326 373.379 130.326 374.57ZM153.021 368.984C154.232 368.984 155.144 369.297 155.756 369.922C156.374 370.547 156.684 371.549 156.684 372.93V380H154.389V373.34C154.389 372.52 154.229 371.901 153.91 371.484C153.591 371.068 153.106 370.859 152.455 370.859C151.544 370.859 150.886 371.152 150.482 371.738C150.085 372.318 149.887 373.161 149.887 374.268V380H147.592V373.34C147.592 372.793 147.52 372.337 147.377 371.973C147.24 371.602 147.029 371.325 146.742 371.143C146.456 370.954 146.094 370.859 145.658 370.859C145.027 370.859 144.522 371.003 144.145 371.289C143.773 371.576 143.507 371.999 143.344 372.559C143.181 373.112 143.1 373.792 143.1 374.6V380H140.805V369.189H142.592L142.914 370.645H143.041C143.262 370.267 143.536 369.958 143.861 369.717C144.193 369.469 144.561 369.287 144.965 369.17C145.368 369.046 145.788 368.984 146.225 368.984C147.032 368.984 147.712 369.128 148.266 369.414C148.819 369.694 149.232 370.124 149.506 370.703H149.682C150.02 370.117 150.492 369.684 151.098 369.404C151.703 369.124 152.344 368.984 153.021 368.984ZM164.193 368.984C165.157 368.984 165.984 369.183 166.674 369.58C167.364 369.977 167.895 370.54 168.266 371.27C168.637 371.999 168.822 372.871 168.822 373.887V375.117H161.605C161.632 376.165 161.911 376.973 162.445 377.539C162.986 378.105 163.741 378.389 164.711 378.389C165.401 378.389 166.02 378.324 166.566 378.193C167.12 378.057 167.689 377.858 168.275 377.598V379.463C167.735 379.717 167.185 379.902 166.625 380.02C166.065 380.137 165.395 380.195 164.613 380.195C163.552 380.195 162.618 379.99 161.811 379.58C161.01 379.163 160.382 378.545 159.926 377.725C159.477 376.904 159.252 375.885 159.252 374.668C159.252 373.457 159.457 372.428 159.867 371.582C160.277 370.736 160.854 370.091 161.596 369.648C162.338 369.206 163.204 368.984 164.193 368.984ZM164.193 370.713C163.471 370.713 162.885 370.947 162.436 371.416C161.993 371.885 161.732 372.572 161.654 373.477H166.576C166.57 372.936 166.479 372.458 166.303 372.041C166.133 371.624 165.873 371.299 165.521 371.064C165.176 370.83 164.734 370.713 164.193 370.713ZM180.629 378.34C180.928 378.34 181.225 378.314 181.518 378.262C181.811 378.203 182.077 378.135 182.318 378.057V379.795C182.064 379.906 181.736 380 181.332 380.078C180.928 380.156 180.508 380.195 180.072 380.195C179.46 380.195 178.91 380.094 178.422 379.893C177.934 379.684 177.546 379.329 177.26 378.828C176.973 378.327 176.83 377.633 176.83 376.748V370.938H175.355V369.912L176.938 369.102L177.689 366.787H179.135V369.189H182.23V370.938H179.135V376.719C179.135 377.266 179.271 377.673 179.545 377.939C179.818 378.206 180.18 378.34 180.629 378.34ZM194.086 374.57C194.086 375.469 193.969 376.266 193.734 376.963C193.5 377.66 193.158 378.249 192.709 378.73C192.26 379.206 191.719 379.57 191.088 379.824C190.456 380.072 189.743 380.195 188.949 380.195C188.207 380.195 187.527 380.072 186.908 379.824C186.29 379.57 185.753 379.206 185.297 378.73C184.848 378.249 184.499 377.66 184.252 376.963C184.005 376.266 183.881 375.469 183.881 374.57C183.881 373.379 184.086 372.37 184.496 371.543C184.913 370.71 185.505 370.075 186.273 369.639C187.042 369.202 187.956 368.984 189.018 368.984C190.014 368.984 190.893 369.202 191.654 369.639C192.416 370.075 193.012 370.71 193.441 371.543C193.871 372.376 194.086 373.385 194.086 374.57ZM186.244 374.57C186.244 375.358 186.339 376.032 186.527 376.592C186.723 377.152 187.022 377.581 187.426 377.881C187.829 378.174 188.35 378.32 188.988 378.32C189.626 378.32 190.147 378.174 190.551 377.881C190.954 377.581 191.251 377.152 191.439 376.592C191.628 376.032 191.723 375.358 191.723 374.57C191.723 373.783 191.628 373.115 191.439 372.568C191.251 372.015 190.954 371.595 190.551 371.309C190.147 371.016 189.623 370.869 188.979 370.869C188.028 370.869 187.335 371.188 186.898 371.826C186.462 372.464 186.244 373.379 186.244 374.57ZM211 380L209.604 376.035H204.145L202.748 380H200.277L205.59 365.664H208.188L213.49 380H211ZM208.998 374.023L207.641 370.117C207.589 369.948 207.514 369.71 207.416 369.404C207.318 369.092 207.221 368.776 207.123 368.457C207.025 368.132 206.944 367.858 206.879 367.637C206.814 367.904 206.732 368.203 206.635 368.535C206.544 368.861 206.452 369.167 206.361 369.453C206.277 369.74 206.212 369.961 206.166 370.117L204.799 374.023H208.998ZM219.389 365.723C220.619 365.723 221.635 365.872 222.436 366.172C223.243 366.471 223.842 366.927 224.232 367.539C224.63 368.151 224.828 368.929 224.828 369.873C224.828 370.576 224.698 371.175 224.438 371.67C224.177 372.165 223.835 372.575 223.412 372.9C222.989 373.226 222.536 373.486 222.055 373.682L226.107 380H223.461L220.014 374.277H217.719V380H215.375V365.723H219.389ZM219.232 367.676H217.719V372.344H219.34C220.427 372.344 221.215 372.142 221.703 371.738C222.198 371.335 222.445 370.739 222.445 369.951C222.445 369.124 222.182 368.538 221.654 368.193C221.133 367.848 220.326 367.676 219.232 367.676ZM244.936 372.725C244.936 374.333 244.636 375.677 244.037 376.758C243.438 377.832 242.569 378.643 241.43 379.189C240.29 379.73 238.917 380 237.309 380H233.344V365.723H237.738C239.216 365.723 240.492 365.99 241.566 366.523C242.641 367.051 243.471 367.835 244.057 368.877C244.643 369.912 244.936 371.195 244.936 372.725ZM242.494 372.793C242.494 371.621 242.309 370.658 241.938 369.902C241.573 369.147 241.033 368.587 240.316 368.223C239.607 367.852 238.731 367.666 237.689 367.666H235.688V378.037H237.348C239.073 378.037 240.362 377.598 241.215 376.719C242.068 375.84 242.494 374.531 242.494 372.793ZM252.016 368.984C253.383 368.984 254.415 369.287 255.111 369.893C255.814 370.498 256.166 371.442 256.166 372.725V380H254.535L254.096 378.467H254.018C253.712 378.857 253.396 379.18 253.07 379.434C252.745 379.688 252.367 379.876 251.938 380C251.514 380.13 250.997 380.195 250.385 380.195C249.74 380.195 249.164 380.078 248.656 379.844C248.148 379.603 247.748 379.238 247.455 378.75C247.162 378.262 247.016 377.643 247.016 376.895C247.016 375.781 247.429 374.945 248.256 374.385C249.089 373.825 250.346 373.516 252.025 373.457L253.9 373.389V372.822C253.9 372.074 253.725 371.54 253.373 371.221C253.028 370.902 252.54 370.742 251.908 370.742C251.368 370.742 250.844 370.82 250.336 370.977C249.828 371.133 249.333 371.325 248.852 371.553L248.109 369.932C248.637 369.652 249.236 369.424 249.906 369.248C250.583 369.072 251.286 368.984 252.016 368.984ZM253.891 374.834L252.494 374.883C251.348 374.922 250.544 375.117 250.082 375.469C249.62 375.82 249.389 376.302 249.389 376.914C249.389 377.448 249.548 377.839 249.867 378.086C250.186 378.327 250.606 378.447 251.127 378.447C251.921 378.447 252.579 378.223 253.1 377.773C253.627 377.318 253.891 376.65 253.891 375.771V374.834ZM263.402 378.34C263.702 378.34 263.998 378.314 264.291 378.262C264.584 378.203 264.851 378.135 265.092 378.057V379.795C264.838 379.906 264.509 380 264.105 380.078C263.702 380.156 263.282 380.195 262.846 380.195C262.234 380.195 261.684 380.094 261.195 379.893C260.707 379.684 260.32 379.329 260.033 378.828C259.747 378.327 259.604 377.633 259.604 376.748V370.938H258.129V369.912L259.711 369.102L260.463 366.787H261.908V369.189H265.004V370.938H261.908V376.719C261.908 377.266 262.045 377.673 262.318 377.939C262.592 378.206 262.953 378.34 263.402 378.34ZM269.584 369.189V380H267.289V369.189H269.584ZM268.451 365.049C268.803 365.049 269.105 365.143 269.359 365.332C269.62 365.521 269.75 365.846 269.75 366.309C269.75 366.764 269.62 367.09 269.359 367.285C269.105 367.474 268.803 367.568 268.451 367.568C268.087 367.568 267.777 367.474 267.523 367.285C267.276 367.09 267.152 366.764 267.152 366.309C267.152 365.846 267.276 365.521 267.523 365.332C267.777 365.143 268.087 365.049 268.451 365.049ZM278.51 368.984C279.727 368.984 280.674 369.3 281.352 369.932C282.035 370.557 282.377 371.562 282.377 372.949V380H280.082V373.379C280.082 372.539 279.91 371.911 279.564 371.494C279.219 371.071 278.686 370.859 277.963 370.859C276.915 370.859 276.186 371.182 275.775 371.826C275.372 372.471 275.17 373.405 275.17 374.629V380H272.875V369.189H274.662L274.984 370.654H275.111C275.346 370.277 275.635 369.967 275.98 369.727C276.332 369.479 276.723 369.294 277.152 369.17C277.589 369.046 278.041 368.984 278.51 368.984ZM288.676 384.805C287.211 384.805 286.088 384.541 285.307 384.014C284.525 383.486 284.135 382.747 284.135 381.797C284.135 381.133 284.343 380.57 284.76 380.107C285.176 379.652 285.772 379.336 286.547 379.16C286.254 379.03 286 378.828 285.785 378.555C285.577 378.275 285.473 377.965 285.473 377.627C285.473 377.223 285.587 376.878 285.814 376.592C286.042 376.305 286.384 376.029 286.84 375.762C286.273 375.521 285.818 375.13 285.473 374.59C285.134 374.043 284.965 373.402 284.965 372.666C284.965 371.885 285.131 371.221 285.463 370.674C285.795 370.12 286.28 369.701 286.918 369.414C287.556 369.121 288.327 368.975 289.232 368.975C289.428 368.975 289.639 368.988 289.867 369.014C290.102 369.033 290.316 369.059 290.512 369.092C290.714 369.118 290.867 369.147 290.971 369.18H294.711V370.459L292.875 370.801C293.051 371.048 293.191 371.331 293.295 371.65C293.399 371.963 293.451 372.305 293.451 372.676C293.451 373.796 293.064 374.678 292.289 375.322C291.521 375.96 290.46 376.279 289.105 376.279C288.78 376.266 288.464 376.24 288.158 376.201C287.924 376.344 287.745 376.504 287.621 376.68C287.497 376.849 287.436 377.041 287.436 377.256C287.436 377.432 287.497 377.575 287.621 377.686C287.745 377.79 287.927 377.868 288.168 377.92C288.415 377.972 288.715 377.998 289.066 377.998H290.932C292.117 377.998 293.021 378.249 293.646 378.75C294.271 379.251 294.584 379.987 294.584 380.957C294.584 382.188 294.076 383.135 293.061 383.799C292.045 384.469 290.583 384.805 288.676 384.805ZM288.764 383.193C289.564 383.193 290.238 383.115 290.785 382.959C291.332 382.803 291.745 382.578 292.025 382.285C292.305 381.999 292.445 381.657 292.445 381.26C292.445 380.908 292.357 380.638 292.182 380.449C292.006 380.26 291.742 380.13 291.391 380.059C291.039 379.987 290.603 379.951 290.082 379.951H288.383C287.96 379.951 287.585 380.016 287.26 380.146C286.934 380.283 286.68 380.479 286.498 380.732C286.322 380.986 286.234 381.292 286.234 381.65C286.234 382.145 286.452 382.526 286.889 382.793C287.331 383.06 287.956 383.193 288.764 383.193ZM289.213 374.775C289.883 374.775 290.382 374.593 290.707 374.229C291.033 373.857 291.195 373.337 291.195 372.666C291.195 371.937 291.026 371.39 290.688 371.025C290.355 370.661 289.861 370.479 289.203 370.479C288.559 370.479 288.067 370.664 287.729 371.035C287.396 371.406 287.23 371.956 287.23 372.686C287.23 373.343 287.396 373.857 287.729 374.229C288.067 374.593 288.562 374.775 289.213 374.775Z" fill="#D3D3D3"/>
<g filter="url(#filter4_d_942_233)">
<path d="M325 440H50C42.8203 440 37 445.82 37 453V479C37 486.18 42.8203 492 50 492H325C332.18 492 338 486.18 338 479V453C338 445.82 332.18 440 325 440Z" fill="#D3D3D3"/>
</g>
<path d="M131.057 463.251C129.88 463.251 128.95 463.645 128.267 464.431C127.588 465.212 127.249 466.284 127.249 467.646C127.249 469.047 127.576 470.131 128.23 470.898C128.889 471.66 129.827 472.041 131.042 472.041C131.79 472.041 132.642 471.906 133.599 471.638V472.729C132.856 473.007 131.941 473.146 130.852 473.146C129.275 473.146 128.057 472.668 127.197 471.711C126.343 470.754 125.916 469.394 125.916 467.631C125.916 466.528 126.121 465.561 126.531 464.731C126.946 463.901 127.542 463.261 128.318 462.812C129.099 462.363 130.017 462.138 131.072 462.138C132.195 462.138 133.176 462.343 134.016 462.753L133.489 463.823C132.678 463.442 131.868 463.251 131.057 463.251ZM142.681 468.979C142.681 470.288 142.351 471.311 141.692 472.048C141.033 472.78 140.122 473.146 138.96 473.146C138.242 473.146 137.605 472.978 137.048 472.641C136.492 472.304 136.062 471.821 135.759 471.191C135.457 470.561 135.305 469.824 135.305 468.979C135.305 467.67 135.632 466.652 136.287 465.925C136.941 465.192 137.849 464.826 139.011 464.826C140.134 464.826 141.025 465.2 141.685 465.947C142.349 466.694 142.681 467.705 142.681 468.979ZM136.565 468.979C136.565 470.004 136.77 470.786 137.18 471.323C137.59 471.86 138.193 472.128 138.989 472.128C139.785 472.128 140.388 471.862 140.798 471.33C141.213 470.793 141.421 470.009 141.421 468.979C141.421 467.958 141.213 467.185 140.798 466.657C140.388 466.125 139.78 465.859 138.975 465.859C138.179 465.859 137.578 466.12 137.173 466.643C136.768 467.165 136.565 467.944 136.565 468.979ZM150.312 473V467.807C150.312 467.153 150.164 466.665 149.866 466.342C149.568 466.02 149.102 465.859 148.467 465.859C147.627 465.859 147.012 466.086 146.621 466.54C146.23 466.994 146.035 467.744 146.035 468.789V473H144.819V464.973H145.808L146.006 466.071H146.064C146.313 465.676 146.663 465.371 147.112 465.156C147.561 464.936 148.062 464.826 148.613 464.826C149.58 464.826 150.308 465.061 150.796 465.529C151.284 465.993 151.528 466.738 151.528 467.763V473H150.312ZM156.626 472.143C156.841 472.143 157.048 472.128 157.249 472.099C157.449 472.065 157.607 472.031 157.725 471.997V472.927C157.593 472.99 157.397 473.042 157.139 473.081C156.885 473.125 156.655 473.146 156.45 473.146C154.897 473.146 154.121 472.329 154.121 470.693V465.917H152.971V465.332L154.121 464.826L154.634 463.112H155.337V464.973H157.666V465.917H155.337V470.642C155.337 471.125 155.452 471.496 155.681 471.755C155.911 472.014 156.226 472.143 156.626 472.143ZM160.552 473H159.336V464.973H160.552V473ZM159.233 462.797C159.233 462.519 159.302 462.316 159.438 462.189C159.575 462.058 159.746 461.992 159.951 461.992C160.146 461.992 160.315 462.058 160.457 462.189C160.598 462.321 160.669 462.524 160.669 462.797C160.669 463.071 160.598 463.276 160.457 463.413C160.315 463.544 160.146 463.61 159.951 463.61C159.746 463.61 159.575 463.544 159.438 463.413C159.302 463.276 159.233 463.071 159.233 462.797ZM168.623 473V467.807C168.623 467.153 168.474 466.665 168.176 466.342C167.878 466.02 167.412 465.859 166.777 465.859C165.938 465.859 165.322 466.086 164.932 466.54C164.541 466.994 164.346 467.744 164.346 468.789V473H163.13V464.973H164.119L164.316 466.071H164.375C164.624 465.676 164.973 465.371 165.422 465.156C165.872 464.936 166.372 464.826 166.924 464.826C167.891 464.826 168.618 465.061 169.106 465.529C169.595 465.993 169.839 466.738 169.839 467.763V473H168.623ZM173.486 464.973V470.18C173.486 470.834 173.635 471.323 173.933 471.645C174.231 471.967 174.697 472.128 175.332 472.128C176.172 472.128 176.785 471.899 177.17 471.44C177.561 470.981 177.756 470.231 177.756 469.191V464.973H178.972V473H177.969L177.793 471.923H177.727C177.478 472.319 177.131 472.622 176.687 472.832C176.248 473.042 175.745 473.146 175.178 473.146C174.202 473.146 173.469 472.915 172.981 472.451C172.498 471.987 172.256 471.245 172.256 470.224V464.973H173.486ZM184.949 473.146C183.762 473.146 182.825 472.785 182.136 472.062C181.453 471.34 181.111 470.336 181.111 469.052C181.111 467.758 181.428 466.73 182.063 465.969C182.703 465.207 183.56 464.826 184.634 464.826C185.64 464.826 186.436 465.158 187.021 465.822C187.607 466.481 187.9 467.353 187.9 468.437V469.206H182.371C182.395 470.148 182.632 470.864 183.081 471.352C183.535 471.84 184.172 472.084 184.993 472.084C185.857 472.084 186.711 471.904 187.556 471.542V472.626C187.126 472.812 186.719 472.944 186.333 473.022C185.952 473.105 185.491 473.146 184.949 473.146ZM184.619 465.844C183.975 465.844 183.459 466.054 183.074 466.474C182.693 466.894 182.468 467.475 182.4 468.217H186.597C186.597 467.451 186.426 466.865 186.084 466.459C185.742 466.049 185.254 465.844 184.619 465.844ZM200.432 473L198.96 468.291C198.867 468.002 198.694 467.348 198.44 466.328H198.381C198.186 467.182 198.015 467.841 197.869 468.305L196.353 473H194.946L192.756 464.973H194.031C194.548 466.989 194.941 468.525 195.21 469.58C195.483 470.634 195.64 471.345 195.679 471.711H195.737C195.791 471.433 195.876 471.074 195.994 470.634C196.116 470.19 196.221 469.838 196.309 469.58L197.781 464.973H199.099L200.535 469.58C200.808 470.419 200.994 471.125 201.091 471.696H201.15C201.169 471.521 201.221 471.25 201.304 470.883C201.392 470.517 201.902 468.547 202.834 464.973H204.094L201.875 473H200.432ZM206.768 473H205.552V464.973H206.768V473ZM205.449 462.797C205.449 462.519 205.518 462.316 205.654 462.189C205.791 462.058 205.962 461.992 206.167 461.992C206.362 461.992 206.531 462.058 206.672 462.189C206.814 462.321 206.885 462.524 206.885 462.797C206.885 463.071 206.814 463.276 206.672 463.413C206.531 463.544 206.362 463.61 206.167 463.61C205.962 463.61 205.791 463.544 205.654 463.413C205.518 463.276 205.449 463.071 205.449 462.797ZM211.938 472.143C212.153 472.143 212.361 472.128 212.561 472.099C212.761 472.065 212.92 472.031 213.037 471.997V472.927C212.905 472.99 212.71 473.042 212.451 473.081C212.197 473.125 211.968 473.146 211.763 473.146C210.21 473.146 209.434 472.329 209.434 470.693V465.917H208.284V465.332L209.434 464.826L209.946 463.112H210.649V464.973H212.979V465.917H210.649V470.642C210.649 471.125 210.764 471.496 210.994 471.755C211.223 472.014 211.538 472.143 211.938 472.143ZM220.142 473V467.807C220.142 467.153 219.993 466.665 219.695 466.342C219.397 466.02 218.931 465.859 218.296 465.859C217.451 465.859 216.833 466.088 216.443 466.547C216.057 467.006 215.864 467.758 215.864 468.803V473H214.648V461.604H215.864V465.053C215.864 465.468 215.845 465.812 215.806 466.086H215.879C216.118 465.7 216.458 465.397 216.897 465.178C217.341 464.953 217.847 464.841 218.413 464.841C219.395 464.841 220.129 465.075 220.618 465.544C221.111 466.008 221.357 466.748 221.357 467.763V473H220.142ZM234.731 465.412C234.731 466.496 234.36 467.331 233.618 467.917C232.881 468.498 231.824 468.789 230.447 468.789H229.187V473H227.942V462.292H230.718C233.394 462.292 234.731 463.332 234.731 465.412ZM229.187 467.719H230.308C231.411 467.719 232.209 467.541 232.703 467.185C233.196 466.828 233.442 466.257 233.442 465.471C233.442 464.763 233.21 464.235 232.747 463.889C232.283 463.542 231.56 463.369 230.579 463.369H229.187V467.719ZM242.29 473V467.807C242.29 467.153 242.141 466.665 241.843 466.342C241.545 466.02 241.079 465.859 240.444 465.859C239.6 465.859 238.982 466.088 238.591 466.547C238.206 467.006 238.013 467.758 238.013 468.803V473H236.797V461.604H238.013V465.053C238.013 465.468 237.993 465.812 237.954 466.086H238.027C238.267 465.7 238.606 465.397 239.045 465.178C239.49 464.953 239.995 464.841 240.562 464.841C241.543 464.841 242.278 465.075 242.766 465.544C243.259 466.008 243.506 466.748 243.506 467.763V473H242.29ZM252.939 468.979C252.939 470.288 252.61 471.311 251.951 472.048C251.292 472.78 250.381 473.146 249.219 473.146C248.501 473.146 247.864 472.978 247.307 472.641C246.75 472.304 246.321 471.821 246.018 471.191C245.715 470.561 245.564 469.824 245.564 468.979C245.564 467.67 245.891 466.652 246.545 465.925C247.2 465.192 248.108 464.826 249.27 464.826C250.393 464.826 251.284 465.2 251.943 465.947C252.607 466.694 252.939 467.705 252.939 468.979ZM246.824 468.979C246.824 470.004 247.029 470.786 247.439 471.323C247.849 471.86 248.452 472.128 249.248 472.128C250.044 472.128 250.647 471.862 251.057 471.33C251.472 470.793 251.68 470.009 251.68 468.979C251.68 467.958 251.472 467.185 251.057 466.657C250.647 466.125 250.039 465.859 249.233 465.859C248.438 465.859 247.837 466.12 247.432 466.643C247.026 467.165 246.824 467.944 246.824 468.979ZM260.571 473V467.807C260.571 467.153 260.422 466.665 260.125 466.342C259.827 466.02 259.36 465.859 258.726 465.859C257.886 465.859 257.271 466.086 256.88 466.54C256.489 466.994 256.294 467.744 256.294 468.789V473H255.078V464.973H256.067L256.265 466.071H256.323C256.572 465.676 256.921 465.371 257.371 465.156C257.82 464.936 258.32 464.826 258.872 464.826C259.839 464.826 260.566 465.061 261.055 465.529C261.543 465.993 261.787 466.738 261.787 467.763V473H260.571ZM267.683 473.146C266.497 473.146 265.559 472.785 264.871 472.062C264.187 471.34 263.845 470.336 263.845 469.052C263.845 467.758 264.163 466.73 264.797 465.969C265.437 465.207 266.294 464.826 267.368 464.826C268.374 464.826 269.17 465.158 269.756 465.822C270.342 466.481 270.635 467.353 270.635 468.437V469.206H265.105C265.129 470.148 265.366 470.864 265.815 471.352C266.27 471.84 266.907 472.084 267.727 472.084C268.591 472.084 269.446 471.904 270.291 471.542V472.626C269.861 472.812 269.453 472.944 269.067 473.022C268.687 473.105 268.225 473.146 267.683 473.146ZM267.354 465.844C266.709 465.844 266.194 466.054 265.808 466.474C265.427 466.894 265.203 467.475 265.134 468.217H269.331C269.331 467.451 269.16 466.865 268.818 466.459C268.477 466.049 267.988 465.844 267.354 465.844Z" fill="white"/>
<g filter="url(#filter5_d_942_233)">
<path d="M325 505.996H50C42.8203 505.996 37 511.816 37 518.996V544.996C37 552.176 42.8203 557.996 50 557.996H325C332.18 557.996 338 552.176 338 544.996V518.996C338 511.816 332.18 505.996 325 505.996Z" fill="#D3D3D3"/>
</g>
<path d="M121.057 529.251C119.88 529.251 118.95 529.645 118.267 530.431C117.588 531.212 117.249 532.284 117.249 533.646C117.249 535.047 117.576 536.131 118.23 536.898C118.889 537.66 119.827 538.041 121.042 538.041C121.79 538.041 122.642 537.906 123.599 537.638V538.729C122.856 539.007 121.941 539.146 120.852 539.146C119.275 539.146 118.057 538.668 117.197 537.711C116.343 536.754 115.916 535.394 115.916 533.631C115.916 532.528 116.121 531.561 116.531 530.731C116.946 529.901 117.542 529.261 118.318 528.812C119.099 528.363 120.017 528.138 121.072 528.138C122.195 528.138 123.176 528.343 124.016 528.753L123.489 529.823C122.678 529.442 121.868 529.251 121.057 529.251ZM132.681 534.979C132.681 536.288 132.351 537.311 131.692 538.048C131.033 538.78 130.122 539.146 128.96 539.146C128.242 539.146 127.605 538.978 127.048 538.641C126.492 538.304 126.062 537.821 125.759 537.191C125.457 536.561 125.305 535.824 125.305 534.979C125.305 533.67 125.632 532.652 126.287 531.925C126.941 531.192 127.849 530.826 129.011 530.826C130.134 530.826 131.025 531.2 131.685 531.947C132.349 532.694 132.681 533.705 132.681 534.979ZM126.565 534.979C126.565 536.004 126.77 536.786 127.18 537.323C127.59 537.86 128.193 538.128 128.989 538.128C129.785 538.128 130.388 537.862 130.798 537.33C131.213 536.793 131.421 536.009 131.421 534.979C131.421 533.958 131.213 533.185 130.798 532.657C130.388 532.125 129.78 531.859 128.975 531.859C128.179 531.859 127.578 532.12 127.173 532.643C126.768 533.165 126.565 533.944 126.565 534.979ZM140.312 539V533.807C140.312 533.153 140.164 532.665 139.866 532.342C139.568 532.02 139.102 531.859 138.467 531.859C137.627 531.859 137.012 532.086 136.621 532.54C136.23 532.994 136.035 533.744 136.035 534.789V539H134.819V530.973H135.808L136.006 532.071H136.064C136.313 531.676 136.663 531.371 137.112 531.156C137.561 530.936 138.062 530.826 138.613 530.826C139.58 530.826 140.308 531.061 140.796 531.529C141.284 531.993 141.528 532.738 141.528 533.763V539H140.312ZM146.626 538.143C146.841 538.143 147.048 538.128 147.249 538.099C147.449 538.065 147.607 538.031 147.725 537.997V538.927C147.593 538.99 147.397 539.042 147.139 539.081C146.885 539.125 146.655 539.146 146.45 539.146C144.897 539.146 144.121 538.329 144.121 536.693V531.917H142.971V531.332L144.121 530.826L144.634 529.112H145.337V530.973H147.666V531.917H145.337V536.642C145.337 537.125 145.452 537.496 145.681 537.755C145.911 538.014 146.226 538.143 146.626 538.143ZM150.552 539H149.336V530.973H150.552V539ZM149.233 528.797C149.233 528.519 149.302 528.316 149.438 528.189C149.575 528.058 149.746 527.992 149.951 527.992C150.146 527.992 150.315 528.058 150.457 528.189C150.598 528.321 150.669 528.524 150.669 528.797C150.669 529.071 150.598 529.276 150.457 529.413C150.315 529.544 150.146 529.61 149.951 529.61C149.746 529.61 149.575 529.544 149.438 529.413C149.302 529.276 149.233 529.071 149.233 528.797ZM158.623 539V533.807C158.623 533.153 158.474 532.665 158.176 532.342C157.878 532.02 157.412 531.859 156.777 531.859C155.938 531.859 155.322 532.086 154.932 532.54C154.541 532.994 154.346 533.744 154.346 534.789V539H153.13V530.973H154.119L154.316 532.071H154.375C154.624 531.676 154.973 531.371 155.422 531.156C155.872 530.936 156.372 530.826 156.924 530.826C157.891 530.826 158.618 531.061 159.106 531.529C159.595 531.993 159.839 532.738 159.839 533.763V539H158.623ZM163.486 530.973V536.18C163.486 536.834 163.635 537.323 163.933 537.645C164.231 537.967 164.697 538.128 165.332 538.128C166.172 538.128 166.785 537.899 167.17 537.44C167.561 536.981 167.756 536.231 167.756 535.191V530.973H168.972V539H167.969L167.793 537.923H167.727C167.478 538.319 167.131 538.622 166.687 538.832C166.248 539.042 165.745 539.146 165.178 539.146C164.202 539.146 163.469 538.915 162.981 538.451C162.498 537.987 162.256 537.245 162.256 536.224V530.973H163.486ZM174.949 539.146C173.762 539.146 172.825 538.785 172.136 538.062C171.453 537.34 171.111 536.336 171.111 535.052C171.111 533.758 171.428 532.73 172.063 531.969C172.703 531.207 173.56 530.826 174.634 530.826C175.64 530.826 176.436 531.158 177.021 531.822C177.607 532.481 177.9 533.353 177.9 534.437V535.206H172.371C172.395 536.148 172.632 536.864 173.081 537.352C173.535 537.84 174.172 538.084 174.993 538.084C175.857 538.084 176.711 537.904 177.556 537.542V538.626C177.126 538.812 176.719 538.944 176.333 539.022C175.952 539.105 175.491 539.146 174.949 539.146ZM174.619 531.844C173.975 531.844 173.459 532.054 173.074 532.474C172.693 532.894 172.468 533.475 172.4 534.217H176.597C176.597 533.451 176.426 532.865 176.084 532.459C175.742 532.049 175.254 531.844 174.619 531.844ZM190.432 539L188.96 534.291C188.867 534.002 188.694 533.348 188.44 532.328H188.381C188.186 533.182 188.015 533.841 187.869 534.305L186.353 539H184.946L182.756 530.973H184.031C184.548 532.989 184.941 534.525 185.21 535.58C185.483 536.634 185.64 537.345 185.679 537.711H185.737C185.791 537.433 185.876 537.074 185.994 536.634C186.116 536.19 186.221 535.838 186.309 535.58L187.781 530.973H189.099L190.535 535.58C190.808 536.419 190.994 537.125 191.091 537.696H191.15C191.169 537.521 191.221 537.25 191.304 536.883C191.392 536.517 191.902 534.547 192.834 530.973H194.094L191.875 539H190.432ZM196.768 539H195.552V530.973H196.768V539ZM195.449 528.797C195.449 528.519 195.518 528.316 195.654 528.189C195.791 528.058 195.962 527.992 196.167 527.992C196.362 527.992 196.531 528.058 196.672 528.189C196.814 528.321 196.885 528.524 196.885 528.797C196.885 529.071 196.814 529.276 196.672 529.413C196.531 529.544 196.362 529.61 196.167 529.61C195.962 529.61 195.791 529.544 195.654 529.413C195.518 529.276 195.449 529.071 195.449 528.797ZM201.938 538.143C202.153 538.143 202.361 538.128 202.561 538.099C202.761 538.065 202.92 538.031 203.037 537.997V538.927C202.905 538.99 202.71 539.042 202.451 539.081C202.197 539.125 201.968 539.146 201.763 539.146C200.21 539.146 199.434 538.329 199.434 536.693V531.917H198.284V531.332L199.434 530.826L199.946 529.112H200.649V530.973H202.979V531.917H200.649V536.642C200.649 537.125 200.764 537.496 200.994 537.755C201.223 538.014 201.538 538.143 201.938 538.143ZM210.142 539V533.807C210.142 533.153 209.993 532.665 209.695 532.342C209.397 532.02 208.931 531.859 208.296 531.859C207.451 531.859 206.833 532.088 206.443 532.547C206.057 533.006 205.864 533.758 205.864 534.803V539H204.648V527.604H205.864V531.053C205.864 531.468 205.845 531.812 205.806 532.086H205.879C206.118 531.7 206.458 531.397 206.897 531.178C207.341 530.953 207.847 530.841 208.413 530.841C209.395 530.841 210.129 531.075 210.618 531.544C211.111 532.008 211.357 532.748 211.357 533.763V539H210.142ZM219.187 539H217.942V528.292H223.911V529.398H219.187V533.316H223.625V534.422H219.187V539ZM230.444 539L230.203 537.857H230.144C229.744 538.36 229.343 538.702 228.943 538.883C228.547 539.059 228.052 539.146 227.456 539.146C226.66 539.146 226.035 538.941 225.581 538.531C225.132 538.121 224.907 537.538 224.907 536.781C224.907 535.16 226.204 534.31 228.796 534.232L230.159 534.188V533.69C230.159 533.06 230.022 532.596 229.749 532.298C229.48 531.996 229.048 531.844 228.452 531.844C227.783 531.844 227.026 532.049 226.182 532.459L225.808 531.529C226.204 531.314 226.636 531.146 227.104 531.024C227.578 530.902 228.052 530.841 228.525 530.841C229.482 530.841 230.19 531.053 230.649 531.478C231.113 531.903 231.345 532.584 231.345 533.521V539H230.444ZM227.698 538.143C228.455 538.143 229.048 537.936 229.478 537.521C229.912 537.105 230.129 536.524 230.129 535.777V535.052L228.914 535.104C227.947 535.138 227.249 535.289 226.819 535.558C226.394 535.821 226.182 536.234 226.182 536.795C226.182 537.235 226.313 537.569 226.577 537.799C226.846 538.028 227.219 538.143 227.698 538.143ZM237.065 539.146C235.903 539.146 235.002 538.79 234.363 538.077C233.728 537.359 233.411 536.346 233.411 535.038C233.411 533.695 233.733 532.657 234.377 531.925C235.027 531.192 235.95 530.826 237.146 530.826C237.532 530.826 237.917 530.868 238.303 530.951C238.689 531.034 238.992 531.131 239.211 531.244L238.838 532.276C238.569 532.169 238.276 532.081 237.959 532.013C237.642 531.939 237.361 531.903 237.117 531.903C235.486 531.903 234.67 532.943 234.67 535.023C234.67 536.009 234.868 536.766 235.264 537.293C235.664 537.821 236.255 538.084 237.036 538.084C237.705 538.084 238.391 537.94 239.094 537.652V538.729C238.557 539.007 237.881 539.146 237.065 539.146ZM244.397 539.146C243.21 539.146 242.273 538.785 241.584 538.062C240.901 537.34 240.559 536.336 240.559 535.052C240.559 533.758 240.876 532.73 241.511 531.969C242.151 531.207 243.008 530.826 244.082 530.826C245.088 530.826 245.884 531.158 246.47 531.822C247.056 532.481 247.349 533.353 247.349 534.437V535.206H241.819C241.843 536.148 242.08 536.864 242.529 537.352C242.983 537.84 243.621 538.084 244.441 538.084C245.305 538.084 246.16 537.904 247.004 537.542V538.626C246.575 538.812 246.167 538.944 245.781 539.022C245.4 539.105 244.939 539.146 244.397 539.146ZM244.067 531.844C243.423 531.844 242.908 532.054 242.522 532.474C242.141 532.894 241.917 533.475 241.848 534.217H246.045C246.045 533.451 245.874 532.865 245.532 532.459C245.19 532.049 244.702 531.844 244.067 531.844ZM253.164 530.841C254.219 530.841 255.037 531.202 255.618 531.925C256.204 532.643 256.497 533.661 256.497 534.979C256.497 536.297 256.201 537.323 255.61 538.055C255.024 538.783 254.209 539.146 253.164 539.146C252.642 539.146 252.163 539.051 251.729 538.861C251.299 538.666 250.938 538.368 250.645 537.967H250.557L250.3 539H249.429V527.604H250.645V530.372C250.645 530.992 250.625 531.549 250.586 532.042H250.645C251.211 531.241 252.051 530.841 253.164 530.841ZM252.988 531.859C252.158 531.859 251.56 532.098 251.194 532.577C250.828 533.05 250.645 533.851 250.645 534.979C250.645 536.107 250.833 536.915 251.208 537.403C251.584 537.887 252.188 538.128 253.018 538.128C253.765 538.128 254.321 537.857 254.688 537.315C255.054 536.769 255.237 535.985 255.237 534.964C255.237 533.919 255.054 533.141 254.688 532.628C254.321 532.115 253.755 531.859 252.988 531.859ZM265.557 534.979C265.557 536.288 265.227 537.311 264.568 538.048C263.909 538.78 262.998 539.146 261.836 539.146C261.118 539.146 260.481 538.978 259.924 538.641C259.368 538.304 258.938 537.821 258.635 537.191C258.333 536.561 258.181 535.824 258.181 534.979C258.181 533.67 258.508 532.652 259.163 531.925C259.817 531.192 260.725 530.826 261.887 530.826C263.01 530.826 263.901 531.2 264.561 531.947C265.225 532.694 265.557 533.705 265.557 534.979ZM259.441 534.979C259.441 536.004 259.646 536.786 260.056 537.323C260.466 537.86 261.069 538.128 261.865 538.128C262.661 538.128 263.264 537.862 263.674 537.33C264.089 536.793 264.297 536.009 264.297 534.979C264.297 533.958 264.089 533.185 263.674 532.657C263.264 532.125 262.656 531.859 261.851 531.859C261.055 531.859 260.454 532.12 260.049 532.643C259.644 533.165 259.441 533.944 259.441 534.979ZM274.624 534.979C274.624 536.288 274.294 537.311 273.635 538.048C272.976 538.78 272.065 539.146 270.903 539.146C270.186 539.146 269.548 538.978 268.992 538.641C268.435 538.304 268.005 537.821 267.703 537.191C267.4 536.561 267.249 535.824 267.249 534.979C267.249 533.67 267.576 532.652 268.23 531.925C268.884 531.192 269.792 530.826 270.955 530.826C272.078 530.826 272.969 531.2 273.628 531.947C274.292 532.694 274.624 533.705 274.624 534.979ZM268.508 534.979C268.508 536.004 268.713 536.786 269.124 537.323C269.534 537.86 270.137 538.128 270.933 538.128C271.729 538.128 272.332 537.862 272.742 537.33C273.157 536.793 273.364 536.009 273.364 534.979C273.364 533.958 273.157 533.185 272.742 532.657C272.332 532.125 271.724 531.859 270.918 531.859C270.122 531.859 269.521 532.12 269.116 532.643C268.711 533.165 268.508 533.944 268.508 534.979ZM277.964 534.891C278.174 534.593 278.494 534.203 278.923 533.719L281.516 530.973H282.959L279.707 534.393L283.186 539H281.714L278.879 535.206L277.964 535.997V539H276.763V527.604H277.964V533.646C277.964 533.915 277.944 534.33 277.905 534.891H277.964Z" fill="white"/>
<g filter="url(#filter6_d_942_233)">
<path d="M325 573.002H50C42.8203 573.002 37 578.822 37 586.002V612.002C37 619.182 42.8203 625.002 50 625.002H325C332.18 625.002 338 619.182 338 612.002V586.002C338 578.822 332.18 573.002 325 573.002Z" fill="#D3D3D3"/>
</g>
<path d="M121.057 596.251C119.88 596.251 118.95 596.645 118.267 597.431C117.588 598.212 117.249 599.284 117.249 600.646C117.249 602.047 117.576 603.131 118.23 603.898C118.889 604.66 119.827 605.041 121.042 605.041C121.79 605.041 122.642 604.906 123.599 604.638V605.729C122.856 606.007 121.941 606.146 120.852 606.146C119.275 606.146 118.057 605.668 117.197 604.711C116.343 603.754 115.916 602.394 115.916 600.631C115.916 599.528 116.121 598.561 116.531 597.731C116.946 596.901 117.542 596.261 118.318 595.812C119.099 595.363 120.017 595.138 121.072 595.138C122.195 595.138 123.176 595.343 124.016 595.753L123.489 596.823C122.678 596.442 121.868 596.251 121.057 596.251ZM132.681 601.979C132.681 603.288 132.351 604.311 131.692 605.048C131.033 605.78 130.122 606.146 128.96 606.146C128.242 606.146 127.605 605.978 127.048 605.641C126.492 605.304 126.062 604.821 125.759 604.191C125.457 603.561 125.305 602.824 125.305 601.979C125.305 600.67 125.632 599.652 126.287 598.925C126.941 598.192 127.849 597.826 129.011 597.826C130.134 597.826 131.025 598.2 131.685 598.947C132.349 599.694 132.681 600.705 132.681 601.979ZM126.565 601.979C126.565 603.004 126.77 603.786 127.18 604.323C127.59 604.86 128.193 605.128 128.989 605.128C129.785 605.128 130.388 604.862 130.798 604.33C131.213 603.793 131.421 603.009 131.421 601.979C131.421 600.958 131.213 600.185 130.798 599.657C130.388 599.125 129.78 598.859 128.975 598.859C128.179 598.859 127.578 599.12 127.173 599.643C126.768 600.165 126.565 600.944 126.565 601.979ZM140.312 606V600.807C140.312 600.153 140.164 599.665 139.866 599.342C139.568 599.02 139.102 598.859 138.467 598.859C137.627 598.859 137.012 599.086 136.621 599.54C136.23 599.994 136.035 600.744 136.035 601.789V606H134.819V597.973H135.808L136.006 599.071H136.064C136.313 598.676 136.663 598.371 137.112 598.156C137.561 597.936 138.062 597.826 138.613 597.826C139.58 597.826 140.308 598.061 140.796 598.529C141.284 598.993 141.528 599.738 141.528 600.763V606H140.312ZM146.626 605.143C146.841 605.143 147.048 605.128 147.249 605.099C147.449 605.065 147.607 605.031 147.725 604.997V605.927C147.593 605.99 147.397 606.042 147.139 606.081C146.885 606.125 146.655 606.146 146.45 606.146C144.897 606.146 144.121 605.329 144.121 603.693V598.917H142.971V598.332L144.121 597.826L144.634 596.112H145.337V597.973H147.666V598.917H145.337V603.642C145.337 604.125 145.452 604.496 145.681 604.755C145.911 605.014 146.226 605.143 146.626 605.143ZM150.552 606H149.336V597.973H150.552V606ZM149.233 595.797C149.233 595.519 149.302 595.316 149.438 595.189C149.575 595.058 149.746 594.992 149.951 594.992C150.146 594.992 150.315 595.058 150.457 595.189C150.598 595.321 150.669 595.524 150.669 595.797C150.669 596.071 150.598 596.276 150.457 596.413C150.315 596.544 150.146 596.61 149.951 596.61C149.746 596.61 149.575 596.544 149.438 596.413C149.302 596.276 149.233 596.071 149.233 595.797ZM158.623 606V600.807C158.623 600.153 158.474 599.665 158.176 599.342C157.878 599.02 157.412 598.859 156.777 598.859C155.938 598.859 155.322 599.086 154.932 599.54C154.541 599.994 154.346 600.744 154.346 601.789V606H153.13V597.973H154.119L154.316 599.071H154.375C154.624 598.676 154.973 598.371 155.422 598.156C155.872 597.936 156.372 597.826 156.924 597.826C157.891 597.826 158.618 598.061 159.106 598.529C159.595 598.993 159.839 599.738 159.839 600.763V606H158.623ZM163.486 597.973V603.18C163.486 603.834 163.635 604.323 163.933 604.645C164.231 604.967 164.697 605.128 165.332 605.128C166.172 605.128 166.785 604.899 167.17 604.44C167.561 603.981 167.756 603.231 167.756 602.191V597.973H168.972V606H167.969L167.793 604.923H167.727C167.478 605.319 167.131 605.622 166.687 605.832C166.248 606.042 165.745 606.146 165.178 606.146C164.202 606.146 163.469 605.915 162.981 605.451C162.498 604.987 162.256 604.245 162.256 603.224V597.973H163.486ZM174.949 606.146C173.762 606.146 172.825 605.785 172.136 605.062C171.453 604.34 171.111 603.336 171.111 602.052C171.111 600.758 171.428 599.73 172.063 598.969C172.703 598.207 173.56 597.826 174.634 597.826C175.64 597.826 176.436 598.158 177.021 598.822C177.607 599.481 177.9 600.353 177.9 601.437V602.206H172.371C172.395 603.148 172.632 603.864 173.081 604.352C173.535 604.84 174.172 605.084 174.993 605.084C175.857 605.084 176.711 604.904 177.556 604.542V605.626C177.126 605.812 176.719 605.944 176.333 606.022C175.952 606.105 175.491 606.146 174.949 606.146ZM174.619 598.844C173.975 598.844 173.459 599.054 173.074 599.474C172.693 599.894 172.468 600.475 172.4 601.217H176.597C176.597 600.451 176.426 599.865 176.084 599.459C175.742 599.049 175.254 598.844 174.619 598.844ZM190.432 606L188.96 601.291C188.867 601.002 188.694 600.348 188.44 599.328H188.381C188.186 600.182 188.015 600.841 187.869 601.305L186.353 606H184.946L182.756 597.973H184.031C184.548 599.989 184.941 601.525 185.21 602.58C185.483 603.634 185.64 604.345 185.679 604.711H185.737C185.791 604.433 185.876 604.074 185.994 603.634C186.116 603.19 186.221 602.838 186.309 602.58L187.781 597.973H189.099L190.535 602.58C190.808 603.419 190.994 604.125 191.091 604.696H191.15C191.169 604.521 191.221 604.25 191.304 603.883C191.392 603.517 191.902 601.547 192.834 597.973H194.094L191.875 606H190.432ZM196.768 606H195.552V597.973H196.768V606ZM195.449 595.797C195.449 595.519 195.518 595.316 195.654 595.189C195.791 595.058 195.962 594.992 196.167 594.992C196.362 594.992 196.531 595.058 196.672 595.189C196.814 595.321 196.885 595.524 196.885 595.797C196.885 596.071 196.814 596.276 196.672 596.413C196.531 596.544 196.362 596.61 196.167 596.61C195.962 596.61 195.791 596.544 195.654 596.413C195.518 596.276 195.449 596.071 195.449 595.797ZM201.938 605.143C202.153 605.143 202.361 605.128 202.561 605.099C202.761 605.065 202.92 605.031 203.037 604.997V605.927C202.905 605.99 202.71 606.042 202.451 606.081C202.197 606.125 201.968 606.146 201.763 606.146C200.21 606.146 199.434 605.329 199.434 603.693V598.917H198.284V598.332L199.434 597.826L199.946 596.112H200.649V597.973H202.979V598.917H200.649V603.642C200.649 604.125 200.764 604.496 200.994 604.755C201.223 605.014 201.538 605.143 201.938 605.143ZM210.142 606V600.807C210.142 600.153 209.993 599.665 209.695 599.342C209.397 599.02 208.931 598.859 208.296 598.859C207.451 598.859 206.833 599.088 206.443 599.547C206.057 600.006 205.864 600.758 205.864 601.803V606H204.648V594.604H205.864V598.053C205.864 598.468 205.845 598.812 205.806 599.086H205.879C206.118 598.7 206.458 598.397 206.897 598.178C207.341 597.953 207.847 597.841 208.413 597.841C209.395 597.841 210.129 598.075 210.618 598.544C211.111 599.008 211.357 599.748 211.357 600.763V606H210.142ZM222.651 600.39H226.292V605.597C225.725 605.778 225.149 605.915 224.563 606.007C223.977 606.1 223.298 606.146 222.527 606.146C220.906 606.146 219.644 605.666 218.74 604.704C217.837 603.737 217.385 602.384 217.385 600.646C217.385 599.533 217.607 598.559 218.052 597.724C218.501 596.884 219.146 596.244 219.985 595.805C220.825 595.36 221.809 595.138 222.937 595.138C224.08 595.138 225.144 595.348 226.13 595.768L225.647 596.867C224.68 596.457 223.75 596.251 222.856 596.251C221.553 596.251 220.535 596.64 219.802 597.416C219.07 598.192 218.704 599.269 218.704 600.646C218.704 602.091 219.055 603.188 219.758 603.935C220.466 604.682 221.504 605.055 222.871 605.055C223.613 605.055 224.338 604.97 225.046 604.799V601.503H222.651V600.39ZM235.615 601.979C235.615 603.288 235.286 604.311 234.626 605.048C233.967 605.78 233.057 606.146 231.895 606.146C231.177 606.146 230.54 605.978 229.983 605.641C229.426 605.304 228.997 604.821 228.694 604.191C228.391 603.561 228.24 602.824 228.24 601.979C228.24 600.67 228.567 599.652 229.221 598.925C229.875 598.192 230.784 597.826 231.946 597.826C233.069 597.826 233.96 598.2 234.619 598.947C235.283 599.694 235.615 600.705 235.615 601.979ZM229.5 601.979C229.5 603.004 229.705 603.786 230.115 604.323C230.525 604.86 231.128 605.128 231.924 605.128C232.72 605.128 233.323 604.862 233.733 604.33C234.148 603.793 234.355 603.009 234.355 601.979C234.355 600.958 234.148 600.185 233.733 599.657C233.323 599.125 232.715 598.859 231.909 598.859C231.113 598.859 230.513 599.12 230.107 599.643C229.702 600.165 229.5 600.944 229.5 601.979ZM244.683 601.979C244.683 603.288 244.353 604.311 243.694 605.048C243.035 605.78 242.124 606.146 240.962 606.146C240.244 606.146 239.607 605.978 239.05 605.641C238.494 605.304 238.064 604.821 237.761 604.191C237.458 603.561 237.307 602.824 237.307 601.979C237.307 600.67 237.634 599.652 238.289 598.925C238.943 598.192 239.851 597.826 241.013 597.826C242.136 597.826 243.027 598.2 243.687 598.947C244.351 599.694 244.683 600.705 244.683 601.979ZM238.567 601.979C238.567 603.004 238.772 603.786 239.182 604.323C239.592 604.86 240.195 605.128 240.991 605.128C241.787 605.128 242.39 604.862 242.8 604.33C243.215 603.793 243.423 603.009 243.423 601.979C243.423 600.958 243.215 600.185 242.8 599.657C242.39 599.125 241.782 598.859 240.977 598.859C240.181 598.859 239.58 599.12 239.175 599.643C238.77 600.165 238.567 600.944 238.567 601.979ZM253.391 597.973V598.742L251.904 598.917C252.041 599.088 252.163 599.313 252.271 599.591C252.378 599.865 252.432 600.175 252.432 600.521C252.432 601.308 252.163 601.935 251.626 602.404C251.089 602.873 250.352 603.107 249.414 603.107C249.175 603.107 248.95 603.087 248.74 603.048C248.223 603.322 247.964 603.666 247.964 604.081C247.964 604.301 248.054 604.464 248.235 604.572C248.416 604.674 248.726 604.726 249.165 604.726H250.586C251.455 604.726 252.122 604.909 252.585 605.275C253.054 605.641 253.289 606.173 253.289 606.872C253.289 607.76 252.932 608.437 252.219 608.9C251.506 609.369 250.466 609.604 249.099 609.604C248.049 609.604 247.239 609.408 246.667 609.018C246.101 608.627 245.818 608.075 245.818 607.362C245.818 606.874 245.974 606.452 246.287 606.095C246.599 605.739 247.039 605.497 247.605 605.37C247.4 605.277 247.227 605.133 247.085 604.938C246.948 604.743 246.88 604.516 246.88 604.257C246.88 603.964 246.958 603.708 247.114 603.488C247.271 603.268 247.517 603.056 247.854 602.851C247.439 602.68 247.1 602.389 246.836 601.979C246.577 601.569 246.448 601.1 246.448 600.573C246.448 599.694 246.711 599.018 247.239 598.544C247.766 598.065 248.513 597.826 249.48 597.826C249.9 597.826 250.278 597.875 250.615 597.973H253.391ZM246.99 607.348C246.99 607.782 247.173 608.112 247.539 608.336C247.905 608.561 248.43 608.673 249.114 608.673C250.134 608.673 250.889 608.52 251.377 608.212C251.87 607.909 252.117 607.497 252.117 606.974C252.117 606.54 251.982 606.237 251.714 606.066C251.445 605.9 250.94 605.817 250.198 605.817H248.74C248.188 605.817 247.759 605.949 247.451 606.212C247.144 606.476 246.99 606.854 246.99 607.348ZM247.649 600.543C247.649 601.105 247.808 601.53 248.125 601.818C248.442 602.106 248.884 602.25 249.451 602.25C250.637 602.25 251.23 601.674 251.23 600.521C251.23 599.315 250.63 598.712 249.429 598.712C248.857 598.712 248.418 598.866 248.11 599.174C247.803 599.481 247.649 599.938 247.649 600.543ZM256.255 606H255.039V594.604H256.255V606ZM262.224 606.146C261.038 606.146 260.1 605.785 259.412 605.062C258.728 604.34 258.386 603.336 258.386 602.052C258.386 600.758 258.704 599.73 259.338 598.969C259.978 598.207 260.835 597.826 261.909 597.826C262.915 597.826 263.711 598.158 264.297 598.822C264.883 599.481 265.176 600.353 265.176 601.437V602.206H259.646C259.67 603.148 259.907 603.864 260.356 604.352C260.811 604.84 261.448 605.084 262.268 605.084C263.132 605.084 263.987 604.904 264.832 604.542V605.626C264.402 605.812 263.994 605.944 263.608 606.022C263.228 606.105 262.766 606.146 262.224 606.146ZM261.895 598.844C261.25 598.844 260.735 599.054 260.349 599.474C259.968 599.894 259.744 600.475 259.675 601.217H263.872C263.872 600.451 263.701 599.865 263.359 599.459C263.018 599.049 262.529 598.844 261.895 598.844Z" fill="white"/>
<g filter="url(#filter7_d_942_233)">
<path d="M325 638.998H50C42.8203 638.998 37 644.818 37 651.998V677.998C37 685.178 42.8203 690.998 50 690.998H325C332.18 690.998 338 685.178 338 677.998V651.998C338 644.818 332.18 638.998 325 638.998Z" fill="#D3D3D3"/>
</g>
<path d="M121.057 662.251C119.88 662.251 118.95 662.645 118.267 663.431C117.588 664.212 117.249 665.284 117.249 666.646C117.249 668.047 117.576 669.131 118.23 669.898C118.889 670.66 119.827 671.041 121.042 671.041C121.79 671.041 122.642 670.906 123.599 670.638V671.729C122.856 672.007 121.941 672.146 120.852 672.146C119.275 672.146 118.057 671.668 117.197 670.711C116.343 669.754 115.916 668.394 115.916 666.631C115.916 665.528 116.121 664.561 116.531 663.731C116.946 662.901 117.542 662.261 118.318 661.812C119.099 661.363 120.017 661.138 121.072 661.138C122.195 661.138 123.176 661.343 124.016 661.753L123.489 662.823C122.678 662.442 121.868 662.251 121.057 662.251ZM132.681 667.979C132.681 669.288 132.351 670.311 131.692 671.048C131.033 671.78 130.122 672.146 128.96 672.146C128.242 672.146 127.605 671.978 127.048 671.641C126.492 671.304 126.062 670.821 125.759 670.191C125.457 669.561 125.305 668.824 125.305 667.979C125.305 666.67 125.632 665.652 126.287 664.925C126.941 664.192 127.849 663.826 129.011 663.826C130.134 663.826 131.025 664.2 131.685 664.947C132.349 665.694 132.681 666.705 132.681 667.979ZM126.565 667.979C126.565 669.004 126.77 669.786 127.18 670.323C127.59 670.86 128.193 671.128 128.989 671.128C129.785 671.128 130.388 670.862 130.798 670.33C131.213 669.793 131.421 669.009 131.421 667.979C131.421 666.958 131.213 666.185 130.798 665.657C130.388 665.125 129.78 664.859 128.975 664.859C128.179 664.859 127.578 665.12 127.173 665.643C126.768 666.165 126.565 666.944 126.565 667.979ZM140.312 672V666.807C140.312 666.153 140.164 665.665 139.866 665.342C139.568 665.02 139.102 664.859 138.467 664.859C137.627 664.859 137.012 665.086 136.621 665.54C136.23 665.994 136.035 666.744 136.035 667.789V672H134.819V663.973H135.808L136.006 665.071H136.064C136.313 664.676 136.663 664.371 137.112 664.156C137.561 663.936 138.062 663.826 138.613 663.826C139.58 663.826 140.308 664.061 140.796 664.529C141.284 664.993 141.528 665.738 141.528 666.763V672H140.312ZM146.626 671.143C146.841 671.143 147.048 671.128 147.249 671.099C147.449 671.065 147.607 671.031 147.725 670.997V671.927C147.593 671.99 147.397 672.042 147.139 672.081C146.885 672.125 146.655 672.146 146.45 672.146C144.897 672.146 144.121 671.329 144.121 669.693V664.917H142.971V664.332L144.121 663.826L144.634 662.112H145.337V663.973H147.666V664.917H145.337V669.642C145.337 670.125 145.452 670.496 145.681 670.755C145.911 671.014 146.226 671.143 146.626 671.143ZM150.552 672H149.336V663.973H150.552V672ZM149.233 661.797C149.233 661.519 149.302 661.316 149.438 661.189C149.575 661.058 149.746 660.992 149.951 660.992C150.146 660.992 150.315 661.058 150.457 661.189C150.598 661.321 150.669 661.524 150.669 661.797C150.669 662.071 150.598 662.276 150.457 662.413C150.315 662.544 150.146 662.61 149.951 662.61C149.746 662.61 149.575 662.544 149.438 662.413C149.302 662.276 149.233 662.071 149.233 661.797ZM158.623 672V666.807C158.623 666.153 158.474 665.665 158.176 665.342C157.878 665.02 157.412 664.859 156.777 664.859C155.938 664.859 155.322 665.086 154.932 665.54C154.541 665.994 154.346 666.744 154.346 667.789V672H153.13V663.973H154.119L154.316 665.071H154.375C154.624 664.676 154.973 664.371 155.422 664.156C155.872 663.936 156.372 663.826 156.924 663.826C157.891 663.826 158.618 664.061 159.106 664.529C159.595 664.993 159.839 665.738 159.839 666.763V672H158.623ZM163.486 663.973V669.18C163.486 669.834 163.635 670.323 163.933 670.645C164.231 670.967 164.697 671.128 165.332 671.128C166.172 671.128 166.785 670.899 167.17 670.44C167.561 669.981 167.756 669.231 167.756 668.191V663.973H168.972V672H167.969L167.793 670.923H167.727C167.478 671.319 167.131 671.622 166.687 671.832C166.248 672.042 165.745 672.146 165.178 672.146C164.202 672.146 163.469 671.915 162.981 671.451C162.498 670.987 162.256 670.245 162.256 669.224V663.973H163.486ZM174.949 672.146C173.762 672.146 172.825 671.785 172.136 671.062C171.453 670.34 171.111 669.336 171.111 668.052C171.111 666.758 171.428 665.73 172.063 664.969C172.703 664.207 173.56 663.826 174.634 663.826C175.64 663.826 176.436 664.158 177.021 664.822C177.607 665.481 177.9 666.353 177.9 667.437V668.206H172.371C172.395 669.148 172.632 669.864 173.081 670.352C173.535 670.84 174.172 671.084 174.993 671.084C175.857 671.084 176.711 670.904 177.556 670.542V671.626C177.126 671.812 176.719 671.944 176.333 672.022C175.952 672.105 175.491 672.146 174.949 672.146ZM174.619 664.844C173.975 664.844 173.459 665.054 173.074 665.474C172.693 665.894 172.468 666.475 172.4 667.217H176.597C176.597 666.451 176.426 665.865 176.084 665.459C175.742 665.049 175.254 664.844 174.619 664.844ZM190.432 672L188.96 667.291C188.867 667.002 188.694 666.348 188.44 665.328H188.381C188.186 666.182 188.015 666.841 187.869 667.305L186.353 672H184.946L182.756 663.973H184.031C184.548 665.989 184.941 667.525 185.21 668.58C185.483 669.634 185.64 670.345 185.679 670.711H185.737C185.791 670.433 185.876 670.074 185.994 669.634C186.116 669.19 186.221 668.838 186.309 668.58L187.781 663.973H189.099L190.535 668.58C190.808 669.419 190.994 670.125 191.091 670.696H191.15C191.169 670.521 191.221 670.25 191.304 669.883C191.392 669.517 191.902 667.547 192.834 663.973H194.094L191.875 672H190.432ZM196.768 672H195.552V663.973H196.768V672ZM195.449 661.797C195.449 661.519 195.518 661.316 195.654 661.189C195.791 661.058 195.962 660.992 196.167 660.992C196.362 660.992 196.531 661.058 196.672 661.189C196.814 661.321 196.885 661.524 196.885 661.797C196.885 662.071 196.814 662.276 196.672 662.413C196.531 662.544 196.362 662.61 196.167 662.61C195.962 662.61 195.791 662.544 195.654 662.413C195.518 662.276 195.449 662.071 195.449 661.797ZM201.938 671.143C202.153 671.143 202.361 671.128 202.561 671.099C202.761 671.065 202.92 671.031 203.037 670.997V671.927C202.905 671.99 202.71 672.042 202.451 672.081C202.197 672.125 201.968 672.146 201.763 672.146C200.21 672.146 199.434 671.329 199.434 669.693V664.917H198.284V664.332L199.434 663.826L199.946 662.112H200.649V663.973H202.979V664.917H200.649V669.642C200.649 670.125 200.764 670.496 200.994 670.755C201.223 671.014 201.538 671.143 201.938 671.143ZM210.142 672V666.807C210.142 666.153 209.993 665.665 209.695 665.342C209.397 665.02 208.931 664.859 208.296 664.859C207.451 664.859 206.833 665.088 206.443 665.547C206.057 666.006 205.864 666.758 205.864 667.803V672H204.648V660.604H205.864V664.053C205.864 664.468 205.845 664.812 205.806 665.086H205.879C206.118 664.7 206.458 664.397 206.897 664.178C207.341 663.953 207.847 663.841 208.413 663.841C209.395 663.841 210.129 664.075 210.618 664.544C211.111 665.008 211.357 665.748 211.357 666.763V672H210.142ZM222.695 672L222.454 670.857H222.395C221.995 671.36 221.594 671.702 221.194 671.883C220.798 672.059 220.303 672.146 219.707 672.146C218.911 672.146 218.286 671.941 217.832 671.531C217.383 671.121 217.158 670.538 217.158 669.781C217.158 668.16 218.455 667.31 221.047 667.232L222.41 667.188V666.69C222.41 666.06 222.273 665.596 222 665.298C221.731 664.996 221.299 664.844 220.703 664.844C220.034 664.844 219.277 665.049 218.433 665.459L218.059 664.529C218.455 664.314 218.887 664.146 219.355 664.024C219.829 663.902 220.303 663.841 220.776 663.841C221.733 663.841 222.441 664.053 222.9 664.478C223.364 664.903 223.596 665.584 223.596 666.521V672H222.695ZM219.949 671.143C220.706 671.143 221.299 670.936 221.729 670.521C222.163 670.105 222.38 669.524 222.38 668.777V668.052L221.165 668.104C220.198 668.138 219.5 668.289 219.07 668.558C218.645 668.821 218.433 669.234 218.433 669.795C218.433 670.235 218.564 670.569 218.828 670.799C219.097 671.028 219.47 671.143 219.949 671.143ZM229.844 672.146C229.321 672.146 228.843 672.051 228.408 671.861C227.979 671.666 227.617 671.368 227.324 670.967H227.236C227.295 671.436 227.324 671.88 227.324 672.3V675.604H226.108V663.973H227.097L227.266 665.071H227.324C227.637 664.632 228 664.314 228.416 664.119C228.831 663.924 229.307 663.826 229.844 663.826C230.908 663.826 231.729 664.19 232.305 664.917C232.886 665.645 233.176 666.666 233.176 667.979C233.176 669.297 232.881 670.323 232.29 671.055C231.704 671.783 230.889 672.146 229.844 672.146ZM229.668 664.859C228.848 664.859 228.254 665.086 227.888 665.54C227.522 665.994 227.334 666.717 227.324 667.708V667.979C227.324 669.107 227.512 669.915 227.888 670.403C228.264 670.887 228.867 671.128 229.697 671.128C230.391 671.128 230.933 670.848 231.323 670.286C231.719 669.725 231.917 668.951 231.917 667.964C231.917 666.963 231.719 666.197 231.323 665.665C230.933 665.127 230.381 664.859 229.668 664.859ZM239.043 672.146C238.521 672.146 238.042 672.051 237.607 671.861C237.178 671.666 236.816 671.368 236.523 670.967H236.436C236.494 671.436 236.523 671.88 236.523 672.3V675.604H235.308V663.973H236.296L236.465 665.071H236.523C236.836 664.632 237.2 664.314 237.615 664.119C238.03 663.924 238.506 663.826 239.043 663.826C240.107 663.826 240.928 664.19 241.504 664.917C242.085 665.645 242.375 666.666 242.375 667.979C242.375 669.297 242.08 670.323 241.489 671.055C240.903 671.783 240.088 672.146 239.043 672.146ZM238.867 664.859C238.047 664.859 237.454 665.086 237.087 665.54C236.721 665.994 236.533 666.717 236.523 667.708V667.979C236.523 669.107 236.711 669.915 237.087 670.403C237.463 670.887 238.066 671.128 238.896 671.128C239.59 671.128 240.132 670.848 240.522 670.286C240.918 669.725 241.116 668.951 241.116 667.964C241.116 666.963 240.918 666.197 240.522 665.665C240.132 665.127 239.58 664.859 238.867 664.859ZM245.723 672H244.507V660.604H245.723V672ZM251.692 672.146C250.505 672.146 249.568 671.785 248.879 671.062C248.196 670.34 247.854 669.336 247.854 668.052C247.854 666.758 248.171 665.73 248.806 664.969C249.446 664.207 250.303 663.826 251.377 663.826C252.383 663.826 253.179 664.158 253.765 664.822C254.351 665.481 254.644 666.353 254.644 667.437V668.206H249.114C249.138 669.148 249.375 669.864 249.824 670.352C250.278 670.84 250.916 671.084 251.736 671.084C252.6 671.084 253.455 670.904 254.299 670.542V671.626C253.87 671.812 253.462 671.944 253.076 672.022C252.695 672.105 252.234 672.146 251.692 672.146ZM251.362 664.844C250.718 664.844 250.203 665.054 249.817 665.474C249.436 665.894 249.211 666.475 249.143 667.217H253.34C253.34 666.451 253.169 665.865 252.827 665.459C252.485 665.049 251.997 664.844 251.362 664.844Z" fill="white"/>
<defs>
<filter id="filter0_d_942_233" x="128" y="145" width="112" height="112" filterUnits="userSpaceOnUse" color-interpolation-filters="sRGB">
<feFlood flood-opacity="0" result="BackgroundImageFix"/>
<feColorMatrix in="SourceAlpha" type="matrix" values="0 0 0 0 0 0 0 0 0 0 0 0 0 0 0 0 0 0 127 0" result="hardAlpha"/>
<feOffset dy="3"/>
<feGaussianBlur stdDeviation="3"/>
<feColorMatrix type="matrix" values="0 0 0 0 0 0 0 0 0 0 0 0 0 0 0 0 0 0 0.161 0"/>
<feBlend mode="normal" in2="BackgroundImageFix" result="effect1_dropShadow_942_233"/>
<feBlend mode="normal" in="SourceGraphic" in2="effect1_dropShadow_942_233" result="shape"/>
</filter>
<filter id="filter1_d_942_233" x="128" y="145" width="97" height="97" filterUnits="userSpaceOnUse" color-interpolation-filters="sRGB">
<feFlood flood-opacity="0" result="BackgroundImageFix"/>
<feColorMatrix in="SourceAlpha" type="matrix" values="0 0 0 0 0 0 0 0 0 0 0 0 0 0 0 0 0 0 127 0" result="hardAlpha"/>
<feOffset dy="3"/>
<feGaussianBlur stdDeviation="3"/>
<feColorMatrix type="matrix" values="0 0 0 0 0 0 0 0 0 0 0 0 0 0 0 0 0 0 0.161 0"/>
<feBlend mode="normal" in2="BackgroundImageFix" result="effect1_dropShadow_942_233"/>
<feBlend mode="normal" in="SourceGraphic" in2="effect1_dropShadow_942_233" result="shape"/>
</filter>
<filter id="filter2_d_942_233" x="128" y="145" width="82" height="82" filterUnits="userSpaceOnUse" color-interpolation-filters="sRGB">
<feFlood flood-opacity="0" result="BackgroundImageFix"/>
<feColorMatrix in="SourceAlpha" type="matrix" values="0 0 0 0 0 0 0 0 0 0 0 0 0 0 0 0 0 0 127 0" result="hardAlpha"/>
<feOffset dy="3"/>
<feGaussianBlur stdDeviation="3"/>
<feColorMatrix type="matrix" values="0 0 0 0 0 0 0 0 0 0 0 0 0 0 0 0 0 0 0.161 0"/>
<feBlend mode="normal" in2="BackgroundImageFix" result="effect1_dropShadow_942_233"/>
<feBlend mode="normal" in="SourceGraphic" in2="effect1_dropShadow_942_233" result="shape"/>
</filter>
<filter id="filter3_d_942_233" x="128" y="145" width="67" height="67" filterUnits="userSpaceOnUse" color-interpolation-filters="sRGB">
<feFlood flood-opacity="0" result="BackgroundImageFix"/>
<feColorMatrix in="SourceAlpha" type="matrix" values="0 0 0 0 0 0 0 0 0 0 0 0 0 0 0 0 0 0 127 0" result="hardAlpha"/>
<feOffset dy="3"/>
<feGaussianBlur stdDeviation="3"/>
<feColorMatrix type="matrix" values="0 0 0 0 0 0 0 0 0 0 0 0 0 0 0 0 0 0 0.161 0"/>
<feBlend mode="normal" in2="BackgroundImageFix" result="effect1_dropShadow_942_233"/>
<feBlend mode="normal" in="SourceGraphic" in2="effect1_dropShadow_942_233" result="shape"/>
</filter>
<filter id="filter4_d_942_233" x="31" y="437" width="313" height="64" filterUnits="userSpaceOnUse" color-interpolation-filters="sRGB">
<feFlood flood-opacity="0" result="BackgroundImageFix"/>
<feColorMatrix in="SourceAlpha" type="matrix" values="0 0 0 0 0 0 0 0 0 0 0 0 0 0 0 0 0 0 127 0" result="hardAlpha"/>
<feOffset dy="3"/>
<feGaussianBlur stdDeviation="3"/>
<feColorMatrix type="matrix" values="0 0 0 0 0 0 0 0 0 0 0 0 0 0 0 0 0 0 0.161 0"/>
<feBlend mode="normal" in2="BackgroundImageFix" result="effect1_dropShadow_942_233"/>
<feBlend mode="normal" in="SourceGraphic" in2="effect1_dropShadow_942_233" result="shape"/>
</filter>
<filter id="filter5_d_942_233" x="31" y="502.996" width="313" height="64" filterUnits="userSpaceOnUse" color-interpolation-filters="sRGB">
<feFlood flood-opacity="0" result="BackgroundImageFix"/>
<feColorMatrix in="SourceAlpha" type="matrix" values="0 0 0 0 0 0 0 0 0 0 0 0 0 0 0 0 0 0 127 0" result="hardAlpha"/>
<feOffset dy="3"/>
<feGaussianBlur stdDeviation="3"/>
<feColorMatrix type="matrix" values="0 0 0 0 0 0 0 0 0 0 0 0 0 0 0 0 0 0 0.161 0"/>
<feBlend mode="normal" in2="BackgroundImageFix" result="effect1_dropShadow_942_233"/>
<feBlend mode="normal" in="SourceGraphic" in2="effect1_dropShadow_942_233" result="shape"/>
</filter>
<filter id="filter6_d_942_233" x="31" y="570.002" width="313" height="64" filterUnits="userSpaceOnUse" color-interpolation-filters="sRGB">
<feFlood flood-opacity="0" result="BackgroundImageFix"/>
<feColorMatrix in="SourceAlpha" type="matrix" values="0 0 0 0 0 0 0 0 0 0 0 0 0 0 0 0 0 0 127 0" result="hardAlpha"/>
<feOffset dy="3"/>
<feGaussianBlur stdDeviation="3"/>
<feColorMatrix type="matrix" values="0 0 0 0 0 0 0 0 0 0 0 0 0 0 0 0 0 0 0.161 0"/>
<feBlend mode="normal" in2="BackgroundImageFix" result="effect1_dropShadow_942_233"/>
<feBlend mode="normal" in="SourceGraphic" in2="effect1_dropShadow_942_233" result="shape"/>
</filter>
<filter id="filter7_d_942_233" x="31" y="635.998" width="313" height="64" filterUnits="userSpaceOnUse" color-interpolation-filters="sRGB">
<feFlood flood-opacity="0" result="BackgroundImageFix"/>
<feColorMatrix in="SourceAlpha" type="matrix" values="0 0 0 0 0 0 0 0 0 0 0 0 0 0 0 0 0 0 127 0" result="hardAlpha"/>
<feOffset dy="3"/>
<feGaussianBlur stdDeviation="3"/>
<feColorMatrix type="matrix" values="0 0 0 0 0 0 0 0 0 0 0 0 0 0 0 0 0 0 0.161 0"/>
<feBlend mode="normal" in2="BackgroundImageFix" result="effect1_dropShadow_942_233"/>
<feBlend mode="normal" in="SourceGraphic" in2="effect1_dropShadow_942_233" result="shape"/>
</filter>
</defs>
</svg>
