<svg width="375" height="812" viewBox="0 0 375 812" fill="none" xmlns="http://www.w3.org/2000/svg">
<g clip-path="url(#clip0_955_300)">
<rect width="375" height="812" fill="white"/>
<path d="M375 0H0V812H375V0Z" fill="white"/>
<path d="M136.12 127.758H125.245V148H136.12V145.825H127.884V138.865H135.25V136.69H127.884V129.933H136.12V127.758ZM151.742 148H154.352V138.633C154.352 134.08 151.539 131.818 147.856 131.818C145.71 131.818 143.796 132.717 142.752 134.37V132.108H140.113V148H142.752V139.213C142.752 135.791 144.608 134.109 147.305 134.109C149.973 134.109 151.742 135.762 151.742 139.01V148ZM159.243 143.65C159.243 146.84 160.838 148 163.651 148H166.029V145.767H164.086C162.462 145.767 161.882 145.216 161.882 143.65V134.283H166.029V132.108H161.882V128.106H159.243V132.108H157.184V134.283H159.243V143.65ZM175.983 134.08C178.709 134.08 181.029 135.791 181 138.894H170.966C171.256 135.791 173.402 134.08 175.983 134.08ZM183.407 143.099H180.565C179.985 144.81 178.477 146.028 176.099 146.028C173.402 146.028 171.14 144.259 170.937 141.04H183.639C183.697 140.489 183.726 140.025 183.726 139.445C183.726 135.095 180.71 131.847 176.099 131.847C171.459 131.847 168.24 135.008 168.24 140.025C168.24 145.071 171.575 148.261 176.099 148.261C180.043 148.261 182.595 145.999 183.407 143.099ZM189.849 139.358C189.849 135.675 191.763 134.544 194.286 134.544H194.982V131.818C192.459 131.818 190.748 132.92 189.849 134.689V132.108H187.21V148H189.849V139.358ZM225.074 137.879C225.074 131.818 220.637 127.555 214.924 127.555C209.24 127.555 204.774 131.818 204.774 137.879C204.774 143.94 209.24 148.203 214.924 148.203C220.637 148.203 225.074 143.94 225.074 137.879ZM207.471 137.879C207.471 132.92 210.661 129.846 214.924 129.846C219.187 129.846 222.377 132.92 222.377 137.879C222.377 142.809 219.187 145.912 214.924 145.912C210.661 145.912 207.471 142.809 207.471 137.879ZM227.311 129.933H232.85V148H235.489V129.933H240.999V127.787H227.311V129.933ZM246.886 137.386V129.962H250.772C253.788 129.962 255.064 131.354 255.064 133.703C255.064 135.965 253.788 137.386 250.772 137.386H246.886ZM257.761 133.703C257.761 130.397 255.528 127.787 250.772 127.787H244.247V148H246.886V139.561H250.772C255.789 139.561 257.761 136.777 257.761 133.703Z" fill="#D3D3D3"/>
<path opacity="0.57" d="M91.426 168.228H86.176V178H91.426V176.95H87.45V173.59H91.006V172.54H87.45V169.278H91.426V168.228ZM98.9678 178H100.228V173.478C100.228 171.28 98.8698 170.188 97.0918 170.188C96.0558 170.188 95.1318 170.622 94.6278 171.42V170.328H93.3538V178H94.6278V173.758C94.6278 172.106 95.5238 171.294 96.8258 171.294C98.1138 171.294 98.9678 172.092 98.9678 173.66V178ZM102.589 175.9C102.589 177.44 103.359 178 104.717 178H105.865V176.922H104.927C104.143 176.922 103.863 176.656 103.863 175.9V171.378H105.865V170.328H103.863V168.396H102.589V170.328H101.595V171.378H102.589V175.9ZM110.67 171.28C111.986 171.28 113.106 172.106 113.092 173.604H108.248C108.388 172.106 109.424 171.28 110.67 171.28ZM114.254 175.634H112.882C112.602 176.46 111.874 177.048 110.726 177.048C109.424 177.048 108.332 176.194 108.234 174.64H114.366C114.394 174.374 114.408 174.15 114.408 173.87C114.408 171.77 112.952 170.202 110.726 170.202C108.486 170.202 106.932 171.728 106.932 174.15C106.932 176.586 108.542 178.126 110.726 178.126C112.63 178.126 113.862 177.034 114.254 175.634ZM117.364 173.828C117.364 172.05 118.288 171.504 119.506 171.504H119.842V170.188C118.624 170.188 117.798 170.72 117.364 171.574V170.328H116.09V178H117.364V173.828ZM125.325 175.9C125.325 177.44 126.095 178 127.453 178H128.601V176.922H127.663C126.879 176.922 126.599 176.656 126.599 175.9V171.378H128.601V170.328H126.599V168.396H125.325V170.328H124.331V171.378H125.325V175.9ZM130.145 178H131.419V173.758C131.419 172.106 132.315 171.294 133.617 171.294C134.905 171.294 135.759 172.092 135.759 173.66V178H137.019V173.478C137.019 171.28 135.661 170.188 133.953 170.188C132.875 170.188 131.923 170.622 131.419 171.434V167.64H130.145V178ZM142.362 171.28C143.678 171.28 144.798 172.106 144.784 173.604H139.94C140.08 172.106 141.116 171.28 142.362 171.28ZM145.946 175.634H144.574C144.294 176.46 143.566 177.048 142.418 177.048C141.116 177.048 140.024 176.194 139.926 174.64H146.058C146.086 174.374 146.1 174.15 146.1 173.87C146.1 171.77 144.644 170.202 142.418 170.202C140.178 170.202 138.624 171.728 138.624 174.15C138.624 176.586 140.234 178.126 142.418 178.126C144.322 178.126 145.554 177.034 145.946 175.634ZM156.176 178H157.436V175.746H158.836V174.64H157.436V167.976H155.91L150.996 174.78V175.746H156.176V178ZM152.466 174.64L156.232 169.306V174.64H152.466ZM163.575 174.136C163.575 176.516 165.157 178.126 167.215 178.126C168.615 178.126 169.609 177.412 170.071 176.558V178H171.359V167.64H170.071V171.7C169.539 170.818 168.433 170.202 167.229 170.202C165.157 170.202 163.575 171.742 163.575 174.136ZM170.071 174.15C170.071 175.956 168.867 177.006 167.467 177.006C166.067 177.006 164.877 175.942 164.877 174.136C164.877 172.33 166.067 171.308 167.467 171.308C168.867 171.308 170.071 172.372 170.071 174.15ZM173.512 178H174.786V170.328H173.512V178ZM174.17 169.082C174.632 169.082 175.01 168.704 175.01 168.214C175.01 167.724 174.632 167.346 174.17 167.346C173.68 167.346 173.302 167.724 173.302 168.214C173.302 168.704 173.68 169.082 174.17 169.082ZM176.481 174.136C176.481 176.516 178.063 178.126 180.121 178.126C181.521 178.126 182.515 177.384 182.977 176.558V178.168C182.977 179.806 181.955 180.674 180.597 180.674C179.337 180.674 178.427 180.044 178.147 179.12H176.887C177.139 180.758 178.581 181.78 180.597 181.78C182.851 181.78 184.265 180.282 184.265 178.168V170.328H182.977V171.728C182.529 170.902 181.521 170.202 180.121 170.202C178.063 170.202 176.481 171.742 176.481 174.136ZM182.977 174.15C182.977 175.956 181.773 177.006 180.373 177.006C178.973 177.006 177.783 175.942 177.783 174.136C177.783 172.33 178.973 171.308 180.373 171.308C181.773 171.308 182.977 172.372 182.977 174.15ZM186.418 178H187.692V170.328H186.418V178ZM187.076 169.082C187.538 169.082 187.916 168.704 187.916 168.214C187.916 167.724 187.538 167.346 187.076 167.346C186.586 167.346 186.208 167.724 186.208 168.214C186.208 168.704 186.586 169.082 187.076 169.082ZM190.144 175.9C190.144 177.44 190.914 178 192.272 178H193.42V176.922H192.482C191.698 176.922 191.418 176.656 191.418 175.9V171.378H193.42V170.328H191.418V168.396H190.144V170.328H189.15V171.378H190.144V175.9ZM197.786 170.328L200.796 178H202.28L205.29 170.328H203.932L201.552 176.824L199.158 170.328H197.786ZM209.805 171.28C211.121 171.28 212.241 172.106 212.227 173.604H207.383C207.523 172.106 208.559 171.28 209.805 171.28ZM213.389 175.634H212.017C211.737 176.46 211.009 177.048 209.861 177.048C208.559 177.048 207.467 176.194 207.369 174.64H213.501C213.529 174.374 213.543 174.15 213.543 173.87C213.543 171.77 212.087 170.202 209.861 170.202C207.621 170.202 206.067 171.728 206.067 174.15C206.067 176.586 207.677 178.126 209.861 178.126C211.765 178.126 212.997 177.034 213.389 175.634ZM216.499 173.828C216.499 172.05 217.423 171.504 218.641 171.504H218.977V170.188C217.759 170.188 216.933 170.72 216.499 171.574V170.328H215.225V178H216.499V173.828ZM220.448 178H221.722V170.328H220.448V178ZM221.106 169.082C221.568 169.082 221.946 168.704 221.946 168.214C221.946 167.724 221.568 167.346 221.106 167.346C220.616 167.346 220.238 167.724 220.238 168.214C220.238 168.704 220.616 169.082 221.106 169.082ZM224.131 178H225.405V171.378H227.015V170.328H225.405V169.782C225.405 168.788 225.783 168.368 226.931 168.368V167.304C224.971 167.304 224.131 168.074 224.131 169.782V170.328H223.137V171.378H224.131V178ZM228.5 178H229.774V170.328H228.5V178ZM229.158 169.082C229.62 169.082 229.998 168.704 229.998 168.214C229.998 167.724 229.62 167.346 229.158 167.346C228.668 167.346 228.29 167.724 228.29 168.214C228.29 168.704 228.668 169.082 229.158 169.082ZM231.47 174.15C231.47 176.586 233.024 178.126 235.208 178.126C237.112 178.126 238.358 177.062 238.75 175.536H237.378C237.098 176.502 236.342 177.048 235.208 177.048C233.808 177.048 232.772 176.054 232.772 174.15C232.772 172.274 233.808 171.28 235.208 171.28C236.342 171.28 237.112 171.868 237.378 172.792H238.75C238.358 171.182 237.112 170.202 235.208 170.202C233.024 170.202 231.47 171.742 231.47 174.15ZM239.973 174.136C239.973 176.516 241.555 178.126 243.599 178.126C245.013 178.126 246.007 177.398 246.469 176.572V178H247.757V170.328H246.469V171.728C246.021 170.93 245.041 170.202 243.613 170.202C241.555 170.202 239.973 171.742 239.973 174.136ZM246.469 174.15C246.469 175.956 245.265 177.006 243.865 177.006C242.465 177.006 241.275 175.942 241.275 174.136C241.275 172.33 242.465 171.308 243.865 171.308C245.265 171.308 246.469 172.372 246.469 174.15ZM250.19 175.9C250.19 177.44 250.96 178 252.318 178H253.466V176.922H252.528C251.744 176.922 251.464 176.656 251.464 175.9V171.378H253.466V170.328H251.464V168.396H250.19V170.328H249.196V171.378H250.19V175.9ZM255.01 178H256.284V170.328H255.01V178ZM255.668 169.082C256.13 169.082 256.508 168.704 256.508 168.214C256.508 167.724 256.13 167.346 255.668 167.346C255.178 167.346 254.8 167.724 254.8 168.214C254.8 168.704 255.178 169.082 255.668 169.082ZM265.735 174.15C265.735 171.728 264.041 170.202 261.857 170.202C259.687 170.202 257.979 171.728 257.979 174.15C257.979 176.586 259.631 178.126 261.801 178.126C263.985 178.126 265.735 176.586 265.735 174.15ZM259.281 174.15C259.281 172.218 260.499 171.308 261.843 171.308C263.159 171.308 264.433 172.218 264.433 174.15C264.433 176.096 263.131 177.006 261.801 177.006C260.471 177.006 259.281 176.096 259.281 174.15ZM273.024 178H274.284V173.478C274.284 171.28 272.926 170.188 271.148 170.188C270.112 170.188 269.188 170.622 268.684 171.42V170.328H267.41V178H268.684V173.758C268.684 172.106 269.58 171.294 270.882 171.294C272.17 171.294 273.024 172.092 273.024 173.66V178ZM279.622 174.15C279.622 176.586 281.176 178.126 283.36 178.126C285.264 178.126 286.51 177.062 286.902 175.536H285.53C285.25 176.502 284.494 177.048 283.36 177.048C281.96 177.048 280.924 176.054 280.924 174.15C280.924 172.274 281.96 171.28 283.36 171.28C284.494 171.28 285.264 171.868 285.53 172.792H286.902C286.51 171.182 285.264 170.202 283.36 170.202C281.176 170.202 279.622 171.742 279.622 174.15ZM295.882 174.15C295.882 171.728 294.188 170.202 292.004 170.202C289.834 170.202 288.126 171.728 288.126 174.15C288.126 176.586 289.778 178.126 291.948 178.126C294.132 178.126 295.882 176.586 295.882 174.15ZM289.428 174.15C289.428 172.218 290.646 171.308 291.99 171.308C293.306 171.308 294.58 172.218 294.58 174.15C294.58 176.096 293.278 177.006 291.948 177.006C290.618 177.006 289.428 176.096 289.428 174.15ZM297.081 174.136C297.081 176.516 298.663 178.126 300.721 178.126C302.121 178.126 303.115 177.412 303.577 176.558V178H304.865V167.64H303.577V171.7C303.045 170.818 301.939 170.202 300.735 170.202C298.663 170.202 297.081 171.742 297.081 174.136ZM303.577 174.15C303.577 175.956 302.373 177.006 300.973 177.006C299.573 177.006 298.383 175.942 298.383 174.136C298.383 172.33 299.573 171.308 300.973 171.308C302.373 171.308 303.577 172.372 303.577 174.15ZM310.28 171.28C311.596 171.28 312.716 172.106 312.702 173.604H307.858C307.998 172.106 309.034 171.28 310.28 171.28ZM313.864 175.634H312.492C312.212 176.46 311.484 177.048 310.336 177.048C309.034 177.048 307.942 176.194 307.844 174.64H313.976C314.004 174.374 314.018 174.15 314.018 173.87C314.018 171.77 312.562 170.202 310.336 170.202C308.096 170.202 306.542 171.728 306.542 174.15C306.542 176.586 308.152 178.126 310.336 178.126C312.24 178.126 313.472 177.034 313.864 175.634Z" fill="#A9A9A9"/>
<g filter="url(#filter0_d_955_300)">
<path d="M93 237H30C27.2386 237 25 239.239 25 242V305C25 307.761 27.2386 310 30 310H93C95.7614 310 98 307.761 98 305V242C98 239.239 95.7614 237 93 237Z" fill="#D3D3D3"/>
</g>
<g filter="url(#filter1_d_955_300)">
<path d="M178 237H115C112.239 237 110 239.239 110 242V305C110 307.761 112.239 310 115 310H178C180.761 310 183 307.761 183 305V242C183 239.239 180.761 237 178 237Z" fill="#D3D3D3"/>
</g>
<g filter="url(#filter2_d_955_300)">
<path d="M263 237H200C197.239 237 195 239.239 195 242V305C195 307.761 197.239 310 200 310H263C265.761 310 268 307.761 268 305V242C268 239.239 265.761 237 263 237Z" fill="white"/>
</g>
<g filter="url(#filter3_d_955_300)">
<path d="M348 237H285C282.239 237 280 239.239 280 242V305C280 307.761 282.239 310 285 310H348C350.761 310 353 307.761 353 305V242C353 239.239 350.761 237 348 237Z" fill="white"/>
</g>
<path opacity="0.57" d="M171.757 217.834C171.757 220.774 172.485 223 175.285 223C178.071 223 178.799 220.774 178.799 217.834C178.799 214.936 178.071 212.724 175.285 212.724C172.485 212.724 171.757 214.936 171.757 217.834ZM177.539 217.834C177.539 220.018 177.273 221.838 175.285 221.838C173.283 221.838 173.017 220.018 173.017 217.834C173.017 215.734 173.283 213.886 175.285 213.886C177.273 213.886 177.539 215.734 177.539 217.834ZM181.556 223H182.844V212.878H180.212V214.04H181.556V223ZM186.488 222.216C186.488 221.726 186.11 221.348 185.648 221.348C185.158 221.348 184.78 221.726 184.78 222.216C184.78 222.706 185.158 223.084 185.648 223.084C186.11 223.084 186.488 222.706 186.488 222.216ZM186.488 216.224C186.488 215.734 186.11 215.356 185.648 215.356C185.158 215.356 184.78 215.734 184.78 216.224C184.78 216.714 185.158 217.092 185.648 217.092C186.11 217.092 186.488 216.714 186.488 216.224ZM188.377 212.864V218.576H189.581C189.917 217.778 190.659 217.246 191.681 217.246C193.151 217.246 193.893 218.086 193.893 219.528C193.893 220.914 193.207 221.95 191.667 221.95C190.477 221.95 189.651 221.32 189.413 220.256H188.167C188.419 221.894 189.637 223.028 191.653 223.028C194.019 223.028 195.111 221.46 195.111 219.5C195.111 217.932 194.327 216.154 191.863 216.154C190.869 216.154 189.973 216.602 189.553 217.176V213.984H194.467V212.864H188.377ZM203.622 215.286C203.454 213.872 202.474 212.668 200.542 212.668C197.98 212.668 196.958 214.628 196.958 217.806C196.958 220.872 197.672 223.028 200.668 223.028C202.88 223.028 203.972 221.516 203.972 219.668C203.972 217.54 202.698 216.294 200.808 216.294C199.604 216.294 198.498 216.854 198.064 217.848C198.05 214.838 198.918 213.732 200.528 213.732C201.676 213.732 202.25 214.306 202.446 215.286H203.622ZM200.542 217.372C201.998 217.372 202.74 218.282 202.74 219.71C202.74 221.082 201.914 221.964 200.598 221.964C199.002 221.964 198.218 220.914 198.218 219.57C198.218 218.058 199.38 217.372 200.542 217.372Z" fill="#D3D3D3"/>
<g filter="url(#filter4_d_955_300)">
<path d="M325 370.004H50C42.8203 370.004 37 375.824 37 383.004V409.004C37 416.184 42.8203 422.004 50 422.004H325C332.18 422.004 338 416.184 338 409.004V383.004C338 375.824 332.18 370.004 325 370.004Z" fill="#D3D3D3"/>
</g>
<path d="M162.057 393.251C160.88 393.251 159.95 393.645 159.267 394.431C158.588 395.212 158.249 396.284 158.249 397.646C158.249 399.047 158.576 400.131 159.23 400.898C159.889 401.66 160.827 402.041 162.042 402.041C162.79 402.041 163.642 401.906 164.599 401.638V402.729C163.856 403.007 162.941 403.146 161.852 403.146C160.275 403.146 159.057 402.668 158.197 401.711C157.343 400.754 156.916 399.394 156.916 397.631C156.916 396.528 157.121 395.561 157.531 394.731C157.946 393.901 158.542 393.261 159.318 392.812C160.099 392.363 161.017 392.138 162.072 392.138C163.195 392.138 164.176 392.343 165.016 392.753L164.489 393.823C163.678 393.442 162.868 393.251 162.057 393.251ZM173.681 398.979C173.681 400.288 173.351 401.311 172.692 402.048C172.033 402.78 171.122 403.146 169.96 403.146C169.242 403.146 168.605 402.978 168.048 402.641C167.492 402.304 167.062 401.821 166.759 401.191C166.457 400.561 166.305 399.824 166.305 398.979C166.305 397.67 166.632 396.652 167.287 395.925C167.941 395.192 168.849 394.826 170.011 394.826C171.134 394.826 172.025 395.2 172.685 395.947C173.349 396.694 173.681 397.705 173.681 398.979ZM167.565 398.979C167.565 400.004 167.77 400.786 168.18 401.323C168.59 401.86 169.193 402.128 169.989 402.128C170.785 402.128 171.388 401.862 171.798 401.33C172.213 400.793 172.421 400.009 172.421 398.979C172.421 397.958 172.213 397.185 171.798 396.657C171.388 396.125 170.78 395.859 169.975 395.859C169.179 395.859 168.578 396.12 168.173 396.643C167.768 397.165 167.565 397.944 167.565 398.979ZM181.312 403V397.807C181.312 397.153 181.164 396.665 180.866 396.342C180.568 396.02 180.102 395.859 179.467 395.859C178.627 395.859 178.012 396.086 177.621 396.54C177.23 396.994 177.035 397.744 177.035 398.789V403H175.819V394.973H176.808L177.006 396.071H177.064C177.313 395.676 177.663 395.371 178.112 395.156C178.561 394.936 179.062 394.826 179.613 394.826C180.58 394.826 181.308 395.061 181.796 395.529C182.284 395.993 182.528 396.738 182.528 397.763V403H181.312ZM187.626 402.143C187.841 402.143 188.048 402.128 188.249 402.099C188.449 402.065 188.607 402.031 188.725 401.997V402.927C188.593 402.99 188.397 403.042 188.139 403.081C187.885 403.125 187.655 403.146 187.45 403.146C185.897 403.146 185.121 402.329 185.121 400.693V395.917H183.971V395.332L185.121 394.826L185.634 393.112H186.337V394.973H188.666V395.917H186.337V400.642C186.337 401.125 186.452 401.496 186.681 401.755C186.911 402.014 187.226 402.143 187.626 402.143ZM191.552 403H190.336V394.973H191.552V403ZM190.233 392.797C190.233 392.519 190.302 392.316 190.438 392.189C190.575 392.058 190.746 391.992 190.951 391.992C191.146 391.992 191.315 392.058 191.457 392.189C191.598 392.321 191.669 392.524 191.669 392.797C191.669 393.071 191.598 393.276 191.457 393.413C191.315 393.544 191.146 393.61 190.951 393.61C190.746 393.61 190.575 393.544 190.438 393.413C190.302 393.276 190.233 393.071 190.233 392.797ZM199.623 403V397.807C199.623 397.153 199.474 396.665 199.176 396.342C198.878 396.02 198.412 395.859 197.777 395.859C196.938 395.859 196.322 396.086 195.932 396.54C195.541 396.994 195.346 397.744 195.346 398.789V403H194.13V394.973H195.119L195.316 396.071H195.375C195.624 395.676 195.973 395.371 196.422 395.156C196.872 394.936 197.372 394.826 197.924 394.826C198.891 394.826 199.618 395.061 200.106 395.529C200.595 395.993 200.839 396.738 200.839 397.763V403H199.623ZM204.486 394.973V400.18C204.486 400.834 204.635 401.323 204.933 401.645C205.231 401.967 205.697 402.128 206.332 402.128C207.172 402.128 207.785 401.899 208.17 401.44C208.561 400.981 208.756 400.231 208.756 399.191V394.973H209.972V403H208.969L208.793 401.923H208.727C208.478 402.319 208.131 402.622 207.687 402.832C207.248 403.042 206.745 403.146 206.178 403.146C205.202 403.146 204.469 402.915 203.981 402.451C203.498 401.987 203.256 401.245 203.256 400.224V394.973H204.486ZM215.949 403.146C214.762 403.146 213.825 402.785 213.136 402.062C212.453 401.34 212.111 400.336 212.111 399.052C212.111 397.758 212.428 396.73 213.063 395.969C213.703 395.207 214.56 394.826 215.634 394.826C216.64 394.826 217.436 395.158 218.021 395.822C218.607 396.481 218.9 397.353 218.9 398.437V399.206H213.371C213.395 400.148 213.632 400.864 214.081 401.352C214.535 401.84 215.172 402.084 215.993 402.084C216.857 402.084 217.711 401.904 218.556 401.542V402.626C218.126 402.812 217.719 402.944 217.333 403.022C216.952 403.105 216.491 403.146 215.949 403.146ZM215.619 395.844C214.975 395.844 214.459 396.054 214.074 396.474C213.693 396.894 213.468 397.475 213.4 398.217H217.597C217.597 397.451 217.426 396.865 217.084 396.459C216.742 396.049 216.254 395.844 215.619 395.844Z" fill="white"/>
<path d="M54.806 284.331V282.33L64.985 268.236H68.146V282.04H71.046V284.331H68.146V289H65.536V284.331H54.806ZM65.652 270.991L57.851 282.04H65.652V270.991Z" fill="black"/>
<path d="M140.429 286.883C142.884 284.911 144.808 283.297 146.2 282.04C147.592 280.764 148.762 279.44 149.709 278.067C150.676 276.675 151.159 275.312 151.159 273.978C151.159 272.721 150.85 271.735 150.231 271.02C149.632 270.285 148.655 269.918 147.302 269.918C145.987 269.918 144.963 270.334 144.228 271.165C143.513 271.977 143.126 273.069 143.068 274.442H140.516C140.593 272.277 141.251 270.604 142.488 269.425C143.725 268.246 145.32 267.656 147.273 267.656C149.264 267.656 150.84 268.207 152 269.309C153.179 270.411 153.769 271.929 153.769 273.862C153.769 275.467 153.286 277.033 152.319 278.56C151.372 280.068 150.289 281.402 149.071 282.562C147.853 283.703 146.297 285.037 144.402 286.564H154.378V288.768H140.429V286.883Z" fill="black"/>
</g>
<defs>
<filter id="filter0_d_955_300" x="19" y="234" width="85" height="85" filterUnits="userSpaceOnUse" color-interpolation-filters="sRGB">
<feFlood flood-opacity="0" result="BackgroundImageFix"/>
<feColorMatrix in="SourceAlpha" type="matrix" values="0 0 0 0 0 0 0 0 0 0 0 0 0 0 0 0 0 0 127 0" result="hardAlpha"/>
<feOffset dy="3"/>
<feGaussianBlur stdDeviation="3"/>
<feColorMatrix type="matrix" values="0 0 0 0 0 0 0 0 0 0 0 0 0 0 0 0 0 0 0.161 0"/>
<feBlend mode="normal" in2="BackgroundImageFix" result="effect1_dropShadow_955_300"/>
<feBlend mode="normal" in="SourceGraphic" in2="effect1_dropShadow_955_300" result="shape"/>
</filter>
<filter id="filter1_d_955_300" x="104" y="234" width="85" height="85" filterUnits="userSpaceOnUse" color-interpolation-filters="sRGB">
<feFlood flood-opacity="0" result="BackgroundImageFix"/>
<feColorMatrix in="SourceAlpha" type="matrix" values="0 0 0 0 0 0 0 0 0 0 0 0 0 0 0 0 0 0 127 0" result="hardAlpha"/>
<feOffset dy="3"/>
<feGaussianBlur stdDeviation="3"/>
<feColorMatrix type="matrix" values="0 0 0 0 0 0 0 0 0 0 0 0 0 0 0 0 0 0 0.161 0"/>
<feBlend mode="normal" in2="BackgroundImageFix" result="effect1_dropShadow_955_300"/>
<feBlend mode="normal" in="SourceGraphic" in2="effect1_dropShadow_955_300" result="shape"/>
</filter>
<filter id="filter2_d_955_300" x="189" y="234" width="85" height="85" filterUnits="userSpaceOnUse" color-interpolation-filters="sRGB">
<feFlood flood-opacity="0" result="BackgroundImageFix"/>
<feColorMatrix in="SourceAlpha" type="matrix" values="0 0 0 0 0 0 0 0 0 0 0 0 0 0 0 0 0 0 127 0" result="hardAlpha"/>
<feOffset dy="3"/>
<feGaussianBlur stdDeviation="3"/>
<feColorMatrix type="matrix" values="0 0 0 0 0 0 0 0 0 0 0 0 0 0 0 0 0 0 0.161 0"/>
<feBlend mode="normal" in2="BackgroundImageFix" result="effect1_dropShadow_955_300"/>
<feBlend mode="normal" in="SourceGraphic" in2="effect1_dropShadow_955_300" result="shape"/>
</filter>
<filter id="filter3_d_955_300" x="274" y="234" width="85" height="85" filterUnits="userSpaceOnUse" color-interpolation-filters="sRGB">
<feFlood flood-opacity="0" result="BackgroundImageFix"/>
<feColorMatrix in="SourceAlpha" type="matrix" values="0 0 0 0 0 0 0 0 0 0 0 0 0 0 0 0 0 0 127 0" result="hardAlpha"/>
<feOffset dy="3"/>
<feGaussianBlur stdDeviation="3"/>
<feColorMatrix type="matrix" values="0 0 0 0 0 0 0 0 0 0 0 0 0 0 0 0 0 0 0.161 0"/>
<feBlend mode="normal" in2="BackgroundImageFix" result="effect1_dropShadow_955_300"/>
<feBlend mode="normal" in="SourceGraphic" in2="effect1_dropShadow_955_300" result="shape"/>
</filter>
<filter id="filter4_d_955_300" x="31" y="367.004" width="313" height="64" filterUnits="userSpaceOnUse" color-interpolation-filters="sRGB">
<feFlood flood-opacity="0" result="BackgroundImageFix"/>
<feColorMatrix in="SourceAlpha" type="matrix" values="0 0 0 0 0 0 0 0 0 0 0 0 0 0 0 0 0 0 127 0" result="hardAlpha"/>
<feOffset dy="3"/>
<feGaussianBlur stdDeviation="3"/>
<feColorMatrix type="matrix" values="0 0 0 0 0 0 0 0 0 0 0 0 0 0 0 0 0 0 0.161 0"/>
<feBlend mode="normal" in2="BackgroundImageFix" result="effect1_dropShadow_955_300"/>
<feBlend mode="normal" in="SourceGraphic" in2="effect1_dropShadow_955_300" result="shape"/>
</filter>
<clipPath id="clip0_955_300">
<rect width="375" height="812" fill="white"/>
</clipPath>
</defs>
</svg>
