<svg width="375" height="812" viewBox="0 0 375 812" fill="none" xmlns="http://www.w3.org/2000/svg">
<g clip-path="url(#clip0_938_180)">
<rect width="375" height="812" fill="#D3D3D3"/>
<path d="M375 0H0V812H375V0Z" fill="#D3D3D3"/>
<g filter="url(#filter0_d_938_180)">
<path d="M211 326H157C144.297 326 134 336.297 134 349V403C134 415.703 144.297 426 157 426H211C223.703 426 234 415.703 234 403V349C234 336.297 223.703 326 211 326Z" fill="#999595"/>
</g>
<g filter="url(#filter1_d_938_180)">
<path d="M196 326H157C144.297 326 134 336.297 134 349V388C134 400.703 144.297 411 157 411H196C208.703 411 219 400.703 219 388V349C219 336.297 208.703 326 196 326Z" fill="#C4C4C4"/>
</g>
<g filter="url(#filter2_d_938_180)">
<path d="M181 326H157C144.297 326 134 336.297 134 349V373C134 385.703 144.297 396 157 396H181C193.703 396 204 385.703 204 373V349C204 336.297 193.703 326 181 326Z" fill="#D3D3D3"/>
</g>
<g filter="url(#filter3_d_938_180)">
<path d="M166 326H157C144.297 326 134 336.297 134 349V358C134 370.703 144.297 381 157 381H166C178.703 381 189 370.703 189 358V349C189 336.297 178.703 326 166 326Z" fill="#F5F5F5"/>
</g>
</g>
<defs>
<filter id="filter0_d_938_180" x="128" y="323" width="112" height="112" filterUnits="userSpaceOnUse" color-interpolation-filters="sRGB">
<feFlood flood-opacity="0" result="BackgroundImageFix"/>
<feColorMatrix in="SourceAlpha" type="matrix" values="0 0 0 0 0 0 0 0 0 0 0 0 0 0 0 0 0 0 127 0" result="hardAlpha"/>
<feOffset dy="3"/>
<feGaussianBlur stdDeviation="3"/>
<feColorMatrix type="matrix" values="0 0 0 0 0 0 0 0 0 0 0 0 0 0 0 0 0 0 0.161 0"/>
<feBlend mode="normal" in2="BackgroundImageFix" result="effect1_dropShadow_938_180"/>
<feBlend mode="normal" in="SourceGraphic" in2="effect1_dropShadow_938_180" result="shape"/>
</filter>
<filter id="filter1_d_938_180" x="128" y="323" width="97" height="97" filterUnits="userSpaceOnUse" color-interpolation-filters="sRGB">
<feFlood flood-opacity="0" result="BackgroundImageFix"/>
<feColorMatrix in="SourceAlpha" type="matrix" values="0 0 0 0 0 0 0 0 0 0 0 0 0 0 0 0 0 0 127 0" result="hardAlpha"/>
<feOffset dy="3"/>
<feGaussianBlur stdDeviation="3"/>
<feColorMatrix type="matrix" values="0 0 0 0 0 0 0 0 0 0 0 0 0 0 0 0 0 0 0.161 0"/>
<feBlend mode="normal" in2="BackgroundImageFix" result="effect1_dropShadow_938_180"/>
<feBlend mode="normal" in="SourceGraphic" in2="effect1_dropShadow_938_180" result="shape"/>
</filter>
<filter id="filter2_d_938_180" x="128" y="323" width="82" height="82" filterUnits="userSpaceOnUse" color-interpolation-filters="sRGB">
<feFlood flood-opacity="0" result="BackgroundImageFix"/>
<feColorMatrix in="SourceAlpha" type="matrix" values="0 0 0 0 0 0 0 0 0 0 0 0 0 0 0 0 0 0 127 0" result="hardAlpha"/>
<feOffset dy="3"/>
<feGaussianBlur stdDeviation="3"/>
<feColorMatrix type="matrix" values="0 0 0 0 0 0 0 0 0 0 0 0 0 0 0 0 0 0 0.161 0"/>
<feBlend mode="normal" in2="BackgroundImageFix" result="effect1_dropShadow_938_180"/>
<feBlend mode="normal" in="SourceGraphic" in2="effect1_dropShadow_938_180" result="shape"/>
</filter>
<filter id="filter3_d_938_180" x="128" y="323" width="67" height="67" filterUnits="userSpaceOnUse" color-interpolation-filters="sRGB">
<feFlood flood-opacity="0" result="BackgroundImageFix"/>
<feColorMatrix in="SourceAlpha" type="matrix" values="0 0 0 0 0 0 0 0 0 0 0 0 0 0 0 0 0 0 127 0" result="hardAlpha"/>
<feOffset dy="3"/>
<feGaussianBlur stdDeviation="3"/>
<feColorMatrix type="matrix" values="0 0 0 0 0 0 0 0 0 0 0 0 0 0 0 0 0 0 0.161 0"/>
<feBlend mode="normal" in2="BackgroundImageFix" result="effect1_dropShadow_938_180"/>
<feBlend mode="normal" in="SourceGraphic" in2="effect1_dropShadow_938_180" result="shape"/>
</filter>
<clipPath id="clip0_938_180">
<rect width="375" height="812" fill="white"/>
</clipPath>
</defs>
</svg>
