<svg width="375" height="812" viewBox="0 0 375 812" fill="none" xmlns="http://www.w3.org/2000/svg">
<g clip-path="url(#clip0_957_429)">
<path d="M375 0H0V812H375V0Z" fill="white"/>
<g filter="url(#filter0_d_957_429)">
<path d="M325 638H50C42.8203 638 37 643.82 37 651V677C37 684.18 42.8203 690 50 690H325C332.18 690 338 684.18 338 677V651C338 643.82 332.18 638 325 638Z" fill="#D3D3D3"/>
</g>
<path d="M158.588 659.292H159.928L156.068 670H154.838L151 659.292H152.318L154.779 666.221C155.062 667.017 155.287 667.791 155.453 668.542C155.629 667.751 155.858 666.963 156.142 666.177L158.588 659.292ZM162.44 670H161.225V661.973H162.44V670ZM161.122 659.797C161.122 659.519 161.19 659.316 161.327 659.189C161.464 659.058 161.635 658.992 161.84 658.992C162.035 658.992 162.204 659.058 162.345 659.189C162.487 659.321 162.558 659.524 162.558 659.797C162.558 660.071 162.487 660.276 162.345 660.413C162.204 660.544 162.035 660.61 161.84 660.61C161.635 660.61 161.464 660.544 161.327 660.413C161.19 660.276 161.122 660.071 161.122 659.797ZM168.41 670.146C167.223 670.146 166.286 669.785 165.597 669.062C164.914 668.34 164.572 667.336 164.572 666.052C164.572 664.758 164.889 663.73 165.524 662.969C166.164 662.207 167.021 661.826 168.095 661.826C169.101 661.826 169.896 662.158 170.482 662.822C171.068 663.481 171.361 664.353 171.361 665.437V666.206H165.832C165.856 667.148 166.093 667.864 166.542 668.352C166.996 668.84 167.633 669.084 168.454 669.084C169.318 669.084 170.172 668.904 171.017 668.542V669.626C170.587 669.812 170.18 669.944 169.794 670.022C169.413 670.105 168.952 670.146 168.41 670.146ZM168.08 662.844C167.436 662.844 166.92 663.054 166.535 663.474C166.154 663.894 165.929 664.475 165.861 665.217H170.058C170.058 664.451 169.887 663.865 169.545 663.459C169.203 663.049 168.715 662.844 168.08 662.844ZM179.997 670L178.524 665.291C178.432 665.002 178.258 664.348 178.004 663.328H177.946C177.75 664.182 177.58 664.841 177.433 665.305L175.917 670H174.511L172.321 661.973H173.595C174.113 663.989 174.506 665.525 174.774 666.58C175.048 667.634 175.204 668.345 175.243 668.711H175.302C175.355 668.433 175.441 668.074 175.558 667.634C175.68 667.19 175.785 666.838 175.873 666.58L177.345 661.973H178.664L180.099 666.58C180.373 667.419 180.558 668.125 180.656 668.696H180.714C180.734 668.521 180.785 668.25 180.868 667.883C180.956 667.517 181.466 665.547 182.399 661.973H183.659L181.439 670H179.997ZM195.985 662.412C195.985 663.496 195.614 664.331 194.872 664.917C194.135 665.498 193.078 665.789 191.701 665.789H190.441V670H189.196V659.292H191.972C194.647 659.292 195.985 660.332 195.985 662.412ZM190.441 664.719H191.562C192.665 664.719 193.463 664.541 193.957 664.185C194.45 663.828 194.696 663.257 194.696 662.471C194.696 661.763 194.464 661.235 194 660.889C193.537 660.542 192.814 660.369 191.833 660.369H190.441V664.719ZM201.713 661.826C202.069 661.826 202.389 661.855 202.672 661.914L202.504 663.042C202.172 662.969 201.879 662.932 201.625 662.932C200.976 662.932 200.419 663.196 199.955 663.723C199.496 664.25 199.267 664.907 199.267 665.693V670H198.051V661.973H199.054L199.193 663.459H199.252C199.55 662.937 199.909 662.534 200.329 662.251C200.749 661.968 201.21 661.826 201.713 661.826ZM211.103 665.979C211.103 667.288 210.773 668.311 210.114 669.048C209.455 669.78 208.544 670.146 207.382 670.146C206.664 670.146 206.027 669.978 205.47 669.641C204.914 669.304 204.484 668.821 204.181 668.191C203.878 667.561 203.727 666.824 203.727 665.979C203.727 664.67 204.054 663.652 204.708 662.925C205.363 662.192 206.271 661.826 207.433 661.826C208.556 661.826 209.447 662.2 210.106 662.947C210.771 663.694 211.103 664.705 211.103 665.979ZM204.987 665.979C204.987 667.004 205.192 667.786 205.602 668.323C206.012 668.86 206.615 669.128 207.411 669.128C208.207 669.128 208.81 668.862 209.22 668.33C209.635 667.793 209.843 667.009 209.843 665.979C209.843 664.958 209.635 664.185 209.22 663.657C208.81 663.125 208.202 662.859 207.396 662.859C206.601 662.859 206 663.12 205.595 663.643C205.189 664.165 204.987 664.944 204.987 665.979ZM216.859 662.917H214.816V670H213.6V662.917H212.165V662.368L213.6 661.929V661.482C213.6 659.509 214.462 658.523 216.186 658.523C216.61 658.523 217.108 658.608 217.68 658.779L217.365 659.753C216.896 659.602 216.496 659.526 216.164 659.526C215.705 659.526 215.365 659.68 215.146 659.988C214.926 660.291 214.816 660.779 214.816 661.453V661.973H216.859V662.917ZM219.54 670H218.324V661.973H219.54V670ZM218.222 659.797C218.222 659.519 218.29 659.316 218.427 659.189C218.563 659.058 218.734 658.992 218.939 658.992C219.135 658.992 219.303 659.058 219.445 659.189C219.586 659.321 219.657 659.524 219.657 659.797C219.657 660.071 219.586 660.276 219.445 660.413C219.303 660.544 219.135 660.61 218.939 660.61C218.734 660.61 218.563 660.544 218.427 660.413C218.29 660.276 218.222 660.071 218.222 659.797ZM223.334 670H222.118V658.604H223.334V670ZM229.303 670.146C228.117 670.146 227.179 669.785 226.491 669.062C225.807 668.34 225.465 667.336 225.465 666.052C225.465 664.758 225.783 663.73 226.417 662.969C227.057 662.207 227.914 661.826 228.988 661.826C229.994 661.826 230.79 662.158 231.376 662.822C231.962 663.481 232.255 664.353 232.255 665.437V666.206H226.725C226.75 667.148 226.986 667.864 227.436 668.352C227.89 668.84 228.527 669.084 229.347 669.084C230.211 669.084 231.066 668.904 231.911 668.542V669.626C231.481 669.812 231.073 669.944 230.688 670.022C230.307 670.105 229.845 670.146 229.303 670.146ZM228.974 662.844C228.329 662.844 227.814 663.054 227.428 663.474C227.047 663.894 226.823 664.475 226.754 665.217H230.951C230.951 664.451 230.78 663.865 230.438 663.459C230.097 663.049 229.608 662.844 228.974 662.844Z" fill="white"/>
<g filter="url(#filter1_d_957_429)">
<path d="M325 707.5H50C43.0964 707.5 37.5 713.096 37.5 720V746C37.5 752.904 43.0964 758.5 50 758.5H325C331.904 758.5 337.5 752.904 337.5 746V720C337.5 713.096 331.904 707.5 325 707.5Z" stroke="#D3D3D3"/>
</g>
<path d="M126.042 730.237C125.452 730.237 124.919 730.339 124.446 730.544C123.977 730.745 123.577 731.038 123.245 731.423C122.917 731.804 122.666 732.266 122.49 732.808C122.314 733.35 122.227 733.96 122.227 734.639C122.227 735.537 122.366 736.318 122.644 736.982C122.927 737.642 123.347 738.152 123.904 738.513C124.465 738.875 125.166 739.055 126.006 739.055C126.484 739.055 126.934 739.016 127.354 738.938C127.778 738.855 128.191 738.752 128.591 738.63V739.714C128.201 739.861 127.791 739.968 127.361 740.037C126.931 740.11 126.421 740.146 125.83 740.146C124.741 740.146 123.831 739.922 123.098 739.473C122.371 739.019 121.824 738.379 121.458 737.554C121.096 736.729 120.916 735.754 120.916 734.631C120.916 733.821 121.028 733.081 121.252 732.412C121.482 731.738 121.814 731.157 122.249 730.669C122.688 730.181 123.225 729.805 123.86 729.541C124.5 729.272 125.232 729.138 126.057 729.138C126.599 729.138 127.122 729.192 127.625 729.299C128.127 729.407 128.582 729.561 128.987 729.761L128.489 730.815C128.147 730.659 127.771 730.525 127.361 730.413C126.956 730.295 126.516 730.237 126.042 730.237ZM137.651 735.972C137.651 736.631 137.566 737.219 137.395 737.737C137.224 738.254 136.978 738.691 136.655 739.048C136.333 739.404 135.942 739.678 135.483 739.868C135.029 740.054 134.514 740.146 133.938 740.146C133.401 740.146 132.908 740.054 132.458 739.868C132.014 739.678 131.628 739.404 131.301 739.048C130.979 738.691 130.728 738.254 130.547 737.737C130.371 737.219 130.283 736.631 130.283 735.972C130.283 735.093 130.432 734.346 130.73 733.73C131.028 733.11 131.453 732.639 132.004 732.317C132.561 731.99 133.223 731.826 133.989 731.826C134.722 731.826 135.361 731.99 135.908 732.317C136.46 732.644 136.887 733.118 137.19 733.738C137.498 734.353 137.651 735.098 137.651 735.972ZM131.543 735.972C131.543 736.616 131.628 737.175 131.799 737.649C131.97 738.123 132.234 738.489 132.59 738.748C132.947 739.006 133.406 739.136 133.967 739.136C134.524 739.136 134.98 739.006 135.337 738.748C135.698 738.489 135.964 738.123 136.135 737.649C136.306 737.175 136.392 736.616 136.392 735.972C136.392 735.332 136.306 734.78 136.135 734.316C135.964 733.848 135.701 733.486 135.344 733.232C134.988 732.979 134.526 732.852 133.96 732.852C133.125 732.852 132.512 733.127 132.122 733.679C131.736 734.231 131.543 734.995 131.543 735.972ZM143.555 731.826C144.507 731.826 145.227 732.061 145.715 732.529C146.204 732.993 146.448 733.74 146.448 734.771V740H145.247V734.851C145.247 734.182 145.093 733.682 144.785 733.35C144.482 733.018 144.016 732.852 143.386 732.852C142.498 732.852 141.873 733.103 141.511 733.606C141.15 734.109 140.969 734.839 140.969 735.796V740H139.753V731.973H140.735L140.918 733.13H140.984C141.155 732.847 141.372 732.61 141.636 732.419C141.899 732.224 142.195 732.078 142.522 731.98C142.849 731.877 143.193 731.826 143.555 731.826ZM151.545 739.15C151.746 739.15 151.951 739.133 152.161 739.099C152.371 739.065 152.542 739.023 152.673 738.975V739.919C152.532 739.983 152.334 740.037 152.08 740.081C151.831 740.125 151.587 740.146 151.348 740.146C150.923 740.146 150.537 740.073 150.19 739.927C149.844 739.775 149.565 739.521 149.355 739.165C149.15 738.809 149.048 738.315 149.048 737.686V732.925H147.905V732.332L149.055 731.855L149.539 730.112H150.271V731.973H152.622V732.925H150.271V737.649C150.271 738.152 150.386 738.528 150.615 738.777C150.85 739.026 151.16 739.15 151.545 739.15ZM155.515 731.973V740H154.299V731.973H155.515ZM154.922 728.97C155.122 728.97 155.293 729.036 155.435 729.167C155.581 729.294 155.654 729.495 155.654 729.768C155.654 730.037 155.581 730.237 155.435 730.369C155.293 730.5 155.122 730.566 154.922 730.566C154.712 730.566 154.536 730.5 154.395 730.369C154.258 730.237 154.189 730.037 154.189 729.768C154.189 729.495 154.258 729.294 154.395 729.167C154.536 729.036 154.712 728.97 154.922 728.97ZM161.895 731.826C162.847 731.826 163.567 732.061 164.055 732.529C164.543 732.993 164.788 733.74 164.788 734.771V740H163.586V734.851C163.586 734.182 163.433 733.682 163.125 733.35C162.822 733.018 162.356 732.852 161.726 732.852C160.837 732.852 160.212 733.103 159.851 733.606C159.49 734.109 159.309 734.839 159.309 735.796V740H158.093V731.973H159.075L159.258 733.13H159.324C159.495 732.847 159.712 732.61 159.976 732.419C160.239 732.224 160.535 732.078 160.862 731.98C161.189 731.877 161.533 731.826 161.895 731.826ZM173.921 731.973V740H172.925L172.749 738.872H172.683C172.517 739.15 172.302 739.385 172.039 739.575C171.775 739.766 171.477 739.907 171.145 740C170.818 740.098 170.469 740.146 170.098 740.146C169.463 740.146 168.931 740.044 168.501 739.839C168.071 739.634 167.747 739.316 167.527 738.887C167.312 738.457 167.205 737.905 167.205 737.231V731.973H168.435V737.144C168.435 737.812 168.586 738.313 168.889 738.645C169.192 738.972 169.653 739.136 170.273 739.136C170.869 739.136 171.343 739.023 171.694 738.799C172.051 738.574 172.307 738.245 172.463 737.81C172.62 737.371 172.698 736.833 172.698 736.199V731.973H173.921ZM179.583 731.826C180.266 731.826 180.852 731.978 181.34 732.28C181.829 732.583 182.202 733.008 182.461 733.555C182.72 734.097 182.849 734.731 182.849 735.459V736.213H177.305C177.319 737.156 177.554 737.874 178.008 738.367C178.462 738.86 179.102 739.106 179.927 739.106C180.435 739.106 180.884 739.06 181.274 738.967C181.665 738.875 182.07 738.738 182.49 738.557V739.626C182.085 739.807 181.682 739.939 181.282 740.022C180.886 740.105 180.417 740.146 179.875 740.146C179.104 740.146 178.43 739.99 177.854 739.678C177.283 739.36 176.838 738.896 176.521 738.286C176.204 737.676 176.045 736.929 176.045 736.045C176.045 735.181 176.189 734.434 176.477 733.804C176.77 733.169 177.18 732.681 177.708 732.339C178.24 731.997 178.865 731.826 179.583 731.826ZM179.568 732.822C178.918 732.822 178.401 733.035 178.015 733.459C177.629 733.884 177.4 734.478 177.327 735.239H181.575C181.57 734.761 181.494 734.341 181.348 733.979C181.206 733.613 180.989 733.33 180.696 733.13C180.403 732.925 180.027 732.822 179.568 732.822ZM195.037 737.151C195.037 737.786 194.878 738.328 194.561 738.777C194.248 739.221 193.809 739.561 193.242 739.795C192.676 740.029 192.009 740.146 191.243 740.146C190.837 740.146 190.454 740.127 190.093 740.088C189.731 740.049 189.399 739.993 189.097 739.919C188.794 739.846 188.528 739.756 188.298 739.648V738.455C188.665 738.606 189.111 738.748 189.639 738.879C190.166 739.006 190.718 739.07 191.294 739.07C191.831 739.07 192.285 738.999 192.656 738.857C193.027 738.711 193.308 738.503 193.499 738.235C193.694 737.961 193.792 737.634 193.792 737.253C193.792 736.887 193.711 736.582 193.55 736.338C193.389 736.089 193.12 735.864 192.744 735.664C192.373 735.459 191.865 735.242 191.221 735.012C190.767 734.851 190.366 734.675 190.02 734.485C189.673 734.29 189.382 734.07 189.148 733.826C188.914 733.582 188.735 733.298 188.613 732.976C188.496 732.654 188.438 732.285 188.438 731.87C188.438 731.299 188.582 730.811 188.87 730.405C189.163 729.995 189.565 729.683 190.078 729.468C190.596 729.248 191.189 729.138 191.858 729.138C192.429 729.138 192.957 729.192 193.44 729.299C193.928 729.407 194.375 729.551 194.78 729.731L194.392 730.801C194.006 730.64 193.596 730.505 193.162 730.398C192.732 730.291 192.288 730.237 191.829 730.237C191.37 730.237 190.981 730.305 190.664 730.442C190.352 730.574 190.112 730.762 189.946 731.006C189.78 731.25 189.697 731.541 189.697 731.877C189.697 732.253 189.775 732.566 189.932 732.815C190.093 733.064 190.347 733.286 190.693 733.481C191.045 733.672 191.509 733.872 192.085 734.082C192.715 734.312 193.25 734.556 193.689 734.814C194.128 735.068 194.463 735.381 194.692 735.752C194.922 736.118 195.037 736.584 195.037 737.151ZM200.134 731.826C200.818 731.826 201.404 731.978 201.892 732.28C202.38 732.583 202.754 733.008 203.013 733.555C203.271 734.097 203.401 734.731 203.401 735.459V736.213H197.856C197.871 737.156 198.105 737.874 198.56 738.367C199.014 738.86 199.653 739.106 200.479 739.106C200.986 739.106 201.436 739.06 201.826 738.967C202.217 738.875 202.622 738.738 203.042 738.557V739.626C202.637 739.807 202.234 739.939 201.833 740.022C201.438 740.105 200.969 740.146 200.427 740.146C199.656 740.146 198.982 739.99 198.406 739.678C197.834 739.36 197.39 738.896 197.073 738.286C196.755 737.676 196.597 736.929 196.597 736.045C196.597 735.181 196.741 734.434 197.029 733.804C197.322 733.169 197.732 732.681 198.259 732.339C198.792 731.997 199.417 731.826 200.134 731.826ZM200.12 732.822C199.47 732.822 198.953 733.035 198.567 733.459C198.181 733.884 197.952 734.478 197.878 735.239H202.126C202.122 734.761 202.046 734.341 201.899 733.979C201.758 733.613 201.541 733.33 201.248 733.13C200.955 732.925 200.579 732.822 200.12 732.822ZM208.469 731.841C209.426 731.841 210.137 732.056 210.601 732.485C211.064 732.915 211.296 733.601 211.296 734.543V740H210.41L210.176 738.813H210.117C209.893 739.106 209.658 739.353 209.414 739.553C209.17 739.749 208.887 739.897 208.564 740C208.247 740.098 207.856 740.146 207.393 740.146C206.904 740.146 206.47 740.061 206.089 739.89C205.713 739.719 205.415 739.46 205.195 739.114C204.98 738.767 204.873 738.328 204.873 737.795C204.873 736.995 205.19 736.379 205.825 735.95C206.46 735.52 207.427 735.286 208.726 735.247L210.11 735.188V734.697C210.11 734.004 209.961 733.518 209.663 733.24C209.365 732.961 208.945 732.822 208.403 732.822C207.983 732.822 207.583 732.883 207.202 733.005C206.821 733.127 206.46 733.271 206.118 733.438L205.745 732.515C206.106 732.329 206.521 732.17 206.99 732.039C207.458 731.907 207.952 731.841 208.469 731.841ZM210.095 736.045L208.872 736.096C207.871 736.135 207.166 736.299 206.755 736.587C206.345 736.875 206.14 737.283 206.14 737.81C206.14 738.269 206.279 738.608 206.558 738.828C206.836 739.048 207.205 739.158 207.664 739.158C208.376 739.158 208.96 738.96 209.414 738.564C209.868 738.169 210.095 737.576 210.095 736.785V736.045ZM217.449 731.826C217.61 731.826 217.778 731.836 217.954 731.855C218.13 731.87 218.286 731.892 218.423 731.921L218.269 733.049C218.137 733.015 217.991 732.988 217.83 732.969C217.668 732.949 217.517 732.939 217.375 732.939C217.053 732.939 216.748 733.005 216.46 733.137C216.177 733.264 215.928 733.45 215.713 733.694C215.498 733.933 215.33 734.224 215.208 734.565C215.085 734.902 215.024 735.278 215.024 735.693V740H213.801V731.973H214.812L214.944 733.452H214.995C215.161 733.154 215.361 732.883 215.596 732.639C215.83 732.39 216.101 732.192 216.409 732.046C216.721 731.899 217.068 731.826 217.449 731.826ZM223.154 740.146C222.432 740.146 221.794 739.998 221.243 739.7C220.691 739.402 220.261 738.948 219.954 738.337C219.646 737.727 219.492 736.958 219.492 736.03C219.492 735.059 219.653 734.265 219.976 733.65C220.303 733.03 220.752 732.571 221.323 732.273C221.895 731.975 222.544 731.826 223.271 731.826C223.672 731.826 224.058 731.868 224.429 731.951C224.805 732.029 225.112 732.129 225.352 732.251L224.985 733.269C224.741 733.171 224.458 733.083 224.136 733.005C223.818 732.927 223.521 732.888 223.242 732.888C222.686 732.888 222.222 733.008 221.851 733.247C221.484 733.486 221.208 733.838 221.023 734.302C220.842 734.766 220.752 735.337 220.752 736.016C220.752 736.665 220.84 737.219 221.016 737.678C221.196 738.137 221.462 738.489 221.814 738.733C222.17 738.972 222.615 739.092 223.147 739.092C223.572 739.092 223.955 739.048 224.297 738.96C224.639 738.867 224.949 738.76 225.227 738.638V739.722C224.958 739.858 224.658 739.963 224.326 740.037C223.999 740.11 223.608 740.146 223.154 740.146ZM228.347 728.604V732.009C228.347 732.205 228.342 732.402 228.333 732.603C228.323 732.798 228.306 732.979 228.281 733.145H228.362C228.528 732.861 228.738 732.625 228.992 732.434C229.25 732.239 229.543 732.092 229.871 731.995C230.198 731.892 230.544 731.841 230.911 731.841C231.555 731.841 232.092 731.943 232.522 732.148C232.957 732.354 233.281 732.671 233.496 733.101C233.716 733.53 233.826 734.087 233.826 734.771V740H232.625V734.851C232.625 734.182 232.471 733.682 232.163 733.35C231.86 733.018 231.394 732.852 230.764 732.852C230.168 732.852 229.692 732.966 229.336 733.196C228.984 733.42 228.73 733.752 228.574 734.192C228.423 734.631 228.347 735.168 228.347 735.803V740H227.131V728.604H228.347ZM237.546 731.973V740H236.331V731.973H237.546ZM236.953 728.97C237.153 728.97 237.324 729.036 237.466 729.167C237.612 729.294 237.686 729.495 237.686 729.768C237.686 730.037 237.612 730.237 237.466 730.369C237.324 730.5 237.153 730.566 236.953 730.566C236.743 730.566 236.567 730.5 236.426 730.369C236.289 730.237 236.221 730.037 236.221 729.768C236.221 729.495 236.289 729.294 236.426 729.167C236.567 729.036 236.743 728.97 236.953 728.97ZM243.926 731.826C244.878 731.826 245.598 732.061 246.086 732.529C246.575 732.993 246.819 733.74 246.819 734.771V740H245.618V734.851C245.618 734.182 245.464 733.682 245.156 733.35C244.854 733.018 244.387 732.852 243.757 732.852C242.869 732.852 242.244 733.103 241.882 733.606C241.521 734.109 241.34 734.839 241.34 735.796V740H240.125V731.973H241.106L241.289 733.13H241.355C241.526 732.847 241.743 732.61 242.007 732.419C242.271 732.224 242.566 732.078 242.893 731.98C243.22 731.877 243.564 731.826 243.926 731.826ZM251.565 743.604C250.51 743.604 249.697 743.406 249.126 743.01C248.555 742.62 248.269 742.07 248.269 741.362C248.269 740.859 248.428 740.43 248.745 740.073C249.067 739.717 249.512 739.48 250.078 739.363C249.868 739.265 249.688 739.119 249.536 738.923C249.39 738.728 249.316 738.503 249.316 738.25C249.316 737.957 249.397 737.7 249.558 737.48C249.724 737.256 249.976 737.041 250.312 736.836C249.893 736.665 249.551 736.377 249.287 735.972C249.028 735.562 248.899 735.085 248.899 734.543C248.899 733.967 249.019 733.477 249.258 733.071C249.497 732.661 249.844 732.349 250.298 732.134C250.752 731.919 251.301 731.812 251.946 731.812C252.087 731.812 252.229 731.819 252.371 731.833C252.517 731.843 252.656 731.86 252.788 731.885C252.92 731.904 253.035 731.929 253.132 731.958H255.886V732.742L254.407 732.925C254.553 733.115 254.675 733.345 254.773 733.613C254.871 733.882 254.919 734.18 254.919 734.507C254.919 735.308 254.648 735.945 254.106 736.418C253.564 736.887 252.82 737.122 251.873 737.122C251.648 737.122 251.418 737.102 251.184 737.063C250.945 737.195 250.762 737.341 250.635 737.502C250.513 737.664 250.452 737.849 250.452 738.059C250.452 738.215 250.498 738.34 250.591 738.433C250.688 738.525 250.828 738.594 251.008 738.638C251.189 738.677 251.406 738.696 251.66 738.696H253.074C253.948 738.696 254.617 738.879 255.081 739.246C255.549 739.612 255.784 740.146 255.784 740.85C255.784 741.738 255.422 742.419 254.7 742.893C253.977 743.367 252.932 743.604 251.565 743.604ZM251.602 742.651C252.266 742.651 252.815 742.583 253.25 742.446C253.689 742.314 254.016 742.122 254.231 741.868C254.451 741.619 254.561 741.321 254.561 740.974C254.561 740.652 254.487 740.408 254.341 740.242C254.194 740.081 253.979 739.973 253.696 739.919C253.413 739.861 253.066 739.832 252.656 739.832H251.265C250.903 739.832 250.588 739.888 250.32 740C250.051 740.112 249.844 740.278 249.697 740.498C249.556 740.718 249.485 740.991 249.485 741.318C249.485 741.753 249.668 742.083 250.034 742.307C250.4 742.537 250.923 742.651 251.602 742.651ZM251.917 736.235C252.498 736.235 252.935 736.089 253.228 735.796C253.521 735.503 253.667 735.076 253.667 734.514C253.667 733.914 253.518 733.464 253.22 733.167C252.922 732.864 252.483 732.712 251.902 732.712C251.345 732.712 250.916 732.869 250.613 733.181C250.315 733.489 250.166 733.94 250.166 734.536C250.166 735.083 250.317 735.503 250.62 735.796C250.923 736.089 251.355 736.235 251.917 736.235Z" fill="#D3D3D3"/>
<path d="M152.368 439.27C152.368 440.14 151.933 440.89 150.853 440.89C149.773 440.89 149.323 440.125 149.308 439.165H147.943C147.943 440.995 149.113 442.105 150.853 442.105C152.578 442.105 153.748 441.01 153.748 439.27V431.545H152.368V439.27ZM164.237 437.875C164.237 435.28 162.422 433.645 160.082 433.645C157.757 433.645 155.927 435.28 155.927 437.875C155.927 440.485 157.697 442.135 160.022 442.135C162.362 442.135 164.237 440.485 164.237 437.875ZM157.322 437.875C157.322 435.805 158.627 434.83 160.067 434.83C161.477 434.83 162.842 435.805 162.842 437.875C162.842 439.96 161.447 440.935 160.022 440.935C158.597 440.935 157.322 439.96 157.322 437.875ZM166.032 442H167.397V437.455C167.397 435.685 168.357 434.815 169.752 434.815C171.132 434.815 172.047 435.67 172.047 437.35V442H173.397V437.155C173.397 434.8 171.942 433.63 170.112 433.63C168.957 433.63 167.937 434.095 167.397 434.965V430.9H166.032V442ZM181.642 442H182.992V437.155C182.992 434.8 181.537 433.63 179.632 433.63C178.522 433.63 177.532 434.095 176.992 434.95V433.78H175.627V442H176.992V437.455C176.992 435.685 177.952 434.815 179.347 434.815C180.727 434.815 181.642 435.67 181.642 437.35V442ZM196.015 439.15C196.015 435.28 190.375 436.96 190.375 434.26C190.375 433.135 191.26 432.55 192.385 432.58C193.66 432.595 194.32 433.39 194.41 434.095H195.91C195.745 432.505 194.44 431.41 192.445 431.41C190.375 431.41 188.98 432.58 188.98 434.305C188.98 438.19 194.635 436.39 194.635 439.21C194.635 440.2 193.855 440.95 192.535 440.95C191.08 440.95 190.465 440.08 190.375 439.21H188.92C188.95 440.935 190.435 442.105 192.535 442.105C194.8 442.105 196.015 440.635 196.015 439.15ZM209.889 442H211.239V437.155C211.239 434.8 209.784 433.63 207.909 433.63C206.649 433.63 205.479 434.275 204.999 435.46C204.459 434.23 203.334 433.63 201.984 433.63C200.904 433.63 199.929 434.095 199.389 434.965V433.78H198.024V442H199.389V437.47C199.389 435.7 200.334 434.815 201.714 434.815C203.064 434.815 203.964 435.67 203.964 437.35V442H205.314V437.47C205.314 435.7 206.259 434.815 207.639 434.815C208.989 434.815 209.889 435.67 209.889 437.35V442ZM213.478 442H214.843V433.78H213.478V442ZM214.183 432.445C214.678 432.445 215.083 432.04 215.083 431.515C215.083 430.99 214.678 430.585 214.183 430.585C213.658 430.585 213.253 430.99 213.253 431.515C213.253 432.04 213.658 432.445 214.183 432.445ZM217.47 439.75C217.47 441.4 218.295 442 219.75 442H220.98V440.845H219.975C219.135 440.845 218.835 440.56 218.835 439.75V434.905H220.98V433.78H218.835V431.71H217.47V433.78H216.405V434.905H217.47V439.75ZM222.633 442H223.998V437.455C223.998 435.685 224.958 434.815 226.353 434.815C227.733 434.815 228.648 435.67 228.648 437.35V442H229.998V437.155C229.998 434.8 228.543 433.63 226.713 433.63C225.558 433.63 224.538 434.095 223.998 434.965V430.9H222.633V442Z" fill="#D3D3D3"/>
<path d="M105.394 487H109.498V480.184H114.634V476.992H109.498V473.44H116.362V470.152H105.394V487ZM131.623 480.304C131.623 476.056 128.599 473.416 124.663 473.416C120.751 473.416 117.703 476.056 117.703 480.304C117.703 484.552 120.679 487.192 124.615 487.192C128.551 487.192 131.623 484.552 131.623 480.304ZM121.879 480.304C121.879 478.024 123.175 476.968 124.663 476.968C126.103 476.968 127.447 478.024 127.447 480.304C127.447 482.56 126.079 483.64 124.615 483.64C123.127 483.64 121.879 482.56 121.879 480.304ZM133.8 487H137.904V469.24H133.8V487ZM140.878 487H144.982V469.24H140.878V487ZM161.061 480.304C161.061 476.056 158.037 473.416 154.101 473.416C150.189 473.416 147.141 476.056 147.141 480.304C147.141 484.552 150.117 487.192 154.053 487.192C157.989 487.192 161.061 484.552 161.061 480.304ZM151.317 480.304C151.317 478.024 152.613 476.968 154.101 476.968C155.541 476.968 156.885 478.024 156.885 480.304C156.885 482.56 155.517 483.64 154.053 483.64C152.565 483.64 151.317 482.56 151.317 480.304ZM165.494 487H170.006L172.19 478.312L174.302 487H178.838L182.462 473.608H178.598L176.726 483.136L174.446 473.608H170.102L167.846 483.184L165.95 473.608H161.846L165.494 487ZM189.931 476.704C191.299 476.704 192.451 477.544 192.451 479.008H187.315C187.555 477.52 188.587 476.704 189.931 476.704ZM196.339 482.56H191.971C191.635 483.28 190.987 483.856 189.835 483.856C188.515 483.856 187.435 483.04 187.291 481.288H196.579C196.627 480.88 196.651 480.472 196.651 480.088C196.651 476.008 193.891 473.416 189.979 473.416C185.995 473.416 183.211 476.056 183.211 480.304C183.211 484.552 186.043 487.192 189.979 487.192C193.315 487.192 195.691 485.176 196.339 482.56ZM198 480.28C198 484.504 200.616 487.192 203.904 487.192C205.872 487.192 207.288 486.304 208.032 485.08V487H212.136V469.24H208.032V475.456C207.216 474.232 205.68 473.416 203.904 473.416C200.616 473.416 198 476.056 198 480.28ZM208.032 480.304C208.032 482.44 206.664 483.616 205.104 483.616C203.568 483.616 202.176 482.416 202.176 480.28C202.176 478.144 203.568 476.992 205.104 476.992C206.664 476.992 208.032 478.168 208.032 480.304ZM229.479 481.864C229.479 483.064 228.687 483.688 227.319 483.688H224.295V479.968H227.271C228.639 479.968 229.479 480.664 229.479 481.864ZM229.071 475.216C229.071 476.368 228.327 476.968 226.983 476.968H224.295V473.44H226.983C228.327 473.44 229.071 474.064 229.071 475.216ZM233.631 482.416C233.631 480.496 232.359 478.768 230.391 478.36C232.023 477.88 233.247 476.56 233.247 474.52C233.247 471.856 231.207 470.152 227.775 470.152H220.191V487H228.039C231.591 487 233.631 485.2 233.631 482.416ZM235.195 480.28C235.195 484.504 237.811 487.192 241.075 487.192C243.067 487.192 244.483 486.28 245.227 485.104V487H249.331V473.608H245.227V475.504C244.507 474.328 243.091 473.416 241.099 473.416C237.811 473.416 235.195 476.056 235.195 480.28ZM245.227 480.304C245.227 482.44 243.859 483.616 242.299 483.616C240.763 483.616 239.371 482.416 239.371 480.28C239.371 478.144 240.763 476.992 242.299 476.992C243.859 476.992 245.227 478.168 245.227 480.304ZM251.484 480.304C251.484 484.552 254.268 487.192 258.204 487.192C261.564 487.192 263.94 485.248 264.636 482.152H260.268C259.908 483.136 259.26 483.688 258.132 483.688C256.668 483.688 255.66 482.536 255.66 480.304C255.66 478.072 256.668 476.92 258.132 476.92C259.26 476.92 259.932 477.52 260.268 478.456H264.636C263.94 475.264 261.564 473.416 258.204 473.416C254.268 473.416 251.484 476.08 251.484 480.304ZM266.832 487H270.936V481.384L275.016 487H280.104L274.488 480.328L280.056 473.608H274.992L270.936 479.056V469.24H266.832V487Z" fill="#D3D3D3"/>
<path opacity="0.53" d="M68.2804 513.545V521.27C68.2804 522.13 68.0154 522.82 67.4854 523.34C66.9554 523.85 66.2554 524.105 65.3854 524.105C64.5054 524.105 63.8004 523.845 63.2704 523.325C62.7404 522.795 62.4754 522.075 62.4754 521.165H63.8404C63.8504 521.675 63.9804 522.09 64.2304 522.41C64.4904 522.73 64.8754 522.89 65.3854 522.89C65.8954 522.89 66.2754 522.74 66.5254 522.44C66.7754 522.13 66.9004 521.74 66.9004 521.27V513.545H68.2804ZM74.5545 524.135C73.7845 524.135 73.0845 523.96 72.4545 523.61C71.8345 523.26 71.3445 522.765 70.9845 522.125C70.6345 521.475 70.4595 520.725 70.4595 519.875C70.4595 519.035 70.6395 518.295 70.9995 517.655C71.3695 517.005 71.8695 516.51 72.4995 516.17C73.1295 515.82 73.8345 515.645 74.6145 515.645C75.3945 515.645 76.0995 515.82 76.7295 516.17C77.3595 516.51 77.8545 517 78.2145 517.64C78.5845 518.28 78.7695 519.025 78.7695 519.875C78.7695 520.725 78.5795 521.475 78.1995 522.125C77.8295 522.765 77.3245 523.26 76.6845 523.61C76.0445 523.96 75.3345 524.135 74.5545 524.135ZM74.5545 522.935C75.0445 522.935 75.5045 522.82 75.9345 522.59C76.3645 522.36 76.7095 522.015 76.9695 521.555C77.2395 521.095 77.3745 520.535 77.3745 519.875C77.3745 519.215 77.2445 518.655 76.9845 518.195C76.7245 517.735 76.3845 517.395 75.9645 517.175C75.5445 516.945 75.0895 516.83 74.5995 516.83C74.0995 516.83 73.6395 516.945 73.2195 517.175C72.8095 517.395 72.4795 517.735 72.2295 518.195C71.9795 518.655 71.8545 519.215 71.8545 519.875C71.8545 520.545 71.9745 521.11 72.2145 521.57C72.4645 522.03 72.7945 522.375 73.2045 522.605C73.6145 522.825 74.0645 522.935 74.5545 522.935ZM84.6442 515.63C85.2642 515.63 85.8242 515.765 86.3242 516.035C86.8242 516.295 87.2142 516.69 87.4942 517.22C87.7842 517.75 87.9292 518.395 87.9292 519.155V524H86.5792V519.35C86.5792 518.53 86.3742 517.905 85.9642 517.475C85.5542 517.035 84.9942 516.815 84.2842 516.815C83.5642 516.815 82.9892 517.04 82.5592 517.49C82.1392 517.94 81.9292 518.595 81.9292 519.455V524H80.5642V512.9H81.9292V516.95C82.1992 516.53 82.5692 516.205 83.0392 515.975C83.5192 515.745 84.0542 515.63 84.6442 515.63ZM94.1639 515.63C95.1639 515.63 95.9739 515.935 96.5939 516.545C97.2139 517.145 97.5239 518.015 97.5239 519.155V524H96.1739V519.35C96.1739 518.53 95.9689 517.905 95.5589 517.475C95.1489 517.035 94.5889 516.815 93.8789 516.815C93.1589 516.815 92.5839 517.04 92.1539 517.49C91.7339 517.94 91.5239 518.595 91.5239 519.455V524H90.1589V515.78H91.5239V516.95C91.7939 516.53 92.1589 516.205 92.6189 515.975C93.0889 515.745 93.6039 515.63 94.1639 515.63ZM105.118 512.9V524H103.753V512.9H105.118ZM108.149 514.445C107.889 514.445 107.669 514.355 107.489 514.175C107.309 513.995 107.219 513.775 107.219 513.515C107.219 513.255 107.309 513.035 107.489 512.855C107.669 512.675 107.889 512.585 108.149 512.585C108.399 512.585 108.609 512.675 108.779 512.855C108.959 513.035 109.049 513.255 109.049 513.515C109.049 513.775 108.959 513.995 108.779 514.175C108.609 514.355 108.399 514.445 108.149 514.445ZM108.809 515.78V524H107.444V515.78H108.809ZM115.725 524L112.5 520.37V524H111.135V512.9H112.5V519.425L115.665 515.78H117.57L113.7 519.875L117.585 524H115.725ZM126.355 519.575C126.355 519.835 126.34 520.11 126.31 520.4H119.74C119.79 521.21 120.065 521.845 120.565 522.305C121.075 522.755 121.69 522.98 122.41 522.98C123 522.98 123.49 522.845 123.88 522.575C124.28 522.295 124.56 521.925 124.72 521.465H126.19C125.97 522.255 125.53 522.9 124.87 523.4C124.21 523.89 123.39 524.135 122.41 524.135C121.63 524.135 120.93 523.96 120.31 523.61C119.7 523.26 119.22 522.765 118.87 522.125C118.52 521.475 118.345 520.725 118.345 519.875C118.345 519.025 118.515 518.28 118.855 517.64C119.195 517 119.67 516.51 120.28 516.17C120.9 515.82 121.61 515.645 122.41 515.645C123.19 515.645 123.88 515.815 124.48 516.155C125.08 516.495 125.54 516.965 125.86 517.565C126.19 518.155 126.355 518.825 126.355 519.575ZM124.945 519.29C124.945 518.77 124.83 518.325 124.6 517.955C124.37 517.575 124.055 517.29 123.655 517.1C123.265 516.9 122.83 516.8 122.35 516.8C121.66 516.8 121.07 517.02 120.58 517.46C120.1 517.9 119.825 518.51 119.755 519.29H124.945ZM127.647 519.86C127.647 519.02 127.817 518.285 128.157 517.655C128.497 517.015 128.962 516.52 129.552 516.17C130.152 515.82 130.822 515.645 131.562 515.645C132.202 515.645 132.797 515.795 133.347 516.095C133.897 516.385 134.317 516.77 134.607 517.25V512.9H135.987V524H134.607V522.455C134.337 522.945 133.937 523.35 133.407 523.67C132.877 523.98 132.257 524.135 131.547 524.135C130.817 524.135 130.152 523.955 129.552 523.595C128.962 523.235 128.497 522.73 128.157 522.08C127.817 521.43 127.647 520.69 127.647 519.86ZM134.607 519.875C134.607 519.255 134.482 518.715 134.232 518.255C133.982 517.795 133.642 517.445 133.212 517.205C132.792 516.955 132.327 516.83 131.817 516.83C131.307 516.83 130.842 516.95 130.422 517.19C130.002 517.43 129.667 517.78 129.417 518.24C129.167 518.7 129.042 519.24 129.042 519.86C129.042 520.49 129.167 521.04 129.417 521.51C129.667 521.97 130.002 522.325 130.422 522.575C130.842 522.815 131.307 522.935 131.817 522.935C132.327 522.935 132.792 522.815 133.212 522.575C133.642 522.325 133.982 521.97 134.232 521.51C134.482 521.04 134.607 520.495 134.607 519.875ZM149.373 515.78L144.423 527.87H143.013L144.633 523.91L141.318 515.78H142.833L145.413 522.44L147.963 515.78H149.373ZM154.33 524.135C153.56 524.135 152.86 523.96 152.23 523.61C151.61 523.26 151.12 522.765 150.76 522.125C150.41 521.475 150.235 520.725 150.235 519.875C150.235 519.035 150.415 518.295 150.775 517.655C151.145 517.005 151.645 516.51 152.275 516.17C152.905 515.82 153.61 515.645 154.39 515.645C155.17 515.645 155.875 515.82 156.505 516.17C157.135 516.51 157.63 517 157.99 517.64C158.36 518.28 158.545 519.025 158.545 519.875C158.545 520.725 158.355 521.475 157.975 522.125C157.605 522.765 157.1 523.26 156.46 523.61C155.82 523.96 155.11 524.135 154.33 524.135ZM154.33 522.935C154.82 522.935 155.28 522.82 155.71 522.59C156.14 522.36 156.485 522.015 156.745 521.555C157.015 521.095 157.15 520.535 157.15 519.875C157.15 519.215 157.02 518.655 156.76 518.195C156.5 517.735 156.16 517.395 155.74 517.175C155.32 516.945 154.865 516.83 154.375 516.83C153.875 516.83 153.415 516.945 152.995 517.175C152.585 517.395 152.255 517.735 152.005 518.195C151.755 518.655 151.63 519.215 151.63 519.875C151.63 520.545 151.75 521.11 151.99 521.57C152.24 522.03 152.57 522.375 152.98 522.605C153.39 522.825 153.84 522.935 154.33 522.935ZM167.63 515.78V524H166.265V522.785C166.005 523.205 165.64 523.535 165.17 523.775C164.71 524.005 164.2 524.12 163.64 524.12C163 524.12 162.425 523.99 161.915 523.73C161.405 523.46 161 523.06 160.7 522.53C160.41 522 160.265 521.355 160.265 520.595V515.78H161.615V520.415C161.615 521.225 161.82 521.85 162.23 522.29C162.64 522.72 163.2 522.935 163.91 522.935C164.64 522.935 165.215 522.71 165.635 522.26C166.055 521.81 166.265 521.155 166.265 520.295V515.78H167.63ZM175.298 517.31C175.578 516.82 175.988 516.42 176.528 516.11C177.068 515.8 177.683 515.645 178.373 515.645C179.113 515.645 179.778 515.82 180.368 516.17C180.958 516.52 181.423 517.015 181.763 517.655C182.103 518.285 182.273 519.02 182.273 519.86C182.273 520.69 182.103 521.43 181.763 522.08C181.423 522.73 180.953 523.235 180.353 523.595C179.763 523.955 179.103 524.135 178.373 524.135C177.663 524.135 177.038 523.98 176.498 523.67C175.968 523.36 175.568 522.965 175.298 522.485V524H173.933V512.9H175.298V517.31ZM180.878 519.86C180.878 519.24 180.753 518.7 180.503 518.24C180.253 517.78 179.913 517.43 179.483 517.19C179.063 516.95 178.598 516.83 178.088 516.83C177.588 516.83 177.123 516.955 176.693 517.205C176.273 517.445 175.933 517.8 175.673 518.27C175.423 518.73 175.298 519.265 175.298 519.875C175.298 520.495 175.423 521.04 175.673 521.51C175.933 521.97 176.273 522.325 176.693 522.575C177.123 522.815 177.588 522.935 178.088 522.935C178.598 522.935 179.063 522.815 179.483 522.575C179.913 522.325 180.253 521.97 180.503 521.51C180.753 521.04 180.878 520.49 180.878 519.86ZM183.56 519.86C183.56 519.02 183.73 518.285 184.07 517.655C184.41 517.015 184.875 516.52 185.465 516.17C186.065 515.82 186.73 515.645 187.46 515.645C188.18 515.645 188.805 515.8 189.335 516.11C189.865 516.42 190.26 516.81 190.52 517.28V515.78H191.9V524H190.52V522.47C190.25 522.95 189.845 523.35 189.305 523.67C188.775 523.98 188.155 524.135 187.445 524.135C186.715 524.135 186.055 523.955 185.465 523.595C184.875 523.235 184.41 522.73 184.07 522.08C183.73 521.43 183.56 520.69 183.56 519.86ZM190.52 519.875C190.52 519.255 190.395 518.715 190.145 518.255C189.895 517.795 189.555 517.445 189.125 517.205C188.705 516.955 188.24 516.83 187.73 516.83C187.22 516.83 186.755 516.95 186.335 517.19C185.915 517.43 185.58 517.78 185.33 518.24C185.08 518.7 184.955 519.24 184.955 519.86C184.955 520.49 185.08 521.04 185.33 521.51C185.58 521.97 185.915 522.325 186.335 522.575C186.755 522.815 187.22 522.935 187.73 522.935C188.24 522.935 188.705 522.815 189.125 522.575C189.555 522.325 189.895 521.97 190.145 521.51C190.395 521.04 190.52 520.495 190.52 519.875ZM193.697 519.875C193.697 519.025 193.867 518.285 194.207 517.655C194.547 517.015 195.017 516.52 195.617 516.17C196.227 515.82 196.922 515.645 197.702 515.645C198.712 515.645 199.542 515.89 200.192 516.38C200.852 516.87 201.287 517.55 201.497 518.42H200.027C199.887 517.92 199.612 517.525 199.202 517.235C198.802 516.945 198.302 516.8 197.702 516.8C196.922 516.8 196.292 517.07 195.812 517.61C195.332 518.14 195.092 518.895 195.092 519.875C195.092 520.865 195.332 521.63 195.812 522.17C196.292 522.71 196.922 522.98 197.702 522.98C198.302 522.98 198.802 522.84 199.202 522.56C199.602 522.28 199.877 521.88 200.027 521.36H201.497C201.277 522.2 200.837 522.875 200.177 523.385C199.517 523.885 198.692 524.135 197.702 524.135C196.922 524.135 196.227 523.96 195.617 523.61C195.017 523.26 194.547 522.765 194.207 522.125C193.867 521.485 193.697 520.735 193.697 519.875ZM207.908 524L204.683 520.37V524H203.318V512.9H204.683V519.425L207.848 515.78H209.753L205.883 519.875L209.768 524H207.908ZM216.447 522.11L214.767 526.145H213.852L214.947 522.11H216.447ZM225.33 513.545L221.925 520.055V524H220.56V520.055L217.14 513.545H218.655L221.235 518.84L223.815 513.545H225.33ZM230.355 524.135C229.585 524.135 228.885 523.96 228.255 523.61C227.635 523.26 227.145 522.765 226.785 522.125C226.435 521.475 226.26 520.725 226.26 519.875C226.26 519.035 226.44 518.295 226.8 517.655C227.17 517.005 227.67 516.51 228.3 516.17C228.93 515.82 229.635 515.645 230.415 515.645C231.195 515.645 231.9 515.82 232.53 516.17C233.16 516.51 233.655 517 234.015 517.64C234.385 518.28 234.57 519.025 234.57 519.875C234.57 520.725 234.38 521.475 234 522.125C233.63 522.765 233.125 523.26 232.485 523.61C231.845 523.96 231.135 524.135 230.355 524.135ZM230.355 522.935C230.845 522.935 231.305 522.82 231.735 522.59C232.165 522.36 232.51 522.015 232.77 521.555C233.04 521.095 233.175 520.535 233.175 519.875C233.175 519.215 233.045 518.655 232.785 518.195C232.525 517.735 232.185 517.395 231.765 517.175C231.345 516.945 230.89 516.83 230.4 516.83C229.9 516.83 229.44 516.945 229.02 517.175C228.61 517.395 228.28 517.735 228.03 518.195C227.78 518.655 227.655 519.215 227.655 519.875C227.655 520.545 227.775 521.11 228.015 521.57C228.265 522.03 228.595 522.375 229.005 522.605C229.415 522.825 229.865 522.935 230.355 522.935ZM243.655 515.78V524H242.29V522.785C242.03 523.205 241.665 523.535 241.195 523.775C240.735 524.005 240.225 524.12 239.665 524.12C239.025 524.12 238.45 523.99 237.94 523.73C237.43 523.46 237.025 523.06 236.725 522.53C236.435 522 236.29 521.355 236.29 520.595V515.78H237.64V520.415C237.64 521.225 237.845 521.85 238.255 522.29C238.665 522.72 239.225 522.935 239.935 522.935C240.665 522.935 241.24 522.71 241.66 522.26C242.08 521.81 242.29 521.155 242.29 520.295V515.78H243.655ZM249.449 519.875C249.449 519.025 249.619 518.285 249.959 517.655C250.299 517.015 250.769 516.52 251.369 516.17C251.979 515.82 252.674 515.645 253.454 515.645C254.464 515.645 255.294 515.89 255.944 516.38C256.604 516.87 257.039 517.55 257.249 518.42H255.779C255.639 517.92 255.364 517.525 254.954 517.235C254.554 516.945 254.054 516.8 253.454 516.8C252.674 516.8 252.044 517.07 251.564 517.61C251.084 518.14 250.844 518.895 250.844 519.875C250.844 520.865 251.084 521.63 251.564 522.17C252.044 522.71 252.674 522.98 253.454 522.98C254.054 522.98 254.554 522.84 254.954 522.56C255.354 522.28 255.629 521.88 255.779 521.36H257.249C257.029 522.2 256.589 522.875 255.929 523.385C255.269 523.885 254.444 524.135 253.454 524.135C252.674 524.135 251.979 523.96 251.369 523.61C250.769 523.26 250.299 522.765 249.959 522.125C249.619 521.485 249.449 520.735 249.449 519.875ZM258.56 519.86C258.56 519.02 258.73 518.285 259.07 517.655C259.41 517.015 259.875 516.52 260.465 516.17C261.065 515.82 261.73 515.645 262.46 515.645C263.18 515.645 263.805 515.8 264.335 516.11C264.865 516.42 265.26 516.81 265.52 517.28V515.78H266.9V524H265.52V522.47C265.25 522.95 264.845 523.35 264.305 523.67C263.775 523.98 263.155 524.135 262.445 524.135C261.715 524.135 261.055 523.955 260.465 523.595C259.875 523.235 259.41 522.73 259.07 522.08C258.73 521.43 258.56 520.69 258.56 519.86ZM265.52 519.875C265.52 519.255 265.395 518.715 265.145 518.255C264.895 517.795 264.555 517.445 264.125 517.205C263.705 516.955 263.24 516.83 262.73 516.83C262.22 516.83 261.755 516.95 261.335 517.19C260.915 517.43 260.58 517.78 260.33 518.24C260.08 518.7 259.955 519.24 259.955 519.86C259.955 520.49 260.08 521.04 260.33 521.51C260.58 521.97 260.915 522.325 261.335 522.575C261.755 522.815 262.22 522.935 262.73 522.935C263.24 522.935 263.705 522.815 264.125 522.575C264.555 522.325 264.895 521.97 265.145 521.51C265.395 521.04 265.52 520.495 265.52 519.875ZM273.212 515.63C274.212 515.63 275.022 515.935 275.642 516.545C276.262 517.145 276.572 518.015 276.572 519.155V524H275.222V519.35C275.222 518.53 275.017 517.905 274.607 517.475C274.197 517.035 273.637 516.815 272.927 516.815C272.207 516.815 271.632 517.04 271.202 517.49C270.782 517.94 270.572 518.595 270.572 519.455V524H269.207V515.78H270.572V516.95C270.842 516.53 271.207 516.205 271.667 515.975C272.137 515.745 272.652 515.63 273.212 515.63ZM286.806 515.63C287.806 515.63 288.616 515.935 289.236 516.545C289.856 517.145 290.166 518.015 290.166 519.155V524H288.816V519.35C288.816 518.53 288.611 517.905 288.201 517.475C287.791 517.035 287.231 516.815 286.521 516.815C285.801 516.815 285.226 517.04 284.796 517.49C284.376 517.94 284.166 518.595 284.166 519.455V524H282.801V515.78H284.166V516.95C284.436 516.53 284.801 516.205 285.261 515.975C285.731 515.745 286.246 515.63 286.806 515.63ZM295.98 524.135C295.21 524.135 294.51 523.96 293.88 523.61C293.26 523.26 292.77 522.765 292.41 522.125C292.06 521.475 291.885 520.725 291.885 519.875C291.885 519.035 292.065 518.295 292.425 517.655C292.795 517.005 293.295 516.51 293.925 516.17C294.555 515.82 295.26 515.645 296.04 515.645C296.82 515.645 297.525 515.82 298.155 516.17C298.785 516.51 299.28 517 299.64 517.64C300.01 518.28 300.195 519.025 300.195 519.875C300.195 520.725 300.005 521.475 299.625 522.125C299.255 522.765 298.75 523.26 298.11 523.61C297.47 523.96 296.76 524.135 295.98 524.135ZM295.98 522.935C296.47 522.935 296.93 522.82 297.36 522.59C297.79 522.36 298.135 522.015 298.395 521.555C298.665 521.095 298.8 520.535 298.8 519.875C298.8 519.215 298.67 518.655 298.41 518.195C298.15 517.735 297.81 517.395 297.39 517.175C296.97 516.945 296.515 516.83 296.025 516.83C295.525 516.83 295.065 516.945 294.645 517.175C294.235 517.395 293.905 517.735 293.655 518.195C293.405 518.655 293.28 519.215 293.28 519.875C293.28 520.545 293.4 521.11 293.64 521.57C293.89 522.03 294.22 522.375 294.63 522.605C295.04 522.825 295.49 522.935 295.98 522.935ZM312.94 515.78L310.375 524H308.965L306.985 517.475L305.005 524H303.595L301.015 515.78H302.41L304.3 522.68L306.34 515.78H307.735L309.73 522.695L311.59 515.78H312.94ZM62.5855 547.135C61.9555 547.135 61.3905 547.03 60.8905 546.82C60.3905 546.6 59.9955 546.3 59.7055 545.92C59.4155 545.53 59.2555 545.085 59.2255 544.585H60.6355C60.6755 544.995 60.8655 545.33 61.2055 545.59C61.5555 545.85 62.0105 545.98 62.5705 545.98C63.0905 545.98 63.5005 545.865 63.8005 545.635C64.1005 545.405 64.2505 545.115 64.2505 544.765C64.2505 544.405 64.0905 544.14 63.7705 543.97C63.4505 543.79 62.9555 543.615 62.2855 543.445C61.6755 543.285 61.1755 543.125 60.7855 542.965C60.4055 542.795 60.0755 542.55 59.7955 542.23C59.5255 541.9 59.3905 541.47 59.3905 540.94C59.3905 540.52 59.5155 540.135 59.7655 539.785C60.0155 539.435 60.3705 539.16 60.8305 538.96C61.2905 538.75 61.8155 538.645 62.4055 538.645C63.3155 538.645 64.0505 538.875 64.6105 539.335C65.1705 539.795 65.4705 540.425 65.5105 541.225H64.1455C64.1155 540.795 63.9405 540.45 63.6205 540.19C63.3105 539.93 62.8905 539.8 62.3605 539.8C61.8705 539.8 61.4805 539.905 61.1905 540.115C60.9005 540.325 60.7555 540.6 60.7555 540.94C60.7555 541.21 60.8405 541.435 61.0105 541.615C61.1905 541.785 61.4105 541.925 61.6705 542.035C61.9405 542.135 62.3105 542.25 62.7805 542.38C63.3705 542.54 63.8505 542.7 64.2205 542.86C64.5905 543.01 64.9055 543.24 65.1655 543.55C65.4355 543.86 65.5755 544.265 65.5855 544.765C65.5855 545.215 65.4605 545.62 65.2105 545.98C64.9605 546.34 64.6055 546.625 64.1455 546.835C63.6955 547.035 63.1755 547.135 62.5855 547.135ZM75.0124 542.575C75.0124 542.835 74.9974 543.11 74.9674 543.4H68.3974C68.4474 544.21 68.7224 544.845 69.2224 545.305C69.7324 545.755 70.3474 545.98 71.0674 545.98C71.6574 545.98 72.1474 545.845 72.5374 545.575C72.9374 545.295 73.2174 544.925 73.3774 544.465H74.8474C74.6274 545.255 74.1874 545.9 73.5274 546.4C72.8674 546.89 72.0474 547.135 71.0674 547.135C70.2874 547.135 69.5874 546.96 68.9674 546.61C68.3574 546.26 67.8774 545.765 67.5274 545.125C67.1774 544.475 67.0024 543.725 67.0024 542.875C67.0024 542.025 67.1724 541.28 67.5124 540.64C67.8524 540 68.3274 539.51 68.9374 539.17C69.5574 538.82 70.2674 538.645 71.0674 538.645C71.8474 538.645 72.5374 538.815 73.1374 539.155C73.7374 539.495 74.1974 539.965 74.5174 540.565C74.8474 541.155 75.0124 541.825 75.0124 542.575ZM73.6024 542.29C73.6024 541.77 73.4874 541.325 73.2574 540.955C73.0274 540.575 72.7124 540.29 72.3124 540.1C71.9224 539.9 71.4874 539.8 71.0074 539.8C70.3174 539.8 69.7274 540.02 69.2374 540.46C68.7574 540.9 68.4824 541.51 68.4124 542.29H73.6024ZM80.8192 538.63C81.8192 538.63 82.6292 538.935 83.2492 539.545C83.8692 540.145 84.1792 541.015 84.1792 542.155V547H82.8292V542.35C82.8292 541.53 82.6242 540.905 82.2142 540.475C81.8042 540.035 81.2442 539.815 80.5342 539.815C79.8142 539.815 79.2392 540.04 78.8092 540.49C78.3892 540.94 78.1792 541.595 78.1792 542.455V547H76.8142V538.78H78.1792V539.95C78.4492 539.53 78.8142 539.205 79.2742 538.975C79.7442 538.745 80.2592 538.63 80.8192 538.63ZM85.8989 542.86C85.8989 542.02 86.0689 541.285 86.4089 540.655C86.7489 540.015 87.2139 539.52 87.8039 539.17C88.4039 538.82 89.0739 538.645 89.8139 538.645C90.4539 538.645 91.0489 538.795 91.5989 539.095C92.1489 539.385 92.5689 539.77 92.8589 540.25V535.9H94.2389V547H92.8589V545.455C92.5889 545.945 92.1889 546.35 91.6589 546.67C91.1289 546.98 90.5089 547.135 89.7989 547.135C89.0689 547.135 88.4039 546.955 87.8039 546.595C87.2139 546.235 86.7489 545.73 86.4089 545.08C86.0689 544.43 85.8989 543.69 85.8989 542.86ZM92.8589 542.875C92.8589 542.255 92.7339 541.715 92.4839 541.255C92.2339 540.795 91.8939 540.445 91.4639 540.205C91.0439 539.955 90.5789 539.83 90.0689 539.83C89.5589 539.83 89.0939 539.95 88.6739 540.19C88.2539 540.43 87.9189 540.78 87.6689 541.24C87.4189 541.7 87.2939 542.24 87.2939 542.86C87.2939 543.49 87.4189 544.04 87.6689 544.51C87.9189 544.97 88.2539 545.325 88.6739 545.575C89.0939 545.815 89.5589 545.935 90.0689 545.935C90.5789 545.935 91.0439 545.815 91.4639 545.575C91.8939 545.325 92.2339 544.97 92.4839 544.51C92.7339 544.04 92.8589 543.495 92.8589 542.875ZM102.21 539.905V544.75C102.21 545.15 102.295 545.435 102.465 545.605C102.635 545.765 102.93 545.845 103.35 545.845H104.355V547H103.125C102.365 547 101.795 546.825 101.415 546.475C101.035 546.125 100.845 545.55 100.845 544.75V539.905H99.7796V538.78H100.845V536.71H102.21V538.78H104.355V539.905H102.21ZM110.089 538.63C110.709 538.63 111.269 538.765 111.769 539.035C112.269 539.295 112.659 539.69 112.939 540.22C113.229 540.75 113.374 541.395 113.374 542.155V547H112.024V542.35C112.024 541.53 111.819 540.905 111.409 540.475C110.999 540.035 110.439 539.815 109.729 539.815C109.009 539.815 108.434 540.04 108.004 540.49C107.584 540.94 107.374 541.595 107.374 542.455V547H106.009V535.9H107.374V539.95C107.644 539.53 108.014 539.205 108.484 538.975C108.964 538.745 109.499 538.63 110.089 538.63ZM123.103 542.575C123.103 542.835 123.088 543.11 123.058 543.4H116.488C116.538 544.21 116.813 544.845 117.313 545.305C117.823 545.755 118.438 545.98 119.158 545.98C119.748 545.98 120.238 545.845 120.628 545.575C121.028 545.295 121.308 544.925 121.468 544.465H122.938C122.718 545.255 122.278 545.9 121.618 546.4C120.958 546.89 120.138 547.135 119.158 547.135C118.378 547.135 117.678 546.96 117.058 546.61C116.448 546.26 115.968 545.765 115.618 545.125C115.268 544.475 115.093 543.725 115.093 542.875C115.093 542.025 115.263 541.28 115.603 540.64C115.943 540 116.418 539.51 117.028 539.17C117.648 538.82 118.358 538.645 119.158 538.645C119.938 538.645 120.628 538.815 121.228 539.155C121.828 539.495 122.288 539.965 122.608 540.565C122.938 541.155 123.103 541.825 123.103 542.575ZM121.693 542.29C121.693 541.77 121.578 541.325 121.348 540.955C121.118 540.575 120.803 540.29 120.403 540.1C120.013 539.9 119.578 539.8 119.098 539.8C118.408 539.8 117.818 540.02 117.328 540.46C116.848 540.9 116.573 541.51 116.503 542.29H121.693ZM134.79 538.63C135.43 538.63 136 538.765 136.5 539.035C137 539.295 137.395 539.69 137.685 540.22C137.975 540.75 138.12 541.395 138.12 542.155V547H136.77V542.35C136.77 541.53 136.565 540.905 136.155 540.475C135.755 540.035 135.21 539.815 134.52 539.815C133.81 539.815 133.245 540.045 132.825 540.505C132.405 540.955 132.195 541.61 132.195 542.47V547H130.845V542.35C130.845 541.53 130.64 540.905 130.23 540.475C129.83 540.035 129.285 539.815 128.595 539.815C127.885 539.815 127.32 540.045 126.9 540.505C126.48 540.955 126.27 541.61 126.27 542.47V547H124.905V538.78H126.27V539.965C126.54 539.535 126.9 539.205 127.35 538.975C127.81 538.745 128.315 538.63 128.865 538.63C129.555 538.63 130.165 538.785 130.695 539.095C131.225 539.405 131.62 539.86 131.88 540.46C132.11 539.88 132.49 539.43 133.02 539.11C133.55 538.79 134.14 538.63 134.79 538.63ZM143.848 542.86C143.848 542.02 144.018 541.285 144.358 540.655C144.698 540.015 145.163 539.52 145.753 539.17C146.353 538.82 147.018 538.645 147.748 538.645C148.468 538.645 149.093 538.8 149.623 539.11C150.153 539.42 150.548 539.81 150.808 540.28V538.78H152.188V547H150.808V545.47C150.538 545.95 150.133 546.35 149.593 546.67C149.063 546.98 148.443 547.135 147.733 547.135C147.003 547.135 146.343 546.955 145.753 546.595C145.163 546.235 144.698 545.73 144.358 545.08C144.018 544.43 143.848 543.69 143.848 542.86ZM150.808 542.875C150.808 542.255 150.683 541.715 150.433 541.255C150.183 540.795 149.843 540.445 149.413 540.205C148.993 539.955 148.528 539.83 148.018 539.83C147.508 539.83 147.043 539.95 146.623 540.19C146.203 540.43 145.868 540.78 145.618 541.24C145.368 541.7 145.243 542.24 145.243 542.86C145.243 543.49 145.368 544.04 145.618 544.51C145.868 544.97 146.203 545.325 146.623 545.575C147.043 545.815 147.508 545.935 148.018 545.935C148.528 545.935 148.993 545.815 149.413 545.575C149.843 545.325 150.183 544.97 150.433 544.51C150.683 544.04 150.808 543.495 150.808 542.875ZM168.379 538.63C169.019 538.63 169.589 538.765 170.089 539.035C170.589 539.295 170.984 539.69 171.274 540.22C171.564 540.75 171.709 541.395 171.709 542.155V547H170.359V542.35C170.359 541.53 170.154 540.905 169.744 540.475C169.344 540.035 168.799 539.815 168.109 539.815C167.399 539.815 166.834 540.045 166.414 540.505C165.994 540.955 165.784 541.61 165.784 542.47V547H164.434V542.35C164.434 541.53 164.229 540.905 163.819 540.475C163.419 540.035 162.874 539.815 162.184 539.815C161.474 539.815 160.909 540.045 160.489 540.505C160.069 540.955 159.859 541.61 159.859 542.47V547H158.494V538.78H159.859V539.965C160.129 539.535 160.489 539.205 160.939 538.975C161.399 538.745 161.904 538.63 162.454 538.63C163.144 538.63 163.754 538.785 164.284 539.095C164.814 539.405 165.209 539.86 165.469 540.46C165.699 539.88 166.079 539.43 166.609 539.11C167.139 538.79 167.729 538.63 168.379 538.63ZM181.448 542.575C181.448 542.835 181.433 543.11 181.403 543.4H174.833C174.883 544.21 175.158 544.845 175.658 545.305C176.168 545.755 176.783 545.98 177.503 545.98C178.093 545.98 178.583 545.845 178.973 545.575C179.373 545.295 179.653 544.925 179.813 544.465H181.283C181.063 545.255 180.623 545.9 179.963 546.4C179.303 546.89 178.483 547.135 177.503 547.135C176.723 547.135 176.023 546.96 175.403 546.61C174.793 546.26 174.313 545.765 173.963 545.125C173.613 544.475 173.438 543.725 173.438 542.875C173.438 542.025 173.608 541.28 173.948 540.64C174.288 540 174.763 539.51 175.373 539.17C175.993 538.82 176.703 538.645 177.503 538.645C178.283 538.645 178.973 538.815 179.573 539.155C180.173 539.495 180.633 539.965 180.953 540.565C181.283 541.155 181.448 541.825 181.448 542.575ZM180.038 542.29C180.038 541.77 179.923 541.325 179.693 540.955C179.463 540.575 179.148 540.29 178.748 540.1C178.358 539.9 177.923 539.8 177.443 539.8C176.753 539.8 176.163 540.02 175.673 540.46C175.193 540.9 174.918 541.51 174.848 542.29H180.038ZM186.16 547.135C185.53 547.135 184.965 547.03 184.465 546.82C183.965 546.6 183.57 546.3 183.28 545.92C182.99 545.53 182.83 545.085 182.8 544.585H184.21C184.25 544.995 184.44 545.33 184.78 545.59C185.13 545.85 185.585 545.98 186.145 545.98C186.665 545.98 187.075 545.865 187.375 545.635C187.675 545.405 187.825 545.115 187.825 544.765C187.825 544.405 187.665 544.14 187.345 543.97C187.025 543.79 186.53 543.615 185.86 543.445C185.25 543.285 184.75 543.125 184.36 542.965C183.98 542.795 183.65 542.55 183.37 542.23C183.1 541.9 182.965 541.47 182.965 540.94C182.965 540.52 183.09 540.135 183.34 539.785C183.59 539.435 183.945 539.16 184.405 538.96C184.865 538.75 185.39 538.645 185.98 538.645C186.89 538.645 187.625 538.875 188.185 539.335C188.745 539.795 189.045 540.425 189.085 541.225H187.72C187.69 540.795 187.515 540.45 187.195 540.19C186.885 539.93 186.465 539.8 185.935 539.8C185.445 539.8 185.055 539.905 184.765 540.115C184.475 540.325 184.33 540.6 184.33 540.94C184.33 541.21 184.415 541.435 184.585 541.615C184.765 541.785 184.985 541.925 185.245 542.035C185.515 542.135 185.885 542.25 186.355 542.38C186.945 542.54 187.425 542.7 187.795 542.86C188.165 543.01 188.48 543.24 188.74 543.55C189.01 543.86 189.15 544.265 189.16 544.765C189.16 545.215 189.035 545.62 188.785 545.98C188.535 546.34 188.18 546.625 187.72 546.835C187.27 547.035 186.75 547.135 186.16 547.135ZM193.997 547.135C193.367 547.135 192.802 547.03 192.302 546.82C191.802 546.6 191.407 546.3 191.117 545.92C190.827 545.53 190.667 545.085 190.637 544.585H192.047C192.087 544.995 192.277 545.33 192.617 545.59C192.967 545.85 193.422 545.98 193.982 545.98C194.502 545.98 194.912 545.865 195.212 545.635C195.512 545.405 195.662 545.115 195.662 544.765C195.662 544.405 195.502 544.14 195.182 543.97C194.862 543.79 194.367 543.615 193.697 543.445C193.087 543.285 192.587 543.125 192.197 542.965C191.817 542.795 191.487 542.55 191.207 542.23C190.937 541.9 190.802 541.47 190.802 540.94C190.802 540.52 190.927 540.135 191.177 539.785C191.427 539.435 191.782 539.16 192.242 538.96C192.702 538.75 193.227 538.645 193.817 538.645C194.727 538.645 195.462 538.875 196.022 539.335C196.582 539.795 196.882 540.425 196.922 541.225H195.557C195.527 540.795 195.352 540.45 195.032 540.19C194.722 539.93 194.302 539.8 193.772 539.8C193.282 539.8 192.892 539.905 192.602 540.115C192.312 540.325 192.167 540.6 192.167 540.94C192.167 541.21 192.252 541.435 192.422 541.615C192.602 541.785 192.822 541.925 193.082 542.035C193.352 542.135 193.722 542.25 194.192 542.38C194.782 542.54 195.262 542.7 195.632 542.86C196.002 543.01 196.317 543.24 196.577 543.55C196.847 543.86 196.987 544.265 196.997 544.765C196.997 545.215 196.872 545.62 196.622 545.98C196.372 546.34 196.017 546.625 195.557 546.835C195.107 547.035 194.587 547.135 193.997 547.135ZM198.414 542.86C198.414 542.02 198.584 541.285 198.924 540.655C199.264 540.015 199.729 539.52 200.319 539.17C200.919 538.82 201.584 538.645 202.314 538.645C203.034 538.645 203.659 538.8 204.189 539.11C204.719 539.42 205.114 539.81 205.374 540.28V538.78H206.754V547H205.374V545.47C205.104 545.95 204.699 546.35 204.159 546.67C203.629 546.98 203.009 547.135 202.299 547.135C201.569 547.135 200.909 546.955 200.319 546.595C199.729 546.235 199.264 545.73 198.924 545.08C198.584 544.43 198.414 543.69 198.414 542.86ZM205.374 542.875C205.374 542.255 205.249 541.715 204.999 541.255C204.749 540.795 204.409 540.445 203.979 540.205C203.559 539.955 203.094 539.83 202.584 539.83C202.074 539.83 201.609 539.95 201.189 540.19C200.769 540.43 200.434 540.78 200.184 541.24C199.934 541.7 199.809 542.24 199.809 542.86C199.809 543.49 199.934 544.04 200.184 544.51C200.434 544.97 200.769 545.325 201.189 545.575C201.609 545.815 202.074 545.935 202.584 545.935C203.094 545.935 203.559 545.815 203.979 545.575C204.409 545.325 204.749 544.97 204.999 544.51C205.249 544.04 205.374 543.495 205.374 542.875ZM212.45 538.645C213.16 538.645 213.78 538.8 214.31 539.11C214.85 539.42 215.25 539.81 215.51 540.28V538.78H216.89V547.18C216.89 547.93 216.73 548.595 216.41 549.175C216.09 549.765 215.63 550.225 215.03 550.555C214.44 550.885 213.75 551.05 212.96 551.05C211.88 551.05 210.98 550.795 210.26 550.285C209.54 549.775 209.115 549.08 208.985 548.2H210.335C210.485 548.7 210.795 549.1 211.265 549.4C211.735 549.71 212.3 549.865 212.96 549.865C213.71 549.865 214.32 549.63 214.79 549.16C215.27 548.69 215.51 548.03 215.51 547.18V545.455C215.24 545.935 214.84 546.335 214.31 546.655C213.78 546.975 213.16 547.135 212.45 547.135C211.72 547.135 211.055 546.955 210.455 546.595C209.865 546.235 209.4 545.73 209.06 545.08C208.72 544.43 208.55 543.69 208.55 542.86C208.55 542.02 208.72 541.285 209.06 540.655C209.4 540.015 209.865 539.52 210.455 539.17C211.055 538.82 211.72 538.645 212.45 538.645ZM215.51 542.875C215.51 542.255 215.385 541.715 215.135 541.255C214.885 540.795 214.545 540.445 214.115 540.205C213.695 539.955 213.23 539.83 212.72 539.83C212.21 539.83 211.745 539.95 211.325 540.19C210.905 540.43 210.57 540.78 210.32 541.24C210.07 541.7 209.945 542.24 209.945 542.86C209.945 543.49 210.07 544.04 210.32 544.51C210.57 544.97 210.905 545.325 211.325 545.575C211.745 545.815 212.21 545.935 212.72 545.935C213.23 545.935 213.695 545.815 214.115 545.575C214.545 545.325 214.885 544.97 215.135 544.51C215.385 544.04 215.51 543.495 215.51 542.875ZM226.697 542.575C226.697 542.835 226.682 543.11 226.652 543.4H220.082C220.132 544.21 220.407 544.845 220.907 545.305C221.417 545.755 222.032 545.98 222.752 545.98C223.342 545.98 223.832 545.845 224.222 545.575C224.622 545.295 224.902 544.925 225.062 544.465H226.532C226.312 545.255 225.872 545.9 225.212 546.4C224.552 546.89 223.732 547.135 222.752 547.135C221.972 547.135 221.272 546.96 220.652 546.61C220.042 546.26 219.562 545.765 219.212 545.125C218.862 544.475 218.687 543.725 218.687 542.875C218.687 542.025 218.857 541.28 219.197 540.64C219.537 540 220.012 539.51 220.622 539.17C221.242 538.82 221.952 538.645 222.752 538.645C223.532 538.645 224.222 538.815 224.822 539.155C225.422 539.495 225.882 539.965 226.202 540.565C226.532 541.155 226.697 541.825 226.697 542.575ZM225.287 542.29C225.287 541.77 225.172 541.325 224.942 540.955C224.712 540.575 224.397 540.29 223.997 540.1C223.607 539.9 223.172 539.8 222.692 539.8C222.002 539.8 221.412 540.02 220.922 540.46C220.442 540.9 220.167 541.51 220.097 542.29H225.287ZM236.083 547.135C235.313 547.135 234.613 546.96 233.983 546.61C233.363 546.26 232.873 545.765 232.513 545.125C232.163 544.475 231.988 543.725 231.988 542.875C231.988 542.035 232.168 541.295 232.528 540.655C232.898 540.005 233.398 539.51 234.028 539.17C234.658 538.82 235.363 538.645 236.143 538.645C236.923 538.645 237.628 538.82 238.258 539.17C238.888 539.51 239.383 540 239.743 540.64C240.113 541.28 240.298 542.025 240.298 542.875C240.298 543.725 240.108 544.475 239.728 545.125C239.358 545.765 238.853 546.26 238.213 546.61C237.573 546.96 236.863 547.135 236.083 547.135ZM236.083 545.935C236.573 545.935 237.033 545.82 237.463 545.59C237.893 545.36 238.238 545.015 238.498 544.555C238.768 544.095 238.903 543.535 238.903 542.875C238.903 542.215 238.773 541.655 238.513 541.195C238.253 540.735 237.913 540.395 237.493 540.175C237.073 539.945 236.618 539.83 236.128 539.83C235.628 539.83 235.168 539.945 234.748 540.175C234.338 540.395 234.008 540.735 233.758 541.195C233.508 541.655 233.383 542.215 233.383 542.875C233.383 543.545 233.503 544.11 233.743 544.57C233.993 545.03 234.323 545.375 234.733 545.605C235.143 545.825 235.593 545.935 236.083 545.935ZM243.458 540.115C243.698 539.645 244.038 539.28 244.478 539.02C244.928 538.76 245.473 538.63 246.113 538.63V540.04H245.753C244.223 540.04 243.458 540.87 243.458 542.53V547H242.093V538.78H243.458V540.115ZM251.177 542.875C251.177 542.025 251.347 541.285 251.687 540.655C252.027 540.015 252.497 539.52 253.097 539.17C253.707 538.82 254.402 538.645 255.182 538.645C256.192 538.645 257.022 538.89 257.672 539.38C258.332 539.87 258.767 540.55 258.977 541.42H257.507C257.367 540.92 257.092 540.525 256.682 540.235C256.282 539.945 255.782 539.8 255.182 539.8C254.402 539.8 253.772 540.07 253.292 540.61C252.812 541.14 252.572 541.895 252.572 542.875C252.572 543.865 252.812 544.63 253.292 545.17C253.772 545.71 254.402 545.98 255.182 545.98C255.782 545.98 256.282 545.84 256.682 545.56C257.082 545.28 257.357 544.88 257.507 544.36H258.977C258.757 545.2 258.317 545.875 257.657 546.385C256.997 546.885 256.172 547.135 255.182 547.135C254.402 547.135 253.707 546.96 253.097 546.61C252.497 546.26 252.027 545.765 251.687 545.125C251.347 544.485 251.177 543.735 251.177 542.875ZM264.384 547.135C263.614 547.135 262.914 546.96 262.284 546.61C261.664 546.26 261.174 545.765 260.814 545.125C260.464 544.475 260.289 543.725 260.289 542.875C260.289 542.035 260.469 541.295 260.829 540.655C261.199 540.005 261.699 539.51 262.329 539.17C262.959 538.82 263.664 538.645 264.444 538.645C265.224 538.645 265.929 538.82 266.559 539.17C267.189 539.51 267.684 540 268.044 540.64C268.414 541.28 268.599 542.025 268.599 542.875C268.599 543.725 268.409 544.475 268.029 545.125C267.659 545.765 267.154 546.26 266.514 546.61C265.874 546.96 265.164 547.135 264.384 547.135ZM264.384 545.935C264.874 545.935 265.334 545.82 265.764 545.59C266.194 545.36 266.539 545.015 266.799 544.555C267.069 544.095 267.204 543.535 267.204 542.875C267.204 542.215 267.074 541.655 266.814 541.195C266.554 540.735 266.214 540.395 265.794 540.175C265.374 539.945 264.919 539.83 264.429 539.83C263.929 539.83 263.469 539.945 263.049 540.175C262.639 540.395 262.309 540.735 262.059 541.195C261.809 541.655 261.684 542.215 261.684 542.875C261.684 543.545 261.804 544.11 262.044 544.57C262.294 545.03 262.624 545.375 263.034 545.605C263.444 545.825 263.894 545.935 264.384 545.935ZM274.398 538.63C275.398 538.63 276.208 538.935 276.828 539.545C277.448 540.145 277.758 541.015 277.758 542.155V547H276.408V542.35C276.408 541.53 276.203 540.905 275.793 540.475C275.383 540.035 274.823 539.815 274.113 539.815C273.393 539.815 272.818 540.04 272.388 540.49C271.968 540.94 271.758 541.595 271.758 542.455V547H270.393V538.78H271.758V539.95C272.028 539.53 272.393 539.205 272.853 538.975C273.323 538.745 273.838 538.63 274.398 538.63ZM281.653 539.905V544.75C281.653 545.15 281.738 545.435 281.908 545.605C282.078 545.765 282.373 545.845 282.793 545.845H283.798V547H282.568C281.808 547 281.238 546.825 280.858 546.475C280.478 546.125 280.288 545.55 280.288 544.75V539.905H279.223V538.78H280.288V536.71H281.653V538.78H283.798V539.905H281.653ZM286.157 537.445C285.897 537.445 285.677 537.355 285.497 537.175C285.317 536.995 285.227 536.775 285.227 536.515C285.227 536.255 285.317 536.035 285.497 535.855C285.677 535.675 285.897 535.585 286.157 535.585C286.407 535.585 286.617 535.675 286.787 535.855C286.967 536.035 287.057 536.255 287.057 536.515C287.057 536.775 286.967 536.995 286.787 537.175C286.617 537.355 286.407 537.445 286.157 537.445ZM286.817 538.78V547H285.452V538.78H286.817ZM293.148 538.63C294.148 538.63 294.958 538.935 295.578 539.545C296.198 540.145 296.508 541.015 296.508 542.155V547H295.158V542.35C295.158 541.53 294.953 540.905 294.543 540.475C294.133 540.035 293.573 539.815 292.863 539.815C292.143 539.815 291.568 540.04 291.138 540.49C290.718 540.94 290.508 541.595 290.508 542.455V547H289.143V538.78H290.508V539.95C290.778 539.53 291.143 539.205 291.603 538.975C292.073 538.745 292.588 538.63 293.148 538.63ZM306.028 538.78V547H304.663V545.785C304.403 546.205 304.038 546.535 303.568 546.775C303.108 547.005 302.598 547.12 302.038 547.12C301.398 547.12 300.823 546.99 300.313 546.73C299.803 546.46 299.398 546.06 299.098 545.53C298.808 545 298.663 544.355 298.663 543.595V538.78H300.013V543.415C300.013 544.225 300.218 544.85 300.628 545.29C301.038 545.72 301.598 545.935 302.308 545.935C303.038 545.935 303.613 545.71 304.033 545.26C304.453 544.81 304.663 544.155 304.663 543.295V538.78H306.028ZM315.833 542.575C315.833 542.835 315.818 543.11 315.788 543.4H309.218C309.268 544.21 309.543 544.845 310.043 545.305C310.553 545.755 311.168 545.98 311.888 545.98C312.478 545.98 312.968 545.845 313.358 545.575C313.758 545.295 314.038 544.925 314.198 544.465H315.668C315.448 545.255 315.008 545.9 314.348 546.4C313.688 546.89 312.868 547.135 311.888 547.135C311.108 547.135 310.408 546.96 309.788 546.61C309.178 546.26 308.698 545.765 308.348 545.125C307.998 544.475 307.823 543.725 307.823 542.875C307.823 542.025 307.993 541.28 308.333 540.64C308.673 540 309.148 539.51 309.758 539.17C310.378 538.82 311.088 538.645 311.888 538.645C312.668 538.645 313.358 538.815 313.958 539.155C314.558 539.495 315.018 539.965 315.338 540.565C315.668 541.155 315.833 541.825 315.833 542.575ZM314.423 542.29C314.423 541.77 314.308 541.325 314.078 540.955C313.848 540.575 313.533 540.29 313.133 540.1C312.743 539.9 312.308 539.8 311.828 539.8C311.138 539.8 310.548 540.02 310.058 540.46C309.578 540.9 309.303 541.51 309.233 542.29H314.423ZM151.328 561.78L146.378 573.87H144.968L146.588 569.91L143.273 561.78H144.788L147.368 568.44L149.918 561.78H151.328ZM156.285 570.135C155.515 570.135 154.815 569.96 154.185 569.61C153.565 569.26 153.075 568.765 152.715 568.125C152.365 567.475 152.19 566.725 152.19 565.875C152.19 565.035 152.37 564.295 152.73 563.655C153.1 563.005 153.6 562.51 154.23 562.17C154.86 561.82 155.565 561.645 156.345 561.645C157.125 561.645 157.83 561.82 158.46 562.17C159.09 562.51 159.585 563 159.945 563.64C160.315 564.28 160.5 565.025 160.5 565.875C160.5 566.725 160.31 567.475 159.93 568.125C159.56 568.765 159.055 569.26 158.415 569.61C157.775 569.96 157.065 570.135 156.285 570.135ZM156.285 568.935C156.775 568.935 157.235 568.82 157.665 568.59C158.095 568.36 158.44 568.015 158.7 567.555C158.97 567.095 159.105 566.535 159.105 565.875C159.105 565.215 158.975 564.655 158.715 564.195C158.455 563.735 158.115 563.395 157.695 563.175C157.275 562.945 156.82 562.83 156.33 562.83C155.83 562.83 155.37 562.945 154.95 563.175C154.54 563.395 154.21 563.735 153.96 564.195C153.71 564.655 153.585 565.215 153.585 565.875C153.585 566.545 153.705 567.11 153.945 567.57C154.195 568.03 154.525 568.375 154.935 568.605C155.345 568.825 155.795 568.935 156.285 568.935ZM169.585 561.78V570H168.22V568.785C167.96 569.205 167.595 569.535 167.125 569.775C166.665 570.005 166.155 570.12 165.595 570.12C164.955 570.12 164.38 569.99 163.87 569.73C163.36 569.46 162.955 569.06 162.655 568.53C162.365 568 162.22 567.355 162.22 566.595V561.78H163.57V566.415C163.57 567.225 163.775 567.85 164.185 568.29C164.595 568.72 165.155 568.935 165.865 568.935C166.595 568.935 167.17 568.71 167.59 568.26C168.01 567.81 168.22 567.155 168.22 566.295V561.78H169.585ZM173.255 563.115C173.495 562.645 173.835 562.28 174.275 562.02C174.725 561.76 175.27 561.63 175.91 561.63V563.04H175.55C174.02 563.04 173.255 563.87 173.255 565.53V570H171.89V561.78H173.255V563.115ZM184.395 570.135C183.765 570.135 183.2 570.03 182.7 569.82C182.2 569.6 181.805 569.3 181.515 568.92C181.225 568.53 181.065 568.085 181.035 567.585H182.445C182.485 567.995 182.675 568.33 183.015 568.59C183.365 568.85 183.82 568.98 184.38 568.98C184.9 568.98 185.31 568.865 185.61 568.635C185.91 568.405 186.06 568.115 186.06 567.765C186.06 567.405 185.9 567.14 185.58 566.97C185.26 566.79 184.765 566.615 184.095 566.445C183.485 566.285 182.985 566.125 182.595 565.965C182.215 565.795 181.885 565.55 181.605 565.23C181.335 564.9 181.2 564.47 181.2 563.94C181.2 563.52 181.325 563.135 181.575 562.785C181.825 562.435 182.18 562.16 182.64 561.96C183.1 561.75 183.625 561.645 184.215 561.645C185.125 561.645 185.86 561.875 186.42 562.335C186.98 562.795 187.28 563.425 187.32 564.225H185.955C185.925 563.795 185.75 563.45 185.43 563.19C185.12 562.93 184.7 562.8 184.17 562.8C183.68 562.8 183.29 562.905 183 563.115C182.71 563.325 182.565 563.6 182.565 563.94C182.565 564.21 182.65 564.435 182.82 564.615C183 564.785 183.22 564.925 183.48 565.035C183.75 565.135 184.12 565.25 184.59 565.38C185.18 565.54 185.66 565.7 186.03 565.86C186.4 566.01 186.715 566.24 186.975 566.55C187.245 566.86 187.385 567.265 187.395 567.765C187.395 568.215 187.27 568.62 187.02 568.98C186.77 569.34 186.415 569.625 185.955 569.835C185.505 570.035 184.985 570.135 184.395 570.135ZM196.822 565.575C196.822 565.835 196.807 566.11 196.777 566.4H190.207C190.257 567.21 190.532 567.845 191.032 568.305C191.542 568.755 192.157 568.98 192.877 568.98C193.467 568.98 193.957 568.845 194.347 568.575C194.747 568.295 195.027 567.925 195.187 567.465H196.657C196.437 568.255 195.997 568.9 195.337 569.4C194.677 569.89 193.857 570.135 192.877 570.135C192.097 570.135 191.397 569.96 190.777 569.61C190.167 569.26 189.687 568.765 189.337 568.125C188.987 567.475 188.812 566.725 188.812 565.875C188.812 565.025 188.982 564.28 189.322 563.64C189.662 563 190.137 562.51 190.747 562.17C191.367 561.82 192.077 561.645 192.877 561.645C193.657 561.645 194.347 561.815 194.947 562.155C195.547 562.495 196.007 562.965 196.327 563.565C196.657 564.155 196.822 564.825 196.822 565.575ZM195.412 565.29C195.412 564.77 195.297 564.325 195.067 563.955C194.837 563.575 194.522 563.29 194.122 563.1C193.732 562.9 193.297 562.8 192.817 562.8C192.127 562.8 191.537 563.02 191.047 563.46C190.567 563.9 190.292 564.51 190.222 565.29H195.412ZM198.113 565.86C198.113 565.02 198.283 564.285 198.623 563.655C198.963 563.015 199.428 562.52 200.018 562.17C200.618 561.82 201.283 561.645 202.013 561.645C202.733 561.645 203.358 561.8 203.888 562.11C204.418 562.42 204.813 562.81 205.073 563.28V561.78H206.453V570H205.073V568.47C204.803 568.95 204.398 569.35 203.858 569.67C203.328 569.98 202.708 570.135 201.998 570.135C201.268 570.135 200.608 569.955 200.018 569.595C199.428 569.235 198.963 568.73 198.623 568.08C198.283 567.43 198.113 566.69 198.113 565.86ZM205.073 565.875C205.073 565.255 204.948 564.715 204.698 564.255C204.448 563.795 204.108 563.445 203.678 563.205C203.258 562.955 202.793 562.83 202.283 562.83C201.773 562.83 201.308 562.95 200.888 563.19C200.468 563.43 200.133 563.78 199.883 564.24C199.633 564.7 199.508 565.24 199.508 565.86C199.508 566.49 199.633 567.04 199.883 567.51C200.133 567.97 200.468 568.325 200.888 568.575C201.308 568.815 201.773 568.935 202.283 568.935C202.793 568.935 203.258 568.815 203.678 568.575C204.108 568.325 204.448 567.97 204.698 567.51C204.948 567.04 205.073 566.495 205.073 565.875ZM210.125 563.115C210.365 562.645 210.705 562.28 211.145 562.02C211.595 561.76 212.14 561.63 212.78 561.63V563.04H212.42C210.89 563.04 210.125 563.87 210.125 565.53V570H208.76V561.78H210.125V563.115ZM213.846 565.875C213.846 565.025 214.016 564.285 214.356 563.655C214.696 563.015 215.166 562.52 215.766 562.17C216.376 561.82 217.071 561.645 217.851 561.645C218.861 561.645 219.691 561.89 220.341 562.38C221.001 562.87 221.436 563.55 221.646 564.42H220.176C220.036 563.92 219.761 563.525 219.351 563.235C218.951 562.945 218.451 562.8 217.851 562.8C217.071 562.8 216.441 563.07 215.961 563.61C215.481 564.14 215.241 564.895 215.241 565.875C215.241 566.865 215.481 567.63 215.961 568.17C216.441 568.71 217.071 568.98 217.851 568.98C218.451 568.98 218.951 568.84 219.351 568.56C219.751 568.28 220.026 567.88 220.176 567.36H221.646C221.426 568.2 220.986 568.875 220.326 569.385C219.666 569.885 218.841 570.135 217.851 570.135C217.071 570.135 216.376 569.96 215.766 569.61C215.166 569.26 214.696 568.765 214.356 568.125C214.016 567.485 213.846 566.735 213.846 565.875ZM227.547 561.63C228.167 561.63 228.727 561.765 229.227 562.035C229.727 562.295 230.117 562.69 230.397 563.22C230.687 563.75 230.832 564.395 230.832 565.155V570H229.482V565.35C229.482 564.53 229.277 563.905 228.867 563.475C228.457 563.035 227.897 562.815 227.187 562.815C226.467 562.815 225.892 563.04 225.462 563.49C225.042 563.94 224.832 564.595 224.832 565.455V570H223.467V558.9H224.832V562.95C225.102 562.53 225.472 562.205 225.942 561.975C226.422 561.745 226.957 561.63 227.547 561.63Z" fill="#333333"/>
<path d="M25.8454 63.667L29.4224 67.244C29.5765 67.4007 29.6624 67.6119 29.6615 67.8316C29.6606 68.0513 29.5729 68.2618 29.4176 68.4172C29.2622 68.5726 29.0517 68.6602 28.832 68.6611C28.6122 68.662 28.401 68.5761 28.2444 68.422L23.2444 63.422C23.1669 63.3447 23.1055 63.2529 23.0635 63.1519C23.0216 63.0508 23 62.9424 23 62.833C23 62.7236 23.0216 62.6152 23.0635 62.5142C23.1055 62.4131 23.1669 62.3213 23.2444 62.244L28.2444 57.244C28.401 57.0899 28.6122 57.004 28.832 57.0049C29.0517 57.0058 29.2622 57.0935 29.4176 57.2488C29.5729 57.4042 29.6606 57.6147 29.6615 57.8344C29.6624 58.0542 29.5765 58.2654 29.4224 58.422L25.8454 62H37.1674C37.3884 62 37.6004 62.0878 37.7568 62.2441C37.9131 62.4005 38.0009 62.6124 38.0009 62.8335C38.0009 63.0546 37.9131 63.2665 37.7568 63.4229C37.6004 63.5792 37.3884 63.667 37.1674 63.667H25.8454Z" fill="#333333"/>
<path d="M338 57.333H340.667" stroke="#A9A9A9" stroke-width="1.2" stroke-linecap="round" stroke-linejoin="round"/>
<path fill-rule="evenodd" clip-rule="evenodd" d="M340.667 58.667H344.667V56H340.667V58.667Z" stroke="#A9A9A9" stroke-width="1.2" stroke-linecap="round" stroke-linejoin="round"/>
<path d="M344.667 57.333H352" stroke="#A9A9A9" stroke-width="1.2" stroke-linecap="round" stroke-linejoin="round"/>
<path d="M352 62.667H349.333" stroke="#A9A9A9" stroke-width="1.2" stroke-linecap="round" stroke-linejoin="round"/>
<path fill-rule="evenodd" clip-rule="evenodd" d="M345.333 64H349.333V61.333H345.333V64Z" stroke="#A9A9A9" stroke-width="1.2" stroke-linecap="round" stroke-linejoin="round"/>
<path d="M345.333 62.667H338" stroke="#A9A9A9" stroke-width="1.2" stroke-linecap="round" stroke-linejoin="round"/>
<path d="M338 68H340.667" stroke="#A9A9A9" stroke-width="1.2" stroke-linecap="round" stroke-linejoin="round"/>
<path fill-rule="evenodd" clip-rule="evenodd" d="M340.667 69.334H344.667V66.667H340.667V69.334Z" stroke="#A9A9A9" stroke-width="1.2" stroke-linecap="round" stroke-linejoin="round"/>
<path d="M344.667 68H352" stroke="#A9A9A9" stroke-width="1.2" stroke-linecap="round" stroke-linejoin="round"/>
<rect x="53" y="137" width="268" height="266" fill="#D9D9D9"/>
</g>
<defs>
<filter id="filter0_d_957_429" x="31" y="635" width="313" height="64" filterUnits="userSpaceOnUse" color-interpolation-filters="sRGB">
<feFlood flood-opacity="0" result="BackgroundImageFix"/>
<feColorMatrix in="SourceAlpha" type="matrix" values="0 0 0 0 0 0 0 0 0 0 0 0 0 0 0 0 0 0 127 0" result="hardAlpha"/>
<feOffset dy="3"/>
<feGaussianBlur stdDeviation="3"/>
<feColorMatrix type="matrix" values="0 0 0 0 0 0 0 0 0 0 0 0 0 0 0 0 0 0 0.161 0"/>
<feBlend mode="normal" in2="BackgroundImageFix" result="effect1_dropShadow_957_429"/>
<feBlend mode="normal" in="SourceGraphic" in2="effect1_dropShadow_957_429" result="shape"/>
</filter>
<filter id="filter1_d_957_429" x="31" y="704" width="313" height="64" filterUnits="userSpaceOnUse" color-interpolation-filters="sRGB">
<feFlood flood-opacity="0" result="BackgroundImageFix"/>
<feColorMatrix in="SourceAlpha" type="matrix" values="0 0 0 0 0 0 0 0 0 0 0 0 0 0 0 0 0 0 127 0" result="hardAlpha"/>
<feOffset dy="3"/>
<feGaussianBlur stdDeviation="3"/>
<feColorMatrix type="matrix" values="0 0 0 0 0 0 0 0 0 0 0 0 0 0 0 0 0 0 0.161 0"/>
<feBlend mode="normal" in2="BackgroundImageFix" result="effect1_dropShadow_957_429"/>
<feBlend mode="normal" in="SourceGraphic" in2="effect1_dropShadow_957_429" result="shape"/>
</filter>
<clipPath id="clip0_957_429">
<rect width="375" height="812" fill="white"/>
</clipPath>
</defs>
</svg>
