<svg width="375" height="812" viewBox="0 0 375 812" fill="none" xmlns="http://www.w3.org/2000/svg">
<g clip-path="url(#clip0_940_194)">
<rect width="375" height="812" fill="#D3D3D3"/>
<path d="M375 0H0V812H375V0Z" fill="#D3D3D3"/>
<g filter="url(#filter0_d_940_194)">
<path d="M211 326H157C144.297 326 134 336.297 134 349V403C134 415.703 144.297 426 157 426H211C223.703 426 234 415.703 234 403V349C234 336.297 223.703 326 211 326Z" fill="#999595"/>
</g>
<g filter="url(#filter1_d_940_194)">
<path d="M196 326H157C144.297 326 134 336.297 134 349V388C134 400.703 144.297 411 157 411H196C208.703 411 219 400.703 219 388V349C219 336.297 208.703 326 196 326Z" fill="#C4C4C4"/>
</g>
<g filter="url(#filter2_d_940_194)">
<path d="M181 326H157C144.297 326 134 336.297 134 349V373C134 385.703 144.297 396 157 396H181C193.703 396 204 385.703 204 373V349C204 336.297 193.703 326 181 326Z" fill="#D3D3D3"/>
</g>
<g filter="url(#filter3_d_940_194)">
<path d="M166 326H157C144.297 326 134 336.297 134 349V358C134 370.703 144.297 381 157 381H166C178.703 381 189 370.703 189 358V349C189 336.297 178.703 326 166 326Z" fill="#F5F5F5"/>
</g>
<path d="M99.2705 498L91.459 475.345H91.292C91.3291 475.852 91.3724 476.545 91.4219 477.423C91.4714 478.301 91.5146 479.241 91.5518 480.243C91.5889 481.245 91.6074 482.204 91.6074 483.119V498H87.5625V470.873H93.8154L101.33 492.526H101.441L109.216 470.873H115.45V498H111.201V482.896C111.201 482.068 111.214 481.171 111.238 480.206C111.275 479.241 111.312 478.326 111.35 477.46C111.399 476.594 111.436 475.901 111.461 475.382H111.312L103.204 498H99.2705ZM130.201 477.07C132.799 477.07 134.759 477.646 136.083 478.796C137.419 479.946 138.087 481.74 138.087 484.177V498H134.988L134.153 495.087H134.005C133.424 495.829 132.824 496.441 132.205 496.924C131.587 497.406 130.869 497.765 130.053 498C129.249 498.247 128.265 498.371 127.103 498.371C125.878 498.371 124.783 498.148 123.818 497.703C122.854 497.245 122.093 496.553 121.536 495.625C120.979 494.697 120.701 493.522 120.701 492.1C120.701 489.984 121.487 488.395 123.058 487.331C124.641 486.267 127.028 485.68 130.22 485.568L133.782 485.438V484.362C133.782 482.94 133.448 481.925 132.78 481.319C132.125 480.713 131.197 480.41 129.997 480.41C128.97 480.41 127.975 480.559 127.01 480.855C126.045 481.152 125.105 481.517 124.189 481.95L122.779 478.87C123.781 478.338 124.919 477.905 126.193 477.571C127.48 477.237 128.816 477.07 130.201 477.07ZM133.764 488.185L131.11 488.277C128.933 488.352 127.406 488.723 126.527 489.391C125.649 490.059 125.21 490.974 125.21 492.137C125.21 493.151 125.513 493.893 126.119 494.363C126.725 494.821 127.523 495.05 128.513 495.05C130.022 495.05 131.271 494.623 132.261 493.77C133.263 492.904 133.764 491.636 133.764 489.966V488.185ZM150.055 507.129C147.271 507.129 145.138 506.628 143.653 505.626C142.169 504.624 141.427 503.22 141.427 501.414C141.427 500.152 141.823 499.082 142.614 498.204C143.406 497.338 144.538 496.738 146.01 496.404C145.453 496.157 144.971 495.773 144.562 495.254C144.167 494.722 143.969 494.134 143.969 493.491C143.969 492.724 144.185 492.069 144.618 491.524C145.051 490.98 145.701 490.454 146.566 489.947C145.49 489.49 144.624 488.747 143.969 487.721C143.326 486.682 143.004 485.463 143.004 484.065C143.004 482.581 143.319 481.319 143.95 480.28C144.581 479.229 145.503 478.431 146.715 477.887C147.927 477.33 149.393 477.052 151.112 477.052C151.483 477.052 151.885 477.076 152.318 477.126C152.764 477.163 153.172 477.213 153.543 477.274C153.926 477.324 154.217 477.38 154.415 477.441H161.521V479.872L158.033 480.521C158.367 480.992 158.633 481.53 158.831 482.136C159.029 482.729 159.128 483.379 159.128 484.084C159.128 486.212 158.392 487.888 156.92 489.112C155.46 490.325 153.444 490.931 150.871 490.931C150.253 490.906 149.653 490.856 149.071 490.782C148.626 491.054 148.286 491.357 148.051 491.691C147.816 492.013 147.698 492.378 147.698 492.786C147.698 493.12 147.816 493.392 148.051 493.603C148.286 493.8 148.632 493.949 149.09 494.048C149.56 494.147 150.129 494.196 150.797 494.196H154.341C156.592 494.196 158.312 494.673 159.499 495.625C160.687 496.577 161.28 497.975 161.28 499.818C161.28 502.156 160.315 503.956 158.386 505.218C156.456 506.492 153.679 507.129 150.055 507.129ZM150.222 504.067C151.743 504.067 153.023 503.919 154.062 503.622C155.102 503.325 155.887 502.898 156.419 502.342C156.951 501.798 157.217 501.148 157.217 500.394C157.217 499.726 157.05 499.212 156.716 498.854C156.382 498.495 155.881 498.247 155.213 498.111C154.545 497.975 153.716 497.907 152.727 497.907H149.498C148.694 497.907 147.983 498.031 147.364 498.278C146.746 498.538 146.263 498.909 145.917 499.392C145.583 499.874 145.416 500.455 145.416 501.136C145.416 502.076 145.83 502.799 146.659 503.307C147.5 503.814 148.688 504.067 150.222 504.067ZM151.075 488.073C152.349 488.073 153.296 487.727 153.914 487.034C154.533 486.329 154.842 485.34 154.842 484.065C154.842 482.68 154.52 481.641 153.877 480.948C153.246 480.256 152.306 479.909 151.057 479.909C149.832 479.909 148.898 480.262 148.255 480.967C147.624 481.672 147.309 482.717 147.309 484.103C147.309 485.352 147.624 486.329 148.255 487.034C148.898 487.727 149.838 488.073 151.075 488.073ZM175.976 477.07C178.289 477.07 180.089 477.67 181.375 478.87C182.674 480.058 183.323 481.969 183.323 484.604V498H178.963V485.42C178.963 483.824 178.635 482.631 177.979 481.839C177.324 481.035 176.31 480.633 174.937 480.633C172.945 480.633 171.56 481.245 170.78 482.47C170.013 483.694 169.63 485.469 169.63 487.795V498H165.27V477.46H168.665L169.277 480.243H169.519C169.964 479.526 170.514 478.938 171.17 478.48C171.838 478.01 172.58 477.658 173.396 477.423C174.225 477.188 175.085 477.07 175.976 477.07ZM193.788 477.46V498H189.428V477.46H193.788ZM191.636 469.593C192.304 469.593 192.879 469.772 193.361 470.131C193.856 470.49 194.104 471.108 194.104 471.986C194.104 472.852 193.856 473.471 193.361 473.842C192.879 474.201 192.304 474.38 191.636 474.38C190.943 474.38 190.355 474.201 189.873 473.842C189.403 473.471 189.168 472.852 189.168 471.986C189.168 471.108 189.403 470.49 189.873 470.131C190.355 469.772 190.943 469.593 191.636 469.593ZM207.686 494.846C208.255 494.846 208.817 494.796 209.374 494.697C209.931 494.586 210.438 494.456 210.896 494.308V497.61C210.413 497.821 209.788 498 209.021 498.148C208.255 498.297 207.457 498.371 206.628 498.371C205.465 498.371 204.42 498.179 203.492 497.796C202.564 497.4 201.828 496.726 201.284 495.773C200.74 494.821 200.468 493.504 200.468 491.821V480.781H197.666V478.833L200.672 477.293L202.101 472.896H204.847V477.46H210.729V480.781H204.847V491.766C204.847 492.805 205.106 493.578 205.626 494.085C206.146 494.592 206.832 494.846 207.686 494.846ZM232.976 477.46V498H229.543L228.949 495.235H228.708C228.275 495.94 227.725 496.528 227.057 496.998C226.389 497.456 225.646 497.796 224.83 498.019C224.014 498.254 223.154 498.371 222.251 498.371C220.705 498.371 219.381 498.111 218.28 497.592C217.192 497.06 216.357 496.243 215.775 495.143C215.194 494.042 214.903 492.619 214.903 490.875V477.46H219.282V490.059C219.282 491.654 219.604 492.848 220.247 493.64C220.903 494.431 221.917 494.827 223.29 494.827C224.614 494.827 225.665 494.555 226.444 494.011C227.224 493.466 227.774 492.662 228.096 491.599C228.43 490.535 228.597 489.23 228.597 487.684V477.46H232.976ZM246.131 498.371C243.682 498.371 241.715 497.48 240.23 495.699C238.758 493.906 238.022 491.265 238.022 487.776C238.022 484.251 238.771 481.585 240.268 479.779C241.777 477.973 243.762 477.07 246.224 477.07C247.263 477.07 248.172 477.213 248.951 477.497C249.73 477.769 250.398 478.14 250.955 478.61C251.524 479.08 252.007 479.606 252.402 480.188H252.606C252.545 479.804 252.47 479.254 252.384 478.536C252.31 477.806 252.272 477.132 252.272 476.514V469.129H256.651V498H253.237L252.458 495.198H252.272C251.901 495.792 251.431 496.33 250.862 496.812C250.306 497.283 249.638 497.66 248.858 497.944C248.091 498.229 247.182 498.371 246.131 498.371ZM247.355 494.827C249.223 494.827 250.541 494.289 251.308 493.213C252.075 492.137 252.47 490.522 252.495 488.37V487.795C252.495 485.494 252.124 483.731 251.382 482.507C250.64 481.27 249.285 480.651 247.318 480.651C245.747 480.651 244.548 481.288 243.719 482.562C242.902 483.824 242.494 485.587 242.494 487.851C242.494 490.114 242.902 491.846 243.719 493.046C244.548 494.233 245.76 494.827 247.355 494.827ZM271.087 477.07C272.918 477.07 274.489 477.448 275.8 478.202C277.111 478.957 278.119 480.027 278.824 481.412C279.529 482.798 279.882 484.455 279.882 486.385V488.723H266.17C266.219 490.714 266.751 492.248 267.766 493.324C268.792 494.4 270.227 494.938 272.07 494.938C273.382 494.938 274.557 494.815 275.596 494.567C276.647 494.308 277.729 493.93 278.843 493.436V496.979C277.816 497.462 276.771 497.814 275.707 498.037C274.643 498.26 273.369 498.371 271.885 498.371C269.868 498.371 268.093 497.981 266.56 497.202C265.038 496.41 263.844 495.235 262.979 493.677C262.125 492.118 261.698 490.182 261.698 487.869C261.698 485.568 262.088 483.614 262.867 482.006C263.646 480.398 264.741 479.173 266.151 478.332C267.562 477.491 269.207 477.07 271.087 477.07ZM271.087 480.354C269.714 480.354 268.601 480.8 267.747 481.69C266.906 482.581 266.411 483.886 266.263 485.605H275.614C275.602 484.579 275.429 483.67 275.095 482.878C274.773 482.086 274.278 481.468 273.61 481.022C272.955 480.577 272.114 480.354 271.087 480.354Z" fill="white"/>
</g>
<defs>
<filter id="filter0_d_940_194" x="128" y="323" width="112" height="112" filterUnits="userSpaceOnUse" color-interpolation-filters="sRGB">
<feFlood flood-opacity="0" result="BackgroundImageFix"/>
<feColorMatrix in="SourceAlpha" type="matrix" values="0 0 0 0 0 0 0 0 0 0 0 0 0 0 0 0 0 0 127 0" result="hardAlpha"/>
<feOffset dy="3"/>
<feGaussianBlur stdDeviation="3"/>
<feColorMatrix type="matrix" values="0 0 0 0 0 0 0 0 0 0 0 0 0 0 0 0 0 0 0.161 0"/>
<feBlend mode="normal" in2="BackgroundImageFix" result="effect1_dropShadow_940_194"/>
<feBlend mode="normal" in="SourceGraphic" in2="effect1_dropShadow_940_194" result="shape"/>
</filter>
<filter id="filter1_d_940_194" x="128" y="323" width="97" height="97" filterUnits="userSpaceOnUse" color-interpolation-filters="sRGB">
<feFlood flood-opacity="0" result="BackgroundImageFix"/>
<feColorMatrix in="SourceAlpha" type="matrix" values="0 0 0 0 0 0 0 0 0 0 0 0 0 0 0 0 0 0 127 0" result="hardAlpha"/>
<feOffset dy="3"/>
<feGaussianBlur stdDeviation="3"/>
<feColorMatrix type="matrix" values="0 0 0 0 0 0 0 0 0 0 0 0 0 0 0 0 0 0 0.161 0"/>
<feBlend mode="normal" in2="BackgroundImageFix" result="effect1_dropShadow_940_194"/>
<feBlend mode="normal" in="SourceGraphic" in2="effect1_dropShadow_940_194" result="shape"/>
</filter>
<filter id="filter2_d_940_194" x="128" y="323" width="82" height="82" filterUnits="userSpaceOnUse" color-interpolation-filters="sRGB">
<feFlood flood-opacity="0" result="BackgroundImageFix"/>
<feColorMatrix in="SourceAlpha" type="matrix" values="0 0 0 0 0 0 0 0 0 0 0 0 0 0 0 0 0 0 127 0" result="hardAlpha"/>
<feOffset dy="3"/>
<feGaussianBlur stdDeviation="3"/>
<feColorMatrix type="matrix" values="0 0 0 0 0 0 0 0 0 0 0 0 0 0 0 0 0 0 0.161 0"/>
<feBlend mode="normal" in2="BackgroundImageFix" result="effect1_dropShadow_940_194"/>
<feBlend mode="normal" in="SourceGraphic" in2="effect1_dropShadow_940_194" result="shape"/>
</filter>
<filter id="filter3_d_940_194" x="128" y="323" width="67" height="67" filterUnits="userSpaceOnUse" color-interpolation-filters="sRGB">
<feFlood flood-opacity="0" result="BackgroundImageFix"/>
<feColorMatrix in="SourceAlpha" type="matrix" values="0 0 0 0 0 0 0 0 0 0 0 0 0 0 0 0 0 0 127 0" result="hardAlpha"/>
<feOffset dy="3"/>
<feGaussianBlur stdDeviation="3"/>
<feColorMatrix type="matrix" values="0 0 0 0 0 0 0 0 0 0 0 0 0 0 0 0 0 0 0.161 0"/>
<feBlend mode="normal" in2="BackgroundImageFix" result="effect1_dropShadow_940_194"/>
<feBlend mode="normal" in="SourceGraphic" in2="effect1_dropShadow_940_194" result="shape"/>
</filter>
<clipPath id="clip0_940_194">
<rect width="375" height="812" fill="white"/>
</clipPath>
</defs>
</svg>
