<svg width="375" height="812" viewBox="0 0 375 812" fill="none" xmlns="http://www.w3.org/2000/svg">
<g clip-path="url(#clip0_941_209)">
<rect width="375" height="812" fill="#D3D3D3"/>
<path d="M375 0H0V812H375V0Z" fill="#D3D3D3"/>
<g filter="url(#filter0_d_941_209)">
<path d="M211 326H157C144.297 326 134 336.297 134 349V403C134 415.703 144.297 426 157 426H211C223.703 426 234 415.703 234 403V349C234 336.297 223.703 326 211 326Z" fill="#999595"/>
</g>
<g filter="url(#filter1_d_941_209)">
<path d="M196 326H157C144.297 326 134 336.297 134 349V388C134 400.703 144.297 411 157 411H196C208.703 411 219 400.703 219 388V349C219 336.297 208.703 326 196 326Z" fill="#C4C4C4"/>
</g>
<g filter="url(#filter2_d_941_209)">
<path d="M181 326H157C144.297 326 134 336.297 134 349V373C134 385.703 144.297 396 157 396H181C193.703 396 204 385.703 204 373V349C204 336.297 193.703 326 181 326Z" fill="#D3D3D3"/>
</g>
<g filter="url(#filter3_d_941_209)">
<path d="M166 326H157C144.297 326 134 336.297 134 349V358C134 370.703 144.297 381 157 381H166C178.703 381 189 370.703 189 358V349C189 336.297 178.703 326 166 326Z" fill="#F5F5F5"/>
</g>
<path d="M99.2705 498L91.459 475.345H91.292C91.3291 475.852 91.3724 476.545 91.4219 477.423C91.4714 478.301 91.5146 479.241 91.5518 480.243C91.5889 481.245 91.6074 482.204 91.6074 483.119V498H87.5625V470.873H93.8154L101.33 492.526H101.441L109.216 470.873H115.45V498H111.201V482.896C111.201 482.068 111.214 481.171 111.238 480.206C111.275 479.241 111.312 478.326 111.35 477.46C111.399 476.594 111.436 475.901 111.461 475.382H111.312L103.204 498H99.2705ZM130.201 477.07C132.799 477.07 134.759 477.646 136.083 478.796C137.419 479.946 138.087 481.74 138.087 484.177V498H134.988L134.153 495.087H134.005C133.424 495.829 132.824 496.441 132.205 496.924C131.587 497.406 130.869 497.765 130.053 498C129.249 498.247 128.265 498.371 127.103 498.371C125.878 498.371 124.783 498.148 123.818 497.703C122.854 497.245 122.093 496.553 121.536 495.625C120.979 494.697 120.701 493.522 120.701 492.1C120.701 489.984 121.487 488.395 123.058 487.331C124.641 486.267 127.028 485.68 130.22 485.568L133.782 485.438V484.362C133.782 482.94 133.448 481.925 132.78 481.319C132.125 480.713 131.197 480.41 129.997 480.41C128.97 480.41 127.975 480.559 127.01 480.855C126.045 481.152 125.105 481.517 124.189 481.95L122.779 478.87C123.781 478.338 124.919 477.905 126.193 477.571C127.48 477.237 128.816 477.07 130.201 477.07ZM133.764 488.185L131.11 488.277C128.933 488.352 127.406 488.723 126.527 489.391C125.649 490.059 125.21 490.974 125.21 492.137C125.21 493.151 125.513 493.893 126.119 494.363C126.725 494.821 127.523 495.05 128.513 495.05C130.022 495.05 131.271 494.623 132.261 493.77C133.263 492.904 133.764 491.636 133.764 489.966V488.185ZM150.055 507.129C147.271 507.129 145.138 506.628 143.653 505.626C142.169 504.624 141.427 503.22 141.427 501.414C141.427 500.152 141.823 499.082 142.614 498.204C143.406 497.338 144.538 496.738 146.01 496.404C145.453 496.157 144.971 495.773 144.562 495.254C144.167 494.722 143.969 494.134 143.969 493.491C143.969 492.724 144.185 492.069 144.618 491.524C145.051 490.98 145.701 490.454 146.566 489.947C145.49 489.49 144.624 488.747 143.969 487.721C143.326 486.682 143.004 485.463 143.004 484.065C143.004 482.581 143.319 481.319 143.95 480.28C144.581 479.229 145.503 478.431 146.715 477.887C147.927 477.33 149.393 477.052 151.112 477.052C151.483 477.052 151.885 477.076 152.318 477.126C152.764 477.163 153.172 477.213 153.543 477.274C153.926 477.324 154.217 477.38 154.415 477.441H161.521V479.872L158.033 480.521C158.367 480.992 158.633 481.53 158.831 482.136C159.029 482.729 159.128 483.379 159.128 484.084C159.128 486.212 158.392 487.888 156.92 489.112C155.46 490.325 153.444 490.931 150.871 490.931C150.253 490.906 149.653 490.856 149.071 490.782C148.626 491.054 148.286 491.357 148.051 491.691C147.816 492.013 147.698 492.378 147.698 492.786C147.698 493.12 147.816 493.392 148.051 493.603C148.286 493.8 148.632 493.949 149.09 494.048C149.56 494.147 150.129 494.196 150.797 494.196H154.341C156.592 494.196 158.312 494.673 159.499 495.625C160.687 496.577 161.28 497.975 161.28 499.818C161.28 502.156 160.315 503.956 158.386 505.218C156.456 506.492 153.679 507.129 150.055 507.129ZM150.222 504.067C151.743 504.067 153.023 503.919 154.062 503.622C155.102 503.325 155.887 502.898 156.419 502.342C156.951 501.798 157.217 501.148 157.217 500.394C157.217 499.726 157.05 499.212 156.716 498.854C156.382 498.495 155.881 498.247 155.213 498.111C154.545 497.975 153.716 497.907 152.727 497.907H149.498C148.694 497.907 147.983 498.031 147.364 498.278C146.746 498.538 146.263 498.909 145.917 499.392C145.583 499.874 145.416 500.455 145.416 501.136C145.416 502.076 145.83 502.799 146.659 503.307C147.5 503.814 148.688 504.067 150.222 504.067ZM151.075 488.073C152.349 488.073 153.296 487.727 153.914 487.034C154.533 486.329 154.842 485.34 154.842 484.065C154.842 482.68 154.52 481.641 153.877 480.948C153.246 480.256 152.306 479.909 151.057 479.909C149.832 479.909 148.898 480.262 148.255 480.967C147.624 481.672 147.309 482.717 147.309 484.103C147.309 485.352 147.624 486.329 148.255 487.034C148.898 487.727 149.838 488.073 151.075 488.073ZM175.976 477.07C178.289 477.07 180.089 477.67 181.375 478.87C182.674 480.058 183.323 481.969 183.323 484.604V498H178.963V485.42C178.963 483.824 178.635 482.631 177.979 481.839C177.324 481.035 176.31 480.633 174.937 480.633C172.945 480.633 171.56 481.245 170.78 482.47C170.013 483.694 169.63 485.469 169.63 487.795V498H165.27V477.46H168.665L169.277 480.243H169.519C169.964 479.526 170.514 478.938 171.17 478.48C171.838 478.01 172.58 477.658 173.396 477.423C174.225 477.188 175.085 477.07 175.976 477.07ZM193.788 477.46V498H189.428V477.46H193.788ZM191.636 469.593C192.304 469.593 192.879 469.772 193.361 470.131C193.856 470.49 194.104 471.108 194.104 471.986C194.104 472.852 193.856 473.471 193.361 473.842C192.879 474.201 192.304 474.38 191.636 474.38C190.943 474.38 190.355 474.201 189.873 473.842C189.403 473.471 189.168 472.852 189.168 471.986C189.168 471.108 189.403 470.49 189.873 470.131C190.355 469.772 190.943 469.593 191.636 469.593ZM207.686 494.846C208.255 494.846 208.817 494.796 209.374 494.697C209.931 494.586 210.438 494.456 210.896 494.308V497.61C210.413 497.821 209.788 498 209.021 498.148C208.255 498.297 207.457 498.371 206.628 498.371C205.465 498.371 204.42 498.179 203.492 497.796C202.564 497.4 201.828 496.726 201.284 495.773C200.74 494.821 200.468 493.504 200.468 491.821V480.781H197.666V478.833L200.672 477.293L202.101 472.896H204.847V477.46H210.729V480.781H204.847V491.766C204.847 492.805 205.106 493.578 205.626 494.085C206.146 494.592 206.832 494.846 207.686 494.846ZM232.976 477.46V498H229.543L228.949 495.235H228.708C228.275 495.94 227.725 496.528 227.057 496.998C226.389 497.456 225.646 497.796 224.83 498.019C224.014 498.254 223.154 498.371 222.251 498.371C220.705 498.371 219.381 498.111 218.28 497.592C217.192 497.06 216.357 496.243 215.775 495.143C215.194 494.042 214.903 492.619 214.903 490.875V477.46H219.282V490.059C219.282 491.654 219.604 492.848 220.247 493.64C220.903 494.431 221.917 494.827 223.29 494.827C224.614 494.827 225.665 494.555 226.444 494.011C227.224 493.466 227.774 492.662 228.096 491.599C228.43 490.535 228.597 489.23 228.597 487.684V477.46H232.976ZM246.131 498.371C243.682 498.371 241.715 497.48 240.23 495.699C238.758 493.906 238.022 491.265 238.022 487.776C238.022 484.251 238.771 481.585 240.268 479.779C241.777 477.973 243.762 477.07 246.224 477.07C247.263 477.07 248.172 477.213 248.951 477.497C249.73 477.769 250.398 478.14 250.955 478.61C251.524 479.08 252.007 479.606 252.402 480.188H252.606C252.545 479.804 252.47 479.254 252.384 478.536C252.31 477.806 252.272 477.132 252.272 476.514V469.129H256.651V498H253.237L252.458 495.198H252.272C251.901 495.792 251.431 496.33 250.862 496.812C250.306 497.283 249.638 497.66 248.858 497.944C248.091 498.229 247.182 498.371 246.131 498.371ZM247.355 494.827C249.223 494.827 250.541 494.289 251.308 493.213C252.075 492.137 252.47 490.522 252.495 488.37V487.795C252.495 485.494 252.124 483.731 251.382 482.507C250.64 481.27 249.285 480.651 247.318 480.651C245.747 480.651 244.548 481.288 243.719 482.562C242.902 483.824 242.494 485.587 242.494 487.851C242.494 490.114 242.902 491.846 243.719 493.046C244.548 494.233 245.76 494.827 247.355 494.827ZM271.087 477.07C272.918 477.07 274.489 477.448 275.8 478.202C277.111 478.957 278.119 480.027 278.824 481.412C279.529 482.798 279.882 484.455 279.882 486.385V488.723H266.17C266.219 490.714 266.751 492.248 267.766 493.324C268.792 494.4 270.227 494.938 272.07 494.938C273.382 494.938 274.557 494.815 275.596 494.567C276.647 494.308 277.729 493.93 278.843 493.436V496.979C277.816 497.462 276.771 497.814 275.707 498.037C274.643 498.26 273.369 498.371 271.885 498.371C269.868 498.371 268.093 497.981 266.56 497.202C265.038 496.41 263.844 495.235 262.979 493.677C262.125 492.118 261.698 490.182 261.698 487.869C261.698 485.568 262.088 483.614 262.867 482.006C263.646 480.398 264.741 479.173 266.151 478.332C267.562 477.491 269.207 477.07 271.087 477.07ZM271.087 480.354C269.714 480.354 268.601 480.8 267.747 481.69C266.906 482.581 266.411 483.886 266.263 485.605H275.614C275.602 484.579 275.429 483.67 275.095 482.878C274.773 482.086 274.278 481.468 273.61 481.022C272.955 480.577 272.114 480.354 271.087 480.354Z" fill="white"/>
<g filter="url(#filter4_d_941_209)">
<path d="M327 653H52C44.8203 653 39 658.82 39 666V692C39 699.18 44.8203 705 52 705H327C334.18 705 340 699.18 340 692V666C340 658.82 334.18 653 327 653Z" fill="#F5F5F5"/>
</g>
<path d="M156.182 680.39H159.822V685.597C159.255 685.778 158.679 685.915 158.093 686.007C157.507 686.1 156.829 686.146 156.057 686.146C154.436 686.146 153.174 685.666 152.271 684.704C151.367 683.737 150.916 682.384 150.916 680.646C150.916 679.533 151.138 678.559 151.582 677.724C152.031 676.884 152.676 676.244 153.516 675.805C154.355 675.36 155.339 675.138 156.467 675.138C157.61 675.138 158.674 675.348 159.661 675.768L159.177 676.867C158.21 676.457 157.28 676.251 156.387 676.251C155.083 676.251 154.065 676.64 153.333 677.416C152.6 678.192 152.234 679.269 152.234 680.646C152.234 682.091 152.585 683.188 153.289 683.935C153.997 684.682 155.034 685.055 156.401 685.055C157.144 685.055 157.869 684.97 158.577 684.799V681.503H156.182V680.39ZM165.608 686.146C164.421 686.146 163.484 685.785 162.795 685.062C162.112 684.34 161.77 683.336 161.77 682.052C161.77 680.758 162.087 679.73 162.722 678.969C163.362 678.207 164.219 677.826 165.293 677.826C166.299 677.826 167.095 678.158 167.681 678.822C168.267 679.481 168.56 680.353 168.56 681.437V682.206H163.03C163.054 683.148 163.291 683.864 163.74 684.352C164.194 684.84 164.832 685.084 165.652 685.084C166.516 685.084 167.371 684.904 168.215 684.542V685.626C167.786 685.812 167.378 685.944 166.992 686.022C166.611 686.105 166.15 686.146 165.608 686.146ZM165.278 678.844C164.634 678.844 164.119 679.054 163.733 679.474C163.352 679.894 163.127 680.475 163.059 681.217H167.256C167.256 680.451 167.085 679.865 166.743 679.459C166.401 679.049 165.913 678.844 165.278 678.844ZM173.232 685.143C173.447 685.143 173.655 685.128 173.855 685.099C174.055 685.065 174.214 685.031 174.331 684.997V685.927C174.199 685.99 174.004 686.042 173.745 686.081C173.491 686.125 173.262 686.146 173.057 686.146C171.504 686.146 170.728 685.329 170.728 683.693V678.917H169.578V678.332L170.728 677.826L171.24 676.112H171.943V677.973H174.272V678.917H171.943V683.642C171.943 684.125 172.058 684.496 172.288 684.755C172.517 685.014 172.832 685.143 173.232 685.143ZM186.064 683.151C186.064 684.093 185.723 684.828 185.039 685.355C184.355 685.883 183.428 686.146 182.256 686.146C180.986 686.146 180.01 685.983 179.326 685.656V684.455C179.766 684.64 180.244 684.787 180.762 684.894C181.279 685.001 181.792 685.055 182.3 685.055C183.13 685.055 183.755 684.899 184.175 684.586C184.595 684.269 184.805 683.83 184.805 683.268C184.805 682.897 184.729 682.594 184.578 682.36C184.431 682.121 184.182 681.901 183.831 681.701C183.484 681.5 182.954 681.273 182.241 681.02C181.245 680.663 180.532 680.241 180.103 679.752C179.678 679.264 179.465 678.627 179.465 677.841C179.465 677.016 179.775 676.359 180.396 675.871C181.016 675.382 181.836 675.138 182.856 675.138C183.921 675.138 184.9 675.333 185.793 675.724L185.405 676.808C184.521 676.437 183.662 676.251 182.827 676.251C182.168 676.251 181.653 676.393 181.282 676.676C180.911 676.959 180.725 677.353 180.725 677.855C180.725 678.227 180.793 678.532 180.93 678.771C181.067 679.005 181.296 679.223 181.619 679.423C181.946 679.618 182.444 679.835 183.113 680.075C184.236 680.475 185.007 680.905 185.427 681.364C185.852 681.823 186.064 682.418 186.064 683.151ZM190.664 685.143C190.879 685.143 191.086 685.128 191.287 685.099C191.487 685.065 191.646 685.031 191.763 684.997V685.927C191.631 685.99 191.436 686.042 191.177 686.081C190.923 686.125 190.693 686.146 190.488 686.146C188.936 686.146 188.159 685.329 188.159 683.693V678.917H187.009V678.332L188.159 677.826L188.672 676.112H189.375V677.973H191.704V678.917H189.375V683.642C189.375 684.125 189.49 684.496 189.719 684.755C189.949 685.014 190.264 685.143 190.664 685.143ZM198.311 686L198.069 684.857H198.01C197.61 685.36 197.209 685.702 196.809 685.883C196.414 686.059 195.918 686.146 195.322 686.146C194.526 686.146 193.901 685.941 193.447 685.531C192.998 685.121 192.773 684.538 192.773 683.781C192.773 682.16 194.07 681.31 196.663 681.232L198.025 681.188V680.69C198.025 680.06 197.888 679.596 197.615 679.298C197.346 678.996 196.914 678.844 196.318 678.844C195.649 678.844 194.893 679.049 194.048 679.459L193.674 678.529C194.07 678.314 194.502 678.146 194.971 678.024C195.444 677.902 195.918 677.841 196.392 677.841C197.349 677.841 198.057 678.053 198.516 678.478C198.979 678.903 199.211 679.584 199.211 680.521V686H198.311ZM195.564 685.143C196.321 685.143 196.914 684.936 197.344 684.521C197.778 684.105 197.996 683.524 197.996 682.777V682.052L196.78 682.104C195.813 682.138 195.115 682.289 194.685 682.558C194.26 682.821 194.048 683.234 194.048 683.795C194.048 684.235 194.18 684.569 194.443 684.799C194.712 685.028 195.085 685.143 195.564 685.143ZM205.386 677.826C205.742 677.826 206.062 677.855 206.345 677.914L206.177 679.042C205.845 678.969 205.552 678.932 205.298 678.932C204.648 678.932 204.092 679.196 203.628 679.723C203.169 680.25 202.939 680.907 202.939 681.693V686H201.724V677.973H202.727L202.866 679.459H202.925C203.223 678.937 203.582 678.534 204.001 678.251C204.421 677.968 204.883 677.826 205.386 677.826ZM210.439 685.143C210.654 685.143 210.862 685.128 211.062 685.099C211.262 685.065 211.421 685.031 211.538 684.997V685.927C211.406 685.99 211.211 686.042 210.952 686.081C210.698 686.125 210.469 686.146 210.264 686.146C208.711 686.146 207.935 685.329 207.935 683.693V678.917H206.785V678.332L207.935 677.826L208.447 676.112H209.15V677.973H211.479V678.917H209.15V683.642C209.15 684.125 209.265 684.496 209.495 684.755C209.724 685.014 210.039 685.143 210.439 685.143ZM216.541 686.146C215.354 686.146 214.417 685.785 213.728 685.062C213.044 684.34 212.703 683.336 212.703 682.052C212.703 680.758 213.02 679.73 213.655 678.969C214.294 678.207 215.151 677.826 216.226 677.826C217.231 677.826 218.027 678.158 218.613 678.822C219.199 679.481 219.492 680.353 219.492 681.437V682.206H213.962C213.987 683.148 214.224 683.864 214.673 684.352C215.127 684.84 215.764 685.084 216.584 685.084C217.449 685.084 218.303 684.904 219.148 684.542V685.626C218.718 685.812 218.311 685.944 217.925 686.022C217.544 686.105 217.083 686.146 216.541 686.146ZM216.211 678.844C215.566 678.844 215.051 679.054 214.666 679.474C214.285 679.894 214.06 680.475 213.992 681.217H218.188C218.188 680.451 218.018 679.865 217.676 679.459C217.334 679.049 216.846 678.844 216.211 678.844ZM227.036 684.923H226.97C226.409 685.739 225.569 686.146 224.451 686.146C223.401 686.146 222.583 685.788 221.997 685.07C221.416 684.352 221.125 683.332 221.125 682.008C221.125 680.685 221.418 679.657 222.004 678.925C222.59 678.192 223.406 677.826 224.451 677.826C225.54 677.826 226.375 678.222 226.956 679.013H227.051L227 678.434L226.97 677.87V674.604H228.186V686H227.197L227.036 684.923ZM224.604 685.128C225.435 685.128 226.035 684.904 226.406 684.455C226.782 684 226.97 683.271 226.97 682.265V682.008C226.97 680.871 226.78 680.06 226.399 679.577C226.023 679.088 225.42 678.844 224.59 678.844C223.877 678.844 223.33 679.123 222.949 679.679C222.573 680.231 222.385 681.012 222.385 682.023C222.385 683.048 222.573 683.822 222.949 684.345C223.325 684.867 223.877 685.128 224.604 685.128Z" fill="#D3D3D3"/>
</g>
<defs>
<filter id="filter0_d_941_209" x="128" y="323" width="112" height="112" filterUnits="userSpaceOnUse" color-interpolation-filters="sRGB">
<feFlood flood-opacity="0" result="BackgroundImageFix"/>
<feColorMatrix in="SourceAlpha" type="matrix" values="0 0 0 0 0 0 0 0 0 0 0 0 0 0 0 0 0 0 127 0" result="hardAlpha"/>
<feOffset dy="3"/>
<feGaussianBlur stdDeviation="3"/>
<feColorMatrix type="matrix" values="0 0 0 0 0 0 0 0 0 0 0 0 0 0 0 0 0 0 0.161 0"/>
<feBlend mode="normal" in2="BackgroundImageFix" result="effect1_dropShadow_941_209"/>
<feBlend mode="normal" in="SourceGraphic" in2="effect1_dropShadow_941_209" result="shape"/>
</filter>
<filter id="filter1_d_941_209" x="128" y="323" width="97" height="97" filterUnits="userSpaceOnUse" color-interpolation-filters="sRGB">
<feFlood flood-opacity="0" result="BackgroundImageFix"/>
<feColorMatrix in="SourceAlpha" type="matrix" values="0 0 0 0 0 0 0 0 0 0 0 0 0 0 0 0 0 0 127 0" result="hardAlpha"/>
<feOffset dy="3"/>
<feGaussianBlur stdDeviation="3"/>
<feColorMatrix type="matrix" values="0 0 0 0 0 0 0 0 0 0 0 0 0 0 0 0 0 0 0.161 0"/>
<feBlend mode="normal" in2="BackgroundImageFix" result="effect1_dropShadow_941_209"/>
<feBlend mode="normal" in="SourceGraphic" in2="effect1_dropShadow_941_209" result="shape"/>
</filter>
<filter id="filter2_d_941_209" x="128" y="323" width="82" height="82" filterUnits="userSpaceOnUse" color-interpolation-filters="sRGB">
<feFlood flood-opacity="0" result="BackgroundImageFix"/>
<feColorMatrix in="SourceAlpha" type="matrix" values="0 0 0 0 0 0 0 0 0 0 0 0 0 0 0 0 0 0 127 0" result="hardAlpha"/>
<feOffset dy="3"/>
<feGaussianBlur stdDeviation="3"/>
<feColorMatrix type="matrix" values="0 0 0 0 0 0 0 0 0 0 0 0 0 0 0 0 0 0 0.161 0"/>
<feBlend mode="normal" in2="BackgroundImageFix" result="effect1_dropShadow_941_209"/>
<feBlend mode="normal" in="SourceGraphic" in2="effect1_dropShadow_941_209" result="shape"/>
</filter>
<filter id="filter3_d_941_209" x="128" y="323" width="67" height="67" filterUnits="userSpaceOnUse" color-interpolation-filters="sRGB">
<feFlood flood-opacity="0" result="BackgroundImageFix"/>
<feColorMatrix in="SourceAlpha" type="matrix" values="0 0 0 0 0 0 0 0 0 0 0 0 0 0 0 0 0 0 127 0" result="hardAlpha"/>
<feOffset dy="3"/>
<feGaussianBlur stdDeviation="3"/>
<feColorMatrix type="matrix" values="0 0 0 0 0 0 0 0 0 0 0 0 0 0 0 0 0 0 0.161 0"/>
<feBlend mode="normal" in2="BackgroundImageFix" result="effect1_dropShadow_941_209"/>
<feBlend mode="normal" in="SourceGraphic" in2="effect1_dropShadow_941_209" result="shape"/>
</filter>
<filter id="filter4_d_941_209" x="33" y="650" width="313" height="64" filterUnits="userSpaceOnUse" color-interpolation-filters="sRGB">
<feFlood flood-opacity="0" result="BackgroundImageFix"/>
<feColorMatrix in="SourceAlpha" type="matrix" values="0 0 0 0 0 0 0 0 0 0 0 0 0 0 0 0 0 0 127 0" result="hardAlpha"/>
<feOffset dy="3"/>
<feGaussianBlur stdDeviation="3"/>
<feColorMatrix type="matrix" values="0 0 0 0 0 0 0 0 0 0 0 0 0 0 0 0 0 0 0.161 0"/>
<feBlend mode="normal" in2="BackgroundImageFix" result="effect1_dropShadow_941_209"/>
<feBlend mode="normal" in="SourceGraphic" in2="effect1_dropShadow_941_209" result="shape"/>
</filter>
<clipPath id="clip0_941_209">
<rect width="375" height="812" fill="white"/>
</clipPath>
</defs>
</svg>
