<svg width="1506" height="312" viewBox="0 0 1506 312" fill="none" xmlns="http://www.w3.org/2000/svg">
<g filter="url(#filter0_d_140_91)">
<rect x="5" y="1" width="400" height="134" rx="11" stroke="#009317" stroke-width="2" shape-rendering="crispEdges"/>
</g>
<g filter="url(#filter1_d_140_91)">
<rect x="553" y="1" width="400" height="134" rx="11" stroke="#009317" stroke-width="2" shape-rendering="crispEdges"/>
</g>
<g filter="url(#filter2_d_140_91)">
<rect x="1101" y="1" width="400" height="134" rx="11" stroke="#009317" stroke-width="2" shape-rendering="crispEdges"/>
</g>
<rect x="418" y="65" width="122" height="7" rx="3.5" fill="#009317"/>
<rect x="966" y="69" width="122" height="7" rx="3.5" fill="#009317"/>
<path d="M114.642 70.925C114.642 75.775 117.817 78.175 121.892 78.175C125.942 78.175 129.342 75.775 129.342 70.925V60.45H125.067V70.95C125.067 73.025 123.992 74.225 121.967 74.225C119.942 74.225 118.917 73.025 118.917 70.95V60.45H114.642V70.925ZM143.668 73.95C143.593 68.75 136.043 70.325 136.043 68.1C136.043 67.425 136.593 67.025 137.593 67.025C138.793 67.025 139.518 67.65 139.643 68.6H143.593C143.318 65.85 141.318 63.85 137.718 63.85C134.068 63.85 132.043 65.8 132.043 68.175C132.043 73.3 139.643 71.675 139.643 73.925C139.643 74.55 139.068 75.05 137.968 75.05C136.793 75.05 135.918 74.4 135.818 73.425H131.593C131.793 76.125 134.293 78.2 138.018 78.2C141.518 78.2 143.668 76.375 143.668 73.95ZM152.434 67.275C153.859 67.275 155.059 68.15 155.059 69.675H149.709C149.959 68.125 151.034 67.275 152.434 67.275ZM159.109 73.375H154.559C154.209 74.125 153.534 74.725 152.334 74.725C150.959 74.725 149.834 73.875 149.684 72.05H159.359C159.409 71.625 159.434 71.2 159.434 70.8C159.434 66.55 156.559 63.85 152.484 63.85C148.334 63.85 145.434 66.6 145.434 71.025C145.434 75.45 148.384 78.2 152.484 78.2C155.959 78.2 158.434 76.1 159.109 73.375ZM165.964 71.525C165.964 69.125 167.139 68.425 169.164 68.425H170.339V63.9C168.464 63.9 166.939 64.9 165.964 66.375V64.05H161.689V78H165.964V71.525ZM186.955 66.15C186.955 67.525 186.205 68.35 184.605 68.35H181.955V64H184.605C186.205 64 186.955 64.85 186.955 66.15ZM177.68 60.45V78H181.955V71.375H182.98L186.63 78H191.455L187.405 71.05C190.105 70.25 191.305 68.175 191.305 65.975C191.305 62.925 189.155 60.45 184.855 60.45H177.68ZM200.139 67.275C201.564 67.275 202.764 68.15 202.764 69.675H197.414C197.664 68.125 198.739 67.275 200.139 67.275ZM206.814 73.375H202.264C201.914 74.125 201.239 74.725 200.039 74.725C198.664 74.725 197.539 73.875 197.389 72.05H207.064C207.114 71.625 207.139 71.2 207.139 70.8C207.139 66.55 204.264 63.85 200.189 63.85C196.039 63.85 193.139 66.6 193.139 71.025C193.139 75.45 196.089 78.2 200.189 78.2C203.664 78.2 206.139 76.1 206.814 73.375ZM220.719 73.95C220.644 68.75 213.094 70.325 213.094 68.1C213.094 67.425 213.644 67.025 214.644 67.025C215.844 67.025 216.569 67.65 216.694 68.6H220.644C220.369 65.85 218.369 63.85 214.769 63.85C211.119 63.85 209.094 65.8 209.094 68.175C209.094 73.3 216.694 71.675 216.694 73.925C216.694 74.55 216.119 75.05 215.019 75.05C213.844 75.05 212.969 74.4 212.869 73.425H208.644C208.844 76.125 211.344 78.2 215.069 78.2C218.569 78.2 220.719 76.375 220.719 73.95ZM229.485 67.275C230.91 67.275 232.11 68.15 232.11 69.675H226.76C227.01 68.125 228.085 67.275 229.485 67.275ZM236.16 73.375H231.61C231.26 74.125 230.585 74.725 229.385 74.725C228.01 74.725 226.885 73.875 226.735 72.05H236.41C236.46 71.625 236.485 71.2 236.485 70.8C236.485 66.55 233.61 63.85 229.535 63.85C225.385 63.85 222.485 66.6 222.485 71.025C222.485 75.45 225.435 78.2 229.535 78.2C233.01 78.2 235.485 76.1 236.16 73.375ZM237.89 71C237.89 75.4 240.615 78.2 244.015 78.2C246.09 78.2 247.565 77.25 248.34 76.025V78H252.615V64.05H248.34V66.025C247.59 64.8 246.115 63.85 244.04 63.85C240.615 63.85 237.89 66.6 237.89 71ZM248.34 71.025C248.34 73.25 246.915 74.475 245.29 74.475C243.69 74.475 242.24 73.225 242.24 71C242.24 68.775 243.69 67.575 245.29 67.575C246.915 67.575 248.34 68.8 248.34 71.025ZM259.983 71.525C259.983 69.125 261.158 68.425 263.183 68.425H264.358V63.9C262.483 63.9 260.958 64.9 259.983 66.375V64.05H255.708V78H259.983V71.525ZM265.551 71.025C265.551 75.45 268.451 78.2 272.551 78.2C276.051 78.2 278.526 76.175 279.251 72.95H274.701C274.326 73.975 273.651 74.55 272.476 74.55C270.951 74.55 269.901 73.35 269.901 71.025C269.901 68.7 270.951 67.5 272.476 67.5C273.651 67.5 274.351 68.125 274.701 69.1H279.251C278.526 65.775 276.051 63.85 272.551 63.85C268.451 63.85 265.551 66.625 265.551 71.025ZM281.538 78H285.813V70.425C285.813 68.525 286.863 67.475 288.488 67.475C290.113 67.475 291.163 68.525 291.163 70.425V78H295.413V69.85C295.413 66.1 293.288 63.9 290.113 63.9C288.188 63.9 286.663 64.725 285.813 65.925V59.5H281.538V78Z" fill="black"/>
<path d="M701.047 85H705.322V67.45H701.047V85ZM707.57 78C707.57 82.4 710.295 85.2 713.72 85.2C715.77 85.2 717.245 84.275 718.02 83V85H722.295V66.5H718.02V72.975C717.17 71.7 715.57 70.85 713.72 70.85C710.295 70.85 707.57 73.6 707.57 78ZM718.02 78.025C718.02 80.25 716.595 81.475 714.97 81.475C713.37 81.475 711.92 80.225 711.92 78C711.92 75.775 713.37 74.575 714.97 74.575C716.595 74.575 718.02 75.8 718.02 78.025ZM731.537 74.275C732.962 74.275 734.162 75.15 734.162 76.675H728.812C729.062 75.125 730.137 74.275 731.537 74.275ZM738.212 80.375H733.662C733.312 81.125 732.637 81.725 731.437 81.725C730.062 81.725 728.937 80.875 728.787 79.05H738.462C738.512 78.625 738.537 78.2 738.537 77.8C738.537 73.55 735.662 70.85 731.587 70.85C727.437 70.85 724.537 73.6 724.537 78.025C724.537 82.45 727.487 85.2 731.587 85.2C735.062 85.2 737.537 83.1 738.212 80.375ZM739.943 78C739.943 82.4 742.668 85.2 746.068 85.2C748.143 85.2 749.618 84.25 750.393 83.025V85H754.668V71.05H750.393V73.025C749.643 71.8 748.168 70.85 746.093 70.85C742.668 70.85 739.943 73.6 739.943 78ZM750.393 78.025C750.393 80.25 748.968 81.475 747.343 81.475C745.743 81.475 744.293 80.225 744.293 78C744.293 75.775 745.743 74.575 747.343 74.575C748.968 74.575 750.393 75.8 750.393 78.025ZM758.435 80.15C758.435 83.775 760.46 85 763.36 85H765.535V81.375H764.01C763.06 81.375 762.71 81.025 762.71 80.2V74.6H765.51V71.05H762.71V67.65H758.435V71.05H756.735V74.6H758.435V80.15ZM767.917 85H772.192V71.05H767.917V85ZM770.067 69.6C771.567 69.6 772.592 68.575 772.592 67.3C772.592 66 771.567 64.975 770.067 64.975C768.542 64.975 767.517 66 767.517 67.3C767.517 68.575 768.542 69.6 770.067 69.6ZM788.94 78.025C788.94 73.6 785.79 70.85 781.69 70.85C777.615 70.85 774.44 73.6 774.44 78.025C774.44 82.45 777.54 85.2 781.64 85.2C785.74 85.2 788.94 82.45 788.94 78.025ZM778.79 78.025C778.79 75.65 780.14 74.55 781.69 74.55C783.19 74.55 784.59 75.65 784.59 78.025C784.59 80.375 783.165 81.5 781.64 81.5C780.09 81.5 778.79 80.375 778.79 78.025ZM800.833 85H805.083V76.85C805.083 73.1 802.933 70.9 799.708 70.9C797.833 70.9 796.333 71.725 795.483 72.9V71.05H791.208V85H795.483V77.425C795.483 75.525 796.533 74.475 798.158 74.475C799.783 74.475 800.833 75.525 800.833 77.425V85Z" fill="black"/>
<path d="M1243.02 71.3V66.9H1245.34C1247.04 66.9 1247.77 67.75 1247.77 69.1C1247.77 70.45 1247.04 71.3 1245.34 71.3H1243.02ZM1252.12 69.1C1252.12 65.875 1249.97 63.45 1245.67 63.45H1238.74V81H1243.02V74.7H1245.67C1250.14 74.7 1252.12 72 1252.12 69.1ZM1258.62 74.525C1258.62 72.125 1259.79 71.425 1261.82 71.425H1262.99V66.9C1261.12 66.9 1259.59 67.9 1258.62 69.375V67.05H1254.34V81H1258.62V74.525ZM1278.69 74.025C1278.69 69.6 1275.54 66.85 1271.44 66.85C1267.36 66.85 1264.19 69.6 1264.19 74.025C1264.19 78.45 1267.29 81.2 1271.39 81.2C1275.49 81.2 1278.69 78.45 1278.69 74.025ZM1268.54 74.025C1268.54 71.65 1269.89 70.55 1271.44 70.55C1272.94 70.55 1274.34 71.65 1274.34 74.025C1274.34 76.375 1272.91 77.5 1271.39 77.5C1269.84 77.5 1268.54 76.375 1268.54 74.025ZM1281.63 76.15C1281.63 79.775 1283.66 81 1286.56 81H1288.73V77.375H1287.21C1286.26 77.375 1285.91 77.025 1285.91 76.2V70.6H1288.71V67.05H1285.91V63.65H1281.63V67.05H1279.93V70.6H1281.63V76.15ZM1304.76 74.025C1304.76 69.6 1301.61 66.85 1297.51 66.85C1293.44 66.85 1290.26 69.6 1290.26 74.025C1290.26 78.45 1293.36 81.2 1297.46 81.2C1301.56 81.2 1304.76 78.45 1304.76 74.025ZM1294.61 74.025C1294.61 71.65 1295.96 70.55 1297.51 70.55C1299.01 70.55 1300.41 71.65 1300.41 74.025C1300.41 76.375 1298.99 77.5 1297.46 77.5C1295.91 77.5 1294.61 76.375 1294.61 74.025ZM1307.71 76.15C1307.71 79.775 1309.73 81 1312.63 81H1314.81V77.375H1313.28C1312.33 77.375 1311.98 77.025 1311.98 76.2V70.6H1314.78V67.05H1311.98V63.65H1307.71V67.05H1306.01V70.6H1307.71V76.15ZM1323.61 75.775L1320.39 67.05H1315.61L1321.29 80.525L1318.09 87.625H1322.69L1331.44 67.05H1326.81L1323.61 75.775ZM1337.26 69.025V67.05H1332.98V87.65H1337.26V79.05C1338.03 80.225 1339.51 81.2 1341.56 81.2C1344.98 81.2 1347.71 78.4 1347.71 74C1347.71 69.6 1344.98 66.85 1341.56 66.85C1339.51 66.85 1338.03 67.8 1337.26 69.025ZM1343.36 74C1343.36 76.225 1341.91 77.475 1340.28 77.475C1338.68 77.475 1337.23 76.25 1337.23 74.025C1337.23 71.8 1338.68 70.575 1340.28 70.575C1341.91 70.575 1343.36 71.775 1343.36 74ZM1356.1 70.275C1357.53 70.275 1358.73 71.15 1358.73 72.675H1353.38C1353.63 71.125 1354.7 70.275 1356.1 70.275ZM1362.78 76.375H1358.23C1357.88 77.125 1357.2 77.725 1356 77.725C1354.63 77.725 1353.5 76.875 1353.35 75.05H1363.03C1363.08 74.625 1363.1 74.2 1363.1 73.8C1363.1 69.55 1360.23 66.85 1356.15 66.85C1352 66.85 1349.1 69.6 1349.1 74.025C1349.1 78.45 1352.05 81.2 1356.15 81.2C1359.63 81.2 1362.1 79.1 1362.78 76.375Z" fill="black"/>
<path d="M158.255 169.1V183H155.975V169.1H158.255ZM166.808 171.8C167.675 171.8 168.448 171.98 169.128 172.34C169.821 172.7 170.361 173.233 170.748 173.94C171.135 174.647 171.328 175.5 171.328 176.5V183H169.068V176.84C169.068 175.853 168.821 175.1 168.328 174.58C167.835 174.047 167.161 173.78 166.308 173.78C165.455 173.78 164.775 174.047 164.268 174.58C163.775 175.1 163.528 175.853 163.528 176.84V183H161.248V171.98H163.528V173.24C163.901 172.787 164.375 172.433 164.948 172.18C165.535 171.927 166.155 171.8 166.808 171.8ZM176.896 173.84V179.94C176.896 180.353 176.99 180.653 177.176 180.84C177.376 181.013 177.71 181.1 178.176 181.1H179.576V183H177.776C176.75 183 175.963 182.76 175.416 182.28C174.87 181.8 174.596 181.02 174.596 179.94V173.84H173.296V171.98H174.596V169.24H176.896V171.98H179.576V173.84H176.896ZM191.778 177.22C191.778 177.633 191.751 178.007 191.698 178.34H183.278C183.344 179.22 183.671 179.927 184.258 180.46C184.844 180.993 185.564 181.26 186.418 181.26C187.644 181.26 188.511 180.747 189.018 179.72H191.478C191.144 180.733 190.538 181.567 189.658 182.22C188.791 182.86 187.711 183.18 186.418 183.18C185.364 183.18 184.418 182.947 183.578 182.48C182.751 182 182.098 181.333 181.618 180.48C181.151 179.613 180.918 178.613 180.918 177.48C180.918 176.347 181.144 175.353 181.598 174.5C182.064 173.633 182.711 172.967 183.538 172.5C184.378 172.033 185.338 171.8 186.418 171.8C187.458 171.8 188.384 172.027 189.198 172.48C190.011 172.933 190.644 173.573 191.098 174.4C191.551 175.213 191.778 176.153 191.778 177.22ZM189.398 176.5C189.384 175.66 189.084 174.987 188.498 174.48C187.911 173.973 187.184 173.72 186.318 173.72C185.531 173.72 184.858 173.973 184.298 174.48C183.738 174.973 183.404 175.647 183.298 176.5H189.398ZM196.301 173.58C196.635 173.02 197.075 172.587 197.621 172.28C198.181 171.96 198.841 171.8 199.601 171.8V174.16H199.021C198.128 174.16 197.448 174.387 196.981 174.84C196.528 175.293 196.301 176.08 196.301 177.2V183H194.021V171.98H196.301V173.58ZM205.957 180.96L209.077 171.98H211.497L207.297 183H204.577L200.397 171.98H202.837L205.957 180.96ZM214.381 170.52C213.967 170.52 213.621 170.38 213.341 170.1C213.061 169.82 212.921 169.473 212.921 169.06C212.921 168.647 213.061 168.3 213.341 168.02C213.621 167.74 213.967 167.6 214.381 167.6C214.781 167.6 215.121 167.74 215.401 168.02C215.681 168.3 215.821 168.647 215.821 169.06C215.821 169.473 215.681 169.82 215.401 170.1C215.121 170.38 214.781 170.52 214.381 170.52ZM215.501 171.98V183H213.221V171.98H215.501ZM228.594 177.22C228.594 177.633 228.567 178.007 228.514 178.34H220.094C220.161 179.22 220.487 179.927 221.074 180.46C221.661 180.993 222.381 181.26 223.234 181.26C224.461 181.26 225.327 180.747 225.834 179.72H228.294C227.961 180.733 227.354 181.567 226.474 182.22C225.607 182.86 224.527 183.18 223.234 183.18C222.181 183.18 221.234 182.947 220.394 182.48C219.567 182 218.914 181.333 218.434 180.48C217.967 179.613 217.734 178.613 217.734 177.48C217.734 176.347 217.961 175.353 218.414 174.5C218.881 173.633 219.527 172.967 220.354 172.5C221.194 172.033 222.154 171.8 223.234 171.8C224.274 171.8 225.201 172.027 226.014 172.48C226.827 172.933 227.461 173.573 227.914 174.4C228.367 175.213 228.594 176.153 228.594 177.22ZM226.214 176.5C226.201 175.66 225.901 174.987 225.314 174.48C224.727 173.973 224.001 173.72 223.134 173.72C222.347 173.72 221.674 173.973 221.114 174.48C220.554 174.973 220.221 175.647 220.114 176.5H226.214ZM245.638 171.98L242.218 183H239.818L237.598 174.86L235.378 183H232.978L229.538 171.98H231.858L234.158 180.84L236.498 171.98H238.878L241.118 180.8L243.398 171.98H245.638ZM251.342 183.18C250.475 183.18 249.695 183.027 249.002 182.72C248.322 182.4 247.782 181.973 247.382 181.44C246.982 180.893 246.768 180.287 246.742 179.62H249.102C249.142 180.087 249.362 180.48 249.762 180.8C250.175 181.107 250.688 181.26 251.302 181.26C251.942 181.26 252.435 181.14 252.782 180.9C253.142 180.647 253.322 180.327 253.322 179.94C253.322 179.527 253.122 179.22 252.722 179.02C252.335 178.82 251.715 178.6 250.862 178.36C250.035 178.133 249.362 177.913 248.842 177.7C248.322 177.487 247.868 177.16 247.482 176.72C247.108 176.28 246.922 175.7 246.922 174.98C246.922 174.393 247.095 173.86 247.442 173.38C247.788 172.887 248.282 172.5 248.922 172.22C249.575 171.94 250.322 171.8 251.162 171.8C252.415 171.8 253.422 172.12 254.182 172.76C254.955 173.387 255.368 174.247 255.422 175.34H253.142C253.102 174.847 252.902 174.453 252.542 174.16C252.182 173.867 251.695 173.72 251.082 173.72C250.482 173.72 250.022 173.833 249.702 174.06C249.382 174.287 249.222 174.587 249.222 174.96C249.222 175.253 249.328 175.5 249.542 175.7C249.755 175.9 250.015 176.06 250.322 176.18C250.628 176.287 251.082 176.427 251.682 176.6C252.482 176.813 253.135 177.033 253.642 177.26C254.162 177.473 254.608 177.793 254.982 178.22C255.355 178.647 255.548 179.213 255.562 179.92C255.562 180.547 255.388 181.107 255.042 181.6C254.695 182.093 254.202 182.48 253.562 182.76C252.935 183.04 252.195 183.18 251.342 183.18Z" fill="black"/>
<path d="M175.273 223.24C175.273 223.947 175.106 224.613 174.773 225.24C174.439 225.867 173.906 226.38 173.173 226.78C172.439 227.167 171.499 227.36 170.353 227.36H167.833V233H165.553V219.1H170.353C171.419 219.1 172.319 219.287 173.053 219.66C173.799 220.02 174.353 220.513 174.713 221.14C175.086 221.767 175.273 222.467 175.273 223.24ZM170.353 225.5C171.219 225.5 171.866 225.307 172.293 224.92C172.719 224.52 172.933 223.96 172.933 223.24C172.933 221.72 172.073 220.96 170.353 220.96H167.833V225.5H170.353ZM187.547 227.22C187.547 227.633 187.521 228.007 187.467 228.34H179.047C179.114 229.22 179.441 229.927 180.027 230.46C180.614 230.993 181.334 231.26 182.187 231.26C183.414 231.26 184.281 230.747 184.787 229.72H187.247C186.914 230.733 186.307 231.567 185.427 232.22C184.561 232.86 183.481 233.18 182.187 233.18C181.134 233.18 180.187 232.947 179.347 232.48C178.521 232 177.867 231.333 177.387 230.48C176.921 229.613 176.687 228.613 176.687 227.48C176.687 226.347 176.914 225.353 177.367 224.5C177.834 223.633 178.481 222.967 179.307 222.5C180.147 222.033 181.107 221.8 182.187 221.8C183.227 221.8 184.154 222.027 184.967 222.48C185.781 222.933 186.414 223.573 186.867 224.4C187.321 225.213 187.547 226.153 187.547 227.22ZM185.167 226.5C185.154 225.66 184.854 224.987 184.267 224.48C183.681 223.973 182.954 223.72 182.087 223.72C181.301 223.72 180.627 223.973 180.067 224.48C179.507 224.973 179.174 225.647 179.067 226.5H185.167ZM192.071 223.58C192.404 223.02 192.844 222.587 193.391 222.28C193.951 221.96 194.611 221.8 195.371 221.8V224.16H194.791C193.898 224.16 193.218 224.387 192.751 224.84C192.298 225.293 192.071 226.08 192.071 227.2V233H189.791V221.98H192.071V223.58ZM201.467 233.18C200.6 233.18 199.82 233.027 199.127 232.72C198.447 232.4 197.907 231.973 197.507 231.44C197.107 230.893 196.893 230.287 196.867 229.62H199.227C199.267 230.087 199.487 230.48 199.887 230.8C200.3 231.107 200.813 231.26 201.427 231.26C202.067 231.26 202.56 231.14 202.907 230.9C203.267 230.647 203.447 230.327 203.447 229.94C203.447 229.527 203.247 229.22 202.847 229.02C202.46 228.82 201.84 228.6 200.987 228.36C200.16 228.133 199.487 227.913 198.967 227.7C198.447 227.487 197.993 227.16 197.607 226.72C197.233 226.28 197.047 225.7 197.047 224.98C197.047 224.393 197.22 223.86 197.567 223.38C197.913 222.887 198.407 222.5 199.047 222.22C199.7 221.94 200.447 221.8 201.287 221.8C202.54 221.8 203.547 222.12 204.307 222.76C205.08 223.387 205.493 224.247 205.547 225.34H203.267C203.227 224.847 203.027 224.453 202.667 224.16C202.307 223.867 201.82 223.72 201.207 223.72C200.607 223.72 200.147 223.833 199.827 224.06C199.507 224.287 199.347 224.587 199.347 224.96C199.347 225.253 199.453 225.5 199.667 225.7C199.88 225.9 200.14 226.06 200.447 226.18C200.753 226.287 201.207 226.427 201.807 226.6C202.607 226.813 203.26 227.033 203.767 227.26C204.287 227.473 204.733 227.793 205.107 228.22C205.48 228.647 205.673 229.213 205.687 229.92C205.687 230.547 205.513 231.107 205.167 231.6C204.82 232.093 204.327 232.48 203.687 232.76C203.06 233.04 202.32 233.18 201.467 233.18ZM212.93 233.18C211.89 233.18 210.95 232.947 210.11 232.48C209.27 232 208.61 231.333 208.13 230.48C207.65 229.613 207.41 228.613 207.41 227.48C207.41 226.36 207.657 225.367 208.15 224.5C208.644 223.633 209.317 222.967 210.17 222.5C211.024 222.033 211.977 221.8 213.03 221.8C214.084 221.8 215.037 222.033 215.89 222.5C216.744 222.967 217.417 223.633 217.91 224.5C218.404 225.367 218.65 226.36 218.65 227.48C218.65 228.6 218.397 229.593 217.89 230.46C217.384 231.327 216.69 232 215.81 232.48C214.944 232.947 213.984 233.18 212.93 233.18ZM212.93 231.2C213.517 231.2 214.064 231.06 214.57 230.78C215.09 230.5 215.51 230.08 215.83 229.52C216.15 228.96 216.31 228.28 216.31 227.48C216.31 226.68 216.157 226.007 215.85 225.46C215.544 224.9 215.137 224.48 214.63 224.2C214.124 223.92 213.577 223.78 212.99 223.78C212.404 223.78 211.857 223.92 211.35 224.2C210.857 224.48 210.464 224.9 210.17 225.46C209.877 226.007 209.73 226.68 209.73 227.48C209.73 228.667 210.03 229.587 210.63 230.24C211.244 230.88 212.01 231.2 212.93 231.2ZM226.464 221.8C227.331 221.8 228.104 221.98 228.784 222.34C229.478 222.7 230.018 223.233 230.404 223.94C230.791 224.647 230.984 225.5 230.984 226.5V233H228.724V226.84C228.724 225.853 228.478 225.1 227.984 224.58C227.491 224.047 226.818 223.78 225.964 223.78C225.111 223.78 224.431 224.047 223.924 224.58C223.431 225.1 223.184 225.853 223.184 226.84V233H220.904V221.98H223.184V223.24C223.558 222.787 224.031 222.433 224.604 222.18C225.191 221.927 225.811 221.8 226.464 221.8ZM233.133 227.44C233.133 226.333 233.359 225.353 233.813 224.5C234.279 223.647 234.906 222.987 235.693 222.52C236.493 222.04 237.373 221.8 238.333 221.8C239.199 221.8 239.953 221.973 240.593 222.32C241.246 222.653 241.766 223.073 242.153 223.58V221.98H244.453V233H242.153V231.36C241.766 231.88 241.239 232.313 240.573 232.66C239.906 233.007 239.146 233.18 238.293 233.18C237.346 233.18 236.479 232.94 235.693 232.46C234.906 231.967 234.279 231.287 233.813 230.42C233.359 229.54 233.133 228.547 233.133 227.44ZM242.153 227.48C242.153 226.72 241.993 226.06 241.673 225.5C241.366 224.94 240.959 224.513 240.453 224.22C239.946 223.927 239.399 223.78 238.813 223.78C238.226 223.78 237.679 223.927 237.173 224.22C236.666 224.5 236.253 224.92 235.933 225.48C235.626 226.027 235.473 226.68 235.473 227.44C235.473 228.2 235.626 228.867 235.933 229.44C236.253 230.013 236.666 230.453 237.173 230.76C237.693 231.053 238.239 231.2 238.813 231.2C239.399 231.2 239.946 231.053 240.453 230.76C240.959 230.467 241.366 230.04 241.673 229.48C241.993 228.907 242.153 228.24 242.153 227.48Z" fill="black"/>
<path d="M690.319 185.86C691.066 185.993 691.699 186.387 692.219 187.04C692.739 187.693 692.999 188.433 692.999 189.26C692.999 189.967 692.812 190.607 692.439 191.18C692.079 191.74 691.552 192.187 690.859 192.52C690.166 192.84 689.359 193 688.439 193H682.879V179.1H688.179C689.126 179.1 689.939 179.26 690.619 179.58C691.299 179.9 691.812 180.333 692.159 180.88C692.506 181.413 692.679 182.013 692.679 182.68C692.679 183.48 692.466 184.147 692.039 184.68C691.612 185.213 691.039 185.607 690.319 185.86ZM685.159 184.94H687.979C688.726 184.94 689.306 184.773 689.719 184.44C690.146 184.093 690.359 183.6 690.359 182.96C690.359 182.333 690.146 181.847 689.719 181.5C689.306 181.14 688.726 180.96 687.979 180.96H685.159V184.94ZM688.239 191.14C689.012 191.14 689.619 190.953 690.059 190.58C690.499 190.207 690.719 189.687 690.719 189.02C690.719 188.34 690.486 187.8 690.019 187.4C689.552 187 688.932 186.8 688.159 186.8H685.159V191.14H688.239ZM697.757 183.58C698.09 183.02 698.53 182.587 699.077 182.28C699.637 181.96 700.297 181.8 701.057 181.8V184.16H700.477C699.583 184.16 698.903 184.387 698.437 184.84C697.983 185.293 697.757 186.08 697.757 187.2V193H695.477V181.98H697.757V183.58ZM702.392 187.44C702.392 186.333 702.619 185.353 703.072 184.5C703.539 183.647 704.166 182.987 704.952 182.52C705.752 182.04 706.632 181.8 707.592 181.8C708.459 181.8 709.212 181.973 709.852 182.32C710.506 182.653 711.026 183.073 711.412 183.58V181.98H713.712V193H711.412V191.36C711.026 191.88 710.499 192.313 709.832 192.66C709.166 193.007 708.406 193.18 707.552 193.18C706.606 193.18 705.739 192.94 704.952 192.46C704.166 191.967 703.539 191.287 703.072 190.42C702.619 189.54 702.392 188.547 702.392 187.44ZM711.412 187.48C711.412 186.72 711.252 186.06 710.932 185.5C710.626 184.94 710.219 184.513 709.712 184.22C709.206 183.927 708.659 183.78 708.072 183.78C707.486 183.78 706.939 183.927 706.432 184.22C705.926 184.5 705.512 184.92 705.192 185.48C704.886 186.027 704.732 186.68 704.732 187.44C704.732 188.2 704.886 188.867 705.192 189.44C705.512 190.013 705.926 190.453 706.432 190.76C706.952 191.053 707.499 191.2 708.072 191.2C708.659 191.2 709.206 191.053 709.712 190.76C710.219 190.467 710.626 190.04 710.932 189.48C711.252 188.907 711.412 188.24 711.412 187.48ZM717.867 180.52C717.454 180.52 717.107 180.38 716.827 180.1C716.547 179.82 716.407 179.473 716.407 179.06C716.407 178.647 716.547 178.3 716.827 178.02C717.107 177.74 717.454 177.6 717.867 177.6C718.267 177.6 718.607 177.74 718.887 178.02C719.167 178.3 719.307 178.647 719.307 179.06C719.307 179.473 719.167 179.82 718.887 180.1C718.607 180.38 718.267 180.52 717.867 180.52ZM718.987 181.98V193H716.707V181.98H718.987ZM727.54 181.8C728.407 181.8 729.18 181.98 729.86 182.34C730.554 182.7 731.094 183.233 731.48 183.94C731.867 184.647 732.06 185.5 732.06 186.5V193H729.8V186.84C729.8 185.853 729.554 185.1 729.06 184.58C728.567 184.047 727.894 183.78 727.04 183.78C726.187 183.78 725.507 184.047 725 184.58C724.507 185.1 724.26 185.853 724.26 186.84V193H721.98V181.98H724.26V183.24C724.634 182.787 725.107 182.433 725.68 182.18C726.267 181.927 726.887 181.8 727.54 181.8ZM738.969 193.18C738.102 193.18 737.322 193.027 736.629 192.72C735.949 192.4 735.409 191.973 735.009 191.44C734.609 190.893 734.395 190.287 734.369 189.62H736.729C736.769 190.087 736.989 190.48 737.389 190.8C737.802 191.107 738.315 191.26 738.929 191.26C739.569 191.26 740.062 191.14 740.409 190.9C740.769 190.647 740.949 190.327 740.949 189.94C740.949 189.527 740.749 189.22 740.349 189.02C739.962 188.82 739.342 188.6 738.489 188.36C737.662 188.133 736.989 187.913 736.469 187.7C735.949 187.487 735.495 187.16 735.109 186.72C734.735 186.28 734.549 185.7 734.549 184.98C734.549 184.393 734.722 183.86 735.069 183.38C735.415 182.887 735.909 182.5 736.549 182.22C737.202 181.94 737.949 181.8 738.789 181.8C740.042 181.8 741.049 182.12 741.809 182.76C742.582 183.387 742.995 184.247 743.049 185.34H740.769C740.729 184.847 740.529 184.453 740.169 184.16C739.809 183.867 739.322 183.72 738.709 183.72C738.109 183.72 737.649 183.833 737.329 184.06C737.009 184.287 736.849 184.587 736.849 184.96C736.849 185.253 736.955 185.5 737.169 185.7C737.382 185.9 737.642 186.06 737.949 186.18C738.255 186.287 738.709 186.427 739.309 186.6C740.109 186.813 740.762 187.033 741.269 187.26C741.789 187.473 742.235 187.793 742.609 188.22C742.982 188.647 743.175 189.213 743.189 189.92C743.189 190.547 743.015 191.107 742.669 191.6C742.322 192.093 741.829 192.48 741.189 192.76C740.562 193.04 739.822 193.18 738.969 193.18ZM748.312 183.84V189.94C748.312 190.353 748.406 190.653 748.592 190.84C748.792 191.013 749.126 191.1 749.592 191.1H750.992V193H749.192C748.166 193 747.379 192.76 746.832 192.28C746.286 191.8 746.012 191.02 746.012 189.94V183.84H744.712V181.98H746.012V179.24H748.312V181.98H750.992V183.84H748.312ZM757.874 193.18C756.834 193.18 755.894 192.947 755.054 192.48C754.214 192 753.554 191.333 753.074 190.48C752.594 189.613 752.354 188.613 752.354 187.48C752.354 186.36 752.6 185.367 753.094 184.5C753.587 183.633 754.26 182.967 755.114 182.5C755.967 182.033 756.92 181.8 757.974 181.8C759.027 181.8 759.98 182.033 760.834 182.5C761.687 182.967 762.36 183.633 762.854 184.5C763.347 185.367 763.594 186.36 763.594 187.48C763.594 188.6 763.34 189.593 762.834 190.46C762.327 191.327 761.634 192 760.754 192.48C759.887 192.947 758.927 193.18 757.874 193.18ZM757.874 191.2C758.46 191.2 759.007 191.06 759.514 190.78C760.034 190.5 760.454 190.08 760.774 189.52C761.094 188.96 761.254 188.28 761.254 187.48C761.254 186.68 761.1 186.007 760.794 185.46C760.487 184.9 760.08 184.48 759.574 184.2C759.067 183.92 758.52 183.78 757.934 183.78C757.347 183.78 756.8 183.92 756.294 184.2C755.8 184.48 755.407 184.9 755.114 185.46C754.82 186.007 754.674 186.68 754.674 187.48C754.674 188.667 754.974 189.587 755.574 190.24C756.187 190.88 756.954 191.2 757.874 191.2ZM768.128 183.58C768.461 183.02 768.901 182.587 769.448 182.28C770.008 181.96 770.668 181.8 771.428 181.8V184.16H770.848C769.954 184.16 769.274 184.387 768.808 184.84C768.354 185.293 768.128 186.08 768.128 187.2V193H765.848V181.98H768.128V183.58ZM786.863 181.8C787.73 181.8 788.503 181.98 789.183 182.34C789.877 182.7 790.417 183.233 790.803 183.94C791.203 184.647 791.403 185.5 791.403 186.5V193H789.143V186.84C789.143 185.853 788.897 185.1 788.403 184.58C787.91 184.047 787.237 183.78 786.383 183.78C785.53 183.78 784.85 184.047 784.343 184.58C783.85 185.1 783.603 185.853 783.603 186.84V193H781.343V186.84C781.343 185.853 781.097 185.1 780.603 184.58C780.11 184.047 779.437 183.78 778.583 183.78C777.73 183.78 777.05 184.047 776.543 184.58C776.05 185.1 775.803 185.853 775.803 186.84V193H773.523V181.98H775.803V183.24C776.177 182.787 776.65 182.433 777.223 182.18C777.797 181.927 778.41 181.8 779.063 181.8C779.943 181.8 780.73 181.987 781.423 182.36C782.117 182.733 782.65 183.273 783.023 183.98C783.357 183.313 783.877 182.787 784.583 182.4C785.29 182 786.05 181.8 786.863 181.8ZM795.465 180.52C795.051 180.52 794.705 180.38 794.425 180.1C794.145 179.82 794.005 179.473 794.005 179.06C794.005 178.647 794.145 178.3 794.425 178.02C794.705 177.74 795.051 177.6 795.465 177.6C795.865 177.6 796.205 177.74 796.485 178.02C796.765 178.3 796.905 178.647 796.905 179.06C796.905 179.473 796.765 179.82 796.485 180.1C796.205 180.38 795.865 180.52 795.465 180.52ZM796.585 181.98V193H794.305V181.98H796.585ZM805.138 181.8C806.005 181.8 806.778 181.98 807.458 182.34C808.151 182.7 808.691 183.233 809.078 183.94C809.465 184.647 809.658 185.5 809.658 186.5V193H807.398V186.84C807.398 185.853 807.151 185.1 806.658 184.58C806.165 184.047 805.491 183.78 804.638 183.78C803.785 183.78 803.105 184.047 802.598 184.58C802.105 185.1 801.858 185.853 801.858 186.84V193H799.578V181.98H801.858V183.24C802.231 182.787 802.705 182.433 803.278 182.18C803.865 181.927 804.485 181.8 805.138 181.8ZM817.006 181.8C817.86 181.8 818.613 181.973 819.266 182.32C819.933 182.653 820.453 183.073 820.826 183.58V181.98H823.126V193.18C823.126 194.193 822.913 195.093 822.486 195.88C822.06 196.68 821.44 197.307 820.626 197.76C819.826 198.213 818.866 198.44 817.746 198.44C816.253 198.44 815.013 198.087 814.026 197.38C813.04 196.687 812.48 195.74 812.346 194.54H814.606C814.78 195.113 815.146 195.573 815.706 195.92C816.28 196.28 816.96 196.46 817.746 196.46C818.666 196.46 819.406 196.18 819.966 195.62C820.54 195.06 820.826 194.247 820.826 193.18V191.34C820.44 191.86 819.913 192.3 819.246 192.66C818.593 193.007 817.846 193.18 817.006 193.18C816.046 193.18 815.166 192.94 814.366 192.46C813.58 191.967 812.953 191.287 812.486 190.42C812.033 189.54 811.806 188.547 811.806 187.44C811.806 186.333 812.033 185.353 812.486 184.5C812.953 183.647 813.58 182.987 814.366 182.52C815.166 182.04 816.046 181.8 817.006 181.8ZM820.826 187.48C820.826 186.72 820.666 186.06 820.346 185.5C820.04 184.94 819.633 184.513 819.126 184.22C818.62 183.927 818.073 183.78 817.486 183.78C816.9 183.78 816.353 183.927 815.846 184.22C815.34 184.5 814.926 184.92 814.606 185.48C814.3 186.027 814.146 186.68 814.146 187.44C814.146 188.2 814.3 188.867 814.606 189.44C814.926 190.013 815.34 190.453 815.846 190.76C816.366 191.053 816.913 191.2 817.486 191.2C818.073 191.2 818.62 191.053 819.126 190.76C819.633 190.467 820.04 190.04 820.346 189.48C820.666 188.907 820.826 188.24 820.826 187.48Z" fill="black"/>
<path d="M718.965 253.1L714.845 267H712.265L709.345 256.48L706.245 267L703.685 267.02L699.745 253.1H702.165L705.045 264.42L708.165 253.1H710.725L713.625 264.36L716.525 253.1H718.965ZM722.006 254.52C721.592 254.52 721.246 254.38 720.966 254.1C720.686 253.82 720.546 253.473 720.546 253.06C720.546 252.647 720.686 252.3 720.966 252.02C721.246 251.74 721.592 251.6 722.006 251.6C722.406 251.6 722.746 251.74 723.026 252.02C723.306 252.3 723.446 252.647 723.446 253.06C723.446 253.473 723.306 253.82 723.026 254.1C722.746 254.38 722.406 254.52 722.006 254.52ZM723.126 255.98V267H720.846V255.98H723.126ZM728.399 257.58C728.732 257.02 729.172 256.587 729.719 256.28C730.279 255.96 730.939 255.8 731.699 255.8V258.16H731.119C730.226 258.16 729.546 258.387 729.079 258.84C728.626 259.293 728.399 260.08 728.399 261.2V267H726.119V255.98H728.399V257.58ZM743.895 261.22C743.895 261.633 743.868 262.007 743.815 262.34H735.395C735.462 263.22 735.788 263.927 736.375 264.46C736.962 264.993 737.682 265.26 738.535 265.26C739.762 265.26 740.628 264.747 741.135 263.72H743.595C743.262 264.733 742.655 265.567 741.775 266.22C740.908 266.86 739.828 267.18 738.535 267.18C737.482 267.18 736.535 266.947 735.695 266.48C734.868 266 734.215 265.333 733.735 264.48C733.268 263.613 733.035 262.613 733.035 261.48C733.035 260.347 733.262 259.353 733.715 258.5C734.182 257.633 734.828 256.967 735.655 256.5C736.495 256.033 737.455 255.8 738.535 255.8C739.575 255.8 740.502 256.027 741.315 256.48C742.128 256.933 742.762 257.573 743.215 258.4C743.668 259.213 743.895 260.153 743.895 261.22ZM741.515 260.5C741.502 259.66 741.202 258.987 740.615 258.48C740.028 257.973 739.302 257.72 738.435 257.72C737.648 257.72 736.975 257.973 736.415 258.48C735.855 258.973 735.522 259.647 735.415 260.5H741.515ZM750.759 257.84H748.719V267H746.419V257.84H745.119V255.98H746.419V255.2C746.419 253.933 746.752 253.013 747.419 252.44C748.099 251.853 749.159 251.56 750.599 251.56V253.46C749.905 253.46 749.419 253.593 749.139 253.86C748.859 254.113 748.719 254.56 748.719 255.2V255.98H750.759V257.84ZM755.059 257.58C755.393 257.02 755.833 256.587 756.379 256.28C756.939 255.96 757.599 255.8 758.359 255.8V258.16H757.779C756.886 258.16 756.206 258.387 755.739 258.84C755.286 259.293 755.059 260.08 755.059 261.2V267H752.779V255.98H755.059V257.58ZM759.695 261.44C759.695 260.333 759.922 259.353 760.375 258.5C760.842 257.647 761.468 256.987 762.255 256.52C763.055 256.04 763.935 255.8 764.895 255.8C765.762 255.8 766.515 255.973 767.155 256.32C767.808 256.653 768.328 257.073 768.715 257.58V255.98H771.015V267H768.715V265.36C768.328 265.88 767.802 266.313 767.135 266.66C766.468 267.007 765.708 267.18 764.855 267.18C763.908 267.18 763.042 266.94 762.255 266.46C761.468 265.967 760.842 265.287 760.375 264.42C759.922 263.54 759.695 262.547 759.695 261.44ZM768.715 261.48C768.715 260.72 768.555 260.06 768.235 259.5C767.928 258.94 767.522 258.513 767.015 258.22C766.508 257.927 765.962 257.78 765.375 257.78C764.788 257.78 764.242 257.927 763.735 258.22C763.228 258.5 762.815 258.92 762.495 259.48C762.188 260.027 762.035 260.68 762.035 261.44C762.035 262.2 762.188 262.867 762.495 263.44C762.815 264.013 763.228 264.453 763.735 264.76C764.255 265.053 764.802 265.2 765.375 265.2C765.962 265.2 766.508 265.053 767.015 264.76C767.522 264.467 767.928 264.04 768.235 263.48C768.555 262.907 768.715 262.24 768.715 261.48ZM787.35 255.8C788.216 255.8 788.99 255.98 789.67 256.34C790.363 256.7 790.903 257.233 791.29 257.94C791.69 258.647 791.89 259.5 791.89 260.5V267H789.63V260.84C789.63 259.853 789.383 259.1 788.89 258.58C788.396 258.047 787.723 257.78 786.87 257.78C786.016 257.78 785.336 258.047 784.83 258.58C784.336 259.1 784.09 259.853 784.09 260.84V267H781.83V260.84C781.83 259.853 781.583 259.1 781.09 258.58C780.596 258.047 779.923 257.78 779.07 257.78C778.216 257.78 777.536 258.047 777.03 258.58C776.536 259.1 776.29 259.853 776.29 260.84V267H774.01V255.98H776.29V257.24C776.663 256.787 777.136 256.433 777.71 256.18C778.283 255.927 778.896 255.8 779.55 255.8C780.43 255.8 781.216 255.987 781.91 256.36C782.603 256.733 783.136 257.273 783.51 257.98C783.843 257.313 784.363 256.787 785.07 256.4C785.776 256 786.536 255.8 787.35 255.8ZM804.891 261.22C804.891 261.633 804.864 262.007 804.811 262.34H796.391C796.458 263.22 796.784 263.927 797.371 264.46C797.958 264.993 798.678 265.26 799.531 265.26C800.758 265.26 801.624 264.747 802.131 263.72H804.591C804.258 264.733 803.651 265.567 802.771 266.22C801.904 266.86 800.824 267.18 799.531 267.18C798.478 267.18 797.531 266.947 796.691 266.48C795.864 266 795.211 265.333 794.731 264.48C794.264 263.613 794.031 262.613 794.031 261.48C794.031 260.347 794.258 259.353 794.711 258.5C795.178 257.633 795.824 256.967 796.651 256.5C797.491 256.033 798.451 255.8 799.531 255.8C800.571 255.8 801.498 256.027 802.311 256.48C803.124 256.933 803.758 257.573 804.211 258.4C804.664 259.213 804.891 260.153 804.891 261.22ZM802.511 260.5C802.498 259.66 802.198 258.987 801.611 258.48C801.024 257.973 800.298 257.72 799.431 257.72C798.644 257.72 797.971 257.973 797.411 258.48C796.851 258.973 796.518 259.647 796.411 260.5H802.511Z" fill="black"/>
<path d="M712.918 290.1V298.96C712.918 300.013 713.192 300.807 713.738 301.34C714.298 301.873 715.072 302.14 716.058 302.14C717.058 302.14 717.832 301.873 718.378 301.34C718.938 300.807 719.218 300.013 719.218 298.96V290.1H721.498V298.92C721.498 300.053 721.252 301.013 720.758 301.8C720.265 302.587 719.605 303.173 718.778 303.56C717.952 303.947 717.038 304.14 716.038 304.14C715.038 304.14 714.125 303.947 713.298 303.56C712.485 303.173 711.838 302.587 711.358 301.8C710.878 301.013 710.638 300.053 710.638 298.92V290.1H712.918ZM728.467 304.18C727.6 304.18 726.82 304.027 726.127 303.72C725.447 303.4 724.907 302.973 724.507 302.44C724.107 301.893 723.893 301.287 723.867 300.62H726.227C726.267 301.087 726.487 301.48 726.887 301.8C727.3 302.107 727.813 302.26 728.427 302.26C729.067 302.26 729.56 302.14 729.907 301.9C730.267 301.647 730.447 301.327 730.447 300.94C730.447 300.527 730.247 300.22 729.847 300.02C729.46 299.82 728.84 299.6 727.987 299.36C727.16 299.133 726.487 298.913 725.967 298.7C725.447 298.487 724.993 298.16 724.607 297.72C724.233 297.28 724.047 296.7 724.047 295.98C724.047 295.393 724.22 294.86 724.567 294.38C724.913 293.887 725.407 293.5 726.047 293.22C726.7 292.94 727.447 292.8 728.287 292.8C729.54 292.8 730.547 293.12 731.307 293.76C732.08 294.387 732.493 295.247 732.547 296.34H730.267C730.227 295.847 730.027 295.453 729.667 295.16C729.307 294.867 728.82 294.72 728.207 294.72C727.607 294.72 727.147 294.833 726.827 295.06C726.507 295.287 726.347 295.587 726.347 295.96C726.347 296.253 726.453 296.5 726.667 296.7C726.88 296.9 727.14 297.06 727.447 297.18C727.753 297.287 728.207 297.427 728.807 297.6C729.607 297.813 730.26 298.033 730.767 298.26C731.287 298.473 731.733 298.793 732.107 299.22C732.48 299.647 732.673 300.213 732.687 300.92C732.687 301.547 732.513 302.107 732.167 302.6C731.82 303.093 731.327 303.48 730.687 303.76C730.06 304.04 729.32 304.18 728.467 304.18ZM745.25 298.22C745.25 298.633 745.224 299.007 745.17 299.34H736.75C736.817 300.22 737.144 300.927 737.73 301.46C738.317 301.993 739.037 302.26 739.89 302.26C741.117 302.26 741.984 301.747 742.49 300.72H744.95C744.617 301.733 744.01 302.567 743.13 303.22C742.264 303.86 741.184 304.18 739.89 304.18C738.837 304.18 737.89 303.947 737.05 303.48C736.224 303 735.57 302.333 735.09 301.48C734.624 300.613 734.39 299.613 734.39 298.48C734.39 297.347 734.617 296.353 735.07 295.5C735.537 294.633 736.184 293.967 737.01 293.5C737.85 293.033 738.81 292.8 739.89 292.8C740.93 292.8 741.857 293.027 742.67 293.48C743.484 293.933 744.117 294.573 744.57 295.4C745.024 296.213 745.25 297.153 745.25 298.22ZM742.87 297.5C742.857 296.66 742.557 295.987 741.97 295.48C741.384 294.973 740.657 294.72 739.79 294.72C739.004 294.72 738.33 294.973 737.77 295.48C737.21 295.973 736.877 296.647 736.77 297.5H742.87ZM749.774 294.58C750.107 294.02 750.547 293.587 751.094 293.28C751.654 292.96 752.314 292.8 753.074 292.8V295.16H752.494C751.601 295.16 750.921 295.387 750.454 295.84C750.001 296.293 749.774 297.08 749.774 298.2V304H747.494V292.98H749.774V294.58ZM759.79 294.84H757.75V304H755.45V294.84H754.15V292.98H755.45V292.2C755.45 290.933 755.783 290.013 756.45 289.44C757.13 288.853 758.19 288.56 759.63 288.56V290.46C758.937 290.46 758.45 290.593 758.17 290.86C757.89 291.113 757.75 291.56 757.75 292.2V292.98H759.79V294.84ZM764.091 289.2V304H761.811V289.2H764.091ZM771.864 304.18C770.824 304.18 769.884 303.947 769.044 303.48C768.204 303 767.544 302.333 767.064 301.48C766.584 300.613 766.344 299.613 766.344 298.48C766.344 297.36 766.591 296.367 767.084 295.5C767.577 294.633 768.251 293.967 769.104 293.5C769.957 293.033 770.911 292.8 771.964 292.8C773.017 292.8 773.971 293.033 774.824 293.5C775.677 293.967 776.351 294.633 776.844 295.5C777.337 296.367 777.584 297.36 777.584 298.48C777.584 299.6 777.331 300.593 776.824 301.46C776.317 302.327 775.624 303 774.744 303.48C773.877 303.947 772.917 304.18 771.864 304.18ZM771.864 302.2C772.451 302.2 772.997 302.06 773.504 301.78C774.024 301.5 774.444 301.08 774.764 300.52C775.084 299.96 775.244 299.28 775.244 298.48C775.244 297.68 775.091 297.007 774.784 296.46C774.477 295.9 774.071 295.48 773.564 295.2C773.057 294.92 772.511 294.78 771.924 294.78C771.337 294.78 770.791 294.92 770.284 295.2C769.791 295.48 769.397 295.9 769.104 296.46C768.811 297.007 768.664 297.68 768.664 298.48C768.664 299.667 768.964 300.587 769.564 301.24C770.177 301.88 770.944 302.2 771.864 302.2ZM794.638 292.98L791.218 304H788.818L786.598 295.86L784.378 304H781.978L778.538 292.98H780.858L783.158 301.84L785.498 292.98H787.878L790.118 301.8L792.398 292.98H794.638Z" fill="black"/>
<path d="M659.798 217.94V222.02H664.598V223.88H659.798V228.14H665.198V230H657.518V216.08H665.198V217.94H659.798ZM672.726 224.42L676.286 230H673.706L671.326 226.26L669.086 230H666.706L670.266 224.58L666.706 218.98H669.286L671.666 222.72L673.906 218.98H676.286L672.726 224.42ZM680.266 220.6C680.653 220.093 681.18 219.667 681.846 219.32C682.513 218.973 683.266 218.8 684.106 218.8C685.066 218.8 685.94 219.04 686.726 219.52C687.526 219.987 688.153 220.647 688.606 221.5C689.06 222.353 689.286 223.333 689.286 224.44C689.286 225.547 689.06 226.54 688.606 227.42C688.153 228.287 687.526 228.967 686.726 229.46C685.94 229.94 685.066 230.18 684.106 230.18C683.266 230.18 682.52 230.013 681.866 229.68C681.213 229.333 680.68 228.907 680.266 228.4V235.24H677.986V218.98H680.266V220.6ZM686.966 224.44C686.966 223.68 686.806 223.027 686.486 222.48C686.18 221.92 685.766 221.5 685.246 221.22C684.74 220.927 684.193 220.78 683.606 220.78C683.033 220.78 682.486 220.927 681.966 221.22C681.46 221.513 681.046 221.94 680.726 222.5C680.42 223.06 680.266 223.72 680.266 224.48C680.266 225.24 680.42 225.907 680.726 226.48C681.046 227.04 681.46 227.467 681.966 227.76C682.486 228.053 683.033 228.2 683.606 228.2C684.193 228.2 684.74 228.053 685.246 227.76C685.766 227.453 686.18 227.013 686.486 226.44C686.806 225.867 686.966 225.2 686.966 224.44ZM693.821 215.2V230H691.541V215.2H693.821ZM701.594 230.18C700.554 230.18 699.614 229.947 698.774 229.48C697.934 229 697.274 228.333 696.794 227.48C696.314 226.613 696.074 225.613 696.074 224.48C696.074 223.36 696.321 222.367 696.814 221.5C697.308 220.633 697.981 219.967 698.834 219.5C699.688 219.033 700.641 218.8 701.694 218.8C702.748 218.8 703.701 219.033 704.554 219.5C705.408 219.967 706.081 220.633 706.574 221.5C707.068 222.367 707.314 223.36 707.314 224.48C707.314 225.6 707.061 226.593 706.554 227.46C706.048 228.327 705.354 229 704.474 229.48C703.608 229.947 702.648 230.18 701.594 230.18ZM701.594 228.2C702.181 228.2 702.728 228.06 703.234 227.78C703.754 227.5 704.174 227.08 704.494 226.52C704.814 225.96 704.974 225.28 704.974 224.48C704.974 223.68 704.821 223.007 704.514 222.46C704.208 221.9 703.801 221.48 703.294 221.2C702.788 220.92 702.241 220.78 701.654 220.78C701.068 220.78 700.521 220.92 700.014 221.2C699.521 221.48 699.128 221.9 698.834 222.46C698.541 223.007 698.394 223.68 698.394 224.48C698.394 225.667 698.694 226.587 699.294 227.24C699.908 227.88 700.674 228.2 701.594 228.2ZM711.848 220.58C712.182 220.02 712.622 219.587 713.168 219.28C713.728 218.96 714.388 218.8 715.148 218.8V221.16H714.568C713.675 221.16 712.995 221.387 712.528 221.84C712.075 222.293 711.848 223.08 711.848 224.2V230H709.568V218.98H711.848V220.58ZM718.404 217.52C717.991 217.52 717.644 217.38 717.364 217.1C717.084 216.82 716.944 216.473 716.944 216.06C716.944 215.647 717.084 215.3 717.364 215.02C717.644 214.74 717.991 214.6 718.404 214.6C718.804 214.6 719.144 214.74 719.424 215.02C719.704 215.3 719.844 215.647 719.844 216.06C719.844 216.473 719.704 216.82 719.424 217.1C719.144 217.38 718.804 217.52 718.404 217.52ZM719.524 218.98V230H717.244V218.98H719.524ZM728.078 218.8C728.944 218.8 729.718 218.98 730.398 219.34C731.091 219.7 731.631 220.233 732.018 220.94C732.404 221.647 732.598 222.5 732.598 223.5V230H730.338V223.84C730.338 222.853 730.091 222.1 729.598 221.58C729.104 221.047 728.431 220.78 727.578 220.78C726.724 220.78 726.044 221.047 725.538 221.58C725.044 222.1 724.798 222.853 724.798 223.84V230H722.518V218.98H724.798V220.24C725.171 219.787 725.644 219.433 726.218 219.18C726.804 218.927 727.424 218.8 728.078 218.8ZM739.946 218.8C740.799 218.8 741.553 218.973 742.206 219.32C742.873 219.653 743.393 220.073 743.766 220.58V218.98H746.066V230.18C746.066 231.193 745.853 232.093 745.426 232.88C744.999 233.68 744.379 234.307 743.566 234.76C742.766 235.213 741.806 235.44 740.686 235.44C739.193 235.44 737.953 235.087 736.966 234.38C735.979 233.687 735.419 232.74 735.286 231.54H737.546C737.719 232.113 738.086 232.573 738.646 232.92C739.219 233.28 739.899 233.46 740.686 233.46C741.606 233.46 742.346 233.18 742.906 232.62C743.479 232.06 743.766 231.247 743.766 230.18V228.34C743.379 228.86 742.853 229.3 742.186 229.66C741.533 230.007 740.786 230.18 739.946 230.18C738.986 230.18 738.106 229.94 737.306 229.46C736.519 228.967 735.893 228.287 735.426 227.42C734.973 226.54 734.746 225.547 734.746 224.44C734.746 223.333 734.973 222.353 735.426 221.5C735.893 220.647 736.519 219.987 737.306 219.52C738.106 219.04 738.986 218.8 739.946 218.8ZM743.766 224.48C743.766 223.72 743.606 223.06 743.286 222.5C742.979 221.94 742.573 221.513 742.066 221.22C741.559 220.927 741.013 220.78 740.426 220.78C739.839 220.78 739.293 220.927 738.786 221.22C738.279 221.5 737.866 221.92 737.546 222.48C737.239 223.027 737.086 223.68 737.086 224.44C737.086 225.2 737.239 225.867 737.546 226.44C737.866 227.013 738.279 227.453 738.786 227.76C739.306 228.053 739.853 228.2 740.426 228.2C741.013 228.2 741.559 228.053 742.066 227.76C742.573 227.467 742.979 227.04 743.286 226.48C743.606 225.907 743.766 225.24 743.766 224.48ZM753.496 223.02C753.496 221.66 753.809 220.44 754.436 219.36C755.076 218.28 755.936 217.44 757.016 216.84C758.109 216.227 759.303 215.92 760.596 215.92C762.076 215.92 763.389 216.287 764.536 217.02C765.696 217.74 766.536 218.767 767.056 220.1H764.316C763.956 219.367 763.456 218.82 762.816 218.46C762.176 218.1 761.436 217.92 760.596 217.92C759.676 217.92 758.856 218.127 758.136 218.54C757.416 218.953 756.849 219.547 756.436 220.32C756.036 221.093 755.836 221.993 755.836 223.02C755.836 224.047 756.036 224.947 756.436 225.72C756.849 226.493 757.416 227.093 758.136 227.52C758.856 227.933 759.676 228.14 760.596 228.14C761.436 228.14 762.176 227.96 762.816 227.6C763.456 227.24 763.956 226.693 764.316 225.96H767.056C766.536 227.293 765.696 228.32 764.536 229.04C763.389 229.76 762.076 230.12 760.596 230.12C759.289 230.12 758.096 229.82 757.016 229.22C755.936 228.607 755.076 227.76 754.436 226.68C753.809 225.6 753.496 224.38 753.496 223.02ZM774.505 230.18C773.465 230.18 772.525 229.947 771.685 229.48C770.845 229 770.185 228.333 769.705 227.48C769.225 226.613 768.985 225.613 768.985 224.48C768.985 223.36 769.231 222.367 769.725 221.5C770.218 220.633 770.891 219.967 771.745 219.5C772.598 219.033 773.551 218.8 774.605 218.8C775.658 218.8 776.611 219.033 777.465 219.5C778.318 219.967 778.991 220.633 779.485 221.5C779.978 222.367 780.225 223.36 780.225 224.48C780.225 225.6 779.971 226.593 779.465 227.46C778.958 228.327 778.265 229 777.385 229.48C776.518 229.947 775.558 230.18 774.505 230.18ZM774.505 228.2C775.091 228.2 775.638 228.06 776.145 227.78C776.665 227.5 777.085 227.08 777.405 226.52C777.725 225.96 777.885 225.28 777.885 224.48C777.885 223.68 777.731 223.007 777.425 222.46C777.118 221.9 776.711 221.48 776.205 221.2C775.698 220.92 775.151 220.78 774.565 220.78C773.978 220.78 773.431 220.92 772.925 221.2C772.431 221.48 772.038 221.9 771.745 222.46C771.451 223.007 771.305 223.68 771.305 224.48C771.305 225.667 771.605 226.587 772.205 227.24C772.818 227.88 773.585 228.2 774.505 228.2ZM788.039 218.8C788.905 218.8 789.679 218.98 790.359 219.34C791.052 219.7 791.592 220.233 791.979 220.94C792.365 221.647 792.559 222.5 792.559 223.5V230H790.299V223.84C790.299 222.853 790.052 222.1 789.559 221.58C789.065 221.047 788.392 220.78 787.539 220.78C786.685 220.78 786.005 221.047 785.499 221.58C785.005 222.1 784.759 222.853 784.759 223.84V230H782.479V218.98H784.759V220.24C785.132 219.787 785.605 219.433 786.179 219.18C786.765 218.927 787.385 218.8 788.039 218.8ZM794.707 224.48C794.707 223.347 794.933 222.353 795.387 221.5C795.853 220.633 796.493 219.967 797.307 219.5C798.12 219.033 799.053 218.8 800.107 218.8C801.44 218.8 802.54 219.12 803.407 219.76C804.287 220.387 804.88 221.287 805.187 222.46H802.727C802.527 221.913 802.207 221.487 801.767 221.18C801.327 220.873 800.773 220.72 800.107 220.72C799.173 220.72 798.427 221.053 797.867 221.72C797.32 222.373 797.047 223.293 797.047 224.48C797.047 225.667 797.32 226.593 797.867 227.26C798.427 227.927 799.173 228.26 800.107 228.26C801.427 228.26 802.3 227.68 802.727 226.52H805.187C804.867 227.64 804.267 228.533 803.387 229.2C802.507 229.853 801.413 230.18 800.107 230.18C799.053 230.18 798.12 229.947 797.307 229.48C796.493 229 795.853 228.333 795.387 227.48C794.933 226.613 794.707 225.613 794.707 224.48ZM817.559 224.22C817.559 224.633 817.532 225.007 817.479 225.34H809.059C809.126 226.22 809.452 226.927 810.039 227.46C810.626 227.993 811.346 228.26 812.199 228.26C813.426 228.26 814.292 227.747 814.799 226.72H817.259C816.926 227.733 816.319 228.567 815.439 229.22C814.572 229.86 813.492 230.18 812.199 230.18C811.146 230.18 810.199 229.947 809.359 229.48C808.532 229 807.879 228.333 807.399 227.48C806.932 226.613 806.699 225.613 806.699 224.48C806.699 223.347 806.926 222.353 807.379 221.5C807.846 220.633 808.492 219.967 809.319 219.5C810.159 219.033 811.119 218.8 812.199 218.8C813.239 218.8 814.166 219.027 814.979 219.48C815.792 219.933 816.426 220.573 816.879 221.4C817.332 222.213 817.559 223.153 817.559 224.22ZM815.179 223.5C815.166 222.66 814.866 221.987 814.279 221.48C813.692 220.973 812.966 220.72 812.099 220.72C811.312 220.72 810.639 220.973 810.079 221.48C809.519 221.973 809.186 222.647 809.079 223.5H815.179ZM822.083 220.6C822.469 220.093 822.996 219.667 823.663 219.32C824.329 218.973 825.083 218.8 825.923 218.8C826.883 218.8 827.756 219.04 828.543 219.52C829.343 219.987 829.969 220.647 830.423 221.5C830.876 222.353 831.103 223.333 831.103 224.44C831.103 225.547 830.876 226.54 830.423 227.42C829.969 228.287 829.343 228.967 828.543 229.46C827.756 229.94 826.883 230.18 825.923 230.18C825.083 230.18 824.336 230.013 823.683 229.68C823.029 229.333 822.496 228.907 822.083 228.4V235.24H819.803V218.98H822.083V220.6ZM828.783 224.44C828.783 223.68 828.623 223.027 828.303 222.48C827.996 221.92 827.583 221.5 827.063 221.22C826.556 220.927 826.009 220.78 825.423 220.78C824.849 220.78 824.303 220.927 823.783 221.22C823.276 221.513 822.863 221.94 822.543 222.5C822.236 223.06 822.083 223.72 822.083 224.48C822.083 225.24 822.236 225.907 822.543 226.48C822.863 227.04 823.276 227.467 823.783 227.76C824.303 228.053 824.849 228.2 825.423 228.2C826.009 228.2 826.556 228.053 827.063 227.76C827.583 227.453 827.996 227.013 828.303 226.44C828.623 225.867 828.783 225.2 828.783 224.44ZM836.017 220.84V226.94C836.017 227.353 836.111 227.653 836.297 227.84C836.497 228.013 836.831 228.1 837.297 228.1H838.697V230H836.897C835.871 230 835.084 229.76 834.537 229.28C833.991 228.8 833.717 228.02 833.717 226.94V220.84H832.417V218.98H833.717V216.24H836.017V218.98H838.697V220.84H836.017ZM844.799 230.18C843.932 230.18 843.152 230.027 842.459 229.72C841.779 229.4 841.239 228.973 840.839 228.44C840.439 227.893 840.225 227.287 840.199 226.62H842.559C842.599 227.087 842.819 227.48 843.219 227.8C843.632 228.107 844.145 228.26 844.759 228.26C845.399 228.26 845.892 228.14 846.239 227.9C846.599 227.647 846.779 227.327 846.779 226.94C846.779 226.527 846.579 226.22 846.179 226.02C845.792 225.82 845.172 225.6 844.319 225.36C843.492 225.133 842.819 224.913 842.299 224.7C841.779 224.487 841.325 224.16 840.939 223.72C840.565 223.28 840.379 222.7 840.379 221.98C840.379 221.393 840.552 220.86 840.899 220.38C841.245 219.887 841.739 219.5 842.379 219.22C843.032 218.94 843.779 218.8 844.619 218.8C845.872 218.8 846.879 219.12 847.639 219.76C848.412 220.387 848.825 221.247 848.879 222.34H846.599C846.559 221.847 846.359 221.453 845.999 221.16C845.639 220.867 845.152 220.72 844.539 220.72C843.939 220.72 843.479 220.833 843.159 221.06C842.839 221.287 842.679 221.587 842.679 221.96C842.679 222.253 842.785 222.5 842.999 222.7C843.212 222.9 843.472 223.06 843.779 223.18C844.085 223.287 844.539 223.427 845.139 223.6C845.939 223.813 846.592 224.033 847.099 224.26C847.619 224.473 848.065 224.793 848.439 225.22C848.812 225.647 849.005 226.213 849.019 226.92C849.019 227.547 848.845 228.107 848.499 228.6C848.152 229.093 847.659 229.48 847.019 229.76C846.392 230.04 845.652 230.18 844.799 230.18Z" fill="black"/>
<path d="M1222.22 179.1C1223.7 179.1 1224.99 179.387 1226.1 179.96C1227.22 180.52 1228.08 181.333 1228.68 182.4C1229.29 183.453 1229.6 184.687 1229.6 186.1C1229.6 187.513 1229.29 188.74 1228.68 189.78C1228.08 190.82 1227.22 191.62 1226.1 192.18C1224.99 192.727 1223.7 193 1222.22 193H1217.68V179.1H1222.22ZM1222.22 191.14C1223.84 191.14 1225.09 190.7 1225.96 189.82C1226.82 188.94 1227.26 187.7 1227.26 186.1C1227.26 184.487 1226.82 183.227 1225.96 182.32C1225.09 181.413 1223.84 180.96 1222.22 180.96H1219.96V191.14H1222.22ZM1241.96 187.22C1241.96 187.633 1241.93 188.007 1241.88 188.34H1233.46C1233.52 189.22 1233.85 189.927 1234.44 190.46C1235.02 190.993 1235.74 191.26 1236.6 191.26C1237.82 191.26 1238.69 190.747 1239.2 189.72H1241.66C1241.32 190.733 1240.72 191.567 1239.84 192.22C1238.97 192.86 1237.89 193.18 1236.6 193.18C1235.54 193.18 1234.6 192.947 1233.76 192.48C1232.93 192 1232.28 191.333 1231.8 190.48C1231.33 189.613 1231.1 188.613 1231.1 187.48C1231.1 186.347 1231.32 185.353 1231.78 184.5C1232.24 183.633 1232.89 182.967 1233.72 182.5C1234.56 182.033 1235.52 181.8 1236.6 181.8C1237.64 181.8 1238.56 182.027 1239.38 182.48C1240.19 182.933 1240.82 183.573 1241.28 184.4C1241.73 185.213 1241.96 186.153 1241.96 187.22ZM1239.58 186.5C1239.56 185.66 1239.26 184.987 1238.68 184.48C1238.09 183.973 1237.36 183.72 1236.5 183.72C1235.71 183.72 1235.04 183.973 1234.48 184.48C1233.92 184.973 1233.58 185.647 1233.48 186.5H1239.58ZM1248.2 193.18C1247.33 193.18 1246.55 193.027 1245.86 192.72C1245.18 192.4 1244.64 191.973 1244.24 191.44C1243.84 190.893 1243.63 190.287 1243.6 189.62H1245.96C1246 190.087 1246.22 190.48 1246.62 190.8C1247.03 191.107 1247.55 191.26 1248.16 191.26C1248.8 191.26 1249.29 191.14 1249.64 190.9C1250 190.647 1250.18 190.327 1250.18 189.94C1250.18 189.527 1249.98 189.22 1249.58 189.02C1249.19 188.82 1248.57 188.6 1247.72 188.36C1246.89 188.133 1246.22 187.913 1245.7 187.7C1245.18 187.487 1244.73 187.16 1244.34 186.72C1243.97 186.28 1243.78 185.7 1243.78 184.98C1243.78 184.393 1243.95 183.86 1244.3 183.38C1244.65 182.887 1245.14 182.5 1245.78 182.22C1246.43 181.94 1247.18 181.8 1248.02 181.8C1249.27 181.8 1250.28 182.12 1251.04 182.76C1251.81 183.387 1252.23 184.247 1252.28 185.34H1250C1249.96 184.847 1249.76 184.453 1249.4 184.16C1249.04 183.867 1248.55 183.72 1247.94 183.72C1247.34 183.72 1246.88 183.833 1246.56 184.06C1246.24 184.287 1246.08 184.587 1246.08 184.96C1246.08 185.253 1246.19 185.5 1246.4 185.7C1246.61 185.9 1246.87 186.06 1247.18 186.18C1247.49 186.287 1247.94 186.427 1248.54 186.6C1249.34 186.813 1249.99 187.033 1250.5 187.26C1251.02 187.473 1251.47 187.793 1251.84 188.22C1252.21 188.647 1252.41 189.213 1252.42 189.92C1252.42 190.547 1252.25 191.107 1251.9 191.6C1251.55 192.093 1251.06 192.48 1250.42 192.76C1249.79 193.04 1249.05 193.18 1248.2 193.18ZM1256.04 180.52C1255.63 180.52 1255.28 180.38 1255 180.1C1254.72 179.82 1254.58 179.473 1254.58 179.06C1254.58 178.647 1254.72 178.3 1255 178.02C1255.28 177.74 1255.63 177.6 1256.04 177.6C1256.44 177.6 1256.78 177.74 1257.06 178.02C1257.34 178.3 1257.48 178.647 1257.48 179.06C1257.48 179.473 1257.34 179.82 1257.06 180.1C1256.78 180.38 1256.44 180.52 1256.04 180.52ZM1257.16 181.98V193H1254.88V181.98H1257.16ZM1264.6 181.8C1265.45 181.8 1266.2 181.973 1266.86 182.32C1267.52 182.653 1268.04 183.073 1268.42 183.58V181.98H1270.72V193.18C1270.72 194.193 1270.5 195.093 1270.08 195.88C1269.65 196.68 1269.03 197.307 1268.22 197.76C1267.42 198.213 1266.46 198.44 1265.34 198.44C1263.84 198.44 1262.6 198.087 1261.62 197.38C1260.63 196.687 1260.07 195.74 1259.94 194.54H1262.2C1262.37 195.113 1262.74 195.573 1263.3 195.92C1263.87 196.28 1264.55 196.46 1265.34 196.46C1266.26 196.46 1267 196.18 1267.56 195.62C1268.13 195.06 1268.42 194.247 1268.42 193.18V191.34C1268.03 191.86 1267.5 192.3 1266.84 192.66C1266.18 193.007 1265.44 193.18 1264.6 193.18C1263.64 193.18 1262.76 192.94 1261.96 192.46C1261.17 191.967 1260.54 191.287 1260.08 190.42C1259.62 189.54 1259.4 188.547 1259.4 187.44C1259.4 186.333 1259.62 185.353 1260.08 184.5C1260.54 183.647 1261.17 182.987 1261.96 182.52C1262.76 182.04 1263.64 181.8 1264.6 181.8ZM1268.42 187.48C1268.42 186.72 1268.26 186.06 1267.94 185.5C1267.63 184.94 1267.22 184.513 1266.72 184.22C1266.21 183.927 1265.66 183.78 1265.08 183.78C1264.49 183.78 1263.94 183.927 1263.44 184.22C1262.93 184.5 1262.52 184.92 1262.2 185.48C1261.89 186.027 1261.74 186.68 1261.74 187.44C1261.74 188.2 1261.89 188.867 1262.2 189.44C1262.52 190.013 1262.93 190.453 1263.44 190.76C1263.96 191.053 1264.5 191.2 1265.08 191.2C1265.66 191.2 1266.21 191.053 1266.72 190.76C1267.22 190.467 1267.63 190.04 1267.94 189.48C1268.26 188.907 1268.42 188.24 1268.42 187.48ZM1279.27 181.8C1280.14 181.8 1280.91 181.98 1281.59 182.34C1282.28 182.7 1282.82 183.233 1283.21 183.94C1283.6 184.647 1283.79 185.5 1283.79 186.5V193H1281.53V186.84C1281.53 185.853 1281.28 185.1 1280.79 184.58C1280.3 184.047 1279.62 183.78 1278.77 183.78C1277.92 183.78 1277.24 184.047 1276.73 184.58C1276.24 185.1 1275.99 185.853 1275.99 186.84V193H1273.71V181.98H1275.99V183.24C1276.36 182.787 1276.84 182.433 1277.41 182.18C1278 181.927 1278.62 181.8 1279.27 181.8ZM1294.17 179.1V193H1291.89V179.1H1294.17ZM1299.83 183.84V189.94C1299.83 190.353 1299.92 190.653 1300.11 190.84C1300.31 191.013 1300.64 191.1 1301.11 191.1H1302.51V193H1300.71C1299.68 193 1298.89 192.76 1298.35 192.28C1297.8 191.8 1297.53 191.02 1297.53 189.94V183.84H1296.23V181.98H1297.53V179.24H1299.83V181.98H1302.51V183.84H1299.83ZM1314.71 187.22C1314.71 187.633 1314.68 188.007 1314.63 188.34H1306.21C1306.28 189.22 1306.6 189.927 1307.19 190.46C1307.78 190.993 1308.5 191.26 1309.35 191.26C1310.58 191.26 1311.44 190.747 1311.95 189.72H1314.41C1314.08 190.733 1313.47 191.567 1312.59 192.22C1311.72 192.86 1310.64 193.18 1309.35 193.18C1308.3 193.18 1307.35 192.947 1306.51 192.48C1305.68 192 1305.03 191.333 1304.55 190.48C1304.08 189.613 1303.85 188.613 1303.85 187.48C1303.85 186.347 1304.08 185.353 1304.53 184.5C1305 183.633 1305.64 182.967 1306.47 182.5C1307.31 182.033 1308.27 181.8 1309.35 181.8C1310.39 181.8 1311.32 182.027 1312.13 182.48C1312.94 182.933 1313.58 183.573 1314.03 184.4C1314.48 185.213 1314.71 186.153 1314.71 187.22ZM1312.33 186.5C1312.32 185.66 1312.02 184.987 1311.43 184.48C1310.84 183.973 1310.12 183.72 1309.25 183.72C1308.46 183.72 1307.79 183.973 1307.23 184.48C1306.67 184.973 1306.34 185.647 1306.23 186.5H1312.33ZM1319.23 183.58C1319.57 183.02 1320.01 182.587 1320.55 182.28C1321.11 181.96 1321.77 181.8 1322.53 181.8V184.16H1321.95C1321.06 184.16 1320.38 184.387 1319.91 184.84C1319.46 185.293 1319.23 186.08 1319.23 187.2V193H1316.95V181.98H1319.23V183.58ZM1323.87 187.44C1323.87 186.333 1324.1 185.353 1324.55 184.5C1325.02 183.647 1325.64 182.987 1326.43 182.52C1327.23 182.04 1328.11 181.8 1329.07 181.8C1329.94 181.8 1330.69 181.973 1331.33 182.32C1331.98 182.653 1332.5 183.073 1332.89 183.58V181.98H1335.19V193H1332.89V191.36C1332.5 191.88 1331.98 192.313 1331.31 192.66C1330.64 193.007 1329.88 193.18 1329.03 193.18C1328.08 193.18 1327.22 192.94 1326.43 192.46C1325.64 191.967 1325.02 191.287 1324.55 190.42C1324.1 189.54 1323.87 188.547 1323.87 187.44ZM1332.89 187.48C1332.89 186.72 1332.73 186.06 1332.41 185.5C1332.1 184.94 1331.7 184.513 1331.19 184.22C1330.68 183.927 1330.14 183.78 1329.55 183.78C1328.96 183.78 1328.42 183.927 1327.91 184.22C1327.4 184.5 1326.99 184.92 1326.67 185.48C1326.36 186.027 1326.21 186.68 1326.21 187.44C1326.21 188.2 1326.36 188.867 1326.67 189.44C1326.99 190.013 1327.4 190.453 1327.91 190.76C1328.43 191.053 1328.98 191.2 1329.55 191.2C1330.14 191.2 1330.68 191.053 1331.19 190.76C1331.7 190.467 1332.1 190.04 1332.41 189.48C1332.73 188.907 1332.89 188.24 1332.89 187.48ZM1340.84 183.84V189.94C1340.84 190.353 1340.94 190.653 1341.12 190.84C1341.32 191.013 1341.66 191.1 1342.12 191.1H1343.52V193H1341.72C1340.7 193 1339.91 192.76 1339.36 192.28C1338.82 191.8 1338.54 191.02 1338.54 189.94V183.84H1337.24V181.98H1338.54V179.24H1340.84V181.98H1343.52V183.84H1340.84ZM1346.79 180.52C1346.37 180.52 1346.03 180.38 1345.75 180.1C1345.47 179.82 1345.33 179.473 1345.33 179.06C1345.33 178.647 1345.47 178.3 1345.75 178.02C1346.03 177.74 1346.37 177.6 1346.79 177.6C1347.19 177.6 1347.53 177.74 1347.81 178.02C1348.09 178.3 1348.23 178.647 1348.23 179.06C1348.23 179.473 1348.09 179.82 1347.81 180.1C1347.53 180.38 1347.19 180.52 1346.79 180.52ZM1347.91 181.98V193H1345.63V181.98H1347.91ZM1355.68 193.18C1354.64 193.18 1353.7 192.947 1352.86 192.48C1352.02 192 1351.36 191.333 1350.88 190.48C1350.4 189.613 1350.16 188.613 1350.16 187.48C1350.16 186.36 1350.41 185.367 1350.9 184.5C1351.39 183.633 1352.07 182.967 1352.92 182.5C1353.77 182.033 1354.73 181.8 1355.78 181.8C1356.83 181.8 1357.79 182.033 1358.64 182.5C1359.49 182.967 1360.17 183.633 1360.66 184.5C1361.15 185.367 1361.4 186.36 1361.4 187.48C1361.4 188.6 1361.15 189.593 1360.64 190.46C1360.13 191.327 1359.44 192 1358.56 192.48C1357.69 192.947 1356.73 193.18 1355.68 193.18ZM1355.68 191.2C1356.27 191.2 1356.81 191.06 1357.32 190.78C1357.84 190.5 1358.26 190.08 1358.58 189.52C1358.9 188.96 1359.06 188.28 1359.06 187.48C1359.06 186.68 1358.91 186.007 1358.6 185.46C1358.29 184.9 1357.89 184.48 1357.38 184.2C1356.87 183.92 1356.33 183.78 1355.74 183.78C1355.15 183.78 1354.61 183.92 1354.1 184.2C1353.61 184.48 1353.21 184.9 1352.92 185.46C1352.63 186.007 1352.48 186.68 1352.48 187.48C1352.48 188.667 1352.78 189.587 1353.38 190.24C1353.99 190.88 1354.76 191.2 1355.68 191.2ZM1369.21 181.8C1370.08 181.8 1370.85 181.98 1371.53 182.34C1372.23 182.7 1372.77 183.233 1373.15 183.94C1373.54 184.647 1373.73 185.5 1373.73 186.5V193H1371.47V186.84C1371.47 185.853 1371.23 185.1 1370.73 184.58C1370.24 184.047 1369.57 183.78 1368.71 183.78C1367.86 183.78 1367.18 184.047 1366.67 184.58C1366.18 185.1 1365.93 185.853 1365.93 186.84V193H1363.65V181.98H1365.93V183.24C1366.31 182.787 1366.78 182.433 1367.35 182.18C1367.94 181.927 1368.56 181.8 1369.21 181.8ZM1380.64 193.18C1379.77 193.18 1378.99 193.027 1378.3 192.72C1377.62 192.4 1377.08 191.973 1376.68 191.44C1376.28 190.893 1376.07 190.287 1376.04 189.62H1378.4C1378.44 190.087 1378.66 190.48 1379.06 190.8C1379.47 191.107 1379.99 191.26 1380.6 191.26C1381.24 191.26 1381.73 191.14 1382.08 190.9C1382.44 190.647 1382.62 190.327 1382.62 189.94C1382.62 189.527 1382.42 189.22 1382.02 189.02C1381.63 188.82 1381.01 188.6 1380.16 188.36C1379.33 188.133 1378.66 187.913 1378.14 187.7C1377.62 187.487 1377.17 187.16 1376.78 186.72C1376.41 186.28 1376.22 185.7 1376.22 184.98C1376.22 184.393 1376.39 183.86 1376.74 183.38C1377.09 182.887 1377.58 182.5 1378.22 182.22C1378.87 181.94 1379.62 181.8 1380.46 181.8C1381.71 181.8 1382.72 182.12 1383.48 182.76C1384.25 183.387 1384.67 184.247 1384.72 185.34H1382.44C1382.4 184.847 1382.2 184.453 1381.84 184.16C1381.48 183.867 1380.99 183.72 1380.38 183.72C1379.78 183.72 1379.32 183.833 1379 184.06C1378.68 184.287 1378.52 184.587 1378.52 184.96C1378.52 185.253 1378.63 185.5 1378.84 185.7C1379.05 185.9 1379.31 186.06 1379.62 186.18C1379.93 186.287 1380.38 186.427 1380.98 186.6C1381.78 186.813 1382.43 187.033 1382.94 187.26C1383.46 187.473 1383.91 187.793 1384.28 188.22C1384.65 188.647 1384.85 189.213 1384.86 189.92C1384.86 190.547 1384.69 191.107 1384.34 191.6C1383.99 192.093 1383.5 192.48 1382.86 192.76C1382.23 193.04 1381.49 193.18 1380.64 193.18Z" fill="black"/>
<defs>
<filter id="filter0_d_140_91" x="0" y="0" width="410" height="144" filterUnits="userSpaceOnUse" color-interpolation-filters="sRGB">
<feFlood flood-opacity="0" result="BackgroundImageFix"/>
<feColorMatrix in="SourceAlpha" type="matrix" values="0 0 0 0 0 0 0 0 0 0 0 0 0 0 0 0 0 0 127 0" result="hardAlpha"/>
<feOffset dy="4"/>
<feGaussianBlur stdDeviation="2"/>
<feComposite in2="hardAlpha" operator="out"/>
<feColorMatrix type="matrix" values="0 0 0 0 0 0 0 0 0 0 0 0 0 0 0 0 0 0 0.25 0"/>
<feBlend mode="normal" in2="BackgroundImageFix" result="effect1_dropShadow_140_91"/>
<feBlend mode="normal" in="SourceGraphic" in2="effect1_dropShadow_140_91" result="shape"/>
</filter>
<filter id="filter1_d_140_91" x="548" y="0" width="410" height="144" filterUnits="userSpaceOnUse" color-interpolation-filters="sRGB">
<feFlood flood-opacity="0" result="BackgroundImageFix"/>
<feColorMatrix in="SourceAlpha" type="matrix" values="0 0 0 0 0 0 0 0 0 0 0 0 0 0 0 0 0 0 127 0" result="hardAlpha"/>
<feOffset dy="4"/>
<feGaussianBlur stdDeviation="2"/>
<feComposite in2="hardAlpha" operator="out"/>
<feColorMatrix type="matrix" values="0 0 0 0 0 0 0 0 0 0 0 0 0 0 0 0 0 0 0.25 0"/>
<feBlend mode="normal" in2="BackgroundImageFix" result="effect1_dropShadow_140_91"/>
<feBlend mode="normal" in="SourceGraphic" in2="effect1_dropShadow_140_91" result="shape"/>
</filter>
<filter id="filter2_d_140_91" x="1096" y="0" width="410" height="144" filterUnits="userSpaceOnUse" color-interpolation-filters="sRGB">
<feFlood flood-opacity="0" result="BackgroundImageFix"/>
<feColorMatrix in="SourceAlpha" type="matrix" values="0 0 0 0 0 0 0 0 0 0 0 0 0 0 0 0 0 0 127 0" result="hardAlpha"/>
<feOffset dy="4"/>
<feGaussianBlur stdDeviation="2"/>
<feComposite in2="hardAlpha" operator="out"/>
<feColorMatrix type="matrix" values="0 0 0 0 0 0 0 0 0 0 0 0 0 0 0 0 0 0 0.25 0"/>
<feBlend mode="normal" in2="BackgroundImageFix" result="effect1_dropShadow_140_91"/>
<feBlend mode="normal" in="SourceGraphic" in2="effect1_dropShadow_140_91" result="shape"/>
</filter>
</defs>
</svg>
