<svg width="1506" height="306" viewBox="0 0 1506 306" fill="none" xmlns="http://www.w3.org/2000/svg">
<g filter="url(#filter0_d_239_9)">
<rect x="5" y="1" width="400" height="134" rx="11" stroke="#8C20BF" stroke-width="2" shape-rendering="crispEdges"/>
</g>
<g filter="url(#filter1_d_239_9)">
<rect x="553" y="1" width="400" height="134" rx="11" stroke="#8C20BF" stroke-width="2" shape-rendering="crispEdges"/>
</g>
<g filter="url(#filter2_d_239_9)">
<rect x="1101" y="1" width="400" height="134" rx="11" stroke="#8C20BF" stroke-width="2" shape-rendering="crispEdges"/>
</g>
<rect x="418" y="65" width="122" height="7" rx="3.5" fill="#8C20BF"/>
<rect x="966" y="69" width="122" height="7" rx="3.5" fill="#8C20BF"/>
<path d="M114.642 73.925C114.642 78.775 117.817 81.175 121.892 81.175C125.942 81.175 129.342 78.775 129.342 73.925V63.45H125.067V73.95C125.067 76.025 123.992 77.225 121.967 77.225C119.942 77.225 118.917 76.025 118.917 73.95V63.45H114.642V73.925ZM143.668 76.95C143.593 71.75 136.043 73.325 136.043 71.1C136.043 70.425 136.593 70.025 137.593 70.025C138.793 70.025 139.518 70.65 139.643 71.6H143.593C143.318 68.85 141.318 66.85 137.718 66.85C134.068 66.85 132.043 68.8 132.043 71.175C132.043 76.3 139.643 74.675 139.643 76.925C139.643 77.55 139.068 78.05 137.968 78.05C136.793 78.05 135.918 77.4 135.818 76.425H131.593C131.793 79.125 134.293 81.2 138.018 81.2C141.518 81.2 143.668 79.375 143.668 76.95ZM152.434 70.275C153.859 70.275 155.059 71.15 155.059 72.675H149.709C149.959 71.125 151.034 70.275 152.434 70.275ZM159.109 76.375H154.559C154.209 77.125 153.534 77.725 152.334 77.725C150.959 77.725 149.834 76.875 149.684 75.05H159.359C159.409 74.625 159.434 74.2 159.434 73.8C159.434 69.55 156.559 66.85 152.484 66.85C148.334 66.85 145.434 69.6 145.434 74.025C145.434 78.45 148.384 81.2 152.484 81.2C155.959 81.2 158.434 79.1 159.109 76.375ZM165.964 74.525C165.964 72.125 167.139 71.425 169.164 71.425H170.339V66.9C168.464 66.9 166.939 67.9 165.964 69.375V67.05H161.689V81H165.964V74.525ZM186.955 69.15C186.955 70.525 186.205 71.35 184.605 71.35H181.955V67H184.605C186.205 67 186.955 67.85 186.955 69.15ZM177.68 63.45V81H181.955V74.375H182.98L186.63 81H191.455L187.405 74.05C190.105 73.25 191.305 71.175 191.305 68.975C191.305 65.925 189.155 63.45 184.855 63.45H177.68ZM200.139 70.275C201.564 70.275 202.764 71.15 202.764 72.675H197.414C197.664 71.125 198.739 70.275 200.139 70.275ZM206.814 76.375H202.264C201.914 77.125 201.239 77.725 200.039 77.725C198.664 77.725 197.539 76.875 197.389 75.05H207.064C207.114 74.625 207.139 74.2 207.139 73.8C207.139 69.55 204.264 66.85 200.189 66.85C196.039 66.85 193.139 69.6 193.139 74.025C193.139 78.45 196.089 81.2 200.189 81.2C203.664 81.2 206.139 79.1 206.814 76.375ZM220.719 76.95C220.644 71.75 213.094 73.325 213.094 71.1C213.094 70.425 213.644 70.025 214.644 70.025C215.844 70.025 216.569 70.65 216.694 71.6H220.644C220.369 68.85 218.369 66.85 214.769 66.85C211.119 66.85 209.094 68.8 209.094 71.175C209.094 76.3 216.694 74.675 216.694 76.925C216.694 77.55 216.119 78.05 215.019 78.05C213.844 78.05 212.969 77.4 212.869 76.425H208.644C208.844 79.125 211.344 81.2 215.069 81.2C218.569 81.2 220.719 79.375 220.719 76.95ZM229.485 70.275C230.91 70.275 232.11 71.15 232.11 72.675H226.76C227.01 71.125 228.085 70.275 229.485 70.275ZM236.16 76.375H231.61C231.26 77.125 230.585 77.725 229.385 77.725C228.01 77.725 226.885 76.875 226.735 75.05H236.41C236.46 74.625 236.485 74.2 236.485 73.8C236.485 69.55 233.61 66.85 229.535 66.85C225.385 66.85 222.485 69.6 222.485 74.025C222.485 78.45 225.435 81.2 229.535 81.2C233.01 81.2 235.485 79.1 236.16 76.375ZM237.89 74C237.89 78.4 240.615 81.2 244.015 81.2C246.09 81.2 247.565 80.25 248.34 79.025V81H252.615V67.05H248.34V69.025C247.59 67.8 246.115 66.85 244.04 66.85C240.615 66.85 237.89 69.6 237.89 74ZM248.34 74.025C248.34 76.25 246.915 77.475 245.29 77.475C243.69 77.475 242.24 76.225 242.24 74C242.24 71.775 243.69 70.575 245.29 70.575C246.915 70.575 248.34 71.8 248.34 74.025ZM259.983 74.525C259.983 72.125 261.158 71.425 263.183 71.425H264.358V66.9C262.483 66.9 260.958 67.9 259.983 69.375V67.05H255.708V81H259.983V74.525ZM265.551 74.025C265.551 78.45 268.451 81.2 272.551 81.2C276.051 81.2 278.526 79.175 279.251 75.95H274.701C274.326 76.975 273.651 77.55 272.476 77.55C270.951 77.55 269.901 76.35 269.901 74.025C269.901 71.7 270.951 70.5 272.476 70.5C273.651 70.5 274.351 71.125 274.701 72.1H279.251C278.526 68.775 276.051 66.85 272.551 66.85C268.451 66.85 265.551 69.625 265.551 74.025ZM281.538 81H285.813V73.425C285.813 71.525 286.863 70.475 288.488 70.475C290.113 70.475 291.163 71.525 291.163 73.425V81H295.413V72.85C295.413 69.1 293.288 66.9 290.113 66.9C288.188 66.9 286.663 67.725 285.813 68.925V62.5H281.538V81Z" fill="black"/>
<path d="M99.0213 172.02C99.0213 170.66 99.3346 169.44 99.9613 168.36C100.601 167.28 101.461 166.44 102.541 165.84C103.635 165.227 104.828 164.92 106.121 164.92C107.601 164.92 108.915 165.287 110.061 166.02C111.221 166.74 112.061 167.767 112.581 169.1H109.841C109.481 168.367 108.981 167.82 108.341 167.46C107.701 167.1 106.961 166.92 106.121 166.92C105.201 166.92 104.381 167.127 103.661 167.54C102.941 167.953 102.375 168.547 101.961 169.32C101.561 170.093 101.361 170.993 101.361 172.02C101.361 173.047 101.561 173.947 101.961 174.72C102.375 175.493 102.941 176.093 103.661 176.52C104.381 176.933 105.201 177.14 106.121 177.14C106.961 177.14 107.701 176.96 108.341 176.6C108.981 176.24 109.481 175.693 109.841 174.96H112.581C112.061 176.293 111.221 177.32 110.061 178.04C108.915 178.76 107.601 179.12 106.121 179.12C104.815 179.12 103.621 178.82 102.541 178.22C101.461 177.607 100.601 176.76 99.9613 175.68C99.3346 174.6 99.0213 173.38 99.0213 172.02ZM120.03 179.18C118.99 179.18 118.05 178.947 117.21 178.48C116.37 178 115.71 177.333 115.23 176.48C114.75 175.613 114.51 174.613 114.51 173.48C114.51 172.36 114.757 171.367 115.25 170.5C115.743 169.633 116.417 168.967 117.27 168.5C118.123 168.033 119.077 167.8 120.13 167.8C121.183 167.8 122.137 168.033 122.99 168.5C123.843 168.967 124.517 169.633 125.01 170.5C125.503 171.367 125.75 172.36 125.75 173.48C125.75 174.6 125.497 175.593 124.99 176.46C124.483 177.327 123.79 178 122.91 178.48C122.043 178.947 121.083 179.18 120.03 179.18ZM120.03 177.2C120.617 177.2 121.163 177.06 121.67 176.78C122.19 176.5 122.61 176.08 122.93 175.52C123.25 174.96 123.41 174.28 123.41 173.48C123.41 172.68 123.257 172.007 122.95 171.46C122.643 170.9 122.237 170.48 121.73 170.2C121.223 169.92 120.677 169.78 120.09 169.78C119.503 169.78 118.957 169.92 118.45 170.2C117.957 170.48 117.563 170.9 117.27 171.46C116.977 172.007 116.83 172.68 116.83 173.48C116.83 174.667 117.13 175.587 117.73 176.24C118.343 176.88 119.11 177.2 120.03 177.2ZM141.344 167.8C142.211 167.8 142.984 167.98 143.664 168.34C144.357 168.7 144.897 169.233 145.284 169.94C145.684 170.647 145.884 171.5 145.884 172.5V179H143.624V172.84C143.624 171.853 143.377 171.1 142.884 170.58C142.391 170.047 141.717 169.78 140.864 169.78C140.011 169.78 139.331 170.047 138.824 170.58C138.331 171.1 138.084 171.853 138.084 172.84V179H135.824V172.84C135.824 171.853 135.577 171.1 135.084 170.58C134.591 170.047 133.917 169.78 133.064 169.78C132.211 169.78 131.531 170.047 131.024 170.58C130.531 171.1 130.284 171.853 130.284 172.84V179H128.004V167.98H130.284V169.24C130.657 168.787 131.131 168.433 131.704 168.18C132.277 167.927 132.891 167.8 133.544 167.8C134.424 167.8 135.211 167.987 135.904 168.36C136.597 168.733 137.131 169.273 137.504 169.98C137.837 169.313 138.357 168.787 139.064 168.4C139.771 168 140.531 167.8 141.344 167.8ZM151.065 169.6C151.452 169.093 151.978 168.667 152.645 168.32C153.312 167.973 154.065 167.8 154.905 167.8C155.865 167.8 156.738 168.04 157.525 168.52C158.325 168.987 158.952 169.647 159.405 170.5C159.858 171.353 160.085 172.333 160.085 173.44C160.085 174.547 159.858 175.54 159.405 176.42C158.952 177.287 158.325 177.967 157.525 178.46C156.738 178.94 155.865 179.18 154.905 179.18C154.065 179.18 153.318 179.013 152.665 178.68C152.012 178.333 151.478 177.907 151.065 177.4V184.24H148.785V167.98H151.065V169.6ZM157.765 173.44C157.765 172.68 157.605 172.027 157.285 171.48C156.978 170.92 156.565 170.5 156.045 170.22C155.538 169.927 154.992 169.78 154.405 169.78C153.832 169.78 153.285 169.927 152.765 170.22C152.258 170.513 151.845 170.94 151.525 171.5C151.218 172.06 151.065 172.72 151.065 173.48C151.065 174.24 151.218 174.907 151.525 175.48C151.845 176.04 152.258 176.467 152.765 176.76C153.285 177.053 153.832 177.2 154.405 177.2C154.992 177.2 155.538 177.053 156.045 176.76C156.565 176.453 156.978 176.013 157.285 175.44C157.605 174.867 157.765 174.2 157.765 173.44ZM172.44 173.22C172.44 173.633 172.413 174.007 172.36 174.34H163.94C164.007 175.22 164.333 175.927 164.92 176.46C165.507 176.993 166.227 177.26 167.08 177.26C168.307 177.26 169.173 176.747 169.68 175.72H172.14C171.807 176.733 171.2 177.567 170.32 178.22C169.453 178.86 168.373 179.18 167.08 179.18C166.027 179.18 165.08 178.947 164.24 178.48C163.413 178 162.76 177.333 162.28 176.48C161.813 175.613 161.58 174.613 161.58 173.48C161.58 172.347 161.807 171.353 162.26 170.5C162.727 169.633 163.373 168.967 164.2 168.5C165.04 168.033 166 167.8 167.08 167.8C168.12 167.8 169.047 168.027 169.86 168.48C170.673 168.933 171.307 169.573 171.76 170.4C172.213 171.213 172.44 172.153 172.44 173.22ZM170.06 172.5C170.047 171.66 169.747 170.987 169.16 170.48C168.573 169.973 167.847 169.72 166.98 169.72C166.193 169.72 165.52 169.973 164.96 170.48C164.4 170.973 164.067 171.647 163.96 172.5H170.06ZM177.344 169.84V175.94C177.344 176.353 177.437 176.653 177.624 176.84C177.824 177.013 178.157 177.1 178.624 177.1H180.024V179H178.224C177.197 179 176.41 178.76 175.864 178.28C175.317 177.8 175.044 177.02 175.044 175.94V169.84H173.744V167.98H175.044V165.24H177.344V167.98H180.024V169.84H177.344ZM183.285 166.52C182.872 166.52 182.525 166.38 182.245 166.1C181.965 165.82 181.825 165.473 181.825 165.06C181.825 164.647 181.965 164.3 182.245 164.02C182.525 163.74 182.872 163.6 183.285 163.6C183.685 163.6 184.025 163.74 184.305 164.02C184.585 164.3 184.725 164.647 184.725 165.06C184.725 165.473 184.585 165.82 184.305 166.1C184.025 166.38 183.685 166.52 183.285 166.52ZM184.405 167.98V179H182.125V167.98H184.405ZM190.058 169.84V175.94C190.058 176.353 190.152 176.653 190.338 176.84C190.538 177.013 190.872 177.1 191.338 177.1H192.738V179H190.938C189.912 179 189.125 178.76 188.578 178.28C188.032 177.8 187.758 177.02 187.758 175.94V169.84H186.458V167.98H187.758V165.24H190.058V167.98H192.738V169.84H190.058ZM196 166.52C195.587 166.52 195.24 166.38 194.96 166.1C194.68 165.82 194.54 165.473 194.54 165.06C194.54 164.647 194.68 164.3 194.96 164.02C195.24 163.74 195.587 163.6 196 163.6C196.4 163.6 196.74 163.74 197.02 164.02C197.3 164.3 197.44 164.647 197.44 165.06C197.44 165.473 197.3 165.82 197.02 166.1C196.74 166.38 196.4 166.52 196 166.52ZM197.12 167.98V179H194.84V167.98H197.12ZM204.373 176.96L207.493 167.98H209.913L205.713 179H202.993L198.813 167.98H201.253L204.373 176.96ZM221.737 173.22C221.737 173.633 221.71 174.007 221.657 174.34H213.237C213.303 175.22 213.63 175.927 214.217 176.46C214.803 176.993 215.523 177.26 216.377 177.26C217.603 177.26 218.47 176.747 218.977 175.72H221.437C221.103 176.733 220.497 177.567 219.617 178.22C218.75 178.86 217.67 179.18 216.377 179.18C215.323 179.18 214.377 178.947 213.537 178.48C212.71 178 212.057 177.333 211.577 176.48C211.11 175.613 210.877 174.613 210.877 173.48C210.877 172.347 211.103 171.353 211.557 170.5C212.023 169.633 212.67 168.967 213.497 168.5C214.337 168.033 215.297 167.8 216.377 167.8C217.417 167.8 218.343 168.027 219.157 168.48C219.97 168.933 220.603 169.573 221.057 170.4C221.51 171.213 221.737 172.153 221.737 173.22ZM219.357 172.5C219.343 171.66 219.043 170.987 218.457 170.48C217.87 169.973 217.143 169.72 216.277 169.72C215.49 169.72 214.817 169.973 214.257 170.48C213.697 170.973 213.363 171.647 213.257 172.5H219.357ZM237.556 176.16H231.736L230.736 179H228.356L233.336 165.08H235.976L240.956 179H238.556L237.556 176.16ZM236.916 174.3L234.656 167.84L232.376 174.3H236.916ZM248.681 167.8C249.548 167.8 250.321 167.98 251.001 168.34C251.694 168.7 252.234 169.233 252.621 169.94C253.008 170.647 253.201 171.5 253.201 172.5V179H250.941V172.84C250.941 171.853 250.694 171.1 250.201 170.58C249.708 170.047 249.034 169.78 248.181 169.78C247.328 169.78 246.648 170.047 246.141 170.58C245.648 171.1 245.401 171.853 245.401 172.84V179H243.121V167.98H245.401V169.24C245.774 168.787 246.248 168.433 246.821 168.18C247.408 167.927 248.028 167.8 248.681 167.8ZM255.349 173.44C255.349 172.333 255.576 171.353 256.029 170.5C256.496 169.647 257.123 168.987 257.909 168.52C258.709 168.04 259.589 167.8 260.549 167.8C261.416 167.8 262.169 167.973 262.809 168.32C263.463 168.653 263.983 169.073 264.369 169.58V167.98H266.669V179H264.369V177.36C263.983 177.88 263.456 178.313 262.789 178.66C262.123 179.007 261.363 179.18 260.509 179.18C259.563 179.18 258.696 178.94 257.909 178.46C257.123 177.967 256.496 177.287 256.029 176.42C255.576 175.54 255.349 174.547 255.349 173.44ZM264.369 173.48C264.369 172.72 264.209 172.06 263.889 171.5C263.583 170.94 263.176 170.513 262.669 170.22C262.163 169.927 261.616 169.78 261.029 169.78C260.443 169.78 259.896 169.927 259.389 170.22C258.883 170.5 258.469 170.92 258.149 171.48C257.843 172.027 257.689 172.68 257.689 173.44C257.689 174.2 257.843 174.867 258.149 175.44C258.469 176.013 258.883 176.453 259.389 176.76C259.909 177.053 260.456 177.2 261.029 177.2C261.616 177.2 262.163 177.053 262.669 176.76C263.176 176.467 263.583 176.04 263.889 175.48C264.209 174.907 264.369 174.24 264.369 173.48ZM271.944 164.2V179H269.664V164.2H271.944ZM284.858 167.98L278.098 184.18H275.738L277.978 178.82L273.638 167.98H276.178L279.278 176.38L282.498 167.98H284.858ZM290.578 179.18C289.711 179.18 288.931 179.027 288.238 178.72C287.558 178.4 287.018 177.973 286.618 177.44C286.218 176.893 286.005 176.287 285.978 175.62H288.338C288.378 176.087 288.598 176.48 288.998 176.8C289.411 177.107 289.925 177.26 290.538 177.26C291.178 177.26 291.671 177.14 292.018 176.9C292.378 176.647 292.558 176.327 292.558 175.94C292.558 175.527 292.358 175.22 291.958 175.02C291.571 174.82 290.951 174.6 290.098 174.36C289.271 174.133 288.598 173.913 288.078 173.7C287.558 173.487 287.105 173.16 286.718 172.72C286.345 172.28 286.158 171.7 286.158 170.98C286.158 170.393 286.331 169.86 286.678 169.38C287.025 168.887 287.518 168.5 288.158 168.22C288.811 167.94 289.558 167.8 290.398 167.8C291.651 167.8 292.658 168.12 293.418 168.76C294.191 169.387 294.605 170.247 294.658 171.34H292.378C292.338 170.847 292.138 170.453 291.778 170.16C291.418 169.867 290.931 169.72 290.318 169.72C289.718 169.72 289.258 169.833 288.938 170.06C288.618 170.287 288.458 170.587 288.458 170.96C288.458 171.253 288.565 171.5 288.778 171.7C288.991 171.9 289.251 172.06 289.558 172.18C289.865 172.287 290.318 172.427 290.918 172.6C291.718 172.813 292.371 173.033 292.878 173.26C293.398 173.473 293.845 173.793 294.218 174.22C294.591 174.647 294.785 175.213 294.798 175.92C294.798 176.547 294.625 177.107 294.278 177.6C293.931 178.093 293.438 178.48 292.798 178.76C292.171 179.04 291.431 179.18 290.578 179.18ZM298.422 166.52C298.008 166.52 297.662 166.38 297.382 166.1C297.102 165.82 296.962 165.473 296.962 165.06C296.962 164.647 297.102 164.3 297.382 164.02C297.662 163.74 298.008 163.6 298.422 163.6C298.822 163.6 299.162 163.74 299.442 164.02C299.722 164.3 299.862 164.647 299.862 165.06C299.862 165.473 299.722 165.82 299.442 166.1C299.162 166.38 298.822 166.52 298.422 166.52ZM299.542 167.98V179H297.262V167.98H299.542ZM306.535 179.18C305.668 179.18 304.888 179.027 304.195 178.72C303.515 178.4 302.975 177.973 302.575 177.44C302.175 176.893 301.962 176.287 301.935 175.62H304.295C304.335 176.087 304.555 176.48 304.955 176.8C305.368 177.107 305.882 177.26 306.495 177.26C307.135 177.26 307.628 177.14 307.975 176.9C308.335 176.647 308.515 176.327 308.515 175.94C308.515 175.527 308.315 175.22 307.915 175.02C307.528 174.82 306.908 174.6 306.055 174.36C305.228 174.133 304.555 173.913 304.035 173.7C303.515 173.487 303.062 173.16 302.675 172.72C302.302 172.28 302.115 171.7 302.115 170.98C302.115 170.393 302.288 169.86 302.635 169.38C302.982 168.887 303.475 168.5 304.115 168.22C304.768 167.94 305.515 167.8 306.355 167.8C307.608 167.8 308.615 168.12 309.375 168.76C310.148 169.387 310.562 170.247 310.615 171.34H308.335C308.295 170.847 308.095 170.453 307.735 170.16C307.375 169.867 306.888 169.72 306.275 169.72C305.675 169.72 305.215 169.833 304.895 170.06C304.575 170.287 304.415 170.587 304.415 170.96C304.415 171.253 304.522 171.5 304.735 171.7C304.948 171.9 305.208 172.06 305.515 172.18C305.822 172.287 306.275 172.427 306.875 172.6C307.675 172.813 308.328 173.033 308.835 173.26C309.355 173.473 309.802 173.793 310.175 174.22C310.548 174.647 310.742 175.213 310.755 175.92C310.755 176.547 310.582 177.107 310.235 177.6C309.888 178.093 309.395 178.48 308.755 178.76C308.128 179.04 307.388 179.18 306.535 179.18Z" fill="black"/>
<path d="M685.319 170.86C686.066 170.993 686.699 171.387 687.219 172.04C687.739 172.693 687.999 173.433 687.999 174.26C687.999 174.967 687.812 175.607 687.439 176.18C687.079 176.74 686.552 177.187 685.859 177.52C685.166 177.84 684.359 178 683.439 178H677.879V164.1H683.179C684.126 164.1 684.939 164.26 685.619 164.58C686.299 164.9 686.812 165.333 687.159 165.88C687.506 166.413 687.679 167.013 687.679 167.68C687.679 168.48 687.466 169.147 687.039 169.68C686.612 170.213 686.039 170.607 685.319 170.86ZM680.159 169.94H682.979C683.726 169.94 684.306 169.773 684.719 169.44C685.146 169.093 685.359 168.6 685.359 167.96C685.359 167.333 685.146 166.847 684.719 166.5C684.306 166.14 683.726 165.96 682.979 165.96H680.159V169.94ZM683.239 176.14C684.012 176.14 684.619 175.953 685.059 175.58C685.499 175.207 685.719 174.687 685.719 174.02C685.719 173.34 685.486 172.8 685.019 172.4C684.552 172 683.932 171.8 683.159 171.8H680.159V176.14H683.239ZM692.757 168.58C693.09 168.02 693.53 167.587 694.077 167.28C694.637 166.96 695.297 166.8 696.057 166.8V169.16H695.477C694.583 169.16 693.903 169.387 693.437 169.84C692.983 170.293 692.757 171.08 692.757 172.2V178H690.477V166.98H692.757V168.58ZM697.392 172.44C697.392 171.333 697.619 170.353 698.072 169.5C698.539 168.647 699.166 167.987 699.952 167.52C700.752 167.04 701.632 166.8 702.592 166.8C703.459 166.8 704.212 166.973 704.852 167.32C705.506 167.653 706.026 168.073 706.412 168.58V166.98H708.712V178H706.412V176.36C706.026 176.88 705.499 177.313 704.832 177.66C704.166 178.007 703.406 178.18 702.552 178.18C701.606 178.18 700.739 177.94 699.952 177.46C699.166 176.967 698.539 176.287 698.072 175.42C697.619 174.54 697.392 173.547 697.392 172.44ZM706.412 172.48C706.412 171.72 706.252 171.06 705.932 170.5C705.626 169.94 705.219 169.513 704.712 169.22C704.206 168.927 703.659 168.78 703.072 168.78C702.486 168.78 701.939 168.927 701.432 169.22C700.926 169.5 700.512 169.92 700.192 170.48C699.886 171.027 699.732 171.68 699.732 172.44C699.732 173.2 699.886 173.867 700.192 174.44C700.512 175.013 700.926 175.453 701.432 175.76C701.952 176.053 702.499 176.2 703.072 176.2C703.659 176.2 704.206 176.053 704.712 175.76C705.219 175.467 705.626 175.04 705.932 174.48C706.252 173.907 706.412 173.24 706.412 172.48ZM712.867 165.52C712.454 165.52 712.107 165.38 711.827 165.1C711.547 164.82 711.407 164.473 711.407 164.06C711.407 163.647 711.547 163.3 711.827 163.02C712.107 162.74 712.454 162.6 712.867 162.6C713.267 162.6 713.607 162.74 713.887 163.02C714.167 163.3 714.307 163.647 714.307 164.06C714.307 164.473 714.167 164.82 713.887 165.1C713.607 165.38 713.267 165.52 712.867 165.52ZM713.987 166.98V178H711.707V166.98H713.987ZM722.54 166.8C723.407 166.8 724.18 166.98 724.86 167.34C725.554 167.7 726.094 168.233 726.48 168.94C726.867 169.647 727.06 170.5 727.06 171.5V178H724.8V171.84C724.8 170.853 724.554 170.1 724.06 169.58C723.567 169.047 722.894 168.78 722.04 168.78C721.187 168.78 720.507 169.047 720 169.58C719.507 170.1 719.26 170.853 719.26 171.84V178H716.98V166.98H719.26V168.24C719.634 167.787 720.107 167.433 720.68 167.18C721.267 166.927 721.887 166.8 722.54 166.8ZM733.969 178.18C733.102 178.18 732.322 178.027 731.629 177.72C730.949 177.4 730.409 176.973 730.009 176.44C729.609 175.893 729.395 175.287 729.369 174.62H731.729C731.769 175.087 731.989 175.48 732.389 175.8C732.802 176.107 733.315 176.26 733.929 176.26C734.569 176.26 735.062 176.14 735.409 175.9C735.769 175.647 735.949 175.327 735.949 174.94C735.949 174.527 735.749 174.22 735.349 174.02C734.962 173.82 734.342 173.6 733.489 173.36C732.662 173.133 731.989 172.913 731.469 172.7C730.949 172.487 730.495 172.16 730.109 171.72C729.735 171.28 729.549 170.7 729.549 169.98C729.549 169.393 729.722 168.86 730.069 168.38C730.415 167.887 730.909 167.5 731.549 167.22C732.202 166.94 732.949 166.8 733.789 166.8C735.042 166.8 736.049 167.12 736.809 167.76C737.582 168.387 737.995 169.247 738.049 170.34H735.769C735.729 169.847 735.529 169.453 735.169 169.16C734.809 168.867 734.322 168.72 733.709 168.72C733.109 168.72 732.649 168.833 732.329 169.06C732.009 169.287 731.849 169.587 731.849 169.96C731.849 170.253 731.955 170.5 732.169 170.7C732.382 170.9 732.642 171.06 732.949 171.18C733.255 171.287 733.709 171.427 734.309 171.6C735.109 171.813 735.762 172.033 736.269 172.26C736.789 172.473 737.235 172.793 737.609 173.22C737.982 173.647 738.175 174.213 738.189 174.92C738.189 175.547 738.015 176.107 737.669 176.6C737.322 177.093 736.829 177.48 736.189 177.76C735.562 178.04 734.822 178.18 733.969 178.18ZM743.312 168.84V174.94C743.312 175.353 743.406 175.653 743.592 175.84C743.792 176.013 744.126 176.1 744.592 176.1H745.992V178H744.192C743.166 178 742.379 177.76 741.832 177.28C741.286 176.8 741.012 176.02 741.012 174.94V168.84H739.712V166.98H741.012V164.24H743.312V166.98H745.992V168.84H743.312ZM752.874 178.18C751.834 178.18 750.894 177.947 750.054 177.48C749.214 177 748.554 176.333 748.074 175.48C747.594 174.613 747.354 173.613 747.354 172.48C747.354 171.36 747.6 170.367 748.094 169.5C748.587 168.633 749.26 167.967 750.114 167.5C750.967 167.033 751.92 166.8 752.974 166.8C754.027 166.8 754.98 167.033 755.834 167.5C756.687 167.967 757.36 168.633 757.854 169.5C758.347 170.367 758.594 171.36 758.594 172.48C758.594 173.6 758.34 174.593 757.834 175.46C757.327 176.327 756.634 177 755.754 177.48C754.887 177.947 753.927 178.18 752.874 178.18ZM752.874 176.2C753.46 176.2 754.007 176.06 754.514 175.78C755.034 175.5 755.454 175.08 755.774 174.52C756.094 173.96 756.254 173.28 756.254 172.48C756.254 171.68 756.1 171.007 755.794 170.46C755.487 169.9 755.08 169.48 754.574 169.2C754.067 168.92 753.52 168.78 752.934 168.78C752.347 168.78 751.8 168.92 751.294 169.2C750.8 169.48 750.407 169.9 750.114 170.46C749.82 171.007 749.674 171.68 749.674 172.48C749.674 173.667 749.974 174.587 750.574 175.24C751.187 175.88 751.954 176.2 752.874 176.2ZM763.128 168.58C763.461 168.02 763.901 167.587 764.448 167.28C765.008 166.96 765.668 166.8 766.428 166.8V169.16H765.848C764.954 169.16 764.274 169.387 763.808 169.84C763.354 170.293 763.128 171.08 763.128 172.2V178H760.848V166.98H763.128V168.58ZM781.863 166.8C782.73 166.8 783.503 166.98 784.183 167.34C784.877 167.7 785.417 168.233 785.803 168.94C786.203 169.647 786.403 170.5 786.403 171.5V178H784.143V171.84C784.143 170.853 783.897 170.1 783.403 169.58C782.91 169.047 782.237 168.78 781.383 168.78C780.53 168.78 779.85 169.047 779.343 169.58C778.85 170.1 778.603 170.853 778.603 171.84V178H776.343V171.84C776.343 170.853 776.097 170.1 775.603 169.58C775.11 169.047 774.437 168.78 773.583 168.78C772.73 168.78 772.05 169.047 771.543 169.58C771.05 170.1 770.803 170.853 770.803 171.84V178H768.523V166.98H770.803V168.24C771.177 167.787 771.65 167.433 772.223 167.18C772.797 166.927 773.41 166.8 774.063 166.8C774.943 166.8 775.73 166.987 776.423 167.36C777.117 167.733 777.65 168.273 778.023 168.98C778.357 168.313 778.877 167.787 779.583 167.4C780.29 167 781.05 166.8 781.863 166.8ZM790.465 165.52C790.051 165.52 789.705 165.38 789.425 165.1C789.145 164.82 789.005 164.473 789.005 164.06C789.005 163.647 789.145 163.3 789.425 163.02C789.705 162.74 790.051 162.6 790.465 162.6C790.865 162.6 791.205 162.74 791.485 163.02C791.765 163.3 791.905 163.647 791.905 164.06C791.905 164.473 791.765 164.82 791.485 165.1C791.205 165.38 790.865 165.52 790.465 165.52ZM791.585 166.98V178H789.305V166.98H791.585ZM800.138 166.8C801.005 166.8 801.778 166.98 802.458 167.34C803.151 167.7 803.691 168.233 804.078 168.94C804.465 169.647 804.658 170.5 804.658 171.5V178H802.398V171.84C802.398 170.853 802.151 170.1 801.658 169.58C801.165 169.047 800.491 168.78 799.638 168.78C798.785 168.78 798.105 169.047 797.598 169.58C797.105 170.1 796.858 170.853 796.858 171.84V178H794.578V166.98H796.858V168.24C797.231 167.787 797.705 167.433 798.278 167.18C798.865 166.927 799.485 166.8 800.138 166.8ZM812.006 166.8C812.86 166.8 813.613 166.973 814.266 167.32C814.933 167.653 815.453 168.073 815.826 168.58V166.98H818.126V178.18C818.126 179.193 817.913 180.093 817.486 180.88C817.06 181.68 816.44 182.307 815.626 182.76C814.826 183.213 813.866 183.44 812.746 183.44C811.253 183.44 810.013 183.087 809.026 182.38C808.04 181.687 807.48 180.74 807.346 179.54H809.606C809.78 180.113 810.146 180.573 810.706 180.92C811.28 181.28 811.96 181.46 812.746 181.46C813.666 181.46 814.406 181.18 814.966 180.62C815.54 180.06 815.826 179.247 815.826 178.18V176.34C815.44 176.86 814.913 177.3 814.246 177.66C813.593 178.007 812.846 178.18 812.006 178.18C811.046 178.18 810.166 177.94 809.366 177.46C808.58 176.967 807.953 176.287 807.486 175.42C807.033 174.54 806.806 173.547 806.806 172.44C806.806 171.333 807.033 170.353 807.486 169.5C807.953 168.647 808.58 167.987 809.366 167.52C810.166 167.04 811.046 166.8 812.006 166.8ZM815.826 172.48C815.826 171.72 815.666 171.06 815.346 170.5C815.04 169.94 814.633 169.513 814.126 169.22C813.62 168.927 813.073 168.78 812.486 168.78C811.9 168.78 811.353 168.927 810.846 169.22C810.34 169.5 809.926 169.92 809.606 170.48C809.3 171.027 809.146 171.68 809.146 172.44C809.146 173.2 809.3 173.867 809.606 174.44C809.926 175.013 810.34 175.453 810.846 175.76C811.366 176.053 811.913 176.2 812.486 176.2C813.073 176.2 813.62 176.053 814.126 175.76C814.633 175.467 815.04 175.04 815.346 174.48C815.666 173.907 815.826 173.24 815.826 172.48Z" fill="black"/>
<path d="M714.965 284.1L710.845 298H708.265L705.345 287.48L702.245 298L699.685 298.02L695.745 284.1H698.165L701.045 295.42L704.165 284.1H706.725L709.625 295.36L712.525 284.1H714.965ZM718.006 285.52C717.592 285.52 717.246 285.38 716.966 285.1C716.686 284.82 716.546 284.473 716.546 284.06C716.546 283.647 716.686 283.3 716.966 283.02C717.246 282.74 717.592 282.6 718.006 282.6C718.406 282.6 718.746 282.74 719.026 283.02C719.306 283.3 719.446 283.647 719.446 284.06C719.446 284.473 719.306 284.82 719.026 285.1C718.746 285.38 718.406 285.52 718.006 285.52ZM719.126 286.98V298H716.846V286.98H719.126ZM724.399 288.58C724.732 288.02 725.172 287.587 725.719 287.28C726.279 286.96 726.939 286.8 727.699 286.8V289.16H727.119C726.226 289.16 725.546 289.387 725.079 289.84C724.626 290.293 724.399 291.08 724.399 292.2V298H722.119V286.98H724.399V288.58ZM739.895 292.22C739.895 292.633 739.868 293.007 739.815 293.34H731.395C731.462 294.22 731.788 294.927 732.375 295.46C732.962 295.993 733.682 296.26 734.535 296.26C735.762 296.26 736.628 295.747 737.135 294.72H739.595C739.262 295.733 738.655 296.567 737.775 297.22C736.908 297.86 735.828 298.18 734.535 298.18C733.482 298.18 732.535 297.947 731.695 297.48C730.868 297 730.215 296.333 729.735 295.48C729.268 294.613 729.035 293.613 729.035 292.48C729.035 291.347 729.262 290.353 729.715 289.5C730.182 288.633 730.828 287.967 731.655 287.5C732.495 287.033 733.455 286.8 734.535 286.8C735.575 286.8 736.502 287.027 737.315 287.48C738.128 287.933 738.762 288.573 739.215 289.4C739.668 290.213 739.895 291.153 739.895 292.22ZM737.515 291.5C737.502 290.66 737.202 289.987 736.615 289.48C736.028 288.973 735.302 288.72 734.435 288.72C733.648 288.72 732.975 288.973 732.415 289.48C731.855 289.973 731.522 290.647 731.415 291.5H737.515ZM746.759 288.84H744.719V298H742.419V288.84H741.119V286.98H742.419V286.2C742.419 284.933 742.752 284.013 743.419 283.44C744.099 282.853 745.159 282.56 746.599 282.56V284.46C745.905 284.46 745.419 284.593 745.139 284.86C744.859 285.113 744.719 285.56 744.719 286.2V286.98H746.759V288.84ZM751.059 288.58C751.393 288.02 751.833 287.587 752.379 287.28C752.939 286.96 753.599 286.8 754.359 286.8V289.16H753.779C752.886 289.16 752.206 289.387 751.739 289.84C751.286 290.293 751.059 291.08 751.059 292.2V298H748.779V286.98H751.059V288.58ZM755.695 292.44C755.695 291.333 755.922 290.353 756.375 289.5C756.842 288.647 757.468 287.987 758.255 287.52C759.055 287.04 759.935 286.8 760.895 286.8C761.762 286.8 762.515 286.973 763.155 287.32C763.808 287.653 764.328 288.073 764.715 288.58V286.98H767.015V298H764.715V296.36C764.328 296.88 763.802 297.313 763.135 297.66C762.468 298.007 761.708 298.18 760.855 298.18C759.908 298.18 759.042 297.94 758.255 297.46C757.468 296.967 756.842 296.287 756.375 295.42C755.922 294.54 755.695 293.547 755.695 292.44ZM764.715 292.48C764.715 291.72 764.555 291.06 764.235 290.5C763.928 289.94 763.522 289.513 763.015 289.22C762.508 288.927 761.962 288.78 761.375 288.78C760.788 288.78 760.242 288.927 759.735 289.22C759.228 289.5 758.815 289.92 758.495 290.48C758.188 291.027 758.035 291.68 758.035 292.44C758.035 293.2 758.188 293.867 758.495 294.44C758.815 295.013 759.228 295.453 759.735 295.76C760.255 296.053 760.802 296.2 761.375 296.2C761.962 296.2 762.508 296.053 763.015 295.76C763.522 295.467 763.928 295.04 764.235 294.48C764.555 293.907 764.715 293.24 764.715 292.48ZM783.35 286.8C784.216 286.8 784.99 286.98 785.67 287.34C786.363 287.7 786.903 288.233 787.29 288.94C787.69 289.647 787.89 290.5 787.89 291.5V298H785.63V291.84C785.63 290.853 785.383 290.1 784.89 289.58C784.396 289.047 783.723 288.78 782.87 288.78C782.016 288.78 781.336 289.047 780.83 289.58C780.336 290.1 780.09 290.853 780.09 291.84V298H777.83V291.84C777.83 290.853 777.583 290.1 777.09 289.58C776.596 289.047 775.923 288.78 775.07 288.78C774.216 288.78 773.536 289.047 773.03 289.58C772.536 290.1 772.29 290.853 772.29 291.84V298H770.01V286.98H772.29V288.24C772.663 287.787 773.136 287.433 773.71 287.18C774.283 286.927 774.896 286.8 775.55 286.8C776.43 286.8 777.216 286.987 777.91 287.36C778.603 287.733 779.136 288.273 779.51 288.98C779.843 288.313 780.363 287.787 781.07 287.4C781.776 287 782.536 286.8 783.35 286.8ZM800.891 292.22C800.891 292.633 800.864 293.007 800.811 293.34H792.391C792.458 294.22 792.784 294.927 793.371 295.46C793.958 295.993 794.678 296.26 795.531 296.26C796.758 296.26 797.624 295.747 798.131 294.72H800.591C800.258 295.733 799.651 296.567 798.771 297.22C797.904 297.86 796.824 298.18 795.531 298.18C794.478 298.18 793.531 297.947 792.691 297.48C791.864 297 791.211 296.333 790.731 295.48C790.264 294.613 790.031 293.613 790.031 292.48C790.031 291.347 790.258 290.353 790.711 289.5C791.178 288.633 791.824 287.967 792.651 287.5C793.491 287.033 794.451 286.8 795.531 286.8C796.571 286.8 797.498 287.027 798.311 287.48C799.124 287.933 799.758 288.573 800.211 289.4C800.664 290.213 800.891 291.153 800.891 292.22ZM798.511 291.5C798.498 290.66 798.198 289.987 797.611 289.48C797.024 288.973 796.298 288.72 795.431 288.72C794.644 288.72 793.971 288.973 793.411 289.48C792.851 289.973 792.518 290.647 792.411 291.5H798.511Z" fill="black"/>
<path d="M687.974 244.1L682.754 258H680.114L674.874 244.1H677.314L681.434 255.66L685.574 244.1H687.974ZM691.041 245.52C690.628 245.52 690.281 245.38 690.001 245.1C689.721 244.82 689.581 244.473 689.581 244.06C689.581 243.647 689.721 243.3 690.001 243.02C690.281 242.74 690.628 242.6 691.041 242.6C691.441 242.6 691.781 242.74 692.061 243.02C692.341 243.3 692.481 243.647 692.481 244.06C692.481 244.473 692.341 244.82 692.061 245.1C691.781 245.38 691.441 245.52 691.041 245.52ZM692.161 246.98V258H689.881V246.98H692.161ZM699.154 258.18C698.288 258.18 697.508 258.027 696.814 257.72C696.134 257.4 695.594 256.973 695.194 256.44C694.794 255.893 694.581 255.287 694.554 254.62H696.914C696.954 255.087 697.174 255.48 697.574 255.8C697.988 256.107 698.501 256.26 699.114 256.26C699.754 256.26 700.248 256.14 700.594 255.9C700.954 255.647 701.134 255.327 701.134 254.94C701.134 254.527 700.934 254.22 700.534 254.02C700.148 253.82 699.528 253.6 698.674 253.36C697.848 253.133 697.174 252.913 696.654 252.7C696.134 252.487 695.681 252.16 695.294 251.72C694.921 251.28 694.734 250.7 694.734 249.98C694.734 249.393 694.908 248.86 695.254 248.38C695.601 247.887 696.094 247.5 696.734 247.22C697.388 246.94 698.134 246.8 698.974 246.8C700.228 246.8 701.234 247.12 701.994 247.76C702.768 248.387 703.181 249.247 703.234 250.34H700.954C700.914 249.847 700.714 249.453 700.354 249.16C699.994 248.867 699.508 248.72 698.894 248.72C698.294 248.72 697.834 248.833 697.514 249.06C697.194 249.287 697.034 249.587 697.034 249.96C697.034 250.253 697.141 250.5 697.354 250.7C697.568 250.9 697.828 251.06 698.134 251.18C698.441 251.287 698.894 251.427 699.494 251.6C700.294 251.813 700.948 252.033 701.454 252.26C701.974 252.473 702.421 252.793 702.794 253.22C703.168 253.647 703.361 254.213 703.374 254.92C703.374 255.547 703.201 256.107 702.854 256.6C702.508 257.093 702.014 257.48 701.374 257.76C700.748 258.04 700.008 258.18 699.154 258.18ZM715.818 246.98V258H713.538V256.7C713.178 257.153 712.705 257.513 712.118 257.78C711.545 258.033 710.931 258.16 710.278 258.16C709.411 258.16 708.631 257.98 707.938 257.62C707.258 257.26 706.718 256.727 706.318 256.02C705.931 255.313 705.738 254.46 705.738 253.46V246.98H707.998V253.12C707.998 254.107 708.245 254.867 708.738 255.4C709.231 255.92 709.905 256.18 710.758 256.18C711.611 256.18 712.285 255.92 712.778 255.4C713.285 254.867 713.538 254.107 713.538 253.12V246.98H715.818ZM718.066 252.44C718.066 251.333 718.293 250.353 718.746 249.5C719.213 248.647 719.84 247.987 720.626 247.52C721.426 247.04 722.306 246.8 723.266 246.8C724.133 246.8 724.886 246.973 725.526 247.32C726.18 247.653 726.7 248.073 727.086 248.58V246.98H729.386V258H727.086V256.36C726.7 256.88 726.173 257.313 725.506 257.66C724.84 258.007 724.08 258.18 723.226 258.18C722.28 258.18 721.413 257.94 720.626 257.46C719.84 256.967 719.213 256.287 718.746 255.42C718.293 254.54 718.066 253.547 718.066 252.44ZM727.086 252.48C727.086 251.72 726.926 251.06 726.606 250.5C726.3 249.94 725.893 249.513 725.386 249.22C724.88 248.927 724.333 248.78 723.746 248.78C723.16 248.78 722.613 248.927 722.106 249.22C721.6 249.5 721.186 249.92 720.866 250.48C720.56 251.027 720.406 251.68 720.406 252.44C720.406 253.2 720.56 253.867 720.866 254.44C721.186 255.013 721.6 255.453 722.106 255.76C722.626 256.053 723.173 256.2 723.746 256.2C724.333 256.2 724.88 256.053 725.386 255.76C725.893 255.467 726.3 255.04 726.606 254.48C726.926 253.907 727.086 253.24 727.086 252.48ZM734.661 243.2V258H732.381V243.2H734.661ZM752.625 258.14C751.692 258.14 750.852 257.98 750.105 257.66C749.358 257.327 748.772 256.86 748.345 256.26C747.918 255.66 747.705 254.96 747.705 254.16H750.145C750.198 254.76 750.432 255.253 750.845 255.64C751.272 256.027 751.865 256.22 752.625 256.22C753.412 256.22 754.025 256.033 754.465 255.66C754.905 255.273 755.125 254.78 755.125 254.18C755.125 253.713 754.985 253.333 754.705 253.04C754.438 252.747 754.098 252.52 753.685 252.36C753.285 252.2 752.725 252.027 752.005 251.84C751.098 251.6 750.358 251.36 749.785 251.12C749.225 250.867 748.745 250.48 748.345 249.96C747.945 249.44 747.745 248.747 747.745 247.88C747.745 247.08 747.945 246.38 748.345 245.78C748.745 245.18 749.305 244.72 750.025 244.4C750.745 244.08 751.578 243.92 752.525 243.92C753.872 243.92 754.972 244.26 755.825 244.94C756.692 245.607 757.172 246.527 757.265 247.7H754.745C754.705 247.193 754.465 246.76 754.025 246.4C753.585 246.04 753.005 245.86 752.285 245.86C751.632 245.86 751.098 246.027 750.685 246.36C750.272 246.693 750.065 247.173 750.065 247.8C750.065 248.227 750.192 248.58 750.445 248.86C750.712 249.127 751.045 249.34 751.445 249.5C751.845 249.66 752.392 249.833 753.085 250.02C754.005 250.273 754.752 250.527 755.325 250.78C755.912 251.033 756.405 251.427 756.805 251.96C757.218 252.48 757.425 253.18 757.425 254.06C757.425 254.767 757.232 255.433 756.845 256.06C756.472 256.687 755.918 257.193 755.185 257.58C754.465 257.953 753.612 258.14 752.625 258.14ZM770.035 246.98L763.275 263.18H760.915L763.155 257.82L758.815 246.98H761.355L764.455 255.38L767.675 246.98H770.035ZM775.756 258.18C774.889 258.18 774.109 258.027 773.416 257.72C772.736 257.4 772.196 256.973 771.796 256.44C771.396 255.893 771.183 255.287 771.156 254.62H773.516C773.556 255.087 773.776 255.48 774.176 255.8C774.589 256.107 775.103 256.26 775.716 256.26C776.356 256.26 776.849 256.14 777.196 255.9C777.556 255.647 777.736 255.327 777.736 254.94C777.736 254.527 777.536 254.22 777.136 254.02C776.749 253.82 776.129 253.6 775.276 253.36C774.449 253.133 773.776 252.913 773.256 252.7C772.736 252.487 772.283 252.16 771.896 251.72C771.523 251.28 771.336 250.7 771.336 249.98C771.336 249.393 771.509 248.86 771.856 248.38C772.203 247.887 772.696 247.5 773.336 247.22C773.989 246.94 774.736 246.8 775.576 246.8C776.829 246.8 777.836 247.12 778.596 247.76C779.369 248.387 779.783 249.247 779.836 250.34H777.556C777.516 249.847 777.316 249.453 776.956 249.16C776.596 248.867 776.109 248.72 775.496 248.72C774.896 248.72 774.436 248.833 774.116 249.06C773.796 249.287 773.636 249.587 773.636 249.96C773.636 250.253 773.743 250.5 773.956 250.7C774.169 250.9 774.429 251.06 774.736 251.18C775.043 251.287 775.496 251.427 776.096 251.6C776.896 251.813 777.549 252.033 778.056 252.26C778.576 252.473 779.023 252.793 779.396 253.22C779.769 253.647 779.963 254.213 779.976 254.92C779.976 255.547 779.803 256.107 779.456 256.6C779.109 257.093 778.616 257.48 777.976 257.76C777.349 258.04 776.609 258.18 775.756 258.18ZM785.099 248.84V254.94C785.099 255.353 785.193 255.653 785.379 255.84C785.579 256.013 785.913 256.1 786.379 256.1H787.779V258H785.979C784.953 258 784.166 257.76 783.619 257.28C783.073 256.8 782.799 256.02 782.799 254.94V248.84H781.499V246.98H782.799V244.24H785.099V246.98H787.779V248.84H785.099ZM799.981 252.22C799.981 252.633 799.954 253.007 799.901 253.34H791.481C791.548 254.22 791.874 254.927 792.461 255.46C793.048 255.993 793.768 256.26 794.621 256.26C795.848 256.26 796.714 255.747 797.221 254.72H799.681C799.348 255.733 798.741 256.567 797.861 257.22C796.994 257.86 795.914 258.18 794.621 258.18C793.568 258.18 792.621 257.947 791.781 257.48C790.954 257 790.301 256.333 789.821 255.48C789.354 254.613 789.121 253.613 789.121 252.48C789.121 251.347 789.348 250.353 789.801 249.5C790.268 248.633 790.914 247.967 791.741 247.5C792.581 247.033 793.541 246.8 794.621 246.8C795.661 246.8 796.588 247.027 797.401 247.48C798.214 247.933 798.848 248.573 799.301 249.4C799.754 250.213 799.981 251.153 799.981 252.22ZM797.601 251.5C797.588 250.66 797.288 249.987 796.701 249.48C796.114 248.973 795.388 248.72 794.521 248.72C793.734 248.72 793.061 248.973 792.501 249.48C791.941 249.973 791.608 250.647 791.501 251.5H797.601ZM815.565 246.8C816.431 246.8 817.205 246.98 817.885 247.34C818.578 247.7 819.118 248.233 819.505 248.94C819.905 249.647 820.105 250.5 820.105 251.5V258H817.845V251.84C817.845 250.853 817.598 250.1 817.105 249.58C816.611 249.047 815.938 248.78 815.085 248.78C814.231 248.78 813.551 249.047 813.045 249.58C812.551 250.1 812.305 250.853 812.305 251.84V258H810.045V251.84C810.045 250.853 809.798 250.1 809.305 249.58C808.811 249.047 808.138 248.78 807.285 248.78C806.431 248.78 805.751 249.047 805.245 249.58C804.751 250.1 804.505 250.853 804.505 251.84V258H802.225V246.98H804.505V248.24C804.878 247.787 805.351 247.433 805.925 247.18C806.498 246.927 807.111 246.8 807.765 246.8C808.645 246.8 809.431 246.987 810.125 247.36C810.818 247.733 811.351 248.273 811.725 248.98C812.058 248.313 812.578 247.787 813.285 247.4C813.991 247 814.751 246.8 815.565 246.8Z" fill="black"/>
<path d="M654.798 205.94V210.02H659.598V211.88H654.798V216.14H660.198V218H652.518V204.08H660.198V205.94H654.798ZM667.726 212.42L671.286 218H668.706L666.326 214.26L664.086 218H661.706L665.266 212.58L661.706 206.98H664.286L666.666 210.72L668.906 206.98H671.286L667.726 212.42ZM675.266 208.6C675.653 208.093 676.18 207.667 676.846 207.32C677.513 206.973 678.266 206.8 679.106 206.8C680.066 206.8 680.94 207.04 681.726 207.52C682.526 207.987 683.153 208.647 683.606 209.5C684.06 210.353 684.286 211.333 684.286 212.44C684.286 213.547 684.06 214.54 683.606 215.42C683.153 216.287 682.526 216.967 681.726 217.46C680.94 217.94 680.066 218.18 679.106 218.18C678.266 218.18 677.52 218.013 676.866 217.68C676.213 217.333 675.68 216.907 675.266 216.4V223.24H672.986V206.98H675.266V208.6ZM681.966 212.44C681.966 211.68 681.806 211.027 681.486 210.48C681.18 209.92 680.766 209.5 680.246 209.22C679.74 208.927 679.193 208.78 678.606 208.78C678.033 208.78 677.486 208.927 676.966 209.22C676.46 209.513 676.046 209.94 675.726 210.5C675.42 211.06 675.266 211.72 675.266 212.48C675.266 213.24 675.42 213.907 675.726 214.48C676.046 215.04 676.46 215.467 676.966 215.76C677.486 216.053 678.033 216.2 678.606 216.2C679.193 216.2 679.74 216.053 680.246 215.76C680.766 215.453 681.18 215.013 681.486 214.44C681.806 213.867 681.966 213.2 681.966 212.44ZM688.821 203.2V218H686.541V203.2H688.821ZM696.594 218.18C695.554 218.18 694.614 217.947 693.774 217.48C692.934 217 692.274 216.333 691.794 215.48C691.314 214.613 691.074 213.613 691.074 212.48C691.074 211.36 691.321 210.367 691.814 209.5C692.308 208.633 692.981 207.967 693.834 207.5C694.688 207.033 695.641 206.8 696.694 206.8C697.748 206.8 698.701 207.033 699.554 207.5C700.408 207.967 701.081 208.633 701.574 209.5C702.068 210.367 702.314 211.36 702.314 212.48C702.314 213.6 702.061 214.593 701.554 215.46C701.048 216.327 700.354 217 699.474 217.48C698.608 217.947 697.648 218.18 696.594 218.18ZM696.594 216.2C697.181 216.2 697.728 216.06 698.234 215.78C698.754 215.5 699.174 215.08 699.494 214.52C699.814 213.96 699.974 213.28 699.974 212.48C699.974 211.68 699.821 211.007 699.514 210.46C699.208 209.9 698.801 209.48 698.294 209.2C697.788 208.92 697.241 208.78 696.654 208.78C696.068 208.78 695.521 208.92 695.014 209.2C694.521 209.48 694.128 209.9 693.834 210.46C693.541 211.007 693.394 211.68 693.394 212.48C693.394 213.667 693.694 214.587 694.294 215.24C694.908 215.88 695.674 216.2 696.594 216.2ZM706.848 208.58C707.182 208.02 707.622 207.587 708.168 207.28C708.728 206.96 709.388 206.8 710.148 206.8V209.16H709.568C708.675 209.16 707.995 209.387 707.528 209.84C707.075 210.293 706.848 211.08 706.848 212.2V218H704.568V206.98H706.848V208.58ZM713.404 205.52C712.991 205.52 712.644 205.38 712.364 205.1C712.084 204.82 711.944 204.473 711.944 204.06C711.944 203.647 712.084 203.3 712.364 203.02C712.644 202.74 712.991 202.6 713.404 202.6C713.804 202.6 714.144 202.74 714.424 203.02C714.704 203.3 714.844 203.647 714.844 204.06C714.844 204.473 714.704 204.82 714.424 205.1C714.144 205.38 713.804 205.52 713.404 205.52ZM714.524 206.98V218H712.244V206.98H714.524ZM723.078 206.8C723.944 206.8 724.718 206.98 725.398 207.34C726.091 207.7 726.631 208.233 727.018 208.94C727.404 209.647 727.598 210.5 727.598 211.5V218H725.338V211.84C725.338 210.853 725.091 210.1 724.598 209.58C724.104 209.047 723.431 208.78 722.578 208.78C721.724 208.78 721.044 209.047 720.538 209.58C720.044 210.1 719.798 210.853 719.798 211.84V218H717.518V206.98H719.798V208.24C720.171 207.787 720.644 207.433 721.218 207.18C721.804 206.927 722.424 206.8 723.078 206.8ZM734.946 206.8C735.799 206.8 736.553 206.973 737.206 207.32C737.873 207.653 738.393 208.073 738.766 208.58V206.98H741.066V218.18C741.066 219.193 740.853 220.093 740.426 220.88C739.999 221.68 739.379 222.307 738.566 222.76C737.766 223.213 736.806 223.44 735.686 223.44C734.193 223.44 732.953 223.087 731.966 222.38C730.979 221.687 730.419 220.74 730.286 219.54H732.546C732.719 220.113 733.086 220.573 733.646 220.92C734.219 221.28 734.899 221.46 735.686 221.46C736.606 221.46 737.346 221.18 737.906 220.62C738.479 220.06 738.766 219.247 738.766 218.18V216.34C738.379 216.86 737.853 217.3 737.186 217.66C736.533 218.007 735.786 218.18 734.946 218.18C733.986 218.18 733.106 217.94 732.306 217.46C731.519 216.967 730.893 216.287 730.426 215.42C729.973 214.54 729.746 213.547 729.746 212.44C729.746 211.333 729.973 210.353 730.426 209.5C730.893 208.647 731.519 207.987 732.306 207.52C733.106 207.04 733.986 206.8 734.946 206.8ZM738.766 212.48C738.766 211.72 738.606 211.06 738.286 210.5C737.979 209.94 737.573 209.513 737.066 209.22C736.559 208.927 736.013 208.78 735.426 208.78C734.839 208.78 734.293 208.927 733.786 209.22C733.279 209.5 732.866 209.92 732.546 210.48C732.239 211.027 732.086 211.68 732.086 212.44C732.086 213.2 732.239 213.867 732.546 214.44C732.866 215.013 733.279 215.453 733.786 215.76C734.306 216.053 734.853 216.2 735.426 216.2C736.013 216.2 736.559 216.053 737.066 215.76C737.573 215.467 737.979 215.04 738.286 214.48C738.606 213.907 738.766 213.24 738.766 212.48ZM748.496 211.02C748.496 209.66 748.809 208.44 749.436 207.36C750.076 206.28 750.936 205.44 752.016 204.84C753.109 204.227 754.303 203.92 755.596 203.92C757.076 203.92 758.389 204.287 759.536 205.02C760.696 205.74 761.536 206.767 762.056 208.1H759.316C758.956 207.367 758.456 206.82 757.816 206.46C757.176 206.1 756.436 205.92 755.596 205.92C754.676 205.92 753.856 206.127 753.136 206.54C752.416 206.953 751.849 207.547 751.436 208.32C751.036 209.093 750.836 209.993 750.836 211.02C750.836 212.047 751.036 212.947 751.436 213.72C751.849 214.493 752.416 215.093 753.136 215.52C753.856 215.933 754.676 216.14 755.596 216.14C756.436 216.14 757.176 215.96 757.816 215.6C758.456 215.24 758.956 214.693 759.316 213.96H762.056C761.536 215.293 760.696 216.32 759.536 217.04C758.389 217.76 757.076 218.12 755.596 218.12C754.289 218.12 753.096 217.82 752.016 217.22C750.936 216.607 750.076 215.76 749.436 214.68C748.809 213.6 748.496 212.38 748.496 211.02ZM769.505 218.18C768.465 218.18 767.525 217.947 766.685 217.48C765.845 217 765.185 216.333 764.705 215.48C764.225 214.613 763.985 213.613 763.985 212.48C763.985 211.36 764.231 210.367 764.725 209.5C765.218 208.633 765.891 207.967 766.745 207.5C767.598 207.033 768.551 206.8 769.605 206.8C770.658 206.8 771.611 207.033 772.465 207.5C773.318 207.967 773.991 208.633 774.485 209.5C774.978 210.367 775.225 211.36 775.225 212.48C775.225 213.6 774.971 214.593 774.465 215.46C773.958 216.327 773.265 217 772.385 217.48C771.518 217.947 770.558 218.18 769.505 218.18ZM769.505 216.2C770.091 216.2 770.638 216.06 771.145 215.78C771.665 215.5 772.085 215.08 772.405 214.52C772.725 213.96 772.885 213.28 772.885 212.48C772.885 211.68 772.731 211.007 772.425 210.46C772.118 209.9 771.711 209.48 771.205 209.2C770.698 208.92 770.151 208.78 769.565 208.78C768.978 208.78 768.431 208.92 767.925 209.2C767.431 209.48 767.038 209.9 766.745 210.46C766.451 211.007 766.305 211.68 766.305 212.48C766.305 213.667 766.605 214.587 767.205 215.24C767.818 215.88 768.585 216.2 769.505 216.2ZM783.039 206.8C783.905 206.8 784.679 206.98 785.359 207.34C786.052 207.7 786.592 208.233 786.979 208.94C787.365 209.647 787.559 210.5 787.559 211.5V218H785.299V211.84C785.299 210.853 785.052 210.1 784.559 209.58C784.065 209.047 783.392 208.78 782.539 208.78C781.685 208.78 781.005 209.047 780.499 209.58C780.005 210.1 779.759 210.853 779.759 211.84V218H777.479V206.98H779.759V208.24C780.132 207.787 780.605 207.433 781.179 207.18C781.765 206.927 782.385 206.8 783.039 206.8ZM789.707 212.48C789.707 211.347 789.933 210.353 790.387 209.5C790.853 208.633 791.493 207.967 792.307 207.5C793.12 207.033 794.053 206.8 795.107 206.8C796.44 206.8 797.54 207.12 798.407 207.76C799.287 208.387 799.88 209.287 800.187 210.46H797.727C797.527 209.913 797.207 209.487 796.767 209.18C796.327 208.873 795.773 208.72 795.107 208.72C794.173 208.72 793.427 209.053 792.867 209.72C792.32 210.373 792.047 211.293 792.047 212.48C792.047 213.667 792.32 214.593 792.867 215.26C793.427 215.927 794.173 216.26 795.107 216.26C796.427 216.26 797.3 215.68 797.727 214.52H800.187C799.867 215.64 799.267 216.533 798.387 217.2C797.507 217.853 796.413 218.18 795.107 218.18C794.053 218.18 793.12 217.947 792.307 217.48C791.493 217 790.853 216.333 790.387 215.48C789.933 214.613 789.707 213.613 789.707 212.48ZM812.559 212.22C812.559 212.633 812.532 213.007 812.479 213.34H804.059C804.126 214.22 804.452 214.927 805.039 215.46C805.626 215.993 806.346 216.26 807.199 216.26C808.426 216.26 809.292 215.747 809.799 214.72H812.259C811.926 215.733 811.319 216.567 810.439 217.22C809.572 217.86 808.492 218.18 807.199 218.18C806.146 218.18 805.199 217.947 804.359 217.48C803.532 217 802.879 216.333 802.399 215.48C801.932 214.613 801.699 213.613 801.699 212.48C801.699 211.347 801.926 210.353 802.379 209.5C802.846 208.633 803.492 207.967 804.319 207.5C805.159 207.033 806.119 206.8 807.199 206.8C808.239 206.8 809.166 207.027 809.979 207.48C810.792 207.933 811.426 208.573 811.879 209.4C812.332 210.213 812.559 211.153 812.559 212.22ZM810.179 211.5C810.166 210.66 809.866 209.987 809.279 209.48C808.692 208.973 807.966 208.72 807.099 208.72C806.312 208.72 805.639 208.973 805.079 209.48C804.519 209.973 804.186 210.647 804.079 211.5H810.179ZM817.083 208.6C817.469 208.093 817.996 207.667 818.663 207.32C819.329 206.973 820.083 206.8 820.923 206.8C821.883 206.8 822.756 207.04 823.543 207.52C824.343 207.987 824.969 208.647 825.423 209.5C825.876 210.353 826.103 211.333 826.103 212.44C826.103 213.547 825.876 214.54 825.423 215.42C824.969 216.287 824.343 216.967 823.543 217.46C822.756 217.94 821.883 218.18 820.923 218.18C820.083 218.18 819.336 218.013 818.683 217.68C818.029 217.333 817.496 216.907 817.083 216.4V223.24H814.803V206.98H817.083V208.6ZM823.783 212.44C823.783 211.68 823.623 211.027 823.303 210.48C822.996 209.92 822.583 209.5 822.063 209.22C821.556 208.927 821.009 208.78 820.423 208.78C819.849 208.78 819.303 208.927 818.783 209.22C818.276 209.513 817.863 209.94 817.543 210.5C817.236 211.06 817.083 211.72 817.083 212.48C817.083 213.24 817.236 213.907 817.543 214.48C817.863 215.04 818.276 215.467 818.783 215.76C819.303 216.053 819.849 216.2 820.423 216.2C821.009 216.2 821.556 216.053 822.063 215.76C822.583 215.453 822.996 215.013 823.303 214.44C823.623 213.867 823.783 213.2 823.783 212.44ZM831.017 208.84V214.94C831.017 215.353 831.111 215.653 831.297 215.84C831.497 216.013 831.831 216.1 832.297 216.1H833.697V218H831.897C830.871 218 830.084 217.76 829.537 217.28C828.991 216.8 828.717 216.02 828.717 214.94V208.84H827.417V206.98H828.717V204.24H831.017V206.98H833.697V208.84H831.017ZM839.799 218.18C838.932 218.18 838.152 218.027 837.459 217.72C836.779 217.4 836.239 216.973 835.839 216.44C835.439 215.893 835.225 215.287 835.199 214.62H837.559C837.599 215.087 837.819 215.48 838.219 215.8C838.632 216.107 839.145 216.26 839.759 216.26C840.399 216.26 840.892 216.14 841.239 215.9C841.599 215.647 841.779 215.327 841.779 214.94C841.779 214.527 841.579 214.22 841.179 214.02C840.792 213.82 840.172 213.6 839.319 213.36C838.492 213.133 837.819 212.913 837.299 212.7C836.779 212.487 836.325 212.16 835.939 211.72C835.565 211.28 835.379 210.7 835.379 209.98C835.379 209.393 835.552 208.86 835.899 208.38C836.245 207.887 836.739 207.5 837.379 207.22C838.032 206.94 838.779 206.8 839.619 206.8C840.872 206.8 841.879 207.12 842.639 207.76C843.412 208.387 843.825 209.247 843.879 210.34H841.599C841.559 209.847 841.359 209.453 840.999 209.16C840.639 208.867 840.152 208.72 839.539 208.72C838.939 208.72 838.479 208.833 838.159 209.06C837.839 209.287 837.679 209.587 837.679 209.96C837.679 210.253 837.785 210.5 837.999 210.7C838.212 210.9 838.472 211.06 838.779 211.18C839.085 211.287 839.539 211.427 840.139 211.6C840.939 211.813 841.592 212.033 842.099 212.26C842.619 212.473 843.065 212.793 843.439 213.22C843.812 213.647 844.005 214.213 844.019 214.92C844.019 215.547 843.845 216.107 843.499 216.6C843.152 217.093 842.659 217.48 842.019 217.76C841.392 218.04 840.652 218.18 839.799 218.18Z" fill="black"/>
<path d="M701.047 81H705.322V63.45H701.047V81ZM707.57 74C707.57 78.4 710.295 81.2 713.72 81.2C715.77 81.2 717.245 80.275 718.02 79V81H722.295V62.5H718.02V68.975C717.17 67.7 715.57 66.85 713.72 66.85C710.295 66.85 707.57 69.6 707.57 74ZM718.02 74.025C718.02 76.25 716.595 77.475 714.97 77.475C713.37 77.475 711.92 76.225 711.92 74C711.92 71.775 713.37 70.575 714.97 70.575C716.595 70.575 718.02 71.8 718.02 74.025ZM731.537 70.275C732.962 70.275 734.162 71.15 734.162 72.675H728.812C729.062 71.125 730.137 70.275 731.537 70.275ZM738.212 76.375H733.662C733.312 77.125 732.637 77.725 731.437 77.725C730.062 77.725 728.937 76.875 728.787 75.05H738.462C738.512 74.625 738.537 74.2 738.537 73.8C738.537 69.55 735.662 66.85 731.587 66.85C727.437 66.85 724.537 69.6 724.537 74.025C724.537 78.45 727.487 81.2 731.587 81.2C735.062 81.2 737.537 79.1 738.212 76.375ZM739.943 74C739.943 78.4 742.668 81.2 746.068 81.2C748.143 81.2 749.618 80.25 750.393 79.025V81H754.668V67.05H750.393V69.025C749.643 67.8 748.168 66.85 746.093 66.85C742.668 66.85 739.943 69.6 739.943 74ZM750.393 74.025C750.393 76.25 748.968 77.475 747.343 77.475C745.743 77.475 744.293 76.225 744.293 74C744.293 71.775 745.743 70.575 747.343 70.575C748.968 70.575 750.393 71.8 750.393 74.025ZM758.435 76.15C758.435 79.775 760.46 81 763.36 81H765.535V77.375H764.01C763.06 77.375 762.71 77.025 762.71 76.2V70.6H765.51V67.05H762.71V63.65H758.435V67.05H756.735V70.6H758.435V76.15ZM767.917 81H772.192V67.05H767.917V81ZM770.067 65.6C771.567 65.6 772.592 64.575 772.592 63.3C772.592 62 771.567 60.975 770.067 60.975C768.542 60.975 767.517 62 767.517 63.3C767.517 64.575 768.542 65.6 770.067 65.6ZM788.94 74.025C788.94 69.6 785.79 66.85 781.69 66.85C777.615 66.85 774.44 69.6 774.44 74.025C774.44 78.45 777.54 81.2 781.64 81.2C785.74 81.2 788.94 78.45 788.94 74.025ZM778.79 74.025C778.79 71.65 780.14 70.55 781.69 70.55C783.19 70.55 784.59 71.65 784.59 74.025C784.59 76.375 783.165 77.5 781.64 77.5C780.09 77.5 778.79 76.375 778.79 74.025ZM800.833 81H805.083V72.85C805.083 69.1 802.933 66.9 799.708 66.9C797.833 66.9 796.333 67.725 795.483 68.9V67.05H791.208V81H795.483V73.425C795.483 71.525 796.533 70.475 798.158 70.475C799.783 70.475 800.833 71.525 800.833 73.425V81Z" fill="black"/>
<path d="M170.431 218.24C170.431 218.947 170.264 219.613 169.931 220.24C169.598 220.867 169.064 221.38 168.331 221.78C167.598 222.167 166.658 222.36 165.511 222.36H162.991V228H160.711V214.1H165.511C166.578 214.1 167.478 214.287 168.211 214.66C168.958 215.02 169.511 215.513 169.871 216.14C170.244 216.767 170.431 217.467 170.431 218.24ZM165.511 220.5C166.378 220.5 167.024 220.307 167.451 219.92C167.878 219.52 168.091 218.96 168.091 218.24C168.091 216.72 167.231 215.96 165.511 215.96H162.991V220.5H165.511ZM182.705 222.22C182.705 222.633 182.679 223.007 182.625 223.34H174.205C174.272 224.22 174.599 224.927 175.185 225.46C175.772 225.993 176.492 226.26 177.345 226.26C178.572 226.26 179.439 225.747 179.945 224.72H182.405C182.072 225.733 181.465 226.567 180.585 227.22C179.719 227.86 178.639 228.18 177.345 228.18C176.292 228.18 175.345 227.947 174.505 227.48C173.679 227 173.025 226.333 172.545 225.48C172.079 224.613 171.845 223.613 171.845 222.48C171.845 221.347 172.072 220.353 172.525 219.5C172.992 218.633 173.639 217.967 174.465 217.5C175.305 217.033 176.265 216.8 177.345 216.8C178.385 216.8 179.312 217.027 180.125 217.48C180.939 217.933 181.572 218.573 182.025 219.4C182.479 220.213 182.705 221.153 182.705 222.22ZM180.325 221.5C180.312 220.66 180.012 219.987 179.425 219.48C178.839 218.973 178.112 218.72 177.245 218.72C176.459 218.72 175.785 218.973 175.225 219.48C174.665 219.973 174.332 220.647 174.225 221.5H180.325ZM187.229 218.58C187.563 218.02 188.003 217.587 188.549 217.28C189.109 216.96 189.769 216.8 190.529 216.8V219.16H189.949C189.056 219.16 188.376 219.387 187.909 219.84C187.456 220.293 187.229 221.08 187.229 222.2V228H184.949V216.98H187.229V218.58ZM196.625 228.18C195.758 228.18 194.978 228.027 194.285 227.72C193.605 227.4 193.065 226.973 192.665 226.44C192.265 225.893 192.052 225.287 192.025 224.62H194.385C194.425 225.087 194.645 225.48 195.045 225.8C195.458 226.107 195.972 226.26 196.585 226.26C197.225 226.26 197.718 226.14 198.065 225.9C198.425 225.647 198.605 225.327 198.605 224.94C198.605 224.527 198.405 224.22 198.005 224.02C197.618 223.82 196.998 223.6 196.145 223.36C195.318 223.133 194.645 222.913 194.125 222.7C193.605 222.487 193.152 222.16 192.765 221.72C192.392 221.28 192.205 220.7 192.205 219.98C192.205 219.393 192.378 218.86 192.725 218.38C193.072 217.887 193.565 217.5 194.205 217.22C194.858 216.94 195.605 216.8 196.445 216.8C197.698 216.8 198.705 217.12 199.465 217.76C200.238 218.387 200.652 219.247 200.705 220.34H198.425C198.385 219.847 198.185 219.453 197.825 219.16C197.465 218.867 196.978 218.72 196.365 218.72C195.765 218.72 195.305 218.833 194.985 219.06C194.665 219.287 194.505 219.587 194.505 219.96C194.505 220.253 194.612 220.5 194.825 220.7C195.038 220.9 195.298 221.06 195.605 221.18C195.912 221.287 196.365 221.427 196.965 221.6C197.765 221.813 198.418 222.033 198.925 222.26C199.445 222.473 199.892 222.793 200.265 223.22C200.638 223.647 200.832 224.213 200.845 224.92C200.845 225.547 200.672 226.107 200.325 226.6C199.978 227.093 199.485 227.48 198.845 227.76C198.218 228.04 197.478 228.18 196.625 228.18ZM208.089 228.18C207.049 228.18 206.109 227.947 205.269 227.48C204.429 227 203.769 226.333 203.289 225.48C202.809 224.613 202.569 223.613 202.569 222.48C202.569 221.36 202.815 220.367 203.309 219.5C203.802 218.633 204.475 217.967 205.329 217.5C206.182 217.033 207.135 216.8 208.189 216.8C209.242 216.8 210.195 217.033 211.049 217.5C211.902 217.967 212.575 218.633 213.069 219.5C213.562 220.367 213.809 221.36 213.809 222.48C213.809 223.6 213.555 224.593 213.049 225.46C212.542 226.327 211.849 227 210.969 227.48C210.102 227.947 209.142 228.18 208.089 228.18ZM208.089 226.2C208.675 226.2 209.222 226.06 209.729 225.78C210.249 225.5 210.669 225.08 210.989 224.52C211.309 223.96 211.469 223.28 211.469 222.48C211.469 221.68 211.315 221.007 211.009 220.46C210.702 219.9 210.295 219.48 209.789 219.2C209.282 218.92 208.735 218.78 208.149 218.78C207.562 218.78 207.015 218.92 206.509 219.2C206.015 219.48 205.622 219.9 205.329 220.46C205.035 221.007 204.889 221.68 204.889 222.48C204.889 223.667 205.189 224.587 205.789 225.24C206.402 225.88 207.169 226.2 208.089 226.2ZM221.623 216.8C222.489 216.8 223.263 216.98 223.943 217.34C224.636 217.7 225.176 218.233 225.563 218.94C225.949 219.647 226.143 220.5 226.143 221.5V228H223.883V221.84C223.883 220.853 223.636 220.1 223.143 219.58C222.649 219.047 221.976 218.78 221.123 218.78C220.269 218.78 219.589 219.047 219.083 219.58C218.589 220.1 218.343 220.853 218.343 221.84V228H216.063V216.98H218.343V218.24C218.716 217.787 219.189 217.433 219.763 217.18C220.349 216.927 220.969 216.8 221.623 216.8ZM228.291 222.44C228.291 221.333 228.517 220.353 228.971 219.5C229.437 218.647 230.064 217.987 230.851 217.52C231.651 217.04 232.531 216.8 233.491 216.8C234.357 216.8 235.111 216.973 235.751 217.32C236.404 217.653 236.924 218.073 237.311 218.58V216.98H239.611V228H237.311V226.36C236.924 226.88 236.397 227.313 235.731 227.66C235.064 228.007 234.304 228.18 233.451 228.18C232.504 228.18 231.637 227.94 230.851 227.46C230.064 226.967 229.437 226.287 228.971 225.42C228.517 224.54 228.291 223.547 228.291 222.44ZM237.311 222.48C237.311 221.72 237.151 221.06 236.831 220.5C236.524 219.94 236.117 219.513 235.611 219.22C235.104 218.927 234.557 218.78 233.971 218.78C233.384 218.78 232.837 218.927 232.331 219.22C231.824 219.5 231.411 219.92 231.091 220.48C230.784 221.027 230.631 221.68 230.631 222.44C230.631 223.2 230.784 223.867 231.091 224.44C231.411 225.013 231.824 225.453 232.331 225.76C232.851 226.053 233.397 226.2 233.971 226.2C234.557 226.2 235.104 226.053 235.611 225.76C236.117 225.467 236.524 225.04 236.831 224.48C237.151 223.907 237.311 223.24 237.311 222.48ZM246.605 228.18C245.739 228.18 244.959 228.027 244.265 227.72C243.585 227.4 243.045 226.973 242.645 226.44C242.245 225.893 242.032 225.287 242.005 224.62H244.365C244.405 225.087 244.625 225.48 245.025 225.8C245.439 226.107 245.952 226.26 246.565 226.26C247.205 226.26 247.699 226.14 248.045 225.9C248.405 225.647 248.585 225.327 248.585 224.94C248.585 224.527 248.385 224.22 247.985 224.02C247.599 223.82 246.979 223.6 246.125 223.36C245.299 223.133 244.625 222.913 244.105 222.7C243.585 222.487 243.132 222.16 242.745 221.72C242.372 221.28 242.185 220.7 242.185 219.98C242.185 219.393 242.359 218.86 242.705 218.38C243.052 217.887 243.545 217.5 244.185 217.22C244.839 216.94 245.585 216.8 246.425 216.8C247.679 216.8 248.685 217.12 249.445 217.76C250.219 218.387 250.632 219.247 250.685 220.34H248.405C248.365 219.847 248.165 219.453 247.805 219.16C247.445 218.867 246.959 218.72 246.345 218.72C245.745 218.72 245.285 218.833 244.965 219.06C244.645 219.287 244.485 219.587 244.485 219.96C244.485 220.253 244.592 220.5 244.805 220.7C245.019 220.9 245.279 221.06 245.585 221.18C245.892 221.287 246.345 221.427 246.945 221.6C247.745 221.813 248.399 222.033 248.905 222.26C249.425 222.473 249.872 222.793 250.245 223.22C250.619 223.647 250.812 224.213 250.825 224.92C250.825 225.547 250.652 226.107 250.305 226.6C249.959 227.093 249.465 227.48 248.825 227.76C248.199 228.04 247.459 228.18 246.605 228.18Z" fill="black"/>
<path d="M1243.02 64.3V59.9H1245.34C1247.04 59.9 1247.77 60.75 1247.77 62.1C1247.77 63.45 1247.04 64.3 1245.34 64.3H1243.02ZM1252.12 62.1C1252.12 58.875 1249.97 56.45 1245.67 56.45H1238.74V74H1243.02V67.7H1245.67C1250.14 67.7 1252.12 65 1252.12 62.1ZM1258.62 67.525C1258.62 65.125 1259.79 64.425 1261.82 64.425H1262.99V59.9C1261.12 59.9 1259.59 60.9 1258.62 62.375V60.05H1254.34V74H1258.62V67.525ZM1278.69 67.025C1278.69 62.6 1275.54 59.85 1271.44 59.85C1267.36 59.85 1264.19 62.6 1264.19 67.025C1264.19 71.45 1267.29 74.2 1271.39 74.2C1275.49 74.2 1278.69 71.45 1278.69 67.025ZM1268.54 67.025C1268.54 64.65 1269.89 63.55 1271.44 63.55C1272.94 63.55 1274.34 64.65 1274.34 67.025C1274.34 69.375 1272.91 70.5 1271.39 70.5C1269.84 70.5 1268.54 69.375 1268.54 67.025ZM1281.63 69.15C1281.63 72.775 1283.66 74 1286.56 74H1288.73V70.375H1287.21C1286.26 70.375 1285.91 70.025 1285.91 69.2V63.6H1288.71V60.05H1285.91V56.65H1281.63V60.05H1279.93V63.6H1281.63V69.15ZM1304.76 67.025C1304.76 62.6 1301.61 59.85 1297.51 59.85C1293.44 59.85 1290.26 62.6 1290.26 67.025C1290.26 71.45 1293.36 74.2 1297.46 74.2C1301.56 74.2 1304.76 71.45 1304.76 67.025ZM1294.61 67.025C1294.61 64.65 1295.96 63.55 1297.51 63.55C1299.01 63.55 1300.41 64.65 1300.41 67.025C1300.41 69.375 1298.99 70.5 1297.46 70.5C1295.91 70.5 1294.61 69.375 1294.61 67.025ZM1307.71 69.15C1307.71 72.775 1309.73 74 1312.63 74H1314.81V70.375H1313.28C1312.33 70.375 1311.98 70.025 1311.98 69.2V63.6H1314.78V60.05H1311.98V56.65H1307.71V60.05H1306.01V63.6H1307.71V69.15ZM1323.61 68.775L1320.39 60.05H1315.61L1321.29 73.525L1318.09 80.625H1322.69L1331.44 60.05H1326.81L1323.61 68.775ZM1337.26 62.025V60.05H1332.98V80.65H1337.26V72.05C1338.03 73.225 1339.51 74.2 1341.56 74.2C1344.98 74.2 1347.71 71.4 1347.71 67C1347.71 62.6 1344.98 59.85 1341.56 59.85C1339.51 59.85 1338.03 60.8 1337.26 62.025ZM1343.36 67C1343.36 69.225 1341.91 70.475 1340.28 70.475C1338.68 70.475 1337.23 69.25 1337.23 67.025C1337.23 64.8 1338.68 63.575 1340.28 63.575C1341.91 63.575 1343.36 64.775 1343.36 67ZM1356.1 63.275C1357.53 63.275 1358.73 64.15 1358.73 65.675H1353.38C1353.63 64.125 1354.7 63.275 1356.1 63.275ZM1362.78 69.375H1358.23C1357.88 70.125 1357.2 70.725 1356 70.725C1354.63 70.725 1353.5 69.875 1353.35 68.05H1363.03C1363.08 67.625 1363.1 67.2 1363.1 66.8C1363.1 62.55 1360.23 59.85 1356.15 59.85C1352 59.85 1349.1 62.6 1349.1 67.025C1349.1 71.45 1352.05 74.2 1356.15 74.2C1359.63 74.2 1362.1 72.1 1362.78 69.375Z" fill="black"/>
<path d="M1252.5 164.1V178H1250.22V171.92H1243.68V178H1241.4V164.1H1243.68V170.06H1250.22V164.1H1252.5ZM1256.66 165.52C1256.24 165.52 1255.9 165.38 1255.62 165.1C1255.34 164.82 1255.2 164.473 1255.2 164.06C1255.2 163.647 1255.34 163.3 1255.62 163.02C1255.9 162.74 1256.24 162.6 1256.66 162.6C1257.06 162.6 1257.4 162.74 1257.68 163.02C1257.96 163.3 1258.1 163.647 1258.1 164.06C1258.1 164.473 1257.96 164.82 1257.68 165.1C1257.4 165.38 1257.06 165.52 1256.66 165.52ZM1257.78 166.98V178H1255.5V166.98H1257.78ZM1265.21 166.8C1266.06 166.8 1266.82 166.973 1267.47 167.32C1268.14 167.653 1268.66 168.073 1269.03 168.58V166.98H1271.33V178.18C1271.33 179.193 1271.12 180.093 1270.69 180.88C1270.26 181.68 1269.64 182.307 1268.83 182.76C1268.03 183.213 1267.07 183.44 1265.95 183.44C1264.46 183.44 1263.22 183.087 1262.23 182.38C1261.24 181.687 1260.68 180.74 1260.55 179.54H1262.81C1262.98 180.113 1263.35 180.573 1263.91 180.92C1264.48 181.28 1265.16 181.46 1265.95 181.46C1266.87 181.46 1267.61 181.18 1268.17 180.62C1268.74 180.06 1269.03 179.247 1269.03 178.18V176.34C1268.64 176.86 1268.12 177.3 1267.45 177.66C1266.8 178.007 1266.05 178.18 1265.21 178.18C1264.25 178.18 1263.37 177.94 1262.57 177.46C1261.78 176.967 1261.16 176.287 1260.69 175.42C1260.24 174.54 1260.01 173.547 1260.01 172.44C1260.01 171.333 1260.24 170.353 1260.69 169.5C1261.16 168.647 1261.78 167.987 1262.57 167.52C1263.37 167.04 1264.25 166.8 1265.21 166.8ZM1269.03 172.48C1269.03 171.72 1268.87 171.06 1268.55 170.5C1268.24 169.94 1267.84 169.513 1267.33 169.22C1266.82 168.927 1266.28 168.78 1265.69 168.78C1265.1 168.78 1264.56 168.927 1264.05 169.22C1263.54 169.5 1263.13 169.92 1262.81 170.48C1262.5 171.027 1262.35 171.68 1262.35 172.44C1262.35 173.2 1262.5 173.867 1262.81 174.44C1263.13 175.013 1263.54 175.453 1264.05 175.76C1264.57 176.053 1265.12 176.2 1265.69 176.2C1266.28 176.2 1266.82 176.053 1267.33 175.76C1267.84 175.467 1268.24 175.04 1268.55 174.48C1268.87 173.907 1269.03 173.24 1269.03 172.48ZM1280.03 166.8C1280.87 166.8 1281.61 166.98 1282.27 167.34C1282.93 167.7 1283.45 168.233 1283.83 168.94C1284.21 169.647 1284.41 170.5 1284.41 171.5V178H1282.15V171.84C1282.15 170.853 1281.9 170.1 1281.41 169.58C1280.91 169.047 1280.24 168.78 1279.39 168.78C1278.53 168.78 1277.85 169.047 1277.35 169.58C1276.85 170.1 1276.61 170.853 1276.61 171.84V178H1274.33V163.2H1276.61V168.26C1276.99 167.793 1277.48 167.433 1278.07 167.18C1278.67 166.927 1279.32 166.8 1280.03 166.8ZM1300.69 164.1V165.96H1294.79V170.06H1299.39V171.92H1294.79V178H1292.51V164.1H1300.69ZM1303.96 165.52C1303.55 165.52 1303.2 165.38 1302.92 165.1C1302.64 164.82 1302.5 164.473 1302.5 164.06C1302.5 163.647 1302.64 163.3 1302.92 163.02C1303.2 162.74 1303.55 162.6 1303.96 162.6C1304.36 162.6 1304.7 162.74 1304.98 163.02C1305.26 163.3 1305.4 163.647 1305.4 164.06C1305.4 164.473 1305.26 164.82 1304.98 165.1C1304.7 165.38 1304.36 165.52 1303.96 165.52ZM1305.08 166.98V178H1302.8V166.98H1305.08ZM1307.32 172.44C1307.32 171.333 1307.54 170.353 1308 169.5C1308.46 168.647 1309.09 167.987 1309.88 167.52C1310.68 167.04 1311.56 166.8 1312.54 166.8C1313.26 166.8 1313.96 166.96 1314.66 167.28C1315.36 167.587 1315.92 168 1316.34 168.52V163.2H1318.64V178H1316.34V176.34C1315.96 176.873 1315.44 177.313 1314.78 177.66C1314.12 178.007 1313.37 178.18 1312.52 178.18C1311.56 178.18 1310.68 177.94 1309.88 177.46C1309.09 176.967 1308.46 176.287 1308 175.42C1307.54 174.54 1307.32 173.547 1307.32 172.44ZM1316.34 172.48C1316.34 171.72 1316.18 171.06 1315.86 170.5C1315.55 169.94 1315.14 169.513 1314.64 169.22C1314.13 168.927 1313.58 168.78 1313 168.78C1312.41 168.78 1311.86 168.927 1311.36 169.22C1310.85 169.5 1310.44 169.92 1310.12 170.48C1309.81 171.027 1309.66 171.68 1309.66 172.44C1309.66 173.2 1309.81 173.867 1310.12 174.44C1310.44 175.013 1310.85 175.453 1311.36 175.76C1311.88 176.053 1312.42 176.2 1313 176.2C1313.58 176.2 1314.13 176.053 1314.64 175.76C1315.14 175.467 1315.55 175.04 1315.86 174.48C1316.18 173.907 1316.34 173.24 1316.34 172.48ZM1331.73 172.22C1331.73 172.633 1331.7 173.007 1331.65 173.34H1323.23C1323.3 174.22 1323.62 174.927 1324.21 175.46C1324.8 175.993 1325.52 176.26 1326.37 176.26C1327.6 176.26 1328.46 175.747 1328.97 174.72H1331.43C1331.1 175.733 1330.49 176.567 1329.61 177.22C1328.74 177.86 1327.66 178.18 1326.37 178.18C1325.32 178.18 1324.37 177.947 1323.53 177.48C1322.7 177 1322.05 176.333 1321.57 175.48C1321.1 174.613 1320.87 173.613 1320.87 172.48C1320.87 171.347 1321.1 170.353 1321.55 169.5C1322.02 168.633 1322.66 167.967 1323.49 167.5C1324.33 167.033 1325.29 166.8 1326.37 166.8C1327.41 166.8 1328.34 167.027 1329.15 167.48C1329.96 167.933 1330.6 168.573 1331.05 169.4C1331.5 170.213 1331.73 171.153 1331.73 172.22ZM1329.35 171.5C1329.34 170.66 1329.04 169.987 1328.45 169.48C1327.86 168.973 1327.14 168.72 1326.27 168.72C1325.48 168.72 1324.81 168.973 1324.25 169.48C1323.69 169.973 1323.36 170.647 1323.25 171.5H1329.35ZM1336.25 163.2V178H1333.97V163.2H1336.25ZM1340.41 165.52C1339.99 165.52 1339.65 165.38 1339.37 165.1C1339.09 164.82 1338.95 164.473 1338.95 164.06C1338.95 163.647 1339.09 163.3 1339.37 163.02C1339.65 162.74 1339.99 162.6 1340.41 162.6C1340.81 162.6 1341.15 162.74 1341.43 163.02C1341.71 163.3 1341.85 163.647 1341.85 164.06C1341.85 164.473 1341.71 164.82 1341.43 165.1C1341.15 165.38 1340.81 165.52 1340.41 165.52ZM1341.53 166.98V178H1339.25V166.98H1341.53ZM1347.18 168.84V174.94C1347.18 175.353 1347.27 175.653 1347.46 175.84C1347.66 176.013 1347.99 176.1 1348.46 176.1H1349.86V178H1348.06C1347.03 178 1346.25 177.76 1345.7 177.28C1345.15 176.8 1344.88 176.02 1344.88 174.94V168.84H1343.58V166.98H1344.88V164.24H1347.18V166.98H1349.86V168.84H1347.18ZM1361.88 166.98L1355.12 183.18H1352.76L1355 177.82L1350.66 166.98H1353.2L1356.3 175.38L1359.52 166.98H1361.88Z" fill="black"/>
<defs>
<filter id="filter0_d_239_9" x="0" y="0" width="410" height="144" filterUnits="userSpaceOnUse" color-interpolation-filters="sRGB">
<feFlood flood-opacity="0" result="BackgroundImageFix"/>
<feColorMatrix in="SourceAlpha" type="matrix" values="0 0 0 0 0 0 0 0 0 0 0 0 0 0 0 0 0 0 127 0" result="hardAlpha"/>
<feOffset dy="4"/>
<feGaussianBlur stdDeviation="2"/>
<feComposite in2="hardAlpha" operator="out"/>
<feColorMatrix type="matrix" values="0 0 0 0 0 0 0 0 0 0 0 0 0 0 0 0 0 0 0.4 0"/>
<feBlend mode="normal" in2="BackgroundImageFix" result="effect1_dropShadow_239_9"/>
<feBlend mode="normal" in="SourceGraphic" in2="effect1_dropShadow_239_9" result="shape"/>
</filter>
<filter id="filter1_d_239_9" x="548" y="0" width="410" height="144" filterUnits="userSpaceOnUse" color-interpolation-filters="sRGB">
<feFlood flood-opacity="0" result="BackgroundImageFix"/>
<feColorMatrix in="SourceAlpha" type="matrix" values="0 0 0 0 0 0 0 0 0 0 0 0 0 0 0 0 0 0 127 0" result="hardAlpha"/>
<feOffset dy="4"/>
<feGaussianBlur stdDeviation="2"/>
<feComposite in2="hardAlpha" operator="out"/>
<feColorMatrix type="matrix" values="0 0 0 0 0 0 0 0 0 0 0 0 0 0 0 0 0 0 0.25 0"/>
<feBlend mode="normal" in2="BackgroundImageFix" result="effect1_dropShadow_239_9"/>
<feBlend mode="normal" in="SourceGraphic" in2="effect1_dropShadow_239_9" result="shape"/>
</filter>
<filter id="filter2_d_239_9" x="1096" y="0" width="410" height="144" filterUnits="userSpaceOnUse" color-interpolation-filters="sRGB">
<feFlood flood-opacity="0" result="BackgroundImageFix"/>
<feColorMatrix in="SourceAlpha" type="matrix" values="0 0 0 0 0 0 0 0 0 0 0 0 0 0 0 0 0 0 127 0" result="hardAlpha"/>
<feOffset dy="4"/>
<feGaussianBlur stdDeviation="2"/>
<feComposite in2="hardAlpha" operator="out"/>
<feColorMatrix type="matrix" values="0 0 0 0 0 0 0 0 0 0 0 0 0 0 0 0 0 0 0.25 0"/>
<feBlend mode="normal" in2="BackgroundImageFix" result="effect1_dropShadow_239_9"/>
<feBlend mode="normal" in="SourceGraphic" in2="effect1_dropShadow_239_9" result="shape"/>
</filter>
</defs>
</svg>
