<svg width="1506" height="323" viewBox="0 0 1506 323" fill="none" xmlns="http://www.w3.org/2000/svg">
<g filter="url(#filter0_d_20_2)">
<rect x="5" y="1" width="400" height="134" rx="11" stroke="#F82E4B" stroke-width="2" shape-rendering="crispEdges"/>
</g>
<g filter="url(#filter1_d_20_2)">
<rect x="553" y="1" width="400" height="134" rx="11" stroke="#F82E4B" stroke-width="2" shape-rendering="crispEdges"/>
</g>
<g filter="url(#filter2_d_20_2)">
<rect x="1101" y="1" width="400" height="134" rx="11" stroke="#F82E4B" stroke-width="2" shape-rendering="crispEdges"/>
</g>
<rect x="418" y="65" width="122" height="7" rx="3.5" fill="#F82E4B"/>
<rect x="966" y="69" width="122" height="7" rx="3.5" fill="#F82E4B"/>
<path d="M114.642 73.925C114.642 78.775 117.817 81.175 121.892 81.175C125.942 81.175 129.342 78.775 129.342 73.925V63.45H125.067V73.95C125.067 76.025 123.992 77.225 121.967 77.225C119.942 77.225 118.917 76.025 118.917 73.95V63.45H114.642V73.925ZM143.668 76.95C143.593 71.75 136.043 73.325 136.043 71.1C136.043 70.425 136.593 70.025 137.593 70.025C138.793 70.025 139.518 70.65 139.643 71.6H143.593C143.318 68.85 141.318 66.85 137.718 66.85C134.068 66.85 132.043 68.8 132.043 71.175C132.043 76.3 139.643 74.675 139.643 76.925C139.643 77.55 139.068 78.05 137.968 78.05C136.793 78.05 135.918 77.4 135.818 76.425H131.593C131.793 79.125 134.293 81.2 138.018 81.2C141.518 81.2 143.668 79.375 143.668 76.95ZM152.434 70.275C153.859 70.275 155.059 71.15 155.059 72.675H149.709C149.959 71.125 151.034 70.275 152.434 70.275ZM159.109 76.375H154.559C154.209 77.125 153.534 77.725 152.334 77.725C150.959 77.725 149.834 76.875 149.684 75.05H159.359C159.409 74.625 159.434 74.2 159.434 73.8C159.434 69.55 156.559 66.85 152.484 66.85C148.334 66.85 145.434 69.6 145.434 74.025C145.434 78.45 148.384 81.2 152.484 81.2C155.959 81.2 158.434 79.1 159.109 76.375ZM165.964 74.525C165.964 72.125 167.139 71.425 169.164 71.425H170.339V66.9C168.464 66.9 166.939 67.9 165.964 69.375V67.05H161.689V81H165.964V74.525ZM186.955 69.15C186.955 70.525 186.205 71.35 184.605 71.35H181.955V67H184.605C186.205 67 186.955 67.85 186.955 69.15ZM177.68 63.45V81H181.955V74.375H182.98L186.63 81H191.455L187.405 74.05C190.105 73.25 191.305 71.175 191.305 68.975C191.305 65.925 189.155 63.45 184.855 63.45H177.68ZM200.139 70.275C201.564 70.275 202.764 71.15 202.764 72.675H197.414C197.664 71.125 198.739 70.275 200.139 70.275ZM206.814 76.375H202.264C201.914 77.125 201.239 77.725 200.039 77.725C198.664 77.725 197.539 76.875 197.389 75.05H207.064C207.114 74.625 207.139 74.2 207.139 73.8C207.139 69.55 204.264 66.85 200.189 66.85C196.039 66.85 193.139 69.6 193.139 74.025C193.139 78.45 196.089 81.2 200.189 81.2C203.664 81.2 206.139 79.1 206.814 76.375ZM220.719 76.95C220.644 71.75 213.094 73.325 213.094 71.1C213.094 70.425 213.644 70.025 214.644 70.025C215.844 70.025 216.569 70.65 216.694 71.6H220.644C220.369 68.85 218.369 66.85 214.769 66.85C211.119 66.85 209.094 68.8 209.094 71.175C209.094 76.3 216.694 74.675 216.694 76.925C216.694 77.55 216.119 78.05 215.019 78.05C213.844 78.05 212.969 77.4 212.869 76.425H208.644C208.844 79.125 211.344 81.2 215.069 81.2C218.569 81.2 220.719 79.375 220.719 76.95ZM229.485 70.275C230.91 70.275 232.11 71.15 232.11 72.675H226.76C227.01 71.125 228.085 70.275 229.485 70.275ZM236.16 76.375H231.61C231.26 77.125 230.585 77.725 229.385 77.725C228.01 77.725 226.885 76.875 226.735 75.05H236.41C236.46 74.625 236.485 74.2 236.485 73.8C236.485 69.55 233.61 66.85 229.535 66.85C225.385 66.85 222.485 69.6 222.485 74.025C222.485 78.45 225.435 81.2 229.535 81.2C233.01 81.2 235.485 79.1 236.16 76.375ZM237.89 74C237.89 78.4 240.615 81.2 244.015 81.2C246.09 81.2 247.565 80.25 248.34 79.025V81H252.615V67.05H248.34V69.025C247.59 67.8 246.115 66.85 244.04 66.85C240.615 66.85 237.89 69.6 237.89 74ZM248.34 74.025C248.34 76.25 246.915 77.475 245.29 77.475C243.69 77.475 242.24 76.225 242.24 74C242.24 71.775 243.69 70.575 245.29 70.575C246.915 70.575 248.34 71.8 248.34 74.025ZM259.983 74.525C259.983 72.125 261.158 71.425 263.183 71.425H264.358V66.9C262.483 66.9 260.958 67.9 259.983 69.375V67.05H255.708V81H259.983V74.525ZM265.551 74.025C265.551 78.45 268.451 81.2 272.551 81.2C276.051 81.2 278.526 79.175 279.251 75.95H274.701C274.326 76.975 273.651 77.55 272.476 77.55C270.951 77.55 269.901 76.35 269.901 74.025C269.901 71.7 270.951 70.5 272.476 70.5C273.651 70.5 274.351 71.125 274.701 72.1H279.251C278.526 68.775 276.051 66.85 272.551 66.85C268.451 66.85 265.551 69.625 265.551 74.025ZM281.538 81H285.813V73.425C285.813 71.525 286.863 70.475 288.488 70.475C290.113 70.475 291.163 71.525 291.163 73.425V81H295.413V72.85C295.413 69.1 293.288 66.9 290.113 66.9C288.188 66.9 286.663 67.725 285.813 68.925V62.5H281.538V81Z" fill="black"/>
<path d="M701.047 78H705.322V60.45H701.047V78ZM707.57 71C707.57 75.4 710.295 78.2 713.72 78.2C715.77 78.2 717.245 77.275 718.02 76V78H722.295V59.5H718.02V65.975C717.17 64.7 715.57 63.85 713.72 63.85C710.295 63.85 707.57 66.6 707.57 71ZM718.02 71.025C718.02 73.25 716.595 74.475 714.97 74.475C713.37 74.475 711.92 73.225 711.92 71C711.92 68.775 713.37 67.575 714.97 67.575C716.595 67.575 718.02 68.8 718.02 71.025ZM731.537 67.275C732.962 67.275 734.162 68.15 734.162 69.675H728.812C729.062 68.125 730.137 67.275 731.537 67.275ZM738.212 73.375H733.662C733.312 74.125 732.637 74.725 731.437 74.725C730.062 74.725 728.937 73.875 728.787 72.05H738.462C738.512 71.625 738.537 71.2 738.537 70.8C738.537 66.55 735.662 63.85 731.587 63.85C727.437 63.85 724.537 66.6 724.537 71.025C724.537 75.45 727.487 78.2 731.587 78.2C735.062 78.2 737.537 76.1 738.212 73.375ZM739.943 71C739.943 75.4 742.668 78.2 746.068 78.2C748.143 78.2 749.618 77.25 750.393 76.025V78H754.668V64.05H750.393V66.025C749.643 64.8 748.168 63.85 746.093 63.85C742.668 63.85 739.943 66.6 739.943 71ZM750.393 71.025C750.393 73.25 748.968 74.475 747.343 74.475C745.743 74.475 744.293 73.225 744.293 71C744.293 68.775 745.743 67.575 747.343 67.575C748.968 67.575 750.393 68.8 750.393 71.025ZM758.435 73.15C758.435 76.775 760.46 78 763.36 78H765.535V74.375H764.01C763.06 74.375 762.71 74.025 762.71 73.2V67.6H765.51V64.05H762.71V60.65H758.435V64.05H756.735V67.6H758.435V73.15ZM767.917 78H772.192V64.05H767.917V78ZM770.067 62.6C771.567 62.6 772.592 61.575 772.592 60.3C772.592 59 771.567 57.975 770.067 57.975C768.542 57.975 767.517 59 767.517 60.3C767.517 61.575 768.542 62.6 770.067 62.6ZM788.94 71.025C788.94 66.6 785.79 63.85 781.69 63.85C777.615 63.85 774.44 66.6 774.44 71.025C774.44 75.45 777.54 78.2 781.64 78.2C785.74 78.2 788.94 75.45 788.94 71.025ZM778.79 71.025C778.79 68.65 780.14 67.55 781.69 67.55C783.19 67.55 784.59 68.65 784.59 71.025C784.59 73.375 783.165 74.5 781.64 74.5C780.09 74.5 778.79 73.375 778.79 71.025ZM800.833 78H805.083V69.85C805.083 66.1 802.933 63.9 799.708 63.9C797.833 63.9 796.333 64.725 795.483 65.9V64.05H791.208V78H795.483V70.425C795.483 68.525 796.533 67.475 798.158 67.475C799.783 67.475 800.833 68.525 800.833 70.425V78Z" fill="black"/>
<path d="M157.255 175.1V189H154.975V175.1H157.255ZM165.808 177.8C166.675 177.8 167.448 177.98 168.128 178.34C168.821 178.7 169.361 179.233 169.748 179.94C170.135 180.647 170.328 181.5 170.328 182.5V189H168.068V182.84C168.068 181.853 167.821 181.1 167.328 180.58C166.835 180.047 166.161 179.78 165.308 179.78C164.455 179.78 163.775 180.047 163.268 180.58C162.775 181.1 162.528 181.853 162.528 182.84V189H160.248V177.98H162.528V179.24C162.901 178.787 163.375 178.433 163.948 178.18C164.535 177.927 165.155 177.8 165.808 177.8ZM175.896 179.84V185.94C175.896 186.353 175.99 186.653 176.176 186.84C176.376 187.013 176.71 187.1 177.176 187.1H178.576V189H176.776C175.75 189 174.963 188.76 174.416 188.28C173.87 187.8 173.596 187.02 173.596 185.94V179.84H172.296V177.98H173.596V175.24H175.896V177.98H178.576V179.84H175.896ZM190.778 183.22C190.778 183.633 190.751 184.007 190.698 184.34H182.278C182.344 185.22 182.671 185.927 183.258 186.46C183.844 186.993 184.564 187.26 185.418 187.26C186.644 187.26 187.511 186.747 188.018 185.72H190.478C190.144 186.733 189.538 187.567 188.658 188.22C187.791 188.86 186.711 189.18 185.418 189.18C184.364 189.18 183.418 188.947 182.578 188.48C181.751 188 181.098 187.333 180.618 186.48C180.151 185.613 179.918 184.613 179.918 183.48C179.918 182.347 180.144 181.353 180.598 180.5C181.064 179.633 181.711 178.967 182.538 178.5C183.378 178.033 184.338 177.8 185.418 177.8C186.458 177.8 187.384 178.027 188.198 178.48C189.011 178.933 189.644 179.573 190.098 180.4C190.551 181.213 190.778 182.153 190.778 183.22ZM188.398 182.5C188.384 181.66 188.084 180.987 187.498 180.48C186.911 179.973 186.184 179.72 185.318 179.72C184.531 179.72 183.858 179.973 183.298 180.48C182.738 180.973 182.404 181.647 182.298 182.5H188.398ZM195.301 179.58C195.635 179.02 196.075 178.587 196.621 178.28C197.181 177.96 197.841 177.8 198.601 177.8V180.16H198.021C197.128 180.16 196.448 180.387 195.981 180.84C195.528 181.293 195.301 182.08 195.301 183.2V189H193.021V177.98H195.301V179.58ZM204.957 186.96L208.077 177.98H210.497L206.297 189H203.577L199.397 177.98H201.837L204.957 186.96ZM213.381 176.52C212.967 176.52 212.621 176.38 212.341 176.1C212.061 175.82 211.921 175.473 211.921 175.06C211.921 174.647 212.061 174.3 212.341 174.02C212.621 173.74 212.967 173.6 213.381 173.6C213.781 173.6 214.121 173.74 214.401 174.02C214.681 174.3 214.821 174.647 214.821 175.06C214.821 175.473 214.681 175.82 214.401 176.1C214.121 176.38 213.781 176.52 213.381 176.52ZM214.501 177.98V189H212.221V177.98H214.501ZM227.594 183.22C227.594 183.633 227.567 184.007 227.514 184.34H219.094C219.161 185.22 219.487 185.927 220.074 186.46C220.661 186.993 221.381 187.26 222.234 187.26C223.461 187.26 224.327 186.747 224.834 185.72H227.294C226.961 186.733 226.354 187.567 225.474 188.22C224.607 188.86 223.527 189.18 222.234 189.18C221.181 189.18 220.234 188.947 219.394 188.48C218.567 188 217.914 187.333 217.434 186.48C216.967 185.613 216.734 184.613 216.734 183.48C216.734 182.347 216.961 181.353 217.414 180.5C217.881 179.633 218.527 178.967 219.354 178.5C220.194 178.033 221.154 177.8 222.234 177.8C223.274 177.8 224.201 178.027 225.014 178.48C225.827 178.933 226.461 179.573 226.914 180.4C227.367 181.213 227.594 182.153 227.594 183.22ZM225.214 182.5C225.201 181.66 224.901 180.987 224.314 180.48C223.727 179.973 223.001 179.72 222.134 179.72C221.347 179.72 220.674 179.973 220.114 180.48C219.554 180.973 219.221 181.647 219.114 182.5H225.214ZM244.638 177.98L241.218 189H238.818L236.598 180.86L234.378 189H231.978L228.538 177.98H230.858L233.158 186.84L235.498 177.98H237.878L240.118 186.8L242.398 177.98H244.638ZM250.342 189.18C249.475 189.18 248.695 189.027 248.002 188.72C247.322 188.4 246.782 187.973 246.382 187.44C245.982 186.893 245.768 186.287 245.742 185.62H248.102C248.142 186.087 248.362 186.48 248.762 186.8C249.175 187.107 249.688 187.26 250.302 187.26C250.942 187.26 251.435 187.14 251.782 186.9C252.142 186.647 252.322 186.327 252.322 185.94C252.322 185.527 252.122 185.22 251.722 185.02C251.335 184.82 250.715 184.6 249.862 184.36C249.035 184.133 248.362 183.913 247.842 183.7C247.322 183.487 246.868 183.16 246.482 182.72C246.108 182.28 245.922 181.7 245.922 180.98C245.922 180.393 246.095 179.86 246.442 179.38C246.788 178.887 247.282 178.5 247.922 178.22C248.575 177.94 249.322 177.8 250.162 177.8C251.415 177.8 252.422 178.12 253.182 178.76C253.955 179.387 254.368 180.247 254.422 181.34H252.142C252.102 180.847 251.902 180.453 251.542 180.16C251.182 179.867 250.695 179.72 250.082 179.72C249.482 179.72 249.022 179.833 248.702 180.06C248.382 180.287 248.222 180.587 248.222 180.96C248.222 181.253 248.328 181.5 248.542 181.7C248.755 181.9 249.015 182.06 249.322 182.18C249.628 182.287 250.082 182.427 250.682 182.6C251.482 182.813 252.135 183.033 252.642 183.26C253.162 183.473 253.608 183.793 253.982 184.22C254.355 184.647 254.548 185.213 254.562 185.92C254.562 186.547 254.388 187.107 254.042 187.6C253.695 188.093 253.202 188.48 252.562 188.76C251.935 189.04 251.195 189.18 250.342 189.18Z" fill="black"/>
<path d="M119.116 228.16H113.296L112.296 231H109.916L114.896 217.08H117.536L122.516 231H120.116L119.116 228.16ZM118.476 226.3L116.216 219.84L113.936 226.3H118.476ZM130.242 219.8C131.108 219.8 131.882 219.98 132.562 220.34C133.255 220.7 133.795 221.233 134.182 221.94C134.568 222.647 134.762 223.5 134.762 224.5V231H132.502V224.84C132.502 223.853 132.255 223.1 131.762 222.58C131.268 222.047 130.595 221.78 129.742 221.78C128.888 221.78 128.208 222.047 127.702 222.58C127.208 223.1 126.962 223.853 126.962 224.84V231H124.682V219.98H126.962V221.24C127.335 220.787 127.808 220.433 128.382 220.18C128.968 219.927 129.588 219.8 130.242 219.8ZM136.91 225.44C136.91 224.333 137.137 223.353 137.59 222.5C138.057 221.647 138.683 220.987 139.47 220.52C140.27 220.04 141.15 219.8 142.11 219.8C142.977 219.8 143.73 219.973 144.37 220.32C145.023 220.653 145.543 221.073 145.93 221.58V219.98H148.23V231H145.93V229.36C145.543 229.88 145.017 230.313 144.35 230.66C143.683 231.007 142.923 231.18 142.07 231.18C141.123 231.18 140.257 230.94 139.47 230.46C138.683 229.967 138.057 229.287 137.59 228.42C137.137 227.54 136.91 226.547 136.91 225.44ZM145.93 225.48C145.93 224.72 145.77 224.06 145.45 223.5C145.143 222.94 144.737 222.513 144.23 222.22C143.723 221.927 143.177 221.78 142.59 221.78C142.003 221.78 141.457 221.927 140.95 222.22C140.443 222.5 140.03 222.92 139.71 223.48C139.403 224.027 139.25 224.68 139.25 225.44C139.25 226.2 139.403 226.867 139.71 227.44C140.03 228.013 140.443 228.453 140.95 228.76C141.47 229.053 142.017 229.2 142.59 229.2C143.177 229.2 143.723 229.053 144.23 228.76C144.737 228.467 145.143 228.04 145.45 227.48C145.77 226.907 145.93 226.24 145.93 225.48ZM153.505 216.2V231H151.225V216.2H153.505ZM166.418 219.98L159.658 236.18H157.298L159.538 230.82L155.198 219.98H157.738L160.838 228.38L164.058 219.98H166.418ZM170.159 229.14H175.159V231H167.519V229.14L172.539 221.84H167.519V219.98H175.159V221.84L170.159 229.14ZM178.713 218.52C178.299 218.52 177.953 218.38 177.673 218.1C177.393 217.82 177.253 217.473 177.253 217.06C177.253 216.647 177.393 216.3 177.673 216.02C177.953 215.74 178.299 215.6 178.713 215.6C179.113 215.6 179.453 215.74 179.733 216.02C180.013 216.3 180.153 216.647 180.153 217.06C180.153 217.473 180.013 217.82 179.733 218.1C179.453 218.38 179.113 218.52 178.713 218.52ZM179.833 219.98V231H177.553V219.98H179.833ZM188.386 219.8C189.253 219.8 190.026 219.98 190.706 220.34C191.4 220.7 191.94 221.233 192.326 221.94C192.713 222.647 192.906 223.5 192.906 224.5V231H190.646V224.84C190.646 223.853 190.4 223.1 189.906 222.58C189.413 222.047 188.74 221.78 187.886 221.78C187.033 221.78 186.353 222.047 185.846 222.58C185.353 223.1 185.106 223.853 185.106 224.84V231H182.826V219.98H185.106V221.24C185.48 220.787 185.953 220.433 186.526 220.18C187.113 219.927 187.733 219.8 188.386 219.8ZM200.254 219.8C201.108 219.8 201.861 219.973 202.514 220.32C203.181 220.653 203.701 221.073 204.074 221.58V219.98H206.374V231.18C206.374 232.193 206.161 233.093 205.734 233.88C205.308 234.68 204.688 235.307 203.874 235.76C203.074 236.213 202.114 236.44 200.994 236.44C199.501 236.44 198.261 236.087 197.274 235.38C196.288 234.687 195.728 233.74 195.594 232.54H197.854C198.028 233.113 198.394 233.573 198.954 233.92C199.528 234.28 200.208 234.46 200.994 234.46C201.914 234.46 202.654 234.18 203.214 233.62C203.788 233.06 204.074 232.247 204.074 231.18V229.34C203.688 229.86 203.161 230.3 202.494 230.66C201.841 231.007 201.094 231.18 200.254 231.18C199.294 231.18 198.414 230.94 197.614 230.46C196.828 229.967 196.201 229.287 195.734 228.42C195.281 227.54 195.054 226.547 195.054 225.44C195.054 224.333 195.281 223.353 195.734 222.5C196.201 221.647 196.828 220.987 197.614 220.52C198.414 220.04 199.294 219.8 200.254 219.8ZM204.074 225.48C204.074 224.72 203.914 224.06 203.594 223.5C203.288 222.94 202.881 222.513 202.374 222.22C201.868 221.927 201.321 221.78 200.734 221.78C200.148 221.78 199.601 221.927 199.094 222.22C198.588 222.5 198.174 222.92 197.854 223.48C197.548 224.027 197.394 224.68 197.394 225.44C197.394 226.2 197.548 226.867 197.854 227.44C198.174 228.013 198.588 228.453 199.094 228.76C199.614 229.053 200.161 229.2 200.734 229.2C201.321 229.2 201.868 229.053 202.374 228.76C202.881 228.467 203.288 228.04 203.594 227.48C203.914 226.907 204.074 226.24 204.074 225.48ZM217.224 221.84V227.94C217.224 228.353 217.318 228.653 217.504 228.84C217.704 229.013 218.038 229.1 218.504 229.1H219.904V231H218.104C217.078 231 216.291 230.76 215.744 230.28C215.198 229.8 214.924 229.02 214.924 227.94V221.84H213.624V219.98H214.924V217.24H217.224V219.98H219.904V221.84H217.224ZM227.706 219.8C228.546 219.8 229.293 219.98 229.946 220.34C230.613 220.7 231.133 221.233 231.506 221.94C231.893 222.647 232.086 223.5 232.086 224.5V231H229.826V224.84C229.826 223.853 229.579 223.1 229.086 222.58C228.593 222.047 227.919 221.78 227.066 221.78C226.213 221.78 225.533 222.047 225.026 222.58C224.533 223.1 224.286 223.853 224.286 224.84V231H222.006V216.2H224.286V221.26C224.673 220.793 225.159 220.433 225.746 220.18C226.346 219.927 226.999 219.8 227.706 219.8ZM245.094 225.22C245.094 225.633 245.067 226.007 245.014 226.34H236.594C236.661 227.22 236.987 227.927 237.574 228.46C238.161 228.993 238.881 229.26 239.734 229.26C240.961 229.26 241.827 228.747 242.334 227.72H244.794C244.461 228.733 243.854 229.567 242.974 230.22C242.107 230.86 241.027 231.18 239.734 231.18C238.681 231.18 237.734 230.947 236.894 230.48C236.067 230 235.414 229.333 234.934 228.48C234.467 227.613 234.234 226.613 234.234 225.48C234.234 224.347 234.461 223.353 234.914 222.5C235.381 221.633 236.027 220.967 236.854 220.5C237.694 220.033 238.654 219.8 239.734 219.8C240.774 219.8 241.701 220.027 242.514 220.48C243.327 220.933 243.961 221.573 244.414 222.4C244.867 223.213 245.094 224.153 245.094 225.22ZM242.714 224.5C242.701 223.66 242.401 222.987 241.814 222.48C241.227 221.973 240.501 221.72 239.634 221.72C238.847 221.72 238.174 221.973 237.614 222.48C237.054 222.973 236.721 223.647 236.614 224.5H242.714ZM257.073 217.1C258.553 217.1 259.847 217.387 260.953 217.96C262.073 218.52 262.933 219.333 263.533 220.4C264.147 221.453 264.453 222.687 264.453 224.1C264.453 225.513 264.147 226.74 263.533 227.78C262.933 228.82 262.073 229.62 260.953 230.18C259.847 230.727 258.553 231 257.073 231H252.533V217.1H257.073ZM257.073 229.14C258.7 229.14 259.947 228.7 260.813 227.82C261.68 226.94 262.113 225.7 262.113 224.1C262.113 222.487 261.68 221.227 260.813 220.32C259.947 219.413 258.7 218.96 257.073 218.96H254.813V229.14H257.073ZM265.953 225.44C265.953 224.333 266.18 223.353 266.633 222.5C267.1 221.647 267.726 220.987 268.513 220.52C269.313 220.04 270.193 219.8 271.153 219.8C272.02 219.8 272.773 219.973 273.413 220.32C274.066 220.653 274.586 221.073 274.973 221.58V219.98H277.273V231H274.973V229.36C274.586 229.88 274.06 230.313 273.393 230.66C272.726 231.007 271.966 231.18 271.113 231.18C270.166 231.18 269.3 230.94 268.513 230.46C267.726 229.967 267.1 229.287 266.633 228.42C266.18 227.54 265.953 226.547 265.953 225.44ZM274.973 225.48C274.973 224.72 274.813 224.06 274.493 223.5C274.186 222.94 273.78 222.513 273.273 222.22C272.766 221.927 272.22 221.78 271.633 221.78C271.046 221.78 270.5 221.927 269.993 222.22C269.486 222.5 269.073 222.92 268.753 223.48C268.446 224.027 268.293 224.68 268.293 225.44C268.293 226.2 268.446 226.867 268.753 227.44C269.073 228.013 269.486 228.453 269.993 228.76C270.513 229.053 271.06 229.2 271.633 229.2C272.22 229.2 272.766 229.053 273.273 228.76C273.78 228.467 274.186 228.04 274.493 227.48C274.813 226.907 274.973 226.24 274.973 225.48ZM282.928 221.84V227.94C282.928 228.353 283.021 228.653 283.208 228.84C283.408 229.013 283.741 229.1 284.208 229.1H285.608V231H283.808C282.781 231 281.994 230.76 281.448 230.28C280.901 229.8 280.628 229.02 280.628 227.94V221.84H279.328V219.98H280.628V217.24H282.928V219.98H285.608V221.84H282.928ZM286.949 225.44C286.949 224.333 287.176 223.353 287.629 222.5C288.096 221.647 288.722 220.987 289.509 220.52C290.309 220.04 291.189 219.8 292.149 219.8C293.016 219.8 293.769 219.973 294.409 220.32C295.062 220.653 295.582 221.073 295.969 221.58V219.98H298.269V231H295.969V229.36C295.582 229.88 295.056 230.313 294.389 230.66C293.722 231.007 292.962 231.18 292.109 231.18C291.162 231.18 290.296 230.94 289.509 230.46C288.722 229.967 288.096 229.287 287.629 228.42C287.176 227.54 286.949 226.547 286.949 225.44ZM295.969 225.48C295.969 224.72 295.809 224.06 295.489 223.5C295.182 222.94 294.776 222.513 294.269 222.22C293.762 221.927 293.216 221.78 292.629 221.78C292.042 221.78 291.496 221.927 290.989 222.22C290.482 222.5 290.069 222.92 289.749 223.48C289.442 224.027 289.289 224.68 289.289 225.44C289.289 226.2 289.442 226.867 289.749 227.44C290.069 228.013 290.482 228.453 290.989 228.76C291.509 229.053 292.056 229.2 292.629 229.2C293.216 229.2 293.762 229.053 294.269 228.76C294.776 228.467 295.182 228.04 295.489 227.48C295.809 226.907 295.969 226.24 295.969 225.48Z" fill="black"/>
<path d="M690.319 181.86C691.066 181.993 691.699 182.387 692.219 183.04C692.739 183.693 692.999 184.433 692.999 185.26C692.999 185.967 692.812 186.607 692.439 187.18C692.079 187.74 691.552 188.187 690.859 188.52C690.166 188.84 689.359 189 688.439 189H682.879V175.1H688.179C689.126 175.1 689.939 175.26 690.619 175.58C691.299 175.9 691.812 176.333 692.159 176.88C692.506 177.413 692.679 178.013 692.679 178.68C692.679 179.48 692.466 180.147 692.039 180.68C691.612 181.213 691.039 181.607 690.319 181.86ZM685.159 180.94H687.979C688.726 180.94 689.306 180.773 689.719 180.44C690.146 180.093 690.359 179.6 690.359 178.96C690.359 178.333 690.146 177.847 689.719 177.5C689.306 177.14 688.726 176.96 687.979 176.96H685.159V180.94ZM688.239 187.14C689.012 187.14 689.619 186.953 690.059 186.58C690.499 186.207 690.719 185.687 690.719 185.02C690.719 184.34 690.486 183.8 690.019 183.4C689.552 183 688.932 182.8 688.159 182.8H685.159V187.14H688.239ZM697.757 179.58C698.09 179.02 698.53 178.587 699.077 178.28C699.637 177.96 700.297 177.8 701.057 177.8V180.16H700.477C699.583 180.16 698.903 180.387 698.437 180.84C697.983 181.293 697.757 182.08 697.757 183.2V189H695.477V177.98H697.757V179.58ZM702.392 183.44C702.392 182.333 702.619 181.353 703.072 180.5C703.539 179.647 704.166 178.987 704.952 178.52C705.752 178.04 706.632 177.8 707.592 177.8C708.459 177.8 709.212 177.973 709.852 178.32C710.506 178.653 711.026 179.073 711.412 179.58V177.98H713.712V189H711.412V187.36C711.026 187.88 710.499 188.313 709.832 188.66C709.166 189.007 708.406 189.18 707.552 189.18C706.606 189.18 705.739 188.94 704.952 188.46C704.166 187.967 703.539 187.287 703.072 186.42C702.619 185.54 702.392 184.547 702.392 183.44ZM711.412 183.48C711.412 182.72 711.252 182.06 710.932 181.5C710.626 180.94 710.219 180.513 709.712 180.22C709.206 179.927 708.659 179.78 708.072 179.78C707.486 179.78 706.939 179.927 706.432 180.22C705.926 180.5 705.512 180.92 705.192 181.48C704.886 182.027 704.732 182.68 704.732 183.44C704.732 184.2 704.886 184.867 705.192 185.44C705.512 186.013 705.926 186.453 706.432 186.76C706.952 187.053 707.499 187.2 708.072 187.2C708.659 187.2 709.206 187.053 709.712 186.76C710.219 186.467 710.626 186.04 710.932 185.48C711.252 184.907 711.412 184.24 711.412 183.48ZM717.867 176.52C717.454 176.52 717.107 176.38 716.827 176.1C716.547 175.82 716.407 175.473 716.407 175.06C716.407 174.647 716.547 174.3 716.827 174.02C717.107 173.74 717.454 173.6 717.867 173.6C718.267 173.6 718.607 173.74 718.887 174.02C719.167 174.3 719.307 174.647 719.307 175.06C719.307 175.473 719.167 175.82 718.887 176.1C718.607 176.38 718.267 176.52 717.867 176.52ZM718.987 177.98V189H716.707V177.98H718.987ZM727.54 177.8C728.407 177.8 729.18 177.98 729.86 178.34C730.554 178.7 731.094 179.233 731.48 179.94C731.867 180.647 732.06 181.5 732.06 182.5V189H729.8V182.84C729.8 181.853 729.554 181.1 729.06 180.58C728.567 180.047 727.894 179.78 727.04 179.78C726.187 179.78 725.507 180.047 725 180.58C724.507 181.1 724.26 181.853 724.26 182.84V189H721.98V177.98H724.26V179.24C724.634 178.787 725.107 178.433 725.68 178.18C726.267 177.927 726.887 177.8 727.54 177.8ZM738.969 189.18C738.102 189.18 737.322 189.027 736.629 188.72C735.949 188.4 735.409 187.973 735.009 187.44C734.609 186.893 734.395 186.287 734.369 185.62H736.729C736.769 186.087 736.989 186.48 737.389 186.8C737.802 187.107 738.315 187.26 738.929 187.26C739.569 187.26 740.062 187.14 740.409 186.9C740.769 186.647 740.949 186.327 740.949 185.94C740.949 185.527 740.749 185.22 740.349 185.02C739.962 184.82 739.342 184.6 738.489 184.36C737.662 184.133 736.989 183.913 736.469 183.7C735.949 183.487 735.495 183.16 735.109 182.72C734.735 182.28 734.549 181.7 734.549 180.98C734.549 180.393 734.722 179.86 735.069 179.38C735.415 178.887 735.909 178.5 736.549 178.22C737.202 177.94 737.949 177.8 738.789 177.8C740.042 177.8 741.049 178.12 741.809 178.76C742.582 179.387 742.995 180.247 743.049 181.34H740.769C740.729 180.847 740.529 180.453 740.169 180.16C739.809 179.867 739.322 179.72 738.709 179.72C738.109 179.72 737.649 179.833 737.329 180.06C737.009 180.287 736.849 180.587 736.849 180.96C736.849 181.253 736.955 181.5 737.169 181.7C737.382 181.9 737.642 182.06 737.949 182.18C738.255 182.287 738.709 182.427 739.309 182.6C740.109 182.813 740.762 183.033 741.269 183.26C741.789 183.473 742.235 183.793 742.609 184.22C742.982 184.647 743.175 185.213 743.189 185.92C743.189 186.547 743.015 187.107 742.669 187.6C742.322 188.093 741.829 188.48 741.189 188.76C740.562 189.04 739.822 189.18 738.969 189.18ZM748.312 179.84V185.94C748.312 186.353 748.406 186.653 748.592 186.84C748.792 187.013 749.126 187.1 749.592 187.1H750.992V189H749.192C748.166 189 747.379 188.76 746.832 188.28C746.286 187.8 746.012 187.02 746.012 185.94V179.84H744.712V177.98H746.012V175.24H748.312V177.98H750.992V179.84H748.312ZM757.874 189.18C756.834 189.18 755.894 188.947 755.054 188.48C754.214 188 753.554 187.333 753.074 186.48C752.594 185.613 752.354 184.613 752.354 183.48C752.354 182.36 752.6 181.367 753.094 180.5C753.587 179.633 754.26 178.967 755.114 178.5C755.967 178.033 756.92 177.8 757.974 177.8C759.027 177.8 759.98 178.033 760.834 178.5C761.687 178.967 762.36 179.633 762.854 180.5C763.347 181.367 763.594 182.36 763.594 183.48C763.594 184.6 763.34 185.593 762.834 186.46C762.327 187.327 761.634 188 760.754 188.48C759.887 188.947 758.927 189.18 757.874 189.18ZM757.874 187.2C758.46 187.2 759.007 187.06 759.514 186.78C760.034 186.5 760.454 186.08 760.774 185.52C761.094 184.96 761.254 184.28 761.254 183.48C761.254 182.68 761.1 182.007 760.794 181.46C760.487 180.9 760.08 180.48 759.574 180.2C759.067 179.92 758.52 179.78 757.934 179.78C757.347 179.78 756.8 179.92 756.294 180.2C755.8 180.48 755.407 180.9 755.114 181.46C754.82 182.007 754.674 182.68 754.674 183.48C754.674 184.667 754.974 185.587 755.574 186.24C756.187 186.88 756.954 187.2 757.874 187.2ZM768.128 179.58C768.461 179.02 768.901 178.587 769.448 178.28C770.008 177.96 770.668 177.8 771.428 177.8V180.16H770.848C769.954 180.16 769.274 180.387 768.808 180.84C768.354 181.293 768.128 182.08 768.128 183.2V189H765.848V177.98H768.128V179.58ZM786.863 177.8C787.73 177.8 788.503 177.98 789.183 178.34C789.877 178.7 790.417 179.233 790.803 179.94C791.203 180.647 791.403 181.5 791.403 182.5V189H789.143V182.84C789.143 181.853 788.897 181.1 788.403 180.58C787.91 180.047 787.237 179.78 786.383 179.78C785.53 179.78 784.85 180.047 784.343 180.58C783.85 181.1 783.603 181.853 783.603 182.84V189H781.343V182.84C781.343 181.853 781.097 181.1 780.603 180.58C780.11 180.047 779.437 179.78 778.583 179.78C777.73 179.78 777.05 180.047 776.543 180.58C776.05 181.1 775.803 181.853 775.803 182.84V189H773.523V177.98H775.803V179.24C776.177 178.787 776.65 178.433 777.223 178.18C777.797 177.927 778.41 177.8 779.063 177.8C779.943 177.8 780.73 177.987 781.423 178.36C782.117 178.733 782.65 179.273 783.023 179.98C783.357 179.313 783.877 178.787 784.583 178.4C785.29 178 786.05 177.8 786.863 177.8ZM795.465 176.52C795.051 176.52 794.705 176.38 794.425 176.1C794.145 175.82 794.005 175.473 794.005 175.06C794.005 174.647 794.145 174.3 794.425 174.02C794.705 173.74 795.051 173.6 795.465 173.6C795.865 173.6 796.205 173.74 796.485 174.02C796.765 174.3 796.905 174.647 796.905 175.06C796.905 175.473 796.765 175.82 796.485 176.1C796.205 176.38 795.865 176.52 795.465 176.52ZM796.585 177.98V189H794.305V177.98H796.585ZM805.138 177.8C806.005 177.8 806.778 177.98 807.458 178.34C808.151 178.7 808.691 179.233 809.078 179.94C809.465 180.647 809.658 181.5 809.658 182.5V189H807.398V182.84C807.398 181.853 807.151 181.1 806.658 180.58C806.165 180.047 805.491 179.78 804.638 179.78C803.785 179.78 803.105 180.047 802.598 180.58C802.105 181.1 801.858 181.853 801.858 182.84V189H799.578V177.98H801.858V179.24C802.231 178.787 802.705 178.433 803.278 178.18C803.865 177.927 804.485 177.8 805.138 177.8ZM817.006 177.8C817.86 177.8 818.613 177.973 819.266 178.32C819.933 178.653 820.453 179.073 820.826 179.58V177.98H823.126V189.18C823.126 190.193 822.913 191.093 822.486 191.88C822.06 192.68 821.44 193.307 820.626 193.76C819.826 194.213 818.866 194.44 817.746 194.44C816.253 194.44 815.013 194.087 814.026 193.38C813.04 192.687 812.48 191.74 812.346 190.54H814.606C814.78 191.113 815.146 191.573 815.706 191.92C816.28 192.28 816.96 192.46 817.746 192.46C818.666 192.46 819.406 192.18 819.966 191.62C820.54 191.06 820.826 190.247 820.826 189.18V187.34C820.44 187.86 819.913 188.3 819.246 188.66C818.593 189.007 817.846 189.18 817.006 189.18C816.046 189.18 815.166 188.94 814.366 188.46C813.58 187.967 812.953 187.287 812.486 186.42C812.033 185.54 811.806 184.547 811.806 183.44C811.806 182.333 812.033 181.353 812.486 180.5C812.953 179.647 813.58 178.987 814.366 178.52C815.166 178.04 816.046 177.8 817.006 177.8ZM820.826 183.48C820.826 182.72 820.666 182.06 820.346 181.5C820.04 180.94 819.633 180.513 819.126 180.22C818.62 179.927 818.073 179.78 817.486 179.78C816.9 179.78 816.353 179.927 815.846 180.22C815.34 180.5 814.926 180.92 814.606 181.48C814.3 182.027 814.146 182.68 814.146 183.44C814.146 184.2 814.3 184.867 814.606 185.44C814.926 186.013 815.34 186.453 815.846 186.76C816.366 187.053 816.913 187.2 817.486 187.2C818.073 187.2 818.62 187.053 819.126 186.76C819.633 186.467 820.04 186.04 820.346 185.48C820.666 184.907 820.826 184.24 820.826 183.48Z" fill="black"/>
<path d="M1222.12 175.1V183.96C1222.12 185.013 1222.4 185.807 1222.94 186.34C1223.5 186.873 1224.28 187.14 1225.26 187.14C1226.26 187.14 1227.04 186.873 1227.58 186.34C1228.14 185.807 1228.42 185.013 1228.42 183.96V175.1H1230.7V183.92C1230.7 185.053 1230.46 186.013 1229.96 186.8C1229.47 187.587 1228.81 188.173 1227.98 188.56C1227.16 188.947 1226.24 189.14 1225.24 189.14C1224.24 189.14 1223.33 188.947 1222.5 188.56C1221.69 188.173 1221.04 187.587 1220.56 186.8C1220.08 186.013 1219.84 185.053 1219.84 183.92V175.1H1222.12ZM1237.67 189.18C1236.81 189.18 1236.03 189.027 1235.33 188.72C1234.65 188.4 1234.11 187.973 1233.71 187.44C1233.31 186.893 1233.1 186.287 1233.07 185.62H1235.43C1235.47 186.087 1235.69 186.48 1236.09 186.8C1236.51 187.107 1237.02 187.26 1237.63 187.26C1238.27 187.26 1238.77 187.14 1239.11 186.9C1239.47 186.647 1239.65 186.327 1239.65 185.94C1239.65 185.527 1239.45 185.22 1239.05 185.02C1238.67 184.82 1238.05 184.6 1237.19 184.36C1236.37 184.133 1235.69 183.913 1235.17 183.7C1234.65 183.487 1234.2 183.16 1233.81 182.72C1233.44 182.28 1233.25 181.7 1233.25 180.98C1233.25 180.393 1233.43 179.86 1233.77 179.38C1234.12 178.887 1234.61 178.5 1235.25 178.22C1235.91 177.94 1236.65 177.8 1237.49 177.8C1238.75 177.8 1239.75 178.12 1240.51 178.76C1241.29 179.387 1241.7 180.247 1241.75 181.34H1239.47C1239.43 180.847 1239.23 180.453 1238.87 180.16C1238.51 179.867 1238.03 179.72 1237.41 179.72C1236.81 179.72 1236.35 179.833 1236.03 180.06C1235.71 180.287 1235.55 180.587 1235.55 180.96C1235.55 181.253 1235.66 181.5 1235.87 181.7C1236.09 181.9 1236.35 182.06 1236.65 182.18C1236.96 182.287 1237.41 182.427 1238.01 182.6C1238.81 182.813 1239.47 183.033 1239.97 183.26C1240.49 183.473 1240.94 183.793 1241.31 184.22C1241.69 184.647 1241.88 185.213 1241.89 185.92C1241.89 186.547 1241.72 187.107 1241.37 187.6C1241.03 188.093 1240.53 188.48 1239.89 188.76C1239.27 189.04 1238.53 189.18 1237.67 189.18ZM1243.6 183.44C1243.6 182.333 1243.82 181.353 1244.28 180.5C1244.74 179.647 1245.37 178.987 1246.16 178.52C1246.96 178.04 1247.84 177.8 1248.8 177.8C1249.66 177.8 1250.42 177.973 1251.06 178.32C1251.71 178.653 1252.23 179.073 1252.62 179.58V177.98H1254.92V189H1252.62V187.36C1252.23 187.88 1251.7 188.313 1251.04 188.66C1250.37 189.007 1249.61 189.18 1248.76 189.18C1247.81 189.18 1246.94 188.94 1246.16 188.46C1245.37 187.967 1244.74 187.287 1244.28 186.42C1243.82 185.54 1243.6 184.547 1243.6 183.44ZM1252.62 183.48C1252.62 182.72 1252.46 182.06 1252.14 181.5C1251.83 180.94 1251.42 180.513 1250.92 180.22C1250.41 179.927 1249.86 179.78 1249.28 179.78C1248.69 179.78 1248.14 179.927 1247.64 180.22C1247.13 180.5 1246.72 180.92 1246.4 181.48C1246.09 182.027 1245.94 182.68 1245.94 183.44C1245.94 184.2 1246.09 184.867 1246.4 185.44C1246.72 186.013 1247.13 186.453 1247.64 186.76C1248.16 187.053 1248.7 187.2 1249.28 187.2C1249.86 187.2 1250.41 187.053 1250.92 186.76C1251.42 186.467 1251.83 186.04 1252.14 185.48C1252.46 184.907 1252.62 184.24 1252.62 183.48ZM1260.19 179.62C1260.58 179.087 1261.1 178.653 1261.77 178.32C1262.45 177.973 1263.2 177.8 1264.03 177.8C1265 177.8 1265.88 178.033 1266.67 178.5C1267.46 178.967 1268.08 179.633 1268.53 180.5C1268.98 181.353 1269.21 182.333 1269.21 183.44C1269.21 184.547 1268.98 185.54 1268.53 186.42C1268.08 187.287 1267.45 187.967 1266.65 188.46C1265.86 188.94 1264.99 189.18 1264.03 189.18C1263.18 189.18 1262.42 189.013 1261.75 188.68C1261.1 188.347 1260.58 187.92 1260.19 187.4V189H1257.91V174.2H1260.19V179.62ZM1266.89 183.44C1266.89 182.68 1266.73 182.027 1266.41 181.48C1266.1 180.92 1265.69 180.5 1265.17 180.22C1264.66 179.927 1264.12 179.78 1263.53 179.78C1262.96 179.78 1262.41 179.927 1261.89 180.22C1261.38 180.513 1260.97 180.94 1260.65 181.5C1260.34 182.06 1260.19 182.72 1260.19 183.48C1260.19 184.24 1260.34 184.907 1260.65 185.48C1260.97 186.04 1261.38 186.467 1261.89 186.76C1262.41 187.053 1262.96 187.2 1263.53 187.2C1264.12 187.2 1264.66 187.053 1265.17 186.76C1265.69 186.453 1266.1 186.013 1266.41 185.44C1266.73 184.867 1266.89 184.2 1266.89 183.44ZM1272.62 176.52C1272.21 176.52 1271.86 176.38 1271.58 176.1C1271.3 175.82 1271.16 175.473 1271.16 175.06C1271.16 174.647 1271.3 174.3 1271.58 174.02C1271.86 173.74 1272.21 173.6 1272.62 173.6C1273.02 173.6 1273.36 173.74 1273.64 174.02C1273.92 174.3 1274.06 174.647 1274.06 175.06C1274.06 175.473 1273.92 175.82 1273.64 176.1C1273.36 176.38 1273.02 176.52 1272.62 176.52ZM1273.74 177.98V189H1271.46V177.98H1273.74ZM1279.02 174.2V189H1276.74V174.2H1279.02ZM1283.17 176.52C1282.76 176.52 1282.41 176.38 1282.13 176.1C1281.85 175.82 1281.71 175.473 1281.71 175.06C1281.71 174.647 1281.85 174.3 1282.13 174.02C1282.41 173.74 1282.76 173.6 1283.17 173.6C1283.57 173.6 1283.91 173.74 1284.19 174.02C1284.47 174.3 1284.61 174.647 1284.61 175.06C1284.61 175.473 1284.47 175.82 1284.19 176.1C1283.91 176.38 1283.57 176.52 1283.17 176.52ZM1284.29 177.98V189H1282.01V177.98H1284.29ZM1289.95 179.84V185.94C1289.95 186.353 1290.04 186.653 1290.23 186.84C1290.43 187.013 1290.76 187.1 1291.23 187.1H1292.63V189H1290.83C1289.8 189 1289.01 188.76 1288.47 188.28C1287.92 187.8 1287.65 187.02 1287.65 185.94V179.84H1286.35V177.98H1287.65V175.24H1289.95V177.98H1292.63V179.84H1289.95ZM1304.65 177.98L1297.89 194.18H1295.53L1297.77 188.82L1293.43 177.98H1295.97L1299.07 186.38L1302.29 177.98H1304.65ZM1320.54 175.1V176.96H1316.84V189H1314.56V176.96H1310.84V175.1H1320.54ZM1332.95 183.22C1332.95 183.633 1332.92 184.007 1332.87 184.34H1324.45C1324.52 185.22 1324.84 185.927 1325.43 186.46C1326.02 186.993 1326.74 187.26 1327.59 187.26C1328.82 187.26 1329.68 186.747 1330.19 185.72H1332.65C1332.32 186.733 1331.71 187.567 1330.83 188.22C1329.96 188.86 1328.88 189.18 1327.59 189.18C1326.54 189.18 1325.59 188.947 1324.75 188.48C1323.92 188 1323.27 187.333 1322.79 186.48C1322.32 185.613 1322.09 184.613 1322.09 183.48C1322.09 182.347 1322.32 181.353 1322.77 180.5C1323.24 179.633 1323.88 178.967 1324.71 178.5C1325.55 178.033 1326.51 177.8 1327.59 177.8C1328.63 177.8 1329.56 178.027 1330.37 178.48C1331.18 178.933 1331.82 179.573 1332.27 180.4C1332.72 181.213 1332.95 182.153 1332.95 183.22ZM1330.57 182.5C1330.56 181.66 1330.26 180.987 1329.67 180.48C1329.08 179.973 1328.36 179.72 1327.49 179.72C1326.7 179.72 1326.03 179.973 1325.47 180.48C1324.91 180.973 1324.58 181.647 1324.47 182.5H1330.57ZM1339.2 189.18C1338.33 189.18 1337.55 189.027 1336.86 188.72C1336.18 188.4 1335.64 187.973 1335.24 187.44C1334.84 186.893 1334.62 186.287 1334.6 185.62H1336.96C1337 186.087 1337.22 186.48 1337.62 186.8C1338.03 187.107 1338.54 187.26 1339.16 187.26C1339.8 187.26 1340.29 187.14 1340.64 186.9C1341 186.647 1341.18 186.327 1341.18 185.94C1341.18 185.527 1340.98 185.22 1340.58 185.02C1340.19 184.82 1339.57 184.6 1338.72 184.36C1337.89 184.133 1337.22 183.913 1336.7 183.7C1336.18 183.487 1335.72 183.16 1335.34 182.72C1334.96 182.28 1334.78 181.7 1334.78 180.98C1334.78 180.393 1334.95 179.86 1335.3 179.38C1335.64 178.887 1336.14 178.5 1336.78 178.22C1337.43 177.94 1338.18 177.8 1339.02 177.8C1340.27 177.8 1341.28 178.12 1342.04 178.76C1342.81 179.387 1343.22 180.247 1343.28 181.34H1341C1340.96 180.847 1340.76 180.453 1340.4 180.16C1340.04 179.867 1339.55 179.72 1338.94 179.72C1338.34 179.72 1337.88 179.833 1337.56 180.06C1337.24 180.287 1337.08 180.587 1337.08 180.96C1337.08 181.253 1337.18 181.5 1337.4 181.7C1337.61 181.9 1337.87 182.06 1338.18 182.18C1338.48 182.287 1338.94 182.427 1339.54 182.6C1340.34 182.813 1340.99 183.033 1341.5 183.26C1342.02 183.473 1342.46 183.793 1342.84 184.22C1343.21 184.647 1343.4 185.213 1343.42 185.92C1343.42 186.547 1343.24 187.107 1342.9 187.6C1342.55 188.093 1342.06 188.48 1341.42 188.76C1340.79 189.04 1340.05 189.18 1339.2 189.18ZM1348.54 179.84V185.94C1348.54 186.353 1348.63 186.653 1348.82 186.84C1349.02 187.013 1349.35 187.1 1349.82 187.1H1351.22V189H1349.42C1348.39 189 1347.61 188.76 1347.06 188.28C1346.51 187.8 1346.24 187.02 1346.24 185.94V179.84H1344.94V177.98H1346.24V175.24H1348.54V177.98H1351.22V179.84H1348.54ZM1354.48 176.52C1354.07 176.52 1353.72 176.38 1353.44 176.1C1353.16 175.82 1353.02 175.473 1353.02 175.06C1353.02 174.647 1353.16 174.3 1353.44 174.02C1353.72 173.74 1354.07 173.6 1354.48 173.6C1354.88 173.6 1355.22 173.74 1355.5 174.02C1355.78 174.3 1355.92 174.647 1355.92 175.06C1355.92 175.473 1355.78 175.82 1355.5 176.1C1355.22 176.38 1354.88 176.52 1354.48 176.52ZM1355.6 177.98V189H1353.32V177.98H1355.6ZM1364.15 177.8C1365.02 177.8 1365.79 177.98 1366.47 178.34C1367.17 178.7 1367.71 179.233 1368.09 179.94C1368.48 180.647 1368.67 181.5 1368.67 182.5V189H1366.41V182.84C1366.41 181.853 1366.17 181.1 1365.67 180.58C1365.18 180.047 1364.51 179.78 1363.65 179.78C1362.8 179.78 1362.12 180.047 1361.61 180.58C1361.12 181.1 1360.87 181.853 1360.87 182.84V189H1358.59V177.98H1360.87V179.24C1361.25 178.787 1361.72 178.433 1362.29 178.18C1362.88 177.927 1363.5 177.8 1364.15 177.8ZM1376.02 177.8C1376.88 177.8 1377.63 177.973 1378.28 178.32C1378.95 178.653 1379.47 179.073 1379.84 179.58V177.98H1382.14V189.18C1382.14 190.193 1381.93 191.093 1381.5 191.88C1381.08 192.68 1380.46 193.307 1379.64 193.76C1378.84 194.213 1377.88 194.44 1376.76 194.44C1375.27 194.44 1374.03 194.087 1373.04 193.38C1372.06 192.687 1371.5 191.74 1371.36 190.54H1373.62C1373.8 191.113 1374.16 191.573 1374.72 191.92C1375.3 192.28 1375.98 192.46 1376.76 192.46C1377.68 192.46 1378.42 192.18 1378.98 191.62C1379.56 191.06 1379.84 190.247 1379.84 189.18V187.34C1379.46 187.86 1378.93 188.3 1378.26 188.66C1377.61 189.007 1376.86 189.18 1376.02 189.18C1375.06 189.18 1374.18 188.94 1373.38 188.46C1372.6 187.967 1371.97 187.287 1371.5 186.42C1371.05 185.54 1370.82 184.547 1370.82 183.44C1370.82 182.333 1371.05 181.353 1371.5 180.5C1371.97 179.647 1372.6 178.987 1373.38 178.52C1374.18 178.04 1375.06 177.8 1376.02 177.8ZM1379.84 183.48C1379.84 182.72 1379.68 182.06 1379.36 181.5C1379.06 180.94 1378.65 180.513 1378.14 180.22C1377.64 179.927 1377.09 179.78 1376.5 179.78C1375.92 179.78 1375.37 179.927 1374.86 180.22C1374.36 180.5 1373.94 180.92 1373.62 181.48C1373.32 182.027 1373.16 182.68 1373.16 183.44C1373.16 184.2 1373.32 184.867 1373.62 185.44C1373.94 186.013 1374.36 186.453 1374.86 186.76C1375.38 187.053 1375.93 187.2 1376.5 187.2C1377.09 187.2 1377.64 187.053 1378.14 186.76C1378.65 186.467 1379.06 186.04 1379.36 185.48C1379.68 184.907 1379.84 184.24 1379.84 183.48Z" fill="black"/>
<path d="M718.965 217.1L714.845 231H712.265L709.345 220.48L706.245 231L703.685 231.02L699.745 217.1H702.165L705.045 228.42L708.165 217.1H710.725L713.625 228.36L716.525 217.1H718.965ZM722.006 218.52C721.592 218.52 721.246 218.38 720.966 218.1C720.686 217.82 720.546 217.473 720.546 217.06C720.546 216.647 720.686 216.3 720.966 216.02C721.246 215.74 721.592 215.6 722.006 215.6C722.406 215.6 722.746 215.74 723.026 216.02C723.306 216.3 723.446 216.647 723.446 217.06C723.446 217.473 723.306 217.82 723.026 218.1C722.746 218.38 722.406 218.52 722.006 218.52ZM723.126 219.98V231H720.846V219.98H723.126ZM728.399 221.58C728.732 221.02 729.172 220.587 729.719 220.28C730.279 219.96 730.939 219.8 731.699 219.8V222.16H731.119C730.226 222.16 729.546 222.387 729.079 222.84C728.626 223.293 728.399 224.08 728.399 225.2V231H726.119V219.98H728.399V221.58ZM743.895 225.22C743.895 225.633 743.868 226.007 743.815 226.34H735.395C735.462 227.22 735.788 227.927 736.375 228.46C736.962 228.993 737.682 229.26 738.535 229.26C739.762 229.26 740.628 228.747 741.135 227.72H743.595C743.262 228.733 742.655 229.567 741.775 230.22C740.908 230.86 739.828 231.18 738.535 231.18C737.482 231.18 736.535 230.947 735.695 230.48C734.868 230 734.215 229.333 733.735 228.48C733.268 227.613 733.035 226.613 733.035 225.48C733.035 224.347 733.262 223.353 733.715 222.5C734.182 221.633 734.828 220.967 735.655 220.5C736.495 220.033 737.455 219.8 738.535 219.8C739.575 219.8 740.502 220.027 741.315 220.48C742.128 220.933 742.762 221.573 743.215 222.4C743.668 223.213 743.895 224.153 743.895 225.22ZM741.515 224.5C741.502 223.66 741.202 222.987 740.615 222.48C740.028 221.973 739.302 221.72 738.435 221.72C737.648 221.72 736.975 221.973 736.415 222.48C735.855 222.973 735.522 223.647 735.415 224.5H741.515ZM750.759 221.84H748.719V231H746.419V221.84H745.119V219.98H746.419V219.2C746.419 217.933 746.752 217.013 747.419 216.44C748.099 215.853 749.159 215.56 750.599 215.56V217.46C749.905 217.46 749.419 217.593 749.139 217.86C748.859 218.113 748.719 218.56 748.719 219.2V219.98H750.759V221.84ZM755.059 221.58C755.393 221.02 755.833 220.587 756.379 220.28C756.939 219.96 757.599 219.8 758.359 219.8V222.16H757.779C756.886 222.16 756.206 222.387 755.739 222.84C755.286 223.293 755.059 224.08 755.059 225.2V231H752.779V219.98H755.059V221.58ZM759.695 225.44C759.695 224.333 759.922 223.353 760.375 222.5C760.842 221.647 761.468 220.987 762.255 220.52C763.055 220.04 763.935 219.8 764.895 219.8C765.762 219.8 766.515 219.973 767.155 220.32C767.808 220.653 768.328 221.073 768.715 221.58V219.98H771.015V231H768.715V229.36C768.328 229.88 767.802 230.313 767.135 230.66C766.468 231.007 765.708 231.18 764.855 231.18C763.908 231.18 763.042 230.94 762.255 230.46C761.468 229.967 760.842 229.287 760.375 228.42C759.922 227.54 759.695 226.547 759.695 225.44ZM768.715 225.48C768.715 224.72 768.555 224.06 768.235 223.5C767.928 222.94 767.522 222.513 767.015 222.22C766.508 221.927 765.962 221.78 765.375 221.78C764.788 221.78 764.242 221.927 763.735 222.22C763.228 222.5 762.815 222.92 762.495 223.48C762.188 224.027 762.035 224.68 762.035 225.44C762.035 226.2 762.188 226.867 762.495 227.44C762.815 228.013 763.228 228.453 763.735 228.76C764.255 229.053 764.802 229.2 765.375 229.2C765.962 229.2 766.508 229.053 767.015 228.76C767.522 228.467 767.928 228.04 768.235 227.48C768.555 226.907 768.715 226.24 768.715 225.48ZM787.35 219.8C788.216 219.8 788.99 219.98 789.67 220.34C790.363 220.7 790.903 221.233 791.29 221.94C791.69 222.647 791.89 223.5 791.89 224.5V231H789.63V224.84C789.63 223.853 789.383 223.1 788.89 222.58C788.396 222.047 787.723 221.78 786.87 221.78C786.016 221.78 785.336 222.047 784.83 222.58C784.336 223.1 784.09 223.853 784.09 224.84V231H781.83V224.84C781.83 223.853 781.583 223.1 781.09 222.58C780.596 222.047 779.923 221.78 779.07 221.78C778.216 221.78 777.536 222.047 777.03 222.58C776.536 223.1 776.29 223.853 776.29 224.84V231H774.01V219.98H776.29V221.24C776.663 220.787 777.136 220.433 777.71 220.18C778.283 219.927 778.896 219.8 779.55 219.8C780.43 219.8 781.216 219.987 781.91 220.36C782.603 220.733 783.136 221.273 783.51 221.98C783.843 221.313 784.363 220.787 785.07 220.4C785.776 220 786.536 219.8 787.35 219.8ZM804.891 225.22C804.891 225.633 804.864 226.007 804.811 226.34H796.391C796.458 227.22 796.784 227.927 797.371 228.46C797.958 228.993 798.678 229.26 799.531 229.26C800.758 229.26 801.624 228.747 802.131 227.72H804.591C804.258 228.733 803.651 229.567 802.771 230.22C801.904 230.86 800.824 231.18 799.531 231.18C798.478 231.18 797.531 230.947 796.691 230.48C795.864 230 795.211 229.333 794.731 228.48C794.264 227.613 794.031 226.613 794.031 225.48C794.031 224.347 794.258 223.353 794.711 222.5C795.178 221.633 795.824 220.967 796.651 220.5C797.491 220.033 798.451 219.8 799.531 219.8C800.571 219.8 801.498 220.027 802.311 220.48C803.124 220.933 803.758 221.573 804.211 222.4C804.664 223.213 804.891 224.153 804.891 225.22ZM802.511 224.5C802.498 223.66 802.198 222.987 801.611 222.48C801.024 221.973 800.298 221.72 799.431 221.72C798.644 221.72 797.971 221.973 797.411 222.48C796.851 222.973 796.518 223.647 796.411 224.5H802.511Z" fill="black"/>
<path d="M694.572 259.1L689.352 273H686.712L681.472 259.1H683.912L688.032 270.66L692.172 259.1H694.572ZM697.639 260.52C697.225 260.52 696.879 260.38 696.599 260.1C696.319 259.82 696.179 259.473 696.179 259.06C696.179 258.647 696.319 258.3 696.599 258.02C696.879 257.74 697.225 257.6 697.639 257.6C698.039 257.6 698.379 257.74 698.659 258.02C698.939 258.3 699.079 258.647 699.079 259.06C699.079 259.473 698.939 259.82 698.659 260.1C698.379 260.38 698.039 260.52 697.639 260.52ZM698.759 261.98V273H696.479V261.98H698.759ZM705.752 273.18C704.885 273.18 704.105 273.027 703.412 272.72C702.732 272.4 702.192 271.973 701.792 271.44C701.392 270.893 701.179 270.287 701.152 269.62H703.512C703.552 270.087 703.772 270.48 704.172 270.8C704.585 271.107 705.099 271.26 705.712 271.26C706.352 271.26 706.845 271.14 707.192 270.9C707.552 270.647 707.732 270.327 707.732 269.94C707.732 269.527 707.532 269.22 707.132 269.02C706.745 268.82 706.125 268.6 705.272 268.36C704.445 268.133 703.772 267.913 703.252 267.7C702.732 267.487 702.279 267.16 701.892 266.72C701.519 266.28 701.332 265.7 701.332 264.98C701.332 264.393 701.505 263.86 701.852 263.38C702.199 262.887 702.692 262.5 703.332 262.22C703.985 261.94 704.732 261.8 705.572 261.8C706.825 261.8 707.832 262.12 708.592 262.76C709.365 263.387 709.779 264.247 709.832 265.34H707.552C707.512 264.847 707.312 264.453 706.952 264.16C706.592 263.867 706.105 263.72 705.492 263.72C704.892 263.72 704.432 263.833 704.112 264.06C703.792 264.287 703.632 264.587 703.632 264.96C703.632 265.253 703.739 265.5 703.952 265.7C704.165 265.9 704.425 266.06 704.732 266.18C705.039 266.287 705.492 266.427 706.092 266.6C706.892 266.813 707.545 267.033 708.052 267.26C708.572 267.473 709.019 267.793 709.392 268.22C709.765 268.647 709.959 269.213 709.972 269.92C709.972 270.547 709.799 271.107 709.452 271.6C709.105 272.093 708.612 272.48 707.972 272.76C707.345 273.04 706.605 273.18 705.752 273.18ZM722.416 261.98V273H720.136V271.7C719.776 272.153 719.302 272.513 718.716 272.78C718.142 273.033 717.529 273.16 716.876 273.16C716.009 273.16 715.229 272.98 714.536 272.62C713.856 272.26 713.316 271.727 712.916 271.02C712.529 270.313 712.336 269.46 712.336 268.46V261.98H714.596V268.12C714.596 269.107 714.842 269.867 715.336 270.4C715.829 270.92 716.502 271.18 717.356 271.18C718.209 271.18 718.882 270.92 719.376 270.4C719.882 269.867 720.136 269.107 720.136 268.12V261.98H722.416ZM724.664 267.44C724.664 266.333 724.89 265.353 725.344 264.5C725.81 263.647 726.437 262.987 727.224 262.52C728.024 262.04 728.904 261.8 729.864 261.8C730.73 261.8 731.484 261.973 732.124 262.32C732.777 262.653 733.297 263.073 733.684 263.58V261.98H735.984V273H733.684V271.36C733.297 271.88 732.77 272.313 732.104 272.66C731.437 273.007 730.677 273.18 729.824 273.18C728.877 273.18 728.01 272.94 727.224 272.46C726.437 271.967 725.81 271.287 725.344 270.42C724.89 269.54 724.664 268.547 724.664 267.44ZM733.684 267.48C733.684 266.72 733.524 266.06 733.204 265.5C732.897 264.94 732.49 264.513 731.984 264.22C731.477 263.927 730.93 263.78 730.344 263.78C729.757 263.78 729.21 263.927 728.704 264.22C728.197 264.5 727.784 264.92 727.464 265.48C727.157 266.027 727.004 266.68 727.004 267.44C727.004 268.2 727.157 268.867 727.464 269.44C727.784 270.013 728.197 270.453 728.704 270.76C729.224 271.053 729.77 271.2 730.344 271.2C730.93 271.2 731.477 271.053 731.984 270.76C732.49 270.467 732.897 270.04 733.204 269.48C733.524 268.907 733.684 268.24 733.684 267.48ZM741.259 258.2V273H738.979V258.2H741.259ZM754.027 273.14C753.094 273.14 752.254 272.98 751.507 272.66C750.761 272.327 750.174 271.86 749.747 271.26C749.321 270.66 749.107 269.96 749.107 269.16H751.547C751.601 269.76 751.834 270.253 752.247 270.64C752.674 271.027 753.267 271.22 754.027 271.22C754.814 271.22 755.427 271.033 755.867 270.66C756.307 270.273 756.527 269.78 756.527 269.18C756.527 268.713 756.387 268.333 756.107 268.04C755.841 267.747 755.501 267.52 755.087 267.36C754.687 267.2 754.127 267.027 753.407 266.84C752.501 266.6 751.761 266.36 751.187 266.12C750.627 265.867 750.147 265.48 749.747 264.96C749.347 264.44 749.147 263.747 749.147 262.88C749.147 262.08 749.347 261.38 749.747 260.78C750.147 260.18 750.707 259.72 751.427 259.4C752.147 259.08 752.981 258.92 753.927 258.92C755.274 258.92 756.374 259.26 757.227 259.94C758.094 260.607 758.574 261.527 758.667 262.7H756.147C756.107 262.193 755.867 261.76 755.427 261.4C754.987 261.04 754.407 260.86 753.687 260.86C753.034 260.86 752.501 261.027 752.087 261.36C751.674 261.693 751.467 262.173 751.467 262.8C751.467 263.227 751.594 263.58 751.847 263.86C752.114 264.127 752.447 264.34 752.847 264.5C753.247 264.66 753.794 264.833 754.487 265.02C755.407 265.273 756.154 265.527 756.727 265.78C757.314 266.033 757.807 266.427 758.207 266.96C758.621 267.48 758.827 268.18 758.827 269.06C758.827 269.767 758.634 270.433 758.247 271.06C757.874 271.687 757.321 272.193 756.587 272.58C755.867 272.953 755.014 273.14 754.027 273.14ZM771.438 261.98L764.678 278.18H762.318L764.558 272.82L760.218 261.98H762.758L765.858 270.38L769.078 261.98H771.438ZM777.158 273.18C776.292 273.18 775.512 273.027 774.818 272.72C774.138 272.4 773.598 271.973 773.198 271.44C772.798 270.893 772.585 270.287 772.558 269.62H774.918C774.958 270.087 775.178 270.48 775.578 270.8C775.992 271.107 776.505 271.26 777.118 271.26C777.758 271.26 778.252 271.14 778.598 270.9C778.958 270.647 779.138 270.327 779.138 269.94C779.138 269.527 778.938 269.22 778.538 269.02C778.152 268.82 777.532 268.6 776.678 268.36C775.852 268.133 775.178 267.913 774.658 267.7C774.138 267.487 773.685 267.16 773.298 266.72C772.925 266.28 772.738 265.7 772.738 264.98C772.738 264.393 772.912 263.86 773.258 263.38C773.605 262.887 774.098 262.5 774.738 262.22C775.392 261.94 776.138 261.8 776.978 261.8C778.232 261.8 779.238 262.12 779.998 262.76C780.772 263.387 781.185 264.247 781.238 265.34H778.958C778.918 264.847 778.718 264.453 778.358 264.16C777.998 263.867 777.512 263.72 776.898 263.72C776.298 263.72 775.838 263.833 775.518 264.06C775.198 264.287 775.038 264.587 775.038 264.96C775.038 265.253 775.145 265.5 775.358 265.7C775.572 265.9 775.832 266.06 776.138 266.18C776.445 266.287 776.898 266.427 777.498 266.6C778.298 266.813 778.952 267.033 779.458 267.26C779.978 267.473 780.425 267.793 780.798 268.22C781.172 268.647 781.365 269.213 781.378 269.92C781.378 270.547 781.205 271.107 780.858 271.6C780.512 272.093 780.018 272.48 779.378 272.76C778.752 273.04 778.012 273.18 777.158 273.18ZM786.502 263.84V269.94C786.502 270.353 786.595 270.653 786.782 270.84C786.982 271.013 787.315 271.1 787.782 271.1H789.182V273H787.382C786.355 273 785.568 272.76 785.022 272.28C784.475 271.8 784.202 271.02 784.202 269.94V263.84H782.902V261.98H784.202V259.24H786.502V261.98H789.182V263.84H786.502ZM801.383 267.22C801.383 267.633 801.357 268.007 801.303 268.34H792.883C792.95 269.22 793.277 269.927 793.863 270.46C794.45 270.993 795.17 271.26 796.023 271.26C797.25 271.26 798.117 270.747 798.623 269.72H801.083C800.75 270.733 800.143 271.567 799.263 272.22C798.397 272.86 797.317 273.18 796.023 273.18C794.97 273.18 794.023 272.947 793.183 272.48C792.357 272 791.703 271.333 791.223 270.48C790.757 269.613 790.523 268.613 790.523 267.48C790.523 266.347 790.75 265.353 791.203 264.5C791.67 263.633 792.317 262.967 793.143 262.5C793.983 262.033 794.943 261.8 796.023 261.8C797.063 261.8 797.99 262.027 798.803 262.48C799.617 262.933 800.25 263.573 800.703 264.4C801.157 265.213 801.383 266.153 801.383 267.22ZM799.003 266.5C798.99 265.66 798.69 264.987 798.103 264.48C797.517 263.973 796.79 263.72 795.923 263.72C795.137 263.72 794.463 263.973 793.903 264.48C793.343 264.973 793.01 265.647 792.903 266.5H799.003ZM816.967 261.8C817.834 261.8 818.607 261.98 819.287 262.34C819.98 262.7 820.52 263.233 820.907 263.94C821.307 264.647 821.507 265.5 821.507 266.5V273H819.247V266.84C819.247 265.853 819 265.1 818.507 264.58C818.014 264.047 817.34 263.78 816.487 263.78C815.634 263.78 814.954 264.047 814.447 264.58C813.954 265.1 813.707 265.853 813.707 266.84V273H811.447V266.84C811.447 265.853 811.2 265.1 810.707 264.58C810.214 264.047 809.54 263.78 808.687 263.78C807.834 263.78 807.154 264.047 806.647 264.58C806.154 265.1 805.907 265.853 805.907 266.84V273H803.627V261.98H805.907V263.24C806.28 262.787 806.754 262.433 807.327 262.18C807.9 261.927 808.514 261.8 809.167 261.8C810.047 261.8 810.834 261.987 811.527 262.36C812.22 262.733 812.754 263.273 813.127 263.98C813.46 263.313 813.98 262.787 814.687 262.4C815.394 262 816.154 261.8 816.967 261.8Z" fill="black"/>
<path d="M666.887 301.1V315H664.607V308.92H658.067V315H655.787V301.1H658.067V307.06H664.607V301.1H666.887ZM671.049 302.52C670.635 302.52 670.289 302.38 670.009 302.1C669.729 301.82 669.589 301.473 669.589 301.06C669.589 300.647 669.729 300.3 670.009 300.02C670.289 299.74 670.635 299.6 671.049 299.6C671.449 299.6 671.789 299.74 672.069 300.02C672.349 300.3 672.489 300.647 672.489 301.06C672.489 301.473 672.349 301.82 672.069 302.1C671.789 302.38 671.449 302.52 671.049 302.52ZM672.169 303.98V315H669.889V303.98H672.169ZM679.602 303.8C680.455 303.8 681.209 303.973 681.862 304.32C682.529 304.653 683.049 305.073 683.422 305.58V303.98H685.722V315.18C685.722 316.193 685.509 317.093 685.082 317.88C684.655 318.68 684.035 319.307 683.222 319.76C682.422 320.213 681.462 320.44 680.342 320.44C678.849 320.44 677.609 320.087 676.622 319.38C675.635 318.687 675.075 317.74 674.942 316.54H677.202C677.375 317.113 677.742 317.573 678.302 317.92C678.875 318.28 679.555 318.46 680.342 318.46C681.262 318.46 682.002 318.18 682.562 317.62C683.135 317.06 683.422 316.247 683.422 315.18V313.34C683.035 313.86 682.509 314.3 681.842 314.66C681.189 315.007 680.442 315.18 679.602 315.18C678.642 315.18 677.762 314.94 676.962 314.46C676.175 313.967 675.549 313.287 675.082 312.42C674.629 311.54 674.402 310.547 674.402 309.44C674.402 308.333 674.629 307.353 675.082 306.5C675.549 305.647 676.175 304.987 676.962 304.52C677.762 304.04 678.642 303.8 679.602 303.8ZM683.422 309.48C683.422 308.72 683.262 308.06 682.942 307.5C682.635 306.94 682.229 306.513 681.722 306.22C681.215 305.927 680.669 305.78 680.082 305.78C679.495 305.78 678.949 305.927 678.442 306.22C677.935 306.5 677.522 306.92 677.202 307.48C676.895 308.027 676.742 308.68 676.742 309.44C676.742 310.2 676.895 310.867 677.202 311.44C677.522 312.013 677.935 312.453 678.442 312.76C678.962 313.053 679.509 313.2 680.082 313.2C680.669 313.2 681.215 313.053 681.722 312.76C682.229 312.467 682.635 312.04 682.942 311.48C683.262 310.907 683.422 310.24 683.422 309.48ZM694.417 303.8C695.257 303.8 696.003 303.98 696.657 304.34C697.323 304.7 697.843 305.233 698.217 305.94C698.603 306.647 698.797 307.5 698.797 308.5V315H696.537V308.84C696.537 307.853 696.29 307.1 695.797 306.58C695.303 306.047 694.63 305.78 693.777 305.78C692.923 305.78 692.243 306.047 691.737 306.58C691.243 307.1 690.997 307.853 690.997 308.84V315H688.717V300.2H690.997V305.26C691.383 304.793 691.87 304.433 692.457 304.18C693.057 303.927 693.71 303.8 694.417 303.8ZM715.08 301.1V302.96H709.18V307.06H713.78V308.92H709.18V315H706.9V301.1H715.08ZM718.353 302.52C717.94 302.52 717.593 302.38 717.313 302.1C717.033 301.82 716.893 301.473 716.893 301.06C716.893 300.647 717.033 300.3 717.313 300.02C717.593 299.74 717.94 299.6 718.353 299.6C718.753 299.6 719.093 299.74 719.373 300.02C719.653 300.3 719.793 300.647 719.793 301.06C719.793 301.473 719.653 301.82 719.373 302.1C719.093 302.38 718.753 302.52 718.353 302.52ZM719.473 303.98V315H717.193V303.98H719.473ZM721.707 309.44C721.707 308.333 721.933 307.353 722.387 306.5C722.853 305.647 723.48 304.987 724.267 304.52C725.067 304.04 725.953 303.8 726.927 303.8C727.647 303.8 728.353 303.96 729.047 304.28C729.753 304.587 730.313 305 730.727 305.52V300.2H733.027V315H730.727V313.34C730.353 313.873 729.833 314.313 729.167 314.66C728.513 315.007 727.76 315.18 726.907 315.18C725.947 315.18 725.067 314.94 724.267 314.46C723.48 313.967 722.853 313.287 722.387 312.42C721.933 311.54 721.707 310.547 721.707 309.44ZM730.727 309.48C730.727 308.72 730.567 308.06 730.247 307.5C729.94 306.94 729.533 306.513 729.027 306.22C728.52 305.927 727.973 305.78 727.387 305.78C726.8 305.78 726.253 305.927 725.747 306.22C725.24 306.5 724.827 306.92 724.507 307.48C724.2 308.027 724.047 308.68 724.047 309.44C724.047 310.2 724.2 310.867 724.507 311.44C724.827 312.013 725.24 312.453 725.747 312.76C726.267 313.053 726.813 313.2 727.387 313.2C727.973 313.2 728.52 313.053 729.027 312.76C729.533 312.467 729.94 312.04 730.247 311.48C730.567 310.907 730.727 310.24 730.727 309.48ZM746.121 309.22C746.121 309.633 746.095 310.007 746.041 310.34H737.621C737.688 311.22 738.015 311.927 738.601 312.46C739.188 312.993 739.908 313.26 740.761 313.26C741.988 313.26 742.855 312.747 743.361 311.72H745.821C745.488 312.733 744.881 313.567 744.001 314.22C743.135 314.86 742.055 315.18 740.761 315.18C739.708 315.18 738.761 314.947 737.921 314.48C737.095 314 736.441 313.333 735.961 312.48C735.495 311.613 735.261 310.613 735.261 309.48C735.261 308.347 735.488 307.353 735.941 306.5C736.408 305.633 737.055 304.967 737.881 304.5C738.721 304.033 739.681 303.8 740.761 303.8C741.801 303.8 742.728 304.027 743.541 304.48C744.355 304.933 744.988 305.573 745.441 306.4C745.895 307.213 746.121 308.153 746.121 309.22ZM743.741 308.5C743.728 307.66 743.428 306.987 742.841 306.48C742.255 305.973 741.528 305.72 740.661 305.72C739.875 305.72 739.201 305.973 738.641 306.48C738.081 306.973 737.748 307.647 737.641 308.5H743.741ZM750.645 300.2V315H748.365V300.2H750.645ZM754.799 302.52C754.385 302.52 754.039 302.38 753.759 302.1C753.479 301.82 753.339 301.473 753.339 301.06C753.339 300.647 753.479 300.3 753.759 300.02C754.039 299.74 754.385 299.6 754.799 299.6C755.199 299.6 755.539 299.74 755.819 300.02C756.099 300.3 756.239 300.647 756.239 301.06C756.239 301.473 756.099 301.82 755.819 302.1C755.539 302.38 755.199 302.52 754.799 302.52ZM755.919 303.98V315H753.639V303.98H755.919ZM761.572 305.84V311.94C761.572 312.353 761.665 312.653 761.852 312.84C762.052 313.013 762.385 313.1 762.852 313.1H764.252V315H762.452C761.425 315 760.639 314.76 760.092 314.28C759.545 313.8 759.272 313.02 759.272 311.94V305.84H757.972V303.98H759.272V301.24H761.572V303.98H764.252V305.84H761.572ZM776.274 303.98L769.514 320.18H767.154L769.394 314.82L765.054 303.98H767.594L770.694 312.38L773.914 303.98H776.274ZM787.729 301.1C789.209 301.1 790.503 301.387 791.609 301.96C792.729 302.52 793.589 303.333 794.189 304.4C794.803 305.453 795.109 306.687 795.109 308.1C795.109 309.513 794.803 310.74 794.189 311.78C793.589 312.82 792.729 313.62 791.609 314.18C790.503 314.727 789.209 315 787.729 315H783.189V301.1H787.729ZM787.729 313.14C789.356 313.14 790.603 312.7 791.469 311.82C792.336 310.94 792.769 309.7 792.769 308.1C792.769 306.487 792.336 305.227 791.469 304.32C790.603 303.413 789.356 302.96 787.729 302.96H785.469V313.14H787.729ZM807.469 309.22C807.469 309.633 807.442 310.007 807.389 310.34H798.969C799.036 311.22 799.362 311.927 799.949 312.46C800.536 312.993 801.256 313.26 802.109 313.26C803.336 313.26 804.202 312.747 804.709 311.72H807.169C806.836 312.733 806.229 313.567 805.349 314.22C804.482 314.86 803.402 315.18 802.109 315.18C801.056 315.18 800.109 314.947 799.269 314.48C798.442 314 797.789 313.333 797.309 312.48C796.842 311.613 796.609 310.613 796.609 309.48C796.609 308.347 796.836 307.353 797.289 306.5C797.756 305.633 798.402 304.967 799.229 304.5C800.069 304.033 801.029 303.8 802.109 303.8C803.149 303.8 804.076 304.027 804.889 304.48C805.702 304.933 806.336 305.573 806.789 306.4C807.242 307.213 807.469 308.153 807.469 309.22ZM805.089 308.5C805.076 307.66 804.776 306.987 804.189 306.48C803.602 305.973 802.876 305.72 802.009 305.72C801.222 305.72 800.549 305.973 799.989 306.48C799.429 306.973 799.096 307.647 798.989 308.5H805.089ZM813.713 315.18C812.846 315.18 812.066 315.027 811.373 314.72C810.693 314.4 810.153 313.973 809.753 313.44C809.353 312.893 809.14 312.287 809.113 311.62H811.473C811.513 312.087 811.733 312.48 812.133 312.8C812.546 313.107 813.06 313.26 813.673 313.26C814.313 313.26 814.806 313.14 815.153 312.9C815.513 312.647 815.693 312.327 815.693 311.94C815.693 311.527 815.493 311.22 815.093 311.02C814.706 310.82 814.086 310.6 813.233 310.36C812.406 310.133 811.733 309.913 811.213 309.7C810.693 309.487 810.24 309.16 809.853 308.72C809.48 308.28 809.293 307.7 809.293 306.98C809.293 306.393 809.466 305.86 809.813 305.38C810.16 304.887 810.653 304.5 811.293 304.22C811.946 303.94 812.693 303.8 813.533 303.8C814.786 303.8 815.793 304.12 816.553 304.76C817.326 305.387 817.74 306.247 817.793 307.34H815.513C815.473 306.847 815.273 306.453 814.913 306.16C814.553 305.867 814.066 305.72 813.453 305.72C812.853 305.72 812.393 305.833 812.073 306.06C811.753 306.287 811.593 306.587 811.593 306.96C811.593 307.253 811.7 307.5 811.913 307.7C812.126 307.9 812.386 308.06 812.693 308.18C813 308.287 813.453 308.427 814.053 308.6C814.853 308.813 815.506 309.033 816.013 309.26C816.533 309.473 816.98 309.793 817.353 310.22C817.726 310.647 817.92 311.213 817.933 311.92C817.933 312.547 817.76 313.107 817.413 313.6C817.066 314.093 816.573 314.48 815.933 314.76C815.306 315.04 814.566 315.18 813.713 315.18ZM821.556 302.52C821.143 302.52 820.796 302.38 820.516 302.1C820.236 301.82 820.096 301.473 820.096 301.06C820.096 300.647 820.236 300.3 820.516 300.02C820.796 299.74 821.143 299.6 821.556 299.6C821.956 299.6 822.296 299.74 822.576 300.02C822.856 300.3 822.996 300.647 822.996 301.06C822.996 301.473 822.856 301.82 822.576 302.1C822.296 302.38 821.956 302.52 821.556 302.52ZM822.676 303.98V315H820.396V303.98H822.676ZM830.11 303.8C830.963 303.8 831.717 303.973 832.37 304.32C833.037 304.653 833.557 305.073 833.93 305.58V303.98H836.23V315.18C836.23 316.193 836.017 317.093 835.59 317.88C835.163 318.68 834.543 319.307 833.73 319.76C832.93 320.213 831.97 320.44 830.85 320.44C829.357 320.44 828.117 320.087 827.13 319.38C826.143 318.687 825.583 317.74 825.45 316.54H827.71C827.883 317.113 828.25 317.573 828.81 317.92C829.383 318.28 830.063 318.46 830.85 318.46C831.77 318.46 832.51 318.18 833.07 317.62C833.643 317.06 833.93 316.247 833.93 315.18V313.34C833.543 313.86 833.017 314.3 832.35 314.66C831.697 315.007 830.95 315.18 830.11 315.18C829.15 315.18 828.27 314.94 827.47 314.46C826.683 313.967 826.057 313.287 825.59 312.42C825.137 311.54 824.91 310.547 824.91 309.44C824.91 308.333 825.137 307.353 825.59 306.5C826.057 305.647 826.683 304.987 827.47 304.52C828.27 304.04 829.15 303.8 830.11 303.8ZM833.93 309.48C833.93 308.72 833.77 308.06 833.45 307.5C833.143 306.94 832.737 306.513 832.23 306.22C831.723 305.927 831.177 305.78 830.59 305.78C830.003 305.78 829.457 305.927 828.95 306.22C828.443 306.5 828.03 306.92 827.71 307.48C827.403 308.027 827.25 308.68 827.25 309.44C827.25 310.2 827.403 310.867 827.71 311.44C828.03 312.013 828.443 312.453 828.95 312.76C829.47 313.053 830.017 313.2 830.59 313.2C831.177 313.2 831.723 313.053 832.23 312.76C832.737 312.467 833.143 312.04 833.45 311.48C833.77 310.907 833.93 310.24 833.93 309.48ZM844.785 303.8C845.651 303.8 846.425 303.98 847.105 304.34C847.798 304.7 848.338 305.233 848.725 305.94C849.111 306.647 849.305 307.5 849.305 308.5V315H847.045V308.84C847.045 307.853 846.798 307.1 846.305 306.58C845.811 306.047 845.138 305.78 844.285 305.78C843.431 305.78 842.751 306.047 842.245 306.58C841.751 307.1 841.505 307.853 841.505 308.84V315H839.225V303.98H841.505V305.24C841.878 304.787 842.351 304.433 842.925 304.18C843.511 303.927 844.131 303.8 844.785 303.8Z" fill="black"/>
<path d="M1243.02 71.3V66.9H1245.34C1247.04 66.9 1247.77 67.75 1247.77 69.1C1247.77 70.45 1247.04 71.3 1245.34 71.3H1243.02ZM1252.12 69.1C1252.12 65.875 1249.97 63.45 1245.67 63.45H1238.74V81H1243.02V74.7H1245.67C1250.14 74.7 1252.12 72 1252.12 69.1ZM1258.62 74.525C1258.62 72.125 1259.79 71.425 1261.82 71.425H1262.99V66.9C1261.12 66.9 1259.59 67.9 1258.62 69.375V67.05H1254.34V81H1258.62V74.525ZM1278.69 74.025C1278.69 69.6 1275.54 66.85 1271.44 66.85C1267.36 66.85 1264.19 69.6 1264.19 74.025C1264.19 78.45 1267.29 81.2 1271.39 81.2C1275.49 81.2 1278.69 78.45 1278.69 74.025ZM1268.54 74.025C1268.54 71.65 1269.89 70.55 1271.44 70.55C1272.94 70.55 1274.34 71.65 1274.34 74.025C1274.34 76.375 1272.91 77.5 1271.39 77.5C1269.84 77.5 1268.54 76.375 1268.54 74.025ZM1281.63 76.15C1281.63 79.775 1283.66 81 1286.56 81H1288.73V77.375H1287.21C1286.26 77.375 1285.91 77.025 1285.91 76.2V70.6H1288.71V67.05H1285.91V63.65H1281.63V67.05H1279.93V70.6H1281.63V76.15ZM1304.76 74.025C1304.76 69.6 1301.61 66.85 1297.51 66.85C1293.44 66.85 1290.26 69.6 1290.26 74.025C1290.26 78.45 1293.36 81.2 1297.46 81.2C1301.56 81.2 1304.76 78.45 1304.76 74.025ZM1294.61 74.025C1294.61 71.65 1295.96 70.55 1297.51 70.55C1299.01 70.55 1300.41 71.65 1300.41 74.025C1300.41 76.375 1298.99 77.5 1297.46 77.5C1295.91 77.5 1294.61 76.375 1294.61 74.025ZM1307.71 76.15C1307.71 79.775 1309.73 81 1312.63 81H1314.81V77.375H1313.28C1312.33 77.375 1311.98 77.025 1311.98 76.2V70.6H1314.78V67.05H1311.98V63.65H1307.71V67.05H1306.01V70.6H1307.71V76.15ZM1323.61 75.775L1320.39 67.05H1315.61L1321.29 80.525L1318.09 87.625H1322.69L1331.44 67.05H1326.81L1323.61 75.775ZM1337.26 69.025V67.05H1332.98V87.65H1337.26V79.05C1338.03 80.225 1339.51 81.2 1341.56 81.2C1344.98 81.2 1347.71 78.4 1347.71 74C1347.71 69.6 1344.98 66.85 1341.56 66.85C1339.51 66.85 1338.03 67.8 1337.26 69.025ZM1343.36 74C1343.36 76.225 1341.91 77.475 1340.28 77.475C1338.68 77.475 1337.23 76.25 1337.23 74.025C1337.23 71.8 1338.68 70.575 1340.28 70.575C1341.91 70.575 1343.36 71.775 1343.36 74ZM1356.1 70.275C1357.53 70.275 1358.73 71.15 1358.73 72.675H1353.38C1353.63 71.125 1354.7 70.275 1356.1 70.275ZM1362.78 76.375H1358.23C1357.88 77.125 1357.2 77.725 1356 77.725C1354.63 77.725 1353.5 76.875 1353.35 75.05H1363.03C1363.08 74.625 1363.1 74.2 1363.1 73.8C1363.1 69.55 1360.23 66.85 1356.15 66.85C1352 66.85 1349.1 69.6 1349.1 74.025C1349.1 78.45 1352.05 81.2 1356.15 81.2C1359.63 81.2 1362.1 79.1 1362.78 76.375Z" fill="black"/>
<defs>
<filter id="filter0_d_20_2" x="0" y="0" width="410" height="144" filterUnits="userSpaceOnUse" color-interpolation-filters="sRGB">
<feFlood flood-opacity="0" result="BackgroundImageFix"/>
<feColorMatrix in="SourceAlpha" type="matrix" values="0 0 0 0 0 0 0 0 0 0 0 0 0 0 0 0 0 0 127 0" result="hardAlpha"/>
<feOffset dy="4"/>
<feGaussianBlur stdDeviation="2"/>
<feComposite in2="hardAlpha" operator="out"/>
<feColorMatrix type="matrix" values="0 0 0 0 0 0 0 0 0 0 0 0 0 0 0 0 0 0 0.25 0"/>
<feBlend mode="normal" in2="BackgroundImageFix" result="effect1_dropShadow_20_2"/>
<feBlend mode="normal" in="SourceGraphic" in2="effect1_dropShadow_20_2" result="shape"/>
</filter>
<filter id="filter1_d_20_2" x="548" y="0" width="410" height="144" filterUnits="userSpaceOnUse" color-interpolation-filters="sRGB">
<feFlood flood-opacity="0" result="BackgroundImageFix"/>
<feColorMatrix in="SourceAlpha" type="matrix" values="0 0 0 0 0 0 0 0 0 0 0 0 0 0 0 0 0 0 127 0" result="hardAlpha"/>
<feOffset dy="4"/>
<feGaussianBlur stdDeviation="2"/>
<feComposite in2="hardAlpha" operator="out"/>
<feColorMatrix type="matrix" values="0 0 0 0 0 0 0 0 0 0 0 0 0 0 0 0 0 0 0.25 0"/>
<feBlend mode="normal" in2="BackgroundImageFix" result="effect1_dropShadow_20_2"/>
<feBlend mode="normal" in="SourceGraphic" in2="effect1_dropShadow_20_2" result="shape"/>
</filter>
<filter id="filter2_d_20_2" x="1096" y="0" width="410" height="144" filterUnits="userSpaceOnUse" color-interpolation-filters="sRGB">
<feFlood flood-opacity="0" result="BackgroundImageFix"/>
<feColorMatrix in="SourceAlpha" type="matrix" values="0 0 0 0 0 0 0 0 0 0 0 0 0 0 0 0 0 0 127 0" result="hardAlpha"/>
<feOffset dy="4"/>
<feGaussianBlur stdDeviation="2"/>
<feComposite in2="hardAlpha" operator="out"/>
<feColorMatrix type="matrix" values="0 0 0 0 0 0 0 0 0 0 0 0 0 0 0 0 0 0 0.25 0"/>
<feBlend mode="normal" in2="BackgroundImageFix" result="effect1_dropShadow_20_2"/>
<feBlend mode="normal" in="SourceGraphic" in2="effect1_dropShadow_20_2" result="shape"/>
</filter>
</defs>
</svg>
