<svg width="1975" height="2474" viewBox="0 0 1975 2474" fill="none" xmlns="http://www.w3.org/2000/svg">
<rect width="1975" height="2438" rx="20" fill="white"/>
<path d="M637.6 378.6C637.6 420.6 666.8 450 708.2 450C741.6 450 766.8 431.4 774.8 401H737.2C731.4 413 720.8 419 707.8 419C686.8 419 672.4 403.4 672.4 378.6C672.4 353.8 686.8 338.2 707.8 338.2C720.8 338.2 731.4 344.2 737.2 356.2H774.8C766.8 325.8 741.6 307 708.2 307C666.8 307 637.6 336.6 637.6 378.6ZM904.944 393.2C904.944 357.8 879.744 335.8 846.944 335.8C814.344 335.8 788.944 357.8 788.944 393.2C788.944 428.6 813.744 450.6 846.544 450.6C879.344 450.6 904.944 428.6 904.944 393.2ZM823.744 393.2C823.744 374.2 834.544 365.4 846.944 365.4C858.944 365.4 870.144 374.2 870.144 393.2C870.144 412 858.744 421 846.544 421C834.144 421 823.744 412 823.744 393.2ZM916.288 393C916.288 428.2 938.088 450.6 965.488 450.6C981.888 450.6 993.688 443.2 999.888 433V449H1034.09V301H999.888V352.8C993.088 342.6 980.288 335.8 965.488 335.8C938.088 335.8 916.288 357.8 916.288 393ZM999.888 393.2C999.888 411 988.488 420.8 975.488 420.8C962.688 420.8 951.088 410.8 951.088 393C951.088 375.2 962.688 365.6 975.488 365.6C988.488 365.6 999.888 375.4 999.888 393.2ZM1058.83 449H1093.03V337.4H1058.83V449ZM1076.03 325.8C1088.03 325.8 1096.23 317.6 1096.23 307.4C1096.23 297 1088.03 288.8 1076.03 288.8C1063.83 288.8 1055.63 297 1055.63 307.4C1055.63 317.6 1063.83 325.8 1076.03 325.8ZM1194.81 449H1228.81V383.8C1228.81 353.8 1211.61 336.2 1185.81 336.2C1170.81 336.2 1158.81 342.8 1152.01 352.2V337.4H1117.81V449H1152.01V388.4C1152.01 373.2 1160.41 364.8 1173.41 364.8C1186.41 364.8 1194.81 373.2 1194.81 388.4V449ZM1245.78 393C1245.78 428.2 1267.58 450.6 1294.98 450.6C1311.38 450.6 1323.18 442.8 1329.38 433V448.8C1329.38 467.6 1319.18 474.4 1306.18 474.4C1294.38 474.4 1285.98 469 1283.78 460.6H1249.98C1252.98 487.2 1274.58 504 1307.78 504C1346.38 504 1363.58 478.6 1363.58 448.8V337.4H1329.38V353.2C1323.38 343.2 1311.38 335.8 1294.98 335.8C1267.58 335.8 1245.78 357.8 1245.78 393ZM1329.38 393.2C1329.38 411 1317.98 420.8 1304.98 420.8C1292.18 420.8 1280.58 410.8 1280.58 393C1280.58 375.2 1292.18 365.6 1304.98 365.6C1317.98 365.6 1329.38 375.4 1329.38 393.2Z" fill="black"/>
<path d="M383.561 1640H395.391V1549.39H383.561V1640ZM445.791 1604.12C445.791 1626.22 460.481 1641.17 479.461 1641.17C492.591 1641.17 501.821 1634.41 506.111 1626.74V1640H518.071V1568.76H506.111V1581.76C501.951 1574.35 492.851 1567.59 479.591 1567.59C460.481 1567.59 445.791 1581.89 445.791 1604.12ZM506.111 1604.25C506.111 1621.02 494.931 1630.77 481.931 1630.77C468.931 1630.77 457.881 1620.89 457.881 1604.12C457.881 1587.35 468.931 1577.86 481.931 1577.86C494.931 1577.86 506.111 1587.74 506.111 1604.25ZM640.893 1640H652.593V1598.01C652.593 1577.6 639.983 1567.46 623.733 1567.46C612.813 1567.46 602.673 1573.05 598.513 1583.32C593.833 1572.66 584.083 1567.46 572.383 1567.46C563.023 1567.46 554.573 1571.49 549.893 1579.03V1568.76H538.063V1640H549.893V1600.74C549.893 1585.4 558.083 1577.73 570.043 1577.73C581.743 1577.73 589.543 1585.14 589.543 1599.7V1640H601.243V1600.74C601.243 1585.4 609.433 1577.73 621.393 1577.73C633.093 1577.73 640.893 1585.14 640.893 1599.7V1640ZM757.876 1620.63C757.356 1595.15 716.016 1604.38 716.016 1587.48C716.016 1581.76 721.216 1577.6 729.926 1577.6C739.416 1577.6 744.876 1582.8 745.396 1589.95H757.226C756.446 1576.04 746.046 1567.59 730.316 1567.59C714.456 1567.59 704.186 1576.56 704.186 1587.48C704.186 1614 746.306 1604.77 746.306 1620.63C746.306 1626.48 741.106 1631.16 731.746 1631.16C721.736 1631.16 715.626 1625.96 714.976 1619.07H702.756C703.536 1632.07 715.236 1641.17 731.876 1641.17C747.606 1641.17 757.876 1632.33 757.876 1620.63ZM774.576 1640H786.406V1608.54L814.356 1640H830.476L796.806 1604.25L830.346 1568.76H813.836L786.406 1600.35V1543.8H774.576V1640ZM841.481 1640H853.311V1568.76H841.481V1640ZM847.591 1557.19C851.881 1557.19 855.391 1553.68 855.391 1549.13C855.391 1544.58 851.881 1541.07 847.591 1541.07C843.041 1541.07 839.531 1544.58 839.531 1549.13C839.531 1553.68 843.041 1557.19 847.591 1557.19ZM873.473 1640H885.303V1543.8H873.473V1640ZM905.465 1640H917.295V1543.8H905.465V1640ZM967.747 1577.6C979.967 1577.6 990.367 1585.27 990.237 1599.18H945.257C946.557 1585.27 956.177 1577.6 967.747 1577.6ZM1001.03 1618.03H988.287C985.687 1625.7 978.927 1631.16 968.267 1631.16C956.177 1631.16 946.037 1623.23 945.127 1608.8H1002.07C1002.33 1606.33 1002.46 1604.25 1002.46 1601.65C1002.46 1582.15 988.937 1567.59 968.267 1567.59C947.467 1567.59 933.037 1581.76 933.037 1604.25C933.037 1626.87 947.987 1641.17 968.267 1641.17C985.947 1641.17 997.387 1631.03 1001.03 1618.03ZM1013.65 1604.12C1013.65 1626.22 1028.34 1641.17 1047.45 1641.17C1060.45 1641.17 1069.68 1634.54 1073.97 1626.61V1640H1085.93V1543.8H1073.97V1581.5C1069.03 1573.31 1058.76 1567.59 1047.58 1567.59C1028.34 1567.59 1013.65 1581.89 1013.65 1604.12ZM1073.97 1604.25C1073.97 1621.02 1062.79 1630.77 1049.79 1630.77C1036.79 1630.77 1025.74 1620.89 1025.74 1604.12C1025.74 1587.35 1036.79 1577.86 1049.79 1577.86C1062.79 1577.86 1073.97 1587.74 1073.97 1604.25ZM1140.58 1640H1152.41V1568.76H1140.58V1640ZM1146.69 1557.19C1150.98 1557.19 1154.49 1553.68 1154.49 1549.13C1154.49 1544.58 1150.98 1541.07 1146.69 1541.07C1142.14 1541.07 1138.63 1544.58 1138.63 1549.13C1138.63 1553.68 1142.14 1557.19 1146.69 1557.19ZM1224.7 1640H1236.4V1598.01C1236.4 1577.6 1223.79 1567.46 1207.28 1567.46C1197.66 1567.46 1189.08 1571.49 1184.4 1578.9V1568.76H1172.57V1640H1184.4V1600.61C1184.4 1585.27 1192.72 1577.73 1204.81 1577.73C1216.77 1577.73 1224.7 1585.14 1224.7 1599.7V1640ZM1348.37 1640H1360.2V1549.39H1348.37V1589.17H1302.22V1549.39H1290.39V1640H1302.22V1598.92H1348.37V1640ZM1374.68 1559.01H1399.51V1640H1411.34V1559.01H1436.04V1549.39H1374.68V1559.01ZM1450.6 1640H1462.43V1572.79L1492.46 1640H1500.78L1530.68 1572.92V1640H1542.51V1550.04H1529.9L1496.62 1624.4L1463.34 1550.04H1450.6V1640ZM1562.57 1549.39V1640H1606.12V1630.38H1574.4V1549.39H1562.57ZM1608.42 1658.59H1616.35L1630.91 1623.62H1617.91L1608.42 1658.59ZM384.409 1789.63C384.409 1816.8 404.299 1835.78 429.649 1835.78C449.279 1835.78 464.879 1826.03 471.639 1808.61H457.469C452.529 1819.4 442.909 1825.51 429.649 1825.51C410.669 1825.51 396.499 1811.73 396.499 1789.63C396.499 1767.4 410.669 1753.62 429.649 1753.62C442.909 1753.62 452.529 1759.73 457.469 1770.65H471.639C464.879 1753.1 449.279 1743.22 429.649 1743.22C404.299 1743.22 384.409 1762.46 384.409 1789.63ZM548.139 1810.3C548.139 1776.76 499.259 1791.32 499.259 1767.92C499.259 1758.17 506.929 1753.1 516.679 1753.36C527.729 1753.49 533.449 1760.38 534.229 1766.49H547.229C545.799 1752.71 534.489 1743.22 517.199 1743.22C499.259 1743.22 487.169 1753.36 487.169 1768.31C487.169 1801.98 536.179 1786.38 536.179 1810.82C536.179 1819.4 529.419 1825.9 517.979 1825.9C505.369 1825.9 500.039 1818.36 499.259 1810.82H486.649C486.909 1825.77 499.779 1835.91 517.979 1835.91C537.609 1835.91 548.139 1823.17 548.139 1810.3ZM624.438 1810.3C624.438 1776.76 575.558 1791.32 575.558 1767.92C575.558 1758.17 583.228 1753.1 592.978 1753.36C604.028 1753.49 609.748 1760.38 610.528 1766.49H623.528C622.098 1752.71 610.788 1743.22 593.498 1743.22C575.558 1743.22 563.468 1753.36 563.468 1768.31C563.468 1801.98 612.478 1786.38 612.478 1810.82C612.478 1819.4 605.718 1825.9 594.278 1825.9C581.668 1825.9 576.338 1818.36 575.558 1810.82H562.948C563.208 1825.77 576.078 1835.91 594.278 1835.91C613.908 1835.91 624.438 1823.17 624.438 1810.3ZM631.577 1853.59H639.507L654.067 1818.62H641.067L631.577 1853.59ZM697.857 1799.12C697.857 1821.22 712.547 1836.17 731.527 1836.17C744.657 1836.17 753.887 1829.41 758.177 1821.74V1835H770.137V1763.76H758.177V1776.76C754.017 1769.35 744.917 1762.59 731.657 1762.59C712.547 1762.59 697.857 1776.89 697.857 1799.12ZM758.177 1799.25C758.177 1816.02 746.997 1825.77 733.997 1825.77C720.997 1825.77 709.947 1815.89 709.947 1799.12C709.947 1782.35 720.997 1772.86 733.997 1772.86C746.997 1772.86 758.177 1782.74 758.177 1799.25ZM842.258 1835H853.958V1793.01C853.958 1772.6 841.348 1762.46 824.838 1762.46C815.218 1762.46 806.638 1766.49 801.958 1773.9V1763.76H790.128V1835H801.958V1795.61C801.958 1780.27 810.278 1772.73 822.368 1772.73C834.328 1772.73 842.258 1780.14 842.258 1794.7V1835ZM868.862 1799.12C868.862 1821.22 883.552 1836.17 902.662 1836.17C915.662 1836.17 924.892 1829.54 929.182 1821.61V1835H941.142V1738.8H929.182V1776.5C924.242 1768.31 913.972 1762.59 902.792 1762.59C883.552 1762.59 868.862 1776.89 868.862 1799.12ZM929.182 1799.25C929.182 1816.02 918.002 1825.77 905.002 1825.77C892.002 1825.77 880.952 1815.89 880.952 1799.12C880.952 1782.35 892.002 1772.86 905.002 1772.86C918.002 1772.86 929.182 1782.74 929.182 1799.25ZM1002.16 1752.19C1006.58 1752.19 1010.09 1748.68 1010.09 1744.13C1010.09 1739.58 1006.58 1736.07 1002.16 1736.07C997.742 1736.07 994.232 1739.58 994.232 1744.13C994.232 1748.68 997.742 1752.19 1002.16 1752.19ZM996.182 1763.76V1850.21C996.182 1856.45 993.712 1858.79 987.212 1858.79H982.272V1868.8H989.162C1001.25 1868.8 1008.01 1863.34 1008.01 1850.47V1763.76H996.182ZM1023.62 1799.12C1023.62 1821.22 1038.31 1836.17 1057.29 1836.17C1070.42 1836.17 1079.65 1829.41 1083.94 1821.74V1835H1095.9V1763.76H1083.94V1776.76C1079.78 1769.35 1070.68 1762.59 1057.42 1762.59C1038.31 1762.59 1023.62 1776.89 1023.62 1799.12ZM1083.94 1799.25C1083.94 1816.02 1072.76 1825.77 1059.76 1825.77C1046.76 1825.77 1035.71 1815.89 1035.71 1799.12C1035.71 1782.35 1046.76 1772.86 1059.76 1772.86C1072.76 1772.86 1083.94 1782.74 1083.94 1799.25ZM1107.44 1763.76L1135.39 1835H1149.17L1177.12 1763.76H1164.51L1142.41 1824.08L1120.18 1763.76H1107.44ZM1184.34 1799.12C1184.34 1821.22 1199.03 1836.17 1218.01 1836.17C1231.14 1836.17 1240.37 1829.41 1244.66 1821.74V1835H1256.62V1763.76H1244.66V1776.76C1240.5 1769.35 1231.4 1762.59 1218.14 1762.59C1199.03 1762.59 1184.34 1776.89 1184.34 1799.12ZM1244.66 1799.25C1244.66 1816.02 1233.48 1825.77 1220.48 1825.77C1207.48 1825.77 1196.43 1815.89 1196.43 1799.12C1196.43 1782.35 1207.48 1772.86 1220.48 1772.86C1233.48 1772.86 1244.66 1782.74 1244.66 1799.25ZM1327.83 1815.63C1327.31 1790.15 1285.97 1799.38 1285.97 1782.48C1285.97 1776.76 1291.17 1772.6 1299.88 1772.6C1309.37 1772.6 1314.83 1777.8 1315.35 1784.95H1327.18C1326.4 1771.04 1316 1762.59 1300.27 1762.59C1284.41 1762.59 1274.14 1771.56 1274.14 1782.48C1274.14 1809 1316.26 1799.77 1316.26 1815.63C1316.26 1821.48 1311.06 1826.16 1301.7 1826.16C1291.69 1826.16 1285.58 1820.96 1284.93 1814.07H1272.71C1273.49 1827.07 1285.19 1836.17 1301.83 1836.17C1317.56 1836.17 1327.83 1827.33 1327.83 1815.63ZM1340.11 1799.25C1340.11 1821.87 1354.54 1836.17 1374.82 1836.17C1392.5 1836.17 1404.07 1826.29 1407.71 1812.12H1394.97C1392.37 1821.09 1385.35 1826.16 1374.82 1826.16C1361.82 1826.16 1352.2 1816.93 1352.2 1799.25C1352.2 1781.83 1361.82 1772.6 1374.82 1772.6C1385.35 1772.6 1392.5 1778.06 1394.97 1786.64H1407.71C1404.07 1771.69 1392.5 1762.59 1374.82 1762.59C1354.54 1762.59 1340.11 1776.89 1340.11 1799.25ZM1435.33 1796.26C1435.33 1779.75 1443.91 1774.68 1455.22 1774.68H1458.34V1762.46C1447.03 1762.46 1439.36 1767.4 1435.33 1775.33V1763.76H1423.5V1835H1435.33V1796.26ZM1471.99 1835H1483.82V1763.76H1471.99V1835ZM1478.1 1752.19C1482.39 1752.19 1485.9 1748.68 1485.9 1744.13C1485.9 1739.58 1482.39 1736.07 1478.1 1736.07C1473.55 1736.07 1470.04 1739.58 1470.04 1744.13C1470.04 1748.68 1473.55 1752.19 1478.1 1752.19ZM1515.82 1776.89V1763.76H1503.99V1868.8H1515.82V1821.87C1520.24 1829.15 1529.47 1836.17 1542.47 1836.17C1561.58 1836.17 1576.27 1821.22 1576.27 1799.12C1576.27 1776.89 1561.58 1762.59 1542.47 1762.59C1529.47 1762.59 1520.11 1769.35 1515.82 1776.89ZM1564.18 1799.12C1564.18 1815.89 1553.13 1825.77 1540 1825.77C1527.13 1825.77 1515.82 1816.02 1515.82 1799.25C1515.82 1782.74 1527.13 1772.86 1540 1772.86C1553.13 1772.86 1564.18 1782.35 1564.18 1799.12ZM1594.44 1815.5C1594.44 1829.8 1601.59 1835 1614.2 1835H1624.86V1824.99H1616.15C1608.87 1824.99 1606.27 1822.52 1606.27 1815.5V1773.51H1624.86V1763.76H1606.27V1745.82H1594.44V1763.76H1585.21V1773.51H1594.44V1815.5ZM311.348 1994.12C311.348 2016.22 326.038 2031.17 345.018 2031.17C358.148 2031.17 367.378 2024.41 371.668 2016.74V2030H383.628V1958.76H371.668V1971.76C367.508 1964.35 358.408 1957.59 345.148 1957.59C326.038 1957.59 311.348 1971.89 311.348 1994.12ZM371.668 1994.25C371.668 2011.02 360.488 2020.77 347.488 2020.77C334.488 2020.77 323.438 2010.89 323.438 1994.12C323.438 1977.35 334.488 1967.86 347.488 1967.86C360.488 1967.86 371.668 1977.74 371.668 1994.25ZM455.749 2030H467.449V1988.01C467.449 1967.6 454.839 1957.46 438.329 1957.46C428.709 1957.46 420.129 1961.49 415.449 1968.9V1958.76H403.619V2030H415.449V1990.61C415.449 1975.27 423.769 1967.73 435.859 1967.73C447.819 1967.73 455.749 1975.14 455.749 1989.7V2030ZM482.354 1994.12C482.354 2016.22 497.044 2031.17 516.154 2031.17C529.154 2031.17 538.384 2024.54 542.674 2016.61V2030H554.634V1933.8H542.674V1971.5C537.734 1963.31 527.464 1957.59 516.284 1957.59C497.044 1957.59 482.354 1971.89 482.354 1994.12ZM542.674 1994.25C542.674 2011.02 531.494 2020.77 518.494 2020.77C505.494 2020.77 494.444 2010.89 494.444 1994.12C494.444 1977.35 505.494 1967.86 518.494 1967.86C531.494 1967.86 542.674 1977.74 542.674 1994.25ZM676.883 1994.25C676.883 1971.76 661.153 1957.59 640.873 1957.59C620.723 1957.59 604.863 1971.76 604.863 1994.25C604.863 2016.87 620.203 2031.17 640.353 2031.17C660.633 2031.17 676.883 2016.87 676.883 1994.25ZM616.953 1994.25C616.953 1976.31 628.263 1967.86 640.743 1967.86C652.963 1967.86 664.793 1976.31 664.793 1994.25C664.793 2012.32 652.703 2020.77 640.353 2020.77C628.003 2020.77 616.953 2012.32 616.953 1994.25ZM695.038 2010.5C695.038 2024.8 702.188 2030 714.798 2030H725.458V2019.99H716.748C709.468 2019.99 706.868 2017.52 706.868 2010.5V1968.51H725.458V1958.76H706.868V1940.82H695.038V1958.76H685.808V1968.51H695.038V2010.5ZM739.791 2030H751.621V1990.61C751.621 1975.27 759.941 1967.73 772.031 1967.73C783.991 1967.73 791.921 1975.14 791.921 1989.7V2030H803.621V1988.01C803.621 1967.6 791.011 1957.46 775.151 1957.46C765.141 1957.46 756.301 1961.49 751.621 1969.03V1933.8H739.791V2030ZM853.236 1967.6C865.456 1967.6 875.856 1975.27 875.726 1989.18H830.746C832.046 1975.27 841.666 1967.6 853.236 1967.6ZM886.516 2008.03H873.776C871.176 2015.7 864.416 2021.16 853.756 2021.16C841.666 2021.16 831.526 2013.23 830.616 1998.8H887.556C887.816 1996.33 887.946 1994.25 887.946 1991.65C887.946 1972.15 874.426 1957.59 853.756 1957.59C832.956 1957.59 818.526 1971.76 818.526 1994.25C818.526 2016.87 833.476 2031.17 853.756 2031.17C871.436 2031.17 882.876 2021.03 886.516 2008.03ZM915.391 1991.26C915.391 1974.75 923.971 1969.68 935.281 1969.68H938.401V1957.46C927.091 1957.46 919.421 1962.4 915.391 1970.33V1958.76H903.561V2030H915.391V1991.26ZM986.715 2030H998.545V1933.8H986.715V2030ZM1014.29 1994.12C1014.29 2016.22 1028.98 2031.17 1047.96 2031.17C1061.09 2031.17 1070.32 2024.41 1074.61 2016.74V2030H1086.57V1958.76H1074.61V1971.76C1070.45 1964.35 1061.35 1957.59 1048.09 1957.59C1028.98 1957.59 1014.29 1971.89 1014.29 1994.12ZM1074.61 1994.25C1074.61 2011.02 1063.43 2020.77 1050.43 2020.77C1037.43 2020.77 1026.38 2010.89 1026.38 1994.12C1026.38 1977.35 1037.43 1967.86 1050.43 1967.86C1063.43 1967.86 1074.61 1977.74 1074.61 1994.25ZM1158.69 2030H1170.39V1988.01C1170.39 1967.6 1157.78 1957.46 1141.27 1957.46C1131.65 1957.46 1123.07 1961.49 1118.39 1968.9V1958.76H1106.56V2030H1118.39V1990.61C1118.39 1975.27 1126.71 1967.73 1138.8 1967.73C1150.76 1967.73 1158.69 1975.14 1158.69 1989.7V2030ZM1185.29 1994.12C1185.29 2016.22 1199.98 2031.17 1219.09 2031.17C1232.09 2031.17 1241.32 2024.28 1245.61 2016.61V2031.56C1245.61 2046.77 1236.12 2054.83 1223.51 2054.83C1211.81 2054.83 1203.36 2048.98 1200.76 2040.4H1189.06C1191.4 2055.61 1204.79 2065.1 1223.51 2065.1C1244.44 2065.1 1257.57 2051.19 1257.57 2031.56V1958.76H1245.61V1971.76C1241.45 1964.09 1232.09 1957.59 1219.09 1957.59C1199.98 1957.59 1185.29 1971.89 1185.29 1994.12ZM1245.61 1994.25C1245.61 2011.02 1234.43 2020.77 1221.43 2020.77C1208.43 2020.77 1197.38 2010.89 1197.38 1994.12C1197.38 1977.35 1208.43 1967.86 1221.43 1967.86C1234.43 1967.86 1245.61 1977.74 1245.61 1994.25ZM1340.74 1958.76H1328.91V1997.89C1328.91 2013.23 1320.72 2020.77 1308.5 2020.77C1296.54 2020.77 1288.61 2013.36 1288.61 1998.93V1958.76H1276.91V2000.49C1276.91 2020.9 1289.78 2031.04 1306.16 2031.04C1315.65 2031.04 1324.36 2026.88 1328.91 2019.47V2030H1340.74V1958.76ZM1356.3 1994.12C1356.3 2016.22 1370.99 2031.17 1389.97 2031.17C1403.1 2031.17 1412.33 2024.41 1416.62 2016.74V2030H1428.58V1958.76H1416.62V1971.76C1412.46 1964.35 1403.36 1957.59 1390.1 1957.59C1370.99 1957.59 1356.3 1971.89 1356.3 1994.12ZM1416.62 1994.25C1416.62 2011.02 1405.44 2020.77 1392.44 2020.77C1379.44 2020.77 1368.39 2010.89 1368.39 1994.12C1368.39 1977.35 1379.44 1967.86 1392.44 1967.86C1405.44 1967.86 1416.62 1977.74 1416.62 1994.25ZM1444.15 1994.12C1444.15 2016.22 1458.84 2031.17 1477.95 2031.17C1490.95 2031.17 1500.18 2024.28 1504.47 2016.61V2031.56C1504.47 2046.77 1494.98 2054.83 1482.37 2054.83C1470.67 2054.83 1462.22 2048.98 1459.62 2040.4H1447.92C1450.26 2055.61 1463.65 2065.1 1482.37 2065.1C1503.3 2065.1 1516.43 2051.19 1516.43 2031.56V1958.76H1504.47V1971.76C1500.31 1964.09 1490.95 1957.59 1477.95 1957.59C1458.84 1957.59 1444.15 1971.89 1444.15 1994.12ZM1504.47 1994.25C1504.47 2011.02 1493.29 2020.77 1480.29 2020.77C1467.29 2020.77 1456.24 2010.89 1456.24 1994.12C1456.24 1977.35 1467.29 1967.86 1480.29 1967.86C1493.29 1967.86 1504.47 1977.74 1504.47 1994.25ZM1566.71 1967.6C1578.93 1967.6 1589.33 1975.27 1589.2 1989.18H1544.22C1545.52 1975.27 1555.14 1967.6 1566.71 1967.6ZM1599.99 2008.03H1587.25C1584.65 2015.7 1577.89 2021.16 1567.23 2021.16C1555.14 2021.16 1545 2013.23 1544.09 1998.8H1601.03C1601.29 1996.33 1601.42 1994.25 1601.42 1991.65C1601.42 1972.15 1587.9 1957.59 1567.23 1957.59C1546.43 1957.59 1532 1971.76 1532 1994.25C1532 2016.87 1546.95 2031.17 1567.23 2031.17C1584.91 2031.17 1596.35 2021.03 1599.99 2008.03ZM1668.26 2010.63C1667.74 1985.15 1626.4 1994.38 1626.4 1977.48C1626.4 1971.76 1631.6 1967.6 1640.31 1967.6C1649.8 1967.6 1655.26 1972.8 1655.78 1979.95H1667.61C1666.83 1966.04 1656.43 1957.59 1640.7 1957.59C1624.84 1957.59 1614.57 1966.56 1614.57 1977.48C1614.57 2004 1656.69 1994.77 1656.69 2010.63C1656.69 2016.48 1651.49 2021.16 1642.13 2021.16C1632.12 2021.16 1626.01 2015.96 1625.36 2009.07H1613.14C1613.92 2022.07 1625.62 2031.17 1642.26 2031.17C1657.99 2031.17 1668.26 2022.33 1668.26 2010.63ZM1696.53 2022.72C1696.53 2018.17 1693.02 2014.66 1688.73 2014.66C1684.18 2014.66 1680.67 2018.17 1680.67 2022.72C1680.67 2027.27 1684.18 2030.78 1688.73 2030.78C1693.02 2030.78 1696.53 2027.27 1696.53 2022.72Z" fill="black"/>
<path d="M759 899C759 885.209 765.453 871.982 776.94 862.23C788.426 852.479 804.005 847 820.25 847H1187.75C1203.99 847 1219.57 852.479 1231.06 862.23C1242.55 871.982 1249 885.209 1249 899V1029C1249 1042.79 1242.55 1056.02 1231.06 1065.77C1219.57 1075.52 1203.99 1081 1187.75 1081H820.25C804.005 1081 788.426 1075.52 776.94 1065.77C765.453 1056.02 759 1042.79 759 1029V899ZM1157.12 905.5V918.5C1157.12 922.088 1160.56 925 1164.78 925H1180.09C1182.12 925 1184.07 924.315 1185.51 923.096C1186.94 921.877 1187.75 920.224 1187.75 918.5V905.5C1187.75 903.776 1186.94 902.123 1185.51 900.904C1184.07 899.685 1182.12 899 1180.09 899H1164.78C1162.75 899 1160.8 899.685 1159.37 900.904C1157.93 902.123 1157.12 903.776 1157.12 905.5ZM827.906 951C825.876 951 823.928 951.685 822.492 952.904C821.057 954.123 820.25 955.776 820.25 957.5V970.5C820.25 974.088 823.68 977 827.906 977H843.219C845.249 977 847.197 976.315 848.633 975.096C850.068 973.877 850.875 972.224 850.875 970.5V957.5C850.875 955.776 850.068 954.123 848.633 952.904C847.197 951.685 845.249 951 843.219 951H827.906ZM881.5 957.5V970.5C881.5 974.088 884.93 977 889.156 977H904.469C906.499 977 908.447 976.315 909.883 975.096C911.318 973.877 912.125 972.224 912.125 970.5V957.5C912.125 955.776 911.318 954.123 909.883 952.904C908.447 951.685 906.499 951 904.469 951H889.156C887.126 951 885.178 951.685 883.742 952.904C882.307 954.123 881.5 955.776 881.5 957.5ZM950.406 951C948.376 951 946.428 951.685 944.992 952.904C943.557 954.123 942.75 955.776 942.75 957.5V970.5C942.75 974.088 946.18 977 950.406 977H965.719C967.749 977 969.697 976.315 971.133 975.096C972.568 973.877 973.375 972.224 973.375 970.5V957.5C973.375 955.776 972.568 954.123 971.133 952.904C969.697 951.685 967.749 951 965.719 951H950.406ZM1004 957.5V970.5C1004 974.088 1007.43 977 1011.66 977H1026.97C1029 977 1030.95 976.315 1032.38 975.096C1033.82 973.877 1034.62 972.224 1034.62 970.5V957.5C1034.62 955.776 1033.82 954.123 1032.38 952.904C1030.95 951.685 1029 951 1026.97 951H1011.66C1009.63 951 1007.68 951.685 1006.24 952.904C1004.81 954.123 1004 955.776 1004 957.5V957.5ZM1164.78 951C1162.75 951 1160.8 951.685 1159.37 952.904C1157.93 954.123 1157.12 955.776 1157.12 957.5V970.5C1157.12 974.088 1160.56 977 1164.78 977H1180.09C1182.12 977 1184.07 976.315 1185.51 975.096C1186.94 973.877 1187.75 972.224 1187.75 970.5V957.5C1187.75 955.776 1186.94 954.123 1185.51 952.904C1184.07 951.685 1182.12 951 1180.09 951H1164.78ZM1164.78 1003C1162.75 1003 1160.8 1003.68 1159.37 1004.9C1157.93 1006.12 1157.12 1007.78 1157.12 1009.5V1022.5C1157.12 1026.09 1160.56 1029 1164.78 1029H1180.09C1182.12 1029 1184.07 1028.32 1185.51 1027.1C1186.94 1025.88 1187.75 1024.22 1187.75 1022.5V1009.5C1187.75 1007.78 1186.94 1006.12 1185.51 1004.9C1184.07 1003.68 1182.12 1003 1180.09 1003H1164.78ZM1072.91 951C1070.88 951 1068.93 951.685 1067.49 952.904C1066.06 954.123 1065.25 955.776 1065.25 957.5V970.5C1065.25 974.088 1068.68 977 1072.91 977H1118.84C1120.87 977 1122.82 976.315 1124.26 975.096C1125.69 973.877 1126.5 972.224 1126.5 970.5V957.5C1126.5 955.776 1125.69 954.123 1124.26 952.904C1122.82 951.685 1120.87 951 1118.84 951H1072.91ZM1095.88 1009.5V1022.5C1095.88 1026.09 1099.31 1029 1103.53 1029H1118.84C1120.87 1029 1122.82 1028.32 1124.26 1027.1C1125.69 1025.88 1126.5 1024.22 1126.5 1022.5V1009.5C1126.5 1007.78 1125.69 1006.12 1124.26 1004.9C1122.82 1003.68 1120.87 1003 1118.84 1003H1103.53C1101.5 1003 1099.55 1003.68 1098.12 1004.9C1096.68 1006.12 1095.88 1007.78 1095.88 1009.5ZM1103.53 899C1101.5 899 1099.55 899.685 1098.12 900.904C1096.68 902.123 1095.88 903.776 1095.88 905.5V918.5C1095.88 922.088 1099.31 925 1103.53 925H1118.84C1120.87 925 1122.82 924.315 1124.26 923.096C1125.69 921.877 1126.5 920.224 1126.5 918.5V905.5C1126.5 903.776 1125.69 902.123 1124.26 900.904C1122.82 899.685 1120.87 899 1118.84 899H1103.53ZM1034.62 905.5V918.5C1034.62 922.088 1038.06 925 1042.28 925H1057.59C1059.62 925 1061.57 924.315 1063.01 923.096C1064.44 921.877 1065.25 920.224 1065.25 918.5V905.5C1065.25 903.776 1064.44 902.123 1063.01 900.904C1061.57 899.685 1059.62 899 1057.59 899H1042.28C1040.25 899 1038.3 899.685 1036.87 900.904C1035.43 902.123 1034.62 903.776 1034.62 905.5ZM981.031 899C979.001 899 977.053 899.685 975.617 900.904C974.182 902.123 973.375 903.776 973.375 905.5V918.5C973.375 922.088 976.805 925 981.031 925H996.344C998.374 925 1000.32 924.315 1001.76 923.096C1003.19 921.877 1004 920.224 1004 918.5V905.5C1004 903.776 1003.19 902.123 1001.76 900.904C1000.32 899.685 998.374 899 996.344 899H981.031ZM912.125 905.5V918.5C912.125 922.088 915.555 925 919.781 925H935.094C937.124 925 939.072 924.315 940.508 923.096C941.943 921.877 942.75 920.224 942.75 918.5V905.5C942.75 903.776 941.943 902.123 940.508 900.904C939.072 899.685 937.124 899 935.094 899H919.781C917.751 899 915.803 899.685 914.367 900.904C912.932 902.123 912.125 903.776 912.125 905.5ZM827.906 899C825.876 899 823.928 899.685 822.492 900.904C821.057 902.123 820.25 903.776 820.25 905.5V918.5C820.25 922.088 823.68 925 827.906 925H873.844C875.874 925 877.822 924.315 879.258 923.096C880.693 921.877 881.5 920.224 881.5 918.5V905.5C881.5 903.776 880.693 902.123 879.258 900.904C877.822 899.685 875.874 899 873.844 899H827.906ZM820.25 1009.5V1022.5C820.25 1026.09 823.68 1029 827.906 1029H843.219C845.249 1029 847.197 1028.32 848.633 1027.1C850.068 1025.88 850.875 1024.22 850.875 1022.5V1009.5C850.875 1007.78 850.068 1006.12 848.633 1004.9C847.197 1003.68 845.249 1003 843.219 1003H827.906C825.876 1003 823.928 1003.68 822.492 1004.9C821.057 1006.12 820.25 1007.78 820.25 1009.5ZM889.156 1003C887.126 1003 885.178 1003.68 883.742 1004.9C882.307 1006.12 881.5 1007.78 881.5 1009.5V1022.5C881.5 1026.09 884.93 1029 889.156 1029H1057.59C1059.62 1029 1061.57 1028.32 1063.01 1027.1C1064.44 1025.88 1065.25 1024.22 1065.25 1022.5V1009.5C1065.25 1007.78 1064.44 1006.12 1063.01 1004.9C1061.57 1003.68 1059.62 1003 1057.59 1003H889.156Z" fill="black"/>
</svg>
