<svg width="2038" height="2531" viewBox="0 0 2038 2531" fill="none" xmlns="http://www.w3.org/2000/svg">
<rect x="63" width="1975" height="2438" rx="20" fill="white"/>
<path d="M691.327 371.4V336.2H709.927C723.527 336.2 729.327 343 729.327 353.8C729.327 364.6 723.527 371.4 709.927 371.4H691.327ZM764.127 353.8C764.127 328 746.927 308.6 712.527 308.6H657.127V449H691.327V398.6H712.527C748.327 398.6 764.127 377 764.127 353.8ZM816.131 397.2C816.131 378 825.531 372.4 841.731 372.4H851.131V336.2C836.131 336.2 823.931 344.2 816.131 356V337.4H781.931V449H816.131V397.2ZM976.678 393.2C976.678 357.8 951.478 335.8 918.678 335.8C886.078 335.8 860.678 357.8 860.678 393.2C860.678 428.6 885.478 450.6 918.278 450.6C951.078 450.6 976.678 428.6 976.678 393.2ZM895.478 393.2C895.478 374.2 906.278 365.4 918.678 365.4C930.678 365.4 941.878 374.2 941.878 393.2C941.878 412 930.478 421 918.278 421C905.878 421 895.478 412 895.478 393.2ZM988.022 393C988.022 428.2 1009.82 450.6 1037.22 450.6C1053.62 450.6 1065.42 443.2 1071.62 433V449H1105.82V301H1071.62V352.8C1064.82 342.6 1052.02 335.8 1037.22 335.8C1009.82 335.8 988.022 357.8 988.022 393ZM1071.62 393.2C1071.62 411 1060.22 420.8 1047.22 420.8C1034.42 420.8 1022.82 410.8 1022.82 393C1022.82 375.2 1034.42 365.6 1047.22 365.6C1060.22 365.6 1071.62 375.4 1071.62 393.2ZM1240.76 337.4H1206.56V398C1206.56 413.2 1198.16 421.6 1184.96 421.6C1172.16 421.6 1163.56 413.2 1163.56 398V337.4H1129.56V402.6C1129.56 432.4 1146.96 450.2 1172.76 450.2C1187.76 450.2 1199.76 443.4 1206.56 433.8V449H1240.76V337.4ZM1258.53 393.2C1258.53 428.6 1281.73 450.6 1314.53 450.6C1342.53 450.6 1362.33 434.4 1368.13 408.6H1331.73C1328.73 416.8 1323.33 421.4 1313.93 421.4C1301.73 421.4 1293.33 411.8 1293.33 393.2C1293.33 374.6 1301.73 365 1313.93 365C1323.33 365 1328.93 370 1331.73 377.8H1368.13C1362.33 351.2 1342.53 335.8 1314.53 335.8C1281.73 335.8 1258.53 358 1258.53 393.2ZM1391.82 410.2C1391.82 439.2 1408.02 449 1431.22 449H1448.62V420H1436.42C1428.82 420 1426.02 417.2 1426.02 410.6V365.8H1448.42V337.4H1426.02V310.2H1391.82V337.4H1378.22V365.8H1391.82V410.2ZM362.498 749H396.698V664.6L428.298 749H455.898L487.298 664.8V749H521.498V608.6H481.298L442.298 705.8L402.898 608.6H362.498V749ZM539.291 693C539.291 728.2 561.091 750.6 588.291 750.6C604.891 750.6 616.691 743 622.891 733.2V749H657.091V637.4H622.891V653.2C616.891 643.4 605.091 635.8 588.491 635.8C561.091 635.8 539.291 657.8 539.291 693ZM622.891 693.2C622.891 711 611.491 720.8 598.491 720.8C585.691 720.8 574.091 710.8 574.091 693C574.091 675.2 585.691 665.6 598.491 665.6C611.491 665.6 622.891 675.4 622.891 693.2ZM758.834 749H792.834V683.8C792.834 653.8 775.634 636.2 749.834 636.2C734.834 636.2 722.834 642.8 716.034 652.2V637.4H681.834V749H716.034V688.4C716.034 673.2 724.434 664.8 737.434 664.8C750.434 664.8 758.834 673.2 758.834 688.4V749ZM809.799 693C809.799 728.2 831.599 750.6 858.799 750.6C875.399 750.6 887.199 743 893.399 733.2V749H927.599V637.4H893.399V653.2C887.399 643.4 875.599 635.8 858.999 635.8C831.599 635.8 809.799 657.8 809.799 693ZM893.399 693.2C893.399 711 881.999 720.8 868.999 720.8C856.199 720.8 844.599 710.8 844.599 693C844.599 675.2 856.199 665.6 868.999 665.6C881.999 665.6 893.399 675.4 893.399 693.2ZM945.541 693C945.541 728.2 967.341 750.6 994.741 750.6C1011.14 750.6 1022.94 742.8 1029.14 733V748.8C1029.14 767.6 1018.94 774.4 1005.94 774.4C994.141 774.4 985.741 769 983.541 760.6H949.741C952.741 787.2 974.341 804 1007.54 804C1046.14 804 1063.34 778.6 1063.34 748.8V637.4H1029.14V653.2C1023.14 643.2 1011.14 635.8 994.741 635.8C967.341 635.8 945.541 657.8 945.541 693ZM1029.14 693.2C1029.14 711 1017.74 720.8 1004.74 720.8C991.941 720.8 980.341 710.8 980.341 693C980.341 675.2 991.941 665.6 1004.74 665.6C1017.74 665.6 1029.14 675.4 1029.14 693.2ZM1137.28 663.2C1148.68 663.2 1158.28 670.2 1158.28 682.4H1115.48C1117.48 670 1126.08 663.2 1137.28 663.2ZM1190.68 712H1154.28C1151.48 718 1146.08 722.8 1136.48 722.8C1125.48 722.8 1116.48 716 1115.28 701.4H1192.68C1193.08 698 1193.28 694.6 1193.28 691.4C1193.28 657.4 1170.28 635.8 1137.68 635.8C1104.48 635.8 1081.28 657.8 1081.28 693.2C1081.28 728.6 1104.88 750.6 1137.68 750.6C1165.48 750.6 1185.28 733.8 1190.68 712ZM1365.13 749H1399.13V683.8C1399.13 653.8 1381.33 636.2 1353.73 636.2C1337.53 636.2 1323.53 645.2 1316.13 657C1308.53 643.6 1294.93 636.2 1278.13 636.2C1263.53 636.2 1252.13 642.4 1245.53 651.4V637.4H1211.33V749H1245.53V688.4C1245.53 673.8 1253.93 665.8 1266.93 665.8C1279.93 665.8 1288.33 673.8 1288.33 688.4V749H1322.33V688.4C1322.33 673.8 1330.73 665.8 1343.73 665.8C1356.73 665.8 1365.13 673.8 1365.13 688.4V749ZM1472.24 663.2C1483.64 663.2 1493.24 670.2 1493.24 682.4H1450.44C1452.44 670 1461.04 663.2 1472.24 663.2ZM1525.64 712H1489.24C1486.44 718 1481.04 722.8 1471.44 722.8C1460.44 722.8 1451.44 716 1450.24 701.4H1527.64C1528.04 698 1528.24 694.6 1528.24 691.4C1528.24 657.4 1505.24 635.8 1472.64 635.8C1439.44 635.8 1416.24 657.8 1416.24 693.2C1416.24 728.6 1439.84 750.6 1472.64 750.6C1500.44 750.6 1520.24 733.8 1525.64 712ZM1623.29 749H1657.29V683.8C1657.29 653.8 1640.09 636.2 1614.29 636.2C1599.29 636.2 1587.29 642.8 1580.49 652.2V637.4H1546.29V749H1580.49V688.4C1580.49 673.2 1588.89 664.8 1601.89 664.8C1614.89 664.8 1623.29 673.2 1623.29 688.4V749ZM1686.45 710.2C1686.45 739.2 1702.65 749 1725.85 749H1743.25V720H1731.05C1723.45 720 1720.65 717.2 1720.65 710.6V665.8H1743.05V637.4H1720.65V610.2H1686.45V637.4H1672.85V665.8H1686.45V710.2Z" fill="black"/>
<path d="M301.782 1502H313.612V1411.39H301.782V1502ZM368.433 1502H380.263V1462.61C380.263 1447.27 388.583 1439.73 400.673 1439.73C412.633 1439.73 420.563 1447.14 420.563 1461.7V1502H432.263V1460.01C432.263 1439.6 419.653 1429.46 403.793 1429.46C393.783 1429.46 384.943 1433.49 380.263 1441.03V1405.8H368.433V1502ZM447.167 1466.12C447.167 1488.22 461.857 1503.17 480.837 1503.17C493.967 1503.17 503.197 1496.41 507.487 1488.74V1502H519.447V1430.76H507.487V1443.76C503.327 1436.35 494.227 1429.59 480.967 1429.59C461.857 1429.59 447.167 1443.89 447.167 1466.12ZM507.487 1466.25C507.487 1483.02 496.307 1492.77 483.307 1492.77C470.307 1492.77 459.257 1482.89 459.257 1466.12C459.257 1449.35 470.307 1439.86 483.307 1439.86C496.307 1439.86 507.487 1449.74 507.487 1466.25ZM530.989 1430.76L558.939 1502H572.719L600.669 1430.76H588.059L565.959 1491.08L543.729 1430.76H530.989ZM642.6 1439.6C654.82 1439.6 665.22 1447.27 665.09 1461.18H620.11C621.41 1447.27 631.03 1439.6 642.6 1439.6ZM675.88 1480.03H663.14C660.54 1487.7 653.78 1493.16 643.12 1493.16C631.03 1493.16 620.89 1485.23 619.98 1470.8H676.92C677.18 1468.33 677.31 1466.25 677.31 1463.65C677.31 1444.15 663.79 1429.59 643.12 1429.59C622.32 1429.59 607.89 1443.76 607.89 1466.25C607.89 1488.87 622.84 1503.17 643.12 1503.17C660.8 1503.17 672.24 1493.03 675.88 1480.03ZM830.413 1502H842.113V1460.01C842.113 1439.6 829.503 1429.46 813.253 1429.46C802.333 1429.46 792.193 1435.05 788.033 1445.32C783.353 1434.66 773.603 1429.46 761.903 1429.46C752.543 1429.46 744.093 1433.49 739.413 1441.03V1430.76H727.583V1502H739.413V1462.74C739.413 1447.4 747.603 1439.73 759.563 1439.73C771.263 1439.73 779.063 1447.14 779.063 1461.7V1502H790.763V1462.74C790.763 1447.4 798.953 1439.73 810.913 1439.73C822.613 1439.73 830.413 1447.14 830.413 1461.7V1502ZM857.099 1466.12C857.099 1488.22 871.789 1503.17 890.769 1503.17C903.899 1503.17 913.129 1496.41 917.419 1488.74V1502H929.379V1430.76H917.419V1443.76C913.259 1436.35 904.159 1429.59 890.899 1429.59C871.789 1429.59 857.099 1443.89 857.099 1466.12ZM917.419 1466.25C917.419 1483.02 906.239 1492.77 893.239 1492.77C880.239 1492.77 869.189 1482.89 869.189 1466.12C869.189 1449.35 880.239 1439.86 893.239 1439.86C906.239 1439.86 917.419 1449.74 917.419 1466.25ZM1001.5 1502H1013.2V1460.01C1013.2 1439.6 1000.59 1429.46 984.08 1429.46C974.46 1429.46 965.88 1433.49 961.2 1440.9V1430.76H949.37V1502H961.2V1462.61C961.2 1447.27 969.52 1439.73 981.61 1439.73C993.57 1439.73 1001.5 1447.14 1001.5 1461.7V1502ZM1028.1 1466.12C1028.1 1488.22 1042.79 1503.17 1061.77 1503.17C1074.9 1503.17 1084.13 1496.41 1088.42 1488.74V1502H1100.38V1430.76H1088.42V1443.76C1084.26 1436.35 1075.16 1429.59 1061.9 1429.59C1042.79 1429.59 1028.1 1443.89 1028.1 1466.12ZM1088.42 1466.25C1088.42 1483.02 1077.24 1492.77 1064.24 1492.77C1051.24 1492.77 1040.19 1482.89 1040.19 1466.12C1040.19 1449.35 1051.24 1439.86 1064.24 1439.86C1077.24 1439.86 1088.42 1449.74 1088.42 1466.25ZM1115.96 1466.12C1115.96 1488.22 1130.65 1503.17 1149.76 1503.17C1162.76 1503.17 1171.99 1496.28 1176.28 1488.61V1503.56C1176.28 1518.77 1166.79 1526.83 1154.18 1526.83C1142.48 1526.83 1134.03 1520.98 1131.43 1512.4H1119.73C1122.07 1527.61 1135.46 1537.1 1154.18 1537.1C1175.11 1537.1 1188.24 1523.19 1188.24 1503.56V1430.76H1176.28V1443.76C1172.12 1436.09 1162.76 1429.59 1149.76 1429.59C1130.65 1429.59 1115.96 1443.89 1115.96 1466.12ZM1176.28 1466.25C1176.28 1483.02 1165.1 1492.77 1152.1 1492.77C1139.1 1492.77 1128.05 1482.89 1128.05 1466.12C1128.05 1449.35 1139.1 1439.86 1152.1 1439.86C1165.1 1439.86 1176.28 1449.74 1176.28 1466.25ZM1238.52 1439.6C1250.74 1439.6 1261.14 1447.27 1261.01 1461.18H1216.03C1217.33 1447.27 1226.95 1439.6 1238.52 1439.6ZM1271.8 1480.03H1259.06C1256.46 1487.7 1249.7 1493.16 1239.04 1493.16C1226.95 1493.16 1216.81 1485.23 1215.9 1470.8H1272.84C1273.1 1468.33 1273.23 1466.25 1273.23 1463.65C1273.23 1444.15 1259.71 1429.59 1239.04 1429.59C1218.24 1429.59 1203.81 1443.76 1203.81 1466.25C1203.81 1488.87 1218.76 1503.17 1239.04 1503.17C1256.72 1503.17 1268.16 1493.03 1271.8 1480.03ZM1284.42 1466.12C1284.42 1488.22 1299.11 1503.17 1318.22 1503.17C1331.22 1503.17 1340.45 1496.54 1344.74 1488.61V1502H1356.7V1405.8H1344.74V1443.5C1339.8 1435.31 1329.53 1429.59 1318.35 1429.59C1299.11 1429.59 1284.42 1443.89 1284.42 1466.12ZM1344.74 1466.25C1344.74 1483.02 1333.56 1492.77 1320.56 1492.77C1307.56 1492.77 1296.51 1482.89 1296.51 1466.12C1296.51 1449.35 1307.56 1439.86 1320.56 1439.86C1333.56 1439.86 1344.74 1449.74 1344.74 1466.25ZM1406.93 1466.12C1406.93 1488.22 1421.62 1503.17 1440.73 1503.17C1453.73 1503.17 1462.96 1496.54 1467.25 1488.61V1502H1479.21V1405.8H1467.25V1443.5C1462.31 1435.31 1452.04 1429.59 1440.86 1429.59C1421.62 1429.59 1406.93 1443.89 1406.93 1466.12ZM1467.25 1466.25C1467.25 1483.02 1456.07 1492.77 1443.07 1492.77C1430.07 1492.77 1419.02 1482.89 1419.02 1466.12C1419.02 1449.35 1430.07 1439.86 1443.07 1439.86C1456.07 1439.86 1467.25 1449.74 1467.25 1466.25ZM1499.2 1502H1511.03V1430.76H1499.2V1502ZM1505.31 1419.19C1509.6 1419.19 1513.11 1415.68 1513.11 1411.13C1513.11 1406.58 1509.6 1403.07 1505.31 1403.07C1500.76 1403.07 1497.25 1406.58 1497.25 1411.13C1497.25 1415.68 1500.76 1419.19 1505.31 1419.19ZM1526.78 1466.12C1526.78 1488.22 1541.47 1503.17 1560.58 1503.17C1573.58 1503.17 1582.81 1496.28 1587.1 1488.61V1503.56C1587.1 1518.77 1577.61 1526.83 1565 1526.83C1553.3 1526.83 1544.85 1520.98 1542.25 1512.4H1530.55C1532.89 1527.61 1546.28 1537.1 1565 1537.1C1585.93 1537.1 1599.06 1523.19 1599.06 1503.56V1430.76H1587.1V1443.76C1582.94 1436.09 1573.58 1429.59 1560.58 1429.59C1541.47 1429.59 1526.78 1443.89 1526.78 1466.12ZM1587.1 1466.25C1587.1 1483.02 1575.92 1492.77 1562.92 1492.77C1549.92 1492.77 1538.87 1482.89 1538.87 1466.12C1538.87 1449.35 1549.92 1439.86 1562.92 1439.86C1575.92 1439.86 1587.1 1449.74 1587.1 1466.25ZM1619.05 1502H1630.88V1430.76H1619.05V1502ZM1625.16 1419.19C1629.45 1419.19 1632.96 1415.68 1632.96 1411.13C1632.96 1406.58 1629.45 1403.07 1625.16 1403.07C1620.61 1403.07 1617.1 1406.58 1617.1 1411.13C1617.1 1415.68 1620.61 1419.19 1625.16 1419.19ZM1653.64 1482.5C1653.64 1496.8 1660.79 1502 1673.4 1502H1684.06V1491.99H1675.35C1668.07 1491.99 1665.47 1489.52 1665.47 1482.5V1440.51H1684.06V1430.76H1665.47V1412.82H1653.64V1430.76H1644.41V1440.51H1653.64V1482.5ZM1693.97 1466.12C1693.97 1488.22 1708.66 1503.17 1727.64 1503.17C1740.77 1503.17 1750 1496.41 1754.29 1488.74V1502H1766.25V1430.76H1754.29V1443.76C1750.13 1436.35 1741.03 1429.59 1727.77 1429.59C1708.66 1429.59 1693.97 1443.89 1693.97 1466.12ZM1754.29 1466.25C1754.29 1483.02 1743.11 1492.77 1730.11 1492.77C1717.11 1492.77 1706.06 1482.89 1706.06 1466.12C1706.06 1449.35 1717.11 1439.86 1730.11 1439.86C1743.11 1439.86 1754.29 1449.74 1754.29 1466.25ZM1786.25 1502H1798.08V1405.8H1786.25V1502ZM307.011 1638.89V1625.76H295.181V1730.8H307.011V1683.87C311.431 1691.15 320.661 1698.17 333.661 1698.17C352.771 1698.17 367.461 1683.22 367.461 1661.12C367.461 1638.89 352.771 1624.59 333.661 1624.59C320.661 1624.59 311.301 1631.35 307.011 1638.89ZM355.371 1661.12C355.371 1677.89 344.321 1687.77 331.191 1687.77C318.321 1687.77 307.011 1678.02 307.011 1661.25C307.011 1644.74 318.321 1634.86 331.191 1634.86C344.321 1634.86 355.371 1644.35 355.371 1661.12ZM394.862 1658.26C394.862 1641.75 403.442 1636.68 414.752 1636.68H417.872V1624.46C406.562 1624.46 398.892 1629.4 394.862 1637.33V1625.76H383.032V1697H394.862V1658.26ZM499.129 1661.25C499.129 1638.76 483.399 1624.59 463.119 1624.59C442.969 1624.59 427.109 1638.76 427.109 1661.25C427.109 1683.87 442.449 1698.17 462.599 1698.17C482.879 1698.17 499.129 1683.87 499.129 1661.25ZM439.199 1661.25C439.199 1643.31 450.509 1634.86 462.989 1634.86C475.209 1634.86 487.039 1643.31 487.039 1661.25C487.039 1679.32 474.949 1687.77 462.599 1687.77C450.249 1687.77 439.199 1679.32 439.199 1661.25ZM510.263 1661.12C510.263 1683.22 524.953 1698.17 544.063 1698.17C557.063 1698.17 566.293 1691.54 570.583 1683.61V1697H582.543V1600.8H570.583V1638.5C565.643 1630.31 555.373 1624.59 544.193 1624.59C524.953 1624.59 510.263 1638.89 510.263 1661.12ZM570.583 1661.25C570.583 1678.02 559.403 1687.77 546.403 1687.77C533.403 1687.77 522.353 1677.89 522.353 1661.12C522.353 1644.35 533.403 1634.86 546.403 1634.86C559.403 1634.86 570.583 1644.74 570.583 1661.25ZM665.714 1625.76H653.884V1664.89C653.884 1680.23 645.694 1687.77 633.474 1687.77C621.514 1687.77 613.584 1680.36 613.584 1665.93V1625.76H601.884V1667.49C601.884 1687.9 614.754 1698.04 631.134 1698.04C640.624 1698.04 649.334 1693.88 653.884 1686.47V1697H665.714V1625.76ZM681.269 1661.25C681.269 1683.87 695.699 1698.17 715.979 1698.17C733.659 1698.17 745.229 1688.29 748.869 1674.12H736.129C733.529 1683.09 726.509 1688.16 715.979 1688.16C702.979 1688.16 693.359 1678.93 693.359 1661.25C693.359 1643.83 702.979 1634.6 715.979 1634.6C726.509 1634.6 733.659 1640.06 736.129 1648.64H748.869C745.229 1633.69 733.659 1624.59 715.979 1624.59C695.699 1624.59 681.269 1638.89 681.269 1661.25ZM767.254 1677.5C767.254 1691.8 774.404 1697 787.014 1697H797.674V1686.99H788.964C781.684 1686.99 779.084 1684.52 779.084 1677.5V1635.51H797.674V1625.76H779.084V1607.82H767.254V1625.76H758.024V1635.51H767.254V1677.5ZM863.227 1677.63C862.707 1652.15 821.367 1661.38 821.367 1644.48C821.367 1638.76 826.567 1634.6 835.277 1634.6C844.767 1634.6 850.227 1639.8 850.747 1646.95H862.577C861.797 1633.04 851.397 1624.59 835.667 1624.59C819.807 1624.59 809.537 1633.56 809.537 1644.48C809.537 1671 851.657 1661.77 851.657 1677.63C851.657 1683.48 846.457 1688.16 837.097 1688.16C827.087 1688.16 820.977 1682.96 820.327 1676.07H808.107C808.887 1689.07 820.587 1698.17 837.227 1698.17C852.957 1698.17 863.227 1689.33 863.227 1677.63ZM910.165 1661.12C910.165 1683.22 924.855 1698.17 943.835 1698.17C956.965 1698.17 966.195 1691.41 970.485 1683.74V1697H982.445V1625.76H970.485V1638.76C966.325 1631.35 957.225 1624.59 943.965 1624.59C924.855 1624.59 910.165 1638.89 910.165 1661.12ZM970.485 1661.25C970.485 1678.02 959.305 1687.77 946.305 1687.77C933.305 1687.77 922.255 1677.89 922.255 1661.12C922.255 1644.35 933.305 1634.86 946.305 1634.86C959.305 1634.86 970.485 1644.74 970.485 1661.25ZM1054.57 1697H1066.27V1655.01C1066.27 1634.6 1053.66 1624.46 1037.15 1624.46C1027.53 1624.46 1018.95 1628.49 1014.27 1635.9V1625.76H1002.44V1697H1014.27V1657.61C1014.27 1642.27 1022.59 1634.73 1034.68 1634.73C1046.64 1634.73 1054.57 1642.14 1054.57 1656.7V1697ZM1081.17 1661.12C1081.17 1683.22 1095.86 1698.17 1114.97 1698.17C1127.97 1698.17 1137.2 1691.54 1141.49 1683.61V1697H1153.45V1600.8H1141.49V1638.5C1136.55 1630.31 1126.28 1624.59 1115.1 1624.59C1095.86 1624.59 1081.17 1638.89 1081.17 1661.12ZM1141.49 1661.25C1141.49 1678.02 1130.31 1687.77 1117.31 1687.77C1104.31 1687.77 1093.26 1677.89 1093.26 1661.12C1093.26 1644.35 1104.31 1634.86 1117.31 1634.86C1130.31 1634.86 1141.49 1644.74 1141.49 1661.25ZM1208.1 1697H1219.93V1600.8H1208.1V1697ZM1235.67 1661.12C1235.67 1683.22 1250.36 1698.17 1269.34 1698.17C1282.47 1698.17 1291.7 1691.41 1295.99 1683.74V1697H1307.95V1625.76H1295.99V1638.76C1291.83 1631.35 1282.73 1624.59 1269.47 1624.59C1250.36 1624.59 1235.67 1638.89 1235.67 1661.12ZM1295.99 1661.25C1295.99 1678.02 1284.81 1687.77 1271.81 1687.77C1258.81 1687.77 1247.76 1677.89 1247.76 1661.12C1247.76 1644.35 1258.81 1634.86 1271.81 1634.86C1284.81 1634.86 1295.99 1644.74 1295.99 1661.25ZM1391.12 1625.76H1379.29V1664.89C1379.29 1680.23 1371.1 1687.77 1358.88 1687.77C1346.92 1687.77 1338.99 1680.36 1338.99 1665.93V1625.76H1327.29V1667.49C1327.29 1687.9 1340.16 1698.04 1356.54 1698.04C1366.03 1698.04 1374.74 1693.88 1379.29 1686.47V1697H1391.12V1625.76ZM1463.23 1697H1474.93V1655.01C1474.93 1634.6 1462.32 1624.46 1445.81 1624.46C1436.19 1624.46 1427.61 1628.49 1422.93 1635.9V1625.76H1411.1V1697H1422.93V1657.61C1422.93 1642.27 1431.25 1634.73 1443.34 1634.73C1455.3 1634.73 1463.23 1642.14 1463.23 1656.7V1697ZM1489.83 1661.25C1489.83 1683.87 1504.26 1698.17 1524.54 1698.17C1542.22 1698.17 1553.79 1688.29 1557.43 1674.12H1544.69C1542.09 1683.09 1535.07 1688.16 1524.54 1688.16C1511.54 1688.16 1501.92 1678.93 1501.92 1661.25C1501.92 1643.83 1511.54 1634.6 1524.54 1634.6C1535.07 1634.6 1542.22 1640.06 1544.69 1648.64H1557.43C1553.79 1633.69 1542.22 1624.59 1524.54 1624.59C1504.26 1624.59 1489.83 1638.89 1489.83 1661.25ZM1573.22 1697H1585.05V1657.61C1585.05 1642.27 1593.37 1634.73 1605.46 1634.73C1617.42 1634.73 1625.35 1642.14 1625.35 1656.7V1697H1637.05V1655.01C1637.05 1634.6 1624.44 1624.46 1608.58 1624.46C1598.57 1624.46 1589.73 1628.49 1585.05 1636.03V1600.8H1573.22V1697ZM1686.66 1634.6C1698.88 1634.6 1709.28 1642.27 1709.15 1656.18H1664.17C1665.47 1642.27 1675.09 1634.6 1686.66 1634.6ZM1719.94 1675.03H1707.2C1704.6 1682.7 1697.84 1688.16 1687.18 1688.16C1675.09 1688.16 1664.95 1680.23 1664.04 1665.8H1720.98C1721.24 1663.33 1721.37 1661.25 1721.37 1658.65C1721.37 1639.15 1707.85 1624.59 1687.18 1624.59C1666.38 1624.59 1651.95 1638.76 1651.95 1661.25C1651.95 1683.87 1666.9 1698.17 1687.18 1698.17C1704.86 1698.17 1716.3 1688.03 1719.94 1675.03ZM1732.57 1661.12C1732.57 1683.22 1747.26 1698.17 1766.37 1698.17C1779.37 1698.17 1788.6 1691.54 1792.89 1683.61V1697H1804.85V1600.8H1792.89V1638.5C1787.95 1630.31 1777.68 1624.59 1766.5 1624.59C1747.26 1624.59 1732.57 1638.89 1732.57 1661.12ZM1792.89 1661.25C1792.89 1678.02 1781.71 1687.77 1768.71 1687.77C1755.71 1687.77 1744.66 1677.89 1744.66 1661.12C1744.66 1644.35 1755.71 1634.86 1768.71 1634.86C1781.71 1634.86 1792.89 1644.74 1792.89 1661.25ZM392.57 1892H404.27V1850.01C404.27 1829.6 391.66 1819.46 375.15 1819.46C365.53 1819.46 356.95 1823.49 352.27 1830.9V1820.76H340.44V1892H352.27V1852.61C352.27 1837.27 360.59 1829.73 372.68 1829.73C384.64 1829.73 392.57 1837.14 392.57 1851.7V1892ZM453.884 1829.6C466.104 1829.6 476.504 1837.27 476.374 1851.18H431.394C432.694 1837.27 442.314 1829.6 453.884 1829.6ZM487.164 1870.03H474.424C471.824 1877.7 465.064 1883.16 454.404 1883.16C442.314 1883.16 432.174 1875.23 431.264 1860.8H488.204C488.464 1858.33 488.594 1856.25 488.594 1853.65C488.594 1834.15 475.074 1819.59 454.404 1819.59C433.604 1819.59 419.174 1833.76 419.174 1856.25C419.174 1878.87 434.124 1893.17 454.404 1893.17C472.084 1893.17 483.524 1883.03 487.164 1870.03ZM518.119 1892H530.339L547.499 1835.45L564.659 1892H576.879L599.109 1820.76H587.409L571.289 1880.69L553.999 1820.76H541.909L524.229 1880.56L507.849 1820.76H495.759L518.119 1892ZM647.718 1892H659.548V1830.51H674.498V1820.76H659.548V1815.69C659.548 1806.46 663.058 1802.56 673.718 1802.56V1792.68C655.518 1792.68 647.718 1799.83 647.718 1815.69V1820.76H638.488V1830.51H647.718V1892ZM718.581 1829.6C730.801 1829.6 741.201 1837.27 741.071 1851.18H696.091C697.391 1837.27 707.011 1829.6 718.581 1829.6ZM751.861 1870.03H739.121C736.521 1877.7 729.761 1883.16 719.101 1883.16C707.011 1883.16 696.871 1875.23 695.961 1860.8H752.901C753.161 1858.33 753.291 1856.25 753.291 1853.65C753.291 1834.15 739.771 1819.59 719.101 1819.59C698.301 1819.59 683.871 1833.76 683.871 1856.25C683.871 1878.87 698.821 1893.17 719.101 1893.17C736.781 1893.17 748.221 1883.03 751.861 1870.03ZM764.486 1856.12C764.486 1878.22 779.176 1893.17 798.156 1893.17C811.286 1893.17 820.516 1886.41 824.806 1878.74V1892H836.766V1820.76H824.806V1833.76C820.646 1826.35 811.546 1819.59 798.286 1819.59C779.176 1819.59 764.486 1833.89 764.486 1856.12ZM824.806 1856.25C824.806 1873.02 813.626 1882.77 800.626 1882.77C787.626 1882.77 776.576 1872.89 776.576 1856.12C776.576 1839.35 787.626 1829.86 800.626 1829.86C813.626 1829.86 824.806 1839.74 824.806 1856.25ZM859.358 1872.5C859.358 1886.8 866.508 1892 879.118 1892H889.778V1881.99H881.068C873.788 1881.99 871.188 1879.52 871.188 1872.5V1830.51H889.778V1820.76H871.188V1802.82H859.358V1820.76H850.128V1830.51H859.358V1872.5ZM967.292 1820.76H955.462V1859.89C955.462 1875.23 947.272 1882.77 935.052 1882.77C923.092 1882.77 915.162 1875.36 915.162 1860.93V1820.76H903.462V1862.49C903.462 1882.9 916.332 1893.04 932.712 1893.04C942.202 1893.04 950.912 1888.88 955.462 1881.47V1892H967.292V1820.76ZM999.096 1853.26C999.096 1836.75 1007.68 1831.68 1018.99 1831.68H1022.11V1819.46C1010.8 1819.46 1003.13 1824.4 999.096 1832.33V1820.76H987.266V1892H999.096V1853.26ZM1066.05 1829.6C1078.27 1829.6 1088.67 1837.27 1088.54 1851.18H1043.56C1044.86 1837.27 1054.48 1829.6 1066.05 1829.6ZM1099.33 1870.03H1086.59C1083.99 1877.7 1077.23 1883.16 1066.57 1883.16C1054.48 1883.16 1044.34 1875.23 1043.43 1860.8H1100.37C1100.63 1858.33 1100.76 1856.25 1100.76 1853.65C1100.76 1834.15 1087.24 1819.59 1066.57 1819.59C1045.77 1819.59 1031.34 1833.76 1031.34 1856.25C1031.34 1878.87 1046.29 1893.17 1066.57 1893.17C1084.25 1893.17 1095.69 1883.03 1099.33 1870.03ZM1167.6 1872.63C1167.08 1847.15 1125.74 1856.38 1125.74 1839.48C1125.74 1833.76 1130.94 1829.6 1139.65 1829.6C1149.14 1829.6 1154.6 1834.8 1155.12 1841.95H1166.95C1166.17 1828.04 1155.77 1819.59 1140.04 1819.59C1124.18 1819.59 1113.91 1828.56 1113.91 1839.48C1113.91 1866 1156.03 1856.77 1156.03 1872.63C1156.03 1878.48 1150.83 1883.16 1141.47 1883.16C1131.46 1883.16 1125.35 1877.96 1124.7 1871.07H1112.48C1113.26 1884.07 1124.96 1893.17 1141.6 1893.17C1157.33 1893.17 1167.6 1884.33 1167.6 1872.63ZM1286.56 1856.25C1286.56 1833.76 1270.83 1819.59 1250.55 1819.59C1230.4 1819.59 1214.54 1833.76 1214.54 1856.25C1214.54 1878.87 1229.88 1893.17 1250.03 1893.17C1270.31 1893.17 1286.56 1878.87 1286.56 1856.25ZM1226.63 1856.25C1226.63 1838.31 1237.94 1829.86 1250.42 1829.86C1262.64 1829.86 1274.47 1838.31 1274.47 1856.25C1274.47 1874.32 1262.38 1882.77 1250.03 1882.77C1237.68 1882.77 1226.63 1874.32 1226.63 1856.25ZM1354.24 1892H1365.94V1850.01C1365.94 1829.6 1353.33 1819.46 1336.82 1819.46C1327.2 1819.46 1318.62 1823.49 1313.94 1830.9V1820.76H1302.11V1892H1313.94V1852.61C1313.94 1837.27 1322.26 1829.73 1334.35 1829.73C1346.31 1829.73 1354.24 1837.14 1354.24 1851.7V1892ZM1422.52 1872.5C1422.52 1886.8 1429.67 1892 1442.28 1892H1452.94V1881.99H1444.23C1436.95 1881.99 1434.35 1879.52 1434.35 1872.5V1830.51H1452.94V1820.76H1434.35V1802.82H1422.52V1820.76H1413.29V1830.51H1422.52V1872.5ZM1467.28 1892H1479.11V1852.61C1479.11 1837.27 1487.43 1829.73 1499.52 1829.73C1511.48 1829.73 1519.41 1837.14 1519.41 1851.7V1892H1531.11V1850.01C1531.11 1829.6 1518.5 1819.46 1502.64 1819.46C1492.63 1819.46 1483.79 1823.49 1479.11 1831.03V1795.8H1467.28V1892ZM1580.72 1829.6C1592.94 1829.6 1603.34 1837.27 1603.21 1851.18H1558.23C1559.53 1837.27 1569.15 1829.6 1580.72 1829.6ZM1614 1870.03H1601.26C1598.66 1877.7 1591.9 1883.16 1581.24 1883.16C1569.15 1883.16 1559.01 1875.23 1558.1 1860.8H1615.04C1615.3 1858.33 1615.43 1856.25 1615.43 1853.65C1615.43 1834.15 1601.91 1819.59 1581.24 1819.59C1560.44 1819.59 1546.01 1833.76 1546.01 1856.25C1546.01 1878.87 1560.96 1893.17 1581.24 1893.17C1598.92 1893.17 1610.36 1883.03 1614 1870.03ZM1682.27 1872.63C1681.75 1847.15 1640.41 1856.38 1640.41 1839.48C1640.41 1833.76 1645.61 1829.6 1654.32 1829.6C1663.81 1829.6 1669.27 1834.8 1669.79 1841.95H1681.62C1680.84 1828.04 1670.44 1819.59 1654.71 1819.59C1638.85 1819.59 1628.58 1828.56 1628.58 1839.48C1628.58 1866 1670.7 1856.77 1670.7 1872.63C1670.7 1878.48 1665.5 1883.16 1656.14 1883.16C1646.13 1883.16 1640.02 1877.96 1639.37 1871.07H1627.15C1627.93 1884.07 1639.63 1893.17 1656.27 1893.17C1672 1893.17 1682.27 1884.33 1682.27 1872.63ZM1729.26 1829.6C1741.48 1829.6 1751.88 1837.27 1751.75 1851.18H1706.77C1708.07 1837.27 1717.69 1829.6 1729.26 1829.6ZM1762.54 1870.03H1749.8C1747.2 1877.7 1740.44 1883.16 1729.78 1883.16C1717.69 1883.16 1707.55 1875.23 1706.64 1860.8H1763.58C1763.84 1858.33 1763.97 1856.25 1763.97 1853.65C1763.97 1834.15 1750.45 1819.59 1729.78 1819.59C1708.98 1819.59 1694.55 1833.76 1694.55 1856.25C1694.55 1878.87 1709.5 1893.17 1729.78 1893.17C1747.46 1893.17 1758.9 1883.03 1762.54 1870.03ZM528.798 2051.12C528.798 2073.22 543.488 2088.17 562.598 2088.17C575.598 2088.17 584.828 2081.54 589.118 2073.61V2087H601.078V1990.8H589.118V2028.5C584.178 2020.31 573.908 2014.59 562.728 2014.59C543.488 2014.59 528.798 2028.89 528.798 2051.12ZM589.118 2051.25C589.118 2068.02 577.938 2077.77 564.938 2077.77C551.938 2077.77 540.888 2067.89 540.888 2051.12C540.888 2034.35 551.938 2024.86 564.938 2024.86C577.938 2024.86 589.118 2034.74 589.118 2051.25ZM621.07 2087H632.9V2015.76H621.07V2087ZM627.18 2004.19C631.47 2004.19 634.98 2000.68 634.98 1996.13C634.98 1991.58 631.47 1988.07 627.18 1988.07C622.63 1988.07 619.12 1991.58 619.12 1996.13C619.12 2000.68 622.63 2004.19 627.18 2004.19ZM648.642 2051.12C648.642 2073.22 663.332 2088.17 682.442 2088.17C695.442 2088.17 704.672 2081.28 708.962 2073.61V2088.56C708.962 2103.77 699.472 2111.83 686.862 2111.83C675.162 2111.83 666.712 2105.98 664.112 2097.4H652.412C654.752 2112.61 668.142 2122.1 686.862 2122.1C707.792 2122.1 720.922 2108.19 720.922 2088.56V2015.76H708.962V2028.76C704.802 2021.09 695.442 2014.59 682.442 2014.59C663.332 2014.59 648.642 2028.89 648.642 2051.12ZM708.962 2051.25C708.962 2068.02 697.782 2077.77 684.782 2077.77C671.782 2077.77 660.732 2067.89 660.732 2051.12C660.732 2034.35 671.782 2024.86 684.782 2024.86C697.782 2024.86 708.962 2034.74 708.962 2051.25ZM740.913 2087H752.743V2015.76H740.913V2087ZM747.023 2004.19C751.313 2004.19 754.823 2000.68 754.823 1996.13C754.823 1991.58 751.313 1988.07 747.023 1988.07C742.473 1988.07 738.963 1991.58 738.963 1996.13C738.963 2000.68 742.473 2004.19 747.023 2004.19ZM775.506 2067.5C775.506 2081.8 782.656 2087 795.266 2087H805.926V2076.99H797.216C789.936 2076.99 787.336 2074.52 787.336 2067.5V2025.51H805.926V2015.76H787.336V1997.82H775.506V2015.76H766.276V2025.51H775.506V2067.5ZM815.839 2051.12C815.839 2073.22 830.529 2088.17 849.509 2088.17C862.639 2088.17 871.869 2081.41 876.159 2073.74V2087H888.119V2015.76H876.159V2028.76C871.999 2021.35 862.899 2014.59 849.639 2014.59C830.529 2014.59 815.839 2028.89 815.839 2051.12ZM876.159 2051.25C876.159 2068.02 864.979 2077.77 851.979 2077.77C838.979 2077.77 827.929 2067.89 827.929 2051.12C827.929 2034.35 838.979 2024.86 851.979 2024.86C864.979 2024.86 876.159 2034.74 876.159 2051.25ZM908.111 2087H919.941V1990.8H908.111V2087ZM986.591 2028.89V2015.76H974.761V2120.8H986.591V2073.87C991.011 2081.15 1000.24 2088.17 1013.24 2088.17C1032.35 2088.17 1047.04 2073.22 1047.04 2051.12C1047.04 2028.89 1032.35 2014.59 1013.24 2014.59C1000.24 2014.59 990.881 2021.35 986.591 2028.89ZM1034.95 2051.12C1034.95 2067.89 1023.9 2077.77 1010.77 2077.77C997.901 2077.77 986.591 2068.02 986.591 2051.25C986.591 2034.74 997.901 2024.86 1010.77 2024.86C1023.9 2024.86 1034.95 2034.35 1034.95 2051.12ZM1074.44 2048.26C1074.44 2031.75 1083.02 2026.68 1094.33 2026.68H1097.45V2014.46C1086.14 2014.46 1078.47 2019.4 1074.44 2027.33V2015.76H1062.61V2087H1074.44V2048.26ZM1178.71 2051.25C1178.71 2028.76 1162.98 2014.59 1142.7 2014.59C1122.55 2014.59 1106.69 2028.76 1106.69 2051.25C1106.69 2073.87 1122.03 2088.17 1142.18 2088.17C1162.46 2088.17 1178.71 2073.87 1178.71 2051.25ZM1118.78 2051.25C1118.78 2033.31 1130.09 2024.86 1142.57 2024.86C1154.79 2024.86 1166.62 2033.31 1166.62 2051.25C1166.62 2069.32 1154.53 2077.77 1142.18 2077.77C1129.83 2077.77 1118.78 2069.32 1118.78 2051.25ZM1189.84 2051.12C1189.84 2073.22 1204.53 2088.17 1223.64 2088.17C1236.64 2088.17 1245.87 2081.54 1250.16 2073.61V2087H1262.12V1990.8H1250.16V2028.5C1245.22 2020.31 1234.95 2014.59 1223.77 2014.59C1204.53 2014.59 1189.84 2028.89 1189.84 2051.12ZM1250.16 2051.25C1250.16 2068.02 1238.98 2077.77 1225.98 2077.77C1212.98 2077.77 1201.93 2067.89 1201.93 2051.12C1201.93 2034.35 1212.98 2024.86 1225.98 2024.86C1238.98 2024.86 1250.16 2034.74 1250.16 2051.25ZM1345.29 2015.76H1333.46V2054.89C1333.46 2070.23 1325.27 2077.77 1313.05 2077.77C1301.09 2077.77 1293.16 2070.36 1293.16 2055.93V2015.76H1281.46V2057.49C1281.46 2077.9 1294.33 2088.04 1310.71 2088.04C1320.2 2088.04 1328.91 2083.88 1333.46 2076.47V2087H1345.29V2015.76ZM1360.85 2051.25C1360.85 2073.87 1375.28 2088.17 1395.56 2088.17C1413.24 2088.17 1424.81 2078.29 1428.45 2064.12H1415.71C1413.11 2073.09 1406.09 2078.16 1395.56 2078.16C1382.56 2078.16 1372.94 2068.93 1372.94 2051.25C1372.94 2033.83 1382.56 2024.6 1395.56 2024.6C1406.09 2024.6 1413.24 2030.06 1415.71 2038.64H1428.45C1424.81 2023.69 1413.24 2014.59 1395.56 2014.59C1375.28 2014.59 1360.85 2028.89 1360.85 2051.25ZM1446.83 2067.5C1446.83 2081.8 1453.98 2087 1466.59 2087H1477.25V2076.99H1468.54C1461.26 2076.99 1458.66 2074.52 1458.66 2067.5V2025.51H1477.25V2015.76H1458.66V1997.82H1446.83V2015.76H1437.6V2025.51H1446.83V2067.5ZM1542.81 2067.63C1542.29 2042.15 1500.95 2051.38 1500.95 2034.48C1500.95 2028.76 1506.15 2024.6 1514.86 2024.6C1524.35 2024.6 1529.81 2029.8 1530.33 2036.95H1542.16C1541.38 2023.04 1530.98 2014.59 1515.25 2014.59C1499.39 2014.59 1489.12 2023.56 1489.12 2034.48C1489.12 2061 1531.24 2051.77 1531.24 2067.63C1531.24 2073.48 1526.04 2078.16 1516.68 2078.16C1506.67 2078.16 1500.56 2072.96 1499.91 2066.07H1487.69C1488.47 2079.07 1500.17 2088.17 1516.81 2088.17C1532.54 2088.17 1542.81 2079.33 1542.81 2067.63ZM1571.08 2079.72C1571.08 2075.17 1567.57 2071.66 1563.28 2071.66C1558.73 2071.66 1555.22 2075.17 1555.22 2079.72C1555.22 2084.27 1558.73 2087.78 1563.28 2087.78C1567.57 2087.78 1571.08 2084.27 1571.08 2079.72Z" fill="black"/>
<path d="M1090 1013H1010V973H1090V1013ZM1210 933V1253C1210 1275.2 1192.2 1293 1170 1293H930C907.8 1293 890 1275.2 890 1253V933C890 922.391 894.214 912.217 901.716 904.716C909.217 897.214 919.391 893 930 893H1170C1180.61 893 1190.78 897.214 1198.28 904.716C1205.79 912.217 1210 922.391 1210 933ZM1170 1113H930V1253H1170V1113ZM1170 933H930V1073H1170V933ZM1090 1153H1010V1193H1090V1153Z" fill="black"/>
</svg>
