<svg width="1975" height="2438" viewBox="0 0 1975 2438" fill="none" xmlns="http://www.w3.org/2000/svg">
<rect width="1975" height="2438" rx="20" fill="white"/>
<path d="M441.984 336H479.184V449H513.384V336H550.584V308.6H441.984V336ZM616.948 363.2C628.348 363.2 637.948 370.2 637.948 382.4H595.148C597.148 370 605.748 363.2 616.948 363.2ZM670.348 412H633.948C631.148 418 625.748 422.8 616.148 422.8C605.148 422.8 596.148 416 594.948 401.4H672.348C672.748 398 672.948 394.6 672.948 391.4C672.948 357.4 649.948 335.8 617.348 335.8C584.148 335.8 560.948 357.8 560.948 393.2C560.948 428.6 584.548 450.6 617.348 450.6C645.148 450.6 664.948 433.8 670.348 412ZM684.19 393C684.19 428.2 705.99 450.6 733.19 450.6C749.79 450.6 761.59 443 767.79 433.2V449H801.99V337.4H767.79V353.2C761.79 343.4 749.99 335.8 733.39 335.8C705.99 335.8 684.19 357.8 684.19 393ZM767.79 393.2C767.79 411 756.39 420.8 743.39 420.8C730.59 420.8 718.99 410.8 718.99 393C718.99 375.2 730.59 365.6 743.39 365.6C756.39 365.6 767.79 375.4 767.79 393.2ZM980.532 449H1014.53V383.8C1014.53 353.8 996.732 336.2 969.132 336.2C952.932 336.2 938.932 345.2 931.532 357C923.932 343.6 910.332 336.2 893.532 336.2C878.932 336.2 867.532 342.4 860.932 351.4V337.4H826.732V449H860.932V388.4C860.932 373.8 869.332 365.8 882.332 365.8C895.332 365.8 903.732 373.8 903.732 388.4V449H937.732V388.4C937.732 373.8 946.132 365.8 959.132 365.8C972.132 365.8 980.532 373.8 980.532 388.4V449ZM1057.25 449H1094.85L1113.05 376.6L1130.65 449H1168.45L1198.65 337.4H1166.45L1150.85 416.8L1131.85 337.4H1095.65L1076.85 417.2L1061.05 337.4H1026.85L1057.25 449ZM1320.89 393.2C1320.89 357.8 1295.69 335.8 1262.89 335.8C1230.29 335.8 1204.89 357.8 1204.89 393.2C1204.89 428.6 1229.69 450.6 1262.49 450.6C1295.29 450.6 1320.89 428.6 1320.89 393.2ZM1239.69 393.2C1239.69 374.2 1250.49 365.4 1262.89 365.4C1274.89 365.4 1286.09 374.2 1286.09 393.2C1286.09 412 1274.69 421 1262.49 421C1250.09 421 1239.69 412 1239.69 393.2ZM1373.24 397.2C1373.24 378 1382.64 372.4 1398.84 372.4H1408.24V336.2C1393.24 336.2 1381.04 344.2 1373.24 356V337.4H1339.04V449H1373.24V397.2ZM1424.58 449H1458.78V402.2L1492.78 449H1535.18L1488.38 393.4L1534.78 337.4H1492.58L1458.78 382.8V301H1424.58V449Z" fill="black"/>
<path d="M495.355 1449H507.185V1358.39H495.355V1449ZM562.005 1449H573.835V1409.61C573.835 1394.27 582.155 1386.73 594.245 1386.73C606.205 1386.73 614.135 1394.14 614.135 1408.7V1449H625.835V1407.01C625.835 1386.6 613.225 1376.46 597.365 1376.46C587.355 1376.46 578.515 1380.49 573.835 1388.03V1352.8H562.005V1449ZM640.739 1413.12C640.739 1435.22 655.429 1450.17 674.409 1450.17C687.539 1450.17 696.769 1443.41 701.059 1435.74V1449H713.019V1377.76H701.059V1390.76C696.899 1383.35 687.799 1376.59 674.539 1376.59C655.429 1376.59 640.739 1390.89 640.739 1413.12ZM701.059 1413.25C701.059 1430.02 689.879 1439.77 676.879 1439.77C663.879 1439.77 652.829 1429.89 652.829 1413.12C652.829 1396.35 663.879 1386.86 676.879 1386.86C689.879 1386.86 701.059 1396.74 701.059 1413.25ZM724.561 1377.76L752.511 1449H766.291L794.241 1377.76H781.631L759.531 1438.08L737.301 1377.76H724.561ZM836.172 1386.6C848.392 1386.6 858.792 1394.27 858.662 1408.18H813.682C814.982 1394.27 824.602 1386.6 836.172 1386.6ZM869.452 1427.03H856.712C854.112 1434.7 847.352 1440.16 836.692 1440.16C824.602 1440.16 814.462 1432.23 813.552 1417.8H870.492C870.752 1415.33 870.882 1413.25 870.882 1410.65C870.882 1391.15 857.362 1376.59 836.692 1376.59C815.892 1376.59 801.462 1390.76 801.462 1413.25C801.462 1435.87 816.412 1450.17 836.692 1450.17C854.372 1450.17 865.812 1440.03 869.452 1427.03ZM951.446 1386.6C963.666 1386.6 974.066 1394.27 973.936 1408.18H928.956C930.256 1394.27 939.876 1386.6 951.446 1386.6ZM984.726 1427.03H971.986C969.386 1434.7 962.626 1440.16 951.966 1440.16C939.876 1440.16 929.736 1432.23 928.826 1417.8H985.766C986.026 1415.33 986.156 1413.25 986.156 1410.65C986.156 1391.15 972.636 1376.59 951.966 1376.59C931.166 1376.59 916.736 1390.76 916.736 1413.25C916.736 1435.87 931.686 1450.17 951.966 1450.17C969.646 1450.17 981.086 1440.03 984.726 1427.03ZM1038.95 1449H1052.34L1029.33 1412.99L1052.21 1377.76H1039.86L1023.74 1404.15L1006.84 1377.76H993.451L1016.46 1413.64L993.451 1449H1005.8L1022.05 1422.48L1038.95 1449ZM1059.56 1413.25C1059.56 1435.87 1073.99 1450.17 1094.27 1450.17C1111.95 1450.17 1123.52 1440.29 1127.16 1426.12H1114.42C1111.82 1435.09 1104.8 1440.16 1094.27 1440.16C1081.27 1440.16 1071.65 1430.93 1071.65 1413.25C1071.65 1395.83 1081.27 1386.6 1094.27 1386.6C1104.8 1386.6 1111.95 1392.06 1114.42 1400.64H1127.16C1123.52 1385.69 1111.95 1376.59 1094.27 1376.59C1073.99 1376.59 1059.56 1390.89 1059.56 1413.25ZM1173.23 1386.6C1185.45 1386.6 1195.85 1394.27 1195.72 1408.18H1150.74C1152.04 1394.27 1161.66 1386.6 1173.23 1386.6ZM1206.51 1427.03H1193.77C1191.17 1434.7 1184.41 1440.16 1173.75 1440.16C1161.66 1440.16 1151.52 1432.23 1150.61 1417.8H1207.55C1207.81 1415.33 1207.94 1413.25 1207.94 1410.65C1207.94 1391.15 1194.42 1376.59 1173.75 1376.59C1152.95 1376.59 1138.52 1390.76 1138.52 1413.25C1138.52 1435.87 1153.47 1450.17 1173.75 1450.17C1191.43 1450.17 1202.87 1440.03 1206.51 1427.03ZM1223.56 1449H1235.39V1352.8H1223.56V1449ZM1255.55 1449H1267.38V1352.8H1255.55V1449ZM1317.83 1386.6C1330.05 1386.6 1340.45 1394.27 1340.32 1408.18H1295.34C1296.64 1394.27 1306.26 1386.6 1317.83 1386.6ZM1351.11 1427.03H1338.37C1335.77 1434.7 1329.01 1440.16 1318.35 1440.16C1306.26 1440.16 1296.12 1432.23 1295.21 1417.8H1352.15C1352.41 1415.33 1352.54 1413.25 1352.54 1410.65C1352.54 1391.15 1339.02 1376.59 1318.35 1376.59C1297.55 1376.59 1283.12 1390.76 1283.12 1413.25C1283.12 1435.87 1298.07 1450.17 1318.35 1450.17C1336.03 1450.17 1347.47 1440.03 1351.11 1427.03ZM1420.29 1449H1431.99V1407.01C1431.99 1386.6 1419.38 1376.46 1402.87 1376.46C1393.25 1376.46 1384.67 1380.49 1379.99 1387.9V1377.76H1368.16V1449H1379.99V1409.61C1379.99 1394.27 1388.31 1386.73 1400.4 1386.73C1412.36 1386.73 1420.29 1394.14 1420.29 1408.7V1449ZM1453.91 1429.5C1453.91 1443.8 1461.06 1449 1473.67 1449H1484.33V1438.99H1475.62C1468.34 1438.99 1465.74 1436.52 1465.74 1429.5V1387.51H1484.33V1377.76H1465.74V1359.82H1453.91V1377.76H1444.68V1387.51H1453.91V1429.5ZM305.52 1608.25C305.52 1630.87 319.95 1645.17 340.23 1645.17C357.91 1645.17 369.48 1635.29 373.12 1621.12H360.38C357.78 1630.09 350.76 1635.16 340.23 1635.16C327.23 1635.16 317.61 1625.93 317.61 1608.25C317.61 1590.83 327.23 1581.6 340.23 1581.6C350.76 1581.6 357.91 1587.06 360.38 1595.64H373.12C369.48 1580.69 357.91 1571.59 340.23 1571.59C319.95 1571.59 305.52 1585.89 305.52 1608.25ZM456.505 1608.25C456.505 1585.76 440.775 1571.59 420.495 1571.59C400.345 1571.59 384.485 1585.76 384.485 1608.25C384.485 1630.87 399.825 1645.17 419.975 1645.17C440.255 1645.17 456.505 1630.87 456.505 1608.25ZM396.575 1608.25C396.575 1590.31 407.885 1581.86 420.365 1581.86C432.585 1581.86 444.415 1590.31 444.415 1608.25C444.415 1626.32 432.325 1634.77 419.975 1634.77C407.625 1634.77 396.575 1626.32 396.575 1608.25ZM574.889 1644H586.589V1602.01C586.589 1581.6 573.979 1571.46 557.729 1571.46C546.809 1571.46 536.669 1577.05 532.509 1587.32C527.829 1576.66 518.079 1571.46 506.379 1571.46C497.019 1571.46 488.569 1575.49 483.889 1583.03V1572.76H472.059V1644H483.889V1604.74C483.889 1589.4 492.079 1581.73 504.039 1581.73C515.739 1581.73 523.539 1589.14 523.539 1603.7V1644H535.239V1604.74C535.239 1589.4 543.429 1581.73 555.389 1581.73C567.089 1581.73 574.889 1589.14 574.889 1603.7V1644ZM708.824 1644H720.524V1602.01C720.524 1581.6 707.914 1571.46 691.664 1571.46C680.744 1571.46 670.604 1577.05 666.444 1587.32C661.764 1576.66 652.014 1571.46 640.314 1571.46C630.954 1571.46 622.504 1575.49 617.824 1583.03V1572.76H605.994V1644H617.824V1604.74C617.824 1589.4 626.014 1581.73 637.974 1581.73C649.674 1581.73 657.474 1589.14 657.474 1603.7V1644H669.174V1604.74C669.174 1589.4 677.364 1581.73 689.324 1581.73C701.024 1581.73 708.824 1589.14 708.824 1603.7V1644ZM803.11 1572.76H791.28V1611.89C791.28 1627.23 783.09 1634.77 770.87 1634.77C758.91 1634.77 750.98 1627.36 750.98 1612.93V1572.76H739.28V1614.49C739.28 1634.9 752.15 1645.04 768.53 1645.04C778.02 1645.04 786.73 1640.88 791.28 1633.47V1644H803.11V1572.76ZM875.214 1644H886.914V1602.01C886.914 1581.6 874.304 1571.46 857.794 1571.46C848.174 1571.46 839.594 1575.49 834.914 1582.9V1572.76H823.084V1644H834.914V1604.61C834.914 1589.27 843.234 1581.73 855.324 1581.73C867.284 1581.73 875.214 1589.14 875.214 1603.7V1644ZM906.239 1644H918.069V1572.76H906.239V1644ZM912.349 1561.19C916.639 1561.19 920.149 1557.68 920.149 1553.13C920.149 1548.58 916.639 1545.07 912.349 1545.07C907.799 1545.07 904.289 1548.58 904.289 1553.13C904.289 1557.68 907.799 1561.19 912.349 1561.19ZM933.811 1608.25C933.811 1630.87 948.241 1645.17 968.521 1645.17C986.201 1645.17 997.771 1635.29 1001.41 1621.12H988.671C986.071 1630.09 979.051 1635.16 968.521 1635.16C955.521 1635.16 945.901 1625.93 945.901 1608.25C945.901 1590.83 955.521 1581.6 968.521 1581.6C979.051 1581.6 986.201 1587.06 988.671 1595.64H1001.41C997.771 1580.69 986.201 1571.59 968.521 1571.59C948.241 1571.59 933.811 1585.89 933.811 1608.25ZM1012.78 1608.12C1012.78 1630.22 1027.47 1645.17 1046.45 1645.17C1059.58 1645.17 1068.81 1638.41 1073.1 1630.74V1644H1085.06V1572.76H1073.1V1585.76C1068.94 1578.35 1059.84 1571.59 1046.58 1571.59C1027.47 1571.59 1012.78 1585.89 1012.78 1608.12ZM1073.1 1608.25C1073.1 1625.02 1061.92 1634.77 1048.92 1634.77C1035.92 1634.77 1024.87 1624.89 1024.87 1608.12C1024.87 1591.35 1035.92 1581.86 1048.92 1581.86C1061.92 1581.86 1073.1 1591.74 1073.1 1608.25ZM1107.65 1624.5C1107.65 1638.8 1114.8 1644 1127.41 1644H1138.07V1633.99H1129.36C1122.08 1633.99 1119.48 1631.52 1119.48 1624.5V1582.51H1138.07V1572.76H1119.48V1554.82H1107.65V1572.76H1098.42V1582.51H1107.65V1624.5ZM1152.4 1644H1164.23V1572.76H1152.4V1644ZM1158.51 1561.19C1162.8 1561.19 1166.31 1557.68 1166.31 1553.13C1166.31 1548.58 1162.8 1545.07 1158.51 1545.07C1153.96 1545.07 1150.45 1548.58 1150.45 1553.13C1150.45 1557.68 1153.96 1561.19 1158.51 1561.19ZM1251.99 1608.25C1251.99 1585.76 1236.26 1571.59 1215.98 1571.59C1195.83 1571.59 1179.97 1585.76 1179.97 1608.25C1179.97 1630.87 1195.31 1645.17 1215.46 1645.17C1235.74 1645.17 1251.99 1630.87 1251.99 1608.25ZM1192.06 1608.25C1192.06 1590.31 1203.37 1581.86 1215.85 1581.86C1228.07 1581.86 1239.9 1590.31 1239.9 1608.25C1239.9 1626.32 1227.81 1634.77 1215.46 1634.77C1203.11 1634.77 1192.06 1626.32 1192.06 1608.25ZM1319.68 1644H1331.38V1602.01C1331.38 1581.6 1318.77 1571.46 1302.26 1571.46C1292.64 1571.46 1284.06 1575.49 1279.38 1582.9V1572.76H1267.55V1644H1279.38V1604.61C1279.38 1589.27 1287.7 1581.73 1299.79 1581.73C1311.75 1581.73 1319.68 1589.14 1319.68 1603.7V1644ZM1436.58 1624.63C1436.06 1599.15 1394.72 1608.38 1394.72 1591.48C1394.72 1585.76 1399.92 1581.6 1408.63 1581.6C1418.12 1581.6 1423.58 1586.8 1424.1 1593.95H1435.93C1435.15 1580.04 1424.75 1571.59 1409.02 1571.59C1393.16 1571.59 1382.89 1580.56 1382.89 1591.48C1382.89 1618 1425.01 1608.77 1425.01 1624.63C1425.01 1630.48 1419.81 1635.16 1410.45 1635.16C1400.44 1635.16 1394.33 1629.96 1393.68 1623.07H1381.46C1382.24 1636.07 1393.94 1645.17 1410.58 1645.17C1426.31 1645.17 1436.58 1636.33 1436.58 1624.63ZM1453.28 1644H1465.11V1612.54L1493.06 1644H1509.18L1475.51 1608.25L1509.05 1572.76H1492.54L1465.11 1604.35V1547.8H1453.28V1644ZM1520.18 1644H1532.01V1572.76H1520.18V1644ZM1526.29 1561.19C1530.58 1561.19 1534.09 1557.68 1534.09 1553.13C1534.09 1548.58 1530.58 1545.07 1526.29 1545.07C1521.74 1545.07 1518.23 1548.58 1518.23 1553.13C1518.23 1557.68 1521.74 1561.19 1526.29 1561.19ZM1552.18 1644H1564.01V1547.8H1552.18V1644ZM1584.17 1644H1596V1547.8H1584.17V1644ZM1667.38 1624.63C1666.86 1599.15 1625.52 1608.38 1625.52 1591.48C1625.52 1585.76 1630.72 1581.6 1639.43 1581.6C1648.92 1581.6 1654.38 1586.8 1654.9 1593.95H1666.73C1665.95 1580.04 1655.55 1571.59 1639.82 1571.59C1623.96 1571.59 1613.69 1580.56 1613.69 1591.48C1613.69 1618 1655.81 1608.77 1655.81 1624.63C1655.81 1630.48 1650.61 1635.16 1641.25 1635.16C1631.24 1635.16 1625.13 1629.96 1624.48 1623.07H1612.26C1613.04 1636.07 1624.74 1645.17 1641.38 1645.17C1657.11 1645.17 1667.38 1636.33 1667.38 1624.63ZM287.619 1803.12C287.619 1825.22 302.309 1840.17 321.289 1840.17C334.419 1840.17 343.649 1833.41 347.939 1825.74V1839H359.899V1767.76H347.939V1780.76C343.779 1773.35 334.679 1766.59 321.419 1766.59C302.309 1766.59 287.619 1780.89 287.619 1803.12ZM347.939 1803.25C347.939 1820.02 336.759 1829.77 323.759 1829.77C310.759 1829.77 299.709 1819.89 299.709 1803.12C299.709 1786.35 310.759 1776.86 323.759 1776.86C336.759 1776.86 347.939 1786.74 347.939 1803.25ZM432.021 1839H443.721V1797.01C443.721 1776.6 431.111 1766.46 414.601 1766.46C404.981 1766.46 396.401 1770.49 391.721 1777.9V1767.76H379.891V1839H391.721V1799.61C391.721 1784.27 400.041 1776.73 412.131 1776.73C424.091 1776.73 432.021 1784.14 432.021 1798.7V1839ZM458.625 1803.12C458.625 1825.22 473.315 1840.17 492.425 1840.17C505.425 1840.17 514.655 1833.54 518.945 1825.61V1839H530.905V1742.8H518.945V1780.5C514.005 1772.31 503.735 1766.59 492.555 1766.59C473.315 1766.59 458.625 1780.89 458.625 1803.12ZM518.945 1803.25C518.945 1820.02 507.765 1829.77 494.765 1829.77C481.765 1829.77 470.715 1819.89 470.715 1803.12C470.715 1786.35 481.765 1776.86 494.765 1776.86C507.765 1776.86 518.945 1786.74 518.945 1803.25ZM585.555 1839H597.385V1748.39H585.555V1839ZM647.785 1803.12C647.785 1825.22 662.475 1840.17 681.455 1840.17C694.585 1840.17 703.815 1833.41 708.105 1825.74V1839H720.065V1767.76H708.105V1780.76C703.945 1773.35 694.845 1766.59 681.585 1766.59C662.475 1766.59 647.785 1780.89 647.785 1803.12ZM708.105 1803.25C708.105 1820.02 696.925 1829.77 683.925 1829.77C670.925 1829.77 659.875 1819.89 659.875 1803.12C659.875 1786.35 670.925 1776.86 683.925 1776.86C696.925 1776.86 708.105 1786.74 708.105 1803.25ZM842.887 1839H854.587V1797.01C854.587 1776.6 841.977 1766.46 825.727 1766.46C814.807 1766.46 804.667 1772.05 800.507 1782.32C795.827 1771.66 786.077 1766.46 774.377 1766.46C765.017 1766.46 756.567 1770.49 751.887 1778.03V1767.76H740.057V1839H751.887V1799.74C751.887 1784.4 760.077 1776.73 772.037 1776.73C783.737 1776.73 791.537 1784.14 791.537 1798.7V1839H803.237V1799.74C803.237 1784.4 811.427 1776.73 823.387 1776.73C835.087 1776.73 842.887 1784.14 842.887 1798.7V1839ZM904.231 1803.12C904.231 1825.22 918.921 1840.17 937.901 1840.17C951.031 1840.17 960.261 1833.41 964.551 1825.74V1839H976.511V1767.76H964.551V1780.76C960.391 1773.35 951.291 1766.59 938.031 1766.59C918.921 1766.59 904.231 1780.89 904.231 1803.12ZM964.551 1803.25C964.551 1820.02 953.371 1829.77 940.371 1829.77C927.371 1829.77 916.321 1819.89 916.321 1803.12C916.321 1786.35 927.371 1776.86 940.371 1776.86C953.371 1776.86 964.551 1786.74 964.551 1803.25ZM1008.33 1781.02V1742.8H996.502V1839H1008.33V1825.87C1012.75 1833.67 1021.98 1840.17 1034.98 1840.17C1054.09 1840.17 1068.78 1825.22 1068.78 1803.12C1068.78 1780.89 1054.22 1766.59 1034.98 1766.59C1022.37 1766.59 1012.88 1773.09 1008.33 1781.02ZM1056.69 1803.12C1056.69 1819.89 1045.64 1829.77 1032.51 1829.77C1019.64 1829.77 1008.33 1820.02 1008.33 1803.25C1008.33 1786.74 1019.64 1776.86 1032.51 1776.86C1045.64 1776.86 1056.69 1786.35 1056.69 1803.12ZM1084.35 1839H1096.18V1742.8H1084.35V1839ZM1146.64 1776.6C1158.86 1776.6 1169.26 1784.27 1169.13 1798.18H1124.15C1125.45 1784.27 1135.07 1776.6 1146.64 1776.6ZM1179.92 1817.03H1167.18C1164.58 1824.7 1157.82 1830.16 1147.16 1830.16C1135.07 1830.16 1124.93 1822.23 1124.02 1807.8H1180.96C1181.22 1805.33 1181.35 1803.25 1181.35 1800.65C1181.35 1781.15 1167.83 1766.59 1147.16 1766.59C1126.36 1766.59 1111.93 1780.76 1111.93 1803.25C1111.93 1825.87 1126.88 1840.17 1147.16 1840.17C1164.84 1840.17 1176.28 1830.03 1179.92 1817.03ZM1234.22 1819.5C1234.22 1833.8 1241.37 1839 1253.98 1839H1264.64V1828.99H1255.93C1248.65 1828.99 1246.05 1826.52 1246.05 1819.5V1777.51H1264.64V1767.76H1246.05V1749.82H1234.22V1767.76H1224.99V1777.51H1234.22V1819.5ZM1346.57 1803.25C1346.57 1780.76 1330.84 1766.59 1310.56 1766.59C1290.41 1766.59 1274.55 1780.76 1274.55 1803.25C1274.55 1825.87 1289.89 1840.17 1310.04 1840.17C1330.32 1840.17 1346.57 1825.87 1346.57 1803.25ZM1286.64 1803.25C1286.64 1785.31 1297.95 1776.86 1310.43 1776.86C1322.65 1776.86 1334.48 1785.31 1334.48 1803.25C1334.48 1821.32 1322.39 1829.77 1310.04 1829.77C1297.69 1829.77 1286.64 1821.32 1286.64 1803.25ZM1410.7 1839H1422.92L1440.08 1782.45L1457.24 1839H1469.46L1491.69 1767.76H1479.99L1463.87 1827.69L1446.58 1767.76H1434.49L1416.81 1827.56L1400.43 1767.76H1388.34L1410.7 1839ZM1571.03 1803.25C1571.03 1780.76 1555.3 1766.59 1535.02 1766.59C1514.87 1766.59 1499.01 1780.76 1499.01 1803.25C1499.01 1825.87 1514.35 1840.17 1534.5 1840.17C1554.78 1840.17 1571.03 1825.87 1571.03 1803.25ZM1511.1 1803.25C1511.1 1785.31 1522.41 1776.86 1534.89 1776.86C1547.11 1776.86 1558.94 1785.31 1558.94 1803.25C1558.94 1821.32 1546.85 1829.77 1534.5 1829.77C1522.15 1829.77 1511.1 1821.32 1511.1 1803.25ZM1598.41 1800.26C1598.41 1783.75 1606.99 1778.68 1618.3 1778.68H1621.42V1766.46C1610.11 1766.46 1602.44 1771.4 1598.41 1779.33V1767.76H1586.58V1839H1598.41V1800.26ZM1635.08 1839H1646.91V1807.54L1674.86 1839H1690.98L1657.31 1803.25L1690.85 1767.76H1674.34L1646.91 1799.35V1742.8H1635.08V1839ZM622.697 2034H634.917L652.077 1977.45L669.237 2034H681.457L703.687 1962.76H691.987L675.867 2022.69L658.577 1962.76H646.487L628.807 2022.56L612.427 1962.76H600.337L622.697 2034ZM715.428 2034H727.258V1962.76H715.428V2034ZM721.538 1951.19C725.828 1951.19 729.338 1947.68 729.338 1943.13C729.338 1938.58 725.828 1935.07 721.538 1935.07C716.988 1935.07 713.478 1938.58 713.478 1943.13C713.478 1947.68 716.988 1951.19 721.538 1951.19ZM750.02 2014.5C750.02 2028.8 757.17 2034 769.78 2034H780.44V2023.99H771.73C764.45 2023.99 761.85 2021.52 761.85 2014.5V1972.51H780.44V1962.76H761.85V1944.82H750.02V1962.76H740.79V1972.51H750.02V2014.5ZM794.774 2034H806.604V1994.61C806.604 1979.27 814.924 1971.73 827.014 1971.73C838.974 1971.73 846.904 1979.14 846.904 1993.7V2034H858.604V1992.01C858.604 1971.6 845.994 1961.46 830.134 1961.46C820.124 1961.46 811.284 1965.49 806.604 1973.03V1937.8H794.774V2034ZM980.186 1998.25C980.186 1975.76 964.456 1961.59 944.176 1961.59C924.026 1961.59 908.166 1975.76 908.166 1998.25C908.166 2020.87 923.506 2035.17 943.656 2035.17C963.936 2035.17 980.186 2020.87 980.186 1998.25ZM920.256 1998.25C920.256 1980.31 931.566 1971.86 944.046 1971.86C956.266 1971.86 968.096 1980.31 968.096 1998.25C968.096 2016.32 956.006 2024.77 943.656 2024.77C931.306 2024.77 920.256 2016.32 920.256 1998.25ZM998.34 2014.5C998.34 2028.8 1005.49 2034 1018.1 2034H1028.76V2023.99H1020.05C1012.77 2023.99 1010.17 2021.52 1010.17 2014.5V1972.51H1028.76V1962.76H1010.17V1944.82H998.34V1962.76H989.11V1972.51H998.34V2014.5ZM1043.09 2034H1054.92V1994.61C1054.92 1979.27 1063.24 1971.73 1075.33 1971.73C1087.29 1971.73 1095.22 1979.14 1095.22 1993.7V2034H1106.92V1992.01C1106.92 1971.6 1094.31 1961.46 1078.45 1961.46C1068.44 1961.46 1059.6 1965.49 1054.92 1973.03V1937.8H1043.09V2034ZM1156.54 1971.6C1168.76 1971.6 1179.16 1979.27 1179.03 1993.18H1134.05C1135.35 1979.27 1144.97 1971.6 1156.54 1971.6ZM1189.82 2012.03H1177.08C1174.48 2019.7 1167.72 2025.16 1157.06 2025.16C1144.97 2025.16 1134.83 2017.23 1133.92 2002.8H1190.86C1191.12 2000.33 1191.25 1998.25 1191.25 1995.65C1191.25 1976.15 1177.73 1961.59 1157.06 1961.59C1136.26 1961.59 1121.83 1975.76 1121.83 1998.25C1121.83 2020.87 1136.78 2035.17 1157.06 2035.17C1174.74 2035.17 1186.18 2025.03 1189.82 2012.03ZM1218.69 1995.26C1218.69 1978.75 1227.27 1973.68 1238.58 1973.68H1241.7V1961.46C1230.39 1961.46 1222.72 1966.4 1218.69 1974.33V1962.76H1206.86V2034H1218.69V1995.26ZM1306.58 2014.63C1306.06 1989.15 1264.72 1998.38 1264.72 1981.48C1264.72 1975.76 1269.92 1971.6 1278.63 1971.6C1288.12 1971.6 1293.58 1976.8 1294.1 1983.95H1305.93C1305.15 1970.04 1294.75 1961.59 1279.02 1961.59C1263.16 1961.59 1252.89 1970.56 1252.89 1981.48C1252.89 2008 1295.01 1998.77 1295.01 2014.63C1295.01 2020.48 1289.81 2025.16 1280.45 2025.16C1270.44 2025.16 1264.33 2019.96 1263.68 2013.07H1251.46C1252.24 2026.07 1263.94 2035.17 1280.58 2035.17C1296.31 2035.17 1306.58 2026.33 1306.58 2014.63ZM1334.85 2026.72C1334.85 2022.17 1331.34 2018.66 1327.05 2018.66C1322.5 2018.66 1318.99 2022.17 1318.99 2026.72C1318.99 2031.27 1322.5 2034.78 1327.05 2034.78C1331.34 2034.78 1334.85 2031.27 1334.85 2026.72Z" fill="black"/>
<path d="M987 811.05C980.44 811.05 973.945 812.342 967.885 814.852C961.825 817.362 956.318 821.042 951.68 825.68C947.042 830.318 943.362 835.825 940.852 841.885C938.342 847.945 937.05 854.44 937.05 861C937.05 867.559 938.342 874.055 940.852 880.115C943.362 886.175 947.042 891.682 951.68 896.32C956.318 900.958 961.825 904.637 967.885 907.148C973.945 909.658 980.44 910.95 987 910.95C1000.25 910.95 1012.95 905.687 1022.32 896.32C1031.69 886.952 1036.95 874.247 1036.95 861C1036.95 847.752 1031.69 835.047 1022.32 825.68C1012.95 816.312 1000.25 811.05 987 811.05V811.05ZM1099.5 836C1089.55 836 1080.02 839.951 1072.98 846.983C1065.95 854.016 1062 863.554 1062 873.5C1062 883.445 1065.95 892.984 1072.98 900.016C1080.02 907.049 1089.55 911 1099.5 911C1109.45 911 1118.98 907.049 1126.02 900.016C1133.05 892.984 1137 883.445 1137 873.5C1137 863.554 1133.05 854.016 1126.02 846.983C1118.98 839.951 1109.45 836 1099.5 836V836ZM874.5 836C864.554 836 855.016 839.951 847.983 846.983C840.951 854.016 837 863.554 837 873.5C837 883.445 840.951 892.984 847.983 900.016C855.016 907.049 864.554 911 874.5 911C884.446 911 893.984 907.049 901.017 900.016C908.049 892.984 912 883.445 912 873.5C912 863.554 908.049 854.016 901.017 846.983C893.984 839.951 884.446 836 874.5 836ZM912 960.825C912.046 954.225 914.701 947.911 919.384 943.26C924.067 938.61 930.4 936 937 936H1037C1043.63 936 1049.99 938.634 1054.68 943.322C1059.37 948.011 1062 954.369 1062 961V1036C1062 1043.87 1060.77 1051.69 1058.35 1059.17C1052.81 1076.14 1041.41 1090.58 1026.19 1099.9C1010.96 1109.21 992.919 1112.8 975.291 1110.01C957.663 1107.22 941.607 1098.23 930.007 1084.67C918.407 1071.1 912.023 1053.85 912 1036V960.825ZM887 961C887 951.875 889.425 943.35 893.7 936H837C830.37 936 824.011 938.634 819.322 943.322C814.634 948.011 812 954.369 812 961V1023.5C811.997 1033.73 814.506 1043.81 819.307 1052.85C824.108 1061.88 831.054 1069.6 839.536 1075.33C848.018 1081.05 857.775 1084.6 867.951 1085.68C878.128 1086.75 888.412 1085.31 897.9 1081.47C890.704 1067.39 886.968 1051.79 887 1035.97V961ZM1087 961V1036C1087 1052.37 1083.08 1067.82 1076.1 1081.47C1085.59 1085.31 1095.87 1086.75 1106.05 1085.68C1116.22 1084.6 1125.98 1081.05 1134.46 1075.33C1142.95 1069.6 1149.89 1061.88 1154.69 1052.85C1159.49 1043.81 1162 1033.73 1162 1023.5V961C1162 954.369 1159.37 948.011 1154.68 943.322C1149.99 938.634 1143.63 936 1137 936H1080.3C1084.55 943.35 1087 951.875 1087 961Z" fill="black"/>
</svg>
