<svg width="1975" height="2438" viewBox="0 0 1975 2438" fill="none" xmlns="http://www.w3.org/2000/svg">
<rect width="1975" height="2438" rx="20" fill="white"/>
<path d="M590.788 354.2C590.788 365.2 584.788 371.8 571.988 371.8H550.788V337H571.988C584.788 337 590.788 343.8 590.788 354.2ZM516.588 308.6V449H550.788V396H558.988L588.188 449H626.788L594.388 393.4C615.988 387 625.588 370.4 625.588 352.8C625.588 328.4 608.388 308.6 573.988 308.6H516.588ZM696.256 363.2C707.656 363.2 717.256 370.2 717.256 382.4H674.456C676.456 370 685.056 363.2 696.256 363.2ZM749.656 412H713.256C710.456 418 705.056 422.8 695.456 422.8C684.456 422.8 675.456 416 674.256 401.4H751.656C752.056 398 752.256 394.6 752.256 391.4C752.256 357.4 729.256 335.8 696.656 335.8C663.456 335.8 640.256 357.8 640.256 393.2C640.256 428.6 663.856 450.6 696.656 450.6C724.456 450.6 744.256 433.8 749.656 412ZM860.898 416.6C860.298 375 799.898 387.6 799.898 369.8C799.898 364.4 804.298 361.2 812.298 361.2C821.898 361.2 827.698 366.2 828.698 373.8H860.298C858.098 351.8 842.098 335.8 813.298 335.8C784.098 335.8 767.898 351.4 767.898 370.4C767.898 411.4 828.698 398.4 828.698 416.4C828.698 421.4 824.098 425.4 815.298 425.4C805.898 425.4 798.898 420.2 798.098 412.4H764.298C765.898 434 785.898 450.6 815.698 450.6C843.698 450.6 860.898 436 860.898 416.6ZM931.022 363.2C942.422 363.2 952.022 370.2 952.022 382.4H909.222C911.222 370 919.822 363.2 931.022 363.2ZM984.422 412H948.022C945.222 418 939.822 422.8 930.222 422.8C919.222 422.8 910.222 416 909.022 401.4H986.422C986.822 398 987.022 394.6 987.022 391.4C987.022 357.4 964.022 335.8 931.422 335.8C898.222 335.8 875.022 357.8 875.022 393.2C875.022 428.6 898.622 450.6 931.422 450.6C959.222 450.6 979.022 433.8 984.422 412ZM998.264 393C998.264 428.2 1020.06 450.6 1047.26 450.6C1063.86 450.6 1075.66 443 1081.86 433.2V449H1116.06V337.4H1081.86V353.2C1075.86 343.4 1064.06 335.8 1047.46 335.8C1020.06 335.8 998.264 357.8 998.264 393ZM1081.86 393.2C1081.86 411 1070.46 420.8 1057.46 420.8C1044.66 420.8 1033.06 410.8 1033.06 393C1033.06 375.2 1044.66 365.6 1057.46 365.6C1070.46 365.6 1081.86 375.4 1081.86 393.2ZM1175.01 397.2C1175.01 378 1184.41 372.4 1200.61 372.4H1210.01V336.2C1195.01 336.2 1182.81 344.2 1175.01 356V337.4H1140.81V449H1175.01V397.2ZM1219.55 393.2C1219.55 428.6 1242.75 450.6 1275.55 450.6C1303.55 450.6 1323.35 434.4 1329.15 408.6H1292.75C1289.75 416.8 1284.35 421.4 1274.95 421.4C1262.75 421.4 1254.35 411.8 1254.35 393.2C1254.35 374.6 1262.75 365 1274.95 365C1284.35 365 1289.95 370 1292.75 377.8H1329.15C1323.35 351.2 1303.55 335.8 1275.55 335.8C1242.75 335.8 1219.55 358 1219.55 393.2ZM1347.45 449H1381.65V388.4C1381.65 373.2 1390.05 364.8 1403.05 364.8C1416.05 364.8 1424.45 373.2 1424.45 388.4V449H1458.45V383.8C1458.45 353.8 1441.45 336.2 1416.05 336.2C1400.65 336.2 1388.45 342.8 1381.65 352.4V301H1347.45V449Z" fill="black"/>
<path d="M428.577 1307H440.407V1216.39H428.577V1307ZM495.228 1307H507.058V1267.61C507.058 1252.27 515.378 1244.73 527.468 1244.73C539.428 1244.73 547.358 1252.14 547.358 1266.7V1307H559.058V1265.01C559.058 1244.6 546.448 1234.46 530.588 1234.46C520.578 1234.46 511.738 1238.49 507.058 1246.03V1210.8H495.228V1307ZM573.962 1271.12C573.962 1293.22 588.652 1308.17 607.632 1308.17C620.762 1308.17 629.992 1301.41 634.282 1293.74V1307H646.242V1235.76H634.282V1248.76C630.122 1241.35 621.022 1234.59 607.762 1234.59C588.652 1234.59 573.962 1248.89 573.962 1271.12ZM634.282 1271.25C634.282 1288.02 623.102 1297.77 610.102 1297.77C597.102 1297.77 586.052 1287.89 586.052 1271.12C586.052 1254.35 597.102 1244.86 610.102 1244.86C623.102 1244.86 634.282 1254.74 634.282 1271.25ZM657.784 1235.76L685.734 1307H699.514L727.464 1235.76H714.854L692.754 1296.08L670.524 1235.76H657.784ZM769.395 1244.6C781.615 1244.6 792.015 1252.27 791.885 1266.18H746.905C748.205 1252.27 757.825 1244.6 769.395 1244.6ZM802.675 1285.03H789.935C787.335 1292.7 780.575 1298.16 769.915 1298.16C757.825 1298.16 747.685 1290.23 746.775 1275.8H803.715C803.975 1273.33 804.105 1271.25 804.105 1268.65C804.105 1249.15 790.585 1234.59 769.915 1234.59C749.115 1234.59 734.685 1248.76 734.685 1271.25C734.685 1293.87 749.635 1308.17 769.915 1308.17C787.595 1308.17 799.035 1298.03 802.675 1285.03ZM849.958 1271.25C849.958 1293.87 864.388 1308.17 884.668 1308.17C902.348 1308.17 913.918 1298.29 917.558 1284.12H904.818C902.218 1293.09 895.198 1298.16 884.668 1298.16C871.668 1298.16 862.048 1288.93 862.048 1271.25C862.048 1253.83 871.668 1244.6 884.668 1244.6C895.198 1244.6 902.348 1250.06 904.818 1258.64H917.558C913.918 1243.69 902.348 1234.59 884.668 1234.59C864.388 1234.59 849.958 1248.89 849.958 1271.25ZM1000.94 1271.25C1000.94 1248.76 985.213 1234.59 964.933 1234.59C944.783 1234.59 928.923 1248.76 928.923 1271.25C928.923 1293.87 944.263 1308.17 964.413 1308.17C984.693 1308.17 1000.94 1293.87 1000.94 1271.25ZM941.013 1271.25C941.013 1253.31 952.323 1244.86 964.803 1244.86C977.023 1244.86 988.853 1253.31 988.853 1271.25C988.853 1289.32 976.763 1297.77 964.413 1297.77C952.063 1297.77 941.013 1289.32 941.013 1271.25ZM1068.63 1307H1080.33V1265.01C1080.33 1244.6 1067.72 1234.46 1051.21 1234.46C1041.59 1234.46 1033.01 1238.49 1028.33 1245.9V1235.76H1016.5V1307H1028.33V1267.61C1028.33 1252.27 1036.65 1244.73 1048.74 1244.73C1060.7 1244.73 1068.63 1252.14 1068.63 1266.7V1307ZM1095.23 1271.12C1095.23 1293.22 1109.92 1308.17 1129.03 1308.17C1142.03 1308.17 1151.26 1301.54 1155.55 1293.61V1307H1167.51V1210.8H1155.55V1248.5C1150.61 1240.31 1140.34 1234.59 1129.16 1234.59C1109.92 1234.59 1095.23 1248.89 1095.23 1271.12ZM1155.55 1271.25C1155.55 1288.02 1144.37 1297.77 1131.37 1297.77C1118.37 1297.77 1107.32 1287.89 1107.32 1271.12C1107.32 1254.35 1118.37 1244.86 1131.37 1244.86C1144.37 1244.86 1155.55 1254.74 1155.55 1271.25ZM1250.68 1235.76H1238.85V1274.89C1238.85 1290.23 1230.66 1297.77 1218.44 1297.77C1206.48 1297.77 1198.55 1290.36 1198.55 1275.93V1235.76H1186.85V1277.49C1186.85 1297.9 1199.72 1308.04 1216.1 1308.04C1225.59 1308.04 1234.3 1303.88 1238.85 1296.47V1307H1250.68V1235.76ZM1266.24 1271.25C1266.24 1293.87 1280.67 1308.17 1300.95 1308.17C1318.63 1308.17 1330.2 1298.29 1333.84 1284.12H1321.1C1318.5 1293.09 1311.48 1298.16 1300.95 1298.16C1287.95 1298.16 1278.33 1288.93 1278.33 1271.25C1278.33 1253.83 1287.95 1244.6 1300.95 1244.6C1311.48 1244.6 1318.63 1250.06 1321.1 1258.64H1333.84C1330.2 1243.69 1318.63 1234.59 1300.95 1234.59C1280.67 1234.59 1266.24 1248.89 1266.24 1271.25ZM1352.22 1287.5C1352.22 1301.8 1359.37 1307 1371.98 1307H1382.64V1296.99H1373.93C1366.65 1296.99 1364.05 1294.52 1364.05 1287.5V1245.51H1382.64V1235.76H1364.05V1217.82H1352.22V1235.76H1342.99V1245.51H1352.22V1287.5ZM1427.27 1244.6C1439.49 1244.6 1449.89 1252.27 1449.76 1266.18H1404.78C1406.08 1252.27 1415.7 1244.6 1427.27 1244.6ZM1460.55 1285.03H1447.81C1445.21 1292.7 1438.45 1298.16 1427.79 1298.16C1415.7 1298.16 1405.56 1290.23 1404.65 1275.8H1461.59C1461.85 1273.33 1461.98 1271.25 1461.98 1268.65C1461.98 1249.15 1448.46 1234.59 1427.79 1234.59C1406.99 1234.59 1392.56 1248.76 1392.56 1271.25C1392.56 1293.87 1407.51 1308.17 1427.79 1308.17C1445.47 1308.17 1456.91 1298.03 1460.55 1285.03ZM1473.17 1271.12C1473.17 1293.22 1487.86 1308.17 1506.97 1308.17C1519.97 1308.17 1529.2 1301.54 1533.49 1293.61V1307H1545.45V1210.8H1533.49V1248.5C1528.55 1240.31 1518.28 1234.59 1507.1 1234.59C1487.86 1234.59 1473.17 1248.89 1473.17 1271.12ZM1533.49 1271.25C1533.49 1288.02 1522.31 1297.77 1509.31 1297.77C1496.31 1297.77 1485.26 1287.89 1485.26 1271.12C1485.26 1254.35 1496.31 1244.86 1509.31 1244.86C1522.31 1244.86 1533.49 1254.74 1533.49 1271.25ZM524.427 1502H536.257V1430.76H524.427V1502ZM530.537 1419.19C534.827 1419.19 538.337 1415.68 538.337 1411.13C538.337 1406.58 534.827 1403.07 530.537 1403.07C525.987 1403.07 522.477 1406.58 522.477 1411.13C522.477 1415.68 525.987 1419.19 530.537 1419.19ZM608.549 1502H620.249V1460.01C620.249 1439.6 607.639 1429.46 591.129 1429.46C581.509 1429.46 572.929 1433.49 568.249 1440.9V1430.76H556.419V1502H568.249V1462.61C568.249 1447.27 576.569 1439.73 588.659 1439.73C600.619 1439.73 608.549 1447.14 608.549 1461.7V1502ZM642.173 1482.5C642.173 1496.8 649.323 1502 661.933 1502H672.593V1491.99H663.883C656.603 1491.99 654.003 1489.52 654.003 1482.5V1440.51H672.593V1430.76H654.003V1412.82H642.173V1430.76H632.943V1440.51H642.173V1482.5ZM717.217 1439.6C729.437 1439.6 739.837 1447.27 739.707 1461.18H694.727C696.027 1447.27 705.647 1439.6 717.217 1439.6ZM750.497 1480.03H737.757C735.157 1487.7 728.397 1493.16 717.737 1493.16C705.647 1493.16 695.507 1485.23 694.597 1470.8H751.537C751.797 1468.33 751.927 1466.25 751.927 1463.65C751.927 1444.15 738.407 1429.59 717.737 1429.59C696.937 1429.59 682.507 1443.76 682.507 1466.25C682.507 1488.87 697.457 1503.17 717.737 1503.17C735.417 1503.17 746.857 1493.03 750.497 1480.03ZM779.372 1463.26C779.372 1446.75 787.952 1441.68 799.262 1441.68H802.382V1429.46C791.072 1429.46 783.402 1434.4 779.372 1442.33V1430.76H767.542V1502H779.372V1463.26ZM807.588 1430.76L835.538 1502H849.318L877.268 1430.76H864.658L842.558 1491.08L820.328 1430.76H807.588ZM888.909 1502H900.739V1430.76H888.909V1502ZM895.019 1419.19C899.309 1419.19 902.819 1415.68 902.819 1411.13C902.819 1406.58 899.309 1403.07 895.019 1403.07C890.469 1403.07 886.959 1406.58 886.959 1411.13C886.959 1415.68 890.469 1419.19 895.019 1419.19ZM951.192 1439.6C963.412 1439.6 973.812 1447.27 973.682 1461.18H928.702C930.002 1447.27 939.622 1439.6 951.192 1439.6ZM984.472 1480.03H971.732C969.132 1487.7 962.372 1493.16 951.712 1493.16C939.622 1493.16 929.482 1485.23 928.572 1470.8H985.512C985.772 1468.33 985.902 1466.25 985.902 1463.65C985.902 1444.15 972.382 1429.59 951.712 1429.59C930.912 1429.59 916.482 1443.76 916.482 1466.25C916.482 1488.87 931.432 1503.17 951.712 1503.17C969.392 1503.17 980.832 1493.03 984.472 1480.03ZM1015.43 1502H1027.65L1044.81 1445.45L1061.97 1502H1074.19L1096.42 1430.76H1084.72L1068.6 1490.69L1051.31 1430.76H1039.22L1021.54 1490.56L1005.16 1430.76H993.067L1015.43 1502ZM1159.38 1482.63C1158.86 1457.15 1117.52 1466.38 1117.52 1449.48C1117.52 1443.76 1122.72 1439.6 1131.43 1439.6C1140.92 1439.6 1146.38 1444.8 1146.9 1451.95H1158.73C1157.95 1438.04 1147.55 1429.59 1131.82 1429.59C1115.96 1429.59 1105.69 1438.56 1105.69 1449.48C1105.69 1476 1147.81 1466.77 1147.81 1482.63C1147.81 1488.48 1142.61 1493.16 1133.25 1493.16C1123.24 1493.16 1117.13 1487.96 1116.48 1481.07H1104.26C1105.04 1494.07 1116.74 1503.17 1133.38 1503.17C1149.11 1503.17 1159.38 1494.33 1159.38 1482.63ZM1206.32 1466.12C1206.32 1488.22 1221.01 1503.17 1239.99 1503.17C1253.12 1503.17 1262.35 1496.41 1266.64 1488.74V1502H1278.6V1430.76H1266.64V1443.76C1262.48 1436.35 1253.38 1429.59 1240.12 1429.59C1221.01 1429.59 1206.32 1443.89 1206.32 1466.12ZM1266.64 1466.25C1266.64 1483.02 1255.46 1492.77 1242.46 1492.77C1229.46 1492.77 1218.41 1482.89 1218.41 1466.12C1218.41 1449.35 1229.46 1439.86 1242.46 1439.86C1255.46 1439.86 1266.64 1449.74 1266.64 1466.25ZM1350.72 1502H1362.42V1460.01C1362.42 1439.6 1349.81 1429.46 1333.3 1429.46C1323.68 1429.46 1315.1 1433.49 1310.42 1440.9V1430.76H1298.59V1502H1310.42V1462.61C1310.42 1447.27 1318.74 1439.73 1330.83 1439.73C1342.79 1439.73 1350.72 1447.14 1350.72 1461.7V1502ZM1377.32 1466.12C1377.32 1488.22 1392.01 1503.17 1411.12 1503.17C1424.12 1503.17 1433.35 1496.54 1437.64 1488.61V1502H1449.6V1405.8H1437.64V1443.5C1432.7 1435.31 1422.43 1429.59 1411.25 1429.59C1392.01 1429.59 1377.32 1443.89 1377.32 1466.12ZM1437.64 1466.25C1437.64 1483.02 1426.46 1492.77 1413.46 1492.77C1400.46 1492.77 1389.41 1482.89 1389.41 1466.12C1389.41 1449.35 1400.46 1439.86 1413.46 1439.86C1426.46 1439.86 1437.64 1449.74 1437.64 1466.25ZM412.478 1658.26C412.478 1641.75 421.058 1636.68 432.368 1636.68H435.488V1624.46C424.178 1624.46 416.508 1629.4 412.478 1637.33V1625.76H400.648V1697H412.478V1658.26ZM479.434 1634.6C491.654 1634.6 502.054 1642.27 501.924 1656.18H456.944C458.244 1642.27 467.864 1634.6 479.434 1634.6ZM512.714 1675.03H499.974C497.374 1682.7 490.614 1688.16 479.954 1688.16C467.864 1688.16 457.724 1680.23 456.814 1665.8H513.754C514.014 1663.33 514.144 1661.25 514.144 1658.65C514.144 1639.15 500.624 1624.59 479.954 1624.59C459.154 1624.59 444.724 1638.76 444.724 1661.25C444.724 1683.87 459.674 1698.17 479.954 1698.17C497.634 1698.17 509.074 1688.03 512.714 1675.03ZM580.979 1677.63C580.459 1652.15 539.119 1661.38 539.119 1644.48C539.119 1638.76 544.319 1634.6 553.029 1634.6C562.519 1634.6 567.979 1639.8 568.499 1646.95H580.329C579.549 1633.04 569.149 1624.59 553.419 1624.59C537.559 1624.59 527.289 1633.56 527.289 1644.48C527.289 1671 569.409 1661.77 569.409 1677.63C569.409 1683.48 564.209 1688.16 554.849 1688.16C544.839 1688.16 538.729 1682.96 538.079 1676.07H525.859C526.639 1689.07 538.339 1698.17 554.979 1698.17C570.709 1698.17 580.979 1689.33 580.979 1677.63ZM627.969 1634.6C640.189 1634.6 650.589 1642.27 650.459 1656.18H605.479C606.779 1642.27 616.399 1634.6 627.969 1634.6ZM661.249 1675.03H648.509C645.909 1682.7 639.149 1688.16 628.489 1688.16C616.399 1688.16 606.259 1680.23 605.349 1665.8H662.289C662.549 1663.33 662.679 1661.25 662.679 1658.65C662.679 1639.15 649.159 1624.59 628.489 1624.59C607.689 1624.59 593.259 1638.76 593.259 1661.25C593.259 1683.87 608.209 1698.17 628.489 1698.17C646.169 1698.17 657.609 1688.03 661.249 1675.03ZM673.874 1661.12C673.874 1683.22 688.564 1698.17 707.544 1698.17C720.674 1698.17 729.904 1691.41 734.194 1683.74V1697H746.154V1625.76H734.194V1638.76C730.034 1631.35 720.934 1624.59 707.674 1624.59C688.564 1624.59 673.874 1638.89 673.874 1661.12ZM734.194 1661.25C734.194 1678.02 723.014 1687.77 710.014 1687.77C697.014 1687.77 685.964 1677.89 685.964 1661.12C685.964 1644.35 697.014 1634.86 710.014 1634.86C723.014 1634.86 734.194 1644.74 734.194 1661.25ZM777.976 1658.26C777.976 1641.75 786.556 1636.68 797.866 1636.68H800.986V1624.46C789.676 1624.46 782.006 1629.4 777.976 1637.33V1625.76H766.146V1697H777.976V1658.26ZM810.222 1661.25C810.222 1683.87 824.652 1698.17 844.932 1698.17C862.612 1698.17 874.182 1688.29 877.822 1674.12H865.082C862.482 1683.09 855.462 1688.16 844.932 1688.16C831.932 1688.16 822.312 1678.93 822.312 1661.25C822.312 1643.83 831.932 1634.6 844.932 1634.6C855.462 1634.6 862.612 1640.06 865.082 1648.64H877.822C874.182 1633.69 862.612 1624.59 844.932 1624.59C824.652 1624.59 810.222 1638.89 810.222 1661.25ZM893.607 1697H905.437V1657.61C905.437 1642.27 913.757 1634.73 925.847 1634.73C937.807 1634.73 945.737 1642.14 945.737 1656.7V1697H957.437V1655.01C957.437 1634.6 944.827 1624.46 928.967 1624.46C918.957 1624.46 910.117 1628.49 905.437 1636.03V1600.8H893.607V1697ZM1007 1661.12C1007 1683.22 1021.69 1698.17 1040.67 1698.17C1053.8 1698.17 1063.03 1691.41 1067.32 1683.74V1697H1079.28V1625.76H1067.32V1638.76C1063.16 1631.35 1054.06 1624.59 1040.8 1624.59C1021.69 1624.59 1007 1638.89 1007 1661.12ZM1067.32 1661.25C1067.32 1678.02 1056.14 1687.77 1043.14 1687.77C1030.14 1687.77 1019.09 1677.89 1019.09 1661.12C1019.09 1644.35 1030.14 1634.86 1043.14 1634.86C1056.14 1634.86 1067.32 1644.74 1067.32 1661.25ZM1151.4 1697H1163.1V1655.01C1163.1 1634.6 1150.49 1624.46 1133.98 1624.46C1124.36 1624.46 1115.78 1628.49 1111.1 1635.9V1625.76H1099.27V1697H1111.1V1657.61C1111.1 1642.27 1119.42 1634.73 1131.51 1634.73C1143.47 1634.73 1151.4 1642.14 1151.4 1656.7V1697ZM1178.01 1661.12C1178.01 1683.22 1192.7 1698.17 1211.81 1698.17C1224.81 1698.17 1234.04 1691.54 1238.33 1683.61V1697H1250.29V1600.8H1238.33V1638.5C1233.39 1630.31 1223.12 1624.59 1211.94 1624.59C1192.7 1624.59 1178.01 1638.89 1178.01 1661.12ZM1238.33 1661.25C1238.33 1678.02 1227.15 1687.77 1214.15 1687.77C1201.15 1687.77 1190.1 1677.89 1190.1 1661.12C1190.1 1644.35 1201.15 1634.86 1214.15 1634.86C1227.15 1634.86 1238.33 1644.74 1238.33 1661.25ZM1304.93 1697H1316.76V1606.39H1304.93V1697ZM1367.17 1661.12C1367.17 1683.22 1381.86 1698.17 1400.84 1698.17C1413.97 1698.17 1423.2 1691.41 1427.49 1683.74V1697H1439.45V1625.76H1427.49V1638.76C1423.33 1631.35 1414.23 1624.59 1400.97 1624.59C1381.86 1624.59 1367.17 1638.89 1367.17 1661.12ZM1427.49 1661.25C1427.49 1678.02 1416.31 1687.77 1403.31 1687.77C1390.31 1687.77 1379.26 1677.89 1379.26 1661.12C1379.26 1644.35 1390.31 1634.86 1403.31 1634.86C1416.31 1634.86 1427.49 1644.74 1427.49 1661.25ZM1562.27 1697H1573.97V1655.01C1573.97 1634.6 1561.36 1624.46 1545.11 1624.46C1534.19 1624.46 1524.05 1630.05 1519.89 1640.32C1515.21 1629.66 1505.46 1624.46 1493.76 1624.46C1484.4 1624.46 1475.95 1628.49 1471.27 1636.03V1625.76H1459.44V1697H1471.27V1657.74C1471.27 1642.4 1479.46 1634.73 1491.42 1634.73C1503.12 1634.73 1510.92 1642.14 1510.92 1656.7V1697H1522.62V1657.74C1522.62 1642.4 1530.81 1634.73 1542.77 1634.73C1554.47 1634.73 1562.27 1642.14 1562.27 1656.7V1697ZM350.334 1833.89V1820.76H338.504V1925.8H350.334V1878.87C354.754 1886.15 363.984 1893.17 376.984 1893.17C396.094 1893.17 410.784 1878.22 410.784 1856.12C410.784 1833.89 396.094 1819.59 376.984 1819.59C363.984 1819.59 354.624 1826.35 350.334 1833.89ZM398.694 1856.12C398.694 1872.89 387.644 1882.77 374.514 1882.77C361.644 1882.77 350.334 1873.02 350.334 1856.25C350.334 1839.74 361.644 1829.86 374.514 1829.86C387.644 1829.86 398.694 1839.35 398.694 1856.12ZM438.186 1853.26C438.186 1836.75 446.766 1831.68 458.076 1831.68H461.196V1819.46C449.886 1819.46 442.216 1824.4 438.186 1832.33V1820.76H426.356V1892H438.186V1853.26ZM542.452 1856.25C542.452 1833.76 526.722 1819.59 506.442 1819.59C486.292 1819.59 470.432 1833.76 470.432 1856.25C470.432 1878.87 485.772 1893.17 505.922 1893.17C526.202 1893.17 542.452 1878.87 542.452 1856.25ZM482.522 1856.25C482.522 1838.31 493.832 1829.86 506.312 1829.86C518.532 1829.86 530.362 1838.31 530.362 1856.25C530.362 1874.32 518.272 1882.77 505.922 1882.77C493.572 1882.77 482.522 1874.32 482.522 1856.25ZM560.216 1892H572.046V1830.51H586.996V1820.76H572.046V1815.69C572.046 1806.46 575.556 1802.56 586.216 1802.56V1792.68C568.016 1792.68 560.216 1799.83 560.216 1815.69V1820.76H550.986V1830.51H560.216V1892ZM600.789 1892H612.619V1820.76H600.789V1892ZM606.899 1809.19C611.189 1809.19 614.699 1805.68 614.699 1801.13C614.699 1796.58 611.189 1793.07 606.899 1793.07C602.349 1793.07 598.839 1796.58 598.839 1801.13C598.839 1805.68 602.349 1809.19 606.899 1809.19ZM628.361 1856.25C628.361 1878.87 642.791 1893.17 663.071 1893.17C680.751 1893.17 692.321 1883.29 695.961 1869.12H683.221C680.621 1878.09 673.601 1883.16 663.071 1883.16C650.071 1883.16 640.451 1873.93 640.451 1856.25C640.451 1838.83 650.071 1829.6 663.071 1829.6C673.601 1829.6 680.751 1835.06 683.221 1843.64H695.961C692.321 1828.69 680.751 1819.59 663.071 1819.59C642.791 1819.59 628.361 1833.89 628.361 1856.25ZM711.746 1892H723.576V1820.76H711.746V1892ZM717.856 1809.19C722.146 1809.19 725.656 1805.68 725.656 1801.13C725.656 1796.58 722.146 1793.07 717.856 1793.07C713.306 1793.07 709.796 1796.58 709.796 1801.13C709.796 1805.68 713.306 1809.19 717.856 1809.19ZM774.029 1829.6C786.249 1829.6 796.649 1837.27 796.519 1851.18H751.539C752.839 1837.27 762.459 1829.6 774.029 1829.6ZM807.309 1870.03H794.569C791.969 1877.7 785.209 1883.16 774.549 1883.16C762.459 1883.16 752.319 1875.23 751.409 1860.8H808.349C808.609 1858.33 808.739 1856.25 808.739 1853.65C808.739 1834.15 795.219 1819.59 774.549 1819.59C753.749 1819.59 739.319 1833.76 739.319 1856.25C739.319 1878.87 754.269 1893.17 774.549 1893.17C792.229 1893.17 803.669 1883.03 807.309 1870.03ZM876.484 1892H888.184V1850.01C888.184 1829.6 875.574 1819.46 859.064 1819.46C849.444 1819.46 840.864 1823.49 836.184 1830.9V1820.76H824.354V1892H836.184V1852.61C836.184 1837.27 844.504 1829.73 856.594 1829.73C868.554 1829.73 876.484 1837.14 876.484 1851.7V1892ZM910.108 1872.5C910.108 1886.8 917.258 1892 929.868 1892H940.528V1881.99H931.818C924.538 1881.99 921.938 1879.52 921.938 1872.5V1830.51H940.528V1820.76H921.938V1802.82H910.108V1820.76H900.878V1830.51H910.108V1872.5ZM1003.43 1892H1015.65L1032.81 1835.45L1049.97 1892H1062.19L1084.42 1820.76H1072.72L1056.6 1880.69L1039.31 1820.76H1027.22L1009.54 1880.56L993.16 1820.76H981.07L1003.43 1892ZM1096.16 1892H1107.99V1820.76H1096.16V1892ZM1102.27 1809.19C1106.56 1809.19 1110.07 1805.68 1110.07 1801.13C1110.07 1796.58 1106.56 1793.07 1102.27 1793.07C1097.72 1793.07 1094.21 1796.58 1094.21 1801.13C1094.21 1805.68 1097.72 1809.19 1102.27 1809.19ZM1130.75 1872.5C1130.75 1886.8 1137.9 1892 1150.51 1892H1161.17V1881.99H1152.46C1145.18 1881.99 1142.58 1879.52 1142.58 1872.5V1830.51H1161.17V1820.76H1142.58V1802.82H1130.75V1820.76H1121.52V1830.51H1130.75V1872.5ZM1175.51 1892H1187.34V1852.61C1187.34 1837.27 1195.66 1829.73 1207.75 1829.73C1219.71 1829.73 1227.64 1837.14 1227.64 1851.7V1892H1239.34V1850.01C1239.34 1829.6 1226.73 1819.46 1210.87 1819.46C1200.86 1819.46 1192.02 1823.49 1187.34 1831.03V1795.8H1175.51V1892ZM1295.92 1872.5C1295.92 1886.8 1303.07 1892 1315.68 1892H1326.34V1881.99H1317.63C1310.35 1881.99 1307.75 1879.52 1307.75 1872.5V1830.51H1326.34V1820.76H1307.75V1802.82H1295.92V1820.76H1286.69V1830.51H1295.92V1872.5ZM1340.67 1892H1352.5V1852.61C1352.5 1837.27 1360.82 1829.73 1372.91 1829.73C1384.87 1829.73 1392.8 1837.14 1392.8 1851.7V1892H1404.5V1850.01C1404.5 1829.6 1391.89 1819.46 1376.03 1819.46C1366.02 1819.46 1357.18 1823.49 1352.5 1831.03V1795.8H1340.67V1892ZM1491.43 1856.25C1491.43 1833.76 1475.7 1819.59 1455.42 1819.59C1435.27 1819.59 1419.41 1833.76 1419.41 1856.25C1419.41 1878.87 1434.75 1893.17 1454.9 1893.17C1475.18 1893.17 1491.43 1878.87 1491.43 1856.25ZM1431.5 1856.25C1431.5 1838.31 1442.81 1829.86 1455.29 1829.86C1467.51 1829.86 1479.34 1838.31 1479.34 1856.25C1479.34 1874.32 1467.25 1882.77 1454.9 1882.77C1442.55 1882.77 1431.5 1874.32 1431.5 1856.25ZM1558.2 1872.63C1557.68 1847.15 1516.34 1856.38 1516.34 1839.48C1516.34 1833.76 1521.54 1829.6 1530.25 1829.6C1539.74 1829.6 1545.2 1834.8 1545.72 1841.95H1557.55C1556.77 1828.04 1546.37 1819.59 1530.64 1819.59C1514.78 1819.59 1504.51 1828.56 1504.51 1839.48C1504.51 1866 1546.63 1856.77 1546.63 1872.63C1546.63 1878.48 1541.43 1883.16 1532.07 1883.16C1522.06 1883.16 1515.95 1877.96 1515.3 1871.07H1503.08C1503.86 1884.07 1515.56 1893.17 1532.2 1893.17C1547.93 1893.17 1558.2 1884.33 1558.2 1872.63ZM1605.19 1829.6C1617.41 1829.6 1627.81 1837.27 1627.68 1851.18H1582.7C1584 1837.27 1593.62 1829.6 1605.19 1829.6ZM1638.47 1870.03H1625.73C1623.13 1877.7 1616.37 1883.16 1605.71 1883.16C1593.62 1883.16 1583.48 1875.23 1582.57 1860.8H1639.51C1639.77 1858.33 1639.9 1856.25 1639.9 1853.65C1639.9 1834.15 1626.38 1819.59 1605.71 1819.59C1584.91 1819.59 1570.48 1833.76 1570.48 1856.25C1570.48 1878.87 1585.43 1893.17 1605.71 1893.17C1623.39 1893.17 1634.83 1883.03 1638.47 1870.03ZM683.37 2067.5C683.37 2081.8 690.52 2087 703.13 2087H713.79V2076.99H705.08C697.8 2076.99 695.2 2074.52 695.2 2067.5V2025.51H713.79V2015.76H695.2V1997.82H683.37V2015.76H674.14V2025.51H683.37V2067.5ZM742.033 2087H754.253L771.413 2030.45L788.573 2087H800.793L823.023 2015.76H811.323L795.203 2075.69L777.913 2015.76H765.823L748.143 2075.56L731.763 2015.76H719.673L742.033 2087ZM902.364 2051.25C902.364 2028.76 886.634 2014.59 866.354 2014.59C846.204 2014.59 830.344 2028.76 830.344 2051.25C830.344 2073.87 845.684 2088.17 865.834 2088.17C886.114 2088.17 902.364 2073.87 902.364 2051.25ZM842.434 2051.25C842.434 2033.31 853.744 2024.86 866.224 2024.86C878.444 2024.86 890.274 2033.31 890.274 2051.25C890.274 2069.32 878.184 2077.77 865.834 2077.77C853.484 2077.77 842.434 2069.32 842.434 2051.25ZM1003.8 2067.63C1003.28 2042.15 961.936 2051.38 961.936 2034.48C961.936 2028.76 967.136 2024.6 975.846 2024.6C985.336 2024.6 990.796 2029.8 991.316 2036.95H1003.15C1002.37 2023.04 991.966 2014.59 976.236 2014.59C960.376 2014.59 950.106 2023.56 950.106 2034.48C950.106 2061 992.226 2051.77 992.226 2067.63C992.226 2073.48 987.026 2078.16 977.666 2078.16C967.656 2078.16 961.546 2072.96 960.896 2066.07H948.676C949.456 2079.07 961.156 2088.17 977.796 2088.17C993.526 2088.17 1003.8 2079.33 1003.8 2067.63ZM1020.5 2087H1032.33V2055.54L1060.28 2087H1076.4L1042.73 2051.25L1076.27 2015.76H1059.76L1032.33 2047.35V1990.8H1020.5V2087ZM1087.4 2087H1099.23V2015.76H1087.4V2087ZM1093.51 2004.19C1097.8 2004.19 1101.31 2000.68 1101.31 1996.13C1101.31 1991.58 1097.8 1988.07 1093.51 1988.07C1088.96 1988.07 1085.45 1991.58 1085.45 1996.13C1085.45 2000.68 1088.96 2004.19 1093.51 2004.19ZM1119.39 2087H1131.22V1990.8H1119.39V2087ZM1151.39 2087H1163.22V1990.8H1151.39V2087ZM1234.6 2067.63C1234.08 2042.15 1192.74 2051.38 1192.74 2034.48C1192.74 2028.76 1197.94 2024.6 1206.65 2024.6C1216.14 2024.6 1221.6 2029.8 1222.12 2036.95H1233.95C1233.17 2023.04 1222.77 2014.59 1207.04 2014.59C1191.18 2014.59 1180.91 2023.56 1180.91 2034.48C1180.91 2061 1223.03 2051.77 1223.03 2067.63C1223.03 2073.48 1217.83 2078.16 1208.47 2078.16C1198.46 2078.16 1192.35 2072.96 1191.7 2066.07H1179.48C1180.26 2079.07 1191.96 2088.17 1208.6 2088.17C1224.33 2088.17 1234.6 2079.33 1234.6 2067.63ZM1262.87 2079.72C1262.87 2075.17 1259.36 2071.66 1255.07 2071.66C1250.52 2071.66 1247.01 2075.17 1247.01 2079.72C1247.01 2084.27 1250.52 2087.78 1255.07 2087.78C1259.36 2087.78 1262.87 2084.27 1262.87 2079.72Z" fill="black"/>
<path d="M1112 807.5C1112 843.359 1100.36 876.484 1080.75 903.359L1179.66 1002.34C1189.42 1012.11 1189.42 1027.97 1179.66 1037.73C1169.89 1047.5 1154.03 1047.5 1144.27 1037.73L1045.36 938.75C1018.48 958.438 985.359 970 949.5 970C859.734 970 787 897.266 787 807.5C787 717.734 859.734 645 949.5 645C1039.27 645 1112 717.734 1112 807.5ZM949.5 920C1011.61 920 1062 869.609 1062 807.5C1062 745.391 1011.61 695 949.5 695C887.391 695 837 745.391 837 807.5C837 869.609 887.391 920 949.5 920Z" fill="black"/>
</svg>
