<svg width="1975" height="2560" viewBox="0 0 1975 2560" fill="none" xmlns="http://www.w3.org/2000/svg">
<rect width="1975" height="2438" rx="20" fill="white"/>
<path d="M676 308.6H623.4V449H676C720.8 449 749.6 420.4 749.6 378.8C749.6 337 720.8 308.6 676 308.6ZM657.6 419.4V337.8H673.8C699.6 337.8 714.8 353 714.8 378.8C714.8 404.6 699.6 419.4 673.8 419.4H657.6ZM817.913 363.2C829.313 363.2 838.913 370.2 838.913 382.4H796.113C798.113 370 806.713 363.2 817.913 363.2ZM871.313 412H834.913C832.113 418 826.713 422.8 817.113 422.8C806.113 422.8 797.113 416 795.913 401.4H873.313C873.713 398 873.912 394.6 873.912 391.4C873.912 357.4 850.913 335.8 818.313 335.8C785.113 335.8 761.913 357.8 761.913 393.2C761.913 428.6 785.513 450.6 818.313 450.6C846.113 450.6 865.913 433.8 871.313 412ZM982.555 416.6C981.955 375 921.555 387.6 921.555 369.8C921.555 364.4 925.955 361.2 933.955 361.2C943.555 361.2 949.355 366.2 950.355 373.8H981.955C979.755 351.8 963.755 335.8 934.955 335.8C905.755 335.8 889.555 351.4 889.555 370.4C889.555 411.4 950.355 398.4 950.355 416.4C950.355 421.4 945.755 425.4 936.955 425.4C927.555 425.4 920.555 420.2 919.755 412.4H885.955C887.555 434 907.555 450.6 937.355 450.6C965.355 450.6 982.555 436 982.555 416.6ZM1003.48 449H1037.68V337.4H1003.48V449ZM1020.68 325.8C1032.68 325.8 1040.88 317.6 1040.88 307.4C1040.88 297 1032.68 288.8 1020.68 288.8C1008.48 288.8 1000.28 297 1000.28 307.4C1000.28 317.6 1008.48 325.8 1020.68 325.8ZM1055.66 393C1055.66 428.2 1077.46 450.6 1104.86 450.6C1121.26 450.6 1133.06 442.8 1139.26 433V448.8C1139.26 467.6 1129.06 474.4 1116.06 474.4C1104.26 474.4 1095.86 469 1093.66 460.6H1059.86C1062.86 487.2 1084.46 504 1117.66 504C1156.26 504 1173.46 478.6 1173.46 448.8V337.4H1139.26V353.2C1133.26 343.2 1121.26 335.8 1104.86 335.8C1077.46 335.8 1055.66 357.8 1055.66 393ZM1139.26 393.2C1139.26 411 1127.86 420.8 1114.86 420.8C1102.06 420.8 1090.46 410.8 1090.46 393C1090.46 375.2 1102.06 365.6 1114.86 365.6C1127.86 365.6 1139.26 375.4 1139.26 393.2ZM1275.2 449H1309.2V383.8C1309.2 353.8 1292 336.2 1266.2 336.2C1251.2 336.2 1239.2 342.8 1232.4 352.2V337.4H1198.2V449H1232.4V388.4C1232.4 373.2 1240.8 364.8 1253.8 364.8C1266.8 364.8 1275.2 373.2 1275.2 388.4V449Z" fill="black"/>
<path d="M307.094 1433H318.924V1342.39H307.094V1433ZM373.744 1433H385.574V1393.61C385.574 1378.27 393.894 1370.73 405.984 1370.73C417.944 1370.73 425.874 1378.14 425.874 1392.7V1433H437.574V1391.01C437.574 1370.6 424.964 1360.46 409.104 1360.46C399.094 1360.46 390.254 1364.49 385.574 1372.03V1336.8H373.744V1433ZM452.479 1397.12C452.479 1419.22 467.169 1434.17 486.149 1434.17C499.279 1434.17 508.509 1427.41 512.799 1419.74V1433H524.759V1361.76H512.799V1374.76C508.639 1367.35 499.539 1360.59 486.279 1360.59C467.169 1360.59 452.479 1374.89 452.479 1397.12ZM512.799 1397.25C512.799 1414.02 501.619 1423.77 488.619 1423.77C475.619 1423.77 464.569 1413.89 464.569 1397.12C464.569 1380.35 475.619 1370.86 488.619 1370.86C501.619 1370.86 512.799 1380.74 512.799 1397.25ZM536.3 1361.76L564.25 1433H578.03L605.98 1361.76H593.37L571.27 1422.08L549.04 1361.76H536.3ZM647.911 1370.6C660.131 1370.6 670.531 1378.27 670.401 1392.18H625.421C626.721 1378.27 636.341 1370.6 647.911 1370.6ZM681.191 1411.03H668.451C665.851 1418.7 659.091 1424.16 648.431 1424.16C636.341 1424.16 626.201 1416.23 625.291 1401.8H682.231C682.491 1399.33 682.621 1397.25 682.621 1394.65C682.621 1375.15 669.101 1360.59 648.431 1360.59C627.631 1360.59 613.201 1374.76 613.201 1397.25C613.201 1419.87 628.151 1434.17 648.431 1434.17C666.111 1434.17 677.551 1424.03 681.191 1411.03ZM728.475 1397.12C728.475 1419.22 743.165 1434.17 762.145 1434.17C775.275 1434.17 784.505 1427.41 788.795 1419.74V1433H800.755V1361.76H788.795V1374.76C784.635 1367.35 775.535 1360.59 762.275 1360.59C743.165 1360.59 728.475 1374.89 728.475 1397.12ZM788.795 1397.25C788.795 1414.02 777.615 1423.77 764.615 1423.77C751.615 1423.77 740.565 1413.89 740.565 1397.12C740.565 1380.35 751.615 1370.86 764.615 1370.86C777.615 1370.86 788.795 1380.74 788.795 1397.25ZM855.405 1433H867.235V1401.54L895.185 1433H911.305L877.635 1397.25L911.175 1361.76H894.665L867.235 1393.35V1336.8H855.405V1433ZM952.599 1370.6C964.819 1370.6 975.219 1378.27 975.089 1392.18H930.109C931.409 1378.27 941.029 1370.6 952.599 1370.6ZM985.879 1411.03H973.139C970.539 1418.7 963.779 1424.16 953.119 1424.16C941.029 1424.16 930.889 1416.23 929.979 1401.8H986.919C987.179 1399.33 987.309 1397.25 987.309 1394.65C987.309 1375.15 973.789 1360.59 953.119 1360.59C932.319 1360.59 917.889 1374.76 917.889 1397.25C917.889 1419.87 932.839 1434.17 953.119 1434.17C970.799 1434.17 982.239 1424.03 985.879 1411.03ZM1033.21 1370.6C1045.43 1370.6 1055.83 1378.27 1055.7 1392.18H1010.72C1012.02 1378.27 1021.64 1370.6 1033.21 1370.6ZM1066.49 1411.03H1053.75C1051.15 1418.7 1044.39 1424.16 1033.73 1424.16C1021.64 1424.16 1011.5 1416.23 1010.59 1401.8H1067.53C1067.79 1399.33 1067.92 1397.25 1067.92 1394.65C1067.92 1375.15 1054.4 1360.59 1033.73 1360.59C1012.93 1360.59 998.504 1374.76 998.504 1397.25C998.504 1419.87 1013.45 1434.17 1033.73 1434.17C1051.41 1434.17 1062.85 1424.03 1066.49 1411.03ZM1135.67 1433H1147.37V1391.01C1147.37 1370.6 1134.76 1360.46 1118.25 1360.46C1108.63 1360.46 1100.05 1364.49 1095.37 1371.9V1361.76H1083.54V1433H1095.37V1393.61C1095.37 1378.27 1103.69 1370.73 1115.78 1370.73C1127.74 1370.73 1135.67 1378.14 1135.67 1392.7V1433ZM1231.64 1370.6C1243.86 1370.6 1254.26 1378.27 1254.13 1392.18H1209.15C1210.45 1378.27 1220.07 1370.6 1231.64 1370.6ZM1264.92 1411.03H1252.18C1249.58 1418.7 1242.82 1424.16 1232.16 1424.16C1220.07 1424.16 1209.93 1416.23 1209.02 1401.8H1265.96C1266.22 1399.33 1266.35 1397.25 1266.35 1394.65C1266.35 1375.15 1252.83 1360.59 1232.16 1360.59C1211.36 1360.59 1196.93 1374.76 1196.93 1397.25C1196.93 1419.87 1211.88 1434.17 1232.16 1434.17C1249.84 1434.17 1261.28 1424.03 1264.92 1411.03ZM1309.01 1419.48L1286.65 1361.76H1273.52L1302.25 1432.22L1288.21 1466.54H1300.43L1343.33 1361.76H1331.11L1309.01 1419.48ZM1385.51 1370.6C1397.73 1370.6 1408.13 1378.27 1408 1392.18H1363.02C1364.32 1378.27 1373.94 1370.6 1385.51 1370.6ZM1418.79 1411.03H1406.05C1403.45 1418.7 1396.69 1424.16 1386.03 1424.16C1373.94 1424.16 1363.8 1416.23 1362.89 1401.8H1419.83C1420.09 1399.33 1420.22 1397.25 1420.22 1394.65C1420.22 1375.15 1406.7 1360.59 1386.03 1360.59C1365.23 1360.59 1350.8 1374.76 1350.8 1397.25C1350.8 1419.87 1365.75 1434.17 1386.03 1434.17C1403.71 1434.17 1415.15 1424.03 1418.79 1411.03ZM1472.7 1433H1484.53V1371.51H1499.48V1361.76H1484.53V1356.69C1484.53 1347.46 1488.04 1343.56 1498.7 1343.56V1333.68C1480.5 1333.68 1472.7 1340.83 1472.7 1356.69V1361.76H1463.47V1371.51H1472.7V1433ZM1580.88 1397.25C1580.88 1374.76 1565.15 1360.59 1544.87 1360.59C1524.72 1360.59 1508.86 1374.76 1508.86 1397.25C1508.86 1419.87 1524.2 1434.17 1544.35 1434.17C1564.63 1434.17 1580.88 1419.87 1580.88 1397.25ZM1520.95 1397.25C1520.95 1379.31 1532.26 1370.86 1544.74 1370.86C1556.96 1370.86 1568.79 1379.31 1568.79 1397.25C1568.79 1415.32 1556.7 1423.77 1544.35 1423.77C1532 1423.77 1520.95 1415.32 1520.95 1397.25ZM1608.26 1394.26C1608.26 1377.75 1616.84 1372.68 1628.15 1372.68H1631.27V1360.46C1619.96 1360.46 1612.29 1365.4 1608.26 1373.33V1361.76H1596.43V1433H1608.26V1394.26ZM443.782 1592.12C443.782 1614.22 458.472 1629.17 477.582 1629.17C490.582 1629.17 499.812 1622.54 504.102 1614.61V1628H516.062V1531.8H504.102V1569.5C499.162 1561.31 488.892 1555.59 477.712 1555.59C458.472 1555.59 443.782 1569.89 443.782 1592.12ZM504.102 1592.25C504.102 1609.02 492.922 1618.77 479.922 1618.77C466.922 1618.77 455.872 1608.89 455.872 1592.12C455.872 1575.35 466.922 1565.86 479.922 1565.86C492.922 1565.86 504.102 1575.74 504.102 1592.25ZM566.344 1565.6C578.564 1565.6 588.964 1573.27 588.834 1587.18H543.854C545.154 1573.27 554.774 1565.6 566.344 1565.6ZM599.624 1606.03H586.884C584.284 1613.7 577.524 1619.16 566.864 1619.16C554.774 1619.16 544.634 1611.23 543.724 1596.8H600.664C600.924 1594.33 601.054 1592.25 601.054 1589.65C601.054 1570.15 587.534 1555.59 566.864 1555.59C546.064 1555.59 531.634 1569.76 531.634 1592.25C531.634 1614.87 546.584 1629.17 566.864 1629.17C584.544 1629.17 595.984 1619.03 599.624 1606.03ZM667.889 1608.63C667.369 1583.15 626.029 1592.38 626.029 1575.48C626.029 1569.76 631.229 1565.6 639.939 1565.6C649.429 1565.6 654.889 1570.8 655.409 1577.95H667.239C666.459 1564.04 656.059 1555.59 640.329 1555.59C624.469 1555.59 614.199 1564.56 614.199 1575.48C614.199 1602 656.319 1592.77 656.319 1608.63C656.319 1614.48 651.119 1619.16 641.759 1619.16C631.749 1619.16 625.639 1613.96 624.989 1607.07H612.769C613.549 1620.07 625.249 1629.17 641.889 1629.17C657.619 1629.17 667.889 1620.33 667.889 1608.63ZM684.589 1628H696.419V1556.76H684.589V1628ZM690.699 1545.19C694.989 1545.19 698.499 1541.68 698.499 1537.13C698.499 1532.58 694.989 1529.07 690.699 1529.07C686.149 1529.07 682.639 1532.58 682.639 1537.13C682.639 1541.68 686.149 1545.19 690.699 1545.19ZM712.161 1592.12C712.161 1614.22 726.851 1629.17 745.961 1629.17C758.961 1629.17 768.191 1622.28 772.481 1614.61V1629.56C772.481 1644.77 762.991 1652.83 750.381 1652.83C738.681 1652.83 730.231 1646.98 727.631 1638.4H715.931C718.271 1653.61 731.661 1663.1 750.381 1663.1C771.311 1663.1 784.441 1649.19 784.441 1629.56V1556.76H772.481V1569.76C768.321 1562.09 758.961 1555.59 745.961 1555.59C726.851 1555.59 712.161 1569.89 712.161 1592.12ZM772.481 1592.25C772.481 1609.02 761.301 1618.77 748.301 1618.77C735.301 1618.77 724.251 1608.89 724.251 1592.12C724.251 1575.35 735.301 1565.86 748.301 1565.86C761.301 1565.86 772.481 1575.74 772.481 1592.25ZM856.563 1628H868.263V1586.01C868.263 1565.6 855.653 1555.46 839.143 1555.46C829.523 1555.46 820.943 1559.49 816.263 1566.9V1556.76H804.433V1628H816.263V1588.61C816.263 1573.27 824.583 1565.73 836.673 1565.73C848.633 1565.73 856.563 1573.14 856.563 1587.7V1628ZM917.825 1592.12C917.825 1614.22 932.515 1629.17 951.495 1629.17C964.625 1629.17 973.855 1622.41 978.145 1614.74V1628H990.105V1556.76H978.145V1569.76C973.985 1562.35 964.885 1555.59 951.625 1555.59C932.515 1555.59 917.825 1569.89 917.825 1592.12ZM978.145 1592.25C978.145 1609.02 966.965 1618.77 953.965 1618.77C940.965 1618.77 929.915 1608.89 929.915 1592.12C929.915 1575.35 940.965 1565.86 953.965 1565.86C966.965 1565.86 978.145 1575.74 978.145 1592.25ZM1061.32 1608.63C1060.8 1583.15 1019.46 1592.38 1019.46 1575.48C1019.46 1569.76 1024.66 1565.6 1033.37 1565.6C1042.86 1565.6 1048.32 1570.8 1048.84 1577.95H1060.67C1059.89 1564.04 1049.49 1555.59 1033.76 1555.59C1017.9 1555.59 1007.63 1564.56 1007.63 1575.48C1007.63 1602 1049.75 1592.77 1049.75 1608.63C1049.75 1614.48 1044.55 1619.16 1035.19 1619.16C1025.18 1619.16 1019.07 1613.96 1018.42 1607.07H1006.2C1006.98 1620.07 1018.68 1629.17 1035.32 1629.17C1051.05 1629.17 1061.32 1620.33 1061.32 1608.63ZM1112.68 1628H1124.51V1537.39H1112.68V1628ZM1179.33 1628H1191.16V1588.61C1191.16 1573.27 1199.48 1565.73 1211.57 1565.73C1223.53 1565.73 1231.46 1573.14 1231.46 1587.7V1628H1243.16V1586.01C1243.16 1565.6 1230.55 1555.46 1214.69 1555.46C1204.68 1555.46 1195.84 1559.49 1191.16 1567.03V1531.8H1179.33V1628ZM1258.06 1592.12C1258.06 1614.22 1272.75 1629.17 1291.73 1629.17C1304.86 1629.17 1314.09 1622.41 1318.38 1614.74V1628H1330.34V1556.76H1318.38V1569.76C1314.22 1562.35 1305.12 1555.59 1291.86 1555.59C1272.75 1555.59 1258.06 1569.89 1258.06 1592.12ZM1318.38 1592.25C1318.38 1609.02 1307.2 1618.77 1294.2 1618.77C1281.2 1618.77 1270.15 1608.89 1270.15 1592.12C1270.15 1575.35 1281.2 1565.86 1294.2 1565.86C1307.2 1565.86 1318.38 1575.74 1318.38 1592.25ZM1341.88 1556.76L1369.83 1628H1383.61L1411.56 1556.76H1398.95L1376.85 1617.08L1354.62 1556.76H1341.88ZM1453.49 1565.6C1465.71 1565.6 1476.11 1573.27 1475.98 1587.18H1431C1432.3 1573.27 1441.92 1565.6 1453.49 1565.6ZM1486.77 1606.03H1474.03C1471.43 1613.7 1464.67 1619.16 1454.01 1619.16C1441.92 1619.16 1431.78 1611.23 1430.87 1596.8H1487.81C1488.07 1594.33 1488.2 1592.25 1488.2 1589.65C1488.2 1570.15 1474.68 1555.59 1454.01 1555.59C1433.21 1555.59 1418.78 1569.76 1418.78 1592.25C1418.78 1614.87 1433.73 1629.17 1454.01 1629.17C1471.69 1629.17 1483.13 1619.03 1486.77 1606.03ZM372.371 1787.12C372.371 1809.22 387.061 1824.17 406.171 1824.17C419.171 1824.17 428.401 1817.54 432.691 1809.61V1823H444.651V1726.8H432.691V1764.5C427.751 1756.31 417.481 1750.59 406.301 1750.59C387.061 1750.59 372.371 1764.89 372.371 1787.12ZM432.691 1787.25C432.691 1804.02 421.511 1813.77 408.511 1813.77C395.511 1813.77 384.461 1803.89 384.461 1787.12C384.461 1770.35 395.511 1760.86 408.511 1760.86C421.511 1760.86 432.691 1770.74 432.691 1787.25ZM494.933 1760.6C507.153 1760.6 517.553 1768.27 517.423 1782.18H472.443C473.743 1768.27 483.363 1760.6 494.933 1760.6ZM528.213 1801.03H515.473C512.873 1808.7 506.113 1814.16 495.453 1814.16C483.363 1814.16 473.223 1806.23 472.313 1791.8H529.253C529.513 1789.33 529.643 1787.25 529.643 1784.65C529.643 1765.15 516.123 1750.59 495.453 1750.59C474.653 1750.59 460.223 1764.76 460.223 1787.25C460.223 1809.87 475.173 1824.17 495.453 1824.17C513.133 1824.17 524.573 1814.03 528.213 1801.03ZM536.808 1751.76L564.758 1823H578.538L606.488 1751.76H593.878L571.778 1812.08L549.548 1751.76H536.808ZM648.419 1760.6C660.639 1760.6 671.039 1768.27 670.909 1782.18H625.929C627.229 1768.27 636.849 1760.6 648.419 1760.6ZM681.699 1801.03H668.959C666.359 1808.7 659.599 1814.16 648.939 1814.16C636.849 1814.16 626.709 1806.23 625.799 1791.8H682.739C682.999 1789.33 683.129 1787.25 683.129 1784.65C683.129 1765.15 669.609 1750.59 648.939 1750.59C628.139 1750.59 613.709 1764.76 613.709 1787.25C613.709 1809.87 628.659 1824.17 648.939 1824.17C666.619 1824.17 678.059 1814.03 681.699 1801.03ZM698.744 1823H710.574V1726.8H698.744V1823ZM798.337 1787.25C798.337 1764.76 782.607 1750.59 762.327 1750.59C742.177 1750.59 726.317 1764.76 726.317 1787.25C726.317 1809.87 741.657 1824.17 761.807 1824.17C782.087 1824.17 798.337 1809.87 798.337 1787.25ZM738.407 1787.25C738.407 1769.31 749.717 1760.86 762.197 1760.86C774.417 1760.86 786.247 1769.31 786.247 1787.25C786.247 1805.32 774.157 1813.77 761.807 1813.77C749.457 1813.77 738.407 1805.32 738.407 1787.25ZM825.721 1764.89V1751.76H813.891V1856.8H825.721V1809.87C830.141 1817.15 839.371 1824.17 852.371 1824.17C871.481 1824.17 886.171 1809.22 886.171 1787.12C886.171 1764.89 871.481 1750.59 852.371 1750.59C839.371 1750.59 830.011 1757.35 825.721 1764.89ZM874.081 1787.12C874.081 1803.89 863.031 1813.77 849.901 1813.77C837.031 1813.77 825.721 1804.02 825.721 1787.25C825.721 1770.74 837.031 1760.86 849.901 1760.86C863.031 1760.86 874.081 1770.35 874.081 1787.12ZM932.032 1760.6C944.252 1760.6 954.652 1768.27 954.522 1782.18H909.542C910.842 1768.27 920.462 1760.6 932.032 1760.6ZM965.312 1801.03H952.572C949.972 1808.7 943.212 1814.16 932.552 1814.16C920.462 1814.16 910.322 1806.23 909.412 1791.8H966.352C966.612 1789.33 966.742 1787.25 966.742 1784.65C966.742 1765.15 953.222 1750.59 932.552 1750.59C911.752 1750.59 897.322 1764.76 897.322 1787.25C897.322 1809.87 912.272 1824.17 932.552 1824.17C950.232 1824.17 961.672 1814.03 965.312 1801.03ZM977.938 1787.12C977.938 1809.22 992.628 1824.17 1011.74 1824.17C1024.74 1824.17 1033.97 1817.54 1038.26 1809.61V1823H1050.22V1726.8H1038.26V1764.5C1033.32 1756.31 1023.05 1750.59 1011.87 1750.59C992.628 1750.59 977.938 1764.89 977.938 1787.12ZM1038.26 1787.25C1038.26 1804.02 1027.08 1813.77 1014.08 1813.77C1001.08 1813.77 990.028 1803.89 990.028 1787.12C990.028 1770.35 1001.08 1760.86 1014.08 1760.86C1027.08 1760.86 1038.26 1770.74 1038.26 1787.25ZM1156.09 1803.63C1155.57 1778.15 1114.23 1787.38 1114.23 1770.48C1114.23 1764.76 1119.43 1760.6 1128.14 1760.6C1137.63 1760.6 1143.09 1765.8 1143.61 1772.95H1155.44C1154.66 1759.04 1144.26 1750.59 1128.53 1750.59C1112.67 1750.59 1102.4 1759.56 1102.4 1770.48C1102.4 1797 1144.52 1787.77 1144.52 1803.63C1144.52 1809.48 1139.32 1814.16 1129.96 1814.16C1119.95 1814.16 1113.84 1808.96 1113.19 1802.07H1100.97C1101.75 1815.07 1113.45 1824.17 1130.09 1824.17C1145.82 1824.17 1156.09 1815.33 1156.09 1803.63ZM1203.08 1760.6C1215.3 1760.6 1225.7 1768.27 1225.57 1782.18H1180.59C1181.89 1768.27 1191.51 1760.6 1203.08 1760.6ZM1236.36 1801.03H1223.62C1221.02 1808.7 1214.26 1814.16 1203.6 1814.16C1191.51 1814.16 1181.37 1806.23 1180.46 1791.8H1237.4C1237.66 1789.33 1237.79 1787.25 1237.79 1784.65C1237.79 1765.15 1224.27 1750.59 1203.6 1750.59C1182.8 1750.59 1168.37 1764.76 1168.37 1787.25C1168.37 1809.87 1183.32 1824.17 1203.6 1824.17C1221.28 1824.17 1232.72 1814.03 1236.36 1801.03ZM1244.95 1751.76L1272.9 1823H1286.68L1314.63 1751.76H1302.02L1279.92 1812.08L1257.69 1751.76H1244.95ZM1356.56 1760.6C1368.78 1760.6 1379.18 1768.27 1379.05 1782.18H1334.07C1335.37 1768.27 1344.99 1760.6 1356.56 1760.6ZM1389.84 1801.03H1377.1C1374.5 1808.7 1367.74 1814.16 1357.08 1814.16C1344.99 1814.16 1334.85 1806.23 1333.94 1791.8H1390.88C1391.14 1789.33 1391.27 1787.25 1391.27 1784.65C1391.27 1765.15 1377.75 1750.59 1357.08 1750.59C1336.28 1750.59 1321.85 1764.76 1321.85 1787.25C1321.85 1809.87 1336.8 1824.17 1357.08 1824.17C1374.76 1824.17 1386.2 1814.03 1389.84 1801.03ZM1418.72 1784.26C1418.72 1767.75 1427.3 1762.68 1438.61 1762.68H1441.73V1750.46C1430.42 1750.46 1422.75 1755.4 1418.72 1763.33V1751.76H1406.89V1823H1418.72V1784.26ZM1450.97 1787.12C1450.97 1809.22 1465.66 1824.17 1484.64 1824.17C1497.77 1824.17 1507 1817.41 1511.29 1809.74V1823H1523.25V1751.76H1511.29V1764.76C1507.13 1757.35 1498.03 1750.59 1484.77 1750.59C1465.66 1750.59 1450.97 1764.89 1450.97 1787.12ZM1511.29 1787.25C1511.29 1804.02 1500.11 1813.77 1487.11 1813.77C1474.11 1813.77 1463.06 1803.89 1463.06 1787.12C1463.06 1770.35 1474.11 1760.86 1487.11 1760.86C1500.11 1760.86 1511.29 1770.74 1511.29 1787.25ZM1543.24 1823H1555.07V1726.8H1543.24V1823ZM536.649 1982.12C536.649 2004.22 551.339 2019.17 570.319 2019.17C583.449 2019.17 592.679 2012.41 596.969 2004.74V2018H608.929V1946.76H596.969V1959.76C592.809 1952.35 583.709 1945.59 570.449 1945.59C551.339 1945.59 536.649 1959.89 536.649 1982.12ZM596.969 1982.25C596.969 1999.02 585.789 2008.77 572.789 2008.77C559.789 2008.77 548.739 1998.89 548.739 1982.12C548.739 1965.35 559.789 1955.86 572.789 1955.86C585.789 1955.86 596.969 1965.74 596.969 1982.25ZM640.75 1959.89V1946.76H628.92V2051.8H640.75V2004.87C645.17 2012.15 654.4 2019.17 667.4 2019.17C686.51 2019.17 701.2 2004.22 701.2 1982.12C701.2 1959.89 686.51 1945.59 667.4 1945.59C654.4 1945.59 645.04 1952.35 640.75 1959.89ZM689.11 1982.12C689.11 1998.89 678.06 2008.77 664.93 2008.77C652.06 2008.77 640.75 1999.02 640.75 1982.25C640.75 1965.74 652.06 1955.86 664.93 1955.86C678.06 1955.86 689.11 1965.35 689.11 1982.12ZM728.602 1959.89V1946.76H716.772V2051.8H728.602V2004.87C733.022 2012.15 742.252 2019.17 755.252 2019.17C774.362 2019.17 789.052 2004.22 789.052 1982.12C789.052 1959.89 774.362 1945.59 755.252 1945.59C742.252 1945.59 732.892 1952.35 728.602 1959.89ZM776.962 1982.12C776.962 1998.89 765.912 2008.77 752.782 2008.77C739.912 2008.77 728.602 1999.02 728.602 1982.25C728.602 1965.74 739.912 1955.86 752.782 1955.86C765.912 1955.86 776.962 1965.35 776.962 1982.12ZM804.623 2018H816.453V1921.8H804.623V2018ZM836.615 2018H848.445V1946.76H836.615V2018ZM842.725 1935.19C847.015 1935.19 850.525 1931.68 850.525 1927.13C850.525 1922.58 847.015 1919.07 842.725 1919.07C838.175 1919.07 834.665 1922.58 834.665 1927.13C834.665 1931.68 838.175 1935.19 842.725 1935.19ZM864.188 1982.25C864.188 2004.87 878.618 2019.17 898.898 2019.17C916.578 2019.17 928.148 2009.29 931.788 1995.12H919.048C916.448 2004.09 909.428 2009.16 898.898 2009.16C885.898 2009.16 876.278 1999.93 876.278 1982.25C876.278 1964.83 885.898 1955.6 898.898 1955.6C909.428 1955.6 916.578 1961.06 919.048 1969.64H931.788C928.148 1954.69 916.578 1945.59 898.898 1945.59C878.618 1945.59 864.188 1959.89 864.188 1982.25ZM943.153 1982.12C943.153 2004.22 957.843 2019.17 976.823 2019.17C989.953 2019.17 999.183 2012.41 1003.47 2004.74V2018H1015.43V1946.76H1003.47V1959.76C999.313 1952.35 990.213 1945.59 976.953 1945.59C957.843 1945.59 943.153 1959.89 943.153 1982.12ZM1003.47 1982.25C1003.47 1999.02 992.293 2008.77 979.293 2008.77C966.293 2008.77 955.243 1998.89 955.243 1982.12C955.243 1965.35 966.293 1955.86 979.293 1955.86C992.293 1955.86 1003.47 1965.74 1003.47 1982.25ZM1038.02 1998.5C1038.02 2012.8 1045.17 2018 1057.78 2018H1068.44V2007.99H1059.73C1052.45 2007.99 1049.85 2005.52 1049.85 1998.5V1956.51H1068.44V1946.76H1049.85V1928.82H1038.02V1946.76H1028.79V1956.51H1038.02V1998.5ZM1082.78 2018H1094.61V1946.76H1082.78V2018ZM1088.89 1935.19C1093.18 1935.19 1096.69 1931.68 1096.69 1927.13C1096.69 1922.58 1093.18 1919.07 1088.89 1919.07C1084.34 1919.07 1080.83 1922.58 1080.83 1927.13C1080.83 1931.68 1084.34 1935.19 1088.89 1935.19ZM1182.37 1982.25C1182.37 1959.76 1166.64 1945.59 1146.36 1945.59C1126.21 1945.59 1110.35 1959.76 1110.35 1982.25C1110.35 2004.87 1125.69 2019.17 1145.84 2019.17C1166.12 2019.17 1182.37 2004.87 1182.37 1982.25ZM1122.44 1982.25C1122.44 1964.31 1133.75 1955.86 1146.23 1955.86C1158.45 1955.86 1170.28 1964.31 1170.28 1982.25C1170.28 2000.32 1158.19 2008.77 1145.84 2008.77C1133.49 2008.77 1122.44 2000.32 1122.44 1982.25ZM1250.05 2018H1261.75V1976.01C1261.75 1955.6 1249.14 1945.46 1232.63 1945.46C1223.01 1945.46 1214.43 1949.49 1209.75 1956.9V1946.76H1197.92V2018H1209.75V1978.61C1209.75 1963.27 1218.07 1955.73 1230.16 1955.73C1242.12 1955.73 1250.05 1963.14 1250.05 1977.7V2018ZM1332.3 1998.63C1331.78 1973.15 1290.44 1982.38 1290.44 1965.48C1290.44 1959.76 1295.64 1955.6 1304.35 1955.6C1313.84 1955.6 1319.3 1960.8 1319.82 1967.95H1331.65C1330.87 1954.04 1320.47 1945.59 1304.74 1945.59C1288.88 1945.59 1278.61 1954.56 1278.61 1965.48C1278.61 1992 1320.73 1982.77 1320.73 1998.63C1320.73 2004.48 1315.53 2009.16 1306.17 2009.16C1296.16 2009.16 1290.05 2003.96 1289.4 1997.07H1277.18C1277.96 2010.07 1289.66 2019.17 1306.3 2019.17C1322.03 2019.17 1332.3 2010.33 1332.3 1998.63ZM1360.57 2010.72C1360.57 2006.17 1357.06 2002.66 1352.77 2002.66C1348.22 2002.66 1344.71 2006.17 1344.71 2010.72C1344.71 2015.27 1348.22 2018.78 1352.77 2018.78C1357.06 2018.78 1360.57 2015.27 1360.57 2010.72Z" fill="black"/>
<path d="M1036.67 972.833L1062.83 946.667L1000.33 884.167L974.167 910.333L905.167 841.5C892.167 828.5 871 828.5 858 841.5L826.333 873.167C813.333 886.167 813.333 907.333 826.333 920.333L895.167 989.167L816 1068.5V1131H878.5L957.833 1051.67L1026.67 1120.5C1042.5 1136.33 1063.83 1130.5 1073.83 1120.5L1105.5 1088.83C1118.5 1075.83 1118.5 1054.67 1105.5 1041.67L1036.67 972.833V972.833ZM919 965.5L850 896.667L881.5 865L902.667 886.167L883 906L906.5 929.5L926.333 909.667L950.5 933.833L919 965.5V965.5ZM1050.33 1097L981.5 1028.17L1013.17 996.5L1037.33 1020.67L1017.5 1040.5L1041 1064L1060.83 1044.17L1082 1065.33L1050.33 1097V1097ZM1111.17 898.333C1112.71 896.792 1113.94 894.96 1114.77 892.944C1115.61 890.928 1116.04 888.766 1116.04 886.583C1116.04 884.401 1115.61 882.239 1114.77 880.223C1113.94 878.207 1112.71 876.375 1111.17 874.833L1072.17 835.833C1064.33 828 1053.5 831 1048.67 835.833L1018.17 866.333L1080.67 928.833L1111.17 898.333V898.333Z" fill="black"/>
</svg>
