<svg width="1975" height="2531" viewBox="0 0 1975 2531" fill="none" xmlns="http://www.w3.org/2000/svg">
<rect width="1975" height="2438" rx="20" fill="white"/>
<path d="M672.565 371.4V336.2H691.165C704.765 336.2 710.565 343 710.565 353.8C710.565 364.6 704.765 371.4 691.165 371.4H672.565ZM745.365 353.8C745.365 328 728.165 308.6 693.765 308.6H638.365V449H672.565V398.6H693.765C729.565 398.6 745.365 377 745.365 353.8ZM797.37 397.2C797.37 378 806.77 372.4 822.97 372.4H832.37V336.2C817.37 336.2 805.17 344.2 797.37 356V337.4H763.17V449H797.37V397.2ZM957.916 393.2C957.916 357.8 932.716 335.8 899.916 335.8C867.316 335.8 841.916 357.8 841.916 393.2C841.916 428.6 866.716 450.6 899.516 450.6C932.316 450.6 957.916 428.6 957.916 393.2ZM876.716 393.2C876.716 374.2 887.516 365.4 899.916 365.4C911.916 365.4 923.116 374.2 923.116 393.2C923.116 412 911.716 421 899.516 421C887.116 421 876.716 412 876.716 393.2ZM993.06 325.8C1005.06 325.8 1013.26 317.6 1013.26 307.4C1013.26 297 1005.06 288.8 993.06 288.8C980.86 288.8 972.66 297 972.66 307.4C972.66 317.6 980.86 325.8 993.06 325.8ZM976.06 337.4V463.8C976.06 470.4 973.26 473.2 965.66 473.2H957.46V502.2H970.86C994.06 502.2 1010.26 492.4 1010.26 463.4V337.4H976.06ZM1084.05 363.2C1095.45 363.2 1105.05 370.2 1105.05 382.4H1062.25C1064.25 370 1072.85 363.2 1084.05 363.2ZM1137.45 412H1101.05C1098.25 418 1092.85 422.8 1083.25 422.8C1072.25 422.8 1063.25 416 1062.05 401.4H1139.45C1139.85 398 1140.05 394.6 1140.05 391.4C1140.05 357.4 1117.05 335.8 1084.45 335.8C1051.25 335.8 1028.05 357.8 1028.05 393.2C1028.05 428.6 1051.65 450.6 1084.45 450.6C1112.25 450.6 1132.05 433.8 1137.45 412ZM1151.29 393.2C1151.29 428.6 1174.49 450.6 1207.29 450.6C1235.29 450.6 1255.09 434.4 1260.89 408.6H1224.49C1221.49 416.8 1216.09 421.4 1206.69 421.4C1194.49 421.4 1186.09 411.8 1186.09 393.2C1186.09 374.6 1194.49 365 1206.69 365C1216.09 365 1221.69 370 1224.49 377.8H1260.89C1255.09 351.2 1235.29 335.8 1207.29 335.8C1174.49 335.8 1151.29 358 1151.29 393.2ZM1284.59 410.2C1284.59 439.2 1300.79 449 1323.99 449H1341.39V420H1329.19C1321.59 420 1318.79 417.2 1318.79 410.6V365.8H1341.19V337.4H1318.79V310.2H1284.59V337.4H1270.99V365.8H1284.59V410.2ZM299.498 749H333.698V664.6L365.298 749H392.898L424.298 664.8V749H458.498V608.6H418.298L379.298 705.8L339.898 608.6H299.498V749ZM476.291 693C476.291 728.2 498.091 750.6 525.291 750.6C541.891 750.6 553.691 743 559.891 733.2V749H594.091V637.4H559.891V653.2C553.891 643.4 542.091 635.8 525.491 635.8C498.091 635.8 476.291 657.8 476.291 693ZM559.891 693.2C559.891 711 548.491 720.8 535.491 720.8C522.691 720.8 511.091 710.8 511.091 693C511.091 675.2 522.691 665.6 535.491 665.6C548.491 665.6 559.891 675.4 559.891 693.2ZM695.834 749H729.834V683.8C729.834 653.8 712.634 636.2 686.834 636.2C671.834 636.2 659.834 642.8 653.034 652.2V637.4H618.834V749H653.034V688.4C653.034 673.2 661.434 664.8 674.434 664.8C687.434 664.8 695.834 673.2 695.834 688.4V749ZM746.799 693C746.799 728.2 768.599 750.6 795.799 750.6C812.399 750.6 824.199 743 830.399 733.2V749H864.599V637.4H830.399V653.2C824.399 643.4 812.599 635.8 795.999 635.8C768.599 635.8 746.799 657.8 746.799 693ZM830.399 693.2C830.399 711 818.999 720.8 805.999 720.8C793.199 720.8 781.599 710.8 781.599 693C781.599 675.2 793.199 665.6 805.999 665.6C818.999 665.6 830.399 675.4 830.399 693.2ZM882.541 693C882.541 728.2 904.341 750.6 931.741 750.6C948.141 750.6 959.941 742.8 966.141 733V748.8C966.141 767.6 955.941 774.4 942.941 774.4C931.141 774.4 922.741 769 920.541 760.6H886.741C889.741 787.2 911.341 804 944.541 804C983.141 804 1000.34 778.6 1000.34 748.8V637.4H966.141V653.2C960.141 643.2 948.141 635.8 931.741 635.8C904.341 635.8 882.541 657.8 882.541 693ZM966.141 693.2C966.141 711 954.741 720.8 941.741 720.8C928.941 720.8 917.341 710.8 917.341 693C917.341 675.2 928.941 665.6 941.741 665.6C954.741 665.6 966.141 675.4 966.141 693.2ZM1074.28 663.2C1085.68 663.2 1095.28 670.2 1095.28 682.4H1052.48C1054.48 670 1063.08 663.2 1074.28 663.2ZM1127.68 712H1091.28C1088.48 718 1083.08 722.8 1073.48 722.8C1062.48 722.8 1053.48 716 1052.28 701.4H1129.68C1130.08 698 1130.28 694.6 1130.28 691.4C1130.28 657.4 1107.28 635.8 1074.68 635.8C1041.48 635.8 1018.28 657.8 1018.28 693.2C1018.28 728.6 1041.88 750.6 1074.68 750.6C1102.48 750.6 1122.28 733.8 1127.68 712ZM1302.13 749H1336.13V683.8C1336.13 653.8 1318.33 636.2 1290.73 636.2C1274.53 636.2 1260.53 645.2 1253.13 657C1245.53 643.6 1231.93 636.2 1215.13 636.2C1200.53 636.2 1189.13 642.4 1182.53 651.4V637.4H1148.33V749H1182.53V688.4C1182.53 673.8 1190.93 665.8 1203.93 665.8C1216.93 665.8 1225.33 673.8 1225.33 688.4V749H1259.33V688.4C1259.33 673.8 1267.73 665.8 1280.73 665.8C1293.73 665.8 1302.13 673.8 1302.13 688.4V749ZM1409.24 663.2C1420.64 663.2 1430.24 670.2 1430.24 682.4H1387.44C1389.44 670 1398.04 663.2 1409.24 663.2ZM1462.64 712H1426.24C1423.44 718 1418.04 722.8 1408.44 722.8C1397.44 722.8 1388.44 716 1387.24 701.4H1464.64C1465.04 698 1465.24 694.6 1465.24 691.4C1465.24 657.4 1442.24 635.8 1409.64 635.8C1376.44 635.8 1353.24 657.8 1353.24 693.2C1353.24 728.6 1376.84 750.6 1409.64 750.6C1437.44 750.6 1457.24 733.8 1462.64 712ZM1560.29 749H1594.29V683.8C1594.29 653.8 1577.09 636.2 1551.29 636.2C1536.29 636.2 1524.29 642.8 1517.49 652.2V637.4H1483.29V749H1517.49V688.4C1517.49 673.2 1525.89 664.8 1538.89 664.8C1551.89 664.8 1560.29 673.2 1560.29 688.4V749ZM1623.45 710.2C1623.45 739.2 1639.65 749 1662.85 749H1680.25V720H1668.05C1660.45 720 1657.65 717.2 1657.65 710.6V665.8H1680.05V637.4H1657.65V610.2H1623.45V637.4H1609.85V665.8H1623.45V710.2Z" fill="black"/>
<path d="M298.958 1599H310.788V1508.39H298.958V1599ZM361.189 1563.12C361.189 1585.22 375.879 1600.17 394.859 1600.17C407.989 1600.17 417.219 1593.41 421.509 1585.74V1599H433.469V1527.76H421.509V1540.76C417.349 1533.35 408.249 1526.59 394.989 1526.59C375.879 1526.59 361.189 1540.89 361.189 1563.12ZM421.509 1563.25C421.509 1580.02 410.329 1589.77 397.329 1589.77C384.329 1589.77 373.279 1579.89 373.279 1563.12C373.279 1546.35 384.329 1536.86 397.329 1536.86C410.329 1536.86 421.509 1546.74 421.509 1563.25ZM556.29 1599H567.99V1557.01C567.99 1536.6 555.38 1526.46 539.13 1526.46C528.21 1526.46 518.07 1532.05 513.91 1542.32C509.23 1531.66 499.48 1526.46 487.78 1526.46C478.42 1526.46 469.97 1530.49 465.29 1538.03V1527.76H453.46V1599H465.29V1559.74C465.29 1544.4 473.48 1536.73 485.44 1536.73C497.14 1536.73 504.94 1544.14 504.94 1558.7V1599H516.64V1559.74C516.64 1544.4 524.83 1536.73 536.79 1536.73C548.49 1536.73 556.29 1544.14 556.29 1558.7V1599ZM652.344 1536.6C664.564 1536.6 674.964 1544.27 674.834 1558.18H629.854C631.154 1544.27 640.774 1536.6 652.344 1536.6ZM685.624 1577.03H672.884C670.284 1584.7 663.524 1590.16 652.864 1590.16C640.774 1590.16 630.634 1582.23 629.724 1567.8H686.664C686.924 1565.33 687.054 1563.25 687.054 1560.65C687.054 1541.15 673.534 1526.59 652.864 1526.59C632.064 1526.59 617.634 1540.76 617.634 1563.25C617.634 1585.87 632.584 1600.17 652.864 1600.17C670.544 1600.17 681.984 1590.03 685.624 1577.03ZM739.849 1599H753.239L730.229 1562.99L753.109 1527.76H740.759L724.639 1554.15L707.739 1527.76H694.349L717.359 1563.64L694.349 1599H706.699L722.949 1572.48L739.849 1599ZM767.476 1579.5C767.476 1593.8 774.626 1599 787.236 1599H797.896V1588.99H789.186C781.906 1588.99 779.306 1586.52 779.306 1579.5V1537.51H797.896V1527.76H779.306V1509.82H767.476V1527.76H758.246V1537.51H767.476V1579.5ZM824.06 1560.26C824.06 1543.75 832.64 1538.68 843.95 1538.68H847.07V1526.46C835.76 1526.46 828.09 1531.4 824.06 1539.33V1527.76H812.23V1599H824.06V1560.26ZM891.016 1536.6C903.236 1536.6 913.636 1544.27 913.506 1558.18H868.526C869.826 1544.27 879.446 1536.6 891.016 1536.6ZM924.296 1577.03H911.556C908.956 1584.7 902.196 1590.16 891.536 1590.16C879.446 1590.16 869.306 1582.23 868.396 1567.8H925.336C925.596 1565.33 925.726 1563.25 925.726 1560.65C925.726 1541.15 912.206 1526.59 891.536 1526.59C870.736 1526.59 856.306 1540.76 856.306 1563.25C856.306 1585.87 871.256 1600.17 891.536 1600.17C909.216 1600.17 920.656 1590.03 924.296 1577.03ZM1044.17 1599H1055.87V1557.01C1055.87 1536.6 1043.26 1526.46 1027.01 1526.46C1016.09 1526.46 1005.95 1532.05 1001.79 1542.32C997.111 1531.66 987.361 1526.46 975.661 1526.46C966.301 1526.46 957.851 1530.49 953.171 1538.03V1527.76H941.341V1599H953.171V1559.74C953.171 1544.4 961.361 1536.73 973.321 1536.73C985.021 1536.73 992.821 1544.14 992.821 1558.7V1599H1004.52V1559.74C1004.52 1544.4 1012.71 1536.73 1024.67 1536.73C1036.37 1536.73 1044.17 1544.14 1044.17 1558.7V1599ZM1105.57 1536.6C1117.79 1536.6 1128.19 1544.27 1128.06 1558.18H1083.08C1084.38 1544.27 1094 1536.6 1105.57 1536.6ZM1138.85 1577.03H1126.11C1123.51 1584.7 1116.75 1590.16 1106.09 1590.16C1094 1590.16 1083.86 1582.23 1082.95 1567.8H1139.89C1140.15 1565.33 1140.28 1563.25 1140.28 1560.65C1140.28 1541.15 1126.76 1526.59 1106.09 1526.59C1085.29 1526.59 1070.86 1540.76 1070.86 1563.25C1070.86 1585.87 1085.81 1600.17 1106.09 1600.17C1123.77 1600.17 1135.21 1590.03 1138.85 1577.03ZM1155.89 1599H1167.72V1502.8H1155.89V1599ZM1214.92 1585.48L1192.56 1527.76H1179.43L1208.16 1598.22L1194.12 1632.54H1206.34L1249.24 1527.76H1237.02L1214.92 1585.48ZM1347.01 1579.63C1346.49 1554.15 1305.15 1563.38 1305.15 1546.48C1305.15 1540.76 1310.35 1536.6 1319.06 1536.6C1328.55 1536.6 1334.01 1541.8 1334.53 1548.95H1346.36C1345.58 1535.04 1335.18 1526.59 1319.45 1526.59C1303.59 1526.59 1293.32 1535.56 1293.32 1546.48C1293.32 1573 1335.44 1563.77 1335.44 1579.63C1335.44 1585.48 1330.24 1590.16 1320.88 1590.16C1310.87 1590.16 1304.76 1584.96 1304.11 1578.07H1291.89C1292.67 1591.07 1304.37 1600.17 1321.01 1600.17C1336.74 1600.17 1347.01 1591.33 1347.01 1579.63ZM1363.71 1599H1375.54V1567.54L1403.49 1599H1419.61L1385.94 1563.25L1419.48 1527.76H1402.97L1375.54 1559.35V1502.8H1363.71V1599ZM1430.62 1599H1442.45V1527.76H1430.62V1599ZM1436.73 1516.19C1441.02 1516.19 1444.53 1512.68 1444.53 1508.13C1444.53 1503.58 1441.02 1500.07 1436.73 1500.07C1432.18 1500.07 1428.67 1503.58 1428.67 1508.13C1428.67 1512.68 1432.18 1516.19 1436.73 1516.19ZM1462.61 1599H1474.44V1502.8H1462.61V1599ZM1494.6 1599H1506.43V1502.8H1494.6V1599ZM1556.88 1536.6C1569.1 1536.6 1579.5 1544.27 1579.37 1558.18H1534.39C1535.69 1544.27 1545.31 1536.6 1556.88 1536.6ZM1590.16 1577.03H1577.42C1574.82 1584.7 1568.06 1590.16 1557.4 1590.16C1545.31 1590.16 1535.17 1582.23 1534.26 1567.8H1591.2C1591.46 1565.33 1591.59 1563.25 1591.59 1560.65C1591.59 1541.15 1578.07 1526.59 1557.4 1526.59C1536.6 1526.59 1522.17 1540.76 1522.17 1563.25C1522.17 1585.87 1537.12 1600.17 1557.4 1600.17C1575.08 1600.17 1586.52 1590.03 1590.16 1577.03ZM1602.79 1563.12C1602.79 1585.22 1617.48 1600.17 1636.59 1600.17C1649.59 1600.17 1658.82 1593.54 1663.11 1585.61V1599H1675.07V1502.8H1663.11V1540.5C1658.17 1532.31 1647.9 1526.59 1636.72 1526.59C1617.48 1526.59 1602.79 1540.89 1602.79 1563.12ZM1663.11 1563.25C1663.11 1580.02 1651.93 1589.77 1638.93 1589.77C1625.93 1589.77 1614.88 1579.89 1614.88 1563.12C1614.88 1546.35 1625.93 1536.86 1638.93 1536.86C1651.93 1536.86 1663.11 1546.74 1663.11 1563.25ZM299.91 1794H311.74V1722.76H299.91V1794ZM306.02 1711.19C310.31 1711.19 313.82 1707.68 313.82 1703.13C313.82 1698.58 310.31 1695.07 306.02 1695.07C301.47 1695.07 297.96 1698.58 297.96 1703.13C297.96 1707.68 301.47 1711.19 306.02 1711.19ZM384.033 1794H395.733V1752.01C395.733 1731.6 383.123 1721.46 366.613 1721.46C356.993 1721.46 348.413 1725.49 343.733 1732.9V1722.76H331.903V1794H343.733V1754.61C343.733 1739.27 352.053 1731.73 364.143 1731.73C376.103 1731.73 384.033 1739.14 384.033 1753.7V1794ZM449.715 1794H461.545V1726.79L491.575 1794H499.895L529.795 1726.92V1794H541.625V1704.04H529.015L495.735 1778.4L462.455 1704.04H449.715V1794ZM561.688 1794H573.518V1722.76H561.688V1794ZM567.798 1711.19C572.088 1711.19 575.598 1707.68 575.598 1703.13C575.598 1698.58 572.088 1695.07 567.798 1695.07C563.248 1695.07 559.738 1698.58 559.738 1703.13C559.738 1707.68 563.248 1711.19 567.798 1711.19ZM589.26 1758.25C589.26 1780.87 603.69 1795.17 623.97 1795.17C641.65 1795.17 653.22 1785.29 656.86 1771.12H644.12C641.52 1780.09 634.5 1785.16 623.97 1785.16C610.97 1785.16 601.35 1775.93 601.35 1758.25C601.35 1740.83 610.97 1731.6 623.97 1731.6C634.5 1731.6 641.65 1737.06 644.12 1745.64H656.86C653.22 1730.69 641.65 1721.59 623.97 1721.59C603.69 1721.59 589.26 1735.89 589.26 1758.25ZM684.475 1755.26C684.475 1738.75 693.055 1733.68 704.365 1733.68H707.485V1721.46C696.175 1721.46 688.505 1726.4 684.475 1734.33V1722.76H672.645V1794H684.475V1755.26ZM788.741 1758.25C788.741 1735.76 773.011 1721.59 752.731 1721.59C732.581 1721.59 716.721 1735.76 716.721 1758.25C716.721 1780.87 732.061 1795.17 752.211 1795.17C772.491 1795.17 788.741 1780.87 788.741 1758.25ZM728.811 1758.25C728.811 1740.31 740.121 1731.86 752.601 1731.86C764.821 1731.86 776.651 1740.31 776.651 1758.25C776.651 1776.32 764.561 1784.77 752.211 1784.77C739.861 1784.77 728.811 1776.32 728.811 1758.25ZM855.515 1774.63C854.995 1749.15 813.655 1758.38 813.655 1741.48C813.655 1735.76 818.855 1731.6 827.565 1731.6C837.055 1731.6 842.515 1736.8 843.035 1743.95H854.865C854.085 1730.04 843.685 1721.59 827.955 1721.59C812.095 1721.59 801.825 1730.56 801.825 1741.48C801.825 1768 843.945 1758.77 843.945 1774.63C843.945 1780.48 838.745 1785.16 829.385 1785.16C819.375 1785.16 813.265 1779.96 812.615 1773.07H800.395C801.175 1786.07 812.875 1795.17 829.515 1795.17C845.245 1795.17 855.515 1786.33 855.515 1774.63ZM939.815 1758.25C939.815 1735.76 924.085 1721.59 903.805 1721.59C883.655 1721.59 867.795 1735.76 867.795 1758.25C867.795 1780.87 883.135 1795.17 903.285 1795.17C923.565 1795.17 939.815 1780.87 939.815 1758.25ZM879.885 1758.25C879.885 1740.31 891.195 1731.86 903.675 1731.86C915.895 1731.86 927.725 1740.31 927.725 1758.25C927.725 1776.32 915.635 1784.77 903.285 1784.77C890.935 1784.77 879.885 1776.32 879.885 1758.25ZM957.579 1794H969.409V1732.51H984.359V1722.76H969.409V1717.69C969.409 1708.46 972.919 1704.56 983.579 1704.56V1694.68C965.379 1694.68 957.579 1701.83 957.579 1717.69V1722.76H948.349V1732.51H957.579V1794ZM1000.75 1774.5C1000.75 1788.8 1007.9 1794 1020.51 1794H1031.17V1783.99H1022.46C1015.18 1783.99 1012.58 1781.52 1012.58 1774.5V1732.51H1031.17V1722.76H1012.58V1704.82H1000.75V1722.76H991.523V1732.51H1000.75V1774.5ZM1128.91 1703.26H1080.16V1794H1128.91V1784.25H1091.99V1753.05H1125.01V1743.3H1091.99V1713.01H1128.91V1703.26ZM1183.99 1794H1197.38L1174.37 1757.99L1197.25 1722.76H1184.9L1168.78 1749.15L1151.88 1722.76H1138.49L1161.5 1758.64L1138.49 1794H1150.84L1167.09 1767.48L1183.99 1794ZM1204.6 1758.25C1204.6 1780.87 1219.03 1795.17 1239.31 1795.17C1256.99 1795.17 1268.56 1785.29 1272.2 1771.12H1259.46C1256.86 1780.09 1249.84 1785.16 1239.31 1785.16C1226.31 1785.16 1216.69 1775.93 1216.69 1758.25C1216.69 1740.83 1226.31 1731.6 1239.31 1731.6C1249.84 1731.6 1256.99 1737.06 1259.46 1745.64H1272.2C1268.56 1730.69 1256.99 1721.59 1239.31 1721.59C1219.03 1721.59 1204.6 1735.89 1204.6 1758.25ZM1318.28 1731.6C1330.5 1731.6 1340.9 1739.27 1340.77 1753.18H1295.79C1297.09 1739.27 1306.71 1731.6 1318.28 1731.6ZM1351.56 1772.03H1338.82C1336.22 1779.7 1329.46 1785.16 1318.8 1785.16C1306.71 1785.16 1296.57 1777.23 1295.66 1762.8H1352.6C1352.86 1760.33 1352.99 1758.25 1352.99 1755.65C1352.99 1736.15 1339.47 1721.59 1318.8 1721.59C1298 1721.59 1283.57 1735.76 1283.57 1758.25C1283.57 1780.87 1298.52 1795.17 1318.8 1795.17C1336.48 1795.17 1347.92 1785.03 1351.56 1772.03ZM1368.6 1794H1380.43V1697.8H1368.6V1794ZM1430.83 1758.12C1430.83 1780.22 1445.52 1795.17 1464.5 1795.17C1477.63 1795.17 1486.86 1788.41 1491.15 1780.74V1794H1503.11V1722.76H1491.15V1735.76C1486.99 1728.35 1477.89 1721.59 1464.63 1721.59C1445.52 1721.59 1430.83 1735.89 1430.83 1758.12ZM1491.15 1758.25C1491.15 1775.02 1479.97 1784.77 1466.97 1784.77C1453.97 1784.77 1442.92 1774.89 1442.92 1758.12C1442.92 1741.35 1453.97 1731.86 1466.97 1731.86C1479.97 1731.86 1491.15 1741.74 1491.15 1758.25ZM1575.23 1794H1586.93V1752.01C1586.93 1731.6 1574.32 1721.46 1557.81 1721.46C1548.19 1721.46 1539.61 1725.49 1534.93 1732.9V1722.76H1523.1V1794H1534.93V1754.61C1534.93 1739.27 1543.25 1731.73 1555.34 1731.73C1567.3 1731.73 1575.23 1739.14 1575.23 1753.7V1794ZM1601.84 1758.12C1601.84 1780.22 1616.53 1795.17 1635.64 1795.17C1648.64 1795.17 1657.87 1788.54 1662.16 1780.61V1794H1674.12V1697.8H1662.16V1735.5C1657.22 1727.31 1646.95 1721.59 1635.77 1721.59C1616.53 1721.59 1601.84 1735.89 1601.84 1758.12ZM1662.16 1758.25C1662.16 1775.02 1650.98 1784.77 1637.98 1784.77C1624.98 1784.77 1613.93 1774.89 1613.93 1758.12C1613.93 1741.35 1624.98 1731.86 1637.98 1731.86C1650.98 1731.86 1662.16 1741.74 1662.16 1758.25ZM242.678 1930.89V1917.76H230.848V2022.8H242.678V1975.87C247.098 1983.15 256.328 1990.17 269.328 1990.17C288.438 1990.17 303.128 1975.22 303.128 1953.12C303.128 1930.89 288.438 1916.59 269.328 1916.59C256.328 1916.59 246.968 1923.35 242.678 1930.89ZM291.038 1953.12C291.038 1969.89 279.988 1979.77 266.858 1979.77C253.988 1979.77 242.678 1970.02 242.678 1953.25C242.678 1936.74 253.988 1926.86 266.858 1926.86C279.988 1926.86 291.038 1936.35 291.038 1953.12ZM330.529 1950.26C330.529 1933.75 339.109 1928.68 350.419 1928.68H353.539V1916.46C342.229 1916.46 334.559 1921.4 330.529 1929.33V1917.76H318.699V1989H330.529V1950.26ZM434.796 1953.25C434.796 1930.76 419.066 1916.59 398.786 1916.59C378.636 1916.59 362.776 1930.76 362.776 1953.25C362.776 1975.87 378.116 1990.17 398.266 1990.17C418.546 1990.17 434.796 1975.87 434.796 1953.25ZM374.866 1953.25C374.866 1935.31 386.176 1926.86 398.656 1926.86C410.876 1926.86 422.706 1935.31 422.706 1953.25C422.706 1971.32 410.616 1979.77 398.266 1979.77C385.916 1979.77 374.866 1971.32 374.866 1953.25ZM456.72 1906.19C461.14 1906.19 464.65 1902.68 464.65 1898.13C464.65 1893.58 461.14 1890.07 456.72 1890.07C452.3 1890.07 448.79 1893.58 448.79 1898.13C448.79 1902.68 452.3 1906.19 456.72 1906.19ZM450.74 1917.76V2004.21C450.74 2010.45 448.27 2012.79 441.77 2012.79H436.83V2022.8H443.72C455.81 2022.8 462.57 2017.34 462.57 2004.47V1917.76H450.74ZM512.886 1926.6C525.106 1926.6 535.506 1934.27 535.376 1948.18H490.396C491.696 1934.27 501.316 1926.6 512.886 1926.6ZM546.166 1967.03H533.426C530.826 1974.7 524.066 1980.16 513.406 1980.16C501.316 1980.16 491.176 1972.23 490.266 1957.8H547.206C547.466 1955.33 547.596 1953.25 547.596 1950.65C547.596 1931.15 534.076 1916.59 513.406 1916.59C492.606 1916.59 478.176 1930.76 478.176 1953.25C478.176 1975.87 493.126 1990.17 513.406 1990.17C531.086 1990.17 542.526 1980.03 546.166 1967.03ZM558.791 1953.25C558.791 1975.87 573.221 1990.17 593.501 1990.17C611.181 1990.17 622.751 1980.29 626.391 1966.12H613.651C611.051 1975.09 604.031 1980.16 593.501 1980.16C580.501 1980.16 570.881 1970.93 570.881 1953.25C570.881 1935.83 580.501 1926.6 593.501 1926.6C604.031 1926.6 611.181 1932.06 613.651 1940.64H626.391C622.751 1925.69 611.181 1916.59 593.501 1916.59C573.221 1916.59 558.791 1930.89 558.791 1953.25ZM644.776 1969.5C644.776 1983.8 651.926 1989 664.536 1989H675.196V1978.99H666.486C659.206 1978.99 656.606 1976.52 656.606 1969.5V1927.51H675.196V1917.76H656.606V1899.82H644.776V1917.76H635.546V1927.51H644.776V1969.5ZM719.768 1953.12C719.768 1975.22 734.458 1990.17 753.568 1990.17C766.568 1990.17 775.798 1983.54 780.088 1975.61V1989H792.048V1892.8H780.088V1930.5C775.148 1922.31 764.878 1916.59 753.698 1916.59C734.458 1916.59 719.768 1930.89 719.768 1953.12ZM780.088 1953.25C780.088 1970.02 768.908 1979.77 755.908 1979.77C742.908 1979.77 731.858 1969.89 731.858 1953.12C731.858 1936.35 742.908 1926.86 755.908 1926.86C768.908 1926.86 780.088 1936.74 780.088 1953.25ZM879.639 1953.25C879.639 1930.76 863.909 1916.59 843.629 1916.59C823.479 1916.59 807.619 1930.76 807.619 1953.25C807.619 1975.87 822.959 1990.17 843.109 1990.17C863.389 1990.17 879.639 1975.87 879.639 1953.25ZM819.709 1953.25C819.709 1935.31 831.019 1926.86 843.499 1926.86C855.719 1926.86 867.549 1935.31 867.549 1953.25C867.549 1971.32 855.459 1979.77 843.109 1979.77C830.759 1979.77 819.709 1971.32 819.709 1953.25ZM890.774 1953.25C890.774 1975.87 905.204 1990.17 925.484 1990.17C943.164 1990.17 954.734 1980.29 958.374 1966.12H945.634C943.034 1975.09 936.014 1980.16 925.484 1980.16C912.484 1980.16 902.864 1970.93 902.864 1953.25C902.864 1935.83 912.484 1926.6 925.484 1926.6C936.014 1926.6 943.164 1932.06 945.634 1940.64H958.374C954.734 1925.69 943.164 1916.59 925.484 1916.59C905.204 1916.59 890.774 1930.89 890.774 1953.25ZM1037.34 1917.76H1025.51V1956.89C1025.51 1972.23 1017.32 1979.77 1005.1 1979.77C993.138 1979.77 985.208 1972.36 985.208 1957.93V1917.76H973.508V1959.49C973.508 1979.9 986.378 1990.04 1002.76 1990.04C1012.25 1990.04 1020.96 1985.88 1025.51 1978.47V1989H1037.34V1917.76ZM1160.14 1989H1171.84V1947.01C1171.84 1926.6 1159.23 1916.46 1142.98 1916.46C1132.06 1916.46 1121.92 1922.05 1117.76 1932.32C1113.08 1921.66 1103.33 1916.46 1091.63 1916.46C1082.27 1916.46 1073.82 1920.49 1069.14 1928.03V1917.76H1057.31V1989H1069.14V1949.74C1069.14 1934.4 1077.33 1926.73 1089.29 1926.73C1100.99 1926.73 1108.79 1934.14 1108.79 1948.7V1989H1120.49V1949.74C1120.49 1934.4 1128.68 1926.73 1140.64 1926.73C1152.34 1926.73 1160.14 1934.14 1160.14 1948.7V1989ZM1221.54 1926.6C1233.76 1926.6 1244.16 1934.27 1244.03 1948.18H1199.05C1200.35 1934.27 1209.97 1926.6 1221.54 1926.6ZM1254.82 1967.03H1242.08C1239.48 1974.7 1232.72 1980.16 1222.06 1980.16C1209.97 1980.16 1199.83 1972.23 1198.92 1957.8H1255.86C1256.12 1955.33 1256.25 1953.25 1256.25 1950.65C1256.25 1931.15 1242.73 1916.59 1222.06 1916.59C1201.26 1916.59 1186.83 1930.76 1186.83 1953.25C1186.83 1975.87 1201.78 1990.17 1222.06 1990.17C1239.74 1990.17 1251.18 1980.03 1254.82 1967.03ZM1323.99 1989H1335.69V1947.01C1335.69 1926.6 1323.08 1916.46 1306.57 1916.46C1296.95 1916.46 1288.37 1920.49 1283.69 1927.9V1917.76H1271.86V1989H1283.69V1949.61C1283.69 1934.27 1292.01 1926.73 1304.1 1926.73C1316.06 1926.73 1323.99 1934.14 1323.99 1948.7V1989ZM1357.62 1969.5C1357.62 1983.8 1364.77 1989 1377.38 1989H1388.04V1978.99H1379.33C1372.05 1978.99 1369.45 1976.52 1369.45 1969.5V1927.51H1388.04V1917.76H1369.45V1899.82H1357.62V1917.76H1348.39V1927.51H1357.62V1969.5ZM1397.95 1953.12C1397.95 1975.22 1412.64 1990.17 1431.62 1990.17C1444.75 1990.17 1453.98 1983.41 1458.27 1975.74V1989H1470.23V1917.76H1458.27V1930.76C1454.11 1923.35 1445.01 1916.59 1431.75 1916.59C1412.64 1916.59 1397.95 1930.89 1397.95 1953.12ZM1458.27 1953.25C1458.27 1970.02 1447.09 1979.77 1434.09 1979.77C1421.09 1979.77 1410.04 1969.89 1410.04 1953.12C1410.04 1936.35 1421.09 1926.86 1434.09 1926.86C1447.09 1926.86 1458.27 1936.74 1458.27 1953.25ZM1492.82 1969.5C1492.82 1983.8 1499.97 1989 1512.58 1989H1523.24V1978.99H1514.53C1507.25 1978.99 1504.65 1976.52 1504.65 1969.5V1927.51H1523.24V1917.76H1504.65V1899.82H1492.82V1917.76H1483.59V1927.51H1492.82V1969.5ZM1537.58 1989H1549.41V1917.76H1537.58V1989ZM1543.69 1906.19C1547.98 1906.19 1551.49 1902.68 1551.49 1898.13C1551.49 1893.58 1547.98 1890.07 1543.69 1890.07C1539.14 1890.07 1535.63 1893.58 1535.63 1898.13C1535.63 1902.68 1539.14 1906.19 1543.69 1906.19ZM1637.17 1953.25C1637.17 1930.76 1621.44 1916.59 1601.16 1916.59C1581.01 1916.59 1565.15 1930.76 1565.15 1953.25C1565.15 1975.87 1580.49 1990.17 1600.64 1990.17C1620.92 1990.17 1637.17 1975.87 1637.17 1953.25ZM1577.24 1953.25C1577.24 1935.31 1588.55 1926.86 1601.03 1926.86C1613.25 1926.86 1625.08 1935.31 1625.08 1953.25C1625.08 1971.32 1612.99 1979.77 1600.64 1979.77C1588.29 1979.77 1577.24 1971.32 1577.24 1953.25ZM1704.85 1989H1716.55V1947.01C1716.55 1926.6 1703.94 1916.46 1687.43 1916.46C1677.81 1916.46 1669.23 1920.49 1664.55 1927.9V1917.76H1652.72V1989H1664.55V1949.61C1664.55 1934.27 1672.87 1926.73 1684.96 1926.73C1696.92 1926.73 1704.85 1934.14 1704.85 1948.7V1989ZM1747.45 1981.72C1747.45 1977.17 1743.94 1973.66 1739.65 1973.66C1735.1 1973.66 1731.59 1977.17 1731.59 1981.72C1731.59 1986.27 1735.1 1989.78 1739.65 1989.78C1743.94 1989.78 1747.45 1986.27 1747.45 1981.72Z" fill="black"/>
<path d="M1124.33 1117.95H1060.72V1085.4H1124.33V1117.95ZM1124.33 1136.56H1060.72V1169.12H1124.33V1136.56ZM1124.33 983.07H1060.72V1015.63H1124.33V983.07V983.07ZM1124.33 1034.23H1060.72V1066.79H1124.33V1034.23ZM1124.33 1187.72H1060.72V1220.28H1124.33V1187.72V1187.72ZM1168.27 1251.91C1166.46 1261.58 1155.1 1261.81 1147.51 1262.14H1006.19V1304H977.974L770 1266.79V941.256L979.201 904H1006.19V941.07H1142.65C1150.32 941.395 1158.78 940.837 1165.46 945.534C1170.14 952.418 1169.68 961.163 1170 969.069L1169.82 1211.21C1169.59 1224.74 1171.04 1238.56 1168.27 1251.91ZM936.624 1178.93C924.084 1152.88 911.316 1127.02 898.819 1100.98C911.179 1075.63 923.357 1050.19 935.489 1024.74C925.174 1025.26 914.859 1025.91 904.591 1026.65C896.911 1045.77 887.959 1064.37 881.962 1084.14C876.373 1065.49 868.966 1047.53 862.196 1029.35C852.199 1029.91 842.202 1030.51 832.206 1031.12C842.748 1054.93 853.972 1078.42 864.195 1102.37C852.154 1125.63 840.885 1149.21 829.207 1172.6C839.158 1173.02 849.109 1173.44 859.06 1173.58C866.149 1155.07 874.964 1137.26 881.144 1118.37C886.687 1138.65 896.093 1157.4 903.818 1176.79C914.769 1177.58 925.674 1178.28 936.625 1178.93H936.624ZM1148.33 963.16H1006.19V983.07H1042.54V1015.63H1006.19V1034.23H1042.54V1066.79H1006.19V1085.4H1042.54V1117.95H1006.19V1136.56H1042.54V1169.12H1006.19V1187.72H1042.54V1220.28H1006.19V1241.79H1148.33V963.16Z" fill="black"/>
</svg>
