<svg width="1500" height="796" viewBox="0 0 1500 796" fill="none" xmlns="http://www.w3.org/2000/svg">
<rect width="1500" height="796" rx="20" fill="white"/>
<rect x="50" y="110" width="202" height="164" rx="20" fill="#8C20BF"/>
<rect x="277" y="110" width="202" height="164" rx="20" fill="#6C6767"/>
<rect x="277" y="316" width="202" height="164" rx="20" fill="#786B7D" fill-opacity="0.28"/>
<rect x="50" y="316" width="202" height="164" rx="20" fill="black"/>
<rect x="50" y="522" width="202" height="164" rx="20" fill="#333333"/>
<rect x="277" y="517" width="202" height="164" rx="20" fill="#F24E1E"/>
<path d="M51.4 59C51.4 67.36 57.52 73.24 65.56 73.24C71.76 73.24 76.8 69.96 78.68 64.2H72.24C70.92 66.92 68.52 68.24 65.52 68.24C60.64 68.24 57.16 64.64 57.16 59C57.16 53.32 60.64 49.76 65.52 49.76C68.52 49.76 70.92 51.08 72.24 53.76H78.68C76.8 48.04 71.76 44.72 65.56 44.72C57.52 44.72 51.4 50.64 51.4 59ZM104.863 61.92C104.863 54.92 99.8631 50.48 93.4631 50.48C87.0631 50.48 82.0631 54.92 82.0631 61.92C82.0631 68.88 86.9031 73.36 93.3031 73.36C99.7431 73.36 104.863 68.88 104.863 61.92ZM87.7431 61.92C87.7431 57.48 90.4231 55.36 93.3831 55.36C96.3431 55.36 99.1031 57.48 99.1031 61.92C99.1031 66.32 96.2631 68.48 93.3031 68.48C90.3031 68.48 87.7431 66.32 87.7431 61.92ZM108.971 73H114.571V43.4H108.971V73ZM141.504 61.92C141.504 54.92 136.504 50.48 130.104 50.48C123.704 50.48 118.704 54.92 118.704 61.92C118.704 68.88 123.544 73.36 129.944 73.36C136.384 73.36 141.504 68.88 141.504 61.92ZM124.384 61.92C124.384 57.48 127.064 55.36 130.024 55.36C132.984 55.36 135.744 57.48 135.744 61.92C135.744 66.32 132.904 68.48 129.944 68.48C126.944 68.48 124.384 66.32 124.384 61.92ZM166.532 50.84H160.892V63.04C160.892 66.6 158.972 68.52 155.932 68.52C152.972 68.52 151.012 66.6 151.012 63.04V50.84H145.412V63.84C145.412 69.92 149.132 73.28 154.292 73.28C157.052 73.28 159.492 72.08 160.892 70.2V73H166.532V50.84ZM177.657 61.96C177.657 57.68 179.657 56.4 182.977 56.4H184.457V50.52C181.377 50.52 179.057 52 177.657 54.28V50.84H172.057V73H177.657V61.96ZM205.429 66.68C205.269 58.56 192.989 61.08 192.989 57.04C192.989 55.76 194.069 54.92 196.149 54.92C198.349 54.92 199.709 56.08 199.869 57.8H205.229C204.909 53.4 201.669 50.48 196.309 50.48C190.829 50.48 187.549 53.44 187.549 57.12C187.549 65.24 200.069 62.72 200.069 66.68C200.069 67.96 198.869 68.96 196.669 68.96C194.429 68.96 192.869 67.68 192.669 66H187.029C187.269 70.12 191.149 73.36 196.709 73.36C202.109 73.36 205.429 70.48 205.429 66.68Z" fill="black"/>
<path d="M593.28 56.6H600.72V80H606.32V56.6H613.76V52.08H593.28V56.6ZM627.366 62.08C630.246 62.08 632.566 63.92 632.646 66.84H622.126C622.566 63.8 624.686 62.08 627.366 62.08ZM637.886 73.04H631.846C631.126 74.52 629.806 75.72 627.406 75.72C624.606 75.72 622.366 73.88 622.086 70.6H638.286C638.406 69.88 638.446 69.16 638.446 68.44C638.446 61.84 633.926 57.48 627.526 57.48C620.966 57.48 616.406 61.92 616.406 68.92C616.406 75.88 621.086 80.36 627.526 80.36C633.006 80.36 636.686 77.12 637.886 73.04ZM654.773 80H661.093L653.733 68.88L661.013 57.84H655.013L650.933 64.68L646.413 57.84H640.093L647.413 68.88L640.173 80H646.173L650.213 73.12L654.773 80ZM665.015 73.12C665.015 78.2 667.855 80 672.095 80H675.615V75.28H673.015C671.255 75.28 670.655 74.64 670.655 73.16V62.44H675.615V57.84H670.655V52.36H665.015V57.84H662.375V62.44H665.015V73.12Z" fill="black"/>
<path d="M932.96 45.04H916.76V73H932.96V68.44H922.36V61.04H931.76V56.6H922.36V49.6H932.96V45.04ZM938.049 73H943.649V43.4H938.049V73ZM958.702 55.08C961.582 55.08 963.902 56.92 963.982 59.84H953.462C953.902 56.8 956.022 55.08 958.702 55.08ZM969.222 66.04H963.182C962.462 67.52 961.142 68.72 958.742 68.72C955.942 68.72 953.702 66.88 953.422 63.6H969.622C969.742 62.88 969.782 62.16 969.782 61.44C969.782 54.84 965.262 50.48 958.862 50.48C952.302 50.48 947.742 54.92 947.742 61.92C947.742 68.88 952.422 73.36 958.862 73.36C964.342 73.36 968.022 70.12 969.222 66.04ZM1004.87 73H1010.47V60C1010.47 53.88 1006.71 50.52 1001.39 50.52C998.149 50.52 995.229 52.24 993.789 54.76C992.269 52 989.429 50.52 985.989 50.52C983.229 50.52 980.869 51.68 979.469 53.52V50.84H973.869V73H979.469V60.76C979.469 57.24 981.429 55.4 984.469 55.4C987.429 55.4 989.389 57.24 989.389 60.76V73H994.989V60.76C994.989 57.24 996.949 55.4 999.949 55.4C1002.91 55.4 1004.87 57.24 1004.87 60.76V73ZM1025.3 55.08C1028.18 55.08 1030.5 56.92 1030.58 59.84H1020.06C1020.5 56.8 1022.62 55.08 1025.3 55.08ZM1035.82 66.04H1029.78C1029.06 67.52 1027.74 68.72 1025.34 68.72C1022.54 68.72 1020.3 66.88 1020.02 63.6H1036.22C1036.34 62.88 1036.38 62.16 1036.38 61.44C1036.38 54.84 1031.86 50.48 1025.46 50.48C1018.9 50.48 1014.34 54.92 1014.34 61.92C1014.34 68.88 1019.02 73.36 1025.46 73.36C1030.94 73.36 1034.62 70.12 1035.82 66.04ZM1055.99 73H1061.59V60C1061.59 53.88 1057.91 50.52 1052.75 50.52C1049.91 50.52 1047.51 51.72 1046.07 53.6V50.84H1040.47V73H1046.07V60.76C1046.07 57.2 1048.03 55.28 1051.07 55.28C1054.03 55.28 1055.99 57.2 1055.99 60.76V73ZM1067.8 66.12C1067.8 71.2 1070.64 73 1074.88 73H1078.4V68.28H1075.8C1074.04 68.28 1073.44 67.64 1073.44 66.16V55.44H1078.4V50.84H1073.44V45.36H1067.8V50.84H1065.16V55.44H1067.8V66.12ZM1099.62 66.68C1099.46 58.56 1087.18 61.08 1087.18 57.04C1087.18 55.76 1088.26 54.92 1090.34 54.92C1092.54 54.92 1093.9 56.08 1094.06 57.8H1099.42C1099.1 53.4 1095.86 50.48 1090.5 50.48C1085.02 50.48 1081.74 53.44 1081.74 57.12C1081.74 65.24 1094.26 62.72 1094.26 66.68C1094.26 67.96 1093.06 68.96 1090.86 68.96C1088.62 68.96 1087.06 67.68 1086.86 66H1081.22C1081.46 70.12 1085.34 73.36 1090.9 73.36C1096.3 73.36 1099.62 70.48 1099.62 66.68Z" fill="black"/>
<path d="M892.76 464H898.36V436.08H892.76V464ZM902.453 452.92C902.453 459.88 907.013 464.36 913.413 464.36C918.933 464.36 922.653 461.24 923.853 456.52H917.813C917.133 458.52 915.693 459.56 913.373 459.56C910.253 459.56 908.173 457.24 908.173 452.92C908.173 448.6 910.253 446.24 913.373 446.24C915.693 446.24 917.173 447.44 917.813 449.32H923.853C922.653 444.36 918.933 441.48 913.413 441.48C907.013 441.48 902.453 445.96 902.453 452.92ZM949.355 452.92C949.355 445.92 944.355 441.48 937.955 441.48C931.555 441.48 926.555 445.92 926.555 452.92C926.555 459.88 931.395 464.36 937.795 464.36C944.235 464.36 949.355 459.88 949.355 452.92ZM932.235 452.92C932.235 448.48 934.915 446.36 937.875 446.36C940.835 446.36 943.595 448.48 943.595 452.92C943.595 457.32 940.755 459.48 937.795 459.48C934.795 459.48 932.235 457.32 932.235 452.92ZM968.983 464H974.583V451C974.583 444.88 970.903 441.52 965.743 441.52C962.903 441.52 960.503 442.72 959.063 444.6V441.84H953.463V464H959.063V451.76C959.063 448.2 961.023 446.28 964.063 446.28C967.023 446.28 968.983 448.2 968.983 451.76V464ZM997.108 457.68C996.948 449.56 984.668 452.08 984.668 448.04C984.668 446.76 985.748 445.92 987.828 445.92C990.028 445.92 991.388 447.08 991.548 448.8H996.908C996.588 444.4 993.348 441.48 987.988 441.48C982.508 441.48 979.228 444.44 979.228 448.12C979.228 456.24 991.748 453.72 991.748 457.68C991.748 458.96 990.548 459.96 988.348 459.96C986.108 459.96 984.548 458.68 984.348 457H978.708C978.948 461.12 982.828 464.36 988.388 464.36C993.788 464.36 997.108 461.48 997.108 457.68Z" fill="black"/>
<path d="M623.05 165H632.1L619.4 129.9H609.5L596.8 165H605.75L607.85 158.8H620.95L623.05 165ZM618.75 152.2H610.1L614.4 139.35L618.75 152.2ZM634.265 151C634.265 159.8 639.715 165.4 646.515 165.4C650.665 165.4 653.615 163.5 655.165 161.05V165H663.715V137.1H655.165V141.05C653.665 138.6 650.715 136.7 646.565 136.7C639.715 136.7 634.265 142.2 634.265 151ZM655.165 151.05C655.165 155.5 652.315 157.95 649.065 157.95C645.865 157.95 642.965 155.45 642.965 151C642.965 146.55 645.865 144.15 649.065 144.15C652.315 144.15 655.165 146.6 655.165 151.05Z" fill="black"/>
<path d="M797.428 161H789.19L801.743 124.636H811.651L824.186 161H815.947L806.839 132.946H806.555L797.428 161ZM796.913 146.707H816.374V152.708H796.913V146.707ZM836.198 161.515C834.458 161.515 832.907 161.213 831.546 160.609C830.185 159.994 829.107 159.088 828.314 157.893C827.533 156.685 827.142 155.182 827.142 153.383C827.142 151.868 827.421 150.595 827.977 149.565C828.533 148.536 829.291 147.707 830.25 147.08C831.208 146.452 832.297 145.979 833.517 145.659C834.748 145.339 836.038 145.115 837.387 144.984C838.974 144.819 840.252 144.665 841.223 144.523C842.193 144.369 842.898 144.144 843.336 143.848C843.774 143.552 843.993 143.114 843.993 142.534V142.428C843.993 141.303 843.637 140.433 842.927 139.817C842.229 139.202 841.234 138.894 839.944 138.894C838.583 138.894 837.5 139.196 836.695 139.8C835.89 140.392 835.357 141.137 835.097 142.037L828.101 141.469C828.456 139.812 829.155 138.379 830.196 137.172C831.238 135.953 832.582 135.018 834.227 134.366C835.884 133.704 837.802 133.372 839.98 133.372C841.495 133.372 842.945 133.55 844.33 133.905C845.727 134.26 846.964 134.81 848.041 135.556C849.13 136.302 849.988 137.261 850.615 138.433C851.243 139.593 851.556 140.983 851.556 142.605V161H844.383V157.218H844.17C843.732 158.07 843.146 158.822 842.412 159.473C841.678 160.112 840.797 160.615 839.767 160.982C838.737 161.337 837.547 161.515 836.198 161.515ZM838.364 156.295C839.477 156.295 840.459 156.076 841.311 155.638C842.164 155.188 842.833 154.584 843.318 153.827C843.803 153.069 844.046 152.211 844.046 151.252V148.358C843.809 148.512 843.484 148.654 843.069 148.784C842.667 148.902 842.211 149.015 841.702 149.121C841.193 149.216 840.684 149.305 840.175 149.388C839.666 149.459 839.204 149.524 838.79 149.583C837.902 149.713 837.127 149.92 836.464 150.205C835.801 150.489 835.286 150.873 834.919 151.359C834.552 151.832 834.369 152.424 834.369 153.134C834.369 154.164 834.742 154.951 835.488 155.496C836.245 156.028 837.204 156.295 838.364 156.295Z" fill="black"/>
<path d="M619.15 366H626.55L614 331.05H605.85L593.3 366H600.65L602.95 359.35H616.85L619.15 366ZM614.95 353.75H604.85L609.9 339.15L614.95 353.75ZM629.441 352.05C629.441 360.7 635.041 366.45 642.041 366.45C646.441 366.45 649.591 364.35 651.241 361.95V366H658.291V338.3H651.241V342.25C649.591 339.95 646.541 337.85 642.091 337.85C635.041 337.85 629.441 343.4 629.441 352.05ZM651.241 352.15C651.241 357.4 647.741 360.3 643.891 360.3C640.141 360.3 636.591 357.3 636.591 352.05C636.591 346.8 640.141 344 643.891 344C647.741 344 651.241 346.9 651.241 352.15Z" fill="black"/>
<path d="M610.25 557H615.05L602.5 522.35H597.25L584.65 557H589.45L592.25 549.25H607.45L610.25 557ZM606.15 545.55H593.55L599.85 527.95L606.15 545.55ZM618.841 543.2C618.841 551.7 624.491 557.45 631.791 557.45C636.841 557.45 640.391 554.85 642.041 551.9V557H646.641V529.6H642.041V534.6C640.441 531.75 636.941 529.15 631.841 529.15C624.491 529.15 618.841 534.65 618.841 543.2ZM642.041 543.25C642.041 549.7 637.741 553.45 632.741 553.45C627.741 553.45 623.491 549.65 623.491 543.2C623.491 536.75 627.741 533.1 632.741 533.1C637.741 533.1 642.041 536.9 642.041 543.25Z" fill="black"/>
<path d="M605.47 278.58C605.47 280.08 604.48 280.86 602.77 280.86H598.99V276.21H602.71C604.42 276.21 605.47 277.08 605.47 278.58ZM604.96 270.27C604.96 271.71 604.03 272.46 602.35 272.46H598.99V268.05H602.35C604.03 268.05 604.96 268.83 604.96 270.27ZM610.66 279.27C610.66 276.87 609.07 274.71 606.61 274.2C608.65 273.6 610.18 271.95 610.18 269.4C610.18 266.07 607.63 263.94 603.34 263.94H593.86V285H603.67C608.11 285 610.66 282.75 610.66 279.27ZM630.015 276.63C630.015 271.32 626.235 268.02 621.315 268.02C616.425 268.02 612.615 271.32 612.615 276.63C612.615 281.94 616.335 285.24 621.255 285.24C626.175 285.24 630.015 281.94 630.015 276.63ZM617.835 276.63C617.835 273.78 619.455 272.46 621.315 272.46C623.115 272.46 624.795 273.78 624.795 276.63C624.795 279.45 623.085 280.8 621.255 280.8C619.395 280.8 617.835 279.45 617.835 276.63ZM632.737 285H637.867V262.8H632.737V285ZM640.565 276.6C640.565 281.88 643.835 285.24 647.945 285.24C650.405 285.24 652.175 284.13 653.105 282.6V285H658.235V262.8H653.105V270.57C652.085 269.04 650.165 268.02 647.945 268.02C643.835 268.02 640.565 271.32 640.565 276.6ZM653.105 276.63C653.105 279.3 651.395 280.77 649.445 280.77C647.525 280.77 645.785 279.27 645.785 276.6C645.785 273.93 647.525 272.49 649.445 272.49C651.395 272.49 653.105 273.96 653.105 276.63Z" fill="black"/>
<path d="M793.896 278V256.182H802.632C804.237 256.182 805.576 256.42 806.648 256.896C807.721 257.371 808.527 258.032 809.067 258.877C809.607 259.715 809.876 260.681 809.876 261.775C809.876 262.627 809.706 263.376 809.365 264.023C809.024 264.662 808.555 265.187 807.959 265.599C807.369 266.004 806.695 266.292 805.935 266.462V266.675C806.766 266.711 807.543 266.945 808.268 267.379C808.999 267.812 809.592 268.419 810.047 269.2C810.501 269.974 810.729 270.898 810.729 271.97C810.729 273.128 810.441 274.161 809.866 275.07C809.298 275.972 808.456 276.686 807.341 277.212C806.226 277.737 804.852 278 803.218 278H793.896ZM798.509 274.229H802.27C803.555 274.229 804.493 273.984 805.082 273.494C805.672 272.996 805.967 272.336 805.967 271.512C805.967 270.908 805.821 270.376 805.53 269.914C805.239 269.452 804.823 269.09 804.283 268.827C803.751 268.565 803.115 268.433 802.376 268.433H798.509V274.229ZM798.509 265.312H801.929C802.561 265.312 803.122 265.202 803.612 264.982C804.109 264.754 804.5 264.435 804.784 264.023C805.075 263.611 805.221 263.117 805.221 262.542C805.221 261.754 804.94 261.118 804.379 260.635C803.825 260.152 803.037 259.911 802.014 259.911H798.509V265.312ZM821.039 278.32C819.384 278.32 817.953 277.968 816.745 277.265C815.545 276.555 814.618 275.567 813.965 274.303C813.311 273.032 812.985 271.558 812.985 269.882C812.985 268.192 813.311 266.714 813.965 265.45C814.618 264.179 815.545 263.192 816.745 262.489C817.953 261.778 819.384 261.423 821.039 261.423C822.693 261.423 824.121 261.778 825.321 262.489C826.529 263.192 827.459 264.179 828.112 265.45C828.766 266.714 829.093 268.192 829.093 269.882C829.093 271.558 828.766 273.032 828.112 274.303C827.459 275.567 826.529 276.555 825.321 277.265C824.121 277.968 822.693 278.32 821.039 278.32ZM821.06 274.804C821.813 274.804 822.441 274.591 822.945 274.165C823.45 273.732 823.83 273.142 824.085 272.396C824.348 271.651 824.48 270.802 824.48 269.85C824.48 268.898 824.348 268.05 824.085 267.304C823.83 266.558 823.45 265.969 822.945 265.536C822.441 265.102 821.813 264.886 821.06 264.886C820.3 264.886 819.661 265.102 819.142 265.536C818.631 265.969 818.244 266.558 817.981 267.304C817.725 268.05 817.597 268.898 817.597 269.85C817.597 270.802 817.725 271.651 817.981 272.396C818.244 273.142 818.631 273.732 819.142 274.165C819.661 274.591 820.3 274.804 821.06 274.804ZM836.582 256.182V278H832.044V256.182H836.582ZM846.247 278.266C845.004 278.266 843.879 277.947 842.87 277.308C841.869 276.661 841.073 275.713 840.484 274.463C839.901 273.206 839.61 271.665 839.61 269.839C839.61 267.964 839.912 266.406 840.516 265.163C841.119 263.913 841.922 262.979 842.923 262.361C843.932 261.736 845.036 261.423 846.237 261.423C847.153 261.423 847.916 261.58 848.527 261.892C849.145 262.197 849.642 262.581 850.018 263.043C850.402 263.497 850.693 263.945 850.892 264.385H851.031V256.182H855.558V278H851.084V275.379H850.892C850.679 275.834 850.377 276.285 849.987 276.732C849.603 277.173 849.102 277.538 848.484 277.83C847.874 278.121 847.128 278.266 846.247 278.266ZM847.685 274.655C848.417 274.655 849.035 274.456 849.539 274.058C850.05 273.653 850.441 273.089 850.711 272.364C850.988 271.64 851.126 270.791 851.126 269.818C851.126 268.845 850.991 268 850.722 267.283C850.452 266.565 850.061 266.011 849.55 265.621C849.038 265.23 848.417 265.035 847.685 265.035C846.94 265.035 846.311 265.237 845.8 265.642C845.288 266.047 844.901 266.608 844.638 267.325C844.376 268.043 844.244 268.874 844.244 269.818C844.244 270.77 844.376 271.612 844.638 272.343C844.908 273.067 845.295 273.636 845.8 274.048C846.311 274.452 846.94 274.655 847.685 274.655Z" fill="black"/>
<path d="M608.71 469.94C608.71 462.56 597.97 464.9 597.97 460.7C597.97 458.99 599.2 458.18 600.85 458.24C602.65 458.27 603.76 459.35 603.85 460.73H608.47C608.2 456.95 605.26 454.76 600.97 454.76C596.65 454.76 593.59 457.04 593.59 460.82C593.56 468.41 604.36 465.68 604.36 470.21C604.36 471.71 603.19 472.76 601.21 472.76C599.26 472.76 598.15 471.65 598.03 469.97H593.53C593.59 473.93 596.95 476.21 601.3 476.21C606.07 476.21 608.71 473.24 608.71 469.94ZM619.491 462.56C621.651 462.56 623.391 463.94 623.451 466.13H615.561C615.891 463.85 617.481 462.56 619.491 462.56ZM627.381 470.78H622.851C622.311 471.89 621.321 472.79 619.521 472.79C617.421 472.79 615.741 471.41 615.531 468.95H627.681C627.771 468.41 627.801 467.87 627.801 467.33C627.801 462.38 624.411 459.11 619.611 459.11C614.691 459.11 611.271 462.44 611.271 467.69C611.271 472.91 614.781 476.27 619.611 476.27C623.721 476.27 626.481 473.84 627.381 470.78ZM654.117 476H658.317V466.25C658.317 461.66 655.497 459.14 651.507 459.14C649.077 459.14 646.887 460.43 645.807 462.32C644.667 460.25 642.537 459.14 639.957 459.14C637.887 459.14 636.117 460.01 635.067 461.39V459.38H630.867V476H635.067V466.82C635.067 464.18 636.537 462.8 638.817 462.8C641.037 462.8 642.507 464.18 642.507 466.82V476H646.707V466.82C646.707 464.18 648.177 462.8 650.427 462.8C652.647 462.8 654.117 464.18 654.117 466.82V476ZM662.302 476H666.502V459.38H662.302V476ZM664.432 457.4C665.902 457.4 667.012 456.32 667.012 454.94C667.012 453.56 665.902 452.48 664.432 452.48C662.932 452.48 661.852 453.56 661.852 454.94C661.852 456.32 662.932 457.4 664.432 457.4ZM682.322 469.82C682.322 471.59 681.122 472.58 679.082 472.58H674.852V466.94H678.992C681.032 466.94 682.322 468.02 682.322 469.82ZM681.812 461.09C681.812 462.8 680.672 463.7 678.692 463.7H674.852V458.45H678.692C680.672 458.45 681.812 459.41 681.812 461.09ZM686.582 470.33C686.582 467.87 684.902 465.68 682.532 465.26C684.572 464.6 686.102 463.01 686.102 460.46C686.102 457.34 683.672 455.06 679.292 455.06H670.652V476H679.682C684.032 476 686.582 473.66 686.582 470.33ZM705.979 467.69C705.979 462.44 702.229 459.11 697.429 459.11C692.629 459.11 688.879 462.44 688.879 467.69C688.879 472.91 692.509 476.27 697.309 476.27C702.139 476.27 705.979 472.91 705.979 467.69ZM693.139 467.69C693.139 464.36 695.149 462.77 697.369 462.77C699.589 462.77 701.659 464.36 701.659 467.69C701.659 470.99 699.529 472.61 697.309 472.61C695.059 472.61 693.139 470.99 693.139 467.69ZM709.06 476H713.26V453.8H709.06V476ZM716.33 467.63C716.33 472.82 719.69 476.27 723.92 476.27C726.53 476.27 728.39 475.07 729.38 473.54V476H733.64V453.8H729.38V461.69C728.24 460.13 726.14 459.11 723.95 459.11C719.69 459.11 716.33 462.44 716.33 467.63ZM729.41 467.69C729.41 470.84 727.31 472.58 725 472.58C722.75 472.58 720.62 470.78 720.62 467.63C720.62 464.48 722.75 462.8 725 462.8C727.31 462.8 729.41 464.54 729.41 467.69Z" fill="black"/>
<path d="M596.5 624.24C596.5 626.58 595.15 628.26 592.06 628.26H588.04V620.34H592.06C595.18 620.34 596.5 621.87 596.5 624.24ZM585.31 618.09V639H588.04V630.45H591.34L596.32 639H599.59L594.34 630.24C597.85 629.46 599.32 626.91 599.32 624.24C599.32 620.82 596.98 618.09 592.06 618.09H585.31ZM610.552 624.6C613.372 624.6 615.772 626.37 615.742 629.58H605.362C605.662 626.37 607.882 624.6 610.552 624.6ZM618.232 633.93H615.292C614.692 635.7 613.132 636.96 610.672 636.96C607.882 636.96 605.542 635.13 605.332 631.8H618.472C618.532 631.23 618.562 630.75 618.562 630.15C618.562 625.65 615.442 622.29 610.672 622.29C605.872 622.29 602.542 625.56 602.542 630.75C602.542 635.97 605.992 639.27 610.672 639.27C614.752 639.27 617.392 636.93 618.232 633.93ZM621.145 630.72C621.145 635.82 624.535 639.27 628.945 639.27C631.945 639.27 634.075 637.68 635.065 635.91V639.36C635.065 642.87 632.875 644.73 629.965 644.73C627.265 644.73 625.315 643.38 624.715 641.4H622.015C622.555 644.91 625.645 647.1 629.965 647.1C634.795 647.1 637.825 643.89 637.825 639.36V622.56H635.065V625.56C634.105 623.79 631.945 622.29 628.945 622.29C624.535 622.29 621.145 625.59 621.145 630.72ZM635.065 630.75C635.065 634.62 632.485 636.87 629.485 636.87C626.485 636.87 623.935 634.59 623.935 630.72C623.935 626.85 626.485 624.66 629.485 624.66C632.485 624.66 635.065 626.94 635.065 630.75ZM657.019 622.56H654.289V631.59C654.289 635.13 652.399 636.87 649.579 636.87C646.819 636.87 644.989 635.16 644.989 631.83V622.56H642.289V632.19C642.289 636.9 645.259 639.24 649.039 639.24C651.229 639.24 653.239 638.28 654.289 636.57V639H657.019V622.56ZM661.628 639H664.358V616.8H661.628V639ZM667.991 630.72C667.991 635.82 671.381 639.27 675.761 639.27C678.791 639.27 680.921 637.71 681.911 635.94V639H684.671V622.56H681.911V625.56C680.951 623.85 678.851 622.29 675.791 622.29C671.381 622.29 667.991 625.59 667.991 630.72ZM681.911 630.75C681.911 634.62 679.331 636.87 676.331 636.87C673.331 636.87 670.781 634.59 670.781 630.72C670.781 626.85 673.331 624.66 676.331 624.66C679.331 624.66 681.911 626.94 681.911 630.75ZM692.015 630.06C692.015 626.25 693.995 625.08 696.605 625.08H697.325V622.26C694.715 622.26 692.945 623.4 692.015 625.23V622.56H689.285V639H692.015V630.06Z" fill="black"/>
<path d="M602.99 213.36V208.08H605.78C607.82 208.08 608.69 209.1 608.69 210.72C608.69 212.34 607.82 213.36 605.78 213.36H602.99ZM613.91 210.72C613.91 206.85 611.33 203.94 606.17 203.94H597.86V225H602.99V217.44H606.17C611.54 217.44 613.91 214.2 613.91 210.72ZM632.961 216.63C632.961 211.32 629.181 208.02 624.261 208.02C619.371 208.02 615.561 211.32 615.561 216.63C615.561 221.94 619.281 225.24 624.201 225.24C629.121 225.24 632.961 221.94 632.961 216.63ZM620.781 216.63C620.781 213.78 622.401 212.46 624.261 212.46C626.061 212.46 627.741 213.78 627.741 216.63C627.741 219.45 626.031 220.8 624.201 220.8C622.341 220.8 620.781 219.45 620.781 216.63ZM640.812 210.63V208.26H635.682V232.98H640.812V222.66C641.742 224.07 643.512 225.24 645.972 225.24C650.082 225.24 653.352 221.88 653.352 216.6C653.352 211.32 650.082 208.02 645.972 208.02C643.512 208.02 641.742 209.16 640.812 210.63ZM648.132 216.6C648.132 219.27 646.392 220.77 644.442 220.77C642.522 220.77 640.782 219.3 640.782 216.63C640.782 213.96 642.522 212.49 644.442 212.49C646.392 212.49 648.132 213.93 648.132 216.6ZM661.174 210.63V208.26H656.044V232.98H661.174V222.66C662.104 224.07 663.874 225.24 666.334 225.24C670.444 225.24 673.714 221.88 673.714 216.6C673.714 211.32 670.444 208.02 666.334 208.02C663.874 208.02 662.104 209.16 661.174 210.63ZM668.494 216.6C668.494 219.27 666.754 220.77 664.804 220.77C662.884 220.77 661.144 219.3 661.144 216.63C661.144 213.96 662.884 212.49 664.804 212.49C666.754 212.49 668.494 213.93 668.494 216.6ZM676.405 225H681.535V208.26H676.405V225ZM678.985 206.52C680.785 206.52 682.015 205.29 682.015 203.76C682.015 202.2 680.785 200.97 678.985 200.97C677.155 200.97 675.925 202.2 675.925 203.76C675.925 205.29 677.155 206.52 678.985 206.52ZM696.803 225H701.903V215.22C701.903 210.72 699.323 208.08 695.453 208.08C693.203 208.08 691.403 209.07 690.383 210.48V208.26H685.253V225H690.383V215.91C690.383 213.63 691.643 212.37 693.593 212.37C695.543 212.37 696.803 213.63 696.803 215.91V225ZM719.057 220.14C718.967 213.9 709.907 215.79 709.907 213.12C709.907 212.31 710.567 211.83 711.767 211.83C713.207 211.83 714.077 212.58 714.227 213.72H718.967C718.637 210.42 716.237 208.02 711.917 208.02C707.537 208.02 705.107 210.36 705.107 213.21C705.107 219.36 714.227 217.41 714.227 220.11C714.227 220.86 713.537 221.46 712.217 221.46C710.807 221.46 709.757 220.68 709.637 219.51H704.567C704.807 222.75 707.807 225.24 712.277 225.24C716.477 225.24 719.057 223.05 719.057 220.14Z" fill="black"/>
<path d="M794.509 205.182V227H789.896V205.182H794.509ZM802.758 217.54V227H798.219V210.636H802.545V213.523H802.736C803.099 212.572 803.706 211.819 804.558 211.265C805.41 210.704 806.444 210.423 807.658 210.423C808.795 210.423 809.785 210.672 810.631 211.169C811.476 211.666 812.133 212.376 812.601 213.3C813.07 214.216 813.305 215.31 813.305 216.581V227H808.766V217.391C808.773 216.389 808.518 215.608 807.999 215.047C807.481 214.479 806.767 214.195 805.858 214.195C805.247 214.195 804.707 214.326 804.238 214.589C803.777 214.852 803.415 215.235 803.152 215.739C802.896 216.237 802.765 216.837 802.758 217.54ZM825.585 210.636V214.045H815.731V210.636H825.585ZM817.968 206.716H822.506V221.972C822.506 222.391 822.57 222.717 822.698 222.952C822.826 223.179 823.004 223.339 823.231 223.431C823.465 223.523 823.735 223.57 824.04 223.57C824.254 223.57 824.467 223.552 824.68 223.516C824.893 223.474 825.056 223.442 825.17 223.42L825.884 226.798C825.656 226.869 825.337 226.95 824.925 227.043C824.513 227.142 824.012 227.202 823.423 227.224C822.329 227.266 821.37 227.121 820.546 226.787C819.729 226.453 819.094 225.935 818.639 225.232C818.185 224.528 817.961 223.641 817.968 222.568V206.716ZM835.823 227.32C834.14 227.32 832.691 226.979 831.477 226.297C830.269 225.608 829.339 224.635 828.685 223.378C828.032 222.114 827.705 220.619 827.705 218.893C827.705 217.21 828.032 215.732 828.685 214.461C829.339 213.19 830.259 212.199 831.445 211.489C832.638 210.778 834.037 210.423 835.642 210.423C836.722 210.423 837.727 210.597 838.657 210.945C839.594 211.286 840.411 211.801 841.107 212.49C841.81 213.179 842.357 214.045 842.748 215.089C843.138 216.126 843.334 217.341 843.334 218.733V219.979H829.516V217.167H839.062C839.062 216.513 838.92 215.935 838.636 215.43C838.352 214.926 837.957 214.532 837.453 214.248C836.956 213.957 836.377 213.811 835.717 213.811C835.028 213.811 834.417 213.971 833.884 214.29C833.359 214.603 832.947 215.026 832.648 215.558C832.35 216.084 832.197 216.67 832.19 217.316V219.99C832.19 220.8 832.339 221.499 832.638 222.089C832.943 222.678 833.373 223.133 833.927 223.452C834.481 223.772 835.138 223.932 835.898 223.932C836.402 223.932 836.864 223.861 837.283 223.719C837.702 223.577 838.06 223.364 838.359 223.08C838.657 222.795 838.884 222.447 839.04 222.036L843.238 222.312C843.025 223.321 842.588 224.202 841.928 224.955C841.274 225.7 840.429 226.283 839.392 226.702C838.362 227.114 837.173 227.32 835.823 227.32ZM846.295 227V210.636H850.695V213.491H850.866C851.164 212.476 851.665 211.709 852.368 211.19C853.071 210.665 853.881 210.402 854.797 210.402C855.024 210.402 855.269 210.416 855.532 210.445C855.795 210.473 856.026 210.512 856.224 210.562V214.589C856.011 214.525 855.717 214.468 855.34 214.418C854.964 214.369 854.619 214.344 854.307 214.344C853.639 214.344 853.043 214.489 852.517 214.781C851.999 215.065 851.587 215.462 851.281 215.974C850.983 216.485 850.834 217.075 850.834 217.742V227H846.295Z" fill="black"/>
<path d="M602.27 407.57V401.48H605.6C607.97 401.48 609.02 402.62 609.02 404.54C609.02 406.4 607.97 407.57 605.6 407.57H602.27ZM613.34 404.54C613.34 400.91 610.82 398.06 605.78 398.06H598.07V419H602.27V410.96H605.78C611.18 410.96 613.34 407.72 613.34 404.54ZM632.372 410.69C632.372 405.44 628.622 402.11 623.822 402.11C619.022 402.11 615.272 405.44 615.272 410.69C615.272 415.91 618.902 419.27 623.702 419.27C628.532 419.27 632.372 415.91 632.372 410.69ZM619.532 410.69C619.532 407.36 621.542 405.77 623.762 405.77C625.982 405.77 628.052 407.36 628.052 410.69C628.052 413.99 625.922 415.61 623.702 415.61C621.452 415.61 619.532 413.99 619.532 410.69ZM639.653 404.78V402.38H635.453V426.92H639.653V416.63C640.673 417.98 642.533 419.27 645.143 419.27C649.403 419.27 652.733 415.82 652.733 410.63C652.733 405.44 649.403 402.11 645.143 402.11C642.563 402.11 640.643 403.37 639.653 404.78ZM648.443 410.63C648.443 413.78 646.313 415.58 644.033 415.58C641.783 415.58 639.653 413.84 639.653 410.69C639.653 407.54 641.783 405.8 644.033 405.8C646.313 405.8 648.443 407.48 648.443 410.63ZM659.985 404.78V402.38H655.785V426.92H659.985V416.63C661.005 417.98 662.865 419.27 665.475 419.27C669.735 419.27 673.065 415.82 673.065 410.63C673.065 405.44 669.735 402.11 665.475 402.11C662.895 402.11 660.975 403.37 659.985 404.78ZM668.775 410.63C668.775 413.78 666.645 415.58 664.365 415.58C662.115 415.58 659.985 413.84 659.985 410.69C659.985 407.54 662.115 405.8 664.365 405.8C666.645 405.8 668.775 407.48 668.775 410.63ZM676.117 419H680.317V402.38H676.117V419ZM678.247 400.4C679.717 400.4 680.827 399.32 680.827 397.94C680.827 396.56 679.717 395.48 678.247 395.48C676.747 395.48 675.667 396.56 675.667 397.94C675.667 399.32 676.747 400.4 678.247 400.4ZM696.106 419H700.306V409.25C700.306 404.66 697.546 402.14 693.676 402.14C691.546 402.14 689.746 403.04 688.666 404.45V402.38H684.466V419H688.666V409.82C688.666 407.15 690.136 405.71 692.416 405.71C694.636 405.71 696.106 407.15 696.106 409.82V419ZM717.2 414.26C717.08 408.17 707.87 410.06 707.87 407.03C707.87 406.07 708.68 405.44 710.24 405.44C711.89 405.44 712.91 406.31 713.03 407.6H717.05C716.81 404.3 714.38 402.11 710.36 402.11C706.25 402.11 703.79 404.33 703.79 407.09C703.79 413.18 713.18 411.29 713.18 414.26C713.18 415.22 712.28 415.97 710.63 415.97C708.95 415.97 707.78 415.01 707.63 413.75H703.4C703.58 416.84 706.49 419.27 710.66 419.27C714.71 419.27 717.2 417.11 717.2 414.26Z" fill="black"/>
<path d="M592.04 581.02V573.34H596.06C599.18 573.34 600.5 574.78 600.5 577.21C600.5 579.55 599.18 581.02 596.06 581.02H592.04ZM603.29 577.21C603.29 573.79 600.98 571.09 596.06 571.09H589.31V592H592.04V583.27H596.06C601.25 583.27 603.29 580.39 603.29 577.21ZM622.283 583.75C622.283 578.56 618.653 575.29 613.973 575.29C609.323 575.29 605.663 578.56 605.663 583.75C605.663 588.97 609.203 592.27 613.853 592.27C618.533 592.27 622.283 588.97 622.283 583.75ZM608.453 583.75C608.453 579.61 611.063 577.66 613.943 577.66C616.763 577.66 619.493 579.61 619.493 583.75C619.493 587.92 616.703 589.87 613.853 589.87C611.003 589.87 608.453 587.92 608.453 583.75ZM628.603 578.59V575.56H625.873V599.8H628.603V588.97C629.623 590.65 631.753 592.27 634.753 592.27C639.163 592.27 642.553 588.82 642.553 583.72C642.553 578.59 639.163 575.29 634.753 575.29C631.753 575.29 629.593 576.85 628.603 578.59ZM639.763 583.72C639.763 587.59 637.213 589.87 634.183 589.87C631.213 589.87 628.603 587.62 628.603 583.75C628.603 579.94 631.213 577.66 634.183 577.66C637.213 577.66 639.763 579.85 639.763 583.72ZM648.876 578.59V575.56H646.146V599.8H648.876V588.97C649.896 590.65 652.026 592.27 655.026 592.27C659.436 592.27 662.826 588.82 662.826 583.72C662.826 578.59 659.436 575.29 655.026 575.29C652.026 575.29 649.866 576.85 648.876 578.59ZM660.036 583.72C660.036 587.59 657.486 589.87 654.456 589.87C651.486 589.87 648.876 587.62 648.876 583.75C648.876 579.94 651.486 577.66 654.456 577.66C657.486 577.66 660.036 579.85 660.036 583.72ZM666.419 592H669.149V575.56H666.419V592ZM667.829 572.89C668.819 572.89 669.629 572.08 669.629 571.03C669.629 569.98 668.819 569.17 667.829 569.17C666.779 569.17 665.969 569.98 665.969 571.03C665.969 572.08 666.779 572.89 667.829 572.89ZM685.832 592H688.532V582.31C688.532 577.6 685.622 575.26 681.812 575.26C679.592 575.26 677.612 576.19 676.532 577.9V575.56H673.802V592H676.532V582.91C676.532 579.37 678.452 577.63 681.242 577.63C684.002 577.63 685.832 579.34 685.832 582.7V592ZM704.812 587.53C704.692 581.65 695.152 583.78 695.152 579.88C695.152 578.56 696.352 577.6 698.362 577.6C700.552 577.6 701.812 578.8 701.932 580.45H704.662C704.482 577.24 702.082 575.29 698.452 575.29C694.792 575.29 692.422 577.36 692.422 579.88C692.422 586 702.142 583.87 702.142 587.53C702.142 588.88 700.942 589.96 698.782 589.96C696.472 589.96 695.062 588.76 694.912 587.17H692.092C692.272 590.17 694.972 592.27 698.812 592.27C702.442 592.27 704.812 590.23 704.812 587.53Z" fill="black"/>
<rect x="914" y="122" width="388" height="70" rx="5" fill="#8C20BF"/>
<path d="M1081.75 163.858C1080.83 163.858 1080 163.698 1079.27 163.378C1078.55 163.045 1077.98 162.592 1077.57 162.018C1077.16 161.432 1076.94 160.758 1076.93 159.998H1078.87C1078.94 160.652 1079.2 161.205 1079.67 161.658C1080.15 162.098 1080.84 162.318 1081.75 162.318C1082.62 162.318 1083.3 162.105 1083.79 161.678C1084.3 161.238 1084.55 160.678 1084.55 159.998C1084.55 159.465 1084.4 159.032 1084.11 158.698C1083.82 158.365 1083.45 158.112 1083.01 157.938C1082.57 157.765 1081.98 157.578 1081.23 157.378C1080.31 157.138 1079.57 156.898 1079.01 156.658C1078.46 156.418 1077.99 156.045 1077.59 155.538C1077.2 155.018 1077.01 154.325 1077.01 153.458C1077.01 152.698 1077.2 152.025 1077.59 151.438C1077.98 150.852 1078.52 150.398 1079.21 150.078C1079.92 149.758 1080.72 149.598 1081.63 149.598C1082.94 149.598 1084 149.925 1084.83 150.578C1085.67 151.232 1086.14 152.098 1086.25 153.178H1084.25C1084.18 152.645 1083.9 152.178 1083.41 151.778C1082.92 151.365 1082.26 151.158 1081.45 151.158C1080.69 151.158 1080.07 151.358 1079.59 151.758C1079.11 152.145 1078.87 152.692 1078.87 153.398C1078.87 153.905 1079.01 154.318 1079.29 154.638C1079.58 154.958 1079.94 155.205 1080.35 155.378C1080.78 155.538 1081.37 155.725 1082.13 155.938C1083.05 156.192 1083.79 156.445 1084.35 156.698C1084.91 156.938 1085.39 157.318 1085.79 157.838C1086.19 158.345 1086.39 159.038 1086.39 159.918C1086.39 160.598 1086.21 161.238 1085.85 161.838C1085.49 162.438 1084.96 162.925 1084.25 163.298C1083.54 163.672 1082.71 163.858 1081.75 163.858ZM1090.01 150.978C1089.66 150.978 1089.37 150.858 1089.13 150.618C1088.89 150.378 1088.77 150.085 1088.77 149.738C1088.77 149.392 1088.89 149.098 1089.13 148.858C1089.37 148.618 1089.66 148.498 1090.01 148.498C1090.34 148.498 1090.62 148.618 1090.85 148.858C1091.09 149.098 1091.21 149.392 1091.21 149.738C1091.21 150.085 1091.09 150.378 1090.85 150.618C1090.62 150.858 1090.34 150.978 1090.01 150.978ZM1090.89 152.758V163.718H1089.07V152.758H1090.89ZM1098.51 152.578C1099.46 152.578 1100.28 152.785 1100.99 153.198C1101.71 153.612 1102.24 154.132 1102.59 154.758V152.758H1104.43V163.958C1104.43 164.958 1104.22 165.845 1103.79 166.618C1103.36 167.405 1102.75 168.018 1101.95 168.458C1101.16 168.898 1100.24 169.118 1099.19 169.118C1097.75 169.118 1096.55 168.778 1095.59 168.098C1094.63 167.418 1094.06 166.492 1093.89 165.318H1095.69C1095.89 165.985 1096.3 166.518 1096.93 166.918C1097.56 167.332 1098.31 167.538 1099.19 167.538C1100.19 167.538 1101 167.225 1101.63 166.598C1102.27 165.972 1102.59 165.092 1102.59 163.958V161.658C1102.23 162.298 1101.7 162.832 1100.99 163.258C1100.28 163.685 1099.46 163.898 1098.51 163.898C1097.54 163.898 1096.65 163.658 1095.85 163.178C1095.06 162.698 1094.44 162.025 1093.99 161.158C1093.54 160.292 1093.31 159.305 1093.31 158.198C1093.31 157.078 1093.54 156.098 1093.99 155.258C1094.44 154.405 1095.06 153.745 1095.85 153.278C1096.65 152.812 1097.54 152.578 1098.51 152.578ZM1102.59 158.218C1102.59 157.392 1102.42 156.672 1102.09 156.058C1101.76 155.445 1101.3 154.978 1100.73 154.658C1100.17 154.325 1099.55 154.158 1098.87 154.158C1098.19 154.158 1097.57 154.318 1097.01 154.638C1096.45 154.958 1096 155.425 1095.67 156.038C1095.34 156.652 1095.17 157.372 1095.17 158.198C1095.17 159.038 1095.34 159.772 1095.67 160.398C1096 161.012 1096.45 161.485 1097.01 161.818C1097.57 162.138 1098.19 162.298 1098.87 162.298C1099.55 162.298 1100.17 162.138 1100.73 161.818C1101.3 161.485 1101.76 161.012 1102.09 160.398C1102.42 159.772 1102.59 159.045 1102.59 158.218ZM1112.85 152.558C1114.18 152.558 1115.26 152.965 1116.09 153.778C1116.91 154.578 1117.33 155.738 1117.33 157.258V163.718H1115.53V157.518C1115.53 156.425 1115.25 155.592 1114.71 155.018C1114.16 154.432 1113.41 154.138 1112.47 154.138C1111.51 154.138 1110.74 154.438 1110.17 155.038C1109.61 155.638 1109.33 156.512 1109.33 157.658V163.718H1107.51V152.758H1109.33V154.318C1109.69 153.758 1110.17 153.325 1110.79 153.018C1111.41 152.712 1112.1 152.558 1112.85 152.558ZM1126.57 150.978C1126.22 150.978 1125.93 150.858 1125.69 150.618C1125.45 150.378 1125.33 150.085 1125.33 149.738C1125.33 149.392 1125.45 149.098 1125.69 148.858C1125.93 148.618 1126.22 148.498 1126.57 148.498C1126.9 148.498 1127.18 148.618 1127.41 148.858C1127.65 149.098 1127.77 149.392 1127.77 149.738C1127.77 150.085 1127.65 150.378 1127.41 150.618C1127.18 150.858 1126.9 150.978 1126.57 150.978ZM1127.45 152.758V163.718H1125.63V152.758H1127.45ZM1135.89 152.558C1137.23 152.558 1138.31 152.965 1139.13 153.778C1139.96 154.578 1140.37 155.738 1140.37 157.258V163.718H1138.57V157.518C1138.57 156.425 1138.3 155.592 1137.75 155.018C1137.21 154.432 1136.46 154.138 1135.51 154.138C1134.55 154.138 1133.79 154.438 1133.21 155.038C1132.65 155.638 1132.37 156.512 1132.37 157.658V163.718H1130.55V152.758H1132.37V154.318C1132.73 153.758 1133.22 153.325 1133.83 153.018C1134.46 152.712 1135.15 152.558 1135.89 152.558Z" fill="white"/>
<path d="M926 237H1008V275H926V237Z" fill="#8C20BF"/>
<path d="M957.264 250.88V258.896C957.264 259.888 956.96 260.672 956.352 261.248C955.755 261.824 954.965 262.112 953.984 262.112C953.003 262.112 952.208 261.824 951.6 261.248C951.003 260.672 950.704 259.888 950.704 258.896H952.544C952.555 259.387 952.677 259.776 952.912 260.064C953.157 260.352 953.515 260.496 953.984 260.496C954.453 260.496 954.811 260.352 955.056 260.064C955.301 259.765 955.424 259.376 955.424 258.896V250.88H957.264ZM964.055 262.144C963.223 262.144 962.471 261.957 961.799 261.584C961.127 261.2 960.599 260.667 960.215 259.984C959.831 259.291 959.639 258.491 959.639 257.584C959.639 256.688 959.837 255.893 960.231 255.2C960.626 254.507 961.165 253.973 961.847 253.6C962.53 253.227 963.293 253.04 964.135 253.04C964.978 253.04 965.741 253.227 966.423 253.6C967.106 253.973 967.645 254.507 968.039 255.2C968.434 255.893 968.631 256.688 968.631 257.584C968.631 258.48 968.429 259.275 968.023 259.968C967.618 260.661 967.063 261.2 966.359 261.584C965.666 261.957 964.898 262.144 964.055 262.144ZM964.055 260.56C964.525 260.56 964.962 260.448 965.367 260.224C965.783 260 966.119 259.664 966.375 259.216C966.631 258.768 966.759 258.224 966.759 257.584C966.759 256.944 966.637 256.405 966.391 255.968C966.146 255.52 965.821 255.184 965.415 254.96C965.01 254.736 964.573 254.624 964.103 254.624C963.634 254.624 963.197 254.736 962.791 254.96C962.397 255.184 962.082 255.52 961.847 255.968C961.613 256.405 961.495 256.944 961.495 257.584C961.495 258.533 961.735 259.269 962.215 259.792C962.706 260.304 963.319 260.56 964.055 260.56ZM971.362 252.016C971.032 252.016 970.754 251.904 970.53 251.68C970.306 251.456 970.194 251.179 970.194 250.848C970.194 250.517 970.306 250.24 970.53 250.016C970.754 249.792 971.032 249.68 971.362 249.68C971.682 249.68 971.954 249.792 972.178 250.016C972.402 250.24 972.514 250.517 972.514 250.848C972.514 251.179 972.402 251.456 972.178 251.68C971.954 251.904 971.682 252.016 971.362 252.016ZM972.258 253.184V262H970.434V253.184H972.258ZM979.101 253.04C979.794 253.04 980.413 253.184 980.957 253.472C981.512 253.76 981.944 254.187 982.253 254.752C982.562 255.317 982.717 256 982.717 256.8V262H980.909V257.072C980.909 256.283 980.712 255.68 980.317 255.264C979.922 254.837 979.384 254.624 978.701 254.624C978.018 254.624 977.474 254.837 977.069 255.264C976.674 255.68 976.477 256.283 976.477 257.072V262H974.653V253.184H976.477V254.192C976.776 253.829 977.154 253.547 977.613 253.344C978.082 253.141 978.578 253.04 979.101 253.04Z" fill="white"/>
<path d="M951.542 509.696L941.731 499.89L941.073 499.232C940.924 499.084 940.721 499 940.51 499C940.298 499 940.096 499.084 939.946 499.232L929.477 509.696C929.324 509.849 929.203 510.031 929.121 510.232C929.039 510.432 928.998 510.647 929 510.864C929.01 511.758 929.754 512.471 930.648 512.471H931.727V520.741H949.292V512.471H950.394C950.828 512.471 951.237 512.301 951.544 511.994C951.696 511.843 951.816 511.664 951.897 511.466C951.979 511.269 952.02 511.057 952.019 510.844C952.019 510.412 951.849 510.003 951.542 509.696V509.696ZM941.932 518.913H939.088V513.733H941.932V518.913ZM947.464 510.643V518.913H943.557V513.124C943.557 512.562 943.102 512.108 942.541 512.108H938.478C937.917 512.108 937.463 512.562 937.463 513.124V518.913H933.555V510.643H931.118L940.512 501.256L941.099 501.843L949.904 510.643H947.464Z" fill="#8E8E8E"/>
<path d="M932.7 530.98V538H930.99V535.11H928.33V538H926.62V530.98H928.33V533.73H930.99V530.98H932.7ZM936.474 538.08C935.928 538.08 935.434 537.963 934.994 537.73C934.561 537.497 934.218 537.163 933.964 536.73C933.718 536.297 933.594 535.79 933.594 535.21C933.594 534.637 933.721 534.133 933.974 533.7C934.228 533.26 934.574 532.923 935.014 532.69C935.454 532.457 935.948 532.34 936.494 532.34C937.041 532.34 937.534 532.457 937.974 532.69C938.414 532.923 938.761 533.26 939.014 533.7C939.268 534.133 939.394 534.637 939.394 535.21C939.394 535.783 939.264 536.29 939.004 536.73C938.751 537.163 938.401 537.497 937.954 537.73C937.514 537.963 937.021 538.08 936.474 538.08ZM936.474 536.6C936.801 536.6 937.078 536.48 937.304 536.24C937.538 536 937.654 535.657 937.654 535.21C937.654 534.763 937.541 534.42 937.314 534.18C937.094 533.94 936.821 533.82 936.494 533.82C936.161 533.82 935.884 533.94 935.664 534.18C935.444 534.413 935.334 534.757 935.334 535.21C935.334 535.657 935.441 536 935.654 536.24C935.874 536.48 936.148 536.6 936.474 536.6ZM947.422 532.36C948.115 532.36 948.665 532.57 949.072 532.99C949.485 533.41 949.692 533.993 949.692 534.74V538H947.992V534.97C947.992 534.61 947.895 534.333 947.702 534.14C947.515 533.94 947.255 533.84 946.922 533.84C946.588 533.84 946.325 533.94 946.132 534.14C945.945 534.333 945.852 534.61 945.852 534.97V538H944.152V534.97C944.152 534.61 944.055 534.333 943.862 534.14C943.675 533.94 943.415 533.84 943.082 533.84C942.748 533.84 942.485 533.94 942.292 534.14C942.105 534.333 942.012 534.61 942.012 534.97V538H940.302V532.42H942.012V533.12C942.185 532.887 942.412 532.703 942.692 532.57C942.972 532.43 943.288 532.36 943.642 532.36C944.062 532.36 944.435 532.45 944.762 532.63C945.095 532.81 945.355 533.067 945.542 533.4C945.735 533.093 945.998 532.843 946.332 532.65C946.665 532.457 947.028 532.36 947.422 532.36ZM956.148 535.12C956.148 535.28 956.138 535.447 956.118 535.62H952.248C952.274 535.967 952.384 536.233 952.578 536.42C952.778 536.6 953.021 536.69 953.308 536.69C953.734 536.69 954.031 536.51 954.198 536.15H956.018C955.924 536.517 955.754 536.847 955.508 537.14C955.268 537.433 954.964 537.663 954.598 537.83C954.231 537.997 953.821 538.08 953.368 538.08C952.821 538.08 952.334 537.963 951.908 537.73C951.481 537.497 951.148 537.163 950.908 536.73C950.668 536.297 950.548 535.79 950.548 535.21C950.548 534.63 950.664 534.123 950.898 533.69C951.138 533.257 951.471 532.923 951.898 532.69C952.324 532.457 952.814 532.34 953.368 532.34C953.908 532.34 954.388 532.453 954.808 532.68C955.228 532.907 955.554 533.23 955.788 533.65C956.028 534.07 956.148 534.56 956.148 535.12ZM954.398 534.67C954.398 534.377 954.298 534.143 954.098 533.97C953.898 533.797 953.648 533.71 953.348 533.71C953.061 533.71 952.818 533.793 952.618 533.96C952.424 534.127 952.304 534.363 952.258 534.67H954.398Z" fill="#8E8E8E"/>
<g clip-path="url(#clip0_297_573)">
<path d="M1039.56 510.943L1035.52 509.082V503.751C1035.51 503.639 1035.48 503.53 1035.42 503.437C1035.36 503.344 1035.27 503.271 1035.17 503.226L1030.79 501.213C1030.71 501.178 1030.63 501.159 1030.55 501.159C1030.46 501.159 1030.38 501.178 1030.3 501.213L1025.93 503.226C1025.83 503.273 1025.74 503.348 1025.68 503.442C1025.62 503.536 1025.59 503.645 1025.59 503.757V509.088L1021.56 510.943C1021.46 510.99 1021.38 511.065 1021.32 511.159C1021.26 511.253 1021.22 511.363 1021.22 511.474V517.179C1021.22 517.291 1021.26 517.4 1021.32 517.494C1021.38 517.588 1021.46 517.663 1021.56 517.71L1025.94 519.722C1026.02 519.758 1026.1 519.776 1026.18 519.776C1026.27 519.776 1026.35 519.758 1026.43 519.722L1030.56 517.821L1034.69 519.722C1034.77 519.758 1034.85 519.776 1034.93 519.776C1035.02 519.776 1035.1 519.758 1035.18 519.722L1039.55 517.71C1039.65 517.663 1039.74 517.588 1039.8 517.494C1039.86 517.4 1039.89 517.291 1039.89 517.179V511.474C1039.89 511.363 1039.86 511.254 1039.8 511.16C1039.74 511.066 1039.66 510.991 1039.56 510.943V510.943ZM1034.94 512.833L1031.96 511.474L1034.94 510.103L1037.92 511.474L1034.94 512.833ZM1034.36 509.077L1030.6 510.827V506.341C1030.67 506.338 1030.74 506.322 1030.8 506.294L1034.35 504.667V509.088L1034.36 509.077ZM1030.56 502.38L1033.54 503.751L1030.56 505.122L1027.58 503.751L1030.56 502.38ZM1026.18 510.097L1029.16 511.468L1026.18 512.833L1023.2 511.474L1026.18 510.097ZM1029.97 516.8L1026.18 518.55V514.064C1026.26 514.059 1026.34 514.037 1026.42 514L1029.96 512.367L1029.97 516.8ZM1038.72 516.8L1034.96 518.55V514.064C1035.03 514.056 1035.1 514.034 1035.17 514L1038.71 512.367L1038.72 516.8Z" fill="#8E8E8E"/>
</g>
<path d="M1000.33 534.48C1000.33 533.787 1000.48 533.17 1000.78 532.63C1001.08 532.083 1001.5 531.66 1002.03 531.36C1002.57 531.053 1003.18 530.9 1003.86 530.9C1004.69 530.9 1005.41 531.12 1006 531.56C1006.59 532 1006.99 532.6 1007.19 533.36H1005.31C1005.17 533.067 1004.97 532.843 1004.71 532.69C1004.46 532.537 1004.17 532.46 1003.84 532.46C1003.31 532.46 1002.89 532.643 1002.56 533.01C1002.23 533.377 1002.07 533.867 1002.07 534.48C1002.07 535.093 1002.23 535.583 1002.56 535.95C1002.89 536.317 1003.31 536.5 1003.84 536.5C1004.17 536.5 1004.46 536.423 1004.71 536.27C1004.97 536.117 1005.17 535.893 1005.31 535.6H1007.19C1006.99 536.36 1006.59 536.96 1006 537.4C1005.41 537.833 1004.69 538.05 1003.86 538.05C1003.18 538.05 1002.57 537.9 1002.03 537.6C1001.5 537.293 1001.08 536.87 1000.78 536.33C1000.48 535.79 1000.33 535.173 1000.33 534.48ZM1010.78 538.08C1010.23 538.08 1009.74 537.963 1009.3 537.73C1008.86 537.497 1008.52 537.163 1008.27 536.73C1008.02 536.297 1007.9 535.79 1007.9 535.21C1007.9 534.637 1008.02 534.133 1008.28 533.7C1008.53 533.26 1008.88 532.923 1009.32 532.69C1009.76 532.457 1010.25 532.34 1010.8 532.34C1011.34 532.34 1011.84 532.457 1012.28 532.69C1012.72 532.923 1013.06 533.26 1013.32 533.7C1013.57 534.133 1013.7 534.637 1013.7 535.21C1013.7 535.783 1013.57 536.29 1013.31 536.73C1013.05 537.163 1012.7 537.497 1012.26 537.73C1011.82 537.963 1011.32 538.08 1010.78 538.08ZM1010.78 536.6C1011.1 536.6 1011.38 536.48 1011.61 536.24C1011.84 536 1011.96 535.657 1011.96 535.21C1011.96 534.763 1011.84 534.42 1011.62 534.18C1011.4 533.94 1011.12 533.82 1010.8 533.82C1010.46 533.82 1010.19 533.94 1009.97 534.18C1009.75 534.413 1009.64 534.757 1009.64 535.21C1009.64 535.657 1009.74 536 1009.96 536.24C1010.18 536.48 1010.45 536.6 1010.78 536.6ZM1021.72 532.36C1022.42 532.36 1022.97 532.57 1023.37 532.99C1023.79 533.41 1023.99 533.993 1023.99 534.74V538H1022.29V534.97C1022.29 534.61 1022.2 534.333 1022 534.14C1021.82 533.94 1021.56 533.84 1021.22 533.84C1020.89 533.84 1020.63 533.94 1020.43 534.14C1020.25 534.333 1020.15 534.61 1020.15 534.97V538H1018.45V534.97C1018.45 534.61 1018.36 534.333 1018.16 534.14C1017.98 533.94 1017.72 533.84 1017.38 533.84C1017.05 533.84 1016.79 533.94 1016.59 534.14C1016.41 534.333 1016.31 534.61 1016.31 534.97V538H1014.6V532.42H1016.31V533.12C1016.49 532.887 1016.71 532.703 1016.99 532.57C1017.27 532.43 1017.59 532.36 1017.94 532.36C1018.36 532.36 1018.74 532.45 1019.06 532.63C1019.4 532.81 1019.66 533.067 1019.84 533.4C1020.04 533.093 1020.3 532.843 1020.63 532.65C1020.97 532.457 1021.33 532.36 1021.72 532.36ZM1032.31 532.36C1033 532.36 1033.55 532.57 1033.96 532.99C1034.37 533.41 1034.58 533.993 1034.58 534.74V538H1032.88V534.97C1032.88 534.61 1032.78 534.333 1032.59 534.14C1032.4 533.94 1032.14 533.84 1031.81 533.84C1031.48 533.84 1031.21 533.94 1031.02 534.14C1030.83 534.333 1030.74 534.61 1030.74 534.97V538H1029.04V534.97C1029.04 534.61 1028.94 534.333 1028.75 534.14C1028.56 533.94 1028.3 533.84 1027.97 533.84C1027.64 533.84 1027.37 533.94 1027.18 534.14C1026.99 534.333 1026.9 534.61 1026.9 534.97V538H1025.19V532.42H1026.9V533.12C1027.07 532.887 1027.3 532.703 1027.58 532.57C1027.86 532.43 1028.18 532.36 1028.53 532.36C1028.95 532.36 1029.32 532.45 1029.65 532.63C1029.98 532.81 1030.24 533.067 1030.43 533.4C1030.62 533.093 1030.89 532.843 1031.22 532.65C1031.55 532.457 1031.92 532.36 1032.31 532.36ZM1041.29 532.42V538H1039.58V537.24C1039.4 537.487 1039.17 537.687 1038.87 537.84C1038.57 537.987 1038.25 538.06 1037.89 538.06C1037.46 538.06 1037.08 537.967 1036.76 537.78C1036.43 537.587 1036.18 537.31 1036 536.95C1035.82 536.59 1035.73 536.167 1035.73 535.68V532.42H1037.43V535.45C1037.43 535.823 1037.52 536.113 1037.72 536.32C1037.91 536.527 1038.17 536.63 1038.5 536.63C1038.83 536.63 1039.09 536.527 1039.29 536.32C1039.48 536.113 1039.58 535.823 1039.58 535.45V532.42H1041.29ZM1045.91 532.36C1046.57 532.36 1047.09 532.573 1047.47 533C1047.87 533.42 1048.06 534 1048.06 534.74V538H1046.36V534.97C1046.36 534.597 1046.27 534.307 1046.07 534.1C1045.88 533.893 1045.62 533.79 1045.29 533.79C1044.97 533.79 1044.71 533.893 1044.51 534.1C1044.32 534.307 1044.22 534.597 1044.22 534.97V538H1042.51V532.42H1044.22V533.16C1044.4 532.913 1044.63 532.72 1044.92 532.58C1045.22 532.433 1045.55 532.36 1045.91 532.36ZM1050.11 531.84C1049.81 531.84 1049.57 531.753 1049.37 531.58C1049.19 531.4 1049.09 531.18 1049.09 530.92C1049.09 530.653 1049.19 530.433 1049.37 530.26C1049.57 530.08 1049.81 529.99 1050.11 529.99C1050.41 529.99 1050.65 530.08 1050.83 530.26C1051.03 530.433 1051.12 530.653 1051.12 530.92C1051.12 531.18 1051.03 531.4 1050.83 531.58C1050.65 531.753 1050.41 531.84 1050.11 531.84ZM1050.96 532.42V538H1049.25V532.42H1050.96ZM1055.31 536.55V538H1054.44C1053.82 538 1053.34 537.85 1052.99 537.55C1052.65 537.243 1052.47 536.747 1052.47 536.06V533.84H1051.79V532.42H1052.47V531.06H1054.18V532.42H1055.3V533.84H1054.18V536.08C1054.18 536.247 1054.22 536.367 1054.3 536.44C1054.38 536.513 1054.52 536.55 1054.7 536.55H1055.31ZM1061.96 532.42L1058.46 540.65H1056.62L1057.9 537.81L1055.63 532.42H1057.54L1058.83 535.91L1060.11 532.42H1061.96Z" fill="#8E8E8E"/>
<path d="M1111.16 499L1109.75 500.41L1112.34 503H1107C1105.89 503 1105 503.89 1105 505V515C1105 516.11 1105.89 517 1107 517H1123C1124.11 517 1125 516.11 1125 515V505C1125 503.89 1124.11 503 1123 503H1117.66L1120.25 500.41L1118.84 499L1115 502.84L1111.16 499ZM1107 505H1120V515H1107V505ZM1122.5 505C1122.77 505 1123.02 505.105 1123.21 505.293C1123.39 505.48 1123.5 505.735 1123.5 506C1123.5 506.265 1123.39 506.52 1123.21 506.707C1123.02 506.895 1122.77 507 1122.5 507C1122.23 507 1121.98 506.895 1121.79 506.707C1121.61 506.52 1121.5 506.265 1121.5 506C1121.5 505.735 1121.61 505.48 1121.79 505.293C1121.98 505.105 1122.23 505 1122.5 505ZM1122.5 508C1122.77 508 1123.02 508.105 1123.21 508.293C1123.39 508.48 1123.5 508.735 1123.5 509C1123.5 509.265 1123.39 509.52 1123.21 509.707C1123.02 509.895 1122.77 510 1122.5 510C1122.23 510 1121.98 509.895 1121.79 509.707C1121.61 509.52 1121.5 509.265 1121.5 509C1121.5 508.735 1121.61 508.48 1121.79 508.293C1121.98 508.105 1122.23 508 1122.5 508Z" fill="#8E8E8E"/>
<path d="M1113.67 530.98V532.35H1111.81V538H1110.1V532.35H1108.24V530.98H1113.67ZM1121.12 530.98L1118.63 538H1116.49L1114 530.98H1115.82L1117.56 536.28L1119.31 530.98H1121.12Z" fill="#8E8E8E"/>
<path fill-rule="evenodd" clip-rule="evenodd" d="M1189 507C1189 508.061 1188.58 509.078 1187.83 509.828C1187.08 510.579 1186.06 511 1185 511C1183.94 511 1182.92 510.579 1182.17 509.828C1181.42 509.078 1181 508.061 1181 507C1181 505.939 1181.42 504.922 1182.17 504.172C1182.92 503.421 1183.94 503 1185 503C1186.06 503 1187.08 503.421 1187.83 504.172C1188.58 504.922 1189 505.939 1189 507V507ZM1187 507C1187 507.53 1186.79 508.039 1186.41 508.414C1186.04 508.789 1185.53 509 1185 509C1184.47 509 1183.96 508.789 1183.59 508.414C1183.21 508.039 1183 507.53 1183 507C1183 506.47 1183.21 505.961 1183.59 505.586C1183.96 505.211 1184.47 505 1185 505C1185.53 505 1186.04 505.211 1186.41 505.586C1186.79 505.961 1187 506.47 1187 507V507Z" fill="#8E8E8E"/>
<path fill-rule="evenodd" clip-rule="evenodd" d="M1185 499C1178.93 499 1174 503.925 1174 510C1174 516.075 1178.93 521 1185 521C1191.07 521 1196 516.075 1196 510C1196 503.925 1191.07 499 1185 499ZM1176 510C1176 512.09 1176.71 514.014 1177.91 515.542C1178.75 514.44 1179.83 513.547 1181.07 512.932C1182.31 512.318 1183.68 511.999 1185.06 512C1186.43 511.999 1187.78 512.31 1189.01 512.909C1190.24 513.508 1191.32 514.38 1192.16 515.458C1193.02 514.322 1193.61 512.995 1193.86 511.589C1194.11 510.182 1194.02 508.736 1193.61 507.369C1193.19 506.002 1192.45 504.755 1191.46 503.73C1190.46 502.705 1189.23 501.932 1187.88 501.475C1186.53 501.017 1185.08 500.889 1183.67 501.1C1182.26 501.311 1180.91 501.856 1179.75 502.689C1178.59 503.522 1177.65 504.62 1176.99 505.891C1176.34 507.163 1176 508.571 1176 510V510ZM1185 519C1182.93 519.003 1180.93 518.292 1179.33 516.988C1179.97 516.065 1180.83 515.311 1181.83 514.791C1182.83 514.27 1183.94 513.999 1185.06 514C1186.18 513.999 1187.27 514.264 1188.26 514.771C1189.25 515.279 1190.11 516.016 1190.75 516.92C1189.14 518.267 1187.1 519.003 1185 519V519Z" fill="#8E8E8E"/>
<path d="M1173.97 533.24C1173.97 533.647 1173.88 534.02 1173.69 534.36C1173.5 534.693 1173.22 534.963 1172.83 535.17C1172.44 535.377 1171.96 535.48 1171.39 535.48H1170.33V538H1168.62V530.98H1171.39C1171.95 530.98 1172.42 531.077 1172.81 531.27C1173.2 531.463 1173.49 531.73 1173.68 532.07C1173.87 532.41 1173.97 532.8 1173.97 533.24ZM1171.26 534.12C1171.59 534.12 1171.83 534.043 1171.99 533.89C1172.15 533.737 1172.23 533.52 1172.23 533.24C1172.23 532.96 1172.15 532.743 1171.99 532.59C1171.83 532.437 1171.59 532.36 1171.26 532.36H1170.33V534.12H1171.26ZM1176.57 533.35C1176.77 533.043 1177.02 532.803 1177.32 532.63C1177.62 532.45 1177.95 532.36 1178.32 532.36V534.17H1177.85C1177.42 534.17 1177.1 534.263 1176.89 534.45C1176.68 534.63 1176.57 534.95 1176.57 535.41V538H1174.86V532.42H1176.57V533.35ZM1181.68 538.08C1181.13 538.08 1180.64 537.963 1180.2 537.73C1179.76 537.497 1179.42 537.163 1179.17 536.73C1178.92 536.297 1178.8 535.79 1178.8 535.21C1178.8 534.637 1178.92 534.133 1179.18 533.7C1179.43 533.26 1179.78 532.923 1180.22 532.69C1180.66 532.457 1181.15 532.34 1181.7 532.34C1182.24 532.34 1182.74 532.457 1183.18 532.69C1183.62 532.923 1183.96 533.26 1184.22 533.7C1184.47 534.133 1184.6 534.637 1184.6 535.21C1184.6 535.783 1184.47 536.29 1184.21 536.73C1183.95 537.163 1183.6 537.497 1183.16 537.73C1182.72 537.963 1182.22 538.08 1181.68 538.08ZM1181.68 536.6C1182 536.6 1182.28 536.48 1182.51 536.24C1182.74 536 1182.86 535.657 1182.86 535.21C1182.86 534.763 1182.74 534.42 1182.52 534.18C1182.3 533.94 1182.02 533.82 1181.7 533.82C1181.36 533.82 1181.09 533.94 1180.87 534.18C1180.65 534.413 1180.54 534.757 1180.54 535.21C1180.54 535.657 1180.64 536 1180.86 536.24C1181.08 536.48 1181.35 536.6 1181.68 536.6ZM1188.3 533.84H1187.38V538H1185.67V533.84H1185.05V532.42H1185.67V532.26C1185.67 531.573 1185.87 531.053 1186.26 530.7C1186.66 530.34 1187.23 530.16 1187.99 530.16C1188.12 530.16 1188.21 530.163 1188.27 530.17V531.62C1187.95 531.6 1187.72 531.647 1187.58 531.76C1187.45 531.873 1187.38 532.077 1187.38 532.37V532.42H1188.3V533.84ZM1189.97 531.84C1189.67 531.84 1189.42 531.753 1189.23 531.58C1189.04 531.4 1188.95 531.18 1188.95 530.92C1188.95 530.653 1189.04 530.433 1189.23 530.26C1189.42 530.08 1189.67 529.99 1189.97 529.99C1190.26 529.99 1190.5 530.08 1190.69 530.26C1190.88 530.433 1190.98 530.653 1190.98 530.92C1190.98 531.18 1190.88 531.4 1190.69 531.58C1190.5 531.753 1190.26 531.84 1189.97 531.84ZM1190.82 532.42V538H1189.11V532.42H1190.82ZM1193.77 530.6V538H1192.06V530.6H1193.77ZM1200.27 535.12C1200.27 535.28 1200.26 535.447 1200.24 535.62H1196.37C1196.39 535.967 1196.5 536.233 1196.7 536.42C1196.9 536.6 1197.14 536.69 1197.43 536.69C1197.85 536.69 1198.15 536.51 1198.32 536.15H1200.14C1200.04 536.517 1199.87 536.847 1199.63 537.14C1199.39 537.433 1199.08 537.663 1198.72 537.83C1198.35 537.997 1197.94 538.08 1197.49 538.08C1196.94 538.08 1196.45 537.963 1196.03 537.73C1195.6 537.497 1195.27 537.163 1195.03 536.73C1194.79 536.297 1194.67 535.79 1194.67 535.21C1194.67 534.63 1194.78 534.123 1195.02 533.69C1195.26 533.257 1195.59 532.923 1196.02 532.69C1196.44 532.457 1196.93 532.34 1197.49 532.34C1198.03 532.34 1198.51 532.453 1198.93 532.68C1199.35 532.907 1199.67 533.23 1199.91 533.65C1200.15 534.07 1200.27 534.56 1200.27 535.12ZM1198.52 534.67C1198.52 534.377 1198.42 534.143 1198.22 533.97C1198.02 533.797 1197.77 533.71 1197.47 533.71C1197.18 533.71 1196.94 533.793 1196.74 533.96C1196.54 534.127 1196.42 534.363 1196.38 534.67H1198.52Z" fill="#8E8E8E"/>
<path d="M1268.56 510.522V509.471L1269.88 508.316C1270.13 508.101 1270.29 507.808 1270.33 507.487C1270.38 507.166 1270.31 506.839 1270.14 506.562L1268.52 503.812C1268.4 503.604 1268.23 503.43 1268.02 503.31C1267.81 503.189 1267.57 503.125 1267.33 503.125C1267.18 503.124 1267.03 503.147 1266.89 503.194L1265.22 503.757C1264.93 503.566 1264.63 503.394 1264.32 503.242L1263.97 501.509C1263.91 501.193 1263.73 500.909 1263.48 500.706C1263.23 500.504 1262.92 500.396 1262.59 500.402H1259.38C1259.05 500.396 1258.74 500.504 1258.49 500.706C1258.24 500.909 1258.07 501.193 1258 501.509L1257.65 503.242C1257.34 503.394 1257.04 503.566 1256.74 503.757L1255.11 503.166C1254.96 503.129 1254.82 503.115 1254.67 503.125C1254.43 503.125 1254.19 503.189 1253.98 503.31C1253.77 503.43 1253.6 503.604 1253.48 503.812L1251.86 506.562C1251.7 506.838 1251.64 507.161 1251.69 507.476C1251.74 507.791 1251.9 508.078 1252.14 508.288L1253.44 509.477V510.529L1252.14 511.684C1251.89 511.896 1251.73 512.188 1251.68 512.509C1251.62 512.83 1251.69 513.159 1251.86 513.437L1253.48 516.187C1253.6 516.396 1253.77 516.57 1253.98 516.69C1254.19 516.811 1254.43 516.875 1254.67 516.875C1254.82 516.876 1254.97 516.853 1255.11 516.806L1256.78 516.242C1257.07 516.434 1257.37 516.606 1257.68 516.758L1258.03 518.491C1258.09 518.807 1258.27 519.091 1258.52 519.294C1258.77 519.496 1259.08 519.604 1259.4 519.597H1262.65C1262.97 519.604 1263.29 519.496 1263.54 519.294C1263.79 519.091 1263.96 518.807 1264.02 518.491L1264.38 516.758C1264.69 516.606 1264.99 516.434 1265.28 516.242L1266.95 516.806C1267.09 516.853 1267.24 516.876 1267.39 516.875C1267.63 516.875 1267.86 516.811 1268.07 516.69C1268.28 516.57 1268.46 516.396 1268.58 516.187L1270.14 513.437C1270.3 513.162 1270.36 512.839 1270.31 512.524C1270.26 512.209 1270.1 511.922 1269.86 511.712L1268.56 510.522ZM1267.33 515.5L1264.97 514.702C1264.42 515.17 1263.79 515.536 1263.11 515.782L1262.62 518.25H1259.38L1258.89 515.809C1258.21 515.556 1257.59 515.191 1257.03 514.73L1254.67 515.5L1253.05 512.75L1254.92 511.1C1254.79 510.388 1254.79 509.66 1254.92 508.948L1253.05 507.25L1254.67 504.5L1257.03 505.297C1257.58 504.83 1258.21 504.464 1258.89 504.218L1259.38 501.75H1262.62L1263.11 504.191C1263.79 504.444 1264.41 504.809 1264.97 505.27L1267.33 504.5L1268.95 507.25L1267.08 508.9C1267.21 509.612 1267.21 510.34 1267.08 511.052L1268.95 512.75L1267.33 515.5Z" fill="#8E8E8E"/>
<path d="M1261 514.125C1260.18 514.125 1259.39 513.883 1258.71 513.43C1258.03 512.977 1257.5 512.332 1257.19 511.579C1256.88 510.825 1256.8 509.995 1256.95 509.195C1257.11 508.395 1257.51 507.66 1258.08 507.083C1258.66 506.506 1259.4 506.113 1260.2 505.954C1261 505.795 1261.82 505.877 1262.58 506.189C1263.33 506.501 1263.98 507.03 1264.43 507.708C1264.88 508.387 1265.13 509.184 1265.13 510C1265.13 510.543 1265.03 511.082 1264.82 511.585C1264.62 512.088 1264.31 512.545 1263.93 512.929C1263.54 513.313 1263.09 513.617 1262.59 513.822C1262.08 514.028 1261.54 514.131 1261 514.125V514.125ZM1261 507.25C1260.64 507.242 1260.28 507.307 1259.94 507.442C1259.6 507.577 1259.29 507.78 1259.04 508.037C1258.78 508.294 1258.58 508.6 1258.44 508.938C1258.31 509.275 1258.24 509.637 1258.25 510C1258.24 510.363 1258.31 510.725 1258.44 511.062C1258.58 511.4 1258.78 511.706 1259.04 511.963C1259.29 512.22 1259.6 512.423 1259.94 512.558C1260.28 512.693 1260.64 512.758 1261 512.75C1261.36 512.758 1261.72 512.693 1262.06 512.558C1262.4 512.423 1262.71 512.22 1262.96 511.963C1263.22 511.706 1263.42 511.4 1263.56 511.062C1263.69 510.725 1263.76 510.363 1263.75 510C1263.76 509.637 1263.69 509.275 1263.56 508.938C1263.42 508.6 1263.22 508.294 1262.96 508.037C1262.71 507.78 1262.4 507.577 1262.06 507.442C1261.72 507.307 1261.36 507.242 1261 507.25Z" fill="#8E8E8E"/>
<path d="M1249.97 533.24C1249.97 533.647 1249.88 534.02 1249.69 534.36C1249.5 534.693 1249.22 534.963 1248.83 535.17C1248.44 535.377 1247.96 535.48 1247.39 535.48H1246.33V538H1244.62V530.98H1247.39C1247.95 530.98 1248.42 531.077 1248.81 531.27C1249.2 531.463 1249.49 531.73 1249.68 532.07C1249.87 532.41 1249.97 532.8 1249.97 533.24ZM1247.26 534.12C1247.59 534.12 1247.83 534.043 1247.99 533.89C1248.15 533.737 1248.23 533.52 1248.23 533.24C1248.23 532.96 1248.15 532.743 1247.99 532.59C1247.83 532.437 1247.59 532.36 1247.26 532.36H1246.33V534.12H1247.26ZM1252.57 533.35C1252.77 533.043 1253.02 532.803 1253.32 532.63C1253.62 532.45 1253.95 532.36 1254.32 532.36V534.17H1253.85C1253.42 534.17 1253.1 534.263 1252.89 534.45C1252.68 534.63 1252.57 534.95 1252.57 535.41V538H1250.86V532.42H1252.57V533.35ZM1257.68 538.08C1257.13 538.08 1256.64 537.963 1256.2 537.73C1255.76 537.497 1255.42 537.163 1255.17 536.73C1254.92 536.297 1254.8 535.79 1254.8 535.21C1254.8 534.637 1254.92 534.133 1255.18 533.7C1255.43 533.26 1255.78 532.923 1256.22 532.69C1256.66 532.457 1257.15 532.34 1257.7 532.34C1258.24 532.34 1258.74 532.457 1259.18 532.69C1259.62 532.923 1259.96 533.26 1260.22 533.7C1260.47 534.133 1260.6 534.637 1260.6 535.21C1260.6 535.783 1260.47 536.29 1260.21 536.73C1259.95 537.163 1259.6 537.497 1259.16 537.73C1258.72 537.963 1258.22 538.08 1257.68 538.08ZM1257.68 536.6C1258 536.6 1258.28 536.48 1258.51 536.24C1258.74 536 1258.86 535.657 1258.86 535.21C1258.86 534.763 1258.74 534.42 1258.52 534.18C1258.3 533.94 1258.02 533.82 1257.7 533.82C1257.36 533.82 1257.09 533.94 1256.87 534.18C1256.65 534.413 1256.54 534.757 1256.54 535.21C1256.54 535.657 1256.64 536 1256.86 536.24C1257.08 536.48 1257.35 536.6 1257.68 536.6ZM1264.3 533.84H1263.38V538H1261.67V533.84H1261.05V532.42H1261.67V532.26C1261.67 531.573 1261.87 531.053 1262.26 530.7C1262.66 530.34 1263.23 530.16 1263.99 530.16C1264.12 530.16 1264.21 530.163 1264.27 530.17V531.62C1263.95 531.6 1263.72 531.647 1263.58 531.76C1263.45 531.873 1263.38 532.077 1263.38 532.37V532.42H1264.3V533.84ZM1265.97 531.84C1265.67 531.84 1265.42 531.753 1265.23 531.58C1265.04 531.4 1264.95 531.18 1264.95 530.92C1264.95 530.653 1265.04 530.433 1265.23 530.26C1265.42 530.08 1265.67 529.99 1265.97 529.99C1266.26 529.99 1266.5 530.08 1266.69 530.26C1266.88 530.433 1266.98 530.653 1266.98 530.92C1266.98 531.18 1266.88 531.4 1266.69 531.58C1266.5 531.753 1266.26 531.84 1265.97 531.84ZM1266.82 532.42V538H1265.11V532.42H1266.82ZM1269.77 530.6V538H1268.06V530.6H1269.77ZM1276.27 535.12C1276.27 535.28 1276.26 535.447 1276.24 535.62H1272.37C1272.39 535.967 1272.5 536.233 1272.7 536.42C1272.9 536.6 1273.14 536.69 1273.43 536.69C1273.85 536.69 1274.15 536.51 1274.32 536.15H1276.14C1276.04 536.517 1275.87 536.847 1275.63 537.14C1275.39 537.433 1275.08 537.663 1274.72 537.83C1274.35 537.997 1273.94 538.08 1273.49 538.08C1272.94 538.08 1272.45 537.963 1272.03 537.73C1271.6 537.497 1271.27 537.163 1271.03 536.73C1270.79 536.297 1270.67 535.79 1270.67 535.21C1270.67 534.63 1270.78 534.123 1271.02 533.69C1271.26 533.257 1271.59 532.923 1272.02 532.69C1272.44 532.457 1272.93 532.34 1273.49 532.34C1274.03 532.34 1274.51 532.453 1274.93 532.68C1275.35 532.907 1275.67 533.23 1275.91 533.65C1276.15 534.07 1276.27 534.56 1276.27 535.12ZM1274.52 534.67C1274.52 534.377 1274.42 534.143 1274.22 533.97C1274.02 533.797 1273.77 533.71 1273.47 533.71C1273.18 533.71 1272.94 533.793 1272.74 533.96C1272.54 534.127 1272.42 534.363 1272.38 534.67H1274.52Z" fill="#8E8E8E"/>
<path d="M933.045 600.633L928.024 601.47C927.966 601.48 927.912 601.504 927.867 601.541C927.822 601.579 927.787 601.627 927.767 601.682L926.035 606.321C925.87 606.747 926.316 607.154 926.725 606.949L938.725 600.949C938.808 600.907 938.878 600.843 938.927 600.764C938.975 600.685 939.001 600.594 939.001 600.502C939.001 600.409 938.975 600.318 938.927 600.239C938.878 600.16 938.808 600.096 938.725 600.055L926.725 594.055C926.316 593.85 925.87 594.257 926.035 594.683L927.767 599.321C927.788 599.376 927.822 599.425 927.868 599.462C927.913 599.499 927.967 599.524 928.025 599.533L933.046 600.37C933.077 600.375 933.106 600.391 933.126 600.415C933.147 600.439 933.158 600.47 933.158 600.502C933.158 600.533 933.147 600.564 933.126 600.588C933.106 600.612 933.077 600.628 933.046 600.633H933.045Z" fill="#F24E1E"/>
<rect x="920" y="308" width="100" height="100" rx="5" fill="#786B7D" fill-opacity="0.28"/>
<path d="M977.875 348H962.125C960.953 348 960 348.997 960 350.222V365.778C960 367.003 960.953 368 962.125 368H977.875C979.047 368 980 367.003 980 365.778V350.222C980 348.997 979.047 348 977.875 348ZM977.875 365.778H962.125C962.068 365.778 962.029 365.76 962.012 365.76C962.005 365.76 962.001 365.762 962 365.769L961.988 350.273C961.995 350.262 962.04 350.222 962.125 350.222H977.875C977.954 350.223 977.997 350.253 978 350.231L978.012 365.727C978.005 365.738 977.96 365.778 977.875 365.778Z" fill="white"/>
<path d="M964 352.444H970V359.111H964V352.444ZM971 361.333H964V363.556H976V361.333H972H971ZM972 356.889H976V359.111H972V356.889ZM972 352.444H976V354.667H972V352.444Z" fill="white"/>
<path d="M941.008 420.228V427.984L935.884 420.228H934.61V430H935.884V422.23L941.008 430H942.282V420.228H941.008ZM947.716 423.28C949.032 423.28 950.152 424.106 950.138 425.604H945.294C945.434 424.106 946.47 423.28 947.716 423.28ZM951.3 427.634H949.928C949.648 428.46 948.92 429.048 947.772 429.048C946.47 429.048 945.378 428.194 945.28 426.64H951.412C951.44 426.374 951.454 426.15 951.454 425.87C951.454 423.77 949.998 422.202 947.772 422.202C945.532 422.202 943.978 423.728 943.978 426.15C943.978 428.586 945.588 430.126 947.772 430.126C949.676 430.126 950.908 429.034 951.3 427.634ZM954.634 430H955.95L957.798 423.91L959.646 430H960.962L963.356 422.328H962.096L960.36 428.782L958.498 422.328H957.196L955.292 428.768L953.528 422.328H952.226L954.634 430ZM970.136 427.914C970.08 425.17 965.628 426.164 965.628 424.344C965.628 423.728 966.188 423.28 967.126 423.28C968.148 423.28 968.736 423.84 968.792 424.61H970.066C969.982 423.112 968.862 422.202 967.168 422.202C965.46 422.202 964.354 423.168 964.354 424.344C964.354 427.2 968.89 426.206 968.89 427.914C968.89 428.544 968.33 429.048 967.322 429.048C966.244 429.048 965.586 428.488 965.516 427.746H964.2C964.284 429.146 965.544 430.126 967.336 430.126C969.03 430.126 970.136 429.174 970.136 427.914ZM975.667 430H976.941V425.604H980.385V424.568H976.941V421.278H981.183V420.242H975.667V430ZM985.984 423.28C987.3 423.28 988.42 424.106 988.406 425.604H983.562C983.702 424.106 984.738 423.28 985.984 423.28ZM989.568 427.634H988.196C987.916 428.46 987.188 429.048 986.04 429.048C984.738 429.048 983.646 428.194 983.548 426.64H989.68C989.708 426.374 989.722 426.15 989.722 425.87C989.722 423.77 988.266 422.202 986.04 422.202C983.8 422.202 982.246 423.728 982.246 426.15C982.246 428.586 983.856 430.126 986.04 430.126C987.944 430.126 989.176 429.034 989.568 427.634ZM994.665 423.28C995.981 423.28 997.101 424.106 997.087 425.604H992.243C992.383 424.106 993.419 423.28 994.665 423.28ZM998.249 427.634H996.877C996.597 428.46 995.869 429.048 994.721 429.048C993.419 429.048 992.327 428.194 992.229 426.64H998.361C998.389 426.374 998.403 426.15 998.403 425.87C998.403 423.77 996.947 422.202 994.721 422.202C992.481 422.202 990.927 423.728 990.927 426.15C990.927 428.586 992.537 430.126 994.721 430.126C996.625 430.126 997.857 429.034 998.249 427.634ZM999.609 426.136C999.609 428.516 1001.19 430.126 1003.25 430.126C1004.65 430.126 1005.64 429.412 1006.1 428.558V430H1007.39V419.64H1006.1V423.7C1005.57 422.818 1004.47 422.202 1003.26 422.202C1001.19 422.202 999.609 423.742 999.609 426.136ZM1006.1 426.15C1006.1 427.956 1004.9 429.006 1003.5 429.006C1002.1 429.006 1000.91 427.942 1000.91 426.136C1000.91 424.33 1002.1 423.308 1003.5 423.308C1004.9 423.308 1006.1 424.372 1006.1 426.15Z" fill="white"/>
<rect x="1052" y="308" width="100" height="100" rx="5" fill="#786B7D" fill-opacity="0.28"/>
<g clip-path="url(#clip1_297_573)">
<path d="M1106.17 364.667C1106.17 364.888 1106.08 365.1 1105.92 365.256C1105.77 365.412 1105.55 365.5 1105.33 365.5H1093.67C1093.48 365.5 1093.31 365.667 1093.16 365.775L1090.33 368V354.667C1090.33 354.446 1090.42 354.234 1090.58 354.077C1090.73 353.921 1090.95 353.833 1091.17 353.833H1094.38V352.167H1091.17C1090.5 352.167 1089.87 352.43 1089.4 352.899C1088.93 353.368 1088.67 354.004 1088.67 354.667V369.667C1088.67 369.821 1088.71 369.973 1088.79 370.104C1088.88 370.235 1088.99 370.34 1089.13 370.408C1089.27 370.469 1089.41 370.494 1089.56 370.479C1089.71 370.464 1089.85 370.411 1089.97 370.325L1094.26 367.167H1105.46C1105.77 367.176 1106.09 367.12 1106.38 367.003C1106.68 366.886 1106.94 366.71 1107.16 366.486C1107.39 366.262 1107.56 365.994 1107.68 365.7C1107.79 365.406 1107.84 365.091 1107.83 364.775V363.833H1106.17V364.667Z" fill="white"/>
<path d="M1112.83 346.333H1098.67C1098 346.333 1097.37 346.597 1096.9 347.066C1096.43 347.534 1096.17 348.17 1096.17 348.833V358.833C1096.17 359.496 1096.43 360.132 1096.9 360.601C1097.37 361.07 1098 361.333 1098.67 361.333H1109.96L1113.94 364.425C1114.06 364.513 1114.2 364.567 1114.35 364.583C1114.49 364.599 1114.64 364.576 1114.77 364.517C1114.92 364.449 1115.04 364.343 1115.12 364.21C1115.2 364.077 1115.25 363.924 1115.25 363.767V348.833C1115.25 348.184 1115 347.561 1114.55 347.094C1114.1 346.628 1113.48 346.355 1112.83 346.333V346.333ZM1113.67 362.117L1110.75 359.842C1110.6 359.729 1110.43 359.667 1110.24 359.667H1098.67C1098.45 359.667 1098.23 359.579 1098.08 359.423C1097.92 359.266 1097.83 359.054 1097.83 358.833V348.833C1097.83 348.612 1097.92 348.4 1098.08 348.244C1098.23 348.088 1098.45 348 1098.67 348H1112.83C1113.06 348.02 1113.26 348.121 1113.42 348.284C1113.57 348.447 1113.66 348.66 1113.67 348.883V362.117Z" fill="white"/>
</g>
<path d="M1078.33 420.312V430H1077.06V422.776L1073.84 430H1072.94L1069.71 422.762V430H1068.43V420.312H1069.81L1073.39 428.32L1076.97 420.312H1078.33ZM1087.49 425.87C1087.49 426.113 1087.48 426.369 1087.45 426.64H1081.32C1081.37 427.396 1081.62 427.989 1082.09 428.418C1082.57 428.838 1083.14 429.048 1083.81 429.048C1084.36 429.048 1084.82 428.922 1085.18 428.67C1085.56 428.409 1085.82 428.063 1085.97 427.634H1087.34C1087.13 428.371 1086.72 428.973 1086.11 429.44C1085.49 429.897 1084.73 430.126 1083.81 430.126C1083.08 430.126 1082.43 429.963 1081.85 429.636C1081.28 429.309 1080.83 428.847 1080.51 428.25C1080.18 427.643 1080.02 426.943 1080.02 426.15C1080.02 425.357 1080.18 424.661 1080.49 424.064C1080.81 423.467 1081.25 423.009 1081.82 422.692C1082.4 422.365 1083.06 422.202 1083.81 422.202C1084.54 422.202 1085.18 422.361 1085.74 422.678C1086.3 422.995 1086.73 423.434 1087.03 423.994C1087.34 424.545 1087.49 425.17 1087.49 425.87ZM1086.18 425.604C1086.18 425.119 1086.07 424.703 1085.86 424.358C1085.64 424.003 1085.35 423.737 1084.97 423.56C1084.61 423.373 1084.2 423.28 1083.76 423.28C1083.11 423.28 1082.56 423.485 1082.1 423.896C1081.66 424.307 1081.4 424.876 1081.33 425.604H1086.18ZM1091.89 430.126C1091.3 430.126 1090.78 430.028 1090.31 429.832C1089.84 429.627 1089.47 429.347 1089.2 428.992C1088.93 428.628 1088.78 428.213 1088.75 427.746H1090.07C1090.11 428.129 1090.29 428.441 1090.6 428.684C1090.93 428.927 1091.35 429.048 1091.88 429.048C1092.36 429.048 1092.74 428.941 1093.02 428.726C1093.3 428.511 1093.44 428.241 1093.44 427.914C1093.44 427.578 1093.3 427.331 1093 427.172C1092.7 427.004 1092.24 426.841 1091.61 426.682C1091.04 426.533 1090.57 426.383 1090.21 426.234C1089.86 426.075 1089.55 425.847 1089.29 425.548C1089.03 425.24 1088.91 424.839 1088.91 424.344C1088.91 423.952 1089.03 423.593 1089.26 423.266C1089.49 422.939 1089.82 422.683 1090.25 422.496C1090.68 422.3 1091.17 422.202 1091.72 422.202C1092.57 422.202 1093.26 422.417 1093.78 422.846C1094.3 423.275 1094.58 423.863 1094.62 424.61H1093.35C1093.32 424.209 1093.16 423.887 1092.86 423.644C1092.57 423.401 1092.18 423.28 1091.68 423.28C1091.22 423.28 1090.86 423.378 1090.59 423.574C1090.32 423.77 1090.18 424.027 1090.18 424.344C1090.18 424.596 1090.26 424.806 1090.42 424.974C1090.59 425.133 1090.79 425.263 1091.04 425.366C1091.29 425.459 1091.63 425.567 1092.07 425.688C1092.62 425.837 1093.07 425.987 1093.42 426.136C1093.76 426.276 1094.06 426.491 1094.3 426.78C1094.55 427.069 1094.68 427.447 1094.69 427.914C1094.69 428.334 1094.57 428.712 1094.34 429.048C1094.11 429.384 1093.78 429.65 1093.35 429.846C1092.93 430.033 1092.44 430.126 1091.89 430.126ZM1099.21 430.126C1098.62 430.126 1098.09 430.028 1097.62 429.832C1097.16 429.627 1096.79 429.347 1096.52 428.992C1096.25 428.628 1096.1 428.213 1096.07 427.746H1097.39C1097.42 428.129 1097.6 428.441 1097.92 428.684C1098.24 428.927 1098.67 429.048 1099.19 429.048C1099.68 429.048 1100.06 428.941 1100.34 428.726C1100.62 428.511 1100.76 428.241 1100.76 427.914C1100.76 427.578 1100.61 427.331 1100.31 427.172C1100.01 427.004 1099.55 426.841 1098.93 426.682C1098.36 426.533 1097.89 426.383 1097.53 426.234C1097.17 426.075 1096.86 425.847 1096.6 425.548C1096.35 425.24 1096.22 424.839 1096.22 424.344C1096.22 423.952 1096.34 423.593 1096.57 423.266C1096.81 422.939 1097.14 422.683 1097.57 422.496C1098 422.3 1098.49 422.202 1099.04 422.202C1099.89 422.202 1100.57 422.417 1101.1 422.846C1101.62 423.275 1101.9 423.863 1101.94 424.61H1100.66C1100.63 424.209 1100.47 423.887 1100.17 423.644C1099.88 423.401 1099.49 423.28 1099 423.28C1098.54 423.28 1098.17 423.378 1097.9 423.574C1097.63 423.77 1097.5 424.027 1097.5 424.344C1097.5 424.596 1097.58 424.806 1097.74 424.974C1097.9 425.133 1098.11 425.263 1098.35 425.366C1098.6 425.459 1098.95 425.567 1099.39 425.688C1099.94 425.837 1100.39 425.987 1100.73 426.136C1101.08 426.276 1101.37 426.491 1101.61 426.78C1101.87 427.069 1102 427.447 1102.01 427.914C1102.01 428.334 1101.89 428.712 1101.66 429.048C1101.42 429.384 1101.09 429.65 1100.66 429.846C1100.24 430.033 1099.76 430.126 1099.21 430.126ZM1103.33 426.136C1103.33 425.352 1103.49 424.666 1103.8 424.078C1104.12 423.481 1104.55 423.019 1105.11 422.692C1105.67 422.365 1106.29 422.202 1106.97 422.202C1107.64 422.202 1108.22 422.347 1108.72 422.636C1109.21 422.925 1109.58 423.289 1109.82 423.728V422.328H1111.11V430H1109.82V428.572C1109.57 429.02 1109.19 429.393 1108.69 429.692C1108.19 429.981 1107.62 430.126 1106.95 430.126C1106.27 430.126 1105.66 429.958 1105.11 429.622C1104.55 429.286 1104.12 428.815 1103.8 428.208C1103.49 427.601 1103.33 426.911 1103.33 426.136ZM1109.82 426.15C1109.82 425.571 1109.71 425.067 1109.47 424.638C1109.24 424.209 1108.92 423.882 1108.52 423.658C1108.13 423.425 1107.7 423.308 1107.22 423.308C1106.74 423.308 1106.31 423.42 1105.92 423.644C1105.53 423.868 1105.21 424.195 1104.98 424.624C1104.75 425.053 1104.63 425.557 1104.63 426.136C1104.63 426.724 1104.75 427.237 1104.98 427.676C1105.21 428.105 1105.53 428.437 1105.92 428.67C1106.31 428.894 1106.74 429.006 1107.22 429.006C1107.7 429.006 1108.13 428.894 1108.52 428.67C1108.92 428.437 1109.24 428.105 1109.47 427.676C1109.71 427.237 1109.82 426.729 1109.82 426.15ZM1116.43 422.202C1117.09 422.202 1117.67 422.347 1118.16 422.636C1118.67 422.925 1119.04 423.289 1119.28 423.728V422.328H1120.57V430.168C1120.57 430.868 1120.42 431.489 1120.12 432.03C1119.83 432.581 1119.4 433.01 1118.84 433.318C1118.29 433.626 1117.64 433.78 1116.9 433.78C1115.9 433.78 1115.06 433.542 1114.38 433.066C1113.71 432.59 1113.32 431.941 1113.19 431.12H1114.45C1114.59 431.587 1114.88 431.96 1115.32 432.24C1115.76 432.529 1116.29 432.674 1116.9 432.674C1117.6 432.674 1118.17 432.455 1118.61 432.016C1119.06 431.577 1119.28 430.961 1119.28 430.168V428.558C1119.03 429.006 1118.66 429.379 1118.16 429.678C1117.67 429.977 1117.09 430.126 1116.43 430.126C1115.75 430.126 1115.13 429.958 1114.57 429.622C1114.02 429.286 1113.58 428.815 1113.26 428.208C1112.95 427.601 1112.79 426.911 1112.79 426.136C1112.79 425.352 1112.95 424.666 1113.26 424.078C1113.58 423.481 1114.02 423.019 1114.57 422.692C1115.13 422.365 1115.75 422.202 1116.43 422.202ZM1119.28 426.15C1119.28 425.571 1119.17 425.067 1118.93 424.638C1118.7 424.209 1118.38 423.882 1117.98 423.658C1117.59 423.425 1117.16 423.308 1116.68 423.308C1116.2 423.308 1115.77 423.42 1115.38 423.644C1114.99 423.868 1114.67 424.195 1114.44 424.624C1114.21 425.053 1114.09 425.557 1114.09 426.136C1114.09 426.724 1114.21 427.237 1114.44 427.676C1114.67 428.105 1114.99 428.437 1115.38 428.67C1115.77 428.894 1116.2 429.006 1116.68 429.006C1117.16 429.006 1117.59 428.894 1117.98 428.67C1118.38 428.437 1118.7 428.105 1118.93 427.676C1119.17 427.237 1119.28 426.729 1119.28 426.15ZM1129.73 425.87C1129.73 426.113 1129.71 426.369 1129.68 426.64H1123.55C1123.6 427.396 1123.85 427.989 1124.32 428.418C1124.8 428.838 1125.37 429.048 1126.04 429.048C1126.59 429.048 1127.05 428.922 1127.42 428.67C1127.79 428.409 1128.05 428.063 1128.2 427.634H1129.57C1129.37 428.371 1128.96 428.973 1128.34 429.44C1127.72 429.897 1126.96 430.126 1126.04 430.126C1125.32 430.126 1124.66 429.963 1124.08 429.636C1123.51 429.309 1123.07 428.847 1122.74 428.25C1122.41 427.643 1122.25 426.943 1122.25 426.15C1122.25 425.357 1122.41 424.661 1122.73 424.064C1123.04 423.467 1123.49 423.009 1124.06 422.692C1124.63 422.365 1125.3 422.202 1126.04 422.202C1126.77 422.202 1127.42 422.361 1127.98 422.678C1128.54 422.995 1128.96 423.434 1129.26 423.994C1129.57 424.545 1129.73 425.17 1129.73 425.87ZM1128.41 425.604C1128.41 425.119 1128.3 424.703 1128.09 424.358C1127.87 424.003 1127.58 423.737 1127.21 423.56C1126.84 423.373 1126.44 423.28 1125.99 423.28C1125.34 423.28 1124.79 423.485 1124.34 423.896C1123.89 424.307 1123.63 424.876 1123.57 425.604H1128.41ZM1134.12 430.126C1133.54 430.126 1133.01 430.028 1132.54 429.832C1132.07 429.627 1131.71 429.347 1131.44 428.992C1131.16 428.628 1131.02 428.213 1130.99 427.746H1132.3C1132.34 428.129 1132.52 428.441 1132.84 428.684C1133.16 428.927 1133.59 429.048 1134.11 429.048C1134.59 429.048 1134.98 428.941 1135.26 428.726C1135.54 428.511 1135.68 428.241 1135.68 427.914C1135.68 427.578 1135.53 427.331 1135.23 427.172C1134.93 427.004 1134.47 426.841 1133.84 426.682C1133.27 426.533 1132.81 426.383 1132.44 426.234C1132.09 426.075 1131.78 425.847 1131.52 425.548C1131.27 425.24 1131.14 424.839 1131.14 424.344C1131.14 423.952 1131.26 423.593 1131.49 423.266C1131.72 422.939 1132.06 422.683 1132.49 422.496C1132.91 422.3 1133.4 422.202 1133.96 422.202C1134.8 422.202 1135.49 422.417 1136.01 422.846C1136.54 423.275 1136.82 423.863 1136.85 424.61H1135.58C1135.55 424.209 1135.39 423.887 1135.09 423.644C1134.8 423.401 1134.41 423.28 1133.91 423.28C1133.46 423.28 1133.09 423.378 1132.82 423.574C1132.55 423.77 1132.42 424.027 1132.42 424.344C1132.42 424.596 1132.49 424.806 1132.65 424.974C1132.82 425.133 1133.03 425.263 1133.27 425.366C1133.52 425.459 1133.87 425.567 1134.31 425.688C1134.86 425.837 1135.3 425.987 1135.65 426.136C1135.99 426.276 1136.29 426.491 1136.53 426.78C1136.78 427.069 1136.91 427.447 1136.92 427.914C1136.92 428.334 1136.81 428.712 1136.57 429.048C1136.34 429.384 1136.01 429.65 1135.58 429.846C1135.16 430.033 1134.67 430.126 1134.12 430.126Z" fill="white"/>
<rect x="1184" y="308" width="100" height="100" rx="5" fill="#786B7D" fill-opacity="0.28"/>
<g clip-path="url(#clip2_297_573)">
<path d="M1237.93 364.46L1237.4 360.19C1237.32 359.585 1237.03 359.029 1236.57 358.626C1236.12 358.222 1235.53 358 1234.92 358H1233.08C1232.47 358 1231.88 358.223 1231.43 358.626C1230.97 359.029 1230.68 359.585 1230.6 360.19L1230.07 364.46C1230.04 364.695 1230.06 364.933 1230.13 365.159C1230.2 365.385 1230.31 365.593 1230.47 365.77C1230.63 365.947 1230.82 366.089 1231.04 366.186C1231.25 366.283 1231.49 366.334 1231.72 366.333H1236.28C1236.51 366.333 1236.75 366.283 1236.96 366.186C1237.18 366.089 1237.37 365.947 1237.53 365.77C1237.68 365.593 1237.8 365.384 1237.87 365.158C1237.94 364.933 1237.96 364.695 1237.93 364.46V364.46Z" stroke="white" stroke-width="2" stroke-linecap="round" stroke-linejoin="round"/>
<path d="M1234 354.667C1235.38 354.667 1236.5 353.547 1236.5 352.167C1236.5 350.786 1235.38 349.667 1234 349.667C1232.62 349.667 1231.5 350.786 1231.5 352.167C1231.5 353.547 1232.62 354.667 1234 354.667Z" stroke="white" stroke-width="2"/>
<path d="M1227.33 357.167C1228.25 357.167 1229 356.421 1229 355.5C1229 354.58 1228.25 353.833 1227.33 353.833C1226.41 353.833 1225.67 354.58 1225.67 355.5C1225.67 356.421 1226.41 357.167 1227.33 357.167Z" stroke="white" stroke-width="2"/>
<path d="M1240.67 357.167C1241.59 357.167 1242.33 356.421 1242.33 355.5C1242.33 354.58 1241.59 353.833 1240.67 353.833C1239.75 353.833 1239 354.58 1239 355.5C1239 356.421 1239.75 357.167 1240.67 357.167Z" stroke="white" stroke-width="2"/>
<path d="M1227.33 359.667H1227.08C1226.68 359.667 1226.3 359.807 1226 360.062C1225.7 360.317 1225.5 360.67 1225.43 361.059L1225.16 362.726C1225.12 362.965 1225.13 363.209 1225.19 363.443C1225.26 363.676 1225.37 363.893 1225.53 364.077C1225.69 364.262 1225.88 364.41 1226.1 364.512C1226.32 364.614 1226.56 364.667 1226.8 364.667H1229.83M1240.67 359.667H1240.92C1241.32 359.667 1241.7 359.807 1242 360.062C1242.3 360.317 1242.5 360.67 1242.57 361.059L1242.84 362.726C1242.88 362.965 1242.87 363.209 1242.81 363.443C1242.74 363.676 1242.63 363.893 1242.47 364.077C1242.31 364.262 1242.12 364.41 1241.9 364.512C1241.68 364.614 1241.44 364.667 1241.2 364.667H1238.17" stroke="white" stroke-width="2" stroke-linecap="round" stroke-linejoin="round"/>
</g>
<path d="M1217.57 423.07C1217.3 422.501 1216.9 422.062 1216.39 421.754C1215.88 421.437 1215.28 421.278 1214.6 421.278C1213.92 421.278 1213.3 421.437 1212.75 421.754C1212.21 422.062 1211.78 422.51 1211.46 423.098C1211.16 423.677 1211 424.349 1211 425.114C1211 425.879 1211.16 426.551 1211.46 427.13C1211.78 427.709 1212.21 428.157 1212.75 428.474C1213.3 428.782 1213.92 428.936 1214.6 428.936C1215.55 428.936 1216.34 428.651 1216.95 428.082C1217.57 427.513 1217.93 426.743 1218.03 425.772H1214.14V424.736H1219.39V425.716C1219.31 426.519 1219.06 427.256 1218.63 427.928C1218.2 428.591 1217.64 429.118 1216.94 429.51C1216.24 429.893 1215.46 430.084 1214.6 430.084C1213.69 430.084 1212.87 429.874 1212.12 429.454C1211.37 429.025 1210.78 428.432 1210.34 427.676C1209.91 426.92 1209.7 426.066 1209.7 425.114C1209.7 424.162 1209.91 423.308 1210.34 422.552C1210.78 421.787 1211.37 421.194 1212.12 420.774C1212.87 420.345 1213.69 420.13 1214.6 420.13C1215.64 420.13 1216.55 420.387 1217.34 420.9C1218.15 421.413 1218.73 422.137 1219.09 423.07H1217.57ZM1222.35 423.574C1222.57 423.135 1222.89 422.795 1223.3 422.552C1223.72 422.309 1224.23 422.188 1224.82 422.188V423.504H1224.49C1223.06 423.504 1222.35 424.279 1222.35 425.828V430H1221.07V422.328H1222.35V423.574ZM1229.64 430.126C1228.92 430.126 1228.27 429.963 1227.68 429.636C1227.1 429.309 1226.64 428.847 1226.31 428.25C1225.98 427.643 1225.82 426.943 1225.82 426.15C1225.82 425.366 1225.99 424.675 1226.32 424.078C1226.67 423.471 1227.13 423.009 1227.72 422.692C1228.31 422.365 1228.97 422.202 1229.7 422.202C1230.42 422.202 1231.08 422.365 1231.67 422.692C1232.26 423.009 1232.72 423.467 1233.06 424.064C1233.4 424.661 1233.57 425.357 1233.57 426.15C1233.57 426.943 1233.4 427.643 1233.04 428.25C1232.7 428.847 1232.23 429.309 1231.63 429.636C1231.03 429.963 1230.37 430.126 1229.64 430.126ZM1229.64 429.006C1230.1 429.006 1230.53 428.899 1230.93 428.684C1231.33 428.469 1231.65 428.147 1231.89 427.718C1232.15 427.289 1232.27 426.766 1232.27 426.15C1232.27 425.534 1232.15 425.011 1231.91 424.582C1231.67 424.153 1231.35 423.835 1230.96 423.63C1230.56 423.415 1230.14 423.308 1229.68 423.308C1229.22 423.308 1228.79 423.415 1228.39 423.63C1228.01 423.835 1227.7 424.153 1227.47 424.582C1227.24 425.011 1227.12 425.534 1227.12 426.15C1227.12 426.775 1227.23 427.303 1227.46 427.732C1227.69 428.161 1228 428.483 1228.38 428.698C1228.76 428.903 1229.18 429.006 1229.64 429.006ZM1242.05 422.328V430H1240.78V428.866C1240.54 429.258 1240.2 429.566 1239.76 429.79C1239.33 430.005 1238.85 430.112 1238.33 430.112C1237.73 430.112 1237.2 429.991 1236.72 429.748C1236.24 429.496 1235.87 429.123 1235.59 428.628C1235.32 428.133 1235.18 427.531 1235.18 426.822V422.328H1236.44V426.654C1236.44 427.41 1236.63 427.993 1237.01 428.404C1237.4 428.805 1237.92 429.006 1238.58 429.006C1239.26 429.006 1239.8 428.796 1240.19 428.376C1240.58 427.956 1240.78 427.345 1240.78 426.542V422.328H1242.05ZM1245.48 423.742C1245.73 423.303 1246.1 422.939 1246.6 422.65C1247.1 422.351 1247.69 422.202 1248.35 422.202C1249.03 422.202 1249.65 422.365 1250.2 422.692C1250.76 423.019 1251.2 423.481 1251.51 424.078C1251.83 424.666 1251.99 425.352 1251.99 426.136C1251.99 426.911 1251.83 427.601 1251.51 428.208C1251.2 428.815 1250.76 429.286 1250.2 429.622C1249.65 429.958 1249.03 430.126 1248.35 430.126C1247.7 430.126 1247.12 429.981 1246.61 429.692C1246.12 429.393 1245.74 429.025 1245.48 428.586V433.64H1244.2V422.328H1245.48V423.742ZM1250.69 426.136C1250.69 425.557 1250.57 425.053 1250.34 424.624C1250.1 424.195 1249.79 423.868 1249.38 423.644C1248.99 423.42 1248.56 423.308 1248.08 423.308C1247.62 423.308 1247.18 423.425 1246.78 423.658C1246.39 423.882 1246.07 424.213 1245.83 424.652C1245.6 425.081 1245.48 425.581 1245.48 426.15C1245.48 426.729 1245.6 427.237 1245.83 427.676C1246.07 428.105 1246.39 428.437 1246.78 428.67C1247.18 428.894 1247.62 429.006 1248.08 429.006C1248.56 429.006 1248.99 428.894 1249.38 428.67C1249.79 428.437 1250.1 428.105 1250.34 427.676C1250.57 427.237 1250.69 426.724 1250.69 426.136ZM1256.38 430.126C1255.79 430.126 1255.27 430.028 1254.8 429.832C1254.33 429.627 1253.96 429.347 1253.69 428.992C1253.42 428.628 1253.27 428.213 1253.25 427.746H1254.56C1254.6 428.129 1254.78 428.441 1255.09 428.684C1255.42 428.927 1255.85 429.048 1256.37 429.048C1256.85 429.048 1257.24 428.941 1257.52 428.726C1257.8 428.511 1257.94 428.241 1257.94 427.914C1257.94 427.578 1257.79 427.331 1257.49 427.172C1257.19 427.004 1256.73 426.841 1256.1 426.682C1255.53 426.533 1255.07 426.383 1254.7 426.234C1254.35 426.075 1254.04 425.847 1253.78 425.548C1253.53 425.24 1253.4 424.839 1253.4 424.344C1253.4 423.952 1253.52 423.593 1253.75 423.266C1253.98 422.939 1254.31 422.683 1254.74 422.496C1255.17 422.3 1255.66 422.202 1256.21 422.202C1257.06 422.202 1257.75 422.417 1258.27 422.846C1258.79 423.275 1259.07 423.863 1259.11 424.61H1257.84C1257.81 424.209 1257.65 423.887 1257.35 423.644C1257.06 423.401 1256.67 423.28 1256.17 423.28C1255.71 423.28 1255.35 423.378 1255.08 423.574C1254.81 423.77 1254.67 424.027 1254.67 424.344C1254.67 424.596 1254.75 424.806 1254.91 424.974C1255.08 425.133 1255.29 425.263 1255.53 425.366C1255.78 425.459 1256.13 425.567 1256.56 425.688C1257.11 425.837 1257.56 425.987 1257.91 426.136C1258.25 426.276 1258.55 426.491 1258.79 426.78C1259.04 427.069 1259.17 427.447 1259.18 427.914C1259.18 428.334 1259.07 428.712 1258.83 429.048C1258.6 429.384 1258.27 429.65 1257.84 429.846C1257.42 430.033 1256.93 430.126 1256.38 430.126Z" fill="white"/>
<defs>
<clipPath id="clip0_297_573">
<rect width="21" height="21" fill="white" transform="translate(1020 500)"/>
</clipPath>
<clipPath id="clip1_297_573">
<rect width="30" height="30" fill="white" transform="translate(1087 343)"/>
</clipPath>
<clipPath id="clip2_297_573">
<rect width="20" height="20" fill="white" transform="translate(1224 348)"/>
</clipPath>
</defs>
</svg>
