<svg width="1728" height="1117" viewBox="0 0 1728 1117" fill="none" xmlns="http://www.w3.org/2000/svg">
<g clip-path="url(#clip0_513_35)">
<rect width="1728" height="1117" fill="white"/>
<rect x="33" y="167" width="1659" height="257" rx="8" fill="#D9D9D9"/>
<g filter="url(#filter0_d_513_35)">
<rect width="1728" height="108" rx="8" fill="white"/>
<rect x="0.5" y="0.5" width="1727" height="107" rx="7.5" stroke="#D3D3D3"/>
</g>
<path d="M40.936 40.44V53.528C40.936 54.744 41.2133 55.6827 41.768 56.344C42.344 57.0053 43.208 57.336 44.36 57.336C45.512 57.336 46.376 57.0053 46.952 56.344C47.5493 55.6613 47.848 54.7227 47.848 53.528V40.44H54.12V53.528C54.12 55.5973 53.6827 57.368 52.808 58.84C51.9333 60.2907 50.7387 61.3893 49.224 62.136C47.7307 62.8613 46.0667 63.224 44.232 63.224C42.3973 63.224 40.7547 62.8613 39.304 62.136C37.8747 61.3893 36.744 60.2907 35.912 58.84C35.1013 57.3893 34.696 55.6187 34.696 53.528V40.44H40.936ZM63.8453 47.544C64.3359 46.712 65.0293 46.0507 65.9253 45.56C66.8213 45.0693 67.8773 44.824 69.0933 44.824C70.5226 44.824 71.8133 45.1973 72.9653 45.944C74.1386 46.6907 75.0559 47.7573 75.7173 49.144C76.3999 50.5307 76.7413 52.152 76.7413 54.008C76.7413 55.864 76.3999 57.496 75.7173 58.904C75.0559 60.2907 74.1386 61.3573 72.9653 62.104C71.8133 62.8507 70.5226 63.224 69.0933 63.224C67.8773 63.224 66.8213 62.9787 65.9253 62.488C65.0506 61.9973 64.3573 61.336 63.8453 60.504V71.576H57.5733V45.048H63.8453V47.544ZM70.3733 54.008C70.3733 52.8347 70.0533 51.928 69.4133 51.288C68.7946 50.6267 68.0266 50.296 67.1093 50.296C66.1919 50.296 65.4133 50.6267 64.7733 51.288C64.1546 51.9493 63.8453 52.856 63.8453 54.008C63.8453 55.1813 64.1546 56.0987 64.7733 56.76C65.4133 57.4213 66.1919 57.752 67.1093 57.752C68.0266 57.752 68.7946 57.4213 69.4133 56.76C70.0533 56.0773 70.3733 55.16 70.3733 54.008ZM87.6753 63.224C85.8833 63.224 84.2726 62.8507 82.8433 62.104C81.4353 61.3573 80.3259 60.2907 79.5153 58.904C78.7046 57.5173 78.2993 55.8853 78.2993 54.008C78.2993 52.152 78.7046 50.5307 79.5153 49.144C80.3473 47.7573 81.4673 46.6907 82.8753 45.944C84.3046 45.1973 85.9153 44.824 87.7073 44.824C89.4993 44.824 91.0993 45.1973 92.5073 45.944C93.9366 46.6907 95.0566 47.7573 95.8673 49.144C96.6993 50.5307 97.1153 52.152 97.1153 54.008C97.1153 55.864 96.6993 57.496 95.8673 58.904C95.0566 60.2907 93.9366 61.3573 92.5073 62.104C91.0779 62.8507 89.4673 63.224 87.6753 63.224ZM87.6753 57.784C88.5499 57.784 89.2753 57.464 89.8513 56.824C90.4486 56.1627 90.7473 55.224 90.7473 54.008C90.7473 52.792 90.4486 51.864 89.8513 51.224C89.2753 50.584 88.5606 50.264 87.7073 50.264C86.8539 50.264 86.1393 50.584 85.5633 51.224C84.9873 51.864 84.6993 52.792 84.6993 54.008C84.6993 55.2453 84.9766 56.184 85.5312 56.824C86.0859 57.464 86.8006 57.784 87.6753 57.784ZM131.443 40.44L125.907 63H118.195L115.091 49.176L111.923 63H104.211L98.739 40.44H105.523L108.147 55.864L111.699 40.44H118.579L122.035 55.736L124.659 40.44H131.443ZM133.081 54.008C133.081 52.152 133.411 50.5307 134.073 49.144C134.755 47.7573 135.673 46.6907 136.825 45.944C137.998 45.1973 139.299 44.824 140.729 44.824C141.966 44.824 143.033 45.0693 143.929 45.56C144.825 46.0507 145.518 46.712 146.009 47.544V45.048H152.281V63H146.009V60.504C145.518 61.336 144.814 61.9973 143.897 62.488C143.001 62.9787 141.945 63.224 140.729 63.224C139.299 63.224 137.998 62.8507 136.825 62.104C135.673 61.3573 134.755 60.2907 134.073 58.904C133.411 57.496 133.081 55.864 133.081 54.008ZM146.009 54.008C146.009 52.856 145.689 51.9493 145.049 51.288C144.43 50.6267 143.662 50.296 142.745 50.296C141.806 50.296 141.027 50.6267 140.409 51.288C139.79 51.928 139.481 52.8347 139.481 54.008C139.481 55.16 139.79 56.0773 140.409 56.76C141.027 57.4213 141.806 57.752 142.745 57.752C143.662 57.752 144.43 57.4213 145.049 56.76C145.689 56.0987 146.009 55.1813 146.009 54.008ZM162.127 39.32V63H155.855V39.32H162.127ZM171.97 39.32V63H165.698V39.32H171.97ZM192.694 53.816C192.694 54.3067 192.662 54.7973 192.598 55.288H180.726C180.79 56.2693 181.057 57.0053 181.526 57.496C182.017 57.9653 182.635 58.2 183.382 58.2C184.427 58.2 185.174 57.7307 185.622 56.792H192.31C192.033 58.0293 191.489 59.1387 190.678 60.12C189.889 61.08 188.886 61.8373 187.67 62.392C186.454 62.9467 185.11 63.224 183.638 63.224C181.867 63.224 180.289 62.8507 178.902 62.104C177.537 61.3573 176.459 60.2907 175.67 58.904C174.902 57.5173 174.518 55.8853 174.518 54.008C174.518 52.1307 174.902 50.5093 175.67 49.144C176.438 47.7573 177.505 46.6907 178.87 45.944C180.257 45.1973 181.846 44.824 183.638 44.824C185.409 44.824 186.977 45.1867 188.342 45.912C189.707 46.6373 190.774 47.6827 191.542 49.048C192.31 50.392 192.694 51.9813 192.694 53.816ZM186.294 52.248C186.294 51.48 186.038 50.8827 185.526 50.456C185.014 50.008 184.374 49.784 183.606 49.784C182.838 49.784 182.209 49.9973 181.718 50.424C181.227 50.8293 180.907 51.4373 180.758 52.248H186.294ZM205.853 57.656V63H203.133C198.546 63 196.253 60.728 196.253 56.184V50.264H194.045V45.048H196.253V40.696H202.557V45.048H205.821V50.264H202.557V56.28C202.557 56.7707 202.663 57.1227 202.877 57.336C203.111 57.5493 203.495 57.656 204.029 57.656H205.853ZM211.77 63.256C210.66 63.256 209.764 62.9573 209.082 62.36C208.42 61.7413 208.09 60.9627 208.09 60.024C208.09 59.0853 208.42 58.3067 209.082 57.688C209.764 57.0693 210.66 56.76 211.77 56.76C212.858 56.76 213.732 57.0693 214.394 57.688C215.076 58.3067 215.418 59.0853 215.418 60.024C215.418 60.9413 215.076 61.7093 214.394 62.328C213.732 62.9467 212.858 63.256 211.77 63.256Z" fill="#D3D3D3"/>
<circle cx="1558" cy="49" r="25" fill="#C4C4C4"/>
<path d="M1607.32 41.0713V32.2031H1609.95V41.0713C1609.95 41.9268 1609.76 42.6621 1609.38 43.2773C1609.01 43.8867 1608.5 44.3555 1607.85 44.6836C1607.2 45.0117 1606.48 45.1758 1605.67 45.1758C1604.83 45.1758 1604.09 45.0352 1603.44 44.7539C1602.8 44.4727 1602.29 44.042 1601.92 43.4619C1601.55 42.876 1601.37 42.1348 1601.37 41.2383H1604.01C1604.01 41.707 1604.08 42.0791 1604.21 42.3545C1604.34 42.6299 1604.53 42.8262 1604.78 42.9434C1605.03 43.0605 1605.32 43.1191 1605.67 43.1191C1606 43.1191 1606.29 43.04 1606.54 42.8818C1606.78 42.7236 1606.97 42.4922 1607.11 42.1875C1607.25 41.8828 1607.32 41.5107 1607.32 41.0713ZM1617.17 42.8555V38.6191C1617.17 38.3145 1617.12 38.0537 1617.02 37.8369C1616.92 37.6143 1616.77 37.4414 1616.56 37.3184C1616.35 37.1953 1616.08 37.1338 1615.76 37.1338C1615.48 37.1338 1615.23 37.1836 1615.03 37.2832C1614.82 37.377 1614.66 37.5146 1614.55 37.6963C1614.44 37.8721 1614.39 38.0801 1614.39 38.3203H1611.85C1611.85 37.916 1611.95 37.5322 1612.14 37.1689C1612.32 36.8057 1612.6 36.4863 1612.95 36.2109C1613.31 35.9297 1613.74 35.71 1614.23 35.5518C1614.73 35.3936 1615.28 35.3145 1615.9 35.3145C1616.64 35.3145 1617.29 35.4375 1617.87 35.6836C1618.44 35.9297 1618.89 36.2988 1619.22 36.791C1619.55 37.2832 1619.72 37.8984 1619.72 38.6367V42.7061C1619.72 43.2275 1619.75 43.6553 1619.82 43.9893C1619.88 44.3174 1619.98 44.6045 1620.1 44.8506V45H1617.54C1617.42 44.7422 1617.32 44.4199 1617.26 44.0332C1617.2 43.6406 1617.17 43.248 1617.17 42.8555ZM1617.51 39.208L1617.52 40.6406H1616.11C1615.77 40.6406 1615.48 40.6787 1615.24 40.7549C1614.99 40.8311 1614.79 40.9395 1614.63 41.0801C1614.47 41.2148 1614.36 41.373 1614.28 41.5547C1614.21 41.7363 1614.17 41.9355 1614.17 42.1523C1614.17 42.3691 1614.22 42.5654 1614.32 42.7412C1614.42 42.9111 1614.57 43.0459 1614.75 43.1455C1614.94 43.2393 1615.16 43.2861 1615.41 43.2861C1615.79 43.2861 1616.13 43.21 1616.41 43.0576C1616.69 42.9053 1616.91 42.7178 1617.06 42.4951C1617.22 42.2725 1617.3 42.0615 1617.3 41.8623L1617.97 42.9346C1617.88 43.1748 1617.75 43.4238 1617.58 43.6816C1617.43 43.9395 1617.22 44.1826 1616.98 44.4111C1616.73 44.6338 1616.44 44.8184 1616.09 44.9648C1615.75 45.1055 1615.33 45.1758 1614.86 45.1758C1614.26 45.1758 1613.71 45.0557 1613.22 44.8154C1612.73 44.5693 1612.34 44.2324 1612.06 43.8047C1611.78 43.3711 1611.63 42.8789 1611.63 42.3281C1611.63 41.8301 1611.73 41.3877 1611.92 41.001C1612.1 40.6143 1612.38 40.2891 1612.74 40.0254C1613.11 39.7559 1613.57 39.5537 1614.12 39.4189C1614.67 39.2783 1615.31 39.208 1616.04 39.208H1617.51ZM1624.2 37.459V45H1621.66V35.4902H1624.04L1624.2 37.459ZM1623.85 39.9111H1623.15C1623.15 39.249 1623.23 38.6396 1623.39 38.083C1623.55 37.5205 1623.79 37.0342 1624.1 36.624C1624.41 36.208 1624.8 35.8857 1625.27 35.6572C1625.73 35.4287 1626.27 35.3145 1626.88 35.3145C1627.3 35.3145 1627.68 35.3789 1628.04 35.5078C1628.39 35.6309 1628.69 35.8271 1628.94 36.0967C1629.2 36.3604 1629.4 36.7061 1629.54 37.1338C1629.68 37.5557 1629.75 38.0625 1629.75 38.6543V45H1627.22V38.9355C1627.22 38.502 1627.16 38.168 1627.04 37.9336C1626.92 37.6992 1626.76 37.5352 1626.54 37.4414C1626.33 37.3477 1626.08 37.3008 1625.78 37.3008C1625.45 37.3008 1625.16 37.3682 1624.92 37.5029C1624.67 37.6377 1624.48 37.8252 1624.32 38.0654C1624.16 38.2998 1624.04 38.5752 1623.97 38.8916C1623.89 39.208 1623.85 39.5479 1623.85 39.9111ZM1629.51 39.6211L1628.61 39.7354C1628.61 39.1143 1628.68 38.5371 1628.83 38.0039C1628.99 37.4707 1629.22 37.002 1629.53 36.5977C1629.84 36.1934 1630.22 35.8799 1630.68 35.6572C1631.14 35.4287 1631.67 35.3145 1632.26 35.3145C1632.72 35.3145 1633.14 35.3818 1633.51 35.5166C1633.89 35.6455 1634.21 35.8535 1634.47 36.1406C1634.74 36.4219 1634.94 36.791 1635.08 37.248C1635.23 37.7051 1635.3 38.2646 1635.3 38.9268V45H1632.76V38.9268C1632.76 38.4873 1632.71 38.1533 1632.59 37.9248C1632.48 37.6904 1632.31 37.5293 1632.1 37.4414C1631.88 37.3477 1631.63 37.3008 1631.34 37.3008C1631.04 37.3008 1630.77 37.3623 1630.54 37.4854C1630.31 37.6025 1630.12 37.7666 1629.97 37.9775C1629.82 38.1885 1629.7 38.4346 1629.63 38.7158C1629.55 38.9912 1629.51 39.293 1629.51 39.6211ZM1641.64 45.1758C1640.9 45.1758 1640.24 45.0586 1639.65 44.8242C1639.07 44.584 1638.57 44.2529 1638.16 43.8311C1637.76 43.4092 1637.45 42.9199 1637.23 42.3633C1637.01 41.8008 1636.9 41.2031 1636.9 40.5703V40.2188C1636.9 39.498 1637.01 38.8389 1637.21 38.2412C1637.42 37.6436 1637.71 37.125 1638.09 36.6855C1638.48 36.2461 1638.95 35.9092 1639.5 35.6748C1640.05 35.4346 1640.67 35.3145 1641.36 35.3145C1642.03 35.3145 1642.63 35.4258 1643.15 35.6484C1643.67 35.8711 1644.11 36.1875 1644.46 36.5977C1644.82 37.0078 1645.09 37.5 1645.27 38.0742C1645.45 38.6426 1645.54 39.2754 1645.54 39.9727V41.0273H1637.98V39.3398H1643.06V39.1465C1643.06 38.7949 1642.99 38.4814 1642.86 38.2061C1642.74 37.9248 1642.55 37.7021 1642.3 37.5381C1642.05 37.374 1641.73 37.292 1641.33 37.292C1641 37.292 1640.71 37.3652 1640.47 37.5117C1640.23 37.6582 1640.04 37.8633 1639.88 38.127C1639.74 38.3906 1639.62 38.7012 1639.55 39.0586C1639.48 39.4102 1639.44 39.7969 1639.44 40.2188V40.5703C1639.44 40.9512 1639.5 41.3027 1639.6 41.625C1639.71 41.9473 1639.87 42.2256 1640.07 42.46C1640.27 42.6943 1640.52 42.876 1640.81 43.0049C1641.1 43.1338 1641.43 43.1982 1641.8 43.1982C1642.26 43.1982 1642.68 43.1104 1643.07 42.9346C1643.47 42.7529 1643.81 42.4805 1644.1 42.1172L1645.33 43.4531C1645.13 43.7402 1644.86 44.0156 1644.51 44.2793C1644.17 44.543 1643.76 44.7598 1643.28 44.9297C1642.8 45.0938 1642.26 45.1758 1641.64 45.1758ZM1652.13 42.3721C1652.13 42.1904 1652.07 42.0264 1651.97 41.8799C1651.86 41.7334 1651.67 41.5986 1651.38 41.4756C1651.1 41.3467 1650.69 41.2295 1650.16 41.124C1649.68 41.0186 1649.23 40.8867 1648.81 40.7285C1648.4 40.5645 1648.04 40.3682 1647.74 40.1396C1647.44 39.9111 1647.21 39.6416 1647.04 39.3311C1646.87 39.0146 1646.78 38.6543 1646.78 38.25C1646.78 37.8516 1646.87 37.4766 1647.04 37.125C1647.21 36.7734 1647.46 36.4629 1647.78 36.1934C1648.11 35.918 1648.51 35.7041 1648.98 35.5518C1649.45 35.3936 1649.99 35.3145 1650.58 35.3145C1651.41 35.3145 1652.11 35.4463 1652.71 35.71C1653.3 35.9736 1653.76 36.3369 1654.08 36.7998C1654.4 37.2568 1654.56 37.7783 1654.56 38.3643H1652.03C1652.03 38.1182 1651.98 37.8984 1651.87 37.7051C1651.77 37.5059 1651.61 37.3506 1651.4 37.2393C1651.19 37.1221 1650.91 37.0635 1650.57 37.0635C1650.29 37.0635 1650.05 37.1133 1649.84 37.2129C1649.64 37.3066 1649.48 37.4355 1649.37 37.5996C1649.26 37.7578 1649.21 37.9336 1649.21 38.127C1649.21 38.2734 1649.24 38.4053 1649.3 38.5225C1649.36 38.6338 1649.46 38.7363 1649.6 38.8301C1649.74 38.9238 1649.93 39.0117 1650.15 39.0938C1650.38 39.1699 1650.66 39.2402 1650.99 39.3047C1651.68 39.4453 1652.29 39.6299 1652.83 39.8584C1653.37 40.0811 1653.8 40.3857 1654.11 40.7725C1654.43 41.1533 1654.59 41.6543 1654.59 42.2754C1654.59 42.6973 1654.49 43.084 1654.31 43.4355C1654.12 43.7871 1653.85 44.0947 1653.5 44.3584C1653.15 44.6162 1652.72 44.8184 1652.23 44.9648C1651.75 45.1055 1651.2 45.1758 1650.59 45.1758C1649.7 45.1758 1648.95 45.0176 1648.34 44.7012C1647.73 44.3848 1647.27 43.9834 1646.95 43.4971C1646.64 43.0049 1646.48 42.501 1646.48 41.9854H1648.88C1648.89 42.3311 1648.98 42.6094 1649.15 42.8203C1649.32 43.0312 1649.53 43.1836 1649.79 43.2773C1650.05 43.3711 1650.34 43.418 1650.64 43.418C1650.97 43.418 1651.24 43.374 1651.46 43.2861C1651.67 43.1924 1651.84 43.0693 1651.95 42.917C1652.07 42.7588 1652.13 42.5771 1652.13 42.3721Z" fill="#D3D3D3"/>
<g filter="url(#filter1_d_513_35)">
<rect x="1145" y="1050" width="606" height="579" rx="10" transform="rotate(-180 1145 1050)" fill="white"/>
</g>
<path d="M645.12 526.8C645.12 524.603 645.611 522.64 646.592 520.912C647.595 519.163 648.949 517.808 650.656 516.848C652.384 515.867 654.315 515.376 656.448 515.376C658.944 515.376 661.131 516.016 663.008 517.296C664.885 518.576 666.197 520.347 666.944 522.608H661.792C661.28 521.541 660.555 520.741 659.616 520.208C658.699 519.675 657.632 519.408 656.416 519.408C655.115 519.408 653.952 519.717 652.928 520.336C651.925 520.933 651.136 521.787 650.56 522.896C650.005 524.005 649.728 525.307 649.728 526.8C649.728 528.272 650.005 529.573 650.56 530.704C651.136 531.813 651.925 532.677 652.928 533.296C653.952 533.893 655.115 534.192 656.416 534.192C657.632 534.192 658.699 533.925 659.616 533.392C660.555 532.837 661.28 532.027 661.792 530.96H666.944C666.197 533.243 664.885 535.024 663.008 536.304C661.152 537.563 658.965 538.192 656.448 538.192C654.315 538.192 652.384 537.712 650.656 536.752C648.949 535.771 647.595 534.416 646.592 532.688C645.611 530.96 645.12 528.997 645.12 526.8ZM669.618 529.072C669.618 527.28 669.97 525.691 670.674 524.304C671.4 522.917 672.371 521.851 673.587 521.104C674.824 520.357 676.2 519.984 677.715 519.984C679.037 519.984 680.189 520.251 681.171 520.784C682.173 521.317 682.973 521.989 683.571 522.8V520.272H688.083V538H683.571V535.408C682.995 536.24 682.195 536.933 681.171 537.488C680.168 538.021 679.005 538.288 677.683 538.288C676.189 538.288 674.824 537.904 673.587 537.136C672.371 536.368 671.4 535.291 670.674 533.904C669.97 532.496 669.618 530.885 669.618 529.072ZM683.571 529.136C683.571 528.048 683.357 527.12 682.931 526.352C682.504 525.563 681.928 524.965 681.203 524.56C680.477 524.133 679.699 523.92 678.867 523.92C678.035 523.92 677.267 524.123 676.562 524.528C675.859 524.933 675.283 525.531 674.835 526.32C674.408 527.088 674.195 528.005 674.195 529.072C674.195 530.139 674.408 531.077 674.835 531.888C675.283 532.677 675.859 533.285 676.562 533.712C677.288 534.139 678.056 534.352 678.867 534.352C679.699 534.352 680.477 534.149 681.203 533.744C681.928 533.317 682.504 532.72 682.931 531.952C683.357 531.163 683.571 530.224 683.571 529.136ZM696.938 514.32V538H692.458V514.32H696.938ZM700.212 529.136C700.212 527.301 700.586 525.701 701.332 524.336C702.079 522.949 703.114 521.883 704.436 521.136C705.759 520.368 707.274 519.984 708.98 519.984C711.178 519.984 712.991 520.539 714.42 521.648C715.871 522.736 716.842 524.272 717.332 526.256H712.5C712.244 525.488 711.807 524.891 711.188 524.464C710.591 524.016 709.844 523.792 708.948 523.792C707.668 523.792 706.655 524.261 705.908 525.2C705.162 526.117 704.788 527.429 704.788 529.136C704.788 530.821 705.162 532.133 705.908 533.072C706.655 533.989 707.668 534.448 708.948 534.448C710.762 534.448 711.946 533.637 712.5 532.016H717.332C716.842 533.936 715.871 535.461 714.42 536.592C712.97 537.723 711.156 538.288 708.98 538.288C707.274 538.288 705.759 537.915 704.436 537.168C703.114 536.4 702.079 535.333 701.332 533.968C700.586 532.581 700.212 530.971 700.212 529.136ZM737.35 520.272V538H732.838V535.76C732.262 536.528 731.505 537.136 730.566 537.584C729.649 538.011 728.646 538.224 727.558 538.224C726.172 538.224 724.945 537.936 723.878 537.36C722.812 536.763 721.969 535.899 721.35 534.768C720.753 533.616 720.454 532.251 720.454 530.672V520.272H724.934V530.032C724.934 531.44 725.286 532.528 725.99 533.296C726.694 534.043 727.654 534.416 728.87 534.416C730.108 534.416 731.078 534.043 731.782 533.296C732.486 532.528 732.838 531.44 732.838 530.032V520.272H737.35ZM746.251 514.32V538H741.771V514.32H746.251ZM749.525 529.072C749.525 527.28 749.877 525.691 750.581 524.304C751.306 522.917 752.277 521.851 753.493 521.104C754.73 520.357 756.106 519.984 757.621 519.984C758.943 519.984 760.095 520.251 761.077 520.784C762.079 521.317 762.879 521.989 763.477 522.8V520.272H767.989V538H763.477V535.408C762.901 536.24 762.101 536.933 761.077 537.488C760.074 538.021 758.911 538.288 757.589 538.288C756.095 538.288 754.73 537.904 753.493 537.136C752.277 536.368 751.306 535.291 750.581 533.904C749.877 532.496 749.525 530.885 749.525 529.072ZM763.477 529.136C763.477 528.048 763.263 527.12 762.837 526.352C762.41 525.563 761.834 524.965 761.109 524.56C760.383 524.133 759.605 523.92 758.773 523.92C757.941 523.92 757.173 524.123 756.469 524.528C755.765 524.933 755.189 525.531 754.741 526.32C754.314 527.088 754.101 528.005 754.101 529.072C754.101 530.139 754.314 531.077 754.741 531.888C755.189 532.677 755.765 533.285 756.469 533.712C757.194 534.139 757.962 534.352 758.773 534.352C759.605 534.352 760.383 534.149 761.109 533.744C761.834 533.317 762.41 532.72 762.837 531.952C763.263 531.163 763.477 530.224 763.477 529.136ZM777.58 523.952V532.528C777.58 533.125 777.719 533.563 777.996 533.84C778.295 534.096 778.786 534.224 779.468 534.224H781.548V538H778.732C774.956 538 773.068 536.165 773.068 532.496V523.952H770.956V520.272H773.068V515.888H777.58V520.272H781.548V523.952H777.58ZM801.251 528.752C801.251 529.392 801.208 529.968 801.123 530.48H788.163C788.269 531.76 788.717 532.763 789.507 533.488C790.296 534.213 791.267 534.576 792.419 534.576C794.083 534.576 795.267 533.861 795.971 532.432H800.803C800.291 534.139 799.309 535.547 797.859 536.656C796.408 537.744 794.627 538.288 792.515 538.288C790.808 538.288 789.272 537.915 787.907 537.168C786.563 536.4 785.507 535.323 784.739 533.936C783.992 532.549 783.618 530.949 783.618 529.136C783.618 527.301 783.992 525.691 784.739 524.304C785.485 522.917 786.531 521.851 787.875 521.104C789.219 520.357 790.765 519.984 792.515 519.984C794.2 519.984 795.704 520.347 797.027 521.072C798.371 521.797 799.405 522.832 800.131 524.176C800.877 525.499 801.251 527.024 801.251 528.752ZM796.611 527.472C796.589 526.32 796.173 525.403 795.363 524.72C794.552 524.016 793.56 523.664 792.387 523.664C791.277 523.664 790.339 524.005 789.571 524.688C788.824 525.349 788.365 526.277 788.195 527.472H796.611ZM829.106 520.272L818.13 546.384H813.362L817.202 537.552L810.098 520.272H815.122L819.698 532.656L824.338 520.272H829.106ZM839.393 538.288C837.686 538.288 836.15 537.915 834.785 537.168C833.419 536.4 832.342 535.323 831.553 533.936C830.785 532.549 830.401 530.949 830.401 529.136C830.401 527.323 830.795 525.723 831.585 524.336C832.395 522.949 833.494 521.883 834.881 521.136C836.267 520.368 837.814 519.984 839.521 519.984C841.227 519.984 842.774 520.368 844.161 521.136C845.547 521.883 846.635 522.949 847.425 524.336C848.235 525.723 848.641 527.323 848.641 529.136C848.641 530.949 848.225 532.549 847.392 533.936C846.582 535.323 845.473 536.4 844.065 537.168C842.678 537.915 841.121 538.288 839.393 538.288ZM839.393 534.384C840.203 534.384 840.961 534.192 841.665 533.808C842.39 533.403 842.966 532.805 843.393 532.016C843.819 531.227 844.033 530.267 844.033 529.136C844.033 527.451 843.585 526.16 842.689 525.264C841.814 524.347 840.737 523.888 839.457 523.888C838.177 523.888 837.099 524.347 836.225 525.264C835.371 526.16 834.945 527.451 834.945 529.136C834.945 530.821 835.361 532.123 836.193 533.04C837.046 533.936 838.113 534.384 839.393 534.384ZM868.663 520.272V538H864.151V535.76C863.575 536.528 862.817 537.136 861.879 537.584C860.961 538.011 859.959 538.224 858.871 538.224C857.484 538.224 856.257 537.936 855.191 537.36C854.124 536.763 853.281 535.899 852.663 534.768C852.065 533.616 851.767 532.251 851.767 530.672V520.272H856.247V530.032C856.247 531.44 856.599 532.528 857.303 533.296C858.007 534.043 858.967 534.416 860.183 534.416C861.42 534.416 862.391 534.043 863.095 533.296C863.799 532.528 864.151 531.44 864.151 530.032V520.272H868.663ZM877.563 523.024C878.139 522.085 878.886 521.349 879.803 520.816C880.742 520.283 881.808 520.016 883.003 520.016V524.72H881.819C880.411 524.72 879.344 525.051 878.619 525.712C877.915 526.373 877.563 527.525 877.563 529.168V538H873.083V520.272H877.563V523.024ZM906.318 526.544C907.576 526.779 908.611 527.408 909.422 528.432C910.232 529.456 910.638 530.629 910.638 531.952C910.638 533.147 910.339 534.203 909.742 535.12C909.166 536.016 908.323 536.72 907.214 537.232C906.104 537.744 904.792 538 903.278 538H893.646V515.664H902.862C904.376 515.664 905.678 515.909 906.766 516.4C907.875 516.891 908.707 517.573 909.262 518.448C909.838 519.323 910.126 520.315 910.126 521.424C910.126 522.725 909.774 523.813 909.069 524.688C908.387 525.563 907.47 526.181 906.318 526.544ZM898.126 524.88H902.222C903.288 524.88 904.11 524.645 904.686 524.176C905.262 523.685 905.55 522.992 905.55 522.096C905.55 521.2 905.262 520.507 904.686 520.016C904.11 519.525 903.288 519.28 902.222 519.28H898.126V524.88ZM902.638 534.352C903.726 534.352 904.568 534.096 905.166 533.584C905.784 533.072 906.094 532.347 906.094 531.408C906.094 530.448 905.774 529.701 905.134 529.168C904.494 528.613 903.63 528.336 902.542 528.336H898.126V534.352H902.638ZM930.944 520.272V538H926.432V535.76C925.856 536.528 925.099 537.136 924.16 537.584C923.243 538.011 922.24 538.224 921.152 538.224C919.765 538.224 918.539 537.936 917.472 537.36C916.405 536.763 915.563 535.899 914.944 534.768C914.347 533.616 914.048 532.251 914.048 530.672V520.272H918.528V530.032C918.528 531.44 918.88 532.528 919.584 533.296C920.288 534.043 921.248 534.416 922.464 534.416C923.701 534.416 924.672 534.043 925.376 533.296C926.08 532.528 926.432 531.44 926.432 530.032V520.272H930.944ZM934.212 529.072C934.212 527.28 934.564 525.691 935.268 524.304C935.994 522.917 936.975 521.851 938.212 521.104C939.45 520.357 940.826 519.984 942.34 519.984C943.492 519.984 944.591 520.24 945.636 520.752C946.682 521.243 947.514 521.904 948.132 522.736V514.32H952.676V538H948.132V535.376C947.578 536.251 946.799 536.955 945.796 537.488C944.794 538.021 943.631 538.288 942.308 538.288C940.815 538.288 939.45 537.904 938.212 537.136C936.975 536.368 935.994 535.291 935.268 533.904C934.564 532.496 934.212 530.885 934.212 529.072ZM948.164 529.136C948.164 528.048 947.951 527.12 947.524 526.352C947.098 525.563 946.522 524.965 945.796 524.56C945.071 524.133 944.292 523.92 943.46 523.92C942.628 523.92 941.86 524.123 941.156 524.528C940.452 524.933 939.876 525.531 939.428 526.32C939.002 527.088 938.788 528.005 938.788 529.072C938.788 530.139 939.002 531.077 939.428 531.888C939.876 532.677 940.452 533.285 941.156 533.712C941.882 534.139 942.65 534.352 943.46 534.352C944.292 534.352 945.071 534.149 945.796 533.744C946.522 533.317 947.098 532.72 947.524 531.952C947.951 531.163 948.164 530.224 948.164 529.136ZM963.996 519.984C965.318 519.984 966.481 520.251 967.484 520.784C968.486 521.296 969.276 521.968 969.852 522.8V520.272H974.364V538.128C974.364 539.771 974.033 541.232 973.372 542.512C972.71 543.813 971.718 544.837 970.396 545.584C969.073 546.352 967.473 546.736 965.596 546.736C963.078 546.736 961.009 546.149 959.388 544.976C957.788 543.803 956.881 542.203 956.668 540.176H961.116C961.35 540.987 961.852 541.627 962.62 542.096C963.409 542.587 964.358 542.832 965.468 542.832C966.769 542.832 967.825 542.437 968.636 541.648C969.446 540.88 969.852 539.707 969.852 538.128V535.376C969.276 536.208 968.476 536.901 967.452 537.456C966.449 538.011 965.297 538.288 963.996 538.288C962.502 538.288 961.137 537.904 959.9 537.136C958.662 536.368 957.681 535.291 956.956 533.904C956.252 532.496 955.9 530.885 955.9 529.072C955.9 527.28 956.252 525.691 956.956 524.304C957.681 522.917 958.652 521.851 959.868 521.104C961.105 520.357 962.481 519.984 963.996 519.984ZM969.852 529.136C969.852 528.048 969.638 527.12 969.212 526.352C968.785 525.563 968.209 524.965 967.484 524.56C966.758 524.133 965.98 523.92 965.148 523.92C964.316 523.92 963.548 524.123 962.844 524.528C962.14 524.933 961.564 525.531 961.116 526.32C960.689 527.088 960.476 528.005 960.476 529.072C960.476 530.139 960.689 531.077 961.116 531.888C961.564 532.677 962.14 533.285 962.844 533.712C963.569 534.139 964.337 534.352 965.148 534.352C965.98 534.352 966.758 534.149 967.484 533.744C968.209 533.317 968.785 532.72 969.212 531.952C969.638 531.163 969.852 530.224 969.852 529.136ZM995.219 528.752C995.219 529.392 995.177 529.968 995.091 530.48H982.131C982.238 531.76 982.686 532.763 983.475 533.488C984.265 534.213 985.235 534.576 986.387 534.576C988.051 534.576 989.235 533.861 989.939 532.432H994.771C994.259 534.139 993.278 535.547 991.827 536.656C990.377 537.744 988.595 538.288 986.483 538.288C984.777 538.288 983.241 537.915 981.875 537.168C980.531 536.4 979.475 535.323 978.707 533.936C977.961 532.549 977.587 530.949 977.587 529.136C977.587 527.301 977.961 525.691 978.707 524.304C979.454 522.917 980.499 521.851 981.843 521.104C983.187 520.357 984.734 519.984 986.483 519.984C988.169 519.984 989.673 520.347 990.995 521.072C992.339 521.797 993.374 522.832 994.099 524.176C994.846 525.499 995.219 527.024 995.219 528.752ZM990.579 527.472C990.558 526.32 990.142 525.403 989.331 524.72C988.521 524.016 987.529 523.664 986.355 523.664C985.246 523.664 984.307 524.005 983.539 524.688C982.793 525.349 982.334 526.277 982.163 527.472H990.579ZM1003.71 523.952V532.528C1003.71 533.125 1003.84 533.563 1004.12 533.84C1004.42 534.096 1004.91 534.224 1005.59 534.224H1007.67V538H1004.86C1001.08 538 999.193 536.165 999.193 532.496V523.952H997.081V520.272H999.193V515.888H1003.71V520.272H1007.67V523.952H1003.71Z" fill="#D3D3D3"/>
<path d="M602.68 584.77V598.61H600.86V588.29L596.26 598.61H594.98L590.36 588.27V598.61H588.54V584.77H590.5L595.62 596.21L600.74 584.77H602.68ZM610.547 598.79C609.52 598.79 608.587 598.557 607.747 598.09C606.92 597.624 606.267 596.964 605.787 596.11C605.32 595.244 605.087 594.244 605.087 593.11C605.087 591.99 605.327 591.004 605.807 590.15C606.3 589.284 606.967 588.624 607.807 588.17C608.647 587.704 609.587 587.47 610.627 587.47C611.667 587.47 612.607 587.704 613.447 588.17C614.287 588.624 614.947 589.277 615.427 590.13C615.92 590.984 616.167 591.977 616.167 593.11C616.167 594.244 615.913 595.244 615.407 596.11C614.913 596.964 614.24 597.624 613.387 598.09C612.533 598.557 611.587 598.79 610.547 598.79ZM610.547 597.19C611.2 597.19 611.813 597.037 612.387 596.73C612.96 596.424 613.42 595.964 613.767 595.35C614.127 594.737 614.307 593.99 614.307 593.11C614.307 592.23 614.133 591.484 613.787 590.87C613.44 590.257 612.987 589.804 612.427 589.51C611.867 589.204 611.26 589.05 610.607 589.05C609.94 589.05 609.327 589.204 608.767 589.51C608.22 589.804 607.78 590.257 607.447 590.87C607.113 591.484 606.947 592.23 606.947 593.11C606.947 594.004 607.107 594.757 607.427 595.37C607.76 595.984 608.2 596.444 608.747 596.75C609.293 597.044 609.893 597.19 610.547 597.19ZM623.9 587.45C625.233 587.45 626.313 587.857 627.14 588.67C627.966 589.47 628.38 590.63 628.38 592.15V598.61H626.58V592.41C626.58 591.317 626.306 590.484 625.76 589.91C625.213 589.324 624.466 589.03 623.52 589.03C622.56 589.03 621.793 589.33 621.22 589.93C620.66 590.53 620.38 591.404 620.38 592.55V598.61H618.56V587.65H620.38V589.21C620.74 588.65 621.226 588.217 621.84 587.91C622.466 587.604 623.153 587.45 623.9 587.45ZM633.573 589.15V595.61C633.573 596.144 633.686 596.524 633.913 596.75C634.139 596.964 634.533 597.07 635.092 597.07H636.433V598.61H634.793C633.779 598.61 633.019 598.377 632.513 597.91C632.006 597.444 631.753 596.677 631.753 595.61V589.15H630.333V587.65H631.753V584.89H633.573V587.65H636.433V589.15H633.573ZM644.078 587.45C644.904 587.45 645.651 587.63 646.318 587.99C646.984 588.337 647.504 588.864 647.878 589.57C648.264 590.277 648.458 591.137 648.458 592.15V598.61H646.658V592.41C646.658 591.317 646.384 590.484 645.838 589.91C645.291 589.324 644.544 589.03 643.598 589.03C642.638 589.03 641.871 589.33 641.298 589.93C640.738 590.53 640.458 591.404 640.458 592.55V598.61H638.638V583.81H640.458V589.21C640.818 588.65 641.311 588.217 641.938 587.91C642.578 587.604 643.291 587.45 644.078 587.45ZM653.251 583.81V598.61H651.431V583.81H653.251ZM665.793 587.65L659.193 603.77H657.312L659.473 598.49L655.053 587.65H657.073L660.513 596.53L663.913 587.65H665.793ZM674.774 584.67V598.61H672.954V584.67H674.774ZM683.216 587.45C684.549 587.45 685.629 587.857 686.456 588.67C687.283 589.47 687.696 590.63 687.696 592.15V598.61H685.896V592.41C685.896 591.317 685.623 590.484 685.076 589.91C684.529 589.324 683.783 589.03 682.836 589.03C681.876 589.03 681.109 589.33 680.536 589.93C679.976 590.53 679.696 591.404 679.696 592.55V598.61H677.876V587.65H679.696V589.21C680.056 588.65 680.543 588.217 681.156 587.91C681.783 587.604 682.469 587.45 683.216 587.45ZM689.989 593.11C689.989 591.977 690.216 590.99 690.669 590.15C691.122 589.297 691.749 588.637 692.549 588.17C693.362 587.704 694.289 587.47 695.329 587.47C696.676 587.47 697.782 587.797 698.649 588.45C699.529 589.104 700.109 590.01 700.389 591.17H698.429C698.242 590.504 697.876 589.977 697.329 589.59C696.796 589.204 696.129 589.01 695.329 589.01C694.289 589.01 693.449 589.37 692.809 590.09C692.169 590.797 691.849 591.804 691.849 593.11C691.849 594.43 692.169 595.45 692.809 596.17C693.449 596.89 694.289 597.25 695.329 597.25C696.129 597.25 696.796 597.064 697.329 596.69C697.862 596.317 698.229 595.784 698.429 595.09H700.389C700.096 596.21 699.509 597.11 698.629 597.79C697.749 598.457 696.649 598.79 695.329 598.79C694.289 598.79 693.362 598.557 692.549 598.09C691.749 597.624 691.122 596.964 690.669 596.11C690.216 595.257 689.989 594.257 689.989 593.11ZM707.597 598.79C706.571 598.79 705.637 598.557 704.797 598.09C703.971 597.624 703.317 596.964 702.837 596.11C702.371 595.244 702.137 594.244 702.137 593.11C702.137 591.99 702.377 591.004 702.857 590.15C703.351 589.284 704.017 588.624 704.857 588.17C705.697 587.704 706.637 587.47 707.677 587.47C708.717 587.47 709.657 587.704 710.497 588.17C711.337 588.624 711.997 589.277 712.477 590.13C712.971 590.984 713.217 591.977 713.217 593.11C713.217 594.244 712.964 595.244 712.457 596.11C711.964 596.964 711.291 597.624 710.437 598.09C709.584 598.557 708.637 598.79 707.597 598.79ZM707.597 597.19C708.251 597.19 708.864 597.037 709.437 596.73C710.011 596.424 710.471 595.964 710.817 595.35C711.177 594.737 711.357 593.99 711.357 593.11C711.357 592.23 711.184 591.484 710.837 590.87C710.491 590.257 710.037 589.804 709.477 589.51C708.917 589.204 708.311 589.05 707.657 589.05C706.991 589.05 706.377 589.204 705.817 589.51C705.271 589.804 704.831 590.257 704.497 590.87C704.164 591.484 703.997 592.23 703.997 593.11C703.997 594.004 704.157 594.757 704.477 595.37C704.811 595.984 705.251 596.444 705.797 596.75C706.344 597.044 706.944 597.19 707.597 597.19ZM728.79 587.45C729.644 587.45 730.404 587.63 731.07 587.99C731.737 588.337 732.264 588.864 732.65 589.57C733.037 590.277 733.23 591.137 733.23 592.15V598.61H731.43V592.41C731.43 591.317 731.157 590.484 730.61 589.91C730.077 589.324 729.35 589.03 728.43 589.03C727.484 589.03 726.73 589.337 726.17 589.95C725.61 590.55 725.33 591.424 725.33 592.57V598.61H723.53V592.41C723.53 591.317 723.257 590.484 722.71 589.91C722.177 589.324 721.45 589.03 720.53 589.03C719.584 589.03 718.83 589.337 718.27 589.95C717.71 590.55 717.43 591.424 717.43 592.57V598.61H715.61V587.65H717.43V589.23C717.79 588.657 718.27 588.217 718.87 587.91C719.484 587.604 720.157 587.45 720.89 587.45C721.81 587.45 722.624 587.657 723.33 588.07C724.037 588.484 724.564 589.09 724.91 589.89C725.217 589.117 725.724 588.517 726.43 588.09C727.137 587.664 727.924 587.45 728.79 587.45ZM746.216 592.71C746.216 593.057 746.196 593.424 746.156 593.81H737.396C737.462 594.89 737.829 595.737 738.496 596.35C739.176 596.95 739.996 597.25 740.956 597.25C741.742 597.25 742.396 597.07 742.916 596.71C743.449 596.337 743.822 595.844 744.036 595.23H745.996C745.702 596.284 745.116 597.144 744.236 597.81C743.356 598.464 742.262 598.79 740.956 598.79C739.916 598.79 738.982 598.557 738.156 598.09C737.342 597.624 736.702 596.964 736.236 596.11C735.769 595.244 735.536 594.244 735.536 593.11C735.536 591.977 735.762 590.984 736.216 590.13C736.669 589.277 737.302 588.624 738.116 588.17C738.942 587.704 739.889 587.47 740.956 587.47C741.996 587.47 742.916 587.697 743.716 588.15C744.516 588.604 745.129 589.23 745.556 590.03C745.996 590.817 746.216 591.71 746.216 592.71ZM744.336 592.33C744.336 591.637 744.182 591.044 743.876 590.55C743.569 590.044 743.149 589.664 742.616 589.41C742.096 589.144 741.516 589.01 740.876 589.01C739.956 589.01 739.169 589.304 738.516 589.89C737.876 590.477 737.509 591.29 737.416 592.33H744.336Z" fill="#D3D3D3"/>
<g filter="url(#filter2_d_513_35)">
<rect x="588" y="614.906" width="508" height="61.7956" rx="4" stroke="#D3D3D3" stroke-width="2" shape-rendering="crispEdges"/>
</g>
<path d="M624.54 649.753C624.54 650.393 624.38 651.006 624.06 651.593C623.74 652.166 623.267 652.646 622.64 653.033C622.027 653.42 621.287 653.64 620.42 653.693V655.313H619.34V653.693C618.127 653.586 617.14 653.2 616.38 652.533C615.62 651.853 615.233 650.993 615.22 649.953H617.16C617.213 650.513 617.42 651 617.78 651.413C618.153 651.826 618.673 652.086 619.34 652.193V647.193C618.447 646.966 617.727 646.733 617.18 646.493C616.633 646.253 616.167 645.88 615.78 645.373C615.393 644.866 615.2 644.186 615.2 643.333C615.2 642.253 615.573 641.36 616.32 640.653C617.08 639.946 618.087 639.553 619.34 639.473V637.813H620.42V639.473C621.553 639.566 622.467 639.933 623.16 640.573C623.853 641.2 624.253 642.02 624.36 643.033H622.42C622.353 642.566 622.147 642.146 621.8 641.773C621.453 641.386 620.993 641.133 620.42 641.013V645.893C621.3 646.12 622.013 646.353 622.56 646.593C623.12 646.82 623.587 647.186 623.96 647.693C624.347 648.2 624.54 648.886 624.54 649.753ZM617.06 643.233C617.06 643.886 617.253 644.386 617.64 644.733C618.027 645.08 618.593 645.366 619.34 645.593V640.973C618.647 641.04 618.093 641.266 617.68 641.653C617.267 642.026 617.06 642.553 617.06 643.233ZM620.42 652.213C621.14 652.133 621.7 651.873 622.1 651.433C622.513 650.993 622.72 650.466 622.72 649.853C622.72 649.2 622.52 648.7 622.12 648.353C621.72 647.993 621.153 647.706 620.42 647.493V652.213ZM627.201 640.773V639.113H630.961V653.573H629.121V640.773H627.201ZM634.088 646.193C634.088 643.9 634.461 642.113 635.208 640.833C635.954 639.54 637.261 638.893 639.128 638.893C640.981 638.893 642.281 639.54 643.028 640.833C643.774 642.113 644.148 643.9 644.148 646.193C644.148 648.526 643.774 650.34 643.028 651.633C642.281 652.926 640.981 653.573 639.128 653.573C637.261 653.573 635.954 652.926 635.208 651.633C634.461 650.34 634.088 648.526 634.088 646.193ZM642.348 646.193C642.348 645.033 642.268 644.053 642.108 643.253C641.961 642.44 641.648 641.786 641.168 641.293C640.701 640.8 640.021 640.553 639.128 640.553C638.221 640.553 637.528 640.8 637.048 641.293C636.581 641.786 636.268 642.44 636.108 643.253C635.961 644.053 635.888 645.033 635.888 646.193C635.888 647.393 635.961 648.4 636.108 649.213C636.268 650.026 636.581 650.68 637.048 651.173C637.528 651.666 638.221 651.913 639.128 651.913C640.021 651.913 640.701 651.666 641.168 651.173C641.648 650.68 641.961 650.026 642.108 649.213C642.268 648.4 642.348 647.393 642.348 646.193ZM646.646 646.193C646.646 643.9 647.02 642.113 647.766 640.833C648.513 639.54 649.82 638.893 651.686 638.893C653.54 638.893 654.84 639.54 655.586 640.833C656.333 642.113 656.706 643.9 656.706 646.193C656.706 648.526 656.333 650.34 655.586 651.633C654.84 652.926 653.54 653.573 651.686 653.573C649.82 653.573 648.513 652.926 647.766 651.633C647.02 650.34 646.646 648.526 646.646 646.193ZM654.906 646.193C654.906 645.033 654.826 644.053 654.666 643.253C654.52 642.44 654.206 641.786 653.726 641.293C653.26 640.8 652.58 640.553 651.686 640.553C650.78 640.553 650.086 640.8 649.606 641.293C649.14 641.786 648.826 642.44 648.666 643.253C648.52 644.053 648.446 645.033 648.446 646.193C648.446 647.393 648.52 648.4 648.666 649.213C648.826 650.026 649.14 650.68 649.606 651.173C650.086 651.666 650.78 651.913 651.686 651.913C652.58 651.913 653.26 651.666 653.726 651.173C654.206 650.68 654.52 650.026 654.666 649.213C654.826 648.4 654.906 647.393 654.906 646.193ZM659.205 646.193C659.205 643.9 659.578 642.113 660.325 640.833C661.072 639.54 662.378 638.893 664.245 638.893C666.098 638.893 667.398 639.54 668.145 640.833C668.892 642.113 669.265 643.9 669.265 646.193C669.265 648.526 668.892 650.34 668.145 651.633C667.398 652.926 666.098 653.573 664.245 653.573C662.378 653.573 661.072 652.926 660.325 651.633C659.578 650.34 659.205 648.526 659.205 646.193ZM667.465 646.193C667.465 645.033 667.385 644.053 667.225 643.253C667.078 642.44 666.765 641.786 666.285 641.293C665.818 640.8 665.138 640.553 664.245 640.553C663.338 640.553 662.645 640.8 662.165 641.293C661.698 641.786 661.385 642.44 661.225 643.253C661.078 644.053 661.005 645.033 661.005 646.193C661.005 647.393 661.078 648.4 661.225 649.213C661.385 650.026 661.698 650.68 662.165 651.173C662.645 651.666 663.338 651.913 664.245 651.913C665.138 651.913 665.818 651.666 666.285 651.173C666.765 650.68 667.078 650.026 667.225 649.213C667.385 648.4 667.465 647.393 667.465 646.193Z" fill="#D3D3D3"/>
<path d="M590.36 721.593V726.253H595.44V727.753H590.36V732.553H596.04V734.053H588.54V720.093H596.04V721.593H590.36ZM604.514 734.053L601.914 729.973L599.414 734.053H597.514L601.054 728.613L597.514 723.093H599.574L602.174 727.153L604.654 723.093H606.554L603.034 728.513L606.574 734.053H604.514ZM610.184 725.113C610.544 724.487 611.078 723.967 611.784 723.553C612.504 723.127 613.338 722.913 614.284 722.913C615.258 722.913 616.138 723.147 616.924 723.613C617.724 724.08 618.351 724.74 618.804 725.593C619.258 726.433 619.484 727.413 619.484 728.533C619.484 729.64 619.258 730.627 618.804 731.493C618.351 732.36 617.724 733.033 616.924 733.513C616.138 733.993 615.258 734.233 614.284 734.233C613.351 734.233 612.524 734.027 611.804 733.613C611.098 733.187 610.558 732.66 610.184 732.033V739.253H608.364V723.093H610.184V725.113ZM617.624 728.533C617.624 727.707 617.458 726.987 617.124 726.373C616.791 725.76 616.338 725.293 615.764 724.973C615.204 724.653 614.584 724.493 613.904 724.493C613.238 724.493 612.618 724.66 612.044 724.993C611.484 725.313 611.031 725.787 610.684 726.413C610.351 727.027 610.184 727.74 610.184 728.553C610.184 729.38 610.351 730.107 610.684 730.733C611.031 731.347 611.484 731.82 612.044 732.153C612.618 732.473 613.238 732.633 613.904 732.633C614.584 732.633 615.204 732.473 615.764 732.153C616.338 731.82 616.791 731.347 617.124 730.733C617.458 730.107 617.624 729.373 617.624 728.533ZM631.88 728.153C631.88 728.5 631.86 728.867 631.82 729.253H623.06C623.127 730.333 623.493 731.18 624.16 731.793C624.84 732.393 625.66 732.693 626.62 732.693C627.407 732.693 628.06 732.513 628.58 732.153C629.113 731.78 629.487 731.287 629.7 730.673H631.66C631.367 731.727 630.78 732.587 629.9 733.253C629.02 733.907 627.927 734.233 626.62 734.233C625.58 734.233 624.647 734 623.82 733.533C623.007 733.067 622.367 732.407 621.9 731.553C621.433 730.687 621.2 729.687 621.2 728.553C621.2 727.42 621.427 726.427 621.88 725.573C622.333 724.72 622.967 724.067 623.78 723.613C624.607 723.147 625.553 722.913 626.62 722.913C627.66 722.913 628.58 723.14 629.38 723.593C630.18 724.047 630.793 724.673 631.22 725.473C631.66 726.26 631.88 727.153 631.88 728.153ZM630 727.773C630 727.08 629.847 726.487 629.54 725.993C629.233 725.487 628.813 725.107 628.28 724.853C627.76 724.587 627.18 724.453 626.54 724.453C625.62 724.453 624.833 724.747 624.18 725.333C623.54 725.92 623.173 726.733 623.08 727.773H630ZM639.622 722.893C640.956 722.893 642.036 723.3 642.862 724.113C643.689 724.913 644.102 726.073 644.102 727.593V734.053H642.302V727.853C642.302 726.76 642.029 725.927 641.482 725.353C640.936 724.767 640.189 724.473 639.242 724.473C638.282 724.473 637.516 724.773 636.942 725.373C636.382 725.973 636.102 726.847 636.102 727.993V734.053H634.282V723.093H636.102V724.653C636.462 724.093 636.949 723.66 637.562 723.353C638.189 723.047 638.876 722.893 639.622 722.893ZM650.955 734.233C650.115 734.233 649.362 734.093 648.695 733.813C648.028 733.52 647.502 733.12 647.115 732.613C646.728 732.093 646.515 731.5 646.475 730.833H648.355C648.408 731.38 648.662 731.827 649.115 732.173C649.582 732.52 650.188 732.693 650.935 732.693C651.628 732.693 652.175 732.54 652.575 732.233C652.975 731.927 653.175 731.54 653.175 731.073C653.175 730.593 652.962 730.24 652.535 730.013C652.108 729.773 651.448 729.54 650.555 729.313C649.742 729.1 649.075 728.887 648.555 728.673C648.048 728.447 647.608 728.12 647.235 727.693C646.875 727.253 646.695 726.68 646.695 725.973C646.695 725.413 646.862 724.9 647.195 724.433C647.528 723.967 648.002 723.6 648.615 723.333C649.228 723.053 649.928 722.913 650.715 722.913C651.928 722.913 652.908 723.22 653.655 723.833C654.402 724.447 654.802 725.287 654.855 726.353H653.035C652.995 725.78 652.762 725.32 652.335 724.973C651.922 724.627 651.362 724.453 650.655 724.453C650.002 724.453 649.482 724.593 649.095 724.873C648.708 725.153 648.515 725.52 648.515 725.973C648.515 726.333 648.628 726.633 648.855 726.873C649.095 727.1 649.388 727.287 649.735 727.433C650.095 727.567 650.588 727.72 651.215 727.893C652.002 728.107 652.642 728.32 653.135 728.533C653.628 728.733 654.048 729.04 654.395 729.453C654.755 729.867 654.942 730.407 654.955 731.073C654.955 731.673 654.788 732.213 654.455 732.693C654.122 733.173 653.648 733.553 653.035 733.833C652.435 734.1 651.742 734.233 650.955 734.233ZM667.524 728.153C667.524 728.5 667.504 728.867 667.464 729.253H658.704C658.771 730.333 659.138 731.18 659.804 731.793C660.484 732.393 661.304 732.693 662.264 732.693C663.051 732.693 663.704 732.513 664.224 732.153C664.758 731.78 665.131 731.287 665.344 730.673H667.304C667.011 731.727 666.424 732.587 665.544 733.253C664.664 733.907 663.571 734.233 662.264 734.233C661.224 734.233 660.291 734 659.464 733.533C658.651 733.067 658.011 732.407 657.544 731.553C657.078 730.687 656.844 729.687 656.844 728.553C656.844 727.42 657.071 726.427 657.524 725.573C657.978 724.72 658.611 724.067 659.424 723.613C660.251 723.147 661.198 722.913 662.264 722.913C663.304 722.913 664.224 723.14 665.024 723.593C665.824 724.047 666.438 724.673 666.864 725.473C667.304 726.26 667.524 727.153 667.524 728.153ZM665.644 727.773C665.644 727.08 665.491 726.487 665.184 725.993C664.878 725.487 664.458 725.107 663.924 724.853C663.404 724.587 662.824 724.453 662.184 724.453C661.264 724.453 660.478 724.747 659.824 725.333C659.184 725.92 658.818 726.733 658.724 727.773H665.644ZM673.807 734.233C672.967 734.233 672.213 734.093 671.547 733.813C670.88 733.52 670.353 733.12 669.967 732.613C669.58 732.093 669.367 731.5 669.327 730.833H671.207C671.26 731.38 671.513 731.827 671.967 732.173C672.433 732.52 673.04 732.693 673.787 732.693C674.48 732.693 675.027 732.54 675.427 732.233C675.827 731.927 676.027 731.54 676.027 731.073C676.027 730.593 675.813 730.24 675.387 730.013C674.96 729.773 674.3 729.54 673.407 729.313C672.593 729.1 671.927 728.887 671.407 728.673C670.9 728.447 670.46 728.12 670.087 727.693C669.727 727.253 669.547 726.68 669.547 725.973C669.547 725.413 669.713 724.9 670.047 724.433C670.38 723.967 670.853 723.6 671.467 723.333C672.08 723.053 672.78 722.913 673.567 722.913C674.78 722.913 675.76 723.22 676.507 723.833C677.253 724.447 677.653 725.287 677.707 726.353H675.887C675.847 725.78 675.613 725.32 675.187 724.973C674.773 724.627 674.213 724.453 673.507 724.453C672.853 724.453 672.333 724.593 671.947 724.873C671.56 725.153 671.367 725.52 671.367 725.973C671.367 726.333 671.48 726.633 671.707 726.873C671.947 727.1 672.24 727.287 672.587 727.433C672.947 727.567 673.44 727.72 674.067 727.893C674.853 728.107 675.493 728.32 675.987 728.533C676.48 728.733 676.9 729.04 677.247 729.453C677.607 729.867 677.793 730.407 677.807 731.073C677.807 731.673 677.64 732.213 677.307 732.693C676.973 733.173 676.5 733.553 675.887 733.833C675.287 734.1 674.593 734.233 673.807 734.233Z" fill="#D3D3D3"/>
<g filter="url(#filter3_d_513_35)">
<rect x="588" y="750" width="508" height="118" rx="4" stroke="#D3D3D3" stroke-width="2" shape-rendering="crispEdges"/>
</g>
<path d="M628.087 776.556V781.216H633.167V782.716H628.087V787.516H633.767V789.016H626.267V775.056H633.767V776.556H628.087ZM638.34 774.216V789.016H636.52V774.216H638.34ZM651.442 783.116C651.442 783.463 651.422 783.829 651.382 784.216H642.622C642.689 785.296 643.056 786.143 643.722 786.756C644.402 787.356 645.222 787.656 646.182 787.656C646.969 787.656 647.622 787.476 648.142 787.116C648.676 786.743 649.049 786.249 649.262 785.636H651.222C650.929 786.689 650.342 787.549 649.462 788.216C648.582 788.869 647.489 789.196 646.182 789.196C645.142 789.196 644.209 788.963 643.382 788.496C642.569 788.029 641.929 787.369 641.462 786.516C640.996 785.649 640.762 784.649 640.762 783.516C640.762 782.383 640.989 781.389 641.442 780.536C641.896 779.683 642.529 779.029 643.342 778.576C644.169 778.109 645.116 777.876 646.182 777.876C647.222 777.876 648.142 778.103 648.942 778.556C649.742 779.009 650.356 779.636 650.782 780.436C651.222 781.223 651.442 782.116 651.442 783.116ZM649.562 782.736C649.562 782.043 649.409 781.449 649.102 780.956C648.796 780.449 648.376 780.069 647.842 779.816C647.322 779.549 646.742 779.416 646.102 779.416C645.182 779.416 644.396 779.709 643.742 780.296C643.102 780.883 642.736 781.696 642.642 782.736H649.562ZM653.165 783.516C653.165 782.383 653.391 781.396 653.845 780.556C654.298 779.703 654.925 779.043 655.725 778.576C656.538 778.109 657.465 777.876 658.505 777.876C659.851 777.876 660.958 778.203 661.825 778.856C662.705 779.509 663.285 780.416 663.565 781.576H661.605C661.418 780.909 661.051 780.383 660.505 779.996C659.971 779.609 659.305 779.416 658.505 779.416C657.465 779.416 656.625 779.776 655.985 780.496C655.345 781.203 655.025 782.209 655.025 783.516C655.025 784.836 655.345 785.856 655.985 786.576C656.625 787.296 657.465 787.656 658.505 787.656C659.305 787.656 659.971 787.469 660.505 787.096C661.038 786.723 661.405 786.189 661.605 785.496H663.565C663.271 786.616 662.685 787.516 661.805 788.196C660.925 788.863 659.825 789.196 658.505 789.196C657.465 789.196 656.538 788.963 655.725 788.496C654.925 788.029 654.298 787.369 653.845 786.516C653.391 785.663 653.165 784.663 653.165 783.516ZM668.213 779.556V786.016C668.213 786.549 668.326 786.929 668.553 787.156C668.78 787.369 669.173 787.476 669.733 787.476H671.073V789.016H669.433C668.42 789.016 667.66 788.783 667.153 788.316C666.646 787.849 666.393 787.083 666.393 786.016V779.556H664.973V778.056H666.393V775.296H668.213V778.056H671.073V779.556H668.213ZM675.098 779.836C675.418 779.209 675.872 778.723 676.458 778.376C677.058 778.029 677.785 777.856 678.638 777.856V779.736H678.158C676.118 779.736 675.098 780.843 675.098 783.056V789.016H673.278V778.056H675.098V779.836ZM681.679 776.276C681.333 776.276 681.039 776.156 680.799 775.916C680.559 775.676 680.439 775.383 680.439 775.036C680.439 774.689 680.559 774.396 680.799 774.156C681.039 773.916 681.333 773.796 681.679 773.796C682.013 773.796 682.293 773.916 682.519 774.156C682.759 774.396 682.879 774.689 682.879 775.036C682.879 775.383 682.759 775.676 682.519 775.916C682.293 776.156 682.013 776.276 681.679 776.276ZM682.559 778.056V789.016H680.739V778.056H682.559ZM684.981 783.516C684.981 782.383 685.208 781.396 685.661 780.556C686.114 779.703 686.741 779.043 687.541 778.576C688.354 778.109 689.281 777.876 690.321 777.876C691.668 777.876 692.774 778.203 693.641 778.856C694.521 779.509 695.101 780.416 695.381 781.576H693.421C693.234 780.909 692.868 780.383 692.321 779.996C691.788 779.609 691.121 779.416 690.321 779.416C689.281 779.416 688.441 779.776 687.801 780.496C687.161 781.203 686.841 782.209 686.841 783.516C686.841 784.836 687.161 785.856 687.801 786.576C688.441 787.296 689.281 787.656 690.321 787.656C691.121 787.656 691.788 787.469 692.321 787.096C692.854 786.723 693.221 786.189 693.421 785.496H695.381C695.088 786.616 694.501 787.516 693.621 788.196C692.741 788.863 691.641 789.196 690.321 789.196C689.281 789.196 688.354 788.963 687.541 788.496C686.741 788.029 686.114 787.369 685.661 786.516C685.208 785.663 684.981 784.663 684.981 783.516ZM698.75 776.276C698.403 776.276 698.11 776.156 697.87 775.916C697.63 775.676 697.51 775.383 697.51 775.036C697.51 774.689 697.63 774.396 697.87 774.156C698.11 773.916 698.403 773.796 698.75 773.796C699.083 773.796 699.363 773.916 699.59 774.156C699.83 774.396 699.95 774.689 699.95 775.036C699.95 775.383 699.83 775.676 699.59 775.916C699.363 776.156 699.083 776.276 698.75 776.276ZM699.63 778.056V789.016H697.81V778.056H699.63ZM704.951 779.556V786.016C704.951 786.549 705.065 786.929 705.291 787.156C705.518 787.369 705.911 787.476 706.471 787.476H707.811V789.016H706.171C705.158 789.016 704.398 788.783 703.891 788.316C703.385 787.849 703.131 787.083 703.131 786.016V779.556H701.711V778.056H703.131V775.296H704.951V778.056H707.811V779.556H704.951ZM719.457 778.056L712.857 794.176H710.977L713.137 788.896L708.717 778.056H710.737L714.177 786.936L717.577 778.056H719.457ZM733.598 781.836C734.105 781.916 734.565 782.123 734.978 782.456C735.405 782.789 735.738 783.203 735.978 783.696C736.231 784.189 736.358 784.716 736.358 785.276C736.358 785.983 736.178 786.623 735.818 787.196C735.458 787.756 734.931 788.203 734.238 788.536C733.558 788.856 732.751 789.016 731.818 789.016H726.618V775.076H731.618C732.565 775.076 733.371 775.236 734.038 775.556C734.705 775.863 735.205 776.283 735.538 776.816C735.871 777.349 736.038 777.949 736.038 778.616C736.038 779.443 735.811 780.129 735.358 780.676C734.918 781.209 734.331 781.596 733.598 781.836ZM728.438 781.096H731.498C732.351 781.096 733.011 780.896 733.478 780.496C733.945 780.096 734.178 779.543 734.178 778.836C734.178 778.129 733.945 777.576 733.478 777.176C733.011 776.776 732.338 776.576 731.458 776.576H728.438V781.096ZM731.658 787.516C732.565 787.516 733.271 787.303 733.778 786.876C734.285 786.449 734.538 785.856 734.538 785.096C734.538 784.323 734.271 783.716 733.738 783.276C733.205 782.823 732.491 782.596 731.598 782.596H728.438V787.516H731.658ZM739.824 776.276C739.477 776.276 739.184 776.156 738.944 775.916C738.704 775.676 738.584 775.383 738.584 775.036C738.584 774.689 738.704 774.396 738.944 774.156C739.184 773.916 739.477 773.796 739.824 773.796C740.157 773.796 740.437 773.916 740.664 774.156C740.904 774.396 741.024 774.689 741.024 775.036C741.024 775.383 740.904 775.676 740.664 775.916C740.437 776.156 740.157 776.276 739.824 776.276ZM740.704 778.056V789.016H738.884V778.056H740.704ZM745.626 774.216V789.016H743.806V774.216H745.626ZM750.548 774.216V789.016H748.728V774.216H750.548ZM766.581 780.916V782.456H758.601V780.916H766.581ZM784.329 785.196C784.329 785.836 784.169 786.449 783.849 787.036C783.529 787.609 783.056 788.089 782.429 788.476C781.816 788.863 781.076 789.083 780.209 789.136V790.756H779.129V789.136C777.916 789.029 776.929 788.643 776.169 787.976C775.409 787.296 775.022 786.436 775.009 785.396H776.949C777.002 785.956 777.209 786.443 777.569 786.856C777.942 787.269 778.462 787.529 779.129 787.636V782.636C778.236 782.409 777.516 782.176 776.969 781.936C776.422 781.696 775.956 781.323 775.569 780.816C775.182 780.309 774.989 779.629 774.989 778.776C774.989 777.696 775.362 776.803 776.109 776.096C776.869 775.389 777.876 774.996 779.129 774.916V773.256H780.209V774.916C781.342 775.009 782.256 775.376 782.949 776.016C783.642 776.643 784.042 777.463 784.149 778.476H782.209C782.142 778.009 781.936 777.589 781.589 777.216C781.242 776.829 780.782 776.576 780.209 776.456V781.336C781.089 781.563 781.802 781.796 782.349 782.036C782.909 782.263 783.376 782.629 783.749 783.136C784.136 783.643 784.329 784.329 784.329 785.196ZM776.849 778.676C776.849 779.329 777.042 779.829 777.429 780.176C777.816 780.523 778.382 780.809 779.129 781.036V776.416C778.436 776.483 777.882 776.709 777.469 777.096C777.056 777.469 776.849 777.996 776.849 778.676ZM780.209 787.656C780.929 787.576 781.489 787.316 781.889 786.876C782.302 786.436 782.509 785.909 782.509 785.296C782.509 784.643 782.309 784.143 781.909 783.796C781.509 783.436 780.942 783.149 780.209 782.936V787.656ZM787.25 787.556C788.944 786.196 790.27 785.083 791.23 784.216C792.19 783.336 792.997 782.423 793.65 781.476C794.317 780.516 794.65 779.576 794.65 778.656C794.65 777.789 794.437 777.109 794.01 776.616C793.597 776.109 792.924 775.856 791.99 775.856C791.084 775.856 790.377 776.143 789.87 776.716C789.377 777.276 789.11 778.029 789.07 778.976H787.31C787.364 777.483 787.817 776.329 788.67 775.516C789.524 774.703 790.624 774.296 791.97 774.296C793.344 774.296 794.43 774.676 795.23 775.436C796.044 776.196 796.45 777.243 796.45 778.576C796.45 779.683 796.117 780.763 795.45 781.816C794.797 782.856 794.05 783.776 793.21 784.576C792.37 785.363 791.297 786.283 789.99 787.336H796.87V788.856H787.25V787.556ZM798.974 781.636C798.974 779.343 799.348 777.556 800.094 776.276C800.841 774.983 802.148 774.336 804.014 774.336C805.868 774.336 807.168 774.983 807.914 776.276C808.661 777.556 809.034 779.343 809.034 781.636C809.034 783.969 808.661 785.783 807.914 787.076C807.168 788.369 805.868 789.016 804.014 789.016C802.148 789.016 800.841 788.369 800.094 787.076C799.348 785.783 798.974 783.969 798.974 781.636ZM807.234 781.636C807.234 780.476 807.154 779.496 806.994 778.696C806.848 777.883 806.534 777.229 806.054 776.736C805.588 776.243 804.908 775.996 804.014 775.996C803.108 775.996 802.414 776.243 801.934 776.736C801.468 777.229 801.154 777.883 800.994 778.696C800.848 779.496 800.774 780.476 800.774 781.636C800.774 782.836 800.848 783.843 800.994 784.656C801.154 785.469 801.468 786.123 801.934 786.616C802.414 787.109 803.108 787.356 804.014 787.356C804.908 787.356 805.588 787.109 806.054 786.616C806.534 786.123 806.848 785.469 806.994 784.656C807.154 783.843 807.234 782.836 807.234 781.636ZM811.533 781.636C811.533 779.343 811.906 777.556 812.653 776.276C813.4 774.983 814.706 774.336 816.573 774.336C818.426 774.336 819.726 774.983 820.473 776.276C821.22 777.556 821.593 779.343 821.593 781.636C821.593 783.969 821.22 785.783 820.473 787.076C819.726 788.369 818.426 789.016 816.573 789.016C814.706 789.016 813.4 788.369 812.653 787.076C811.906 785.783 811.533 783.969 811.533 781.636ZM819.793 781.636C819.793 780.476 819.713 779.496 819.553 778.696C819.406 777.883 819.093 777.229 818.613 776.736C818.146 776.243 817.466 775.996 816.573 775.996C815.666 775.996 814.973 776.243 814.493 776.736C814.026 777.229 813.713 777.883 813.553 778.696C813.406 779.496 813.333 780.476 813.333 781.636C813.333 782.836 813.406 783.843 813.553 784.656C813.713 785.469 814.026 786.123 814.493 786.616C814.973 787.109 815.666 787.356 816.573 787.356C817.466 787.356 818.146 787.109 818.613 786.616C819.093 786.123 819.406 785.469 819.553 784.656C819.713 783.843 819.793 782.836 819.793 781.636Z" fill="#D3D3D3"/>
<path d="M634.42 817.06V818.54H628.36V823.24H633.28V824.72H628.36V831H626.54V817.06H634.42ZM641.398 831.18C640.371 831.18 639.438 830.947 638.598 830.48C637.771 830.013 637.118 829.353 636.638 828.5C636.171 827.633 635.938 826.633 635.938 825.5C635.938 824.38 636.178 823.393 636.658 822.54C637.151 821.673 637.818 821.013 638.658 820.56C639.498 820.093 640.438 819.86 641.478 819.86C642.518 819.86 643.458 820.093 644.298 820.56C645.138 821.013 645.798 821.667 646.278 822.52C646.771 823.373 647.018 824.367 647.018 825.5C647.018 826.633 646.765 827.633 646.258 828.5C645.765 829.353 645.091 830.013 644.238 830.48C643.385 830.947 642.438 831.18 641.398 831.18ZM641.398 829.58C642.051 829.58 642.665 829.427 643.238 829.12C643.811 828.813 644.271 828.353 644.618 827.74C644.978 827.127 645.158 826.38 645.158 825.5C645.158 824.62 644.985 823.873 644.638 823.26C644.291 822.647 643.838 822.193 643.278 821.9C642.718 821.593 642.111 821.44 641.458 821.44C640.791 821.44 640.178 821.593 639.618 821.9C639.071 822.193 638.631 822.647 638.298 823.26C637.965 823.873 637.798 824.62 637.798 825.5C637.798 826.393 637.958 827.147 638.278 827.76C638.611 828.373 639.051 828.833 639.598 829.14C640.145 829.433 640.745 829.58 641.398 829.58ZM654.191 831.18C653.164 831.18 652.231 830.947 651.391 830.48C650.564 830.013 649.911 829.353 649.431 828.5C648.964 827.633 648.731 826.633 648.731 825.5C648.731 824.38 648.971 823.393 649.451 822.54C649.944 821.673 650.611 821.013 651.451 820.56C652.291 820.093 653.231 819.86 654.271 819.86C655.311 819.86 656.251 820.093 657.091 820.56C657.931 821.013 658.591 821.667 659.071 822.52C659.564 823.373 659.811 824.367 659.811 825.5C659.811 826.633 659.558 827.633 659.051 828.5C658.558 829.353 657.884 830.013 657.031 830.48C656.178 830.947 655.231 831.18 654.191 831.18ZM654.191 829.58C654.844 829.58 655.458 829.427 656.031 829.12C656.604 828.813 657.064 828.353 657.411 827.74C657.771 827.127 657.951 826.38 657.951 825.5C657.951 824.62 657.778 823.873 657.431 823.26C657.084 822.647 656.631 822.193 656.071 821.9C655.511 821.593 654.904 821.44 654.251 821.44C653.584 821.44 652.971 821.593 652.411 821.9C651.864 822.193 651.424 822.647 651.091 823.26C650.758 823.873 650.591 824.62 650.591 825.5C650.591 826.393 650.751 827.147 651.071 827.76C651.404 828.373 651.844 828.833 652.391 829.14C652.938 829.433 653.538 829.58 654.191 829.58ZM661.524 825.48C661.524 824.36 661.751 823.38 662.204 822.54C662.657 821.687 663.277 821.027 664.064 820.56C664.864 820.093 665.757 819.86 666.744 819.86C667.597 819.86 668.391 820.06 669.124 820.46C669.857 820.847 670.417 821.36 670.804 822V816.2H672.644V831H670.804V828.94C670.444 829.593 669.911 830.133 669.204 830.56C668.497 830.973 667.671 831.18 666.724 831.18C665.751 831.18 664.864 830.94 664.064 830.46C663.277 829.98 662.657 829.307 662.204 828.44C661.751 827.573 661.524 826.587 661.524 825.48ZM670.804 825.5C670.804 824.673 670.637 823.953 670.304 823.34C669.971 822.727 669.517 822.26 668.944 821.94C668.384 821.607 667.764 821.44 667.084 821.44C666.404 821.44 665.784 821.6 665.224 821.92C664.664 822.24 664.217 822.707 663.884 823.32C663.551 823.933 663.384 824.653 663.384 825.48C663.384 826.32 663.551 827.053 663.884 827.68C664.217 828.293 664.664 828.767 665.224 829.1C665.784 829.42 666.404 829.58 667.084 829.58C667.764 829.58 668.384 829.42 668.944 829.1C669.517 828.767 669.971 828.293 670.304 827.68C670.637 827.053 670.804 826.327 670.804 825.5ZM688.652 822.9V824.44H680.672V822.9H688.652ZM706.399 827.18C706.399 827.82 706.239 828.433 705.919 829.02C705.599 829.593 705.126 830.073 704.499 830.46C703.886 830.847 703.146 831.067 702.279 831.12V832.74H701.199V831.12C699.986 831.013 698.999 830.627 698.239 829.96C697.479 829.28 697.093 828.42 697.079 827.38H699.019C699.073 827.94 699.279 828.427 699.639 828.84C700.013 829.253 700.533 829.513 701.199 829.62V824.62C700.306 824.393 699.586 824.16 699.039 823.92C698.493 823.68 698.026 823.307 697.639 822.8C697.253 822.293 697.059 821.613 697.059 820.76C697.059 819.68 697.433 818.787 698.179 818.08C698.939 817.373 699.946 816.98 701.199 816.9V815.24H702.279V816.9C703.413 816.993 704.326 817.36 705.019 818C705.713 818.627 706.113 819.447 706.219 820.46H704.279C704.213 819.993 704.006 819.573 703.659 819.2C703.313 818.813 702.853 818.56 702.279 818.44V823.32C703.159 823.547 703.873 823.78 704.419 824.02C704.979 824.247 705.446 824.613 705.819 825.12C706.206 825.627 706.399 826.313 706.399 827.18ZM698.919 820.66C698.919 821.313 699.113 821.813 699.499 822.16C699.886 822.507 700.453 822.793 701.199 823.02V818.4C700.506 818.467 699.953 818.693 699.539 819.08C699.126 819.453 698.919 819.98 698.919 820.66ZM702.279 829.64C702.999 829.56 703.559 829.3 703.959 828.86C704.373 828.42 704.579 827.893 704.579 827.28C704.579 826.627 704.379 826.127 703.979 825.78C703.579 825.42 703.013 825.133 702.279 824.92V829.64ZM709.321 829.54C711.014 828.18 712.341 827.067 713.301 826.2C714.261 825.32 715.067 824.407 715.721 823.46C716.387 822.5 716.721 821.56 716.721 820.64C716.721 819.773 716.507 819.093 716.081 818.6C715.667 818.093 714.994 817.84 714.061 817.84C713.154 817.84 712.447 818.127 711.941 818.7C711.447 819.26 711.181 820.013 711.141 820.96H709.381C709.434 819.467 709.887 818.313 710.741 817.5C711.594 816.687 712.694 816.28 714.041 816.28C715.414 816.28 716.501 816.66 717.301 817.42C718.114 818.18 718.521 819.227 718.521 820.56C718.521 821.667 718.187 822.747 717.521 823.8C716.867 824.84 716.121 825.76 715.281 826.56C714.441 827.347 713.367 828.267 712.061 829.32H718.941V830.84H709.321V829.54ZM721.045 823.62C721.045 821.327 721.418 819.54 722.165 818.26C722.911 816.967 724.218 816.32 726.085 816.32C727.938 816.32 729.238 816.967 729.985 818.26C730.731 819.54 731.105 821.327 731.105 823.62C731.105 825.953 730.731 827.767 729.985 829.06C729.238 830.353 727.938 831 726.085 831C724.218 831 722.911 830.353 722.165 829.06C721.418 827.767 721.045 825.953 721.045 823.62ZM729.305 823.62C729.305 822.46 729.225 821.48 729.065 820.68C728.918 819.867 728.605 819.213 728.125 818.72C727.658 818.227 726.978 817.98 726.085 817.98C725.178 817.98 724.485 818.227 724.005 818.72C723.538 819.213 723.225 819.867 723.065 820.68C722.918 821.48 722.845 822.46 722.845 823.62C722.845 824.82 722.918 825.827 723.065 826.64C723.225 827.453 723.538 828.107 724.005 828.6C724.485 829.093 725.178 829.34 726.085 829.34C726.978 829.34 727.658 829.093 728.125 828.6C728.605 828.107 728.918 827.453 729.065 826.64C729.225 825.827 729.305 824.82 729.305 823.62ZM733.603 823.62C733.603 821.327 733.977 819.54 734.723 818.26C735.47 816.967 736.777 816.32 738.643 816.32C740.497 816.32 741.797 816.967 742.543 818.26C743.29 819.54 743.663 821.327 743.663 823.62C743.663 825.953 743.29 827.767 742.543 829.06C741.797 830.353 740.497 831 738.643 831C736.777 831 735.47 830.353 734.723 829.06C733.977 827.767 733.603 825.953 733.603 823.62ZM741.863 823.62C741.863 822.46 741.783 821.48 741.623 820.68C741.477 819.867 741.163 819.213 740.683 818.72C740.217 818.227 739.537 817.98 738.643 817.98C737.737 817.98 737.043 818.227 736.563 818.72C736.097 819.213 735.783 819.867 735.623 820.68C735.477 821.48 735.403 822.46 735.403 823.62C735.403 824.82 735.477 825.827 735.623 826.64C735.783 827.453 736.097 828.107 736.563 828.6C737.043 829.093 737.737 829.34 738.643 829.34C739.537 829.34 740.217 829.093 740.683 828.6C741.163 828.107 741.477 827.453 741.623 826.64C741.783 825.827 741.863 824.82 741.863 823.62Z" fill="#D3D3D3"/>
<g filter="url(#filter4_d_513_35)">
<rect x="587" y="927" width="510" height="68.703" rx="5" fill="#D3D3D3"/>
</g>
<path d="M829.984 972.629H826.624L819.016 961.133V972.629H815.656V955.853H819.016L826.624 967.373V955.853H829.984V972.629ZM845.664 965.693C845.664 966.173 845.632 966.605 845.568 966.989H835.848C835.928 967.949 836.264 968.701 836.856 969.245C837.448 969.789 838.176 970.061 839.04 970.061C840.288 970.061 841.176 969.525 841.704 968.453H845.328C844.944 969.733 844.208 970.789 843.12 971.621C842.032 972.437 840.696 972.845 839.112 972.845C837.832 972.845 836.68 972.565 835.656 972.005C834.648 971.429 833.856 970.621 833.28 969.581C832.72 968.541 832.44 967.341 832.44 965.981C832.44 964.605 832.72 963.397 833.28 962.357C833.84 961.317 834.624 960.517 835.632 959.957C836.64 959.397 837.8 959.117 839.112 959.117C840.376 959.117 841.504 959.389 842.496 959.933C843.504 960.477 844.28 961.253 844.824 962.261C845.384 963.253 845.664 964.397 845.664 965.693ZM842.184 964.733C842.168 963.869 841.856 963.181 841.248 962.669C840.64 962.141 839.896 961.877 839.016 961.877C838.184 961.877 837.48 962.133 836.904 962.645C836.344 963.141 836 963.837 835.872 964.733H842.184ZM855.461 972.629L852.725 968.501L850.301 972.629H846.701L851.045 965.957L846.653 959.333H850.445L853.157 963.437L855.605 959.333H859.205L854.837 965.957L859.253 972.629H855.461ZM864.99 962.093V968.525C864.99 968.973 865.094 969.301 865.302 969.509C865.526 969.701 865.894 969.797 866.406 969.797H867.966V972.629H865.854C863.022 972.629 861.606 971.253 861.606 968.501V962.093H860.022V959.333H861.606V956.045H864.99V959.333H867.966V962.093H864.99Z" fill="white"/>
</g>
<rect x="2" y="2" width="1724" height="1113" stroke="#D3D3D3" stroke-width="4"/>
<defs>
<filter id="filter0_d_513_35" x="-4" y="0" width="1736" height="116" filterUnits="userSpaceOnUse" color-interpolation-filters="sRGB">
<feFlood flood-opacity="0" result="BackgroundImageFix"/>
<feColorMatrix in="SourceAlpha" type="matrix" values="0 0 0 0 0 0 0 0 0 0 0 0 0 0 0 0 0 0 127 0" result="hardAlpha"/>
<feOffset dy="4"/>
<feGaussianBlur stdDeviation="2"/>
<feComposite in2="hardAlpha" operator="out"/>
<feColorMatrix type="matrix" values="0 0 0 0 0 0 0 0 0 0 0 0 0 0 0 0 0 0 0.25 0"/>
<feBlend mode="normal" in2="BackgroundImageFix" result="effect1_dropShadow_513_35"/>
<feBlend mode="normal" in="SourceGraphic" in2="effect1_dropShadow_513_35" result="shape"/>
</filter>
<filter id="filter1_d_513_35" x="535" y="471" width="614" height="587" filterUnits="userSpaceOnUse" color-interpolation-filters="sRGB">
<feFlood flood-opacity="0" result="BackgroundImageFix"/>
<feColorMatrix in="SourceAlpha" type="matrix" values="0 0 0 0 0 0 0 0 0 0 0 0 0 0 0 0 0 0 127 0" result="hardAlpha"/>
<feOffset dy="4"/>
<feGaussianBlur stdDeviation="2"/>
<feComposite in2="hardAlpha" operator="out"/>
<feColorMatrix type="matrix" values="0 0 0 0 0 0 0 0 0 0 0 0 0 0 0 0 0 0 0.25 0"/>
<feBlend mode="normal" in2="BackgroundImageFix" result="effect1_dropShadow_513_35"/>
<feBlend mode="normal" in="SourceGraphic" in2="effect1_dropShadow_513_35" result="shape"/>
</filter>
<filter id="filter2_d_513_35" x="583" y="613.906" width="518" height="71.7957" filterUnits="userSpaceOnUse" color-interpolation-filters="sRGB">
<feFlood flood-opacity="0" result="BackgroundImageFix"/>
<feColorMatrix in="SourceAlpha" type="matrix" values="0 0 0 0 0 0 0 0 0 0 0 0 0 0 0 0 0 0 127 0" result="hardAlpha"/>
<feOffset dy="4"/>
<feGaussianBlur stdDeviation="2"/>
<feComposite in2="hardAlpha" operator="out"/>
<feColorMatrix type="matrix" values="0 0 0 0 0 0 0 0 0 0 0 0 0 0 0 0 0 0 0.25 0"/>
<feBlend mode="normal" in2="BackgroundImageFix" result="effect1_dropShadow_513_35"/>
<feBlend mode="normal" in="SourceGraphic" in2="effect1_dropShadow_513_35" result="shape"/>
</filter>
<filter id="filter3_d_513_35" x="583" y="749" width="518" height="128" filterUnits="userSpaceOnUse" color-interpolation-filters="sRGB">
<feFlood flood-opacity="0" result="BackgroundImageFix"/>
<feColorMatrix in="SourceAlpha" type="matrix" values="0 0 0 0 0 0 0 0 0 0 0 0 0 0 0 0 0 0 127 0" result="hardAlpha"/>
<feOffset dy="4"/>
<feGaussianBlur stdDeviation="2"/>
<feComposite in2="hardAlpha" operator="out"/>
<feColorMatrix type="matrix" values="0 0 0 0 0 0 0 0 0 0 0 0 0 0 0 0 0 0 0.25 0"/>
<feBlend mode="normal" in2="BackgroundImageFix" result="effect1_dropShadow_513_35"/>
<feBlend mode="normal" in="SourceGraphic" in2="effect1_dropShadow_513_35" result="shape"/>
</filter>
<filter id="filter4_d_513_35" x="583" y="927" width="518" height="76.7031" filterUnits="userSpaceOnUse" color-interpolation-filters="sRGB">
<feFlood flood-opacity="0" result="BackgroundImageFix"/>
<feColorMatrix in="SourceAlpha" type="matrix" values="0 0 0 0 0 0 0 0 0 0 0 0 0 0 0 0 0 0 127 0" result="hardAlpha"/>
<feOffset dy="4"/>
<feGaussianBlur stdDeviation="2"/>
<feComposite in2="hardAlpha" operator="out"/>
<feColorMatrix type="matrix" values="0 0 0 0 0 0 0 0 0 0 0 0 0 0 0 0 0 0 0.25 0"/>
<feBlend mode="normal" in2="BackgroundImageFix" result="effect1_dropShadow_513_35"/>
<feBlend mode="normal" in="SourceGraphic" in2="effect1_dropShadow_513_35" result="shape"/>
</filter>
<clipPath id="clip0_513_35">
<rect width="1728" height="1117" fill="white"/>
</clipPath>
</defs>
</svg>
