<svg width="1728" height="1117" viewBox="0 0 1728 1117" fill="none" xmlns="http://www.w3.org/2000/svg">
<rect width="1728" height="1117" fill="white"/>
<path d="M1521.03 57.364C1521.03 52.936 1514.58 54.34 1514.58 51.82C1514.58 50.794 1515.32 50.308 1516.31 50.344C1517.39 50.362 1518.06 51.01 1518.11 51.838H1520.88C1520.72 49.57 1518.96 48.256 1516.38 48.256C1513.79 48.256 1511.95 49.624 1511.95 51.892C1511.94 56.446 1518.42 54.808 1518.42 57.526C1518.42 58.426 1517.71 59.056 1516.53 59.056C1515.36 59.056 1514.69 58.39 1514.62 57.382H1511.92C1511.95 59.758 1513.97 61.126 1516.58 61.126C1519.44 61.126 1521.03 59.344 1521.03 57.364ZM1523.21 61H1525.73V51.028H1523.21V61ZM1524.49 49.84C1525.37 49.84 1526.04 49.192 1526.04 48.364C1526.04 47.536 1525.37 46.888 1524.49 46.888C1523.59 46.888 1522.94 47.536 1522.94 48.364C1522.94 49.192 1523.59 49.84 1524.49 49.84ZM1527.57 55.978C1527.57 59.092 1529.59 61.162 1532.13 61.162C1533.69 61.162 1534.83 60.388 1535.42 59.524V61.072C1535.42 62.926 1534.34 63.718 1532.95 63.718C1531.69 63.718 1530.76 63.124 1530.51 62.224H1528C1528.26 64.51 1530.22 65.914 1533.03 65.914C1536.3 65.914 1537.96 63.772 1537.96 61.072V51.028H1535.42V52.45C1534.83 51.586 1533.69 50.866 1532.13 50.866C1529.59 50.866 1527.57 52.864 1527.57 55.978ZM1535.42 56.014C1535.42 57.904 1534.16 58.948 1532.77 58.948C1531.42 58.948 1530.15 57.868 1530.15 55.978C1530.15 54.088 1531.42 53.08 1532.77 53.08C1534.16 53.08 1535.42 54.124 1535.42 56.014ZM1547.4 61H1549.92V55.15C1549.92 52.396 1548.27 50.884 1545.95 50.884C1544.67 50.884 1543.59 51.424 1542.94 52.27V51.028H1540.42V61H1542.94V55.492C1542.94 53.89 1543.82 53.026 1545.19 53.026C1546.52 53.026 1547.4 53.89 1547.4 55.492V61ZM1556.57 56.194C1556.57 59.506 1558.84 61.126 1561.6 61.126C1564.35 61.126 1566.73 59.506 1566.73 56.194V48.436H1564.19V56.212C1564.19 57.94 1563.25 58.84 1561.63 58.84C1560.03 58.84 1559.09 57.94 1559.09 56.212V48.436H1556.57V56.194ZM1571.68 52.468V51.028H1569.16V65.752H1571.68V59.578C1572.29 60.388 1573.41 61.162 1574.97 61.162C1577.53 61.162 1579.53 59.092 1579.53 55.978C1579.53 52.864 1577.53 50.866 1574.97 50.866C1573.43 50.866 1572.27 51.622 1571.68 52.468ZM1576.95 55.978C1576.95 57.868 1575.68 58.948 1574.31 58.948C1572.96 58.948 1571.68 57.904 1571.68 56.014C1571.68 54.124 1572.96 53.08 1574.31 53.08C1575.68 53.08 1576.95 54.088 1576.95 55.978Z" fill="white"/>
<path d="M152.688 309.448H160.048V313H148.208V290.664H152.688V309.448ZM170.768 313.288C169.061 313.288 167.525 312.915 166.16 312.168C164.794 311.4 163.717 310.323 162.928 308.936C162.16 307.549 161.776 305.949 161.776 304.136C161.776 302.323 162.17 300.723 162.96 299.336C163.77 297.949 164.869 296.883 166.256 296.136C167.642 295.368 169.189 294.984 170.896 294.984C172.602 294.984 174.149 295.368 175.536 296.136C176.922 296.883 178.01 297.949 178.8 299.336C179.61 300.723 180.016 302.323 180.016 304.136C180.016 305.949 179.6 307.549 178.767 308.936C177.957 310.323 176.848 311.4 175.44 312.168C174.053 312.915 172.496 313.288 170.768 313.288ZM170.768 309.384C171.578 309.384 172.336 309.192 173.04 308.808C173.765 308.403 174.341 307.805 174.768 307.016C175.194 306.227 175.408 305.267 175.408 304.136C175.408 302.451 174.96 301.16 174.064 300.264C173.189 299.347 172.112 298.888 170.832 298.888C169.552 298.888 168.474 299.347 167.6 300.264C166.746 301.16 166.32 302.451 166.32 304.136C166.32 305.821 166.736 307.123 167.568 308.04C168.421 308.936 169.488 309.384 170.768 309.384ZM190.246 294.984C191.568 294.984 192.731 295.251 193.734 295.784C194.736 296.296 195.526 296.968 196.102 297.8V295.272H200.614V313.128C200.614 314.771 200.283 316.232 199.622 317.512C198.96 318.813 197.968 319.837 196.646 320.584C195.323 321.352 193.723 321.736 191.846 321.736C189.328 321.736 187.259 321.149 185.638 319.976C184.038 318.803 183.131 317.203 182.918 315.176H187.366C187.6 315.987 188.102 316.627 188.87 317.096C189.659 317.587 190.608 317.832 191.718 317.832C193.019 317.832 194.075 317.437 194.886 316.648C195.696 315.88 196.102 314.707 196.102 313.128V310.376C195.526 311.208 194.726 311.901 193.702 312.456C192.699 313.011 191.547 313.288 190.246 313.288C188.752 313.288 187.387 312.904 186.15 312.136C184.912 311.368 183.931 310.291 183.206 308.904C182.502 307.496 182.15 305.885 182.15 304.072C182.15 302.28 182.502 300.691 183.206 299.304C183.931 297.917 184.902 296.851 186.118 296.104C187.355 295.357 188.731 294.984 190.246 294.984ZM196.102 304.136C196.102 303.048 195.888 302.12 195.462 301.352C195.035 300.563 194.459 299.965 193.734 299.56C193.008 299.133 192.23 298.92 191.398 298.92C190.566 298.92 189.798 299.123 189.094 299.528C188.39 299.933 187.814 300.531 187.366 301.32C186.939 302.088 186.726 303.005 186.726 304.072C186.726 305.139 186.939 306.077 187.366 306.888C187.814 307.677 188.39 308.285 189.094 308.712C189.819 309.139 190.587 309.352 191.398 309.352C192.23 309.352 193.008 309.149 193.734 308.744C194.459 308.317 195.035 307.72 195.462 306.952C195.888 306.163 196.102 305.224 196.102 304.136ZM207.261 293.16C206.472 293.16 205.811 292.915 205.277 292.424C204.765 291.912 204.509 291.283 204.509 290.536C204.509 289.789 204.765 289.171 205.277 288.68C205.811 288.168 206.472 287.912 207.261 287.912C208.051 287.912 208.701 288.168 209.213 288.68C209.747 289.171 210.013 289.789 210.013 290.536C210.013 291.283 209.747 291.912 209.213 292.424C208.701 292.915 208.051 293.16 207.261 293.16ZM209.469 295.272V313H204.989V295.272H209.469ZM223.72 295.016C225.832 295.016 227.538 295.688 228.84 297.032C230.141 298.355 230.792 300.211 230.792 302.6V313H226.312V303.208C226.312 301.8 225.96 300.723 225.256 299.976C224.552 299.208 223.592 298.824 222.376 298.824C221.138 298.824 220.157 299.208 219.432 299.976C218.728 300.723 218.376 301.8 218.376 303.208V313H213.896V295.272H218.376V297.48C218.973 296.712 219.73 296.115 220.648 295.688C221.586 295.24 222.61 295.016 223.72 295.016ZM247.893 298.952V307.528C247.893 308.125 248.031 308.563 248.309 308.84C248.607 309.096 249.098 309.224 249.781 309.224H251.861V313H249.045C245.269 313 243.381 311.165 243.381 307.496V298.952H241.269V295.272H243.381V290.888H247.893V295.272H251.861V298.952H247.893ZM262.955 313.288C261.248 313.288 259.712 312.915 258.347 312.168C256.982 311.4 255.904 310.323 255.115 308.936C254.347 307.549 253.963 305.949 253.963 304.136C253.963 302.323 254.358 300.723 255.147 299.336C255.958 297.949 257.056 296.883 258.443 296.136C259.83 295.368 261.376 294.984 263.083 294.984C264.79 294.984 266.336 295.368 267.723 296.136C269.11 296.883 270.198 297.949 270.987 299.336C271.798 300.723 272.203 302.323 272.203 304.136C272.203 305.949 271.787 307.549 270.955 308.936C270.144 310.323 269.035 311.4 267.627 312.168C266.24 312.915 264.683 313.288 262.955 313.288ZM262.955 309.384C263.766 309.384 264.523 309.192 265.227 308.808C265.952 308.403 266.528 307.805 266.955 307.016C267.382 306.227 267.595 305.267 267.595 304.136C267.595 302.451 267.147 301.16 266.251 300.264C265.376 299.347 264.299 298.888 263.019 298.888C261.739 298.888 260.662 299.347 259.787 300.264C258.934 301.16 258.507 302.451 258.507 304.136C258.507 305.821 258.923 307.123 259.755 308.04C260.608 308.936 261.675 309.384 262.955 309.384ZM300.074 295.272L289.098 321.384H284.33L288.17 312.552L281.066 295.272H286.09L290.666 307.656L295.306 295.272H300.074ZM310.361 313.288C308.655 313.288 307.119 312.915 305.753 312.168C304.388 311.4 303.311 310.323 302.521 308.936C301.753 307.549 301.369 305.949 301.369 304.136C301.369 302.323 301.764 300.723 302.553 299.336C303.364 297.949 304.463 296.883 305.849 296.136C307.236 295.368 308.783 294.984 310.489 294.984C312.196 294.984 313.743 295.368 315.129 296.136C316.516 296.883 317.604 297.949 318.393 299.336C319.204 300.723 319.609 302.323 319.609 304.136C319.609 305.949 319.193 307.549 318.361 308.936C317.551 310.323 316.441 311.4 315.033 312.168C313.647 312.915 312.089 313.288 310.361 313.288ZM310.361 309.384C311.172 309.384 311.929 309.192 312.633 308.808C313.359 308.403 313.935 307.805 314.361 307.016C314.788 306.227 315.001 305.267 315.001 304.136C315.001 302.451 314.553 301.16 313.657 300.264C312.783 299.347 311.705 298.888 310.425 298.888C309.145 298.888 308.068 299.347 307.193 300.264C306.34 301.16 305.913 302.451 305.913 304.136C305.913 305.821 306.329 307.123 307.161 308.04C308.015 308.936 309.081 309.384 310.361 309.384ZM339.632 295.272V313H335.12V310.76C334.544 311.528 333.786 312.136 332.848 312.584C331.93 313.011 330.928 313.224 329.84 313.224C328.453 313.224 327.226 312.936 326.16 312.36C325.093 311.763 324.25 310.899 323.632 309.768C323.034 308.616 322.736 307.251 322.736 305.672V295.272H327.216V305.032C327.216 306.44 327.568 307.528 328.272 308.296C328.976 309.043 329.936 309.416 331.152 309.416C332.389 309.416 333.36 309.043 334.064 308.296C334.768 307.528 335.12 306.44 335.12 305.032V295.272H339.632ZM348.532 298.024C349.108 297.085 349.854 296.349 350.772 295.816C351.71 295.283 352.777 295.016 353.972 295.016V299.72H352.788C351.38 299.72 350.313 300.051 349.588 300.712C348.884 301.373 348.532 302.525 348.532 304.168V313H344.052V295.272H348.532V298.024ZM363.462 304.072C363.462 302.28 363.814 300.691 364.518 299.304C365.244 297.917 366.214 296.851 367.43 296.104C368.668 295.357 370.044 294.984 371.558 294.984C372.881 294.984 374.033 295.251 375.014 295.784C376.017 296.317 376.817 296.989 377.414 297.8V295.272H381.926V313H377.414V310.408C376.838 311.24 376.038 311.933 375.014 312.488C374.012 313.021 372.849 313.288 371.526 313.288C370.033 313.288 368.668 312.904 367.43 312.136C366.214 311.368 365.244 310.291 364.518 308.904C363.814 307.496 363.462 305.885 363.462 304.072ZM377.414 304.136C377.414 303.048 377.201 302.12 376.774 301.352C376.348 300.563 375.772 299.965 375.046 299.56C374.321 299.133 373.542 298.92 372.71 298.92C371.878 298.92 371.11 299.123 370.406 299.528C369.702 299.933 369.126 300.531 368.678 301.32C368.252 302.088 368.038 303.005 368.038 304.072C368.038 305.139 368.252 306.077 368.678 306.888C369.126 307.677 369.702 308.285 370.406 308.712C371.132 309.139 371.9 309.352 372.71 309.352C373.542 309.352 374.321 309.149 375.046 308.744C375.772 308.317 376.348 307.72 376.774 306.952C377.201 306.163 377.414 305.224 377.414 304.136ZM385.15 304.136C385.15 302.301 385.523 300.701 386.27 299.336C387.016 297.949 388.051 296.883 389.374 296.136C390.696 295.368 392.211 294.984 393.918 294.984C396.115 294.984 397.928 295.539 399.358 296.648C400.808 297.736 401.779 299.272 402.27 301.256H397.438C397.182 300.488 396.744 299.891 396.126 299.464C395.528 299.016 394.782 298.792 393.886 298.792C392.606 298.792 391.592 299.261 390.846 300.2C390.099 301.117 389.726 302.429 389.726 304.136C389.726 305.821 390.099 307.133 390.846 308.072C391.592 308.989 392.606 309.448 393.886 309.448C395.699 309.448 396.883 308.637 397.438 307.016H402.27C401.779 308.936 400.808 310.461 399.358 311.592C397.907 312.723 396.094 313.288 393.918 313.288C392.211 313.288 390.696 312.915 389.374 312.168C388.051 311.4 387.016 310.333 386.27 308.968C385.523 307.581 385.15 305.971 385.15 304.136ZM404.4 304.136C404.4 302.301 404.773 300.701 405.52 299.336C406.266 297.949 407.301 296.883 408.624 296.136C409.946 295.368 411.461 294.984 413.168 294.984C415.365 294.984 417.178 295.539 418.608 296.648C420.058 297.736 421.029 299.272 421.52 301.256H416.688C416.432 300.488 415.994 299.891 415.376 299.464C414.778 299.016 414.032 298.792 413.136 298.792C411.856 298.792 410.842 299.261 410.096 300.2C409.349 301.117 408.976 302.429 408.976 304.136C408.976 305.821 409.349 307.133 410.096 308.072C410.842 308.989 411.856 309.448 413.136 309.448C414.949 309.448 416.133 308.637 416.688 307.016H421.52C421.029 308.936 420.058 310.461 418.608 311.592C417.157 312.723 415.344 313.288 413.168 313.288C411.461 313.288 409.946 312.915 408.624 312.168C407.301 311.4 406.266 310.333 405.52 308.968C404.773 307.581 404.4 305.971 404.4 304.136ZM432.674 313.288C430.967 313.288 429.431 312.915 428.066 312.168C426.7 311.4 425.623 310.323 424.834 308.936C424.066 307.549 423.682 305.949 423.682 304.136C423.682 302.323 424.076 300.723 424.866 299.336C425.676 297.949 426.775 296.883 428.162 296.136C429.548 295.368 431.095 294.984 432.802 294.984C434.508 294.984 436.055 295.368 437.442 296.136C438.828 296.883 439.916 297.949 440.706 299.336C441.516 300.723 441.922 302.323 441.922 304.136C441.922 305.949 441.506 307.549 440.674 308.936C439.863 310.323 438.754 311.4 437.346 312.168C435.959 312.915 434.402 313.288 432.674 313.288ZM432.674 309.384C433.484 309.384 434.242 309.192 434.946 308.808C435.671 308.403 436.247 307.805 436.674 307.016C437.1 306.227 437.314 305.267 437.314 304.136C437.314 302.451 436.866 301.16 435.97 300.264C435.095 299.347 434.018 298.888 432.738 298.888C431.458 298.888 430.38 299.347 429.506 300.264C428.652 301.16 428.226 302.451 428.226 304.136C428.226 305.821 428.642 307.123 429.474 308.04C430.327 308.936 431.394 309.384 432.674 309.384ZM461.944 295.272V313H457.432V310.76C456.856 311.528 456.099 312.136 455.16 312.584C454.243 313.011 453.24 313.224 452.152 313.224C450.765 313.224 449.539 312.936 448.472 312.36C447.405 311.763 446.563 310.899 445.944 309.768C445.347 308.616 445.048 307.251 445.048 305.672V295.272H449.528V305.032C449.528 306.44 449.88 307.528 450.584 308.296C451.288 309.043 452.248 309.416 453.464 309.416C454.701 309.416 455.672 309.043 456.376 308.296C457.08 307.528 457.432 306.44 457.432 305.032V295.272H461.944ZM476.188 295.016C478.3 295.016 480.007 295.688 481.308 297.032C482.61 298.355 483.26 300.211 483.26 302.6V313H478.78V303.208C478.78 301.8 478.428 300.723 477.724 299.976C477.02 299.208 476.06 298.824 474.844 298.824C473.607 298.824 472.626 299.208 471.9 299.976C471.196 300.723 470.844 301.8 470.844 303.208V313H466.364V295.272H470.844V297.48C471.442 296.712 472.199 296.115 473.116 295.688C474.055 295.24 475.079 295.016 476.188 295.016ZM492.737 298.952V307.528C492.737 308.125 492.875 308.563 493.153 308.84C493.451 309.096 493.942 309.224 494.625 309.224H496.705V313H493.889C490.113 313 488.225 311.165 488.225 307.496V298.952H486.113V295.272H488.225V290.888H492.737V295.272H496.705V298.952H492.737Z" fill="#D3D3D3"/>
<path d="M153.28 352L148.688 346.912V352H147.232V340.848H148.688V346.016L153.296 340.848H155.136L150.08 346.432L155.184 352H153.28ZM157.562 341.808C157.285 341.808 157.05 341.712 156.858 341.52C156.666 341.328 156.57 341.093 156.57 340.816C156.57 340.539 156.666 340.304 156.858 340.112C157.05 339.92 157.285 339.824 157.562 339.824C157.829 339.824 158.053 339.92 158.234 340.112C158.426 340.304 158.522 340.539 158.522 340.816C158.522 341.093 158.426 341.328 158.234 341.52C158.053 341.712 157.829 341.808 157.562 341.808ZM158.266 343.232V352H156.81V343.232H158.266ZM165.02 343.072C166.086 343.072 166.95 343.397 167.612 344.048C168.273 344.688 168.604 345.616 168.604 346.832V352H167.164V347.04C167.164 346.165 166.945 345.499 166.508 345.04C166.07 344.571 165.473 344.336 164.716 344.336C163.948 344.336 163.334 344.576 162.876 345.056C162.428 345.536 162.204 346.235 162.204 347.152V352H160.748V343.232H162.204V344.48C162.492 344.032 162.881 343.685 163.372 343.44C163.873 343.195 164.422 343.072 165.02 343.072ZM170.438 347.584C170.438 346.688 170.619 345.904 170.982 345.232C171.345 344.549 171.841 344.021 172.47 343.648C173.11 343.275 173.825 343.088 174.614 343.088C175.297 343.088 175.931 343.248 176.518 343.568C177.105 343.877 177.553 344.288 177.862 344.8V340.16H179.334V352H177.862V350.352C177.574 350.875 177.147 351.307 176.582 351.648C176.017 351.979 175.355 352.144 174.598 352.144C173.819 352.144 173.11 351.952 172.47 351.568C171.841 351.184 171.345 350.645 170.982 349.952C170.619 349.259 170.438 348.469 170.438 347.584ZM177.862 347.6C177.862 346.939 177.729 346.363 177.462 345.872C177.195 345.381 176.833 345.008 176.374 344.752C175.926 344.485 175.43 344.352 174.886 344.352C174.342 344.352 173.846 344.48 173.398 344.736C172.95 344.992 172.593 345.365 172.326 345.856C172.059 346.347 171.926 346.923 171.926 347.584C171.926 348.256 172.059 348.843 172.326 349.344C172.593 349.835 172.95 350.213 173.398 350.48C173.846 350.736 174.342 350.864 174.886 350.864C175.43 350.864 175.926 350.736 176.374 350.48C176.833 350.213 177.195 349.835 177.462 349.344C177.729 348.843 177.862 348.261 177.862 347.6ZM183.251 340.16V352H181.795V340.16H183.251ZM193.284 343.232L188.004 356.128H186.5L188.228 351.904L184.692 343.232H186.308L189.06 350.336L191.78 343.232H193.284ZM207.013 347.28C207.013 347.557 206.997 347.851 206.965 348.16H199.957C200.011 349.024 200.304 349.701 200.837 350.192C201.381 350.672 202.037 350.912 202.805 350.912C203.435 350.912 203.957 350.768 204.373 350.48C204.8 350.181 205.099 349.787 205.269 349.296H206.837C206.603 350.139 206.133 350.827 205.429 351.36C204.725 351.883 203.851 352.144 202.805 352.144C201.973 352.144 201.227 351.957 200.565 351.584C199.915 351.211 199.403 350.683 199.029 350C198.656 349.307 198.469 348.507 198.469 347.6C198.469 346.693 198.651 345.899 199.013 345.216C199.376 344.533 199.883 344.011 200.533 343.648C201.195 343.275 201.952 343.088 202.805 343.088C203.637 343.088 204.373 343.269 205.013 343.632C205.653 343.995 206.144 344.496 206.485 345.136C206.837 345.765 207.013 346.48 207.013 347.28ZM205.509 346.976C205.509 346.421 205.387 345.947 205.141 345.552C204.896 345.147 204.56 344.843 204.133 344.64C203.717 344.427 203.253 344.32 202.741 344.32C202.005 344.32 201.376 344.555 200.853 345.024C200.341 345.493 200.048 346.144 199.973 346.976H205.509ZM213.207 343.072C214.274 343.072 215.138 343.397 215.799 344.048C216.46 344.688 216.791 345.616 216.791 346.832V352H215.351V347.04C215.351 346.165 215.132 345.499 214.695 345.04C214.258 344.571 213.66 344.336 212.903 344.336C212.135 344.336 211.522 344.576 211.063 345.056C210.615 345.536 210.391 346.235 210.391 347.152V352H208.935V343.232H210.391V344.48C210.679 344.032 211.068 343.685 211.559 343.44C212.06 343.195 212.61 343.072 213.207 343.072ZM220.946 344.432V349.6C220.946 350.027 221.036 350.331 221.218 350.512C221.399 350.683 221.714 350.768 222.161 350.768H223.234V352H221.922C221.111 352 220.503 351.813 220.098 351.44C219.692 351.067 219.49 350.453 219.49 349.6V344.432H218.354V343.232H219.49V341.024H220.946V343.232H223.234V344.432H220.946ZM232.998 347.28C232.998 347.557 232.982 347.851 232.95 348.16H225.942C225.995 349.024 226.288 349.701 226.822 350.192C227.366 350.672 228.022 350.912 228.79 350.912C229.419 350.912 229.942 350.768 230.358 350.48C230.784 350.181 231.083 349.787 231.254 349.296H232.822C232.587 350.139 232.118 350.827 231.414 351.36C230.71 351.883 229.835 352.144 228.79 352.144C227.958 352.144 227.211 351.957 226.55 351.584C225.899 351.211 225.387 350.683 225.014 350C224.64 349.307 224.454 348.507 224.454 347.6C224.454 346.693 224.635 345.899 224.998 345.216C225.36 344.533 225.867 344.011 226.518 343.648C227.179 343.275 227.936 343.088 228.79 343.088C229.622 343.088 230.358 343.269 230.998 343.632C231.638 343.995 232.128 344.496 232.47 345.136C232.822 345.765 232.998 346.48 232.998 347.28ZM231.494 346.976C231.494 346.421 231.371 345.947 231.126 345.552C230.88 345.147 230.544 344.843 230.118 344.64C229.702 344.427 229.238 344.32 228.726 344.32C227.99 344.32 227.36 344.555 226.838 345.024C226.326 345.493 226.032 346.144 225.958 346.976H231.494ZM236.376 344.656C236.632 344.155 236.994 343.765 237.464 343.488C237.944 343.211 238.525 343.072 239.208 343.072V344.576H238.824C237.192 344.576 236.376 345.461 236.376 347.232V352H234.92V343.232H236.376V344.656ZM252.706 343.232L247.426 356.128H245.922L247.65 351.904L244.114 343.232H245.73L248.482 350.336L251.202 343.232H252.706ZM257.994 352.144C257.172 352.144 256.426 351.957 255.754 351.584C255.092 351.211 254.57 350.683 254.186 350C253.812 349.307 253.626 348.507 253.626 347.6C253.626 346.704 253.818 345.915 254.202 345.232C254.596 344.539 255.13 344.011 255.802 343.648C256.474 343.275 257.226 343.088 258.058 343.088C258.89 343.088 259.642 343.275 260.314 343.648C260.986 344.011 261.514 344.533 261.898 345.216C262.292 345.899 262.49 346.693 262.49 347.6C262.49 348.507 262.287 349.307 261.882 350C261.487 350.683 260.948 351.211 260.266 351.584C259.583 351.957 258.826 352.144 257.994 352.144ZM257.994 350.864C258.516 350.864 259.007 350.741 259.466 350.496C259.924 350.251 260.292 349.883 260.57 349.392C260.858 348.901 261.002 348.304 261.002 347.6C261.002 346.896 260.863 346.299 260.586 345.808C260.308 345.317 259.946 344.955 259.498 344.72C259.05 344.475 258.564 344.352 258.042 344.352C257.508 344.352 257.018 344.475 256.57 344.72C256.132 344.955 255.78 345.317 255.514 345.808C255.247 346.299 255.114 346.896 255.114 347.6C255.114 348.315 255.242 348.917 255.498 349.408C255.764 349.899 256.116 350.267 256.554 350.512C256.991 350.747 257.471 350.864 257.994 350.864ZM272.18 343.232V352H270.724V350.704C270.447 351.152 270.057 351.504 269.556 351.76C269.065 352.005 268.521 352.128 267.924 352.128C267.241 352.128 266.628 351.989 266.084 351.712C265.54 351.424 265.108 350.997 264.788 350.432C264.479 349.867 264.324 349.179 264.324 348.368V343.232H265.764V348.176C265.764 349.04 265.983 349.707 266.42 350.176C266.857 350.635 267.455 350.864 268.212 350.864C268.991 350.864 269.604 350.624 270.052 350.144C270.5 349.664 270.724 348.965 270.724 348.048V343.232H272.18ZM276.094 344.656C276.35 344.155 276.713 343.765 277.182 343.488C277.662 343.211 278.244 343.072 278.926 343.072V344.576H278.542C276.91 344.576 276.094 345.461 276.094 347.232V352H274.638V343.232H276.094V344.656ZM284.329 347.584C284.329 346.688 284.51 345.904 284.873 345.232C285.235 344.549 285.731 344.021 286.361 343.648C287.001 343.275 287.715 343.088 288.505 343.088C289.187 343.088 289.822 343.248 290.409 343.568C290.995 343.877 291.443 344.288 291.753 344.8V340.16H293.225V352H291.753V350.352C291.465 350.875 291.038 351.307 290.473 351.648C289.907 351.979 289.246 352.144 288.489 352.144C287.71 352.144 287.001 351.952 286.361 351.568C285.731 351.184 285.235 350.645 284.873 349.952C284.51 349.259 284.329 348.469 284.329 347.584ZM291.753 347.6C291.753 346.939 291.619 346.363 291.353 345.872C291.086 345.381 290.723 345.008 290.265 344.752C289.817 344.485 289.321 344.352 288.777 344.352C288.233 344.352 287.737 344.48 287.289 344.736C286.841 344.992 286.483 345.365 286.217 345.856C285.95 346.347 285.817 346.923 285.817 347.584C285.817 348.256 285.95 348.843 286.217 349.344C286.483 349.835 286.841 350.213 287.289 350.48C287.737 350.736 288.233 350.864 288.777 350.864C289.321 350.864 289.817 350.736 290.265 350.48C290.723 350.213 291.086 349.835 291.353 349.344C291.619 348.843 291.753 348.261 291.753 347.6ZM303.685 347.28C303.685 347.557 303.669 347.851 303.637 348.16H296.629C296.682 349.024 296.976 349.701 297.509 350.192C298.053 350.672 298.709 350.912 299.477 350.912C300.106 350.912 300.629 350.768 301.045 350.48C301.472 350.181 301.77 349.787 301.941 349.296H303.509C303.274 350.139 302.805 350.827 302.101 351.36C301.397 351.883 300.522 352.144 299.477 352.144C298.645 352.144 297.898 351.957 297.237 351.584C296.586 351.211 296.074 350.683 295.701 350C295.328 349.307 295.141 348.507 295.141 347.6C295.141 346.693 295.322 345.899 295.685 345.216C296.048 344.533 296.554 344.011 297.205 343.648C297.866 343.275 298.624 343.088 299.477 343.088C300.309 343.088 301.045 343.269 301.685 343.632C302.325 343.995 302.816 344.496 303.157 345.136C303.509 345.765 303.685 346.48 303.685 347.28ZM302.181 346.976C302.181 346.421 302.058 345.947 301.813 345.552C301.568 345.147 301.232 344.843 300.805 344.64C300.389 344.427 299.925 344.32 299.413 344.32C298.677 344.32 298.048 344.555 297.525 345.024C297.013 345.493 296.72 346.144 296.645 346.976H302.181ZM307.383 344.432V349.6C307.383 350.027 307.474 350.331 307.655 350.512C307.836 350.683 308.151 350.768 308.599 350.768H309.671V352H308.359C307.548 352 306.94 351.813 306.535 351.44C306.13 351.067 305.927 350.453 305.927 349.6V344.432H304.791V343.232H305.927V341.024H307.383V343.232H309.671V344.432H307.383ZM310.891 347.584C310.891 346.688 311.072 345.904 311.435 345.232C311.798 344.549 312.294 344.021 312.923 343.648C313.563 343.275 314.272 343.088 315.051 343.088C315.819 343.088 316.486 343.253 317.051 343.584C317.616 343.915 318.038 344.331 318.315 344.832V343.232H319.787V352H318.315V350.368C318.027 350.88 317.595 351.307 317.019 351.648C316.454 351.979 315.792 352.144 315.035 352.144C314.256 352.144 313.552 351.952 312.923 351.568C312.294 351.184 311.798 350.645 311.435 349.952C311.072 349.259 310.891 348.469 310.891 347.584ZM318.315 347.6C318.315 346.939 318.182 346.363 317.915 345.872C317.648 345.381 317.286 345.008 316.827 344.752C316.379 344.485 315.883 344.352 315.339 344.352C314.795 344.352 314.299 344.48 313.851 344.736C313.403 344.992 313.046 345.365 312.779 345.856C312.512 346.347 312.379 346.923 312.379 347.584C312.379 348.256 312.512 348.843 312.779 349.344C313.046 349.835 313.403 350.213 313.851 350.48C314.299 350.736 314.795 350.864 315.339 350.864C315.883 350.864 316.379 350.736 316.827 350.48C317.286 350.213 317.648 349.835 317.915 349.344C318.182 348.843 318.315 348.261 318.315 347.6ZM323 341.808C322.722 341.808 322.488 341.712 322.296 341.52C322.104 341.328 322.008 341.093 322.008 340.816C322.008 340.539 322.104 340.304 322.296 340.112C322.488 339.92 322.722 339.824 323 339.824C323.266 339.824 323.49 339.92 323.672 340.112C323.864 340.304 323.96 340.539 323.96 340.816C323.96 341.093 323.864 341.328 323.672 341.52C323.49 341.712 323.266 341.808 323 341.808ZM323.704 343.232V352H322.248V343.232H323.704ZM327.641 340.16V352H326.185V340.16H327.641ZM333.227 352.144C332.555 352.144 331.952 352.032 331.419 351.808C330.885 351.573 330.464 351.253 330.155 350.848C329.845 350.432 329.675 349.957 329.643 349.424H331.147C331.189 349.861 331.392 350.219 331.755 350.496C332.128 350.773 332.613 350.912 333.211 350.912C333.765 350.912 334.203 350.789 334.523 350.544C334.843 350.299 335.003 349.989 335.003 349.616C335.003 349.232 334.832 348.949 334.491 348.768C334.149 348.576 333.621 348.389 332.907 348.208C332.256 348.037 331.723 347.867 331.307 347.696C330.901 347.515 330.549 347.253 330.251 346.912C329.963 346.56 329.819 346.101 329.819 345.536C329.819 345.088 329.952 344.677 330.219 344.304C330.485 343.931 330.864 343.637 331.355 343.424C331.845 343.2 332.405 343.088 333.035 343.088C334.005 343.088 334.789 343.333 335.387 343.824C335.984 344.315 336.304 344.987 336.347 345.84H334.891C334.859 345.381 334.672 345.013 334.331 344.736C334 344.459 333.552 344.32 332.987 344.32C332.464 344.32 332.048 344.432 331.739 344.656C331.429 344.88 331.275 345.173 331.275 345.536C331.275 345.824 331.365 346.064 331.547 346.256C331.739 346.437 331.973 346.587 332.251 346.704C332.539 346.811 332.933 346.933 333.435 347.072C334.064 347.243 334.576 347.413 334.971 347.584C335.365 347.744 335.701 347.989 335.979 348.32C336.267 348.651 336.416 349.083 336.427 349.616C336.427 350.096 336.293 350.528 336.027 350.912C335.76 351.296 335.381 351.6 334.891 351.824C334.411 352.037 333.856 352.144 333.227 352.144ZM344.524 344.432V349.6C344.524 350.027 344.614 350.331 344.796 350.512C344.977 350.683 345.292 350.768 345.74 350.768H346.812V352H345.5C344.689 352 344.081 351.813 343.676 351.44C343.27 351.067 343.068 350.453 343.068 349.6V344.432H341.932V343.232H343.068V341.024H344.524V343.232H346.812V344.432H344.524ZM352.4 352.144C351.578 352.144 350.832 351.957 350.16 351.584C349.498 351.211 348.976 350.683 348.592 350C348.218 349.307 348.032 348.507 348.032 347.6C348.032 346.704 348.224 345.915 348.608 345.232C349.002 344.539 349.536 344.011 350.208 343.648C350.88 343.275 351.632 343.088 352.464 343.088C353.296 343.088 354.048 343.275 354.72 343.648C355.392 344.011 355.92 344.533 356.304 345.216C356.698 345.899 356.896 346.693 356.896 347.6C356.896 348.507 356.693 349.307 356.288 350C355.893 350.683 355.354 351.211 354.672 351.584C353.989 351.957 353.232 352.144 352.4 352.144ZM352.4 350.864C352.922 350.864 353.413 350.741 353.872 350.496C354.33 350.251 354.698 349.883 354.976 349.392C355.264 348.901 355.408 348.304 355.408 347.6C355.408 346.896 355.269 346.299 354.992 345.808C354.714 345.317 354.352 344.955 353.904 344.72C353.456 344.475 352.97 344.352 352.448 344.352C351.914 344.352 351.424 344.475 350.976 344.72C350.538 344.955 350.186 345.317 349.92 345.808C349.653 346.299 349.52 346.896 349.52 347.6C349.52 348.315 349.648 348.917 349.904 349.408C350.17 349.899 350.522 350.267 350.96 350.512C351.397 350.747 351.877 350.864 352.4 350.864ZM364.532 340.16V352H363.076V340.16H364.532ZM370.837 352.144C370.016 352.144 369.269 351.957 368.597 351.584C367.936 351.211 367.413 350.683 367.029 350C366.656 349.307 366.469 348.507 366.469 347.6C366.469 346.704 366.661 345.915 367.045 345.232C367.44 344.539 367.973 344.011 368.645 343.648C369.317 343.275 370.069 343.088 370.901 343.088C371.733 343.088 372.485 343.275 373.157 343.648C373.829 344.011 374.357 344.533 374.741 345.216C375.136 345.899 375.333 346.693 375.333 347.6C375.333 348.507 375.131 349.307 374.725 350C374.331 350.683 373.792 351.211 373.109 351.584C372.427 351.957 371.669 352.144 370.837 352.144ZM370.837 350.864C371.36 350.864 371.851 350.741 372.309 350.496C372.768 350.251 373.136 349.883 373.413 349.392C373.701 348.901 373.845 348.304 373.845 347.6C373.845 346.896 373.707 346.299 373.429 345.808C373.152 345.317 372.789 344.955 372.341 344.72C371.893 344.475 371.408 344.352 370.885 344.352C370.352 344.352 369.861 344.475 369.413 344.72C368.976 344.955 368.624 345.317 368.357 345.808C368.091 346.299 367.957 346.896 367.957 347.6C367.957 348.315 368.085 348.917 368.341 349.408C368.608 349.899 368.96 350.267 369.397 350.512C369.835 350.747 370.315 350.864 370.837 350.864ZM380.864 343.088C381.621 343.088 382.282 343.253 382.848 343.584C383.424 343.915 383.85 344.331 384.128 344.832V343.232H385.6V352.192C385.6 352.992 385.429 353.701 385.088 354.32C384.746 354.949 384.256 355.44 383.616 355.792C382.986 356.144 382.25 356.32 381.408 356.32C380.256 356.32 379.296 356.048 378.528 355.504C377.76 354.96 377.306 354.219 377.168 353.28H378.608C378.768 353.813 379.098 354.24 379.6 354.56C380.101 354.891 380.704 355.056 381.408 355.056C382.208 355.056 382.858 354.805 383.36 354.304C383.872 353.803 384.128 353.099 384.128 352.192V350.352C383.84 350.864 383.413 351.291 382.848 351.632C382.282 351.973 381.621 352.144 380.864 352.144C380.085 352.144 379.376 351.952 378.736 351.568C378.106 351.184 377.61 350.645 377.248 349.952C376.885 349.259 376.704 348.469 376.704 347.584C376.704 346.688 376.885 345.904 377.248 345.232C377.61 344.549 378.106 344.021 378.736 343.648C379.376 343.275 380.085 343.088 380.864 343.088ZM384.128 347.6C384.128 346.939 383.994 346.363 383.728 345.872C383.461 345.381 383.098 345.008 382.64 344.752C382.192 344.485 381.696 344.352 381.152 344.352C380.608 344.352 380.112 344.48 379.664 344.736C379.216 344.992 378.858 345.365 378.592 345.856C378.325 346.347 378.192 346.923 378.192 347.584C378.192 348.256 378.325 348.843 378.592 349.344C378.858 349.835 379.216 350.213 379.664 350.48C380.112 350.736 380.608 350.864 381.152 350.864C381.696 350.864 382.192 350.736 382.64 350.48C383.098 350.213 383.461 349.835 383.728 349.344C383.994 348.843 384.128 348.261 384.128 347.6ZM388.812 341.808C388.535 341.808 388.3 341.712 388.108 341.52C387.916 341.328 387.82 341.093 387.82 340.816C387.82 340.539 387.916 340.304 388.108 340.112C388.3 339.92 388.535 339.824 388.812 339.824C389.079 339.824 389.303 339.92 389.484 340.112C389.676 340.304 389.772 340.539 389.772 340.816C389.772 341.093 389.676 341.328 389.484 341.52C389.303 341.712 389.079 341.808 388.812 341.808ZM389.516 343.232V352H388.06V343.232H389.516ZM396.27 343.072C397.336 343.072 398.2 343.397 398.862 344.048C399.523 344.688 399.854 345.616 399.854 346.832V352H398.414V347.04C398.414 346.165 398.195 345.499 397.758 345.04C397.32 344.571 396.723 344.336 395.966 344.336C395.198 344.336 394.584 344.576 394.126 345.056C393.678 345.536 393.454 346.235 393.454 347.152V352H391.998V343.232H393.454V344.48C393.742 344.032 394.131 343.685 394.622 343.44C395.123 343.195 395.672 343.072 396.27 343.072ZM408.274 344.432V349.6C408.274 350.027 408.364 350.331 408.546 350.512C408.727 350.683 409.042 350.768 409.49 350.768H410.562V352H409.25C408.439 352 407.831 351.813 407.426 351.44C407.02 351.067 406.818 350.453 406.818 349.6V344.432H405.682V343.232H406.818V341.024H408.274V343.232H410.562V344.432H408.274ZM416.15 352.144C415.328 352.144 414.582 351.957 413.91 351.584C413.248 351.211 412.726 350.683 412.342 350C411.968 349.307 411.782 348.507 411.782 347.6C411.782 346.704 411.974 345.915 412.358 345.232C412.752 344.539 413.286 344.011 413.958 343.648C414.63 343.275 415.382 343.088 416.214 343.088C417.046 343.088 417.798 343.275 418.47 343.648C419.142 344.011 419.67 344.533 420.054 345.216C420.448 345.899 420.646 346.693 420.646 347.6C420.646 348.507 420.443 349.307 420.038 350C419.643 350.683 419.104 351.211 418.422 351.584C417.739 351.957 416.982 352.144 416.15 352.144ZM416.15 350.864C416.672 350.864 417.163 350.741 417.622 350.496C418.08 350.251 418.448 349.883 418.726 349.392C419.014 348.901 419.158 348.304 419.158 347.6C419.158 346.896 419.019 346.299 418.742 345.808C418.464 345.317 418.102 344.955 417.654 344.72C417.206 344.475 416.72 344.352 416.198 344.352C415.664 344.352 415.174 344.475 414.726 344.72C414.288 344.955 413.936 345.317 413.67 345.808C413.403 346.299 413.27 346.896 413.27 347.6C413.27 348.315 413.398 348.917 413.654 349.408C413.92 349.899 414.272 350.267 414.71 350.512C415.147 350.747 415.627 350.864 416.15 350.864ZM434.378 343.232L429.098 356.128H427.594L429.322 351.904L425.786 343.232H427.402L430.154 350.336L432.874 343.232H434.378ZM439.665 352.144C438.844 352.144 438.097 351.957 437.425 351.584C436.764 351.211 436.241 350.683 435.857 350C435.484 349.307 435.297 348.507 435.297 347.6C435.297 346.704 435.489 345.915 435.873 345.232C436.268 344.539 436.801 344.011 437.473 343.648C438.145 343.275 438.897 343.088 439.729 343.088C440.561 343.088 441.313 343.275 441.985 343.648C442.657 344.011 443.185 344.533 443.569 345.216C443.964 345.899 444.161 346.693 444.161 347.6C444.161 348.507 443.959 349.307 443.553 350C443.159 350.683 442.62 351.211 441.937 351.584C441.255 351.957 440.497 352.144 439.665 352.144ZM439.665 350.864C440.188 350.864 440.679 350.741 441.137 350.496C441.596 350.251 441.964 349.883 442.241 349.392C442.529 348.901 442.673 348.304 442.673 347.6C442.673 346.896 442.535 346.299 442.257 345.808C441.98 345.317 441.617 344.955 441.169 344.72C440.721 344.475 440.236 344.352 439.713 344.352C439.18 344.352 438.689 344.475 438.241 344.72C437.804 344.955 437.452 345.317 437.185 345.808C436.919 346.299 436.785 346.896 436.785 347.6C436.785 348.315 436.913 348.917 437.169 349.408C437.436 349.899 437.788 350.267 438.225 350.512C438.663 350.747 439.143 350.864 439.665 350.864ZM453.852 343.232V352H452.396V350.704C452.118 351.152 451.729 351.504 451.228 351.76C450.737 352.005 450.193 352.128 449.596 352.128C448.913 352.128 448.3 351.989 447.756 351.712C447.212 351.424 446.78 350.997 446.46 350.432C446.15 349.867 445.996 349.179 445.996 348.368V343.232H447.436V348.176C447.436 349.04 447.654 349.707 448.092 350.176C448.529 350.635 449.126 350.864 449.884 350.864C450.662 350.864 451.276 350.624 451.724 350.144C452.172 349.664 452.396 348.965 452.396 348.048V343.232H453.852ZM457.766 344.656C458.022 344.155 458.385 343.765 458.854 343.488C459.334 343.211 459.915 343.072 460.598 343.072V344.576H460.214C458.582 344.576 457.766 345.461 457.766 347.232V352H456.31V343.232H457.766V344.656ZM478.586 343.232V352H477.13V350.704C476.853 351.152 476.463 351.504 475.962 351.76C475.471 352.005 474.927 352.128 474.33 352.128C473.647 352.128 473.034 351.989 472.49 351.712C471.946 351.424 471.514 350.997 471.194 350.432C470.885 349.867 470.73 349.179 470.73 348.368V343.232H472.17V348.176C472.17 349.04 472.389 349.707 472.826 350.176C473.263 350.635 473.861 350.864 474.618 350.864C475.397 350.864 476.01 350.624 476.458 350.144C476.906 349.664 477.13 348.965 477.13 348.048V343.232H478.586ZM482.501 344.848C482.789 344.347 483.215 343.931 483.781 343.6C484.357 343.259 485.023 343.088 485.781 343.088C486.559 343.088 487.263 343.275 487.892 343.648C488.532 344.021 489.034 344.549 489.397 345.232C489.759 345.904 489.941 346.688 489.941 347.584C489.941 348.469 489.759 349.259 489.397 349.952C489.034 350.645 488.532 351.184 487.892 351.568C487.263 351.952 486.559 352.144 485.781 352.144C485.034 352.144 484.373 351.979 483.797 351.648C483.231 351.307 482.799 350.885 482.501 350.384V356.16H481.045V343.232H482.501V344.848ZM488.453 347.584C488.453 346.923 488.319 346.347 488.053 345.856C487.786 345.365 487.423 344.992 486.965 344.736C486.517 344.48 486.021 344.352 485.477 344.352C484.943 344.352 484.447 344.485 483.989 344.752C483.541 345.008 483.178 345.387 482.901 345.888C482.634 346.379 482.501 346.949 482.501 347.6C482.501 348.261 482.634 348.843 482.901 349.344C483.178 349.835 483.541 350.213 483.989 350.48C484.447 350.736 484.943 350.864 485.477 350.864C486.021 350.864 486.517 350.736 486.965 350.48C487.423 350.213 487.786 349.835 488.053 349.344C488.319 348.843 488.453 348.256 488.453 347.584ZM495.681 352.144C494.86 352.144 494.113 351.957 493.441 351.584C492.78 351.211 492.257 350.683 491.873 350C491.5 349.307 491.313 348.507 491.313 347.6C491.313 346.704 491.505 345.915 491.889 345.232C492.284 344.539 492.817 344.011 493.489 343.648C494.161 343.275 494.913 343.088 495.745 343.088C496.577 343.088 497.329 343.275 498.001 343.648C498.673 344.011 499.201 344.533 499.585 345.216C499.98 345.899 500.177 346.693 500.177 347.6C500.177 348.507 499.974 349.307 499.569 350C499.174 350.683 498.636 351.211 497.953 351.584C497.27 351.957 496.513 352.144 495.681 352.144ZM495.681 350.864C496.204 350.864 496.694 350.741 497.153 350.496C497.612 350.251 497.98 349.883 498.257 349.392C498.545 348.901 498.689 348.304 498.689 347.6C498.689 346.896 498.55 346.299 498.273 345.808C497.996 345.317 497.633 344.955 497.185 344.72C496.737 344.475 496.252 344.352 495.729 344.352C495.196 344.352 494.705 344.475 494.257 344.72C493.82 344.955 493.468 345.317 493.201 345.808C492.934 346.299 492.801 346.896 492.801 347.6C492.801 348.315 492.929 348.917 493.185 349.408C493.452 349.899 493.804 350.267 494.241 350.512C494.678 350.747 495.158 350.864 495.681 350.864ZM158.912 367.232L156.176 376H154.672L152.56 369.04L150.448 376H148.944L146.192 367.232H147.68L149.696 374.592L151.872 367.232H153.36L155.488 374.608L157.472 367.232H158.912ZM159.813 371.584C159.813 370.688 159.994 369.904 160.357 369.232C160.72 368.549 161.216 368.021 161.845 367.648C162.485 367.275 163.194 367.088 163.973 367.088C164.741 367.088 165.408 367.253 165.973 367.584C166.538 367.915 166.96 368.331 167.237 368.832V367.232H168.709V376H167.237V374.368C166.949 374.88 166.517 375.307 165.941 375.648C165.376 375.979 164.714 376.144 163.957 376.144C163.178 376.144 162.474 375.952 161.845 375.568C161.216 375.184 160.72 374.645 160.357 373.952C159.994 373.259 159.813 372.469 159.813 371.584ZM167.237 371.6C167.237 370.939 167.104 370.363 166.837 369.872C166.57 369.381 166.208 369.008 165.749 368.752C165.301 368.485 164.805 368.352 164.261 368.352C163.717 368.352 163.221 368.48 162.773 368.736C162.325 368.992 161.968 369.365 161.701 369.856C161.434 370.347 161.301 370.923 161.301 371.584C161.301 372.256 161.434 372.843 161.701 373.344C161.968 373.835 162.325 374.213 162.773 374.48C163.221 374.736 163.717 374.864 164.261 374.864C164.805 374.864 165.301 374.736 165.749 374.48C166.208 374.213 166.57 373.835 166.837 373.344C167.104 372.843 167.237 372.261 167.237 371.6ZM172.626 364.16V376H171.17V364.16H172.626ZM176.563 364.16V376H175.107V364.16H176.563ZM187.045 371.28C187.045 371.557 187.029 371.851 186.997 372.16H179.989C180.042 373.024 180.335 373.701 180.869 374.192C181.413 374.672 182.069 374.912 182.837 374.912C183.466 374.912 183.989 374.768 184.405 374.48C184.831 374.181 185.13 373.787 185.301 373.296H186.869C186.634 374.139 186.165 374.827 185.461 375.36C184.757 375.883 183.882 376.144 182.837 376.144C182.005 376.144 181.258 375.957 180.597 375.584C179.946 375.211 179.434 374.683 179.061 374C178.687 373.307 178.501 372.507 178.501 371.6C178.501 370.693 178.682 369.899 179.045 369.216C179.407 368.533 179.914 368.011 180.565 367.648C181.226 367.275 181.983 367.088 182.837 367.088C183.669 367.088 184.405 367.269 185.045 367.632C185.685 367.995 186.175 368.496 186.517 369.136C186.869 369.765 187.045 370.48 187.045 371.28ZM185.541 370.976C185.541 370.421 185.418 369.947 185.173 369.552C184.927 369.147 184.591 368.843 184.165 368.64C183.749 368.427 183.285 368.32 182.773 368.32C182.037 368.32 181.407 368.555 180.885 369.024C180.373 369.493 180.079 370.144 180.005 370.976H185.541ZM190.742 368.432V373.6C190.742 374.027 190.833 374.331 191.014 374.512C191.196 374.683 191.51 374.768 191.958 374.768H193.03V376H191.718C190.908 376 190.3 375.813 189.894 375.44C189.489 375.067 189.286 374.453 189.286 373.6V368.432H188.15V367.232H189.286V365.024H190.742V367.232H193.03V368.432H190.742ZM198.516 371.584C198.516 370.688 198.697 369.904 199.06 369.232C199.423 368.549 199.919 368.021 200.548 367.648C201.188 367.275 201.897 367.088 202.676 367.088C203.444 367.088 204.111 367.253 204.676 367.584C205.241 367.915 205.663 368.331 205.94 368.832V367.232H207.412V376H205.94V374.368C205.652 374.88 205.22 375.307 204.644 375.648C204.079 375.979 203.417 376.144 202.66 376.144C201.881 376.144 201.177 375.952 200.548 375.568C199.919 375.184 199.423 374.645 199.06 373.952C198.697 373.259 198.516 372.469 198.516 371.584ZM205.94 371.6C205.94 370.939 205.807 370.363 205.54 369.872C205.273 369.381 204.911 369.008 204.452 368.752C204.004 368.485 203.508 368.352 202.964 368.352C202.42 368.352 201.924 368.48 201.476 368.736C201.028 368.992 200.671 369.365 200.404 369.856C200.137 370.347 200.004 370.923 200.004 371.584C200.004 372.256 200.137 372.843 200.404 373.344C200.671 373.835 201.028 374.213 201.476 374.48C201.924 374.736 202.42 374.864 202.964 374.864C203.508 374.864 204.004 374.736 204.452 374.48C204.911 374.213 205.273 373.835 205.54 373.344C205.807 372.843 205.94 372.261 205.94 371.6ZM209.329 371.6C209.329 370.693 209.51 369.904 209.873 369.232C210.235 368.549 210.737 368.021 211.377 367.648C212.027 367.275 212.769 367.088 213.601 367.088C214.678 367.088 215.563 367.349 216.257 367.872C216.961 368.395 217.425 369.12 217.649 370.048H216.081C215.931 369.515 215.638 369.093 215.201 368.784C214.774 368.475 214.241 368.32 213.601 368.32C212.769 368.32 212.097 368.608 211.585 369.184C211.073 369.749 210.817 370.555 210.817 371.6C210.817 372.656 211.073 373.472 211.585 374.048C212.097 374.624 212.769 374.912 213.601 374.912C214.241 374.912 214.774 374.763 215.201 374.464C215.627 374.165 215.921 373.739 216.081 373.184H217.649C217.414 374.08 216.945 374.8 216.241 375.344C215.537 375.877 214.657 376.144 213.601 376.144C212.769 376.144 212.027 375.957 211.377 375.584C210.737 375.211 210.235 374.683 209.873 374C209.51 373.317 209.329 372.517 209.329 371.6ZM219.047 371.6C219.047 370.693 219.229 369.904 219.591 369.232C219.954 368.549 220.455 368.021 221.095 367.648C221.746 367.275 222.487 367.088 223.319 367.088C224.397 367.088 225.282 367.349 225.975 367.872C226.679 368.395 227.143 369.12 227.367 370.048H225.799C225.65 369.515 225.357 369.093 224.919 368.784C224.493 368.475 223.959 368.32 223.319 368.32C222.487 368.32 221.815 368.608 221.303 369.184C220.791 369.749 220.535 370.555 220.535 371.6C220.535 372.656 220.791 373.472 221.303 374.048C221.815 374.624 222.487 374.912 223.319 374.912C223.959 374.912 224.493 374.763 224.919 374.464C225.346 374.165 225.639 373.739 225.799 373.184H227.367C227.133 374.08 226.663 374.8 225.959 375.344C225.255 375.877 224.375 376.144 223.319 376.144C222.487 376.144 221.746 375.957 221.095 375.584C220.455 375.211 219.954 374.683 219.591 374C219.229 373.317 219.047 372.517 219.047 371.6ZM233.134 376.144C232.313 376.144 231.566 375.957 230.894 375.584C230.233 375.211 229.71 374.683 229.326 374C228.953 373.307 228.766 372.507 228.766 371.6C228.766 370.704 228.958 369.915 229.342 369.232C229.737 368.539 230.27 368.011 230.942 367.648C231.614 367.275 232.366 367.088 233.198 367.088C234.03 367.088 234.782 367.275 235.454 367.648C236.126 368.011 236.654 368.533 237.038 369.216C237.433 369.899 237.63 370.693 237.63 371.6C237.63 372.507 237.427 373.307 237.022 374C236.627 374.683 236.089 375.211 235.406 375.584C234.723 375.957 233.966 376.144 233.134 376.144ZM233.134 374.864C233.657 374.864 234.147 374.741 234.606 374.496C235.065 374.251 235.433 373.883 235.71 373.392C235.998 372.901 236.142 372.304 236.142 371.6C236.142 370.896 236.003 370.299 235.726 369.808C235.449 369.317 235.086 368.955 234.638 368.72C234.19 368.475 233.705 368.352 233.182 368.352C232.649 368.352 232.158 368.475 231.71 368.72C231.273 368.955 230.921 369.317 230.654 369.808C230.387 370.299 230.254 370.896 230.254 371.6C230.254 372.315 230.382 372.917 230.638 373.408C230.905 373.899 231.257 374.267 231.694 374.512C232.131 374.747 232.611 374.864 233.134 374.864ZM247.321 367.232V376H245.865V374.704C245.587 375.152 245.198 375.504 244.697 375.76C244.206 376.005 243.662 376.128 243.065 376.128C242.382 376.128 241.769 375.989 241.225 375.712C240.681 375.424 240.249 374.997 239.929 374.432C239.619 373.867 239.465 373.179 239.465 372.368V367.232H240.905V372.176C240.905 373.04 241.123 373.707 241.561 374.176C241.998 374.635 242.595 374.864 243.353 374.864C244.131 374.864 244.745 374.624 245.193 374.144C245.641 373.664 245.865 372.965 245.865 372.048V367.232H247.321ZM254.051 367.072C255.118 367.072 255.982 367.397 256.643 368.048C257.304 368.688 257.635 369.616 257.635 370.832V376H256.195V371.04C256.195 370.165 255.976 369.499 255.539 369.04C255.102 368.571 254.504 368.336 253.747 368.336C252.979 368.336 252.366 368.576 251.907 369.056C251.459 369.536 251.235 370.235 251.235 371.152V376H249.779V367.232H251.235V368.48C251.523 368.032 251.912 367.685 252.403 367.44C252.904 367.195 253.454 367.072 254.051 367.072ZM261.789 368.432V373.6C261.789 374.027 261.88 374.331 262.061 374.512C262.243 374.683 262.557 374.768 263.005 374.768H264.077V376H262.765C261.955 376 261.347 375.813 260.941 375.44C260.536 375.067 260.333 374.453 260.333 373.6V368.432H259.197V367.232H260.333V365.024H261.789V367.232H264.077V368.432H261.789Z" fill="#D3D3D3"/>
<path d="M149.36 423.54V428.2H154.44V429.7H149.36V434.5H155.04V436H147.54V422.04H155.04V423.54H149.36ZM170.974 424.84C171.827 424.84 172.587 425.02 173.254 425.38C173.921 425.727 174.447 426.253 174.834 426.96C175.221 427.667 175.414 428.527 175.414 429.54V436H173.614V429.8C173.614 428.707 173.341 427.873 172.794 427.3C172.261 426.713 171.534 426.42 170.614 426.42C169.667 426.42 168.914 426.727 168.354 427.34C167.794 427.94 167.514 428.813 167.514 429.96V436H165.714V429.8C165.714 428.707 165.441 427.873 164.894 427.3C164.361 426.713 163.634 426.42 162.714 426.42C161.767 426.42 161.014 426.727 160.454 427.34C159.894 427.94 159.614 428.813 159.614 429.96V436H157.794V425.04H159.614V426.62C159.974 426.047 160.454 425.607 161.054 425.3C161.667 424.993 162.341 424.84 163.074 424.84C163.994 424.84 164.807 425.047 165.514 425.46C166.221 425.873 166.747 426.48 167.094 427.28C167.401 426.507 167.907 425.907 168.614 425.48C169.321 425.053 170.107 424.84 170.974 424.84ZM177.719 430.48C177.719 429.36 177.946 428.38 178.399 427.54C178.853 426.687 179.473 426.027 180.259 425.56C181.059 425.093 181.946 424.86 182.919 424.86C183.879 424.86 184.713 425.067 185.419 425.48C186.126 425.893 186.653 426.413 186.999 427.04V425.04H188.839V436H186.999V433.96C186.639 434.6 186.099 435.133 185.379 435.56C184.673 435.973 183.846 436.18 182.899 436.18C181.926 436.18 181.046 435.94 180.259 435.46C179.473 434.98 178.853 434.307 178.399 433.44C177.946 432.573 177.719 431.587 177.719 430.48ZM186.999 430.5C186.999 429.673 186.833 428.953 186.499 428.34C186.166 427.727 185.713 427.26 185.139 426.94C184.579 426.607 183.959 426.44 183.279 426.44C182.599 426.44 181.979 426.6 181.419 426.92C180.859 427.24 180.413 427.707 180.079 428.32C179.746 428.933 179.579 429.653 179.579 430.48C179.579 431.32 179.746 432.053 180.079 432.68C180.413 433.293 180.859 433.767 181.419 434.1C181.979 434.42 182.599 434.58 183.279 434.58C183.959 434.58 184.579 434.42 185.139 434.1C185.713 433.767 186.166 433.293 186.499 432.68C186.833 432.053 186.999 431.327 186.999 430.5ZM192.855 423.26C192.508 423.26 192.215 423.14 191.975 422.9C191.735 422.66 191.615 422.367 191.615 422.02C191.615 421.673 191.735 421.38 191.975 421.14C192.215 420.9 192.508 420.78 192.855 420.78C193.188 420.78 193.468 420.9 193.695 421.14C193.935 421.38 194.055 421.673 194.055 422.02C194.055 422.367 193.935 422.66 193.695 422.9C193.468 423.14 193.188 423.26 192.855 423.26ZM193.735 425.04V436H191.915V425.04H193.735ZM198.657 421.2V436H196.837V421.2H198.657Z" fill="#D3D3D3"/>
<g filter="url(#filter0_d_513_88)">
<rect x="146.25" y="452.25" width="509.5" height="64.5" rx="4.75" stroke="#D3D3D3" stroke-width="0.5" shape-rendering="crispEdges"/>
</g>
<path d="M156.86 571.14C156.86 572.3 156.46 573.267 155.66 574.04C154.873 574.8 153.667 575.18 152.04 575.18H149.36V581H147.54V567.06H152.04C153.613 567.06 154.807 567.44 155.62 568.2C156.447 568.96 156.86 569.94 156.86 571.14ZM152.04 573.68C153.053 573.68 153.8 573.46 154.28 573.02C154.76 572.58 155 571.953 155 571.14C155 569.42 154.013 568.56 152.04 568.56H149.36V573.68H152.04ZM158.442 575.48C158.442 574.36 158.669 573.38 159.122 572.54C159.575 571.687 160.195 571.027 160.982 570.56C161.782 570.093 162.669 569.86 163.642 569.86C164.602 569.86 165.435 570.067 166.142 570.48C166.849 570.893 167.375 571.413 167.722 572.04V570.04H169.562V581H167.722V578.96C167.362 579.6 166.822 580.133 166.102 580.56C165.395 580.973 164.569 581.18 163.622 581.18C162.649 581.18 161.769 580.94 160.982 580.46C160.195 579.98 159.575 579.307 159.122 578.44C158.669 577.573 158.442 576.587 158.442 575.48ZM167.722 575.5C167.722 574.673 167.555 573.953 167.222 573.34C166.889 572.727 166.435 572.26 165.862 571.94C165.302 571.607 164.682 571.44 164.002 571.44C163.322 571.44 162.702 571.6 162.142 571.92C161.582 572.24 161.135 572.707 160.802 573.32C160.469 573.933 160.302 574.653 160.302 575.48C160.302 576.32 160.469 577.053 160.802 577.68C161.135 578.293 161.582 578.767 162.142 579.1C162.702 579.42 163.322 579.58 164.002 579.58C164.682 579.58 165.302 579.42 165.862 579.1C166.435 578.767 166.889 578.293 167.222 577.68C167.555 577.053 167.722 576.327 167.722 575.5ZM176.518 581.18C175.678 581.18 174.924 581.04 174.258 580.76C173.591 580.467 173.064 580.067 172.678 579.56C172.291 579.04 172.078 578.447 172.038 577.78H173.918C173.971 578.327 174.224 578.773 174.678 579.12C175.144 579.467 175.751 579.64 176.498 579.64C177.191 579.64 177.738 579.487 178.138 579.18C178.538 578.873 178.738 578.487 178.738 578.02C178.738 577.54 178.524 577.187 178.098 576.96C177.671 576.72 177.011 576.487 176.118 576.26C175.304 576.047 174.638 575.833 174.118 575.62C173.611 575.393 173.171 575.067 172.798 574.64C172.438 574.2 172.258 573.627 172.258 572.92C172.258 572.36 172.424 571.847 172.758 571.38C173.091 570.913 173.564 570.547 174.178 570.28C174.791 570 175.491 569.86 176.278 569.86C177.491 569.86 178.471 570.167 179.218 570.78C179.964 571.393 180.364 572.233 180.418 573.3H178.598C178.558 572.727 178.324 572.267 177.898 571.92C177.484 571.573 176.924 571.4 176.218 571.4C175.564 571.4 175.044 571.54 174.658 571.82C174.271 572.1 174.078 572.467 174.078 572.92C174.078 573.28 174.191 573.58 174.418 573.82C174.658 574.047 174.951 574.233 175.298 574.38C175.658 574.513 176.151 574.667 176.778 574.84C177.564 575.053 178.204 575.267 178.698 575.48C179.191 575.68 179.611 575.987 179.958 576.4C180.318 576.813 180.504 577.353 180.518 578.02C180.518 578.62 180.351 579.16 180.018 579.64C179.684 580.12 179.211 580.5 178.598 580.78C177.998 581.047 177.304 581.18 176.518 581.18ZM186.967 581.18C186.127 581.18 185.374 581.04 184.707 580.76C184.04 580.467 183.514 580.067 183.127 579.56C182.74 579.04 182.527 578.447 182.487 577.78H184.367C184.42 578.327 184.674 578.773 185.127 579.12C185.594 579.467 186.2 579.64 186.947 579.64C187.64 579.64 188.187 579.487 188.587 579.18C188.987 578.873 189.187 578.487 189.187 578.02C189.187 577.54 188.974 577.187 188.547 576.96C188.12 576.72 187.46 576.487 186.567 576.26C185.754 576.047 185.087 575.833 184.567 575.62C184.06 575.393 183.62 575.067 183.247 574.64C182.887 574.2 182.707 573.627 182.707 572.92C182.707 572.36 182.874 571.847 183.207 571.38C183.54 570.913 184.014 570.547 184.627 570.28C185.24 570 185.94 569.86 186.727 569.86C187.94 569.86 188.92 570.167 189.667 570.78C190.414 571.393 190.814 572.233 190.867 573.3H189.047C189.007 572.727 188.774 572.267 188.347 571.92C187.934 571.573 187.374 571.4 186.667 571.4C186.014 571.4 185.494 571.54 185.107 571.82C184.72 572.1 184.527 572.467 184.527 572.92C184.527 573.28 184.64 573.58 184.867 573.82C185.107 574.047 185.4 574.233 185.747 574.38C186.107 574.513 186.6 574.667 187.227 574.84C188.014 575.053 188.654 575.267 189.147 575.48C189.64 575.68 190.06 575.987 190.407 576.4C190.767 576.813 190.954 577.353 190.967 578.02C190.967 578.62 190.8 579.16 190.467 579.64C190.134 580.12 189.66 580.5 189.047 580.78C188.447 581.047 187.754 581.18 186.967 581.18ZM208.136 570.04L204.716 581H202.836L200.196 572.3L197.556 581H195.676L192.236 570.04H194.096L196.616 579.24L199.336 570.04H201.196L203.856 579.26L206.336 570.04H208.136ZM214.722 581.18C213.696 581.18 212.762 580.947 211.922 580.48C211.096 580.013 210.442 579.353 209.962 578.5C209.496 577.633 209.262 576.633 209.262 575.5C209.262 574.38 209.502 573.393 209.982 572.54C210.476 571.673 211.142 571.013 211.982 570.56C212.822 570.093 213.762 569.86 214.802 569.86C215.842 569.86 216.782 570.093 217.622 570.56C218.462 571.013 219.122 571.667 219.602 572.52C220.096 573.373 220.342 574.367 220.342 575.5C220.342 576.633 220.089 577.633 219.582 578.5C219.089 579.353 218.416 580.013 217.562 580.48C216.709 580.947 215.762 581.18 214.722 581.18ZM214.722 579.58C215.376 579.58 215.989 579.427 216.562 579.12C217.136 578.813 217.596 578.353 217.942 577.74C218.302 577.127 218.482 576.38 218.482 575.5C218.482 574.62 218.309 573.873 217.962 573.26C217.616 572.647 217.162 572.193 216.602 571.9C216.042 571.593 215.436 571.44 214.782 571.44C214.116 571.44 213.502 571.593 212.942 571.9C212.396 572.193 211.956 572.647 211.622 573.26C211.289 573.873 211.122 574.62 211.122 575.5C211.122 576.393 211.282 577.147 211.602 577.76C211.936 578.373 212.376 578.833 212.922 579.14C213.469 579.433 214.069 579.58 214.722 579.58ZM224.555 571.82C224.875 571.193 225.329 570.707 225.915 570.36C226.515 570.013 227.242 569.84 228.095 569.84V571.72H227.615C225.575 571.72 224.555 572.827 224.555 575.04V581H222.735V570.04H224.555V571.82ZM229.516 575.48C229.516 574.36 229.743 573.38 230.196 572.54C230.65 571.687 231.27 571.027 232.056 570.56C232.856 570.093 233.75 569.86 234.736 569.86C235.59 569.86 236.383 570.06 237.116 570.46C237.85 570.847 238.41 571.36 238.796 572V566.2H240.636V581H238.796V578.94C238.436 579.593 237.903 580.133 237.196 580.56C236.49 580.973 235.663 581.18 234.716 581.18C233.743 581.18 232.856 580.94 232.056 580.46C231.27 579.98 230.65 579.307 230.196 578.44C229.743 577.573 229.516 576.587 229.516 575.48ZM238.796 575.5C238.796 574.673 238.63 573.953 238.296 573.34C237.963 572.727 237.51 572.26 236.936 571.94C236.376 571.607 235.756 571.44 235.076 571.44C234.396 571.44 233.776 571.6 233.216 571.92C232.656 572.24 232.21 572.707 231.876 573.32C231.543 573.933 231.376 574.653 231.376 575.48C231.376 576.32 231.543 577.053 231.876 577.68C232.21 578.293 232.656 578.767 233.216 579.1C233.776 579.42 234.396 579.58 235.076 579.58C235.756 579.58 236.376 579.42 236.936 579.1C237.51 578.767 237.963 578.293 238.296 577.68C238.63 577.053 238.796 576.327 238.796 575.5Z" fill="#D3D3D3"/>
<g filter="url(#filter1_d_513_88)">
<rect x="146.25" y="597.25" width="509.5" height="64.5" rx="4.75" stroke="#D3D3D3" stroke-width="0.5" shape-rendering="crispEdges"/>
</g>
<g filter="url(#filter2_d_513_88)">
<rect x="146" y="704" width="510" height="70" rx="5" fill="#D3D3D3"/>
</g>
<path d="M359.917 747.336H365.437V750H356.557V733.248H359.917V747.336ZM373.477 750.216C372.197 750.216 371.045 749.936 370.021 749.376C368.997 748.8 368.189 747.992 367.597 746.952C367.021 745.912 366.733 744.712 366.733 743.352C366.733 741.992 367.029 740.792 367.621 739.752C368.229 738.712 369.053 737.912 370.093 737.352C371.133 736.776 372.293 736.488 373.573 736.488C374.853 736.488 376.013 736.776 377.053 737.352C378.093 737.912 378.909 738.712 379.501 739.752C380.109 740.792 380.413 741.992 380.413 743.352C380.413 744.712 380.101 745.912 379.477 746.952C378.869 747.992 378.037 748.8 376.981 749.376C375.941 749.936 374.773 750.216 373.477 750.216ZM373.477 747.288C374.085 747.288 374.653 747.144 375.181 746.856C375.725 746.552 376.157 746.104 376.477 745.512C376.797 744.92 376.957 744.2 376.957 743.352C376.957 742.088 376.621 741.12 375.949 740.448C375.293 739.76 374.485 739.416 373.525 739.416C372.565 739.416 371.757 739.76 371.101 740.448C370.461 741.12 370.141 742.088 370.141 743.352C370.141 744.616 370.453 745.592 371.077 746.28C371.717 746.952 372.517 747.288 373.477 747.288ZM388.086 736.488C389.078 736.488 389.95 736.688 390.702 737.088C391.454 737.472 392.046 737.976 392.478 738.6V736.704H395.862V750.096C395.862 751.328 395.614 752.424 395.118 753.384C394.622 754.36 393.878 755.128 392.886 755.688C391.894 756.264 390.694 756.552 389.286 756.552C387.398 756.552 385.846 756.112 384.63 755.232C383.43 754.352 382.75 753.152 382.59 751.632H385.926C386.102 752.24 386.478 752.72 387.054 753.072C387.646 753.44 388.358 753.624 389.19 753.624C390.166 753.624 390.958 753.328 391.566 752.736C392.174 752.16 392.478 751.28 392.478 750.096V748.032C392.046 748.656 391.446 749.176 390.678 749.592C389.926 750.008 389.062 750.216 388.086 750.216C386.966 750.216 385.942 749.928 385.014 749.352C384.086 748.776 383.35 747.968 382.806 746.928C382.278 745.872 382.014 744.664 382.014 743.304C382.014 741.96 382.278 740.768 382.806 739.728C383.35 738.688 384.078 737.888 384.99 737.328C385.918 736.768 386.95 736.488 388.086 736.488ZM392.478 743.352C392.478 742.536 392.318 741.84 391.998 741.264C391.678 740.672 391.246 740.224 390.702 739.92C390.158 739.6 389.574 739.44 388.95 739.44C388.326 739.44 387.75 739.592 387.222 739.896C386.694 740.2 386.262 740.648 385.926 741.24C385.606 741.816 385.446 742.504 385.446 743.304C385.446 744.104 385.606 744.808 385.926 745.416C386.262 746.008 386.694 746.464 387.222 746.784C387.766 747.104 388.342 747.264 388.95 747.264C389.574 747.264 390.158 747.112 390.702 746.808C391.246 746.488 391.678 746.04 391.998 745.464C392.318 744.872 392.478 744.168 392.478 743.352ZM400.847 735.12C400.255 735.12 399.759 734.936 399.359 734.568C398.975 734.184 398.783 733.712 398.783 733.152C398.783 732.592 398.975 732.128 399.359 731.76C399.759 731.376 400.255 731.184 400.847 731.184C401.439 731.184 401.927 731.376 402.311 731.76C402.711 732.128 402.911 732.592 402.911 733.152C402.911 733.712 402.711 734.184 402.311 734.568C401.927 734.936 401.439 735.12 400.847 735.12ZM402.503 736.704V750H399.143V736.704H402.503ZM413.191 736.512C414.775 736.512 416.055 737.016 417.031 738.024C418.007 739.016 418.495 740.408 418.495 742.2V750H415.135V742.656C415.135 741.6 414.871 740.792 414.343 740.232C413.815 739.656 413.095 739.368 412.183 739.368C411.255 739.368 410.519 739.656 409.975 740.232C409.447 740.792 409.183 741.6 409.183 742.656V750H405.823V736.704H409.183V738.36C409.631 737.784 410.199 737.336 410.887 737.016C411.591 736.68 412.359 736.512 413.191 736.512Z" fill="white"/>
<path d="M274.704 826.848C275.92 826.848 276.971 827.077 277.856 827.536C278.752 827.984 279.435 828.629 279.904 829.472C280.384 830.315 280.624 831.307 280.624 832.448C280.624 833.589 280.384 834.581 279.904 835.424C279.435 836.256 278.752 836.896 277.856 837.344C276.971 837.781 275.92 838 274.704 838H271.232V826.848H274.704ZM274.704 836.8C276.144 836.8 277.243 836.421 278 835.664C278.757 834.896 279.136 833.824 279.136 832.448C279.136 831.061 278.752 829.979 277.984 829.2C277.227 828.421 276.133 828.032 274.704 828.032H272.688V836.8H274.704ZM286.369 838.144C285.547 838.144 284.801 837.957 284.129 837.584C283.467 837.211 282.945 836.683 282.561 836C282.187 835.307 282.001 834.507 282.001 833.6C282.001 832.704 282.193 831.915 282.577 831.232C282.971 830.539 283.505 830.011 284.177 829.648C284.849 829.275 285.601 829.088 286.433 829.088C287.265 829.088 288.017 829.275 288.689 829.648C289.361 830.011 289.889 830.533 290.273 831.216C290.667 831.899 290.865 832.693 290.865 833.6C290.865 834.507 290.662 835.307 290.257 836C289.862 836.683 289.323 837.211 288.641 837.584C287.958 837.957 287.201 838.144 286.369 838.144ZM286.369 836.864C286.891 836.864 287.382 836.741 287.841 836.496C288.299 836.251 288.667 835.883 288.945 835.392C289.233 834.901 289.377 834.304 289.377 833.6C289.377 832.896 289.238 832.299 288.961 831.808C288.683 831.317 288.321 830.955 287.873 830.72C287.425 830.475 286.939 830.352 286.417 830.352C285.883 830.352 285.393 830.475 284.945 830.72C284.507 830.955 284.155 831.317 283.889 831.808C283.622 832.299 283.489 832.896 283.489 833.6C283.489 834.315 283.617 834.917 283.873 835.408C284.139 835.899 284.491 836.267 284.929 836.512C285.366 836.747 285.846 836.864 286.369 836.864ZM297.051 829.072C298.118 829.072 298.982 829.397 299.643 830.048C300.304 830.688 300.635 831.616 300.635 832.832V838H299.195V833.04C299.195 832.165 298.976 831.499 298.539 831.04C298.102 830.571 297.504 830.336 296.747 830.336C295.979 830.336 295.366 830.576 294.907 831.056C294.459 831.536 294.235 832.235 294.235 833.152V838H292.779V829.232H294.235V830.48C294.523 830.032 294.912 829.685 295.403 829.44C295.904 829.195 296.454 829.072 297.051 829.072ZM304.789 830.432V835.6C304.789 836.027 304.88 836.331 305.061 836.512C305.243 836.683 305.557 836.768 306.005 836.768H307.077V838H305.765C304.955 838 304.347 837.813 303.941 837.44C303.536 837.067 303.333 836.453 303.333 835.6V830.432H302.197V829.232H303.333V827.024H304.789V829.232H307.077V830.432H304.789ZM317.459 829.072C318.12 829.072 318.718 829.216 319.251 829.504C319.784 829.781 320.2 830.203 320.499 830.768C320.808 831.333 320.963 832.021 320.963 832.832V838H319.523V833.04C319.523 832.165 319.304 831.499 318.867 831.04C318.43 830.571 317.832 830.336 317.075 830.336C316.307 830.336 315.694 830.576 315.235 831.056C314.787 831.536 314.563 832.235 314.563 833.152V838H313.107V826.16H314.563V830.48C314.851 830.032 315.246 829.685 315.747 829.44C316.259 829.195 316.83 829.072 317.459 829.072ZM322.797 833.584C322.797 832.688 322.979 831.904 323.341 831.232C323.704 830.549 324.2 830.021 324.829 829.648C325.469 829.275 326.179 829.088 326.957 829.088C327.725 829.088 328.392 829.253 328.957 829.584C329.523 829.915 329.944 830.331 330.221 830.832V829.232H331.693V838H330.221V836.368C329.933 836.88 329.501 837.307 328.925 837.648C328.36 837.979 327.699 838.144 326.941 838.144C326.163 838.144 325.459 837.952 324.829 837.568C324.2 837.184 323.704 836.645 323.341 835.952C322.979 835.259 322.797 834.469 322.797 833.584ZM330.221 833.6C330.221 832.939 330.088 832.363 329.821 831.872C329.555 831.381 329.192 831.008 328.733 830.752C328.285 830.485 327.789 830.352 327.245 830.352C326.701 830.352 326.205 830.48 325.757 830.736C325.309 830.992 324.952 831.365 324.685 831.856C324.419 832.347 324.285 832.923 324.285 833.584C324.285 834.256 324.419 834.843 324.685 835.344C324.952 835.835 325.309 836.213 325.757 836.48C326.205 836.736 326.701 836.864 327.245 836.864C327.789 836.864 328.285 836.736 328.733 836.48C329.192 836.213 329.555 835.835 329.821 835.344C330.088 834.843 330.221 834.261 330.221 833.6ZM337.418 836.656L340.138 829.232H341.69L338.25 838H336.554L333.114 829.232H334.682L337.418 836.656ZM351.123 833.28C351.123 833.557 351.107 833.851 351.075 834.16H344.067C344.12 835.024 344.413 835.701 344.947 836.192C345.491 836.672 346.147 836.912 346.915 836.912C347.544 836.912 348.067 836.768 348.483 836.48C348.909 836.181 349.208 835.787 349.379 835.296H350.947C350.712 836.139 350.243 836.827 349.539 837.36C348.835 837.883 347.96 838.144 346.915 838.144C346.083 838.144 345.336 837.957 344.675 837.584C344.024 837.211 343.512 836.683 343.139 836C342.765 835.307 342.579 834.507 342.579 833.6C342.579 832.693 342.76 831.899 343.123 831.216C343.485 830.533 343.992 830.011 344.643 829.648C345.304 829.275 346.061 829.088 346.915 829.088C347.747 829.088 348.483 829.269 349.123 829.632C349.763 829.995 350.253 830.496 350.595 831.136C350.947 831.765 351.123 832.48 351.123 833.28ZM349.619 832.976C349.619 832.421 349.496 831.947 349.251 831.552C349.005 831.147 348.669 830.843 348.243 830.64C347.827 830.427 347.363 830.32 346.851 830.32C346.115 830.32 345.485 830.555 344.963 831.024C344.451 831.493 344.157 832.144 344.083 832.976H349.619ZM356.766 833.584C356.766 832.688 356.947 831.904 357.31 831.232C357.673 830.549 358.169 830.021 358.798 829.648C359.438 829.275 360.147 829.088 360.926 829.088C361.694 829.088 362.361 829.253 362.926 829.584C363.491 829.915 363.913 830.331 364.19 830.832V829.232H365.662V838H364.19V836.368C363.902 836.88 363.47 837.307 362.894 837.648C362.329 837.979 361.667 838.144 360.91 838.144C360.131 838.144 359.427 837.952 358.798 837.568C358.169 837.184 357.673 836.645 357.31 835.952C356.947 835.259 356.766 834.469 356.766 833.584ZM364.19 833.6C364.19 832.939 364.057 832.363 363.79 831.872C363.523 831.381 363.161 831.008 362.702 830.752C362.254 830.485 361.758 830.352 361.214 830.352C360.67 830.352 360.174 830.48 359.726 830.736C359.278 830.992 358.921 831.365 358.654 831.856C358.387 832.347 358.254 832.923 358.254 833.584C358.254 834.256 358.387 834.843 358.654 835.344C358.921 835.835 359.278 836.213 359.726 836.48C360.174 836.736 360.67 836.864 361.214 836.864C361.758 836.864 362.254 836.736 362.702 836.48C363.161 836.213 363.523 835.835 363.79 835.344C364.057 834.843 364.19 834.261 364.19 833.6ZM372.395 829.072C373.461 829.072 374.325 829.397 374.987 830.048C375.648 830.688 375.979 831.616 375.979 832.832V838H374.539V833.04C374.539 832.165 374.32 831.499 373.883 831.04C373.445 830.571 372.848 830.336 372.091 830.336C371.323 830.336 370.709 830.576 370.251 831.056C369.803 831.536 369.579 832.235 369.579 833.152V838H368.123V829.232H369.579V830.48C369.867 830.032 370.256 829.685 370.747 829.44C371.248 829.195 371.797 829.072 372.395 829.072ZM382.079 833.584C382.079 832.688 382.26 831.904 382.623 831.232C382.985 830.549 383.481 830.021 384.111 829.648C384.751 829.275 385.46 829.088 386.239 829.088C387.007 829.088 387.673 829.253 388.239 829.584C388.804 829.915 389.225 830.331 389.503 830.832V829.232H390.975V838H389.503V836.368C389.215 836.88 388.783 837.307 388.207 837.648C387.641 837.979 386.98 838.144 386.223 838.144C385.444 838.144 384.74 837.952 384.111 837.568C383.481 837.184 382.985 836.645 382.623 835.952C382.26 835.259 382.079 834.469 382.079 833.584ZM389.503 833.6C389.503 832.939 389.369 832.363 389.103 831.872C388.836 831.381 388.473 831.008 388.015 830.752C387.567 830.485 387.071 830.352 386.527 830.352C385.983 830.352 385.487 830.48 385.039 830.736C384.591 830.992 384.233 831.365 383.967 831.856C383.7 832.347 383.567 832.923 383.567 833.584C383.567 834.256 383.7 834.843 383.967 835.344C384.233 835.835 384.591 836.213 385.039 836.48C385.487 836.736 385.983 836.864 386.527 836.864C387.071 836.864 387.567 836.736 388.015 836.48C388.473 836.213 388.836 835.835 389.103 835.344C389.369 834.843 389.503 834.261 389.503 833.6ZM392.891 833.6C392.891 832.693 393.072 831.904 393.435 831.232C393.798 830.549 394.299 830.021 394.939 829.648C395.59 829.275 396.331 829.088 397.163 829.088C398.24 829.088 399.126 829.349 399.819 829.872C400.523 830.395 400.987 831.12 401.211 832.048H399.643C399.494 831.515 399.2 831.093 398.763 830.784C398.336 830.475 397.803 830.32 397.163 830.32C396.331 830.32 395.659 830.608 395.147 831.184C394.635 831.749 394.379 832.555 394.379 833.6C394.379 834.656 394.635 835.472 395.147 836.048C395.659 836.624 396.331 836.912 397.163 836.912C397.803 836.912 398.336 836.763 398.763 836.464C399.19 836.165 399.483 835.739 399.643 835.184H401.211C400.976 836.08 400.507 836.8 399.803 837.344C399.099 837.877 398.219 838.144 397.163 838.144C396.331 838.144 395.59 837.957 394.939 837.584C394.299 837.211 393.798 836.683 393.435 836C393.072 835.317 392.891 834.517 392.891 833.6ZM402.61 833.6C402.61 832.693 402.791 831.904 403.154 831.232C403.517 830.549 404.018 830.021 404.658 829.648C405.309 829.275 406.05 829.088 406.882 829.088C407.959 829.088 408.845 829.349 409.538 829.872C410.242 830.395 410.706 831.12 410.93 832.048H409.362C409.213 831.515 408.919 831.093 408.482 830.784C408.055 830.475 407.522 830.32 406.882 830.32C406.05 830.32 405.378 830.608 404.866 831.184C404.354 831.749 404.098 832.555 404.098 833.6C404.098 834.656 404.354 835.472 404.866 836.048C405.378 836.624 406.05 836.912 406.882 836.912C407.522 836.912 408.055 836.763 408.482 836.464C408.909 836.165 409.202 835.739 409.362 835.184H410.93C410.695 836.08 410.226 836.8 409.522 837.344C408.818 837.877 407.938 838.144 406.882 838.144C406.05 838.144 405.309 837.957 404.658 837.584C404.018 837.211 403.517 836.683 403.154 836C402.791 835.317 402.61 834.517 402.61 833.6ZM416.697 838.144C415.875 838.144 415.129 837.957 414.457 837.584C413.795 837.211 413.273 836.683 412.889 836C412.515 835.307 412.329 834.507 412.329 833.6C412.329 832.704 412.521 831.915 412.905 831.232C413.299 830.539 413.833 830.011 414.505 829.648C415.177 829.275 415.929 829.088 416.761 829.088C417.593 829.088 418.345 829.275 419.017 829.648C419.689 830.011 420.217 830.533 420.601 831.216C420.995 831.899 421.193 832.693 421.193 833.6C421.193 834.507 420.99 835.307 420.585 836C420.19 836.683 419.651 837.211 418.969 837.584C418.286 837.957 417.529 838.144 416.697 838.144ZM416.697 836.864C417.219 836.864 417.71 836.741 418.169 836.496C418.627 836.251 418.995 835.883 419.273 835.392C419.561 834.901 419.705 834.304 419.705 833.6C419.705 832.896 419.566 832.299 419.289 831.808C419.011 831.317 418.649 830.955 418.201 830.72C417.753 830.475 417.267 830.352 416.745 830.352C416.211 830.352 415.721 830.475 415.273 830.72C414.835 830.955 414.483 831.317 414.217 831.808C413.95 832.299 413.817 832.896 413.817 833.6C413.817 834.315 413.945 834.917 414.201 835.408C414.467 835.899 414.819 836.267 415.257 836.512C415.694 836.747 416.174 836.864 416.697 836.864ZM430.883 829.232V838H429.427V836.704C429.15 837.152 428.76 837.504 428.259 837.76C427.768 838.005 427.224 838.128 426.627 838.128C425.944 838.128 425.331 837.989 424.787 837.712C424.243 837.424 423.811 836.997 423.491 836.432C423.182 835.867 423.027 835.179 423.027 834.368V829.232H424.467V834.176C424.467 835.04 424.686 835.707 425.123 836.176C425.56 836.635 426.158 836.864 426.915 836.864C427.694 836.864 428.307 836.624 428.755 836.144C429.203 835.664 429.427 834.965 429.427 834.048V829.232H430.883ZM437.613 829.072C438.68 829.072 439.544 829.397 440.205 830.048C440.867 830.688 441.197 831.616 441.197 832.832V838H439.757V833.04C439.757 832.165 439.539 831.499 439.101 831.04C438.664 830.571 438.067 830.336 437.309 830.336C436.541 830.336 435.928 830.576 435.469 831.056C435.021 831.536 434.797 832.235 434.797 833.152V838H433.341V829.232H434.797V830.48C435.085 830.032 435.475 829.685 435.965 829.44C436.467 829.195 437.016 829.072 437.613 829.072ZM445.352 830.432V835.6C445.352 836.027 445.442 836.331 445.624 836.512C445.805 836.683 446.12 836.768 446.568 836.768H447.64V838H446.328C445.517 838 444.909 837.813 444.504 837.44C444.098 837.067 443.896 836.453 443.896 835.6V830.432H442.76V829.232H443.896V827.024H445.352V829.232H447.64V830.432H445.352ZM456.518 826.704C457.574 826.704 458.427 827.003 459.078 827.6C459.728 828.197 460.054 828.997 460.054 830C460.054 831.12 459.707 831.952 459.014 832.496C458.32 833.029 457.382 833.296 456.198 833.296L456.15 834.816H454.886L454.822 832.288H455.286C456.342 832.288 457.168 832.128 457.766 831.808C458.363 831.488 458.662 830.885 458.662 830C458.662 829.36 458.47 828.853 458.086 828.48C457.702 828.107 457.184 827.92 456.534 827.92C455.872 827.92 455.35 828.101 454.966 828.464C454.592 828.816 454.406 829.301 454.406 829.92H453.03C453.03 829.28 453.174 828.72 453.462 828.24C453.75 827.749 454.155 827.371 454.678 827.104C455.211 826.837 455.824 826.704 456.518 826.704ZM455.51 838.096C455.232 838.096 454.998 838 454.806 837.808C454.614 837.616 454.518 837.381 454.518 837.104C454.518 836.827 454.614 836.592 454.806 836.4C454.998 836.208 455.232 836.112 455.51 836.112C455.776 836.112 456 836.208 456.182 836.4C456.374 836.592 456.47 836.827 456.47 837.104C456.47 837.381 456.374 837.616 456.182 837.808C456 838 455.776 838.096 455.51 838.096ZM464.908 826.704C465.964 826.704 466.817 827.003 467.468 827.6C468.119 828.197 468.444 828.997 468.444 830C468.444 831.12 468.097 831.952 467.404 832.496C466.711 833.029 465.772 833.296 464.588 833.296L464.54 834.816H463.276L463.212 832.288H463.676C464.732 832.288 465.559 832.128 466.156 831.808C466.753 831.488 467.052 830.885 467.052 830C467.052 829.36 466.86 828.853 466.476 828.48C466.092 828.107 465.575 827.92 464.924 827.92C464.263 827.92 463.74 828.101 463.356 828.464C462.983 828.816 462.796 829.301 462.796 829.92H461.42C461.42 829.28 461.564 828.72 461.852 828.24C462.14 827.749 462.545 827.371 463.068 827.104C463.601 826.837 464.215 826.704 464.908 826.704ZM463.9 838.096C463.623 838.096 463.388 838 463.196 837.808C463.004 837.616 462.908 837.381 462.908 837.104C462.908 836.827 463.004 836.592 463.196 836.4C463.388 836.208 463.623 836.112 463.9 836.112C464.167 836.112 464.391 836.208 464.572 836.4C464.764 836.592 464.86 836.827 464.86 837.104C464.86 837.381 464.764 837.616 464.572 837.808C464.391 838 464.167 838.096 463.9 838.096ZM478.252 838.112C477.516 838.112 476.855 837.984 476.268 837.728C475.692 837.461 475.239 837.099 474.908 836.64C474.578 836.171 474.407 835.632 474.396 835.024H475.948C476.002 835.547 476.215 835.989 476.588 836.352C476.972 836.704 477.527 836.88 478.252 836.88C478.946 836.88 479.49 836.709 479.884 836.368C480.29 836.016 480.492 835.568 480.492 835.024C480.492 834.597 480.375 834.251 480.14 833.984C479.906 833.717 479.612 833.515 479.26 833.376C478.908 833.237 478.434 833.088 477.836 832.928C477.1 832.736 476.508 832.544 476.06 832.352C475.623 832.16 475.244 831.861 474.924 831.456C474.615 831.04 474.46 830.485 474.46 829.792C474.46 829.184 474.615 828.645 474.924 828.176C475.234 827.707 475.666 827.344 476.22 827.088C476.786 826.832 477.431 826.704 478.156 826.704C479.202 826.704 480.055 826.965 480.716 827.488C481.388 828.011 481.767 828.704 481.852 829.568H480.252C480.199 829.141 479.975 828.768 479.58 828.448C479.186 828.117 478.663 827.952 478.012 827.952C477.404 827.952 476.908 828.112 476.524 828.432C476.14 828.741 475.948 829.179 475.948 829.744C475.948 830.149 476.06 830.48 476.284 830.736C476.519 830.992 476.802 831.189 477.132 831.328C477.474 831.456 477.948 831.605 478.556 831.776C479.292 831.979 479.884 832.181 480.332 832.384C480.78 832.576 481.164 832.88 481.484 833.296C481.804 833.701 481.964 834.256 481.964 834.96C481.964 835.504 481.82 836.016 481.532 836.496C481.244 836.976 480.818 837.365 480.252 837.664C479.687 837.963 479.02 838.112 478.252 838.112ZM484.859 827.808C484.582 827.808 484.347 827.712 484.155 827.52C483.963 827.328 483.867 827.093 483.867 826.816C483.867 826.539 483.963 826.304 484.155 826.112C484.347 825.92 484.582 825.824 484.859 825.824C485.126 825.824 485.35 825.92 485.531 826.112C485.723 826.304 485.819 826.539 485.819 826.816C485.819 827.093 485.723 827.328 485.531 827.52C485.35 827.712 485.126 827.808 484.859 827.808ZM485.563 829.232V838H484.107V829.232H485.563ZM491.661 829.088C492.418 829.088 493.079 829.253 493.645 829.584C494.221 829.915 494.647 830.331 494.925 830.832V829.232H496.397V838.192C496.397 838.992 496.226 839.701 495.885 840.32C495.543 840.949 495.053 841.44 494.413 841.792C493.783 842.144 493.047 842.32 492.205 842.32C491.053 842.32 490.093 842.048 489.325 841.504C488.557 840.96 488.103 840.219 487.965 839.28H489.405C489.565 839.813 489.895 840.24 490.397 840.56C490.898 840.891 491.501 841.056 492.205 841.056C493.005 841.056 493.655 840.805 494.157 840.304C494.669 839.803 494.925 839.099 494.925 838.192V836.352C494.637 836.864 494.21 837.291 493.645 837.632C493.079 837.973 492.418 838.144 491.661 838.144C490.882 838.144 490.173 837.952 489.533 837.568C488.903 837.184 488.407 836.645 488.045 835.952C487.682 835.259 487.501 834.469 487.501 833.584C487.501 832.688 487.682 831.904 488.045 831.232C488.407 830.549 488.903 830.021 489.533 829.648C490.173 829.275 490.882 829.088 491.661 829.088ZM494.925 833.6C494.925 832.939 494.791 832.363 494.525 831.872C494.258 831.381 493.895 831.008 493.437 830.752C492.989 830.485 492.493 830.352 491.949 830.352C491.405 830.352 490.909 830.48 490.461 830.736C490.013 830.992 489.655 831.365 489.389 831.856C489.122 832.347 488.989 832.923 488.989 833.584C488.989 834.256 489.122 834.843 489.389 835.344C489.655 835.835 490.013 836.213 490.461 836.48C490.909 836.736 491.405 836.864 491.949 836.864C492.493 836.864 492.989 836.736 493.437 836.48C493.895 836.213 494.258 835.835 494.525 835.344C494.791 834.843 494.925 834.261 494.925 833.6ZM503.129 829.072C504.196 829.072 505.06 829.397 505.721 830.048C506.382 830.688 506.713 831.616 506.713 832.832V838H505.273V833.04C505.273 832.165 505.054 831.499 504.617 831.04C504.18 830.571 503.582 830.336 502.825 830.336C502.057 830.336 501.444 830.576 500.985 831.056C500.537 831.536 500.313 832.235 500.313 833.152V838H498.857V829.232H500.313V830.48C500.601 830.032 500.99 829.685 501.481 829.44C501.982 829.195 502.532 829.072 503.129 829.072ZM516.867 829.232V838H515.411V836.704C515.134 837.152 514.745 837.504 514.243 837.76C513.753 838.005 513.209 838.128 512.611 838.128C511.929 838.128 511.315 837.989 510.771 837.712C510.227 837.424 509.795 836.997 509.475 836.432C509.166 835.867 509.011 835.179 509.011 834.368V829.232H510.451V834.176C510.451 835.04 510.67 835.707 511.107 836.176C511.545 836.635 512.142 836.864 512.899 836.864C513.678 836.864 514.291 836.624 514.739 836.144C515.187 835.664 515.411 834.965 515.411 834.048V829.232H516.867ZM520.782 830.848C521.07 830.347 521.496 829.931 522.062 829.6C522.638 829.259 523.304 829.088 524.062 829.088C524.84 829.088 525.544 829.275 526.174 829.648C526.814 830.021 527.315 830.549 527.678 831.232C528.04 831.904 528.222 832.688 528.222 833.584C528.222 834.469 528.04 835.259 527.678 835.952C527.315 836.645 526.814 837.184 526.174 837.568C525.544 837.952 524.84 838.144 524.062 838.144C523.315 838.144 522.654 837.979 522.078 837.648C521.512 837.307 521.08 836.885 520.782 836.384V842.16H519.326V829.232H520.782V830.848ZM526.734 833.584C526.734 832.923 526.6 832.347 526.334 831.856C526.067 831.365 525.704 830.992 525.246 830.736C524.798 830.48 524.302 830.352 523.758 830.352C523.224 830.352 522.728 830.485 522.27 830.752C521.822 831.008 521.459 831.387 521.182 831.888C520.915 832.379 520.782 832.949 520.782 833.6C520.782 834.261 520.915 834.843 521.182 835.344C521.459 835.835 521.822 836.213 522.27 836.48C522.728 836.736 523.224 836.864 523.758 836.864C524.302 836.864 524.798 836.736 525.246 836.48C525.704 836.213 526.067 835.835 526.334 835.344C526.6 834.843 526.734 834.256 526.734 833.584Z" fill="#D3D3D3"/>
<rect x="864" width="864" height="1117" fill="#C4C4C4"/>
<path d="M90.936 75.44V88.528C90.936 89.744 91.2133 90.6827 91.768 91.344C92.344 92.0053 93.208 92.336 94.36 92.336C95.512 92.336 96.376 92.0053 96.952 91.344C97.5493 90.6613 97.848 89.7227 97.848 88.528V75.44H104.12V88.528C104.12 90.5973 103.683 92.368 102.808 93.84C101.933 95.2907 100.739 96.3893 99.224 97.136C97.7307 97.8613 96.0667 98.224 94.232 98.224C92.3973 98.224 90.7547 97.8613 89.304 97.136C87.8747 96.3893 86.744 95.2907 85.912 93.84C85.1013 92.3893 84.696 90.6187 84.696 88.528V75.44H90.936ZM113.845 82.544C114.336 81.712 115.029 81.0507 115.925 80.56C116.821 80.0693 117.877 79.824 119.093 79.824C120.523 79.824 121.813 80.1973 122.965 80.944C124.139 81.6907 125.056 82.7573 125.717 84.144C126.4 85.5307 126.741 87.152 126.741 89.008C126.741 90.864 126.4 92.496 125.717 93.904C125.056 95.2907 124.139 96.3573 122.965 97.104C121.813 97.8507 120.523 98.224 119.093 98.224C117.877 98.224 116.821 97.9787 115.925 97.488C115.051 96.9973 114.357 96.336 113.845 95.504V106.576H107.573V80.048H113.845V82.544ZM120.373 89.008C120.373 87.8347 120.053 86.928 119.413 86.288C118.795 85.6267 118.027 85.296 117.109 85.296C116.192 85.296 115.413 85.6267 114.773 86.288C114.155 86.9493 113.845 87.856 113.845 89.008C113.845 90.1813 114.155 91.0987 114.773 91.76C115.413 92.4213 116.192 92.752 117.109 92.752C118.027 92.752 118.795 92.4213 119.413 91.76C120.053 91.0773 120.373 90.16 120.373 89.008ZM137.675 98.224C135.883 98.224 134.273 97.8507 132.843 97.104C131.435 96.3573 130.326 95.2907 129.515 93.904C128.705 92.5173 128.299 90.8853 128.299 89.008C128.299 87.152 128.705 85.5307 129.515 84.144C130.347 82.7573 131.467 81.6907 132.875 80.944C134.305 80.1973 135.915 79.824 137.707 79.824C139.499 79.824 141.099 80.1973 142.507 80.944C143.937 81.6907 145.057 82.7573 145.867 84.144C146.699 85.5307 147.115 87.152 147.115 89.008C147.115 90.864 146.699 92.496 145.867 93.904C145.057 95.2907 143.937 96.3573 142.507 97.104C141.078 97.8507 139.467 98.224 137.675 98.224ZM137.675 92.784C138.55 92.784 139.275 92.464 139.851 91.824C140.449 91.1627 140.747 90.224 140.747 89.008C140.747 87.792 140.449 86.864 139.851 86.224C139.275 85.584 138.561 85.264 137.707 85.264C136.854 85.264 136.139 85.584 135.563 86.224C134.987 86.864 134.699 87.792 134.699 89.008C134.699 90.2453 134.977 91.184 135.531 91.824C136.086 92.464 136.801 92.784 137.675 92.784ZM181.443 75.44L175.907 98H168.195L165.091 84.176L161.923 98H154.211L148.739 75.44H155.523L158.147 90.864L161.699 75.44H168.579L172.035 90.736L174.659 75.44H181.443ZM183.081 89.008C183.081 87.152 183.411 85.5307 184.073 84.144C184.755 82.7573 185.673 81.6907 186.825 80.944C187.998 80.1973 189.299 79.824 190.729 79.824C191.966 79.824 193.033 80.0693 193.929 80.56C194.825 81.0507 195.518 81.712 196.009 82.544V80.048H202.281V98H196.009V95.504C195.518 96.336 194.814 96.9973 193.897 97.488C193.001 97.9787 191.945 98.224 190.729 98.224C189.299 98.224 187.998 97.8507 186.825 97.104C185.673 96.3573 184.755 95.2907 184.073 93.904C183.411 92.496 183.081 90.864 183.081 89.008ZM196.009 89.008C196.009 87.856 195.689 86.9493 195.049 86.288C194.43 85.6267 193.662 85.296 192.745 85.296C191.806 85.296 191.027 85.6267 190.409 86.288C189.79 86.928 189.481 87.8347 189.481 89.008C189.481 90.16 189.79 91.0773 190.409 91.76C191.027 92.4213 191.806 92.752 192.745 92.752C193.662 92.752 194.43 92.4213 195.049 91.76C195.689 91.0987 196.009 90.1813 196.009 89.008ZM212.127 74.32V98H205.855V74.32H212.127ZM221.97 74.32V98H215.698V74.32H221.97ZM242.694 88.816C242.694 89.3067 242.662 89.7973 242.598 90.288H230.726C230.79 91.2693 231.057 92.0053 231.526 92.496C232.017 92.9653 232.635 93.2 233.382 93.2C234.427 93.2 235.174 92.7307 235.622 91.792H242.31C242.033 93.0293 241.489 94.1387 240.678 95.12C239.889 96.08 238.886 96.8373 237.67 97.392C236.454 97.9467 235.11 98.224 233.638 98.224C231.867 98.224 230.289 97.8507 228.902 97.104C227.537 96.3573 226.459 95.2907 225.67 93.904C224.902 92.5173 224.518 90.8853 224.518 89.008C224.518 87.1307 224.902 85.5093 225.67 84.144C226.438 82.7573 227.505 81.6907 228.87 80.944C230.257 80.1973 231.846 79.824 233.638 79.824C235.409 79.824 236.977 80.1867 238.342 80.912C239.707 81.6373 240.774 82.6827 241.542 84.048C242.31 85.392 242.694 86.9813 242.694 88.816ZM236.294 87.248C236.294 86.48 236.038 85.8827 235.526 85.456C235.014 85.008 234.374 84.784 233.606 84.784C232.838 84.784 232.209 84.9973 231.718 85.424C231.227 85.8293 230.907 86.4373 230.758 87.248H236.294ZM255.853 92.656V98H253.133C248.546 98 246.253 95.728 246.253 91.184V85.264H244.045V80.048H246.253V75.696H252.557V80.048H255.821V85.264H252.557V91.28C252.557 91.7707 252.663 92.1227 252.877 92.336C253.111 92.5493 253.495 92.656 254.029 92.656H255.853ZM261.77 98.256C260.66 98.256 259.764 97.9573 259.082 97.36C258.42 96.7413 258.09 95.9627 258.09 95.024C258.09 94.0853 258.42 93.3067 259.082 92.688C259.764 92.0693 260.66 91.76 261.77 91.76C262.858 91.76 263.732 92.0693 264.394 92.688C265.076 93.3067 265.418 94.0853 265.418 95.024C265.418 95.9413 265.076 96.7093 264.394 97.328C263.732 97.9467 262.858 98.256 261.77 98.256Z" fill="#D3D3D3"/>
<defs>
<filter id="filter0_d_513_88" x="142" y="452" width="518" height="73" filterUnits="userSpaceOnUse" color-interpolation-filters="sRGB">
<feFlood flood-opacity="0" result="BackgroundImageFix"/>
<feColorMatrix in="SourceAlpha" type="matrix" values="0 0 0 0 0 0 0 0 0 0 0 0 0 0 0 0 0 0 127 0" result="hardAlpha"/>
<feOffset dy="4"/>
<feGaussianBlur stdDeviation="2"/>
<feComposite in2="hardAlpha" operator="out"/>
<feColorMatrix type="matrix" values="0 0 0 0 0 0 0 0 0 0 0 0 0 0 0 0 0 0 0.25 0"/>
<feBlend mode="normal" in2="BackgroundImageFix" result="effect1_dropShadow_513_88"/>
<feBlend mode="normal" in="SourceGraphic" in2="effect1_dropShadow_513_88" result="shape"/>
</filter>
<filter id="filter1_d_513_88" x="142" y="597" width="518" height="73" filterUnits="userSpaceOnUse" color-interpolation-filters="sRGB">
<feFlood flood-opacity="0" result="BackgroundImageFix"/>
<feColorMatrix in="SourceAlpha" type="matrix" values="0 0 0 0 0 0 0 0 0 0 0 0 0 0 0 0 0 0 127 0" result="hardAlpha"/>
<feOffset dy="4"/>
<feGaussianBlur stdDeviation="2"/>
<feComposite in2="hardAlpha" operator="out"/>
<feColorMatrix type="matrix" values="0 0 0 0 0 0 0 0 0 0 0 0 0 0 0 0 0 0 0.25 0"/>
<feBlend mode="normal" in2="BackgroundImageFix" result="effect1_dropShadow_513_88"/>
<feBlend mode="normal" in="SourceGraphic" in2="effect1_dropShadow_513_88" result="shape"/>
</filter>
<filter id="filter2_d_513_88" x="142" y="704" width="518" height="78" filterUnits="userSpaceOnUse" color-interpolation-filters="sRGB">
<feFlood flood-opacity="0" result="BackgroundImageFix"/>
<feColorMatrix in="SourceAlpha" type="matrix" values="0 0 0 0 0 0 0 0 0 0 0 0 0 0 0 0 0 0 127 0" result="hardAlpha"/>
<feOffset dy="4"/>
<feGaussianBlur stdDeviation="2"/>
<feComposite in2="hardAlpha" operator="out"/>
<feColorMatrix type="matrix" values="0 0 0 0 0 0 0 0 0 0 0 0 0 0 0 0 0 0 0.25 0"/>
<feBlend mode="normal" in2="BackgroundImageFix" result="effect1_dropShadow_513_88"/>
<feBlend mode="normal" in="SourceGraphic" in2="effect1_dropShadow_513_88" result="shape"/>
</filter>
</defs>
</svg>
