<svg width="1728" height="1117" viewBox="0 0 1728 1117" fill="none" xmlns="http://www.w3.org/2000/svg">
<g clip-path="url(#clip0_513_2)">
<rect width="1728" height="1117" fill="white"/>
<rect x="33" y="167" width="1659" height="257" rx="8" fill="#D9D9D9"/>
<g filter="url(#filter0_d_513_2)">
<rect width="1728" height="108" rx="8" fill="white"/>
<rect x="0.5" y="0.5" width="1727" height="107" rx="7.5" stroke="#D3D3D3"/>
</g>
<path d="M40.936 40.44V53.528C40.936 54.744 41.2133 55.6827 41.768 56.344C42.344 57.0053 43.208 57.336 44.36 57.336C45.512 57.336 46.376 57.0053 46.952 56.344C47.5493 55.6613 47.848 54.7227 47.848 53.528V40.44H54.12V53.528C54.12 55.5973 53.6827 57.368 52.808 58.84C51.9333 60.2907 50.7387 61.3893 49.224 62.136C47.7307 62.8613 46.0667 63.224 44.232 63.224C42.3973 63.224 40.7547 62.8613 39.304 62.136C37.8747 61.3893 36.744 60.2907 35.912 58.84C35.1013 57.3893 34.696 55.6187 34.696 53.528V40.44H40.936ZM63.8453 47.544C64.3359 46.712 65.0293 46.0507 65.9253 45.56C66.8213 45.0693 67.8773 44.824 69.0933 44.824C70.5226 44.824 71.8133 45.1973 72.9653 45.944C74.1386 46.6907 75.0559 47.7573 75.7173 49.144C76.3999 50.5307 76.7413 52.152 76.7413 54.008C76.7413 55.864 76.3999 57.496 75.7173 58.904C75.0559 60.2907 74.1386 61.3573 72.9653 62.104C71.8133 62.8507 70.5226 63.224 69.0933 63.224C67.8773 63.224 66.8213 62.9787 65.9253 62.488C65.0506 61.9973 64.3573 61.336 63.8453 60.504V71.576H57.5733V45.048H63.8453V47.544ZM70.3733 54.008C70.3733 52.8347 70.0533 51.928 69.4133 51.288C68.7946 50.6267 68.0266 50.296 67.1093 50.296C66.1919 50.296 65.4133 50.6267 64.7733 51.288C64.1546 51.9493 63.8453 52.856 63.8453 54.008C63.8453 55.1813 64.1546 56.0987 64.7733 56.76C65.4133 57.4213 66.1919 57.752 67.1093 57.752C68.0266 57.752 68.7946 57.4213 69.4133 56.76C70.0533 56.0773 70.3733 55.16 70.3733 54.008ZM87.6753 63.224C85.8833 63.224 84.2726 62.8507 82.8433 62.104C81.4353 61.3573 80.3259 60.2907 79.5153 58.904C78.7046 57.5173 78.2993 55.8853 78.2993 54.008C78.2993 52.152 78.7046 50.5307 79.5153 49.144C80.3473 47.7573 81.4673 46.6907 82.8753 45.944C84.3046 45.1973 85.9153 44.824 87.7073 44.824C89.4993 44.824 91.0993 45.1973 92.5073 45.944C93.9366 46.6907 95.0566 47.7573 95.8673 49.144C96.6993 50.5307 97.1153 52.152 97.1153 54.008C97.1153 55.864 96.6993 57.496 95.8673 58.904C95.0566 60.2907 93.9366 61.3573 92.5073 62.104C91.0779 62.8507 89.4673 63.224 87.6753 63.224ZM87.6753 57.784C88.5499 57.784 89.2753 57.464 89.8513 56.824C90.4486 56.1627 90.7473 55.224 90.7473 54.008C90.7473 52.792 90.4486 51.864 89.8513 51.224C89.2753 50.584 88.5606 50.264 87.7073 50.264C86.8539 50.264 86.1393 50.584 85.5633 51.224C84.9873 51.864 84.6993 52.792 84.6993 54.008C84.6993 55.2453 84.9766 56.184 85.5312 56.824C86.0859 57.464 86.8006 57.784 87.6753 57.784ZM131.443 40.44L125.907 63H118.195L115.091 49.176L111.923 63H104.211L98.739 40.44H105.523L108.147 55.864L111.699 40.44H118.579L122.035 55.736L124.659 40.44H131.443ZM133.081 54.008C133.081 52.152 133.411 50.5307 134.073 49.144C134.755 47.7573 135.673 46.6907 136.825 45.944C137.998 45.1973 139.299 44.824 140.729 44.824C141.966 44.824 143.033 45.0693 143.929 45.56C144.825 46.0507 145.518 46.712 146.009 47.544V45.048H152.281V63H146.009V60.504C145.518 61.336 144.814 61.9973 143.897 62.488C143.001 62.9787 141.945 63.224 140.729 63.224C139.299 63.224 137.998 62.8507 136.825 62.104C135.673 61.3573 134.755 60.2907 134.073 58.904C133.411 57.496 133.081 55.864 133.081 54.008ZM146.009 54.008C146.009 52.856 145.689 51.9493 145.049 51.288C144.43 50.6267 143.662 50.296 142.745 50.296C141.806 50.296 141.027 50.6267 140.409 51.288C139.79 51.928 139.481 52.8347 139.481 54.008C139.481 55.16 139.79 56.0773 140.409 56.76C141.027 57.4213 141.806 57.752 142.745 57.752C143.662 57.752 144.43 57.4213 145.049 56.76C145.689 56.0987 146.009 55.1813 146.009 54.008ZM162.127 39.32V63H155.855V39.32H162.127ZM171.97 39.32V63H165.698V39.32H171.97ZM192.694 53.816C192.694 54.3067 192.662 54.7973 192.598 55.288H180.726C180.79 56.2693 181.057 57.0053 181.526 57.496C182.017 57.9653 182.635 58.2 183.382 58.2C184.427 58.2 185.174 57.7307 185.622 56.792H192.31C192.033 58.0293 191.489 59.1387 190.678 60.12C189.889 61.08 188.886 61.8373 187.67 62.392C186.454 62.9467 185.11 63.224 183.638 63.224C181.867 63.224 180.289 62.8507 178.902 62.104C177.537 61.3573 176.459 60.2907 175.67 58.904C174.902 57.5173 174.518 55.8853 174.518 54.008C174.518 52.1307 174.902 50.5093 175.67 49.144C176.438 47.7573 177.505 46.6907 178.87 45.944C180.257 45.1973 181.846 44.824 183.638 44.824C185.409 44.824 186.977 45.1867 188.342 45.912C189.707 46.6373 190.774 47.6827 191.542 49.048C192.31 50.392 192.694 51.9813 192.694 53.816ZM186.294 52.248C186.294 51.48 186.038 50.8827 185.526 50.456C185.014 50.008 184.374 49.784 183.606 49.784C182.838 49.784 182.209 49.9973 181.718 50.424C181.227 50.8293 180.907 51.4373 180.758 52.248H186.294ZM205.853 57.656V63H203.133C198.546 63 196.253 60.728 196.253 56.184V50.264H194.045V45.048H196.253V40.696H202.557V45.048H205.821V50.264H202.557V56.28C202.557 56.7707 202.663 57.1227 202.877 57.336C203.111 57.5493 203.495 57.656 204.029 57.656H205.853ZM211.77 63.256C210.66 63.256 209.764 62.9573 209.082 62.36C208.42 61.7413 208.09 60.9627 208.09 60.024C208.09 59.0853 208.42 58.3067 209.082 57.688C209.764 57.0693 210.66 56.76 211.77 56.76C212.858 56.76 213.732 57.0693 214.394 57.688C215.076 58.3067 215.418 59.0853 215.418 60.024C215.418 60.9413 215.076 61.7093 214.394 62.328C213.732 62.9467 212.858 63.256 211.77 63.256Z" fill="#D3D3D3"/>
<circle cx="1558" cy="49" r="25" fill="#C4C4C4"/>
<path d="M1607.32 41.0713V32.2031H1609.95V41.0713C1609.95 41.9268 1609.76 42.6621 1609.38 43.2773C1609.01 43.8867 1608.5 44.3555 1607.85 44.6836C1607.2 45.0117 1606.48 45.1758 1605.67 45.1758C1604.83 45.1758 1604.09 45.0352 1603.44 44.7539C1602.8 44.4727 1602.29 44.042 1601.92 43.4619C1601.55 42.876 1601.37 42.1348 1601.37 41.2383H1604.01C1604.01 41.707 1604.08 42.0791 1604.21 42.3545C1604.34 42.6299 1604.53 42.8262 1604.78 42.9434C1605.03 43.0605 1605.32 43.1191 1605.67 43.1191C1606 43.1191 1606.29 43.04 1606.54 42.8818C1606.78 42.7236 1606.97 42.4922 1607.11 42.1875C1607.25 41.8828 1607.32 41.5107 1607.32 41.0713ZM1617.17 42.8555V38.6191C1617.17 38.3145 1617.12 38.0537 1617.02 37.8369C1616.92 37.6143 1616.77 37.4414 1616.56 37.3184C1616.35 37.1953 1616.08 37.1338 1615.76 37.1338C1615.48 37.1338 1615.23 37.1836 1615.03 37.2832C1614.82 37.377 1614.66 37.5146 1614.55 37.6963C1614.44 37.8721 1614.39 38.0801 1614.39 38.3203H1611.85C1611.85 37.916 1611.95 37.5322 1612.14 37.1689C1612.32 36.8057 1612.6 36.4863 1612.95 36.2109C1613.31 35.9297 1613.74 35.71 1614.23 35.5518C1614.73 35.3936 1615.28 35.3145 1615.9 35.3145C1616.64 35.3145 1617.29 35.4375 1617.87 35.6836C1618.44 35.9297 1618.89 36.2988 1619.22 36.791C1619.55 37.2832 1619.72 37.8984 1619.72 38.6367V42.7061C1619.72 43.2275 1619.75 43.6553 1619.82 43.9893C1619.88 44.3174 1619.98 44.6045 1620.1 44.8506V45H1617.54C1617.42 44.7422 1617.32 44.4199 1617.26 44.0332C1617.2 43.6406 1617.17 43.248 1617.17 42.8555ZM1617.51 39.208L1617.52 40.6406H1616.11C1615.77 40.6406 1615.48 40.6787 1615.24 40.7549C1614.99 40.8311 1614.79 40.9395 1614.63 41.0801C1614.47 41.2148 1614.36 41.373 1614.28 41.5547C1614.21 41.7363 1614.17 41.9355 1614.17 42.1523C1614.17 42.3691 1614.22 42.5654 1614.32 42.7412C1614.42 42.9111 1614.57 43.0459 1614.75 43.1455C1614.94 43.2393 1615.16 43.2861 1615.41 43.2861C1615.79 43.2861 1616.13 43.21 1616.41 43.0576C1616.69 42.9053 1616.91 42.7178 1617.06 42.4951C1617.22 42.2725 1617.3 42.0615 1617.3 41.8623L1617.97 42.9346C1617.88 43.1748 1617.75 43.4238 1617.58 43.6816C1617.43 43.9395 1617.22 44.1826 1616.98 44.4111C1616.73 44.6338 1616.44 44.8184 1616.09 44.9648C1615.75 45.1055 1615.33 45.1758 1614.86 45.1758C1614.26 45.1758 1613.71 45.0557 1613.22 44.8154C1612.73 44.5693 1612.34 44.2324 1612.06 43.8047C1611.78 43.3711 1611.63 42.8789 1611.63 42.3281C1611.63 41.8301 1611.73 41.3877 1611.92 41.001C1612.1 40.6143 1612.38 40.2891 1612.74 40.0254C1613.11 39.7559 1613.57 39.5537 1614.12 39.4189C1614.67 39.2783 1615.31 39.208 1616.04 39.208H1617.51ZM1624.2 37.459V45H1621.66V35.4902H1624.04L1624.2 37.459ZM1623.85 39.9111H1623.15C1623.15 39.249 1623.23 38.6396 1623.39 38.083C1623.55 37.5205 1623.79 37.0342 1624.1 36.624C1624.41 36.208 1624.8 35.8857 1625.27 35.6572C1625.73 35.4287 1626.27 35.3145 1626.88 35.3145C1627.3 35.3145 1627.68 35.3789 1628.04 35.5078C1628.39 35.6309 1628.69 35.8271 1628.94 36.0967C1629.2 36.3604 1629.4 36.7061 1629.54 37.1338C1629.68 37.5557 1629.75 38.0625 1629.75 38.6543V45H1627.22V38.9355C1627.22 38.502 1627.16 38.168 1627.04 37.9336C1626.92 37.6992 1626.76 37.5352 1626.54 37.4414C1626.33 37.3477 1626.08 37.3008 1625.78 37.3008C1625.45 37.3008 1625.16 37.3682 1624.92 37.5029C1624.67 37.6377 1624.48 37.8252 1624.32 38.0654C1624.16 38.2998 1624.04 38.5752 1623.97 38.8916C1623.89 39.208 1623.85 39.5479 1623.85 39.9111ZM1629.51 39.6211L1628.61 39.7354C1628.61 39.1143 1628.68 38.5371 1628.83 38.0039C1628.99 37.4707 1629.22 37.002 1629.53 36.5977C1629.84 36.1934 1630.22 35.8799 1630.68 35.6572C1631.14 35.4287 1631.67 35.3145 1632.26 35.3145C1632.72 35.3145 1633.14 35.3818 1633.51 35.5166C1633.89 35.6455 1634.21 35.8535 1634.47 36.1406C1634.74 36.4219 1634.94 36.791 1635.08 37.248C1635.23 37.7051 1635.3 38.2646 1635.3 38.9268V45H1632.76V38.9268C1632.76 38.4873 1632.71 38.1533 1632.59 37.9248C1632.48 37.6904 1632.31 37.5293 1632.1 37.4414C1631.88 37.3477 1631.63 37.3008 1631.34 37.3008C1631.04 37.3008 1630.77 37.3623 1630.54 37.4854C1630.31 37.6025 1630.12 37.7666 1629.97 37.9775C1629.82 38.1885 1629.7 38.4346 1629.63 38.7158C1629.55 38.9912 1629.51 39.293 1629.51 39.6211ZM1641.64 45.1758C1640.9 45.1758 1640.24 45.0586 1639.65 44.8242C1639.07 44.584 1638.57 44.2529 1638.16 43.8311C1637.76 43.4092 1637.45 42.9199 1637.23 42.3633C1637.01 41.8008 1636.9 41.2031 1636.9 40.5703V40.2188C1636.9 39.498 1637.01 38.8389 1637.21 38.2412C1637.42 37.6436 1637.71 37.125 1638.09 36.6855C1638.48 36.2461 1638.95 35.9092 1639.5 35.6748C1640.05 35.4346 1640.67 35.3145 1641.36 35.3145C1642.03 35.3145 1642.63 35.4258 1643.15 35.6484C1643.67 35.8711 1644.11 36.1875 1644.46 36.5977C1644.82 37.0078 1645.09 37.5 1645.27 38.0742C1645.45 38.6426 1645.54 39.2754 1645.54 39.9727V41.0273H1637.98V39.3398H1643.06V39.1465C1643.06 38.7949 1642.99 38.4814 1642.86 38.2061C1642.74 37.9248 1642.55 37.7021 1642.3 37.5381C1642.05 37.374 1641.73 37.292 1641.33 37.292C1641 37.292 1640.71 37.3652 1640.47 37.5117C1640.23 37.6582 1640.04 37.8633 1639.88 38.127C1639.74 38.3906 1639.62 38.7012 1639.55 39.0586C1639.48 39.4102 1639.44 39.7969 1639.44 40.2188V40.5703C1639.44 40.9512 1639.5 41.3027 1639.6 41.625C1639.71 41.9473 1639.87 42.2256 1640.07 42.46C1640.27 42.6943 1640.52 42.876 1640.81 43.0049C1641.1 43.1338 1641.43 43.1982 1641.8 43.1982C1642.26 43.1982 1642.68 43.1104 1643.07 42.9346C1643.47 42.7529 1643.81 42.4805 1644.1 42.1172L1645.33 43.4531C1645.13 43.7402 1644.86 44.0156 1644.51 44.2793C1644.17 44.543 1643.76 44.7598 1643.28 44.9297C1642.8 45.0938 1642.26 45.1758 1641.64 45.1758ZM1652.13 42.3721C1652.13 42.1904 1652.07 42.0264 1651.97 41.8799C1651.86 41.7334 1651.67 41.5986 1651.38 41.4756C1651.1 41.3467 1650.69 41.2295 1650.16 41.124C1649.68 41.0186 1649.23 40.8867 1648.81 40.7285C1648.4 40.5645 1648.04 40.3682 1647.74 40.1396C1647.44 39.9111 1647.21 39.6416 1647.04 39.3311C1646.87 39.0146 1646.78 38.6543 1646.78 38.25C1646.78 37.8516 1646.87 37.4766 1647.04 37.125C1647.21 36.7734 1647.46 36.4629 1647.78 36.1934C1648.11 35.918 1648.51 35.7041 1648.98 35.5518C1649.45 35.3936 1649.99 35.3145 1650.58 35.3145C1651.41 35.3145 1652.11 35.4463 1652.71 35.71C1653.3 35.9736 1653.76 36.3369 1654.08 36.7998C1654.4 37.2568 1654.56 37.7783 1654.56 38.3643H1652.03C1652.03 38.1182 1651.98 37.8984 1651.87 37.7051C1651.77 37.5059 1651.61 37.3506 1651.4 37.2393C1651.19 37.1221 1650.91 37.0635 1650.57 37.0635C1650.29 37.0635 1650.05 37.1133 1649.84 37.2129C1649.64 37.3066 1649.48 37.4355 1649.37 37.5996C1649.26 37.7578 1649.21 37.9336 1649.21 38.127C1649.21 38.2734 1649.24 38.4053 1649.3 38.5225C1649.36 38.6338 1649.46 38.7363 1649.6 38.8301C1649.74 38.9238 1649.93 39.0117 1650.15 39.0938C1650.38 39.1699 1650.66 39.2402 1650.99 39.3047C1651.68 39.4453 1652.29 39.6299 1652.83 39.8584C1653.37 40.0811 1653.8 40.3857 1654.11 40.7725C1654.43 41.1533 1654.59 41.6543 1654.59 42.2754C1654.59 42.6973 1654.49 43.084 1654.31 43.4355C1654.12 43.7871 1653.85 44.0947 1653.5 44.3584C1653.15 44.6162 1652.72 44.8184 1652.23 44.9648C1651.75 45.1055 1651.2 45.1758 1650.59 45.1758C1649.7 45.1758 1648.95 45.0176 1648.34 44.7012C1647.73 44.3848 1647.27 43.9834 1646.95 43.4971C1646.64 43.0049 1646.48 42.501 1646.48 41.9854H1648.88C1648.89 42.3311 1648.98 42.6094 1649.15 42.8203C1649.32 43.0312 1649.53 43.1836 1649.79 43.2773C1650.05 43.3711 1650.34 43.418 1650.64 43.418C1650.97 43.418 1651.24 43.374 1651.46 43.2861C1651.67 43.1924 1651.84 43.0693 1651.95 42.917C1652.07 42.7588 1652.13 42.5771 1652.13 42.3721Z" fill="#D3D3D3"/>
<g filter="url(#filter1_d_513_2)">
<rect x="1167" y="1083" width="606" height="612" rx="10" transform="rotate(-180 1167 1083)" fill="white"/>
<rect x="1166.5" y="1082.5" width="605" height="611" rx="9.5" transform="rotate(-180 1166.5 1082.5)" stroke="#D3D3D3"/>
</g>
<path d="M667.12 526.8C667.12 524.603 667.611 522.64 668.592 520.912C669.595 519.163 670.949 517.808 672.656 516.848C674.384 515.867 676.315 515.376 678.448 515.376C680.944 515.376 683.131 516.016 685.008 517.296C686.885 518.576 688.197 520.347 688.944 522.608H683.792C683.28 521.541 682.555 520.741 681.616 520.208C680.699 519.675 679.632 519.408 678.416 519.408C677.115 519.408 675.952 519.717 674.928 520.336C673.925 520.933 673.136 521.787 672.56 522.896C672.005 524.005 671.728 525.307 671.728 526.8C671.728 528.272 672.005 529.573 672.56 530.704C673.136 531.813 673.925 532.677 674.928 533.296C675.952 533.893 677.115 534.192 678.416 534.192C679.632 534.192 680.699 533.925 681.616 533.392C682.555 532.837 683.28 532.027 683.792 530.96H688.944C688.197 533.243 686.885 535.024 685.008 536.304C683.152 537.563 680.965 538.192 678.448 538.192C676.315 538.192 674.384 537.712 672.656 536.752C670.949 535.771 669.595 534.416 668.592 532.688C667.611 530.96 667.12 528.997 667.12 526.8ZM691.618 529.072C691.618 527.28 691.97 525.691 692.674 524.304C693.4 522.917 694.371 521.851 695.587 521.104C696.824 520.357 698.2 519.984 699.715 519.984C701.037 519.984 702.189 520.251 703.171 520.784C704.173 521.317 704.973 521.989 705.571 522.8V520.272H710.083V538H705.571V535.408C704.995 536.24 704.195 536.933 703.171 537.488C702.168 538.021 701.005 538.288 699.683 538.288C698.189 538.288 696.824 537.904 695.587 537.136C694.371 536.368 693.4 535.291 692.674 533.904C691.97 532.496 691.618 530.885 691.618 529.072ZM705.571 529.136C705.571 528.048 705.357 527.12 704.931 526.352C704.504 525.563 703.928 524.965 703.203 524.56C702.477 524.133 701.699 523.92 700.867 523.92C700.035 523.92 699.267 524.123 698.562 524.528C697.859 524.933 697.283 525.531 696.835 526.32C696.408 527.088 696.195 528.005 696.195 529.072C696.195 530.139 696.408 531.077 696.835 531.888C697.283 532.677 697.859 533.285 698.562 533.712C699.288 534.139 700.056 534.352 700.867 534.352C701.699 534.352 702.477 534.149 703.203 533.744C703.928 533.317 704.504 532.72 704.931 531.952C705.357 531.163 705.571 530.224 705.571 529.136ZM718.938 514.32V538H714.458V514.32H718.938ZM722.212 529.136C722.212 527.301 722.586 525.701 723.332 524.336C724.079 522.949 725.114 521.883 726.436 521.136C727.759 520.368 729.274 519.984 730.98 519.984C733.178 519.984 734.991 520.539 736.42 521.648C737.871 522.736 738.842 524.272 739.332 526.256H734.5C734.244 525.488 733.807 524.891 733.188 524.464C732.591 524.016 731.844 523.792 730.948 523.792C729.668 523.792 728.655 524.261 727.908 525.2C727.162 526.117 726.788 527.429 726.788 529.136C726.788 530.821 727.162 532.133 727.908 533.072C728.655 533.989 729.668 534.448 730.948 534.448C732.762 534.448 733.946 533.637 734.5 532.016H739.332C738.842 533.936 737.871 535.461 736.42 536.592C734.97 537.723 733.156 538.288 730.98 538.288C729.274 538.288 727.759 537.915 726.436 537.168C725.114 536.4 724.079 535.333 723.332 533.968C722.586 532.581 722.212 530.971 722.212 529.136ZM759.35 520.272V538H754.838V535.76C754.262 536.528 753.505 537.136 752.566 537.584C751.649 538.011 750.646 538.224 749.558 538.224C748.172 538.224 746.945 537.936 745.878 537.36C744.812 536.763 743.969 535.899 743.35 534.768C742.753 533.616 742.454 532.251 742.454 530.672V520.272H746.934V530.032C746.934 531.44 747.286 532.528 747.99 533.296C748.694 534.043 749.654 534.416 750.87 534.416C752.108 534.416 753.078 534.043 753.782 533.296C754.486 532.528 754.838 531.44 754.838 530.032V520.272H759.35ZM768.251 514.32V538H763.771V514.32H768.251ZM771.525 529.072C771.525 527.28 771.877 525.691 772.581 524.304C773.306 522.917 774.277 521.851 775.493 521.104C776.73 520.357 778.106 519.984 779.621 519.984C780.943 519.984 782.095 520.251 783.077 520.784C784.079 521.317 784.879 521.989 785.477 522.8V520.272H789.989V538H785.477V535.408C784.901 536.24 784.101 536.933 783.077 537.488C782.074 538.021 780.911 538.288 779.589 538.288C778.095 538.288 776.73 537.904 775.493 537.136C774.277 536.368 773.306 535.291 772.581 533.904C771.877 532.496 771.525 530.885 771.525 529.072ZM785.477 529.136C785.477 528.048 785.263 527.12 784.837 526.352C784.41 525.563 783.834 524.965 783.109 524.56C782.383 524.133 781.605 523.92 780.773 523.92C779.941 523.92 779.173 524.123 778.469 524.528C777.765 524.933 777.189 525.531 776.741 526.32C776.314 527.088 776.101 528.005 776.101 529.072C776.101 530.139 776.314 531.077 776.741 531.888C777.189 532.677 777.765 533.285 778.469 533.712C779.194 534.139 779.962 534.352 780.773 534.352C781.605 534.352 782.383 534.149 783.109 533.744C783.834 533.317 784.41 532.72 784.837 531.952C785.263 531.163 785.477 530.224 785.477 529.136ZM799.58 523.952V532.528C799.58 533.125 799.719 533.563 799.996 533.84C800.295 534.096 800.786 534.224 801.468 534.224H803.548V538H800.732C796.956 538 795.068 536.165 795.068 532.496V523.952H792.956V520.272H795.068V515.888H799.58V520.272H803.548V523.952H799.58ZM823.251 528.752C823.251 529.392 823.208 529.968 823.123 530.48H810.163C810.269 531.76 810.717 532.763 811.507 533.488C812.296 534.213 813.267 534.576 814.419 534.576C816.083 534.576 817.267 533.861 817.971 532.432H822.803C822.291 534.139 821.309 535.547 819.859 536.656C818.408 537.744 816.627 538.288 814.515 538.288C812.808 538.288 811.272 537.915 809.907 537.168C808.563 536.4 807.507 535.323 806.739 533.936C805.992 532.549 805.618 530.949 805.618 529.136C805.618 527.301 805.992 525.691 806.739 524.304C807.485 522.917 808.531 521.851 809.875 521.104C811.219 520.357 812.765 519.984 814.515 519.984C816.2 519.984 817.704 520.347 819.027 521.072C820.371 521.797 821.405 522.832 822.131 524.176C822.877 525.499 823.251 527.024 823.251 528.752ZM818.611 527.472C818.589 526.32 818.173 525.403 817.363 524.72C816.552 524.016 815.56 523.664 814.387 523.664C813.277 523.664 812.339 524.005 811.571 524.688C810.824 525.349 810.365 526.277 810.195 527.472H818.611ZM851.106 520.272L840.13 546.384H835.362L839.202 537.552L832.098 520.272H837.122L841.698 532.656L846.338 520.272H851.106ZM861.393 538.288C859.686 538.288 858.15 537.915 856.785 537.168C855.419 536.4 854.342 535.323 853.553 533.936C852.785 532.549 852.401 530.949 852.401 529.136C852.401 527.323 852.795 525.723 853.585 524.336C854.395 522.949 855.494 521.883 856.881 521.136C858.267 520.368 859.814 519.984 861.521 519.984C863.227 519.984 864.774 520.368 866.161 521.136C867.547 521.883 868.635 522.949 869.425 524.336C870.235 525.723 870.641 527.323 870.641 529.136C870.641 530.949 870.225 532.549 869.392 533.936C868.582 535.323 867.473 536.4 866.065 537.168C864.678 537.915 863.121 538.288 861.393 538.288ZM861.393 534.384C862.203 534.384 862.961 534.192 863.665 533.808C864.39 533.403 864.966 532.805 865.393 532.016C865.819 531.227 866.033 530.267 866.033 529.136C866.033 527.451 865.585 526.16 864.689 525.264C863.814 524.347 862.737 523.888 861.457 523.888C860.177 523.888 859.099 524.347 858.225 525.264C857.371 526.16 856.945 527.451 856.945 529.136C856.945 530.821 857.361 532.123 858.193 533.04C859.046 533.936 860.113 534.384 861.393 534.384ZM890.663 520.272V538H886.151V535.76C885.575 536.528 884.817 537.136 883.879 537.584C882.961 538.011 881.959 538.224 880.871 538.224C879.484 538.224 878.257 537.936 877.191 537.36C876.124 536.763 875.281 535.899 874.663 534.768C874.065 533.616 873.767 532.251 873.767 530.672V520.272H878.247V530.032C878.247 531.44 878.599 532.528 879.303 533.296C880.007 534.043 880.967 534.416 882.183 534.416C883.42 534.416 884.391 534.043 885.095 533.296C885.799 532.528 886.151 531.44 886.151 530.032V520.272H890.663ZM899.563 523.024C900.139 522.085 900.886 521.349 901.803 520.816C902.742 520.283 903.808 520.016 905.003 520.016V524.72H903.819C902.411 524.72 901.344 525.051 900.619 525.712C899.915 526.373 899.563 527.525 899.563 529.168V538H895.083V520.272H899.563V523.024ZM928.318 526.544C929.576 526.779 930.611 527.408 931.422 528.432C932.232 529.456 932.638 530.629 932.638 531.952C932.638 533.147 932.339 534.203 931.742 535.12C931.166 536.016 930.323 536.72 929.214 537.232C928.104 537.744 926.792 538 925.278 538H915.646V515.664H924.862C926.376 515.664 927.678 515.909 928.766 516.4C929.875 516.891 930.707 517.573 931.262 518.448C931.838 519.323 932.126 520.315 932.126 521.424C932.126 522.725 931.774 523.813 931.069 524.688C930.387 525.563 929.47 526.181 928.318 526.544ZM920.126 524.88H924.222C925.288 524.88 926.11 524.645 926.686 524.176C927.262 523.685 927.55 522.992 927.55 522.096C927.55 521.2 927.262 520.507 926.686 520.016C926.11 519.525 925.288 519.28 924.222 519.28H920.126V524.88ZM924.638 534.352C925.726 534.352 926.568 534.096 927.166 533.584C927.784 533.072 928.094 532.347 928.094 531.408C928.094 530.448 927.774 529.701 927.134 529.168C926.494 528.613 925.63 528.336 924.542 528.336H920.126V534.352H924.638ZM952.944 520.272V538H948.432V535.76C947.856 536.528 947.099 537.136 946.16 537.584C945.243 538.011 944.24 538.224 943.152 538.224C941.765 538.224 940.539 537.936 939.472 537.36C938.405 536.763 937.563 535.899 936.944 534.768C936.347 533.616 936.048 532.251 936.048 530.672V520.272H940.528V530.032C940.528 531.44 940.88 532.528 941.584 533.296C942.288 534.043 943.248 534.416 944.464 534.416C945.701 534.416 946.672 534.043 947.376 533.296C948.08 532.528 948.432 531.44 948.432 530.032V520.272H952.944ZM956.212 529.072C956.212 527.28 956.564 525.691 957.268 524.304C957.994 522.917 958.975 521.851 960.212 521.104C961.45 520.357 962.826 519.984 964.34 519.984C965.492 519.984 966.591 520.24 967.636 520.752C968.682 521.243 969.514 521.904 970.132 522.736V514.32H974.676V538H970.132V535.376C969.578 536.251 968.799 536.955 967.796 537.488C966.794 538.021 965.631 538.288 964.308 538.288C962.815 538.288 961.45 537.904 960.212 537.136C958.975 536.368 957.994 535.291 957.268 533.904C956.564 532.496 956.212 530.885 956.212 529.072ZM970.164 529.136C970.164 528.048 969.951 527.12 969.524 526.352C969.098 525.563 968.522 524.965 967.796 524.56C967.071 524.133 966.292 523.92 965.46 523.92C964.628 523.92 963.86 524.123 963.156 524.528C962.452 524.933 961.876 525.531 961.428 526.32C961.002 527.088 960.788 528.005 960.788 529.072C960.788 530.139 961.002 531.077 961.428 531.888C961.876 532.677 962.452 533.285 963.156 533.712C963.882 534.139 964.65 534.352 965.46 534.352C966.292 534.352 967.071 534.149 967.796 533.744C968.522 533.317 969.098 532.72 969.524 531.952C969.951 531.163 970.164 530.224 970.164 529.136ZM985.996 519.984C987.318 519.984 988.481 520.251 989.484 520.784C990.486 521.296 991.276 521.968 991.852 522.8V520.272H996.364V538.128C996.364 539.771 996.033 541.232 995.372 542.512C994.71 543.813 993.718 544.837 992.396 545.584C991.073 546.352 989.473 546.736 987.596 546.736C985.078 546.736 983.009 546.149 981.388 544.976C979.788 543.803 978.881 542.203 978.668 540.176H983.116C983.35 540.987 983.852 541.627 984.62 542.096C985.409 542.587 986.358 542.832 987.468 542.832C988.769 542.832 989.825 542.437 990.636 541.648C991.446 540.88 991.852 539.707 991.852 538.128V535.376C991.276 536.208 990.476 536.901 989.452 537.456C988.449 538.011 987.297 538.288 985.996 538.288C984.502 538.288 983.137 537.904 981.9 537.136C980.662 536.368 979.681 535.291 978.956 533.904C978.252 532.496 977.9 530.885 977.9 529.072C977.9 527.28 978.252 525.691 978.956 524.304C979.681 522.917 980.652 521.851 981.868 521.104C983.105 520.357 984.481 519.984 985.996 519.984ZM991.852 529.136C991.852 528.048 991.638 527.12 991.212 526.352C990.785 525.563 990.209 524.965 989.484 524.56C988.758 524.133 987.98 523.92 987.148 523.92C986.316 523.92 985.548 524.123 984.844 524.528C984.14 524.933 983.564 525.531 983.116 526.32C982.689 527.088 982.476 528.005 982.476 529.072C982.476 530.139 982.689 531.077 983.116 531.888C983.564 532.677 984.14 533.285 984.844 533.712C985.569 534.139 986.337 534.352 987.148 534.352C987.98 534.352 988.758 534.149 989.484 533.744C990.209 533.317 990.785 532.72 991.212 531.952C991.638 531.163 991.852 530.224 991.852 529.136ZM1017.22 528.752C1017.22 529.392 1017.18 529.968 1017.09 530.48H1004.13C1004.24 531.76 1004.69 532.763 1005.48 533.488C1006.26 534.213 1007.24 534.576 1008.39 534.576C1010.05 534.576 1011.24 533.861 1011.94 532.432H1016.77C1016.26 534.139 1015.28 535.547 1013.83 536.656C1012.38 537.744 1010.6 538.288 1008.48 538.288C1006.78 538.288 1005.24 537.915 1003.88 537.168C1002.53 536.4 1001.48 535.323 1000.71 533.936C999.961 532.549 999.587 530.949 999.587 529.136C999.587 527.301 999.961 525.691 1000.71 524.304C1001.45 522.917 1002.5 521.851 1003.84 521.104C1005.19 520.357 1006.73 519.984 1008.48 519.984C1010.17 519.984 1011.67 520.347 1013 521.072C1014.34 521.797 1015.37 522.832 1016.1 524.176C1016.85 525.499 1017.22 527.024 1017.22 528.752ZM1012.58 527.472C1012.56 526.32 1012.14 525.403 1011.33 524.72C1010.52 524.016 1009.53 523.664 1008.36 523.664C1007.25 523.664 1006.31 524.005 1005.54 524.688C1004.79 525.349 1004.33 526.277 1004.16 527.472H1012.58ZM1025.71 523.952V532.528C1025.71 533.125 1025.84 533.563 1026.12 533.84C1026.42 534.096 1026.91 534.224 1027.59 534.224H1029.67V538H1026.86C1023.08 538 1021.19 536.165 1021.19 532.496V523.952H1019.08V520.272H1021.19V515.888H1025.71V520.272H1029.67V523.952H1025.71Z" fill="#D3D3D3"/>
<path d="M624.68 584.77V598.61H622.86V588.29L618.26 598.61H616.98L612.36 588.27V598.61H610.54V584.77H612.5L617.62 596.21L622.74 584.77H624.68ZM632.547 598.79C631.52 598.79 630.587 598.557 629.747 598.09C628.92 597.624 628.267 596.964 627.787 596.11C627.32 595.244 627.087 594.244 627.087 593.11C627.087 591.99 627.327 591.004 627.807 590.15C628.3 589.284 628.967 588.624 629.807 588.17C630.647 587.704 631.587 587.47 632.627 587.47C633.667 587.47 634.607 587.704 635.447 588.17C636.287 588.624 636.947 589.277 637.427 590.13C637.92 590.984 638.167 591.977 638.167 593.11C638.167 594.244 637.913 595.244 637.407 596.11C636.913 596.964 636.24 597.624 635.387 598.09C634.533 598.557 633.587 598.79 632.547 598.79ZM632.547 597.19C633.2 597.19 633.813 597.037 634.387 596.73C634.96 596.424 635.42 595.964 635.767 595.35C636.127 594.737 636.307 593.99 636.307 593.11C636.307 592.23 636.133 591.484 635.787 590.87C635.44 590.257 634.987 589.804 634.427 589.51C633.867 589.204 633.26 589.05 632.607 589.05C631.94 589.05 631.327 589.204 630.767 589.51C630.22 589.804 629.78 590.257 629.447 590.87C629.113 591.484 628.947 592.23 628.947 593.11C628.947 594.004 629.107 594.757 629.427 595.37C629.76 595.984 630.2 596.444 630.747 596.75C631.293 597.044 631.893 597.19 632.547 597.19ZM645.9 587.45C647.233 587.45 648.313 587.857 649.14 588.67C649.966 589.47 650.38 590.63 650.38 592.15V598.61H648.58V592.41C648.58 591.317 648.306 590.484 647.76 589.91C647.213 589.324 646.466 589.03 645.52 589.03C644.56 589.03 643.793 589.33 643.22 589.93C642.66 590.53 642.38 591.404 642.38 592.55V598.61H640.56V587.65H642.38V589.21C642.74 588.65 643.226 588.217 643.84 587.91C644.466 587.604 645.153 587.45 645.9 587.45ZM655.573 589.15V595.61C655.573 596.144 655.686 596.524 655.913 596.75C656.139 596.964 656.533 597.07 657.092 597.07H658.433V598.61H656.793C655.779 598.61 655.019 598.377 654.513 597.91C654.006 597.444 653.753 596.677 653.753 595.61V589.15H652.333V587.65H653.753V584.89H655.573V587.65H658.433V589.15H655.573ZM666.078 587.45C666.904 587.45 667.651 587.63 668.318 587.99C668.984 588.337 669.504 588.864 669.878 589.57C670.264 590.277 670.458 591.137 670.458 592.15V598.61H668.658V592.41C668.658 591.317 668.384 590.484 667.838 589.91C667.291 589.324 666.544 589.03 665.598 589.03C664.638 589.03 663.871 589.33 663.298 589.93C662.738 590.53 662.458 591.404 662.458 592.55V598.61H660.638V583.81H662.458V589.21C662.818 588.65 663.311 588.217 663.938 587.91C664.578 587.604 665.291 587.45 666.078 587.45ZM675.251 583.81V598.61H673.431V583.81H675.251ZM687.793 587.65L681.193 603.77H679.312L681.473 598.49L677.053 587.65H679.073L682.513 596.53L685.913 587.65H687.793ZM696.774 584.67V598.61H694.954V584.67H696.774ZM705.216 587.45C706.549 587.45 707.629 587.857 708.456 588.67C709.283 589.47 709.696 590.63 709.696 592.15V598.61H707.896V592.41C707.896 591.317 707.623 590.484 707.076 589.91C706.529 589.324 705.783 589.03 704.836 589.03C703.876 589.03 703.109 589.33 702.536 589.93C701.976 590.53 701.696 591.404 701.696 592.55V598.61H699.876V587.65H701.696V589.21C702.056 588.65 702.543 588.217 703.156 587.91C703.783 587.604 704.469 587.45 705.216 587.45ZM711.989 593.11C711.989 591.977 712.216 590.99 712.669 590.15C713.122 589.297 713.749 588.637 714.549 588.17C715.362 587.704 716.289 587.47 717.329 587.47C718.676 587.47 719.782 587.797 720.649 588.45C721.529 589.104 722.109 590.01 722.389 591.17H720.429C720.242 590.504 719.876 589.977 719.329 589.59C718.796 589.204 718.129 589.01 717.329 589.01C716.289 589.01 715.449 589.37 714.809 590.09C714.169 590.797 713.849 591.804 713.849 593.11C713.849 594.43 714.169 595.45 714.809 596.17C715.449 596.89 716.289 597.25 717.329 597.25C718.129 597.25 718.796 597.064 719.329 596.69C719.862 596.317 720.229 595.784 720.429 595.09H722.389C722.096 596.21 721.509 597.11 720.629 597.79C719.749 598.457 718.649 598.79 717.329 598.79C716.289 598.79 715.362 598.557 714.549 598.09C713.749 597.624 713.122 596.964 712.669 596.11C712.216 595.257 711.989 594.257 711.989 593.11ZM729.597 598.79C728.571 598.79 727.637 598.557 726.797 598.09C725.971 597.624 725.317 596.964 724.837 596.11C724.371 595.244 724.137 594.244 724.137 593.11C724.137 591.99 724.377 591.004 724.857 590.15C725.351 589.284 726.017 588.624 726.857 588.17C727.697 587.704 728.637 587.47 729.677 587.47C730.717 587.47 731.657 587.704 732.497 588.17C733.337 588.624 733.997 589.277 734.477 590.13C734.971 590.984 735.217 591.977 735.217 593.11C735.217 594.244 734.964 595.244 734.457 596.11C733.964 596.964 733.291 597.624 732.437 598.09C731.584 598.557 730.637 598.79 729.597 598.79ZM729.597 597.19C730.251 597.19 730.864 597.037 731.437 596.73C732.011 596.424 732.471 595.964 732.817 595.35C733.177 594.737 733.357 593.99 733.357 593.11C733.357 592.23 733.184 591.484 732.837 590.87C732.491 590.257 732.037 589.804 731.477 589.51C730.917 589.204 730.311 589.05 729.657 589.05C728.991 589.05 728.377 589.204 727.817 589.51C727.271 589.804 726.831 590.257 726.497 590.87C726.164 591.484 725.997 592.23 725.997 593.11C725.997 594.004 726.157 594.757 726.477 595.37C726.811 595.984 727.251 596.444 727.797 596.75C728.344 597.044 728.944 597.19 729.597 597.19ZM750.79 587.45C751.644 587.45 752.404 587.63 753.07 587.99C753.737 588.337 754.264 588.864 754.65 589.57C755.037 590.277 755.23 591.137 755.23 592.15V598.61H753.43V592.41C753.43 591.317 753.157 590.484 752.61 589.91C752.077 589.324 751.35 589.03 750.43 589.03C749.484 589.03 748.73 589.337 748.17 589.95C747.61 590.55 747.33 591.424 747.33 592.57V598.61H745.53V592.41C745.53 591.317 745.257 590.484 744.71 589.91C744.177 589.324 743.45 589.03 742.53 589.03C741.584 589.03 740.83 589.337 740.27 589.95C739.71 590.55 739.43 591.424 739.43 592.57V598.61H737.61V587.65H739.43V589.23C739.79 588.657 740.27 588.217 740.87 587.91C741.484 587.604 742.157 587.45 742.89 587.45C743.81 587.45 744.624 587.657 745.33 588.07C746.037 588.484 746.564 589.09 746.91 589.89C747.217 589.117 747.724 588.517 748.43 588.09C749.137 587.664 749.924 587.45 750.79 587.45ZM768.216 592.71C768.216 593.057 768.196 593.424 768.156 593.81H759.396C759.462 594.89 759.829 595.737 760.496 596.35C761.176 596.95 761.996 597.25 762.956 597.25C763.742 597.25 764.396 597.07 764.916 596.71C765.449 596.337 765.822 595.844 766.036 595.23H767.996C767.702 596.284 767.116 597.144 766.236 597.81C765.356 598.464 764.262 598.79 762.956 598.79C761.916 598.79 760.982 598.557 760.156 598.09C759.342 597.624 758.702 596.964 758.236 596.11C757.769 595.244 757.536 594.244 757.536 593.11C757.536 591.977 757.762 590.984 758.216 590.13C758.669 589.277 759.302 588.624 760.116 588.17C760.942 587.704 761.889 587.47 762.956 587.47C763.996 587.47 764.916 587.697 765.716 588.15C766.516 588.604 767.129 589.23 767.556 590.03C767.996 590.817 768.216 591.71 768.216 592.71ZM766.336 592.33C766.336 591.637 766.182 591.044 765.876 590.55C765.569 590.044 765.149 589.664 764.616 589.41C764.096 589.144 763.516 589.01 762.876 589.01C761.956 589.01 761.169 589.304 760.516 589.89C759.876 590.477 759.509 591.29 759.416 592.33H766.336Z" fill="#D3D3D3"/>
<g filter="url(#filter2_d_513_2)">
<rect x="610" y="614.906" width="508" height="61.7956" rx="4" stroke="#D3D3D3" stroke-width="2" shape-rendering="crispEdges"/>
</g>
<path d="M651.68 639.733V653.573H649.86V643.253L645.26 653.573H643.98L639.36 643.233V653.573H637.54V639.733H639.5L644.62 651.173L649.74 639.733H651.68ZM659.547 653.753C658.52 653.753 657.587 653.52 656.747 653.053C655.92 652.586 655.267 651.926 654.787 651.073C654.32 650.206 654.087 649.206 654.087 648.073C654.087 646.953 654.327 645.966 654.807 645.113C655.3 644.246 655.967 643.586 656.807 643.133C657.647 642.666 658.587 642.433 659.627 642.433C660.667 642.433 661.607 642.666 662.447 643.133C663.287 643.586 663.947 644.24 664.427 645.093C664.92 645.946 665.167 646.94 665.167 648.073C665.167 649.206 664.913 650.206 664.407 651.073C663.913 651.926 663.24 652.586 662.387 653.053C661.533 653.52 660.587 653.753 659.547 653.753ZM659.547 652.153C660.2 652.153 660.813 652 661.387 651.693C661.96 651.386 662.42 650.926 662.767 650.313C663.127 649.7 663.307 648.953 663.307 648.073C663.307 647.193 663.133 646.446 662.787 645.833C662.44 645.22 661.987 644.766 661.427 644.473C660.867 644.166 660.26 644.013 659.607 644.013C658.94 644.013 658.327 644.166 657.767 644.473C657.22 644.766 656.78 645.22 656.447 645.833C656.113 646.446 655.947 647.193 655.947 648.073C655.947 648.966 656.107 649.72 656.427 650.333C656.76 650.946 657.2 651.406 657.747 651.713C658.293 652.006 658.893 652.153 659.547 652.153ZM672.9 642.413C674.233 642.413 675.313 642.82 676.14 643.633C676.966 644.433 677.38 645.593 677.38 647.113V653.573H675.58V647.373C675.58 646.28 675.306 645.446 674.76 644.873C674.213 644.286 673.466 643.993 672.52 643.993C671.56 643.993 670.793 644.293 670.22 644.893C669.66 645.493 669.38 646.366 669.38 647.513V653.573H667.56V642.613H669.38V644.173C669.74 643.613 670.226 643.18 670.84 642.873C671.466 642.566 672.153 642.413 672.9 642.413ZM682.573 644.113V650.573C682.573 651.106 682.686 651.486 682.913 651.713C683.139 651.926 683.533 652.033 684.092 652.033H685.433V653.573H683.793C682.779 653.573 682.019 653.34 681.513 652.873C681.006 652.406 680.753 651.64 680.753 650.573V644.113H679.333V642.613H680.753V639.853H682.573V642.613H685.433V644.113H682.573ZM693.078 642.413C693.904 642.413 694.651 642.593 695.318 642.953C695.984 643.3 696.504 643.826 696.878 644.533C697.264 645.24 697.458 646.1 697.458 647.113V653.573H695.658V647.373C695.658 646.28 695.384 645.446 694.838 644.873C694.291 644.286 693.544 643.993 692.598 643.993C691.638 643.993 690.871 644.293 690.298 644.893C689.738 645.493 689.458 646.366 689.458 647.513V653.573H687.638V638.773H689.458V644.173C689.818 643.613 690.311 643.18 690.938 642.873C691.578 642.566 692.291 642.413 693.078 642.413ZM702.251 638.773V653.573H700.431V638.773H702.251ZM714.793 642.613L708.193 658.733H706.312L708.473 653.453L704.053 642.613H706.073L709.513 651.493L712.913 642.613H714.793ZM722.894 640.833C722.547 640.833 722.254 640.713 722.014 640.473C721.774 640.233 721.654 639.94 721.654 639.593C721.654 639.246 721.774 638.953 722.014 638.713C722.254 638.473 722.547 638.353 722.894 638.353C723.227 638.353 723.507 638.473 723.734 638.713C723.974 638.953 724.094 639.246 724.094 639.593C724.094 639.94 723.974 640.233 723.734 640.473C723.507 640.713 723.227 640.833 722.894 640.833ZM723.774 642.613V653.573H721.954V642.613H723.774ZM732.216 642.413C733.549 642.413 734.629 642.82 735.456 643.633C736.283 644.433 736.696 645.593 736.696 647.113V653.573H734.896V647.373C734.896 646.28 734.623 645.446 734.076 644.873C733.529 644.286 732.783 643.993 731.836 643.993C730.876 643.993 730.109 644.293 729.536 644.893C728.976 645.493 728.696 646.366 728.696 647.513V653.573H726.876V642.613H728.696V644.173C729.056 643.613 729.543 643.18 730.156 642.873C730.783 642.566 731.469 642.413 732.216 642.413ZM738.989 648.073C738.989 646.94 739.216 645.953 739.669 645.113C740.122 644.26 740.749 643.6 741.549 643.133C742.362 642.666 743.289 642.433 744.329 642.433C745.676 642.433 746.782 642.76 747.649 643.413C748.529 644.066 749.109 644.973 749.389 646.133H747.429C747.242 645.466 746.876 644.94 746.329 644.553C745.796 644.166 745.129 643.973 744.329 643.973C743.289 643.973 742.449 644.333 741.809 645.053C741.169 645.76 740.849 646.766 740.849 648.073C740.849 649.393 741.169 650.413 741.809 651.133C742.449 651.853 743.289 652.213 744.329 652.213C745.129 652.213 745.796 652.026 746.329 651.653C746.862 651.28 747.229 650.746 747.429 650.053H749.389C749.096 651.173 748.509 652.073 747.629 652.753C746.749 653.42 745.649 653.753 744.329 653.753C743.289 653.753 742.362 653.52 741.549 653.053C740.749 652.586 740.122 651.926 739.669 651.073C739.216 650.22 738.989 649.22 738.989 648.073ZM756.597 653.753C755.571 653.753 754.637 653.52 753.797 653.053C752.971 652.586 752.317 651.926 751.837 651.073C751.371 650.206 751.137 649.206 751.137 648.073C751.137 646.953 751.377 645.966 751.857 645.113C752.351 644.246 753.017 643.586 753.857 643.133C754.697 642.666 755.637 642.433 756.677 642.433C757.717 642.433 758.657 642.666 759.497 643.133C760.337 643.586 760.997 644.24 761.477 645.093C761.971 645.946 762.217 646.94 762.217 648.073C762.217 649.206 761.964 650.206 761.457 651.073C760.964 651.926 760.291 652.586 759.437 653.053C758.584 653.52 757.637 653.753 756.597 653.753ZM756.597 652.153C757.251 652.153 757.864 652 758.437 651.693C759.011 651.386 759.471 650.926 759.817 650.313C760.177 649.7 760.357 648.953 760.357 648.073C760.357 647.193 760.184 646.446 759.837 645.833C759.491 645.22 759.037 644.766 758.477 644.473C757.917 644.166 757.311 644.013 756.657 644.013C755.991 644.013 755.377 644.166 754.817 644.473C754.271 644.766 753.831 645.22 753.497 645.833C753.164 646.446 752.997 647.193 752.997 648.073C752.997 648.966 753.157 649.72 753.477 650.333C753.811 650.946 754.251 651.406 754.797 651.713C755.344 652.006 755.944 652.153 756.597 652.153ZM777.79 642.413C778.644 642.413 779.404 642.593 780.07 642.953C780.737 643.3 781.264 643.826 781.65 644.533C782.037 645.24 782.23 646.1 782.23 647.113V653.573H780.43V647.373C780.43 646.28 780.157 645.446 779.61 644.873C779.077 644.286 778.35 643.993 777.43 643.993C776.484 643.993 775.73 644.3 775.17 644.913C774.61 645.513 774.33 646.386 774.33 647.533V653.573H772.53V647.373C772.53 646.28 772.257 645.446 771.71 644.873C771.177 644.286 770.45 643.993 769.53 643.993C768.584 643.993 767.83 644.3 767.27 644.913C766.71 645.513 766.43 646.386 766.43 647.533V653.573H764.61V642.613H766.43V644.193C766.79 643.62 767.27 643.18 767.87 642.873C768.484 642.566 769.157 642.413 769.89 642.413C770.81 642.413 771.624 642.62 772.33 643.033C773.037 643.446 773.564 644.053 773.91 644.853C774.217 644.08 774.724 643.48 775.43 643.053C776.137 642.626 776.924 642.413 777.79 642.413ZM795.216 647.673C795.216 648.02 795.196 648.386 795.156 648.773H786.396C786.462 649.853 786.829 650.7 787.496 651.313C788.176 651.913 788.996 652.213 789.956 652.213C790.742 652.213 791.396 652.033 791.916 651.673C792.449 651.3 792.822 650.806 793.036 650.193H794.996C794.702 651.246 794.116 652.106 793.236 652.773C792.356 653.426 791.262 653.753 789.956 653.753C788.916 653.753 787.982 653.52 787.156 653.053C786.342 652.586 785.702 651.926 785.236 651.073C784.769 650.206 784.536 649.206 784.536 648.073C784.536 646.94 784.762 645.946 785.216 645.093C785.669 644.24 786.302 643.586 787.116 643.133C787.942 642.666 788.889 642.433 789.956 642.433C790.996 642.433 791.916 642.66 792.716 643.113C793.516 643.566 794.129 644.193 794.556 644.993C794.996 645.78 795.216 646.673 795.216 647.673ZM793.336 647.293C793.336 646.6 793.182 646.006 792.876 645.513C792.569 645.006 792.149 644.626 791.616 644.373C791.096 644.106 790.516 643.973 789.876 643.973C788.956 643.973 788.169 644.266 787.516 644.853C786.876 645.44 786.509 646.253 786.416 647.293H793.336Z" fill="#A89696"/>
<path d="M1081.5 777.875L1088.5 784.875L1095.5 777.875" stroke="#545454" stroke-width="1.75" stroke-linecap="round" stroke-linejoin="round"/>
<path d="M618.78 730.953H612.7L611.58 734.053H609.66L614.7 720.193H616.8L621.82 734.053H619.9L618.78 730.953ZM618.26 729.473L615.74 722.433L613.22 729.473H618.26ZM623.337 728.533C623.337 727.413 623.563 726.433 624.017 725.593C624.47 724.74 625.09 724.08 625.877 723.613C626.677 723.147 627.57 722.913 628.557 722.913C629.41 722.913 630.203 723.113 630.937 723.513C631.67 723.9 632.23 724.413 632.617 725.053V719.253H634.457V734.053H632.617V731.993C632.257 732.647 631.723 733.187 631.017 733.613C630.31 734.027 629.483 734.233 628.537 734.233C627.563 734.233 626.677 733.993 625.877 733.513C625.09 733.033 624.47 732.36 624.017 731.493C623.563 730.627 623.337 729.64 623.337 728.533ZM632.617 728.553C632.617 727.727 632.45 727.007 632.117 726.393C631.783 725.78 631.33 725.313 630.757 724.993C630.197 724.66 629.577 724.493 628.897 724.493C628.217 724.493 627.597 724.653 627.037 724.973C626.477 725.293 626.03 725.76 625.697 726.373C625.363 726.987 625.197 727.707 625.197 728.533C625.197 729.373 625.363 730.107 625.697 730.733C626.03 731.347 626.477 731.82 627.037 732.153C627.597 732.473 628.217 732.633 628.897 732.633C629.577 732.633 630.197 732.473 630.757 732.153C631.33 731.82 631.783 731.347 632.117 730.733C632.45 730.107 632.617 729.38 632.617 728.553ZM636.852 728.533C636.852 727.413 637.079 726.433 637.532 725.593C637.986 724.74 638.606 724.08 639.392 723.613C640.192 723.147 641.086 722.913 642.072 722.913C642.926 722.913 643.719 723.113 644.452 723.513C645.186 723.9 645.746 724.413 646.132 725.053V719.253H647.972V734.053H646.132V731.993C645.772 732.647 645.239 733.187 644.532 733.613C643.826 734.027 642.999 734.233 642.052 734.233C641.079 734.233 640.192 733.993 639.392 733.513C638.606 733.033 637.986 732.36 637.532 731.493C637.079 730.627 636.852 729.64 636.852 728.533ZM646.132 728.553C646.132 727.727 645.966 727.007 645.632 726.393C645.299 725.78 644.846 725.313 644.272 724.993C643.712 724.66 643.092 724.493 642.412 724.493C641.732 724.493 641.112 724.653 640.552 724.973C639.992 725.293 639.546 725.76 639.212 726.373C638.879 726.987 638.712 727.707 638.712 728.533C638.712 729.373 638.879 730.107 639.212 730.733C639.546 731.347 639.992 731.82 640.552 732.153C641.112 732.473 641.732 732.633 642.412 732.633C643.092 732.633 643.712 732.473 644.272 732.153C644.846 731.82 645.299 731.347 645.632 730.733C645.966 730.107 646.132 729.38 646.132 728.553ZM658.2 721.593V726.253H663.28V727.753H658.2V732.553H663.88V734.053H656.38V720.093H663.88V721.593H658.2ZM672.354 734.053L669.754 729.973L667.254 734.053H665.354L668.894 728.613L665.354 723.093H667.414L670.014 727.153L672.494 723.093H674.394L670.874 728.513L674.414 734.053H672.354ZM678.024 725.113C678.384 724.487 678.917 723.967 679.624 723.553C680.344 723.127 681.177 722.913 682.124 722.913C683.097 722.913 683.977 723.147 684.764 723.613C685.564 724.08 686.191 724.74 686.644 725.593C687.097 726.433 687.324 727.413 687.324 728.533C687.324 729.64 687.097 730.627 686.644 731.493C686.191 732.36 685.564 733.033 684.764 733.513C683.977 733.993 683.097 734.233 682.124 734.233C681.191 734.233 680.364 734.027 679.644 733.613C678.937 733.187 678.397 732.66 678.024 732.033V739.253H676.204V723.093H678.024V725.113ZM685.464 728.533C685.464 727.707 685.297 726.987 684.964 726.373C684.631 725.76 684.177 725.293 683.604 724.973C683.044 724.653 682.424 724.493 681.744 724.493C681.077 724.493 680.457 724.66 679.884 724.993C679.324 725.313 678.871 725.787 678.524 726.413C678.191 727.027 678.024 727.74 678.024 728.553C678.024 729.38 678.191 730.107 678.524 730.733C678.871 731.347 679.324 731.82 679.884 732.153C680.457 732.473 681.077 732.633 681.744 732.633C682.424 732.633 683.044 732.473 683.604 732.153C684.177 731.82 684.631 731.347 684.964 730.733C685.297 730.107 685.464 729.373 685.464 728.533ZM699.72 728.153C699.72 728.5 699.7 728.867 699.66 729.253H690.9C690.966 730.333 691.333 731.18 692 731.793C692.68 732.393 693.5 732.693 694.46 732.693C695.246 732.693 695.9 732.513 696.42 732.153C696.953 731.78 697.326 731.287 697.54 730.673H699.5C699.206 731.727 698.62 732.587 697.74 733.253C696.86 733.907 695.766 734.233 694.46 734.233C693.42 734.233 692.486 734 691.66 733.533C690.846 733.067 690.206 732.407 689.74 731.553C689.273 730.687 689.04 729.687 689.04 728.553C689.04 727.42 689.266 726.427 689.72 725.573C690.173 724.72 690.806 724.067 691.62 723.613C692.446 723.147 693.393 722.913 694.46 722.913C695.5 722.913 696.42 723.14 697.22 723.593C698.02 724.047 698.633 724.673 699.06 725.473C699.5 726.26 699.72 727.153 699.72 728.153ZM697.84 727.773C697.84 727.08 697.686 726.487 697.38 725.993C697.073 725.487 696.653 725.107 696.12 724.853C695.6 724.587 695.02 724.453 694.38 724.453C693.46 724.453 692.673 724.747 692.02 725.333C691.38 725.92 691.013 726.733 690.92 727.773H697.84ZM707.462 722.893C708.795 722.893 709.875 723.3 710.702 724.113C711.529 724.913 711.942 726.073 711.942 727.593V734.053H710.142V727.853C710.142 726.76 709.869 725.927 709.322 725.353C708.775 724.767 708.029 724.473 707.082 724.473C706.122 724.473 705.355 724.773 704.782 725.373C704.222 725.973 703.942 726.847 703.942 727.993V734.053H702.122V723.093H703.942V724.653C704.302 724.093 704.789 723.66 705.402 723.353C706.029 723.047 706.715 722.893 707.462 722.893ZM718.795 734.233C717.955 734.233 717.202 734.093 716.535 733.813C715.868 733.52 715.342 733.12 714.955 732.613C714.568 732.093 714.355 731.5 714.315 730.833H716.195C716.248 731.38 716.502 731.827 716.955 732.173C717.422 732.52 718.028 732.693 718.775 732.693C719.468 732.693 720.015 732.54 720.415 732.233C720.815 731.927 721.015 731.54 721.015 731.073C721.015 730.593 720.802 730.24 720.375 730.013C719.948 729.773 719.288 729.54 718.395 729.313C717.582 729.1 716.915 728.887 716.395 728.673C715.888 728.447 715.448 728.12 715.075 727.693C714.715 727.253 714.535 726.68 714.535 725.973C714.535 725.413 714.702 724.9 715.035 724.433C715.368 723.967 715.842 723.6 716.455 723.333C717.068 723.053 717.768 722.913 718.555 722.913C719.768 722.913 720.748 723.22 721.495 723.833C722.242 724.447 722.642 725.287 722.695 726.353H720.875C720.835 725.78 720.602 725.32 720.175 724.973C719.762 724.627 719.202 724.453 718.495 724.453C717.842 724.453 717.322 724.593 716.935 724.873C716.548 725.153 716.355 725.52 716.355 725.973C716.355 726.333 716.468 726.633 716.695 726.873C716.935 727.1 717.228 727.287 717.575 727.433C717.935 727.567 718.428 727.72 719.055 727.893C719.842 728.107 720.482 728.32 720.975 728.533C721.468 728.733 721.888 729.04 722.235 729.453C722.595 729.867 722.782 730.407 722.795 731.073C722.795 731.673 722.628 732.213 722.295 732.693C721.962 733.173 721.488 733.553 720.875 733.833C720.275 734.1 719.582 734.233 718.795 734.233ZM735.364 728.153C735.364 728.5 735.344 728.867 735.304 729.253H726.544C726.611 730.333 726.978 731.18 727.644 731.793C728.324 732.393 729.144 732.693 730.104 732.693C730.891 732.693 731.544 732.513 732.064 732.153C732.598 731.78 732.971 731.287 733.184 730.673H735.144C734.851 731.727 734.264 732.587 733.384 733.253C732.504 733.907 731.411 734.233 730.104 734.233C729.064 734.233 728.131 734 727.304 733.533C726.491 733.067 725.851 732.407 725.384 731.553C724.918 730.687 724.684 729.687 724.684 728.553C724.684 727.42 724.911 726.427 725.364 725.573C725.818 724.72 726.451 724.067 727.264 723.613C728.091 723.147 729.038 722.913 730.104 722.913C731.144 722.913 732.064 723.14 732.864 723.593C733.664 724.047 734.278 724.673 734.704 725.473C735.144 726.26 735.364 727.153 735.364 728.153ZM733.484 727.773C733.484 727.08 733.331 726.487 733.024 725.993C732.718 725.487 732.298 725.107 731.764 724.853C731.244 724.587 730.664 724.453 730.024 724.453C729.104 724.453 728.318 724.747 727.664 725.333C727.024 725.92 726.658 726.733 726.564 727.773H733.484ZM741.647 734.233C740.807 734.233 740.053 734.093 739.387 733.813C738.72 733.52 738.193 733.12 737.807 732.613C737.42 732.093 737.207 731.5 737.167 730.833H739.047C739.1 731.38 739.353 731.827 739.807 732.173C740.273 732.52 740.88 732.693 741.627 732.693C742.32 732.693 742.867 732.54 743.267 732.233C743.667 731.927 743.867 731.54 743.867 731.073C743.867 730.593 743.653 730.24 743.227 730.013C742.8 729.773 742.14 729.54 741.247 729.313C740.433 729.1 739.767 728.887 739.247 728.673C738.74 728.447 738.3 728.12 737.927 727.693C737.567 727.253 737.387 726.68 737.387 725.973C737.387 725.413 737.553 724.9 737.887 724.433C738.22 723.967 738.693 723.6 739.307 723.333C739.92 723.053 740.62 722.913 741.407 722.913C742.62 722.913 743.6 723.22 744.347 723.833C745.093 724.447 745.493 725.287 745.547 726.353H743.727C743.687 725.78 743.453 725.32 743.027 724.973C742.613 724.627 742.053 724.453 741.347 724.453C740.693 724.453 740.173 724.593 739.787 724.873C739.4 725.153 739.207 725.52 739.207 725.973C739.207 726.333 739.32 726.633 739.547 726.873C739.787 727.1 740.08 727.287 740.427 727.433C740.787 727.567 741.28 727.72 741.907 727.893C742.693 728.107 743.333 728.32 743.827 728.533C744.32 728.733 744.74 729.04 745.087 729.453C745.447 729.867 745.633 730.407 745.647 731.073C745.647 731.673 745.48 732.213 745.147 732.693C744.813 733.173 744.34 733.553 743.727 733.833C743.127 734.1 742.433 734.233 741.647 734.233Z" fill="#D3D3D3"/>
<g filter="url(#filter3_d_513_2)">
<rect x="610" y="750.349" width="508" height="61.7956" rx="4" stroke="#D3D3D3" stroke-width="2" shape-rendering="crispEdges"/>
</g>
<path d="M658.267 783.116C658.267 783.463 658.247 783.829 658.207 784.216H649.447C649.513 785.296 649.88 786.143 650.547 786.756C651.227 787.356 652.047 787.656 653.007 787.656C653.793 787.656 654.447 787.476 654.967 787.116C655.5 786.743 655.873 786.249 656.087 785.636H658.047C657.753 786.689 657.167 787.549 656.287 788.216C655.407 788.869 654.313 789.196 653.007 789.196C651.967 789.196 651.033 788.963 650.207 788.496C649.393 788.029 648.753 787.369 648.287 786.516C647.82 785.649 647.587 784.649 647.587 783.516C647.587 782.383 647.813 781.389 648.267 780.536C648.72 779.683 649.353 779.029 650.167 778.576C650.993 778.109 651.94 777.876 653.007 777.876C654.047 777.876 654.967 778.103 655.767 778.556C656.567 779.009 657.18 779.636 657.607 780.436C658.047 781.223 658.267 782.116 658.267 783.116ZM656.387 782.736C656.387 782.043 656.233 781.449 655.927 780.956C655.62 780.449 655.2 780.069 654.667 779.816C654.147 779.549 653.567 779.416 652.927 779.416C652.007 779.416 651.22 779.709 650.567 780.296C649.927 780.883 649.56 781.696 649.467 782.736H656.387ZM666.389 789.016L663.789 784.936L661.289 789.016H659.389L662.929 783.576L659.389 778.056H661.449L664.049 782.116L666.529 778.056H668.429L664.909 783.476L668.449 789.016H666.389ZM672.059 780.076C672.419 779.449 672.953 778.929 673.659 778.516C674.379 778.089 675.213 777.876 676.159 777.876C677.133 777.876 678.013 778.109 678.799 778.576C679.599 779.043 680.226 779.703 680.679 780.556C681.133 781.396 681.359 782.376 681.359 783.496C681.359 784.603 681.133 785.589 680.679 786.456C680.226 787.323 679.599 787.996 678.799 788.476C678.013 788.956 677.133 789.196 676.159 789.196C675.226 789.196 674.399 788.989 673.679 788.576C672.973 788.149 672.433 787.623 672.059 786.996V794.216H670.239V778.056H672.059V780.076ZM679.499 783.496C679.499 782.669 679.333 781.949 678.999 781.336C678.666 780.723 678.213 780.256 677.639 779.936C677.079 779.616 676.459 779.456 675.779 779.456C675.113 779.456 674.493 779.623 673.919 779.956C673.359 780.276 672.906 780.749 672.559 781.376C672.226 781.989 672.059 782.703 672.059 783.516C672.059 784.343 672.226 785.069 672.559 785.696C672.906 786.309 673.359 786.783 673.919 787.116C674.493 787.436 675.113 787.596 675.779 787.596C676.459 787.596 677.079 787.436 677.639 787.116C678.213 786.783 678.666 786.309 678.999 785.696C679.333 785.069 679.499 784.336 679.499 783.496ZM693.755 783.116C693.755 783.463 693.735 783.829 693.695 784.216H684.935C685.002 785.296 685.368 786.143 686.035 786.756C686.715 787.356 687.535 787.656 688.495 787.656C689.282 787.656 689.935 787.476 690.455 787.116C690.988 786.743 691.362 786.249 691.575 785.636H693.535C693.242 786.689 692.655 787.549 691.775 788.216C690.895 788.869 689.802 789.196 688.495 789.196C687.455 789.196 686.522 788.963 685.695 788.496C684.882 788.029 684.242 787.369 683.775 786.516C683.308 785.649 683.075 784.649 683.075 783.516C683.075 782.383 683.302 781.389 683.755 780.536C684.208 779.683 684.842 779.029 685.655 778.576C686.482 778.109 687.428 777.876 688.495 777.876C689.535 777.876 690.455 778.103 691.255 778.556C692.055 779.009 692.668 779.636 693.095 780.436C693.535 781.223 693.755 782.116 693.755 783.116ZM691.875 782.736C691.875 782.043 691.722 781.449 691.415 780.956C691.108 780.449 690.688 780.069 690.155 779.816C689.635 779.549 689.055 779.416 688.415 779.416C687.495 779.416 686.708 779.709 686.055 780.296C685.415 780.883 685.048 781.696 684.955 782.736H691.875ZM701.497 777.856C702.831 777.856 703.911 778.263 704.737 779.076C705.564 779.876 705.977 781.036 705.977 782.556V789.016H704.177V782.816C704.177 781.723 703.904 780.889 703.357 780.316C702.811 779.729 702.064 779.436 701.117 779.436C700.157 779.436 699.391 779.736 698.817 780.336C698.257 780.936 697.977 781.809 697.977 782.956V789.016H696.157V778.056H697.977V779.616C698.337 779.056 698.824 778.623 699.437 778.316C700.064 778.009 700.751 777.856 701.497 777.856ZM712.83 789.196C711.99 789.196 711.237 789.056 710.57 788.776C709.903 788.483 709.377 788.083 708.99 787.576C708.603 787.056 708.39 786.463 708.35 785.796H710.23C710.283 786.343 710.537 786.789 710.99 787.136C711.457 787.483 712.063 787.656 712.81 787.656C713.503 787.656 714.05 787.503 714.45 787.196C714.85 786.889 715.05 786.503 715.05 786.036C715.05 785.556 714.837 785.203 714.41 784.976C713.983 784.736 713.323 784.503 712.43 784.276C711.617 784.063 710.95 783.849 710.43 783.636C709.923 783.409 709.483 783.083 709.11 782.656C708.75 782.216 708.57 781.643 708.57 780.936C708.57 780.376 708.737 779.863 709.07 779.396C709.403 778.929 709.877 778.563 710.49 778.296C711.103 778.016 711.803 777.876 712.59 777.876C713.803 777.876 714.783 778.183 715.53 778.796C716.277 779.409 716.677 780.249 716.73 781.316H714.91C714.87 780.743 714.637 780.283 714.21 779.936C713.797 779.589 713.237 779.416 712.53 779.416C711.877 779.416 711.357 779.556 710.97 779.836C710.583 780.116 710.39 780.483 710.39 780.936C710.39 781.296 710.503 781.596 710.73 781.836C710.97 782.063 711.263 782.249 711.61 782.396C711.97 782.529 712.463 782.683 713.09 782.856C713.877 783.069 714.517 783.283 715.01 783.496C715.503 783.696 715.923 784.003 716.27 784.416C716.63 784.829 716.817 785.369 716.83 786.036C716.83 786.636 716.663 787.176 716.33 787.656C715.997 788.136 715.523 788.516 714.91 788.796C714.31 789.063 713.617 789.196 712.83 789.196ZM729.399 783.116C729.399 783.463 729.379 783.829 729.339 784.216H720.579C720.646 785.296 721.013 786.143 721.679 786.756C722.359 787.356 723.179 787.656 724.139 787.656C724.926 787.656 725.579 787.476 726.099 787.116C726.633 786.743 727.006 786.249 727.219 785.636H729.179C728.886 786.689 728.299 787.549 727.419 788.216C726.539 788.869 725.446 789.196 724.139 789.196C723.099 789.196 722.166 788.963 721.339 788.496C720.526 788.029 719.886 787.369 719.419 786.516C718.953 785.649 718.719 784.649 718.719 783.516C718.719 782.383 718.946 781.389 719.399 780.536C719.853 779.683 720.486 779.029 721.299 778.576C722.126 778.109 723.073 777.876 724.139 777.876C725.179 777.876 726.099 778.103 726.899 778.556C727.699 779.009 728.313 779.636 728.739 780.436C729.179 781.223 729.399 782.116 729.399 783.116ZM727.519 782.736C727.519 782.043 727.366 781.449 727.059 780.956C726.753 780.449 726.333 780.069 725.799 779.816C725.279 779.549 724.699 779.416 724.059 779.416C723.139 779.416 722.353 779.709 721.699 780.296C721.059 780.883 720.693 781.696 720.599 782.736H727.519ZM735.682 789.196C734.842 789.196 734.088 789.056 733.422 788.776C732.755 788.483 732.228 788.083 731.842 787.576C731.455 787.056 731.242 786.463 731.202 785.796H733.082C733.135 786.343 733.388 786.789 733.842 787.136C734.308 787.483 734.915 787.656 735.662 787.656C736.355 787.656 736.902 787.503 737.302 787.196C737.702 786.889 737.902 786.503 737.902 786.036C737.902 785.556 737.688 785.203 737.262 784.976C736.835 784.736 736.175 784.503 735.282 784.276C734.468 784.063 733.802 783.849 733.282 783.636C732.775 783.409 732.335 783.083 731.962 782.656C731.602 782.216 731.422 781.643 731.422 780.936C731.422 780.376 731.588 779.863 731.922 779.396C732.255 778.929 732.728 778.563 733.342 778.296C733.955 778.016 734.655 777.876 735.442 777.876C736.655 777.876 737.635 778.183 738.382 778.796C739.128 779.409 739.528 780.249 739.582 781.316H737.762C737.722 780.743 737.488 780.283 737.062 779.936C736.648 779.589 736.088 779.416 735.382 779.416C734.728 779.416 734.208 779.556 733.822 779.836C733.435 780.116 733.242 780.483 733.242 780.936C733.242 781.296 733.355 781.596 733.582 781.836C733.822 782.063 734.115 782.249 734.462 782.396C734.822 782.529 735.315 782.683 735.942 782.856C736.728 783.069 737.368 783.283 737.862 783.496C738.355 783.696 738.775 784.003 739.122 784.416C739.482 784.829 739.668 785.369 739.682 786.036C739.682 786.636 739.515 787.176 739.182 787.656C738.848 788.136 738.375 788.516 737.762 788.796C737.162 789.063 736.468 789.196 735.682 789.196Z" fill="#A89696"/>
<path d="M612.36 853.111V857.771H617.44V859.271H612.36V864.071H618.04V865.571H610.54V851.611H618.04V853.111H612.36ZM626.134 854.411C627.467 854.411 628.547 854.817 629.374 855.631C630.201 856.431 630.614 857.591 630.614 859.111V865.571H628.814V859.371C628.814 858.277 628.541 857.444 627.994 856.871C627.447 856.284 626.701 855.991 625.754 855.991C624.794 855.991 624.027 856.291 623.454 856.891C622.894 857.491 622.614 858.364 622.614 859.511V865.571H620.794V854.611H622.614V856.171C622.974 855.611 623.461 855.177 624.074 854.871C624.701 854.564 625.387 854.411 626.134 854.411ZM635.807 856.111V862.571C635.807 863.104 635.92 863.484 636.147 863.711C636.374 863.924 636.767 864.031 637.327 864.031H638.667V865.571H637.027C636.014 865.571 635.254 865.337 634.747 864.871C634.24 864.404 633.987 863.637 633.987 862.571V856.111H632.567V854.611H633.987V851.851H635.807V854.611H638.667V856.111H635.807ZM650.872 859.671C650.872 860.017 650.852 860.384 650.812 860.771H642.052C642.119 861.851 642.485 862.697 643.152 863.311C643.832 863.911 644.652 864.211 645.612 864.211C646.399 864.211 647.052 864.031 647.572 863.671C648.105 863.297 648.479 862.804 648.692 862.191H650.652C650.359 863.244 649.772 864.104 648.892 864.771C648.012 865.424 646.919 865.751 645.612 865.751C644.572 865.751 643.639 865.517 642.812 865.051C641.999 864.584 641.359 863.924 640.892 863.071C640.425 862.204 640.192 861.204 640.192 860.071C640.192 858.937 640.419 857.944 640.872 857.091C641.325 856.237 641.959 855.584 642.772 855.131C643.599 854.664 644.545 854.431 645.612 854.431C646.652 854.431 647.572 854.657 648.372 855.111C649.172 855.564 649.785 856.191 650.212 856.991C650.652 857.777 650.872 858.671 650.872 859.671ZM648.992 859.291C648.992 858.597 648.839 858.004 648.532 857.511C648.225 857.004 647.805 856.624 647.272 856.371C646.752 856.104 646.172 855.971 645.532 855.971C644.612 855.971 643.825 856.264 643.172 856.851C642.532 857.437 642.165 858.251 642.072 859.291H648.992ZM655.094 856.391C655.414 855.764 655.868 855.277 656.454 854.931C657.054 854.584 657.781 854.411 658.634 854.411V856.291H658.154C656.114 856.291 655.094 857.397 655.094 859.611V865.571H653.274V854.611H655.094V856.391ZM674.307 862.471H668.227L667.107 865.571H665.187L670.227 851.711H672.327L677.347 865.571H675.427L674.307 862.471ZM673.787 860.991L671.267 853.951L668.747 860.991H673.787ZM692.724 854.411C693.577 854.411 694.337 854.591 695.004 854.951C695.671 855.297 696.197 855.824 696.584 856.531C696.971 857.237 697.164 858.097 697.164 859.111V865.571H695.364V859.371C695.364 858.277 695.091 857.444 694.544 856.871C694.011 856.284 693.284 855.991 692.364 855.991C691.417 855.991 690.664 856.297 690.104 856.911C689.544 857.511 689.264 858.384 689.264 859.531V865.571H687.464V859.371C687.464 858.277 687.191 857.444 686.644 856.871C686.111 856.284 685.384 855.991 684.464 855.991C683.517 855.991 682.764 856.297 682.204 856.911C681.644 857.511 681.364 858.384 681.364 859.531V865.571H679.544V854.611H681.364V856.191C681.724 855.617 682.204 855.177 682.804 854.871C683.417 854.564 684.091 854.411 684.824 854.411C685.744 854.411 686.557 854.617 687.264 855.031C687.971 855.444 688.497 856.051 688.844 856.851C689.151 856.077 689.657 855.477 690.364 855.051C691.071 854.624 691.857 854.411 692.724 854.411ZM704.929 865.751C703.903 865.751 702.969 865.517 702.129 865.051C701.303 864.584 700.649 863.924 700.169 863.071C699.703 862.204 699.469 861.204 699.469 860.071C699.469 858.951 699.709 857.964 700.189 857.111C700.683 856.244 701.349 855.584 702.189 855.131C703.029 854.664 703.969 854.431 705.009 854.431C706.049 854.431 706.989 854.664 707.829 855.131C708.669 855.584 709.329 856.237 709.809 857.091C710.303 857.944 710.549 858.937 710.549 860.071C710.549 861.204 710.296 862.204 709.789 863.071C709.296 863.924 708.623 864.584 707.769 865.051C706.916 865.517 705.969 865.751 704.929 865.751ZM704.929 864.151C705.583 864.151 706.196 863.997 706.769 863.691C707.343 863.384 707.803 862.924 708.149 862.311C708.509 861.697 708.689 860.951 708.689 860.071C708.689 859.191 708.516 858.444 708.169 857.831C707.823 857.217 707.369 856.764 706.809 856.471C706.249 856.164 705.643 856.011 704.989 856.011C704.323 856.011 703.709 856.164 703.149 856.471C702.603 856.764 702.163 857.217 701.829 857.831C701.496 858.444 701.329 859.191 701.329 860.071C701.329 860.964 701.489 861.717 701.809 862.331C702.143 862.944 702.583 863.404 703.129 863.711C703.676 864.004 704.276 864.151 704.929 864.151ZM722.662 854.611V865.571H720.842V863.951C720.496 864.511 720.009 864.951 719.382 865.271C718.769 865.577 718.089 865.731 717.342 865.731C716.489 865.731 715.722 865.557 715.042 865.211C714.362 864.851 713.822 864.317 713.422 863.611C713.036 862.904 712.842 862.044 712.842 861.031V854.611H714.642V860.791C714.642 861.871 714.916 862.704 715.462 863.291C716.009 863.864 716.756 864.151 717.702 864.151C718.676 864.151 719.442 863.851 720.002 863.251C720.562 862.651 720.842 861.777 720.842 860.631V854.611H722.662ZM731.075 854.411C732.409 854.411 733.489 854.817 734.315 855.631C735.142 856.431 735.555 857.591 735.555 859.111V865.571H733.755V859.371C733.755 858.277 733.482 857.444 732.935 856.871C732.389 856.284 731.642 855.991 730.695 855.991C729.735 855.991 728.969 856.291 728.395 856.891C727.835 857.491 727.555 858.364 727.555 859.511V865.571H725.735V854.611H727.555V856.171C727.915 855.611 728.402 855.177 729.015 854.871C729.642 854.564 730.329 854.411 731.075 854.411ZM740.748 856.111V862.571C740.748 863.104 740.862 863.484 741.088 863.711C741.315 863.924 741.708 864.031 742.268 864.031H743.608V865.571H741.968C740.955 865.571 740.195 865.337 739.688 864.871C739.182 864.404 738.928 863.637 738.928 862.571V856.111H737.508V854.611H738.928V851.851H740.748V854.611H743.608V856.111H740.748Z" fill="#D3D3D3"/>
<g filter="url(#filter4_d_513_2)">
<rect x="610" y="881.866" width="508" height="61.7956" rx="4" stroke="#D3D3D3" stroke-width="2" shape-rendering="crispEdges"/>
</g>
<path d="M647.587 915.013C647.587 913.893 647.813 912.913 648.267 912.073C648.72 911.219 649.34 910.559 650.127 910.093C650.927 909.626 651.813 909.393 652.787 909.393C653.747 909.393 654.58 909.599 655.287 910.013C655.993 910.426 656.52 910.946 656.867 911.573V909.573H658.707V920.533H656.867V918.493C656.507 919.133 655.967 919.666 655.247 920.093C654.54 920.506 653.713 920.713 652.767 920.713C651.793 920.713 650.913 920.473 650.127 919.993C649.34 919.513 648.72 918.839 648.267 917.973C647.813 917.106 647.587 916.119 647.587 915.013ZM656.867 915.033C656.867 914.206 656.7 913.486 656.367 912.873C656.033 912.259 655.58 911.793 655.007 911.473C654.447 911.139 653.827 910.973 653.147 910.973C652.467 910.973 651.847 911.133 651.287 911.453C650.727 911.773 650.28 912.239 649.947 912.853C649.613 913.466 649.447 914.186 649.447 915.013C649.447 915.853 649.613 916.586 649.947 917.213C650.28 917.826 650.727 918.299 651.287 918.633C651.847 918.953 652.467 919.113 653.147 919.113C653.827 919.113 654.447 918.953 655.007 918.633C655.58 918.299 656.033 917.826 656.367 917.213C656.7 916.586 656.867 915.859 656.867 915.033ZM674.962 909.373C675.816 909.373 676.576 909.553 677.242 909.913C677.909 910.259 678.436 910.786 678.822 911.493C679.209 912.199 679.402 913.059 679.402 914.073V920.533H677.602V914.333C677.602 913.239 677.329 912.406 676.782 911.833C676.249 911.246 675.522 910.953 674.602 910.953C673.656 910.953 672.902 911.259 672.342 911.873C671.782 912.473 671.502 913.346 671.502 914.493V920.533H669.702V914.333C669.702 913.239 669.429 912.406 668.882 911.833C668.349 911.246 667.622 910.953 666.702 910.953C665.756 910.953 665.002 911.259 664.442 911.873C663.882 912.473 663.602 913.346 663.602 914.493V920.533H661.782V909.573H663.602V911.153C663.962 910.579 664.442 910.139 665.042 909.833C665.656 909.526 666.329 909.373 667.062 909.373C667.982 909.373 668.796 909.579 669.502 909.993C670.209 910.406 670.736 911.013 671.082 911.813C671.389 911.039 671.896 910.439 672.602 910.013C673.309 909.586 674.096 909.373 674.962 909.373ZM687.168 920.713C686.141 920.713 685.208 920.479 684.368 920.013C683.541 919.546 682.888 918.886 682.408 918.033C681.941 917.166 681.708 916.166 681.708 915.033C681.708 913.913 681.948 912.926 682.428 912.073C682.921 911.206 683.588 910.546 684.428 910.093C685.268 909.626 686.208 909.393 687.248 909.393C688.288 909.393 689.228 909.626 690.068 910.093C690.908 910.546 691.568 911.199 692.048 912.053C692.541 912.906 692.788 913.899 692.788 915.033C692.788 916.166 692.534 917.166 692.028 918.033C691.534 918.886 690.861 919.546 690.008 920.013C689.154 920.479 688.208 920.713 687.168 920.713ZM687.168 919.113C687.821 919.113 688.434 918.959 689.008 918.653C689.581 918.346 690.041 917.886 690.388 917.273C690.748 916.659 690.928 915.913 690.928 915.033C690.928 914.153 690.754 913.406 690.408 912.793C690.061 912.179 689.608 911.726 689.048 911.433C688.488 911.126 687.881 910.973 687.228 910.973C686.561 910.973 685.948 911.126 685.388 911.433C684.841 911.726 684.401 912.179 684.068 912.793C683.734 913.406 683.568 914.153 683.568 915.033C683.568 915.926 683.728 916.679 684.048 917.293C684.381 917.906 684.821 918.366 685.368 918.673C685.914 918.966 686.514 919.113 687.168 919.113ZM704.901 909.573V920.533H703.081V918.913C702.734 919.473 702.247 919.913 701.621 920.233C701.007 920.539 700.327 920.693 699.581 920.693C698.727 920.693 697.961 920.519 697.281 920.173C696.601 919.813 696.061 919.279 695.661 918.573C695.274 917.866 695.081 917.006 695.081 915.993V909.573H696.881V915.753C696.881 916.833 697.154 917.666 697.701 918.253C698.247 918.826 698.994 919.113 699.941 919.113C700.914 919.113 701.681 918.813 702.241 918.213C702.801 917.613 703.081 916.739 703.081 915.593V909.573H704.901ZM713.314 909.373C714.647 909.373 715.727 909.779 716.554 910.593C717.38 911.393 717.794 912.553 717.794 914.073V920.533H715.994V914.333C715.994 913.239 715.72 912.406 715.174 911.833C714.627 911.246 713.88 910.953 712.934 910.953C711.974 910.953 711.207 911.253 710.634 911.853C710.074 912.453 709.794 913.326 709.794 914.473V920.533H707.974V909.573H709.794V911.133C710.154 910.573 710.64 910.139 711.254 909.833C711.88 909.526 712.567 909.373 713.314 909.373ZM722.987 911.073V917.533C722.987 918.066 723.1 918.446 723.327 918.673C723.553 918.886 723.947 918.993 724.507 918.993H725.847V920.533H724.207C723.193 920.533 722.433 920.299 721.927 919.833C721.42 919.366 721.167 918.599 721.167 917.533V911.073H719.747V909.573H721.167V906.813H722.987V909.573H725.847V911.073H722.987Z" fill="#A89696"/>
<g filter="url(#filter5_d_513_2)">
<rect x="609" y="980.977" width="510" height="68.703" rx="5" fill="#D3D3D3"/>
</g>
<path d="M851.984 1026.61H848.624L841.016 1015.11V1026.61H837.656V1009.83H841.016L848.624 1021.35V1009.83H851.984V1026.61ZM867.664 1019.67C867.664 1020.15 867.632 1020.58 867.568 1020.97H857.848C857.928 1021.93 858.264 1022.68 858.856 1023.22C859.448 1023.77 860.176 1024.04 861.04 1024.04C862.288 1024.04 863.176 1023.5 863.704 1022.43H867.328C866.944 1023.71 866.208 1024.77 865.12 1025.6C864.032 1026.41 862.696 1026.82 861.112 1026.82C859.832 1026.82 858.68 1026.54 857.656 1025.98C856.648 1025.41 855.856 1024.6 855.28 1023.56C854.72 1022.52 854.44 1021.32 854.44 1019.96C854.44 1018.58 854.72 1017.37 855.28 1016.33C855.84 1015.29 856.624 1014.49 857.632 1013.93C858.64 1013.37 859.8 1013.09 861.112 1013.09C862.376 1013.09 863.504 1013.37 864.496 1013.91C865.504 1014.45 866.28 1015.23 866.824 1016.24C867.384 1017.23 867.664 1018.37 867.664 1019.67ZM864.184 1018.71C864.168 1017.85 863.856 1017.16 863.248 1016.65C862.64 1016.12 861.896 1015.85 861.016 1015.85C860.184 1015.85 859.48 1016.11 858.904 1016.62C858.344 1017.12 858 1017.81 857.872 1018.71H864.184ZM877.461 1026.61L874.725 1022.48L872.301 1026.61H868.701L873.045 1019.93L868.653 1013.31H872.445L875.157 1017.41L877.605 1013.31H881.205L876.837 1019.93L881.253 1026.61H877.461ZM886.99 1016.07V1022.5C886.99 1022.95 887.094 1023.28 887.302 1023.49C887.526 1023.68 887.894 1023.77 888.406 1023.77H889.966V1026.61H887.854C885.022 1026.61 883.606 1025.23 883.606 1022.48V1016.07H882.022V1013.31H883.606V1010.02H886.99V1013.31H889.966V1016.07H886.99Z" fill="white"/>
</g>
<rect x="2" y="2" width="1724" height="1113" stroke="#D3D3D3" stroke-width="4"/>
<defs>
<filter id="filter0_d_513_2" x="-4" y="0" width="1736" height="116" filterUnits="userSpaceOnUse" color-interpolation-filters="sRGB">
<feFlood flood-opacity="0" result="BackgroundImageFix"/>
<feColorMatrix in="SourceAlpha" type="matrix" values="0 0 0 0 0 0 0 0 0 0 0 0 0 0 0 0 0 0 127 0" result="hardAlpha"/>
<feOffset dy="4"/>
<feGaussianBlur stdDeviation="2"/>
<feComposite in2="hardAlpha" operator="out"/>
<feColorMatrix type="matrix" values="0 0 0 0 0 0 0 0 0 0 0 0 0 0 0 0 0 0 0.25 0"/>
<feBlend mode="normal" in2="BackgroundImageFix" result="effect1_dropShadow_513_2"/>
<feBlend mode="normal" in="SourceGraphic" in2="effect1_dropShadow_513_2" result="shape"/>
</filter>
<filter id="filter1_d_513_2" x="557" y="471" width="614" height="620" filterUnits="userSpaceOnUse" color-interpolation-filters="sRGB">
<feFlood flood-opacity="0" result="BackgroundImageFix"/>
<feColorMatrix in="SourceAlpha" type="matrix" values="0 0 0 0 0 0 0 0 0 0 0 0 0 0 0 0 0 0 127 0" result="hardAlpha"/>
<feOffset dy="4"/>
<feGaussianBlur stdDeviation="2"/>
<feComposite in2="hardAlpha" operator="out"/>
<feColorMatrix type="matrix" values="0 0 0 0 0 0 0 0 0 0 0 0 0 0 0 0 0 0 0.25 0"/>
<feBlend mode="normal" in2="BackgroundImageFix" result="effect1_dropShadow_513_2"/>
<feBlend mode="normal" in="SourceGraphic" in2="effect1_dropShadow_513_2" result="shape"/>
</filter>
<filter id="filter2_d_513_2" x="605" y="613.906" width="518" height="71.7957" filterUnits="userSpaceOnUse" color-interpolation-filters="sRGB">
<feFlood flood-opacity="0" result="BackgroundImageFix"/>
<feColorMatrix in="SourceAlpha" type="matrix" values="0 0 0 0 0 0 0 0 0 0 0 0 0 0 0 0 0 0 127 0" result="hardAlpha"/>
<feOffset dy="4"/>
<feGaussianBlur stdDeviation="2"/>
<feComposite in2="hardAlpha" operator="out"/>
<feColorMatrix type="matrix" values="0 0 0 0 0 0 0 0 0 0 0 0 0 0 0 0 0 0 0.25 0"/>
<feBlend mode="normal" in2="BackgroundImageFix" result="effect1_dropShadow_513_2"/>
<feBlend mode="normal" in="SourceGraphic" in2="effect1_dropShadow_513_2" result="shape"/>
</filter>
<filter id="filter3_d_513_2" x="605" y="749.349" width="518" height="71.7957" filterUnits="userSpaceOnUse" color-interpolation-filters="sRGB">
<feFlood flood-opacity="0" result="BackgroundImageFix"/>
<feColorMatrix in="SourceAlpha" type="matrix" values="0 0 0 0 0 0 0 0 0 0 0 0 0 0 0 0 0 0 127 0" result="hardAlpha"/>
<feOffset dy="4"/>
<feGaussianBlur stdDeviation="2"/>
<feComposite in2="hardAlpha" operator="out"/>
<feColorMatrix type="matrix" values="0 0 0 0 0 0 0 0 0 0 0 0 0 0 0 0 0 0 0.25 0"/>
<feBlend mode="normal" in2="BackgroundImageFix" result="effect1_dropShadow_513_2"/>
<feBlend mode="normal" in="SourceGraphic" in2="effect1_dropShadow_513_2" result="shape"/>
</filter>
<filter id="filter4_d_513_2" x="605" y="880.866" width="518" height="71.7954" filterUnits="userSpaceOnUse" color-interpolation-filters="sRGB">
<feFlood flood-opacity="0" result="BackgroundImageFix"/>
<feColorMatrix in="SourceAlpha" type="matrix" values="0 0 0 0 0 0 0 0 0 0 0 0 0 0 0 0 0 0 127 0" result="hardAlpha"/>
<feOffset dy="4"/>
<feGaussianBlur stdDeviation="2"/>
<feComposite in2="hardAlpha" operator="out"/>
<feColorMatrix type="matrix" values="0 0 0 0 0 0 0 0 0 0 0 0 0 0 0 0 0 0 0.25 0"/>
<feBlend mode="normal" in2="BackgroundImageFix" result="effect1_dropShadow_513_2"/>
<feBlend mode="normal" in="SourceGraphic" in2="effect1_dropShadow_513_2" result="shape"/>
</filter>
<filter id="filter5_d_513_2" x="605" y="980.977" width="518" height="76.7031" filterUnits="userSpaceOnUse" color-interpolation-filters="sRGB">
<feFlood flood-opacity="0" result="BackgroundImageFix"/>
<feColorMatrix in="SourceAlpha" type="matrix" values="0 0 0 0 0 0 0 0 0 0 0 0 0 0 0 0 0 0 127 0" result="hardAlpha"/>
<feOffset dy="4"/>
<feGaussianBlur stdDeviation="2"/>
<feComposite in2="hardAlpha" operator="out"/>
<feColorMatrix type="matrix" values="0 0 0 0 0 0 0 0 0 0 0 0 0 0 0 0 0 0 0.25 0"/>
<feBlend mode="normal" in2="BackgroundImageFix" result="effect1_dropShadow_513_2"/>
<feBlend mode="normal" in="SourceGraphic" in2="effect1_dropShadow_513_2" result="shape"/>
</filter>
<clipPath id="clip0_513_2">
<rect width="1728" height="1117" fill="white"/>
</clipPath>
</defs>
</svg>
